<svg width="44" height="44" viewBox="0 0 44 44" fill="none" xmlns="http://www.w3.org/2000/svg">
<path d="M0.25 12.88C0.25 10.5978 0.250201 8.90151 0.361729 7.55854C0.473008 6.21855 0.693826 5.25277 1.12255 4.42745C1.85783 3.01196 3.01196 1.85783 4.42745 1.12255C5.25277 0.693826 6.21855 0.473008 7.55854 0.361729C8.90151 0.250201 10.5978 0.25 12.88 0.25H31.12C33.4022 0.25 35.0985 0.250201 36.4415 0.361729C37.7814 0.473008 38.7472 0.693826 39.5726 1.12255C40.988 1.85783 42.1422 3.01196 42.8775 4.42745C43.3062 5.25277 43.527 6.21855 43.6383 7.55854C43.7498 8.90151 43.75 10.5978 43.75 12.88V31.12C43.75 33.4022 43.7498 35.0985 43.6383 36.4415C43.527 37.7814 43.3062 38.7472 42.8775 39.5726C42.1422 40.988 40.988 42.1422 39.5726 42.8775C38.7472 43.3062 37.7814 43.527 36.4415 43.6383C35.0985 43.7498 33.4022 43.75 31.12 43.75H12.88C10.5978 43.75 8.90151 43.7498 7.55854 43.6383C6.21855 43.527 5.25277 43.3062 4.42745 42.8775C3.01196 42.1422 1.85783 40.988 1.12255 39.5726C0.693826 38.7472 0.473008 37.7814 0.361729 36.4415C0.250201 35.0985 0.25 33.4022 0.25 31.12V12.88Z" stroke="#3F3F46" stroke-width="0.5"/>
<path fill-rule="evenodd" clip-rule="evenodd" d="M29.7822 22.8992C31.5031 22.4658 32.5813 21.3794 33.037 19.6481C33.6266 17.4077 33.0242 15.6545 31.166 14.2898C30.1894 13.5725 29.0934 13.0896 27.9613 12.6857C27.7452 12.6086 27.6963 12.5146 27.7487 12.3121C27.9442 11.5553 28.1352 10.7973 28.325 10.0392C28.4358 9.59647 28.5448 9.15329 28.6564 8.69911C28.7071 8.49307 28.7583 8.28476 28.8105 8.07321L26.0845 7.3945L24.9862 11.7832L22.7752 11.2576L23.8726 6.84209L21.1621 6.1665C21.1483 6.2076 21.1352 6.24448 21.1229 6.27872C21.0994 6.34478 21.0793 6.40101 21.0649 6.45869C20.9954 6.73697 20.9256 7.01519 20.8558 7.29341C20.5981 8.32078 20.3404 9.34813 20.0953 10.3785C20.0369 10.6242 19.9556 10.667 19.7181 10.6043C18.974 10.4079 18.2266 10.2243 17.4792 10.0407C17.2772 9.9911 17.0752 9.94148 16.8733 9.89161C16.3156 9.75384 15.7576 9.61747 15.1922 9.47928C14.9563 9.42163 14.7191 9.36367 14.4801 9.30516L13.7544 12.2124C13.832 12.2313 13.9077 12.249 13.9821 12.2664C14.1395 12.3031 14.2906 12.3384 14.44 12.3801C14.6104 12.4277 14.7823 12.4717 14.9542 12.5158C15.385 12.6262 15.8159 12.7367 16.2241 12.9028C16.874 13.1674 17.1407 13.83 16.9725 14.5082C16.8299 15.0829 16.6875 15.6577 16.5451 16.2324C16.2424 17.4541 15.9397 18.6758 15.6352 19.8971C15.4571 20.6115 15.2779 21.3257 15.0986 22.0399C14.7211 23.5438 14.3436 25.0478 13.9767 26.5543C13.8562 27.0489 13.3111 27.5169 12.729 27.3477C12.2636 27.2124 11.7892 27.1078 11.3099 27.0022C11.1003 26.956 10.8898 26.9096 10.6787 26.8604L9.33325 29.9617L14.8617 31.3603L13.7282 35.9278L16.4393 36.6013C16.4534 36.5491 16.4663 36.502 16.4783 36.4582C16.5016 36.3733 16.5214 36.301 16.5397 36.2283C16.6049 35.9687 16.6701 35.7092 16.7354 35.4496C16.9951 34.417 17.2547 33.3843 17.5085 32.3503C17.5479 32.1901 17.5929 32.0879 17.7795 32.1376C18.2879 32.2731 18.7964 32.4081 19.3244 32.5484C19.474 32.5881 19.6251 32.6282 19.7782 32.6689L18.6659 37.1594L21.3714 37.8332C21.3846 37.7941 21.3974 37.7585 21.4093 37.7252C21.433 37.6593 21.4535 37.6021 21.4681 37.5435C21.533 37.2834 21.598 37.0233 21.663 36.7633C21.9268 35.7077 22.1906 34.6521 22.4437 33.594C22.502 33.3502 22.5916 33.2684 22.843 33.3307C23.0235 33.3755 23.2087 33.4009 23.394 33.4262C23.4829 33.4384 23.5718 33.4505 23.6602 33.4649C25.0714 33.6931 26.4865 33.7763 27.9008 33.5141C29.1778 33.2773 30.2709 32.7057 31.0895 31.6665C31.9701 30.5489 32.4227 29.2612 32.6164 27.8678C32.8151 26.4383 32.4544 25.1771 31.408 24.1719C31.0699 23.8471 30.6879 23.5681 30.3038 23.2876C30.1291 23.1599 29.9539 23.0319 29.7822 22.8992ZM22.0436 20.3472C23.2595 20.6349 24.4817 20.8569 25.7393 20.6545C27.5618 20.3611 28.1007 18.756 27.7959 17.5866C27.581 16.7619 26.9721 16.248 26.2616 15.8435C25.1536 15.2127 23.932 14.9287 22.7106 14.6448C22.5553 14.6087 22.3996 14.5726 22.2446 14.5358C22.0357 14.4862 21.9989 14.6188 21.96 14.7801C21.8502 15.2357 21.7358 15.6902 21.6215 16.1447C21.5594 16.3918 21.4972 16.6388 21.4358 16.886C21.2606 17.591 21.0862 18.2962 20.9089 19.0127L20.6661 19.9939C20.8236 20.0345 20.9761 20.0745 21.1252 20.1137C21.4407 20.1966 21.7413 20.2756 22.0436 20.3472ZM19.4838 24.72C19.1595 26.0142 18.8352 27.3085 18.508 28.602C18.4586 28.7977 18.5428 28.8323 18.7087 28.8684C19.091 28.9516 19.4721 29.0414 19.8531 29.1313C20.5687 29.3001 21.2842 29.4689 22.0075 29.5931C22.9987 29.7633 24.0068 29.7882 25.0048 29.5559C26.9686 29.0989 27.5365 26.9099 26.5624 25.587C26.1054 24.9663 25.4861 24.5458 24.8056 24.2089C23.456 23.5406 22.0047 23.208 20.5573 22.8763C20.3755 22.8346 20.1937 22.7929 20.0122 22.7506C20.0039 22.761 19.9957 22.7696 19.9885 22.7773C19.9751 22.7917 19.9646 22.8029 19.9614 22.8158C19.8022 23.4496 19.6433 24.0835 19.4845 24.7175L19.4838 24.72Z" fill="white"/>
</svg>
