<svg width="44" height="44" viewBox="0 0 44 44" fill="none" xmlns="http://www.w3.org/2000/svg">
<path d="M0.25 12.88C0.25 10.5978 0.250201 8.90151 0.361729 7.55854C0.473008 6.21855 0.693826 5.25277 1.12255 4.42745C1.85783 3.01196 3.01196 1.85783 4.42745 1.12255C5.25277 0.693826 6.21855 0.473008 7.55854 0.361729C8.90151 0.250201 10.5978 0.25 12.88 0.25H31.12C33.4022 0.25 35.0985 0.250201 36.4415 0.361729C37.7814 0.473008 38.7472 0.693826 39.5726 1.12255C40.988 1.85783 42.1422 3.01196 42.8775 4.42745C43.3062 5.25277 43.527 6.21855 43.6383 7.55854C43.7498 8.90151 43.75 10.5978 43.75 12.88V31.12C43.75 33.4022 43.7498 35.0985 43.6383 36.4415C43.527 37.7814 43.3062 38.7472 42.8775 39.5726C42.1422 40.988 40.988 42.1422 39.5726 42.8775C38.7472 43.3062 37.7814 43.527 36.4415 43.6383C35.0985 43.7498 33.4022 43.75 31.12 43.75H12.88C10.5978 43.75 8.90151 43.7498 7.55854 43.6383C6.21855 43.527 5.25277 43.3062 4.42745 42.8775C3.01196 42.1422 1.85783 40.988 1.12255 39.5726C0.693826 38.7472 0.473008 37.7814 0.361729 36.4415C0.250201 35.0985 0.25 33.4022 0.25 31.12V12.88Z" stroke="#3F3F46" stroke-width="0.5"/>
<path d="M29.166 27.1745L36.1764 23.2572C36.548 23.0491 36.7777 22.6631 36.7777 22.249V14.4143C36.7777 14.0001 36.548 13.6143 36.1764 13.4062L29.166 9.4888C28.7943 9.28072 28.333 9.28274 27.9634 9.4888L20.9529 13.4062C20.5814 13.6143 20.3517 14.0001 20.3517 14.4143V28.415L15.4352 31.1606L10.5186 28.415V22.9218L15.4352 20.1762L18.6774 21.9884V18.3034L16.0364 16.8265C15.8547 16.7255 15.6461 16.671 15.4352 16.671C15.2243 16.671 15.0156 16.7255 14.834 16.8265L7.82343 20.7439C7.45182 20.952 7.22217 21.3379 7.22217 21.7521V29.5868C7.22217 30.0009 7.45182 30.3868 7.82343 30.5949L14.834 34.5123C15.2055 34.7183 15.6648 34.7183 16.0364 34.5123L23.0469 30.5949C23.4186 30.3868 23.6481 30.0009 23.6481 29.5868V15.5841L23.7358 15.5356L28.5626 12.8385L33.4792 15.5841V21.0773L28.5626 23.8229L25.3245 22.0146V25.6998L27.9613 27.1726C28.333 27.3786 28.7943 27.3786 29.1639 27.1726L29.166 27.1745Z" fill="white"/>
</svg>
