<svg width="44" height="44" viewBox="0 0 44 44" fill="none" xmlns="http://www.w3.org/2000/svg">
<path d="M12.88 0.25H31.12C33.4022 0.25 35.0985 0.250201 36.4415 0.361729C37.7814 0.473008 38.7472 0.693826 39.5726 1.12255C40.988 1.85783 42.1422 3.01196 42.8775 4.42745C43.3062 5.25277 43.527 6.21855 43.6383 7.55854C43.7498 8.90151 43.75 10.5978 43.75 12.88V31.12C43.75 33.4022 43.7498 35.0985 43.6383 36.4415C43.527 37.7814 43.3062 38.7472 42.8775 39.5726C42.1422 40.988 40.988 42.1422 39.5726 42.8775C38.7472 43.3062 37.7814 43.527 36.4415 43.6383C35.0985 43.7498 33.4022 43.75 31.12 43.75H12.88C10.5978 43.75 8.90151 43.7498 7.55854 43.6383C6.21855 43.527 5.25277 43.3062 4.42745 42.8775C3.01196 42.1422 1.85783 40.988 1.12255 39.5726C0.693826 38.7472 0.473008 37.7814 0.361729 36.4415C0.250201 35.0985 0.25 33.4022 0.25 31.12V12.88C0.25 10.5978 0.250201 8.90151 0.361729 7.55854C0.473008 6.21855 0.693826 5.25277 1.12255 4.42745C1.85783 3.01196 3.01196 1.85783 4.42745 1.12255C5.25277 0.693826 6.21855 0.473008 7.55854 0.361729C8.90151 0.250201 10.5978 0.25 12.88 0.25Z" stroke="#3F3F46" stroke-width="0.5"/>
<path d="M30.7019 9.43578C31.0275 9.11639 31.465 8.93751 31.9206 8.93751H39.4166L13.2979 34.5642C12.9724 34.8837 12.5349 35.0625 12.0792 35.0625H4.58325L30.7019 9.43578Z" fill="white"/>
<path d="M9.87208 21.4063L16.6655 14.738H21.7719L27.5623 8.9375H13.4203C12.9584 8.9375 12.5154 9.12132 12.1887 9.44852L10.3822 11.2582C10.0556 11.5854 9.87208 12.0292 9.87208 12.4919V21.4063Z" fill="white"/>
<path d="M34.1278 22.5937L27.3343 29.262H22.2279L16.4376 35.0625H30.5795C31.0414 35.0625 31.4844 34.8787 31.8111 34.5515L33.6176 32.7418C33.9443 32.4146 34.1278 31.9709 34.1278 31.5081V22.5937Z" fill="white"/>
</svg>
