<svg width="44" height="44" viewBox="0 0 44 44" fill="none" xmlns="http://www.w3.org/2000/svg">
<path d="M12.88 0.25H31.12C33.4022 0.25 35.0985 0.250201 36.4415 0.361729C37.7814 0.473008 38.7472 0.693826 39.5726 1.12255C40.988 1.85783 42.1422 3.01196 42.8775 4.42745C43.3062 5.25277 43.527 6.21855 43.6383 7.55854C43.7498 8.90151 43.75 10.5978 43.75 12.88V31.12C43.75 33.4022 43.7498 35.0985 43.6383 36.4415C43.527 37.7814 43.3062 38.7472 42.8775 39.5726C42.1422 40.988 40.988 42.1422 39.5726 42.8775C38.7472 43.3062 37.7814 43.527 36.4415 43.6383C35.0985 43.7498 33.4022 43.75 31.12 43.75H12.88C10.5978 43.75 8.90151 43.7498 7.55854 43.6383C6.21855 43.527 5.25277 43.3062 4.42745 42.8775C3.01196 42.1422 1.85783 40.988 1.12255 39.5726C0.693826 38.7472 0.473008 37.7814 0.361729 36.4415C0.250201 35.0985 0.25 33.4022 0.25 31.12V12.88C0.25 10.5978 0.250201 8.90151 0.361729 7.55854C0.473008 6.21855 0.693826 5.25277 1.12255 4.42745C1.85783 3.01196 3.01196 1.85783 4.42745 1.12255C5.25277 0.693826 6.21855 0.473008 7.55854 0.361729C8.90151 0.250201 10.5978 0.25 12.88 0.25Z" stroke="#3F3F46" stroke-width="0.5"/>
<path d="M16.7623 10.5712V13.9014C14.0784 14.9073 11.8373 16.8226 10.4124 19.2707V9.3335H15.5271C16.2086 9.3335 16.7623 9.88721 16.7623 10.5712Z" fill="white"/>
<path d="M25.5872 14.7863V17.9768C25.5872 19.736 24.1608 21.1624 22.4016 21.1624H21.363C18.8297 21.1624 16.7738 23.2134 16.7688 25.7492V34.6666H11.6477C10.9637 34.6666 10.4115 34.1129 10.4115 33.4304V25.8774C10.4065 25.7457 10.4041 25.6139 10.4041 25.4807C10.4041 19.5706 15.1958 14.7773 21.1074 14.7773C21.2407 14.7773 21.3724 14.7798 21.5052 14.7848H25.5877V14.7863H25.5872Z" fill="white"/>
<path d="M27.2373 33.4296V30.0993C29.9227 29.0924 32.1633 27.1772 33.5872 24.7285V34.6668H28.4725C27.792 34.6673 27.2373 34.1136 27.2373 33.4296Z" fill="white"/>
<path d="M18.4126 29.2138V26.0233C18.4126 24.2641 19.839 22.8377 21.5982 22.8377H22.6368C25.1701 22.8377 27.226 20.7867 27.231 18.2509V9.3335H32.3521C33.0361 9.3335 33.5883 9.88721 33.5883 10.5697V18.1227C33.5948 18.2544 33.5958 18.3861 33.5958 18.5204C33.5958 24.4305 28.804 29.2238 22.8924 29.2238C22.7591 29.2238 22.6274 29.2213 22.4947 29.2163H18.4121V29.2138H18.4126Z" fill="white"/>
</svg>
