<svg width="44" height="44" viewBox="0 0 44 44" fill="none" xmlns="http://www.w3.org/2000/svg">
<path d="M0.25 12.88C0.25 10.5978 0.250201 8.90151 0.361729 7.55854C0.473008 6.21855 0.693826 5.25277 1.12255 4.42745C1.85783 3.01196 3.01196 1.85783 4.42745 1.12255C5.25277 0.693826 6.21855 0.473008 7.55854 0.361729C8.90151 0.250201 10.5978 0.25 12.88 0.25H31.12C33.4022 0.25 35.0985 0.250201 36.4415 0.361729C37.7814 0.473008 38.7472 0.693826 39.5726 1.12255C40.988 1.85783 42.1422 3.01196 42.8775 4.42745C43.3062 5.25277 43.527 6.21855 43.6383 7.55854C43.7498 8.90151 43.75 10.5978 43.75 12.88V31.12C43.75 33.4022 43.7498 35.0985 43.6383 36.4415C43.527 37.7814 43.3062 38.7472 42.8775 39.5726C42.1422 40.988 40.988 42.1422 39.5726 42.8775C38.7472 43.3062 37.7814 43.527 36.4415 43.6383C35.0985 43.7498 33.4022 43.75 31.12 43.75H12.88C10.5978 43.75 8.90151 43.7498 7.55854 43.6383C6.21855 43.527 5.25277 43.3062 4.42745 42.8775C3.01196 42.1422 1.85783 40.988 1.12255 39.5726C0.693826 38.7472 0.473008 37.7814 0.361729 36.4415C0.250201 35.0985 0.25 33.4022 0.25 31.12V12.88Z" stroke="#3F3F46" stroke-width="0.5"/>
<path opacity="0.984" fill-rule="evenodd" clip-rule="evenodd" d="M8.62125 8.23193C9.12902 8.23193 9.63673 8.23193 10.1445 8.23193C10.1445 10.0416 10.1445 11.8512 10.1445 13.6608C11.3822 13.5486 12.6074 13.6132 13.8202 13.8547C13.8533 12.0667 13.8644 10.2787 13.8533 8.49045C14.4348 8.56762 15.0088 8.68615 15.5753 8.84592C16.2589 9.05751 16.9432 9.2622 17.6284 9.4599C17.6063 11.2485 17.6284 13.0366 17.6946 14.8242C18.8256 15.2208 19.9515 15.6301 21.0723 16.0521C21.1385 14.3076 21.1606 12.5626 21.1385 10.8171C21.9362 11.0191 22.731 11.2346 23.5228 11.4634V8.84592C24.4053 9.0612 25.487 9.39321 26.3706 9.60875V12.1097C27.1135 12.2808 27.8641 12.4101 28.6224 12.4975C28.6224 11.6573 28.6224 10.8171 28.6224 9.97694C29.4624 10.0632 30.3014 10.1494 31.1391 10.2355C31.1943 11.0748 31.2274 11.915 31.2384 12.756C32.6704 12.8765 34.0281 13.2535 35.3115 13.887C36.4926 14.7381 37.0665 15.8907 37.0335 17.3447C37.0029 19.2786 36.2744 20.9051 34.8479 22.2243C36.9202 22.8289 37.9137 24.1969 37.8282 26.3283C37.7936 28.9285 36.6678 30.9212 34.4505 32.3065C33.44 32.8493 32.3582 33.1401 31.2053 33.179C31.2053 34.0407 31.2053 34.9025 31.2053 35.7642C30.3429 35.7778 29.4819 35.7563 28.6224 35.6996C28.6224 34.8379 28.6224 33.9761 28.6224 33.1144C27.8476 33.0735 27.0749 33.0088 26.3044 32.9205C26.3044 33.7607 26.3044 34.6009 26.3044 35.4411C25.3919 35.36 24.4868 35.2307 23.589 35.0533C23.589 34.17 23.589 33.2867 23.589 32.4035C22.7469 32.2628 21.908 32.1012 21.0723 31.9187C19.926 31.5566 18.7781 31.2011 17.6284 30.8523C17.5622 29.0647 17.5401 27.2767 17.5622 25.4881C16.3642 25.1581 15.15 24.8996 13.9196 24.7125C13.9196 26.5006 13.9196 28.2887 13.9196 30.0768C12.6394 29.9045 11.359 29.9045 10.0783 30.0768C10.0783 28.2672 10.0783 26.4575 10.0783 24.6479C8.97305 24.7019 7.89134 24.885 6.83306 25.1972C6.63438 25.2942 6.43569 25.3911 6.237 25.4881C6.14872 23.6138 6.14872 21.7395 6.237 19.8653C7.45906 19.3409 8.73953 19.1039 10.0783 19.1544C10.1003 17.3442 10.0783 15.5346 10.0121 13.7255C9.28466 13.7972 8.55614 13.8726 7.8265 13.9517C7.25839 14.0683 6.7065 14.2299 6.17077 14.4364C6.15971 12.5835 6.17077 10.7308 6.20389 8.87823C6.9746 8.51075 7.7804 8.29527 8.62125 8.23193ZM13.9196 13.9194C15.1505 14.1469 16.3536 14.4701 17.529 14.8888C17.5732 16.6338 17.5732 18.3788 17.529 20.1238C16.3722 19.7365 15.1912 19.4349 13.9858 19.219C13.9196 17.453 13.8975 15.6864 13.9196 13.9194ZM26.3044 16.4399C27.6222 16.6653 28.9468 16.8484 30.2781 16.9893C31.731 17.2662 32.316 18.1171 32.0332 19.5421C31.7959 20.2029 31.3213 20.6015 30.6093 20.7378C29.1824 20.7684 27.7695 20.6392 26.3706 20.35C26.3048 19.0515 26.2827 17.7482 26.3044 16.4399ZM10.8068 19.0897C11.8282 19.0758 12.8437 19.1405 13.8533 19.2836C13.8533 21.0501 13.8533 22.8167 13.8533 24.5833C12.6241 24.4218 11.3989 24.4218 10.1776 24.5833C10.1445 22.7738 10.1335 20.9641 10.1445 19.1544C10.3791 19.1746 10.5998 19.153 10.8068 19.0897ZM17.6284 20.2531C18.7985 20.6085 19.9575 20.9963 21.1054 21.4164C21.1496 23.1399 21.1496 24.8633 21.1054 26.5868C19.9614 26.1751 18.8024 25.8089 17.6284 25.4881C17.6284 23.7431 17.6284 21.9981 17.6284 20.2531ZM26.3044 24.454C28.0852 24.7183 29.8734 24.9229 31.6689 25.068C32.7261 25.4859 33.1345 26.2508 32.8942 27.3623C32.7242 28.0668 32.2937 28.5515 31.6027 28.8165C31.1923 28.9367 30.7729 28.9906 30.3443 28.9781C28.9888 28.9298 27.6421 28.8005 26.3044 28.5903C26.3044 27.2116 26.3044 25.8327 26.3044 24.454Z" fill="white"/>
</svg>
