<svg width="44" height="44" viewBox="0 0 44 44" fill="none" xmlns="http://www.w3.org/2000/svg">
<path d="M12.88 0.25H31.12C33.4022 0.25 35.0985 0.250201 36.4415 0.361729C37.7814 0.473008 38.7472 0.693826 39.5726 1.12255C40.988 1.85783 42.1422 3.01196 42.8775 4.42745C43.3062 5.25277 43.527 6.21855 43.6383 7.55854C43.7498 8.90151 43.75 10.5978 43.75 12.88V31.12C43.75 33.4022 43.7498 35.0985 43.6383 36.4415C43.527 37.7814 43.3062 38.7472 42.8775 39.5726C42.1422 40.988 40.988 42.1422 39.5726 42.8775C38.7472 43.3062 37.7814 43.527 36.4415 43.6383C35.0985 43.7498 33.4022 43.75 31.12 43.75H12.88C10.5978 43.75 8.90151 43.7498 7.55854 43.6383C6.21855 43.527 5.25277 43.3062 4.42745 42.8775C3.01196 42.1422 1.85783 40.988 1.12255 39.5726C0.693826 38.7472 0.473008 37.7814 0.361729 36.4415C0.250201 35.0985 0.25 33.4022 0.25 31.12V12.88C0.25 10.5978 0.250201 8.90151 0.361729 7.55854C0.473008 6.21855 0.693826 5.25277 1.12255 4.42745C1.85783 3.01196 3.01196 1.85783 4.42745 1.12255C5.25277 0.693826 6.21855 0.473008 7.55854 0.361729C8.90151 0.250201 10.5978 0.25 12.88 0.25Z" stroke="#3F3F46" stroke-width="0.5"/>
<path d="M15.4896 24.1873C16.4351 24.1873 17.308 23.8722 18.0112 23.3268L12.2405 17.5582C11.6949 18.249 11.3797 19.1216 11.3797 20.079C11.3676 22.3452 13.2104 24.1873 15.4896 24.1873Z" fill="white"/>
<path d="M32.6561 20.0668C32.6561 19.1216 32.3409 18.249 31.7953 17.5461L26.0246 23.3146C26.7157 23.86 27.5886 24.1751 28.5463 24.1751C30.8133 24.1872 32.6561 22.3452 32.6561 20.0668Z" fill="white"/>
<path d="M35.5657 13.8014L33.0076 16.3585C33.8562 17.3765 34.3656 18.6611 34.3656 20.0912C34.3656 23.3026 31.759 25.9082 28.5463 25.9082C27.1279 25.9082 25.8307 25.3992 24.8123 24.5509L22.0118 27.3503L19.2113 24.5509C18.193 25.3992 16.9079 25.9082 15.4774 25.9082C12.2646 25.9082 9.65814 23.3026 9.65814 20.0912C9.65814 18.6732 10.1673 17.3765 11.016 16.3585L8.45794 13.8014C7.00316 16.201 6.16663 19.0005 6.16663 22.0059C6.16663 30.7556 13.2587 37.8332 21.9997 37.8332C30.7405 37.8332 37.8328 30.7436 37.8328 22.0059C37.857 18.9884 37.0205 16.1889 35.5657 13.8014Z" fill="white"/>
<path d="M33.4684 11.0746C30.5952 8.05704 26.5217 6.1665 22.0119 6.1665C17.502 6.1665 13.4407 8.05704 10.5553 11.0746C10.1674 11.4867 9.79157 11.923 9.43995 12.3714L21.9997 24.9265L34.5595 12.3592C34.2443 11.9229 33.8685 11.4746 33.4684 11.0746ZM22.0119 8.22671C25.7216 8.22671 29.1647 9.65674 31.7468 12.2623L22.0119 21.9937L12.2768 12.2623C14.8712 9.65674 18.3021 8.22671 22.0119 8.22671Z" fill="white"/>
</svg>
