<svg width="44" height="44" viewBox="0 0 44 44" fill="none" xmlns="http://www.w3.org/2000/svg">
<path d="M12.88 0.25H31.12C33.4022 0.25 35.0985 0.250201 36.4415 0.361729C37.7814 0.473008 38.7472 0.693826 39.5726 1.12255C40.988 1.85783 42.1422 3.01196 42.8775 4.42745C43.3062 5.25277 43.527 6.21855 43.6383 7.55854C43.7498 8.90151 43.75 10.5978 43.75 12.88V31.12C43.75 33.4022 43.7498 35.0985 43.6383 36.4415C43.527 37.7814 43.3062 38.7472 42.8775 39.5726C42.1422 40.988 40.988 42.1422 39.5726 42.8775C38.7472 43.3062 37.7814 43.527 36.4415 43.6383C35.0985 43.7498 33.4022 43.75 31.12 43.75H12.88C10.5978 43.75 8.90151 43.7498 7.55854 43.6383C6.21855 43.527 5.25277 43.3062 4.42745 42.8775C3.01196 42.1422 1.85783 40.988 1.12255 39.5726C0.693826 38.7472 0.473008 37.7814 0.361729 36.4415C0.250201 35.0985 0.25 33.4022 0.25 31.12V12.88C0.25 10.5978 0.250201 8.90151 0.361729 7.55854C0.473008 6.21855 0.693826 5.25277 1.12255 4.42745C1.85783 3.01196 3.01196 1.85783 4.42745 1.12255C5.25277 0.693826 6.21855 0.473008 7.55854 0.361729C8.90151 0.250201 10.5978 0.25 12.88 0.25Z" stroke="#3F3F46" stroke-width="0.5"/>
<path d="M22 6.74402C22.0853 6.74402 22.164 6.76555 22.2426 6.80778L35.0418 14.1953C35.1917 14.2806 35.2844 14.4379 35.2844 14.6085V29.3827C35.2844 29.5541 35.1917 29.7106 35.0418 29.7959L22.2426 37.1901C22.1714 37.2331 22.0861 37.2538 22 37.2538C21.9139 37.2538 21.836 37.2323 21.7574 37.1901L8.96566 29.8042C8.81577 29.7189 8.72302 29.5616 8.72302 29.391V14.6093C8.72302 14.4379 8.81577 14.2814 8.96566 14.1961L21.7574 6.80861C21.836 6.76555 21.9139 6.74485 22 6.74485M22 4.58432C21.5437 4.58432 21.0874 4.70523 20.6808 4.94124L7.88167 12.3271C7.06847 12.7975 6.5625 13.6678 6.5625 14.6093V29.3835C6.5625 30.3251 7.06847 31.1946 7.88167 31.6724L20.6808 39.0599C21.0874 39.2951 21.5437 39.4168 22 39.4168C22.4563 39.4168 22.9126 39.2959 23.3192 39.0599L36.1183 31.6724C36.9382 31.202 37.4375 30.3317 37.4375 29.3835V14.6093C37.4375 13.6678 36.9315 12.7983 36.1183 12.3205L23.3192 4.93296C22.9126 4.69777 22.4563 4.5835 22 4.5835V4.58432Z" fill="white"/>
<path d="M18.7338 14.4307H17.0652C16.9368 14.4307 16.83 14.5093 16.7869 14.6302L11.4034 29.3688C11.3678 29.469 11.439 29.5684 11.5459 29.5684H13.2145C13.3428 29.5684 13.4497 29.4897 13.4927 29.3688L18.8688 14.6228C18.9118 14.53 18.8406 14.4307 18.733 14.4307H18.7338Z" fill="white"/>
<path d="M20.902 20.15C20.8523 20.0216 20.6669 20.0216 20.6238 20.15L19.7535 22.5316C19.7319 22.5954 19.7319 22.6674 19.7535 22.7386L22.1781 29.3775C22.2212 29.4984 22.3347 29.5771 22.4564 29.5771H24.125C24.2318 29.5771 24.3031 29.4769 24.2674 29.3775L20.902 20.1508V20.15Z" fill="white"/>
<path d="M21.6584 14.4307H19.9897C19.8614 14.4307 19.7545 14.5093 19.7115 14.6302L14.3354 29.3688C14.2998 29.469 14.371 29.5684 14.4779 29.5684H16.1465C16.2749 29.5684 16.3817 29.4897 16.4247 29.3688L21.8008 14.6228C21.8364 14.53 21.7652 14.4307 21.6584 14.4307Z" fill="white"/>
<path d="M22.3636 16.1348C22.3139 16.0065 22.1284 16.0065 22.0854 16.1348L21.2159 18.5165C21.1943 18.5802 21.1943 18.6523 21.2159 18.7235L25.1021 29.3696C25.1452 29.4905 25.2587 29.5692 25.3804 29.5692H27.049C27.1558 29.5692 27.2271 29.469 27.1914 29.3696L22.3644 16.1357L22.3636 16.1348Z" fill="white"/>
<path d="M32.4532 14.4307H30.7846C30.6562 14.4307 30.5494 14.5093 30.5064 14.6302L26.6134 25.2763C26.5919 25.3401 26.5919 25.4121 26.6134 25.4834L27.4838 27.865C27.5335 27.9933 27.719 27.9933 27.762 27.865L32.589 14.6311C32.6246 14.5309 32.5534 14.4315 32.4532 14.4315V14.4307Z" fill="white"/>
<path d="M26.021 23.8503C26.0707 23.9787 26.2562 23.9787 26.2992 23.8503L29.6647 14.6302C29.7003 14.53 29.6291 14.4307 29.5222 14.4307H27.8536C27.7252 14.4307 27.6184 14.5093 27.5754 14.6302L25.1507 21.2691C25.1291 21.3329 25.1291 21.4049 25.1507 21.4762L26.0202 23.8503H26.021Z" fill="white"/>
</svg>
