<svg width="44" height="44" viewBox="0 0 44 44" fill="none" xmlns="http://www.w3.org/2000/svg">
<path d="M0.25 12.88C0.25 10.5978 0.250201 8.90151 0.361729 7.55854C0.473008 6.21855 0.693826 5.25277 1.12255 4.42745C1.85783 3.01196 3.01196 1.85783 4.42745 1.12255C5.25277 0.693826 6.21855 0.473008 7.55854 0.361729C8.90151 0.250201 10.5978 0.25 12.88 0.25H31.12C33.4022 0.25 35.0985 0.250201 36.4415 0.361729C37.7814 0.473008 38.7472 0.693826 39.5726 1.12255C40.988 1.85783 42.1422 3.01196 42.8775 4.42745C43.3062 5.25277 43.527 6.21855 43.6383 7.55854C43.7498 8.90151 43.75 10.5978 43.75 12.88V31.12C43.75 33.4022 43.7498 35.0985 43.6383 36.4415C43.527 37.7814 43.3062 38.7472 42.8775 39.5726C42.1422 40.988 40.988 42.1422 39.5726 42.8775C38.7472 43.3062 37.7814 43.527 36.4415 43.6383C35.0985 43.7498 33.4022 43.75 31.12 43.75H12.88C10.5978 43.75 8.90151 43.7498 7.55854 43.6383C6.21855 43.527 5.25277 43.3062 4.42745 42.8775C3.01196 42.1422 1.85783 40.988 1.12255 39.5726C0.693826 38.7472 0.473008 37.7814 0.361729 36.4415C0.250201 35.0985 0.25 33.4022 0.25 31.12V12.88Z" stroke="#3F3F46" stroke-width="0.5"/>
<path fill-rule="evenodd" clip-rule="evenodd" d="M18.0311 11.9649L14.3413 18.2573L16.117 21.1704L19.8401 14.7977L19.7592 14.9325L18.0311 11.9649ZM18.3889 11.3546L20.1062 14.3423L21.7684 11.4972L20.0559 8.51179L18.3889 11.3546Z" fill="white"/>
<path fill-rule="evenodd" clip-rule="evenodd" d="M22.6347 11.7936L26.2127 18.0312H29.6527L26.0773 11.7936L22.6347 11.7936ZM22.275 11.1665L25.7256 11.1799L24.0452 8.24833L20.5918 8.23193L22.275 11.1665Z" fill="white"/>
<path fill-rule="evenodd" clip-rule="evenodd" d="M28.1056 21.5599L24.6534 21.56L26.3441 18.7813L29.7975 18.7649L28.1056 21.5599Z" fill="white"/>
<path fill-rule="evenodd" clip-rule="evenodd" d="M20.0442 21.5599L16.592 21.5599L20.1128 15.4769L21.8889 18.4808L20.0442 21.5599Z" fill="white"/>
<path fill-rule="evenodd" clip-rule="evenodd" d="M24.1796 21.2344L20.4796 14.9416L22.1826 12.0947L25.8791 18.4467L24.1796 21.2344Z" fill="white"/>
<path fill-rule="evenodd" clip-rule="evenodd" d="M35.8417 28.7043L32.2124 22.3771L28.7902 22.4514L32.4727 28.8475L32.3959 28.7103L35.8417 28.7043ZM36.1937 29.3179L32.7358 29.3045L34.3799 32.16L37.8334 32.1764L36.1937 29.3179Z" fill="white"/>
<path fill-rule="evenodd" clip-rule="evenodd" d="M33.6889 32.7588L26.4733 32.7245L24.7533 35.6901L31.9676 35.7266L33.6889 32.7588ZM34.4143 32.7622L32.6774 35.7302L36.0679 35.7473L37.8089 32.7783L34.4143 32.7622Z" fill="white"/>
<path fill-rule="evenodd" clip-rule="evenodd" d="M22.457 32.592L24.1831 29.6159L25.7551 32.4627L24.0427 35.4481L22.457 32.592Z" fill="white"/>
<path fill-rule="evenodd" clip-rule="evenodd" d="M26.4878 25.6423L28.2139 22.6661L31.7455 28.7429L28.2442 28.7721L26.4878 25.6423Z" fill="white"/>
<path fill-rule="evenodd" clip-rule="evenodd" d="M24.7033 29.3701L32.0278 29.3268L33.653 32.2184L26.2787 32.2291L24.7033 29.3701Z" fill="white"/>
<path fill-rule="evenodd" clip-rule="evenodd" d="M12.407 35.7334L19.7261 35.7682L21.3726 32.7808L13.9669 32.7574L14.1246 32.7598L12.407 35.7334ZM11.6972 35.73L13.4378 32.7558L10.1315 32.7453L8.39053 35.7143L11.6972 35.73Z" fill="white"/>
<path fill-rule="evenodd" clip-rule="evenodd" d="M9.95615 31.8503L13.5937 25.6468L11.8737 22.6812L8.23486 28.8824L9.95615 31.8503ZM9.59046 32.4739L7.87687 29.4925L6.16669 32.4069L7.87914 35.3923L9.59046 32.4739Z" fill="white"/>
<path fill-rule="evenodd" clip-rule="evenodd" d="M15.7171 22.2506L17.4432 25.2267L14.1806 25.1586L12.4396 22.1895L15.7171 22.2506Z" fill="white"/>
<path fill-rule="evenodd" clip-rule="evenodd" d="M19.7478 29.2004L21.474 32.1765L14.4215 32.1828L16.1468 29.1497L19.7478 29.2004Z" fill="white"/>
<path fill-rule="evenodd" clip-rule="evenodd" d="M17.3969 25.798L13.7724 32.1342L10.4442 32.0895L14.122 25.7267L17.3969 25.798Z" fill="white"/>
</svg>
