<svg width="44" height="44" viewBox="0 0 44 44" fill="none" xmlns="http://www.w3.org/2000/svg">
<path d="M0.25 12.88C0.25 10.5978 0.250201 8.90151 0.361729 7.55854C0.473008 6.21855 0.693826 5.25277 1.12255 4.42745C1.85783 3.01196 3.01196 1.85783 4.42745 1.12255C5.25277 0.693826 6.21855 0.473008 7.55854 0.361729C8.90151 0.250201 10.5978 0.25 12.88 0.25H31.12C33.4022 0.25 35.0985 0.250201 36.4415 0.361729C37.7814 0.473008 38.7472 0.693826 39.5726 1.12255C40.988 1.85783 42.1422 3.01196 42.8775 4.42745C43.3062 5.25277 43.527 6.21855 43.6383 7.55854C43.7498 8.90151 43.75 10.5978 43.75 12.88V31.12C43.75 33.4022 43.7498 35.0985 43.6383 36.4415C43.527 37.7814 43.3062 38.7472 42.8775 39.5726C42.1422 40.988 40.988 42.1422 39.5726 42.8775C38.7472 43.3062 37.7814 43.527 36.4415 43.6383C35.0985 43.7498 33.4022 43.75 31.12 43.75H12.88C10.5978 43.75 8.90151 43.7498 7.55854 43.6383C6.21855 43.527 5.25277 43.3062 4.42745 42.8775C3.01196 42.1422 1.85783 40.988 1.12255 39.5726C0.693826 38.7472 0.473008 37.7814 0.361729 36.4415C0.250201 35.0985 0.25 33.4022 0.25 31.12V12.88Z" stroke="#3F3F46" stroke-width="0.5"/>
<path d="M22.0238 6.1665C22.6928 7.29544 23.3355 8.37848 23.9768 9.46237C26.4718 13.679 28.9608 17.8993 31.4699 22.1072C31.7073 22.5053 31.6442 22.6502 31.2618 22.877C28.2744 24.6496 25.3016 26.4477 22.3287 28.2456C22.1406 28.3594 22.004 28.4325 21.7821 28.2981C18.7042 26.433 15.62 24.5786 12.5379 22.7208C12.4754 22.6831 12.4184 22.6359 12.324 22.5682C15.5493 17.1144 18.77 11.6684 22.0238 6.1665ZM31.6758 23.9793C31.5497 23.9578 31.475 23.9906 31.4055 24.0324C28.4341 25.8224 25.4599 27.6075 22.4966 29.4112C22.144 29.6259 21.8926 29.6566 21.5157 29.4259C18.648 27.6702 15.762 25.9456 12.8813 24.2118C12.7517 24.1338 12.619 24.0611 12.4877 23.9861C12.4706 24.0114 12.4534 24.0368 12.4362 24.0621C15.6231 28.6388 18.81 33.2155 22.0254 37.8332C25.258 33.1925 28.4669 28.5859 31.6758 23.9793Z" fill="white"/>
</svg>
