<svg width="44" height="44" viewBox="0 0 44 44" fill="none" xmlns="http://www.w3.org/2000/svg">
<path d="M12.88 0.25H31.12C33.4022 0.25 35.0985 0.250201 36.4415 0.361729C37.7814 0.473008 38.7472 0.693826 39.5726 1.12255C40.988 1.85783 42.1422 3.01196 42.8775 4.42745C43.3062 5.25277 43.527 6.21855 43.6383 7.55854C43.7498 8.90151 43.75 10.5978 43.75 12.88V31.12C43.75 33.4022 43.7498 35.0985 43.6383 36.4415C43.527 37.7814 43.3062 38.7472 42.8775 39.5726C42.1422 40.988 40.988 42.1422 39.5726 42.8775C38.7472 43.3062 37.7814 43.527 36.4415 43.6383C35.0985 43.7498 33.4022 43.75 31.12 43.75H12.88C10.5978 43.75 8.90151 43.7498 7.55854 43.6383C6.21855 43.527 5.25277 43.3062 4.42745 42.8775C3.01196 42.1422 1.85783 40.988 1.12255 39.5726C0.693826 38.7472 0.473008 37.7814 0.361729 36.4415C0.250201 35.0985 0.25 33.4022 0.25 31.12V12.88C0.25 10.5978 0.250201 8.90151 0.361729 7.55854C0.473008 6.21855 0.693826 5.25277 1.12255 4.42745C1.85783 3.01196 3.01196 1.85783 4.42745 1.12255C5.25277 0.693826 6.21855 0.473008 7.55854 0.361729C8.90151 0.250201 10.5978 0.25 12.88 0.25Z" stroke="#3F3F46" stroke-width="0.5"/>
<path fill-rule="evenodd" clip-rule="evenodd" d="M10.5174 18.0541L13.7917 12.8L12.6928 11.1331L11.9303 9.95144L6.32361 19.2568L6.16663 19.51L7.0637 20.987H21.1702L28.2795 9.52942L27.2927 7.92578L17.4249 7.94688H17.2679L15.698 7.92578L16.5278 9.40282L17.3576 10.8799L23.8165 10.8588L19.376 18.0541H10.5174ZM37.8109 19.932L36.9138 18.5183L32.0023 10.7533H31.9799L31.8229 10.4789H30.0288L23.054 22.021L30.1409 33.4997H31.935L31.9799 33.4364L37.8333 24.0044H34.2226L31.1052 29.2162L26.6647 21.9999L31.0155 14.7835L34.1777 19.9109L37.8109 19.932ZM16.7072 12.1037C16.9601 12.0225 17.225 11.9797 17.4922 11.9771C17.9856 11.9771 18.4117 12.1248 18.5687 12.4413C18.5799 12.4624 18.5911 12.4782 18.6023 12.4941C18.6135 12.5099 18.6247 12.5257 18.6359 12.5468C18.6419 12.5581 18.6479 12.5679 18.6535 12.577L18.6535 12.577C18.6688 12.6018 18.6808 12.6214 18.6808 12.6523V13.0743C18.6808 13.0831 18.6769 13.0882 18.6724 13.0942C18.6661 13.1027 18.6584 13.1129 18.6584 13.1376C18.6584 13.1798 18.6584 13.222 18.6359 13.2431C18.6135 13.2642 18.6135 13.2642 18.6135 13.2853C18.6013 13.2967 18.5935 13.3115 18.5911 13.3275L18.5687 13.3486C18.5574 13.3697 18.5462 13.3961 18.535 13.4225L18.535 13.4225C18.5238 13.4489 18.5126 13.4752 18.5014 13.4963C18.4801 13.5498 18.4498 13.5997 18.4117 13.644L18.3892 13.6862V13.7073C18.378 13.7284 18.3668 13.7443 18.3556 13.7601C18.3444 13.7759 18.3332 13.7917 18.322 13.8128L18.2771 13.855C18.2659 13.8761 18.2491 13.892 18.2323 13.9078C18.2154 13.9236 18.1986 13.9394 18.1874 13.9605L18.1425 14.0027C18.1313 14.0238 18.1145 14.0397 18.0977 14.0555C18.0809 14.0713 18.0641 14.0871 18.0528 14.1082C18.0361 14.14 18.0133 14.1686 17.9856 14.1926C17.9788 14.199 17.972 14.2074 17.9646 14.2164L17.9646 14.2164C17.9475 14.2374 17.9271 14.2623 17.8959 14.277L17.851 14.3193C17.8286 14.3404 17.8061 14.3562 17.7837 14.372C17.7613 14.3878 17.7389 14.4037 17.7164 14.4248L17.6716 14.4459C17.6379 14.467 17.6099 14.4881 17.5819 14.5092C17.5538 14.5303 17.5258 14.5514 17.4922 14.5725L17.2903 14.6991C17.2358 14.7417 17.1755 14.7772 17.1109 14.8046C17.0773 14.8151 17.0436 14.8309 17.01 14.8468C16.9764 14.8626 16.9427 14.8784 16.9091 14.889L16.8866 14.9101C16.169 15.2266 15.4289 15.2688 14.9579 15.0578C14.9355 15.0472 14.9187 15.0367 14.9019 15.0261C14.8851 15.0156 14.8682 15.005 14.8458 14.9945L14.801 14.9523C14.792 14.9438 14.783 14.9421 14.774 14.9405C14.7606 14.9379 14.7471 14.9354 14.7337 14.9101C14.7225 14.889 14.7056 14.8731 14.6888 14.8573C14.672 14.8415 14.6552 14.8257 14.644 14.8046C14.5623 14.7118 14.5039 14.603 14.4728 14.4861C14.4418 14.3693 14.4389 14.2474 14.4645 14.1293C14.5543 13.5385 15.0925 12.9055 15.855 12.4624C16.1238 12.3129 16.4097 12.1926 16.7072 12.1037ZM19.1293 13.5174C19.1293 13.5483 19.1173 13.5679 19.1021 13.5927C19.0965 13.6018 19.0905 13.6116 19.0845 13.6229C19.0845 13.6318 19.0845 13.6369 19.0828 13.6414C19.0805 13.6477 19.0751 13.6529 19.062 13.6651C19.0413 13.7253 19.011 13.7822 18.9723 13.8339C18.6924 14.3109 18.3014 14.7221 17.8286 15.0367L17.6267 15.1633C17.5645 15.2064 17.4967 15.2418 17.4249 15.2688H17.4025C17.3912 15.2793 17.38 15.2846 17.3688 15.2899C17.3576 15.2952 17.3464 15.3004 17.3352 15.311C17.3128 15.3321 17.2679 15.3532 17.2231 15.3743L17.223 15.3743H17.2006C17.1894 15.3743 17.1782 15.3796 17.167 15.3848C17.1558 15.3901 17.1446 15.3954 17.1333 15.3954C17.0924 15.4188 17.0464 15.4332 16.9988 15.4376L16.9539 15.4587H16.9315C16.9203 15.4587 16.9091 15.464 16.8979 15.4692C16.8866 15.4745 16.8754 15.4798 16.8642 15.4798C16.8418 15.4798 16.7745 15.5009 16.7297 15.522L16.6848 15.5431H16.6624C16.64 15.5536 16.6175 15.5589 16.5951 15.5642L16.5951 15.5642C16.5727 15.5695 16.5502 15.5747 16.5278 15.5853C16.483 15.6064 16.483 15.6064 16.4381 15.6064H16.4157C16.3779 15.6113 16.3405 15.6184 16.3035 15.6275C16.2719 15.6243 16.2402 15.6318 16.2138 15.6486H16.1914C16.1792 15.6472 16.1669 15.6484 16.1553 15.652C16.1436 15.6557 16.133 15.6617 16.1241 15.6697H16.0569C16.0232 15.6697 15.984 15.675 15.9447 15.6802L15.9447 15.6802C15.9055 15.6855 15.8662 15.6908 15.8326 15.6908H15.541C15.495 15.6941 15.4488 15.6869 15.4065 15.6697C15.3943 15.6711 15.382 15.6699 15.3703 15.6662C15.3587 15.6626 15.3481 15.6566 15.3392 15.6486C15.3168 15.6486 15.2943 15.6433 15.2719 15.638C15.2495 15.6328 15.2271 15.6275 15.2046 15.6275C15.1784 15.6275 15.1675 15.6202 15.1585 15.6142C15.1521 15.61 15.1466 15.6064 15.1374 15.6064L16.3708 17.4843L19.0172 17.4632L20.3852 15.1844L19.1518 13.2853C19.1532 13.2968 19.152 13.3084 19.1481 13.3193C19.1442 13.3303 19.1378 13.3403 19.1293 13.3486V13.3908C19.1293 13.3996 19.1255 13.4083 19.121 13.4185C19.1146 13.433 19.1069 13.4505 19.1069 13.4752C19.1197 13.4862 19.1277 13.5012 19.1293 13.5174ZM33.4825 21.0714C33.4306 20.8247 33.3319 20.5888 33.1909 20.3751C32.9218 19.9742 32.5854 19.721 32.1145 19.7421H31.9799C31.9575 19.7421 31.9406 19.7474 31.9238 19.7526C31.907 19.7579 31.8902 19.7632 31.8678 19.7632H31.8453C31.8453 19.7688 31.843 19.7742 31.8388 19.7781C31.8346 19.7821 31.8289 19.7843 31.8229 19.7843C31.8108 19.7958 31.7951 19.8032 31.7781 19.8054C31.7668 19.8159 31.7612 19.8159 31.7556 19.8159C31.75 19.8159 31.7444 19.8159 31.7332 19.8265C31.722 19.837 31.7052 19.8476 31.6884 19.8581L31.6883 19.8581L31.6883 19.8582C31.6715 19.8687 31.6547 19.8793 31.6435 19.8898L31.5986 19.9109L31.5314 19.9742L31.4865 20.0164L31.4416 20.0586L31.3744 20.1219C31.3744 20.143 31.3744 20.143 31.3519 20.1641L31.3071 20.2063L31.2847 20.2274C31.2735 20.2485 31.2566 20.2696 31.2398 20.2907L31.2398 20.2907C31.223 20.3118 31.2062 20.3329 31.195 20.354C31.1603 20.4005 31.1302 20.45 31.1052 20.5017L31.0828 20.5439V20.565C31.0828 20.5959 31.0708 20.6155 31.0556 20.6403L31.0555 20.6404C31.05 20.6495 31.044 20.6592 31.038 20.6705L31.0155 20.7338C30.9931 20.776 30.9707 20.8393 30.9707 20.8604C30.9707 20.8815 30.9707 20.8815 30.9483 20.9237C30.9258 20.9659 30.9034 21.0081 30.9034 21.0503C30.9034 21.0714 30.8978 21.0873 30.8922 21.1031C30.8866 21.1189 30.881 21.1347 30.881 21.1558C30.881 21.1769 30.8754 21.198 30.8698 21.2191C30.8642 21.2402 30.8586 21.2613 30.8586 21.2824V21.3457C30.8586 21.3668 30.8529 21.3932 30.8473 21.4196C30.8417 21.446 30.8361 21.4723 30.8361 21.4934V21.5356C30.8176 21.5974 30.8101 21.6615 30.8137 21.7255V22.1476C30.8137 22.1928 30.8201 22.232 30.8261 22.2683L30.8261 22.2683C30.8313 22.2998 30.8361 22.3292 30.8361 22.3586V22.3797C30.9258 23.1182 31.2622 23.7301 31.7108 24.0044C31.745 24.0301 31.7827 24.0514 31.8229 24.0677C31.8341 24.0677 31.8453 24.073 31.8565 24.0783C31.8678 24.0835 31.879 24.0888 31.8902 24.0888C31.8995 24.0888 31.9049 24.0924 31.9113 24.0967C31.9203 24.1027 31.9312 24.1099 31.9575 24.1099C31.9799 24.1099 32.0023 24.1152 32.0247 24.1205C32.0472 24.1257 32.0696 24.131 32.092 24.131C32.2208 24.1468 32.3516 24.1361 32.4755 24.0997C32.5994 24.0632 32.7134 24.0019 32.8097 23.92C33.3031 23.5402 33.5946 22.7806 33.5946 21.9366C33.5919 21.6451 33.5542 21.3549 33.4825 21.0714ZM30.9258 19.8687C30.9146 19.8793 30.9034 19.8951 30.8922 19.9109L30.8922 19.9109C30.881 19.9267 30.8698 19.9426 30.8586 19.9531C30.8586 19.9637 30.8529 19.9689 30.8473 19.9742C30.8417 19.9795 30.8361 19.9848 30.8361 19.9953C30.8137 20.0164 30.7969 20.0428 30.7801 20.0692C30.7632 20.0955 30.7464 20.1219 30.724 20.143C30.4271 20.6103 30.2576 21.1395 30.2306 21.6833V22.1476V22.232C30.2271 22.2753 30.2348 22.3187 30.253 22.3586V22.443C30.253 22.4641 30.2586 22.4852 30.2642 22.5063C30.2698 22.5274 30.2755 22.5485 30.2755 22.5696V22.6329C30.274 22.6443 30.2752 22.6559 30.2791 22.6669C30.283 22.6778 30.2894 22.6878 30.2979 22.6962C30.2979 22.7173 30.3035 22.7384 30.3091 22.7595C30.3147 22.7806 30.3203 22.8017 30.3203 22.8228L30.3427 22.865V22.8861C30.3474 22.9309 30.3627 22.9742 30.3876 23.0127C30.3876 23.0232 30.3932 23.0338 30.3988 23.0443C30.4044 23.0549 30.41 23.0654 30.41 23.076V23.0971C30.4212 23.1182 30.4268 23.134 30.4324 23.1498C30.4381 23.1657 30.4437 23.1815 30.4549 23.2026L30.4997 23.287V23.3081C30.4997 23.3186 30.5053 23.3292 30.5109 23.3397C30.5165 23.3503 30.5221 23.3608 30.5221 23.3714C30.5349 23.3823 30.5429 23.3974 30.5446 23.4136C30.5732 23.4811 30.6109 23.5449 30.6567 23.6035L30.6791 23.6246C30.7111 23.6773 30.7487 23.7268 30.7913 23.7723C30.7913 23.7829 30.7969 23.7881 30.8025 23.7934C30.8081 23.7987 30.8137 23.804 30.8137 23.8145L30.8361 23.8356C30.8473 23.8567 30.8642 23.8725 30.881 23.8884C30.8978 23.9042 30.9146 23.92 30.9258 23.9411C30.9403 23.9683 30.9454 23.978 30.9533 23.9814C30.9576 23.9833 30.9627 23.9833 30.9707 23.9833C31.0072 24.013 31.0376 24.0488 31.0604 24.0888C31.069 24.0969 31.0775 24.1019 31.0848 24.1061C31.0967 24.113 31.1052 24.118 31.1052 24.131H28.7504L27.3824 21.9999L28.728 19.721H31.0828L31.038 19.7632L31.0155 19.7843L30.9258 19.8687ZM16.7072 31.8749C16.9601 31.9561 17.225 31.9989 17.4922 32.0015C17.9856 32.0226 18.4117 31.8538 18.5687 31.5373C18.5799 31.5162 18.5911 31.5004 18.6023 31.4846C18.6135 31.4687 18.6247 31.4529 18.6359 31.4318C18.6419 31.4205 18.648 31.4107 18.6535 31.4016C18.6688 31.3768 18.6808 31.3572 18.6808 31.3263V30.9043C18.6808 30.8955 18.6769 30.8904 18.6724 30.8844C18.6661 30.8759 18.6584 30.8657 18.6584 30.841C18.6584 30.7988 18.6584 30.7566 18.6359 30.7355C18.6229 30.7232 18.6174 30.7181 18.6152 30.7118C18.6135 30.7073 18.6135 30.7021 18.6135 30.6933C18.6013 30.6819 18.5935 30.6671 18.5911 30.6511L18.5687 30.63C18.5574 30.6089 18.5462 30.5825 18.535 30.5561C18.5238 30.5297 18.5126 30.5034 18.5014 30.4823C18.4801 30.4288 18.4498 30.3789 18.4117 30.3346L18.3892 30.2924V30.2713C18.378 30.2502 18.3668 30.2343 18.3556 30.2185C18.3444 30.2027 18.3332 30.1869 18.322 30.1658L18.2771 30.1236C18.2659 30.1025 18.2491 30.0866 18.2323 30.0708C18.2154 30.055 18.1986 30.0392 18.1874 30.0181L18.1425 29.9759C18.1313 29.9548 18.1145 29.9389 18.0977 29.9231C18.0809 29.9073 18.0641 29.8915 18.0528 29.8704C18.0361 29.8386 18.0133 29.81 17.9856 29.786C17.9788 29.7796 17.972 29.7713 17.9646 29.7622C17.9475 29.7412 17.9271 29.7163 17.8959 29.7016L17.851 29.6594C17.8286 29.6383 17.8061 29.6224 17.7837 29.6066C17.7613 29.5908 17.7389 29.575 17.7164 29.5539L17.6716 29.5328C17.6379 29.5117 17.6099 29.4906 17.5819 29.4695C17.5538 29.4484 17.5258 29.4273 17.4922 29.4062L17.2903 29.2795C17.2358 29.2369 17.1755 29.2015 17.1109 29.174C17.0773 29.1635 17.0436 29.1477 17.01 29.1318C16.9764 29.116 16.9427 29.1002 16.9091 29.0896L16.8866 29.0685C16.169 28.752 15.4289 28.7098 14.9579 28.9208C14.9355 28.9314 14.9187 28.9419 14.9019 28.9525L14.9019 28.9525L14.9018 28.9525C14.885 28.9631 14.8682 28.9736 14.8458 28.9841L14.801 29.0263C14.792 29.0348 14.783 29.0365 14.774 29.0382C14.7606 29.0407 14.7471 29.0432 14.7337 29.0685C14.7225 29.0896 14.7056 29.1055 14.6888 29.1213C14.672 29.1371 14.6552 29.1529 14.644 29.174C14.5623 29.2668 14.5039 29.3756 14.4728 29.4925C14.4418 29.6093 14.4389 29.7313 14.4645 29.8493C14.5543 30.4401 15.0925 31.0731 15.855 31.5162C16.1238 31.6657 16.4097 31.786 16.7072 31.8749ZM19.1293 30.4612C19.1293 30.4303 19.1173 30.4107 19.1021 30.3859C19.0965 30.3768 19.0905 30.367 19.0845 30.3557C19.0845 30.3468 19.0845 30.3417 19.0828 30.3372C19.0805 30.3309 19.0751 30.3257 19.062 30.3135C19.0413 30.2533 19.011 30.1964 18.9723 30.1447C18.6924 29.6677 18.3014 29.2565 17.8286 28.9419L17.6267 28.8153C17.5645 28.7722 17.4967 28.7368 17.4249 28.7098H17.4025C17.3912 28.6993 17.38 28.694 17.3688 28.6887C17.3576 28.6835 17.3464 28.6782 17.3352 28.6676C17.3128 28.6465 17.2679 28.6254 17.2231 28.6043L17.223 28.6043H17.2006C17.1894 28.6043 17.1782 28.5991 17.167 28.5938C17.1558 28.5885 17.1446 28.5832 17.1333 28.5832C17.0924 28.5598 17.0464 28.5454 16.9988 28.541L16.9539 28.5199H16.9315C16.9203 28.5199 16.9091 28.5147 16.8979 28.5094C16.8866 28.5041 16.8754 28.4988 16.8642 28.4988C16.8418 28.4988 16.7745 28.4777 16.7297 28.4566L16.6848 28.4355H16.6624C16.64 28.425 16.6175 28.4197 16.5951 28.4144C16.5727 28.4091 16.5502 28.4039 16.5278 28.3933C16.483 28.3722 16.483 28.3722 16.4381 28.3722H16.4157C16.3779 28.3673 16.3405 28.3602 16.3035 28.3511C16.2719 28.3543 16.2402 28.3468 16.2138 28.33H16.1914C16.1792 28.3314 16.1669 28.3302 16.1553 28.3266C16.1436 28.3229 16.133 28.3169 16.1241 28.3089H16.0569C16.0232 28.3089 15.984 28.3036 15.9447 28.2984C15.9055 28.2931 15.8662 28.2878 15.8326 28.2878H15.541C15.495 28.2845 15.4488 28.2917 15.4065 28.3089C15.3943 28.3075 15.382 28.3087 15.3703 28.3124C15.3587 28.316 15.3481 28.322 15.3392 28.33C15.3168 28.33 15.2943 28.3353 15.2719 28.3406C15.2495 28.3458 15.2271 28.3511 15.2046 28.3511C15.1784 28.3511 15.1675 28.3584 15.1585 28.3644C15.1521 28.3686 15.1466 28.3722 15.1374 28.3722L16.3708 26.4943L19.0172 26.5154L20.3852 28.7942L19.1518 30.6933C19.1532 30.6818 19.152 30.6702 19.1481 30.6593C19.1442 30.6483 19.1378 30.6383 19.1293 30.63V30.5878C19.1293 30.579 19.1255 30.5703 19.121 30.5601C19.1146 30.5456 19.1069 30.5281 19.1069 30.5034C19.1197 30.4924 19.1277 30.4774 19.1293 30.4612ZM17.3576 33.0987L23.8165 33.1199L19.376 25.9457H10.5174L13.7917 31.1786L11.9303 34.0272L6.32361 24.7429H6.34604L6.16663 24.4686L7.0637 22.9916L21.1702 23.0127L28.2795 34.4703L27.2927 36.0739L17.4249 36.0528V36.0317L15.698 36.0528L16.3708 34.8501L17.3576 33.0987Z" fill="white"/>
</svg>
