<svg width="44" height="44" viewBox="0 0 44 44" fill="none" xmlns="http://www.w3.org/2000/svg">
<path d="M12.88 0.25H31.12C33.4022 0.25 35.0985 0.250201 36.4415 0.361729C37.7814 0.473008 38.7472 0.693826 39.5726 1.12255C40.988 1.85783 42.1422 3.01196 42.8775 4.42745C43.3062 5.25277 43.527 6.21855 43.6383 7.55854C43.7498 8.90151 43.75 10.5978 43.75 12.88V31.12C43.75 33.4022 43.7498 35.0985 43.6383 36.4415C43.527 37.7814 43.3062 38.7472 42.8775 39.5726C42.1422 40.988 40.988 42.1422 39.5726 42.8775C38.7472 43.3062 37.7814 43.527 36.4415 43.6383C35.0985 43.7498 33.4022 43.75 31.12 43.75H12.88C10.5978 43.75 8.90151 43.7498 7.55854 43.6383C6.21855 43.527 5.25277 43.3062 4.42745 42.8775C3.01196 42.1422 1.85783 40.988 1.12255 39.5726C0.693826 38.7472 0.473008 37.7814 0.361729 36.4415C0.250201 35.0985 0.25 33.4022 0.25 31.12V12.88C0.25 10.5978 0.250201 8.90151 0.361729 7.55854C0.473008 6.21855 0.693826 5.25277 1.12255 4.42745C1.85783 3.01196 3.01196 1.85783 4.42745 1.12255C5.25277 0.693826 6.21855 0.473008 7.55854 0.361729C8.90151 0.250201 10.5978 0.25 12.88 0.25Z" stroke="#3F3F46" stroke-width="0.5"/>
<path d="M35.1199 30.0463C35.1243 29.3383 37.8308 29.3687 37.8124 28.7049C37.8017 28.3104 37.0827 28.228 36.9318 27.71C36.9065 27.6143 36.8982 27.5041 36.9147 27.3756C36.9255 27.2989 36.9451 27.2166 36.9768 27.126C37.5316 25.5136 37.8334 23.7846 37.8334 21.984C37.8334 13.2478 30.7447 6.1665 22 6.1665C13.2554 6.1665 6.16669 13.2478 6.16669 21.9834C6.16669 23.7725 6.4653 25.492 7.0137 27.0963C7.01687 27.1115 7.02194 27.1267 7.02765 27.1425C7.0435 27.1843 7.05618 27.2236 7.06822 27.2622C7.26349 27.9633 6.16986 28.2426 6.16986 28.6663C6.16986 29.3364 8.52514 29.2471 8.52514 30.0267C8.52514 30.7056 6.19585 30.9165 6.19585 31.6024C6.19585 32.5493 11.354 32.2199 11.4187 33.0344C11.4688 33.6633 9.6454 33.7013 9.63399 34.3733C9.61624 35.4461 16.6732 35.0946 16.6732 35.8084C16.6732 36.3486 13.4633 36.1529 13.4633 36.7913C13.4633 37.4297 17.6889 37.8332 22.3455 37.8332C27.0022 37.8332 30.2147 37.3164 30.2147 36.7559C30.2147 36.1954 27.2165 36.3119 27.2786 35.8078C27.3864 34.9274 34.0395 35.3777 34.0395 34.3587C34.0395 33.8223 32.2092 33.6962 32.2688 33.1174C32.3525 32.2997 37.8308 32.4207 37.8308 31.5714C37.8308 30.9032 35.1154 30.7398 35.1199 30.0463ZM28.0261 34.0452C28.0261 34.5126 25.9035 34.7254 21.8301 34.7254C18.4991 34.7254 15.1903 34.5164 15.1903 33.973C15.1903 33.4296 19.1369 33.3808 21.8498 33.3853C25.4629 33.3916 28.0261 33.5588 28.0261 34.0446V34.0452ZM22 10.2977C26.9946 10.2977 31.2569 13.4245 32.9345 17.8255C33.1285 18.3962 32.4248 18.3613 31.929 18.3613H30.5805C29.6174 18.3613 28.4052 18.4766 28.4052 18.7401C28.4052 19.0707 31.3489 19.051 31.6735 19.051C32.6232 19.051 33.3675 19.1226 33.4753 19.7046C33.6211 20.4418 33.6985 21.2037 33.6985 21.984C33.6985 23.5515 33.3884 25.0462 32.828 26.4116C32.646 26.8132 32.407 27.0209 32.1173 27.1957C30.7257 27.969 28.2011 27.8303 28.2017 28.2964C28.2017 28.9735 32.452 28.684 32.4584 29.2724C32.4679 30.1711 24.8745 29.6378 24.8752 30.4472C24.8758 31.2503 30.9837 30.876 30.9837 31.7177C30.9837 32.1408 29.0221 32.2966 26.883 32.3504C23.5609 32.3941 17.687 32.3688 15.4737 32.2928C15.4737 32.2928 15.475 32.294 15.4762 32.2953C13.9787 32.2415 12.7038 32.0375 12.2036 31.8222C12.066 31.7627 12.0596 31.5955 12.1915 31.5277C13.7049 30.75 22.9415 31.3694 22.9415 30.4656C22.9415 29.5618 13.8152 30.1882 13.8221 29.4035C13.8272 28.8462 17.81 28.8949 20.9685 28.8949C25.0597 28.8949 26.3156 28.6904 26.3137 28.3959C26.3105 27.8031 21.2823 28.1508 21.264 27.4864C21.2462 26.8417 29.2218 27.3122 29.2218 26.6808C29.2218 26.2793 25.7571 26.2419 22.2929 26.2546C18.8282 26.2679 15.364 26.2736 15.364 26.703C15.364 27.1887 19.4647 27 19.4647 27.4864C19.4647 27.8702 17.2115 27.95 14.8581 27.95C13.3054 27.95 12.1009 27.8322 11.5106 27.1007C11.4618 27.0405 11.413 26.9525 11.3737 26.8733C10.6883 25.385 10.3022 23.7301 10.3022 21.984C10.3022 15.5303 15.5396 10.2984 22 10.2984V10.2977Z" fill="white"/>
<path d="M21.761 25.3495C26.7993 25.3495 31.7052 25.4224 31.7064 24.86C31.7077 24.1791 24.671 24.2589 21.0154 24.2589C18.1162 24.2589 12.9187 24.1684 12.9187 24.815C12.9187 25.4616 18.7381 25.3495 21.761 25.3495Z" fill="white"/>
<path d="M25.0159 23.4172C28.3285 23.4172 29.9871 23.3786 29.9871 22.9796C29.9871 22.4026 25.4775 22.7225 25.4775 22.1512C25.4775 21.649 28.3266 21.9308 28.3266 21.3912C28.3266 20.9669 25.1357 21.0061 23.3961 21.0061C21.4668 21.0061 19.568 21.079 19.568 21.44C19.568 21.9086 24.4307 21.6452 24.4307 22.1252C24.4307 22.8118 16.7157 22.3159 16.7157 22.979C16.7157 23.6066 21.7306 23.4166 25.0159 23.4166V23.4172Z" fill="white"/>
<path d="M28.2658 20.35C28.9752 20.35 31.0566 20.3057 31.0566 20.0213C31.0566 19.7369 29.5147 19.6451 27.912 19.647C26.8108 19.6483 24.5658 19.666 24.5658 19.9877C24.5658 20.3095 26.27 20.3506 28.2658 20.35Z" fill="white"/>
<path d="M29.4659 21.4001C29.4659 21.6692 30.6559 21.7801 31.5695 21.7801C32.097 21.7801 33.1031 21.6705 33.1031 21.4571C33.1031 21.1987 32.0704 21.1195 31.4421 21.1113C30.628 21.1005 29.4666 21.1683 29.4666 21.4001H29.4659Z" fill="white"/>
</svg>
