<svg width="44" height="44" viewBox="0 0 44 44" fill="none" xmlns="http://www.w3.org/2000/svg">
<path d="M12.88 0.25H31.12C33.4022 0.25 35.0985 0.250201 36.4415 0.361729C37.7814 0.473008 38.7472 0.693826 39.5726 1.12255C40.988 1.85783 42.1422 3.01196 42.8775 4.42745C43.3062 5.25277 43.527 6.21855 43.6383 7.55854C43.7498 8.90151 43.75 10.5978 43.75 12.88V31.12C43.75 33.4022 43.7498 35.0985 43.6383 36.4415C43.527 37.7814 43.3062 38.7472 42.8775 39.5726C42.1422 40.988 40.988 42.1422 39.5726 42.8775C38.7472 43.3062 37.7814 43.527 36.4415 43.6383C35.0985 43.7498 33.4022 43.75 31.12 43.75H12.88C10.5978 43.75 8.90151 43.7498 7.55854 43.6383C6.21855 43.527 5.25277 43.3062 4.42745 42.8775C3.01196 42.1422 1.85783 40.988 1.12255 39.5726C0.693826 38.7472 0.473008 37.7814 0.361729 36.4415C0.250201 35.0985 0.25 33.4022 0.25 31.12V12.88C0.25 10.5978 0.250201 8.90151 0.361729 7.55854C0.473008 6.21855 0.693826 5.25277 1.12255 4.42745C1.85783 3.01196 3.01196 1.85783 4.42745 1.12255C5.25277 0.693826 6.21855 0.473008 7.55854 0.361729C8.90151 0.250201 10.5978 0.25 12.88 0.25Z" stroke="#3F3F46" stroke-width="0.5"/>
<path d="M28.9536 18.4551H14.8516C10.9794 18.4395 7.80844 21.517 7.70715 25.3892C7.70715 25.4905 7.78506 25.5762 7.89414 25.5762H21.9961C25.8683 25.5917 29.0393 22.5065 29.1405 18.6343C29.1405 18.533 29.0548 18.4473 28.9536 18.4473V18.4551Z" fill="white"/>
<path d="M14.8516 7.75006C10.9794 7.73448 7.80844 10.8198 7.71494 14.692C7.71494 14.7932 7.79286 14.8789 7.89414 14.8789H29.1483C33.0205 14.8945 36.1915 11.8092 36.2928 7.93705C36.2928 7.83576 36.2071 7.75006 36.1058 7.75006H14.8516Z" fill="white"/>
<path d="M11.2833 36.25C13.2583 36.25 14.8594 34.6489 14.8594 32.6739C14.8594 30.6988 13.2583 29.0977 11.2833 29.0977C9.30824 29.0977 7.70715 30.6988 7.70715 32.6739C7.70715 34.6489 9.30824 36.25 11.2833 36.25Z" fill="white"/>
</svg>
