<svg width="44" height="44" viewBox="0 0 44 44" fill="none" xmlns="http://www.w3.org/2000/svg">
<path d="M12.88 0.25H31.12C33.4022 0.25 35.0985 0.250201 36.4415 0.361729C37.7814 0.473008 38.7472 0.693826 39.5726 1.12255C40.988 1.85783 42.1422 3.01196 42.8775 4.42745C43.3062 5.25277 43.527 6.21855 43.6383 7.55854C43.7498 8.90151 43.75 10.5978 43.75 12.88V31.12C43.75 33.4022 43.7498 35.0985 43.6383 36.4415C43.527 37.7814 43.3062 38.7472 42.8775 39.5726C42.1422 40.988 40.988 42.1422 39.5726 42.8775C38.7472 43.3062 37.7814 43.527 36.4415 43.6383C35.0985 43.7498 33.4022 43.75 31.12 43.75H12.88C10.5978 43.75 8.90151 43.7498 7.55854 43.6383C6.21855 43.527 5.25277 43.3062 4.42745 42.8775C3.01196 42.1422 1.85783 40.988 1.12255 39.5726C0.693826 38.7472 0.473008 37.7814 0.361729 36.4415C0.250201 35.0985 0.25 33.4022 0.25 31.12V12.88C0.25 10.5978 0.250201 8.90151 0.361729 7.55854C0.473008 6.21855 0.693826 5.25277 1.12255 4.42745C1.85783 3.01196 3.01196 1.85783 4.42745 1.12255C5.25277 0.693826 6.21855 0.473008 7.55854 0.361729C8.90151 0.250201 10.5978 0.25 12.88 0.25Z" stroke="#3F3F46" stroke-width="0.5"/>
<path fill-rule="evenodd" clip-rule="evenodd" d="M37.7365 20.0989C37.8102 20.721 37.8512 21.3553 37.8512 21.9998C37.8512 30.7432 30.7548 37.8332 21.9989 37.8332C15.6236 37.8332 10.1292 34.0743 7.61137 28.654L10.1476 27.3792C12.1962 31.8747 16.7319 34.9992 21.9989 34.9992C29.1855 34.9992 35.0139 29.1799 35.0139 21.9998C35.0139 21.8668 35.0118 21.7338 35.0077 21.6008L37.7365 20.0989ZM21.9989 6.1665C28.6754 6.1665 34.3891 10.2895 36.7245 16.1273L34.0121 16.9908C32.0495 12.2989 27.4094 9.00044 21.9989 9.00044C14.8123 9.00044 8.98399 14.8198 8.98399 21.9998C8.98399 22.0878 8.98601 22.1778 8.98806 22.2658L6.33304 24.4348C6.21013 23.6409 6.14662 22.8286 6.14662 21.9998C6.14867 13.2544 13.2451 6.1665 21.9989 6.1665Z" fill="white"/>
<path fill-rule="evenodd" clip-rule="evenodd" d="M4.33972 28.3305L19.8437 15.6647L19.2005 20.9315L28.2493 15.81L27.7904 20.8108L39.6602 17.0356L23.562 25.8915L24.7646 20.8518L15.4638 26.2966L16.0784 22.4314L4.33972 28.3305Z" fill="white"/>
</svg>
