<svg width="44" height="44" viewBox="0 0 44 44" fill="none" xmlns="http://www.w3.org/2000/svg">
<path d="M12.88 0.25H31.12C33.4022 0.25 35.0985 0.250201 36.4415 0.361729C37.7814 0.473008 38.7472 0.693826 39.5726 1.12255C40.988 1.85783 42.1422 3.01196 42.8775 4.42745C43.3062 5.25277 43.527 6.21855 43.6383 7.55854C43.7498 8.90151 43.75 10.5978 43.75 12.88V31.12C43.75 33.4022 43.7498 35.0985 43.6383 36.4415C43.527 37.7814 43.3062 38.7472 42.8775 39.5726C42.1422 40.988 40.988 42.1422 39.5726 42.8775C38.7472 43.3062 37.7814 43.527 36.4415 43.6383C35.0985 43.7498 33.4022 43.75 31.12 43.75H12.88C10.5978 43.75 8.90151 43.7498 7.55854 43.6383C6.21855 43.527 5.25277 43.3062 4.42745 42.8775C3.01196 42.1422 1.85783 40.988 1.12255 39.5726C0.693826 38.7472 0.473008 37.7814 0.361729 36.4415C0.250201 35.0985 0.25 33.4022 0.25 31.12V12.88C0.25 10.5978 0.250201 8.90151 0.361729 7.55854C0.473008 6.21855 0.693826 5.25277 1.12255 4.42745C1.85783 3.01196 3.01196 1.85783 4.42745 1.12255C5.25277 0.693826 6.21855 0.473008 7.55854 0.361729C8.90151 0.250201 10.5978 0.25 12.88 0.25Z" stroke="#3F3F46" stroke-width="0.5"/>
<path fill-rule="evenodd" clip-rule="evenodd" d="M24.2928 10.2593C24.3787 10.1653 24.4918 10.0432 24.6255 9.90122C24.9436 9.56407 25.3816 9.11311 25.8593 8.66091C26.3349 8.21064 26.8594 7.74992 27.3492 7.39882C27.5942 7.22338 27.8402 7.06814 28.0746 6.95511C28.3012 6.84588 28.5571 6.75598 28.811 6.75598C29.2011 6.75598 29.5493 6.83713 29.827 7.04986C30.1064 7.26386 30.2498 7.56153 30.3289 7.86148C30.4065 8.15513 30.4333 8.49218 30.4485 8.83299C30.4552 8.98061 30.4596 9.12245 30.4641 9.26671L30.465 9.29462C30.4713 9.50399 30.4778 9.71956 30.491 9.96636C30.5041 10.2081 30.512 10.4426 30.5196 10.6734C30.5603 11.9136 30.5977 13.0506 31.442 14.6715C31.8847 14.9927 32.3035 15.3369 32.6954 15.7017L11.0156 18.2663L11.1668 19.5444L15.214 19.0656L15.3651 20.3437L16.6432 20.1925L16.7944 21.4705L18.0727 21.3193L18.2237 22.5975L22.484 22.0935L22.3328 20.8154L23.6108 20.6642L23.4596 19.3861L24.7376 19.235L24.5864 17.9569L27.1426 17.6546L27.2938 18.9326L28.5718 18.7815L28.723 20.0595L30.0018 19.9083L30.1525 21.1865L32.5088 20.9078C32.432 21.4859 31.8202 21.9153 31.2495 21.7428C29.4749 21.2064 27.7542 21.2773 26.3136 22.0781C25.9507 22.2799 25.6185 22.5209 25.3168 22.7971C23.9371 24.0602 20.8108 24.8757 19.3587 23.6967C16.5519 21.418 13.5418 20.5776 11.3558 21.7929C9.76684 22.6764 8.88318 24.4959 8.70731 26.7937C9.077 28.0939 9.646 29.3104 10.3792 30.4079C12.4259 34.8049 16.8836 37.853 22.0533 37.853C28.0879 37.853 33.1526 33.6997 34.5443 28.0957C35.3394 26.6763 35.7826 25.0982 35.7826 23.4355C35.7826 21.9888 35.4471 20.6061 34.8362 19.3365L35.3257 19.2785C35.9217 20.5669 36.25 21.9676 36.25 23.436C36.25 25.1622 35.7951 26.7994 34.9826 28.2696C33.5188 34.0465 28.2858 38.3215 22.053 38.3215C16.7076 38.3215 12.0975 35.1768 9.97005 30.6384C8.56726 28.5267 7.75 25.9918 7.75 23.2676C7.75 21.4435 8.11643 19.7039 8.7801 18.1192C8.40687 15.298 8.53163 12.7473 8.91998 10.7107C9.30982 8.6661 9.97852 7.07211 10.7347 6.26934C11.163 5.81462 11.673 5.63711 12.2056 5.68611C12.7078 5.73231 13.189 5.97554 13.6143 6.2696C14.3352 6.76804 15.0371 7.51766 15.5757 8.09285C15.6689 8.19241 15.7572 8.28673 15.8399 8.37364C16.8902 9.47744 17.7533 9.78943 18.849 10.117C19.5772 9.99389 20.3252 9.92984 21.0877 9.92984C22.097 9.92984 23.2981 10.0422 24.2928 10.2593ZM22.6097 15.9703C22.0281 16.4221 19.8643 16.4602 19.6475 15.7989C19.4307 15.1377 20.8263 13.7144 21.8427 14.1644C22.6902 14.5397 23.3616 15.3862 22.6097 15.9703ZM27.4596 15.0962C27.891 15.6339 28.9753 15.7011 29.3789 15.0962C29.65 14.6896 29.1574 13.6896 28.2197 13.6203C27.095 13.5371 27.0285 14.5584 27.4596 15.0962ZM11.8532 14.9001C11.1169 12.4891 11.3054 9.53731 11.8533 7.83363C12.8126 11.0446 15.1364 12.9346 15.1364 12.9346C14.1673 13.1449 12.7827 13.9596 11.8532 14.9001Z" fill="white"/>
<path d="M26.9277 23.428C27.6562 21.874 31.937 21.5964 32.6119 23.428C32.9871 24.4469 31.4747 26.7644 30.4668 26.9136C29.0189 27.128 26.1233 25.144 26.9277 23.428Z" fill="white"/>
<path d="M26.2336 32.1428C25.9919 31.9278 26.2946 31.6517 26.5889 31.786C27.174 32.0528 27.8416 32.204 28.5504 32.204C30.372 32.204 31.9221 31.2052 32.4981 29.8104C32.5505 29.6842 32.7383 29.6968 32.7383 29.8334C32.7383 31.6565 31.0398 33.1343 28.9446 33.1343C27.8826 33.1343 26.9222 32.7547 26.2336 32.1428Z" fill="white"/>
<path fill-rule="evenodd" clip-rule="evenodd" d="M33.4785 24.0632C33.632 23.9467 33.8508 23.9768 33.9673 24.1303C34.5977 24.9614 34.5458 26.0905 34.0951 26.9744C33.6406 27.8655 32.7412 28.5889 31.5765 28.5673C31.224 28.5608 30.8769 28.6937 30.6536 28.9307C29.7883 29.85 28.4599 30.3571 27.2079 30.3272C25.9469 30.2971 24.7111 29.7161 24.1266 28.4004C24.0452 28.217 23.9269 28.0814 23.7891 28.0125L22.9692 27.6025C22.7969 27.5164 22.727 27.3068 22.8132 27.1345C22.8994 26.9622 23.1089 26.8923 23.2812 26.9785L24.1009 27.3883C24.4226 27.549 24.6372 27.8311 24.7642 28.1171C25.2131 29.1277 26.1626 29.6043 27.2245 29.6297C28.2954 29.6552 29.4274 29.2156 30.1455 28.4525C30.5215 28.0534 31.0676 27.8601 31.5894 27.8697C32.4302 27.8853 33.1121 27.3662 33.4735 26.6574C33.8387 25.9414 33.8372 25.1132 33.4114 24.5519C33.295 24.3984 33.325 24.1796 33.4785 24.0632Z" fill="white"/>
<path d="M28.1658 30.1204C30.7467 31.1569 32.267 29.1623 32.134 28.4148L30.3419 28.6196L28.1658 30.1204Z" fill="white"/>
<path fill-rule="evenodd" clip-rule="evenodd" d="M38.1292 14.42L38.3911 16.9555L37.1217 17.0941L37.276 18.4086L36.0249 18.5448L36.1666 19.8143L34.8653 19.9754L34.9952 21.2309L31.7432 21.634L31.6653 21.0055L34.3013 20.6787L34.1714 19.4232L35.4678 19.2627L35.325 17.984L36.5726 17.8481L36.4183 16.5339L37.6964 16.3943L37.5653 15.1245L31.8812 15.7972L31.8068 15.1682L38.1292 14.42Z" fill="white"/>
<path d="M22.0371 18.2492L23.3349 18.0956L23.4885 19.3935L22.1906 19.547L22.0371 18.2492Z" fill="white"/>
<path d="M33.941 16.9087L35.2388 16.7552L35.3924 18.053L34.0945 18.2065L33.941 16.9087Z" fill="white"/>
<path d="M20.8933 19.7003L22.1906 19.547L22.3447 20.8446L21.0468 20.9981L20.8933 19.7003Z" fill="white"/>
<path d="M32.7972 18.3598L34.0945 18.2065L34.2486 19.5042L32.9507 19.6577L32.7972 18.3598Z" fill="white"/>
</svg>
