<svg width="44" height="44" viewBox="0 0 44 44" fill="none" xmlns="http://www.w3.org/2000/svg">
<path d="M12.88 0.25H31.12C33.4022 0.25 35.0985 0.250201 36.4415 0.361729C37.7814 0.473008 38.7472 0.693826 39.5726 1.12255C40.988 1.85783 42.1422 3.01196 42.8775 4.42745C43.3062 5.25277 43.527 6.21855 43.6383 7.55854C43.7498 8.90151 43.75 10.5978 43.75 12.88V31.12C43.75 33.4022 43.7498 35.0985 43.6383 36.4415C43.527 37.7814 43.3062 38.7472 42.8775 39.5726C42.1422 40.988 40.988 42.1422 39.5726 42.8775C38.7472 43.3062 37.7814 43.527 36.4415 43.6383C35.0985 43.7498 33.4022 43.75 31.12 43.75H12.88C10.5978 43.75 8.90151 43.7498 7.55854 43.6383C6.21855 43.527 5.25277 43.3062 4.42745 42.8775C3.01196 42.1422 1.85783 40.988 1.12255 39.5726C0.693826 38.7472 0.473008 37.7814 0.361729 36.4415C0.250201 35.0985 0.25 33.4022 0.25 31.12V12.88C0.25 10.5978 0.250201 8.90151 0.361729 7.55854C0.473008 6.21855 0.693826 5.25277 1.12255 4.42745C1.85783 3.01196 3.01196 1.85783 4.42745 1.12255C5.25277 0.693826 6.21855 0.473008 7.55854 0.361729C8.90151 0.250201 10.5978 0.25 12.88 0.25Z" stroke="#3F3F46" stroke-width="0.5"/>
<path fill-rule="evenodd" clip-rule="evenodd" d="M13.8768 9.6084H6.71735C6.57132 9.6084 6.43127 9.66641 6.32802 9.76967C6.22476 9.87292 6.16675 10.013 6.16675 10.159V17.3185C6.16675 17.4645 6.22474 17.6046 6.32799 17.708C6.43124 17.8113 6.57129 17.8694 6.71735 17.8695H13.8768C14.023 17.8695 14.1631 17.8114 14.2664 17.7081C14.3698 17.6048 14.4278 17.4646 14.4278 17.3185V10.159C14.4277 10.0129 14.3696 9.87289 14.2663 9.76964C14.163 9.6664 14.0229 9.6084 13.8768 9.6084ZM22.1416 17.8695H14.9821C14.8361 17.8695 14.696 17.9275 14.5928 18.0308C14.4895 18.134 14.4315 18.2741 14.4315 18.4201V25.5796C14.4315 25.7256 14.4895 25.8657 14.5927 25.969C14.696 26.0724 14.836 26.1305 14.9821 26.1306H22.1416C22.2139 26.1306 22.2855 26.1163 22.3524 26.0886C22.4192 26.0609 22.4799 26.0203 22.5311 25.9692C22.5822 25.918 22.6227 25.8572 22.6504 25.7904C22.678 25.7235 22.6922 25.6519 22.6922 25.5796V18.4201C22.6922 18.2741 22.6342 18.134 22.5309 18.0308C22.4277 17.9275 22.2876 17.8695 22.1416 17.8695ZM23.2403 9.6084H30.399C30.5451 9.6084 30.6852 9.6664 30.7885 9.76964C30.8918 9.87289 30.9499 10.0129 30.95 10.159V17.3185C30.95 17.4646 30.892 17.6048 30.7886 17.7081C30.6853 17.8114 30.5451 17.8695 30.399 17.8695H23.2395C23.0935 17.8694 22.9534 17.8113 22.8502 17.708C22.7469 17.6046 22.6889 17.4645 22.6889 17.3185V10.159C22.6889 10.013 22.7469 9.87292 22.8502 9.76967C22.9535 9.66641 23.0943 9.6084 23.2403 9.6084ZM13.8768 26.1306H6.71735C6.57132 26.1306 6.43127 26.1886 6.32802 26.2918C6.22476 26.3951 6.16675 26.5351 6.16675 26.6812V33.8407C6.16675 33.9867 6.22474 34.1268 6.32799 34.2301C6.43124 34.3335 6.57129 34.3916 6.71735 34.3917H13.8768C14.023 34.3917 14.1631 34.3336 14.2664 34.2303C14.3698 34.1269 14.4278 33.9868 14.4278 33.8407V26.6812C14.4277 26.5351 14.3696 26.3951 14.2663 26.2918C14.163 26.1886 14.0229 26.1306 13.8768 26.1306ZM23.2395 26.1306H30.399C30.5451 26.1306 30.6852 26.1886 30.7885 26.2918C30.8918 26.3951 30.9499 26.5351 30.95 26.6812V33.8407C30.95 33.9868 30.892 34.1269 30.7886 34.2303C30.6853 34.3336 30.5451 34.3917 30.399 34.3917H23.2395C23.0935 34.3916 22.9534 34.3335 22.8502 34.2301C22.7469 34.1268 22.6889 33.9867 22.6889 33.8407V26.6812C22.6889 26.5351 22.7469 26.3951 22.8502 26.2918C22.9535 26.1886 23.0935 26.1306 23.2395 26.1306Z" fill="white"/>
<path d="M32.285 9.6084H34.5646C34.8486 9.6084 35.0789 9.83863 35.0789 10.1226V17.3352C35.0789 17.6192 34.8486 17.8494 34.5646 17.8494H32.285V9.6084Z" fill="white"/>
<path d="M32.285 26.1507H34.5646C34.8486 26.1507 35.0789 26.3809 35.0789 26.6649V33.8774C35.0789 34.1614 34.8486 34.3917 34.5646 34.3917H32.285V26.1507Z" fill="white"/>
<path d="M36.5164 9.6084H37.3192C37.6032 9.6084 37.8334 9.83863 37.8334 10.1226V17.3352C37.8334 17.6192 37.6032 17.8494 37.3192 17.8494H36.5164V9.6084Z" fill="white"/>
<path d="M36.5164 26.1507H37.3192C37.6032 26.1507 37.8334 26.3809 37.8334 26.6649V33.8774C37.8334 34.1614 37.6032 34.3917 37.3192 34.3917H36.5164V26.1507Z" fill="white"/>
</svg>
