<svg width="44" height="44" viewBox="0 0 44 44" fill="none" xmlns="http://www.w3.org/2000/svg">
<path d="M12.88 0.25H31.12C33.4022 0.25 35.0985 0.250201 36.4415 0.361729C37.7814 0.473008 38.7472 0.693826 39.5726 1.12255C40.988 1.85783 42.1422 3.01196 42.8775 4.42745C43.3062 5.25277 43.527 6.21855 43.6383 7.55854C43.7498 8.90151 43.75 10.5978 43.75 12.88V31.12C43.75 33.4022 43.7498 35.0985 43.6383 36.4415C43.527 37.7814 43.3062 38.7472 42.8775 39.5726C42.1422 40.988 40.988 42.1422 39.5726 42.8775C38.7472 43.3062 37.7814 43.527 36.4415 43.6383C35.0985 43.7498 33.4022 43.75 31.12 43.75H12.88C10.5978 43.75 8.90151 43.7498 7.55854 43.6383C6.21855 43.527 5.25277 43.3062 4.42745 42.8775C3.01196 42.1422 1.85783 40.988 1.12255 39.5726C0.693826 38.7472 0.473008 37.7814 0.361729 36.4415C0.250201 35.0985 0.25 33.4022 0.25 31.12V12.88C0.25 10.5978 0.250201 8.90151 0.361729 7.55854C0.473008 6.21855 0.693826 5.25277 1.12255 4.42745C1.85783 3.01196 3.01196 1.85783 4.42745 1.12255C5.25277 0.693826 6.21855 0.473008 7.55854 0.361729C8.90151 0.250201 10.5978 0.25 12.88 0.25Z" stroke="#3F3F46" stroke-width="0.5"/>
<g clip-path="url(#clip0_7204_42236)">
<mask id="mask0_7204_42236" style="mask-type:luminance" maskUnits="userSpaceOnUse" x="6" y="6" width="32" height="32">
<path d="M6.16663 6.1665H37.8333V37.8332H6.16663V6.1665Z" fill="white"/>
</mask>
<g mask="url(#mask0_7204_42236)">
<path fill-rule="evenodd" clip-rule="evenodd" d="M22.0002 30.7081C17.1906 30.7081 13.2919 26.8096 13.2919 21.9999C13.2919 17.1901 17.1906 13.2916 22.0002 13.2916V6.1665C13.2555 6.1665 6.16663 13.255 6.16663 21.9999C6.16663 30.7442 13.2555 37.8332 22.0002 37.8332C30.7444 37.8332 37.8333 30.7442 37.8333 21.9999H30.7078C30.7078 26.8096 26.8093 30.7081 22.0002 30.7081Z" fill="white"/>
</g>
<mask id="mask1_7204_42236" style="mask-type:luminance" maskUnits="userSpaceOnUse" x="6" y="6" width="32" height="32">
<path d="M6.16663 37.8332H37.8333V6.1665H6.16663V37.8332Z" fill="white"/>
</mask>
<g mask="url(#mask1_7204_42236)">
<path fill-rule="evenodd" clip-rule="evenodd" d="M22 22H30.8667V13.1333H22V22Z" fill="white"/>
</g>
</g>
<defs>
<clipPath id="clip0_7204_42236">
<rect width="31.6667" height="31.6667" fill="white" transform="translate(6.16663 6.1665)"/>
</clipPath>
</defs>
</svg>
