<svg width="44" height="44" viewBox="0 0 44 44" fill="none" xmlns="http://www.w3.org/2000/svg">
<path d="M12.88 0.25H31.12C33.4022 0.25 35.0985 0.250201 36.4415 0.361729C37.7814 0.473008 38.7472 0.693826 39.5726 1.12255C40.988 1.85783 42.1422 3.01196 42.8775 4.42745C43.3062 5.25277 43.527 6.21855 43.6383 7.55854C43.7498 8.90151 43.75 10.5978 43.75 12.88V31.12C43.75 33.4022 43.7498 35.0985 43.6383 36.4415C43.527 37.7814 43.3062 38.7472 42.8775 39.5726C42.1422 40.988 40.988 42.1422 39.5726 42.8775C38.7472 43.3062 37.7814 43.527 36.4415 43.6383C35.0985 43.7498 33.4022 43.75 31.12 43.75H12.88C10.5978 43.75 8.90151 43.7498 7.55854 43.6383C6.21855 43.527 5.25277 43.3062 4.42745 42.8775C3.01196 42.1422 1.85783 40.988 1.12255 39.5726C0.693826 38.7472 0.473008 37.7814 0.361729 36.4415C0.250201 35.0985 0.25 33.4022 0.25 31.12V12.88C0.25 10.5978 0.250201 8.90151 0.361729 7.55854C0.473008 6.21855 0.693826 5.25277 1.12255 4.42745C1.85783 3.01196 3.01196 1.85783 4.42745 1.12255C5.25277 0.693826 6.21855 0.473008 7.55854 0.361729C8.90151 0.250201 10.5978 0.25 12.88 0.25Z" stroke="#3F3F46" stroke-width="0.5"/>
<path fill-rule="evenodd" clip-rule="evenodd" d="M25.7003 28.8584L29.1295 32.2875L35.356 26.0609L31.9268 22.6317L29.1295 25.4291L28.498 24.7977C25.2117 21.5116 25.5572 21.8573 22.2712 18.571L19.5122 15.8122C16.1087 12.4087 10.5395 12.4087 7.136 15.8122C3.73247 19.2156 3.73253 24.7847 7.136 28.1884C10.5395 31.5919 16.1087 31.5919 19.5122 28.1884L21.6397 26.0609L18.2105 22.6317L16.083 24.7594C14.5657 26.277 12.0825 26.2767 10.5651 24.7594C9.04766 23.2418 9.04766 20.7588 10.565 19.2413C12.0824 17.7237 14.5657 17.7237 16.083 19.2413L18.8422 22.0003L22.2713 25.4294L25.0687 28.2268L25.7003 28.8584ZM35.9877 25.4294L39.4167 22.0002L35.9875 18.5711L32.5586 22L35.9877 25.4294ZM35.3561 17.9396L29.1295 11.7129L22.903 17.9395L26.332 21.3684L29.1296 18.5708L31.9271 21.3684L35.3561 17.9396Z" fill="white"/>
</svg>
