<svg width="44" height="44" viewBox="0 0 44 44" fill="none" xmlns="http://www.w3.org/2000/svg">
<path d="M12.88 0.25H31.12C33.4022 0.25 35.0985 0.250201 36.4415 0.361729C37.7814 0.473008 38.7472 0.693826 39.5726 1.12255C40.988 1.85783 42.1422 3.01196 42.8775 4.42745C43.3062 5.25277 43.527 6.21855 43.6383 7.55854C43.7498 8.90151 43.75 10.5978 43.75 12.88V31.12C43.75 33.4022 43.7498 35.0985 43.6383 36.4415C43.527 37.7814 43.3062 38.7472 42.8775 39.5726C42.1422 40.988 40.988 42.1422 39.5726 42.8775C38.7472 43.3062 37.7814 43.527 36.4415 43.6383C35.0985 43.7498 33.4022 43.75 31.12 43.75H12.88C10.5978 43.75 8.90151 43.7498 7.55854 43.6383C6.21855 43.527 5.25277 43.3062 4.42745 42.8775C3.01196 42.1422 1.85783 40.988 1.12255 39.5726C0.693826 38.7472 0.473008 37.7814 0.361729 36.4415C0.250201 35.0985 0.25 33.4022 0.25 31.12V12.88C0.25 10.5978 0.250201 8.90151 0.361729 7.55854C0.473008 6.21855 0.693826 5.25277 1.12255 4.42745C1.85783 3.01196 3.01196 1.85783 4.42745 1.12255C5.25277 0.693826 6.21855 0.473008 7.55854 0.361729C8.90151 0.250201 10.5978 0.25 12.88 0.25Z" stroke="#3F3F46" stroke-width="0.5"/>
<path d="M30.1019 7.75C28.4741 7.74873 26.9123 8.39517 25.7593 9.54742C24.6064 10.6997 23.9564 12.2636 23.9523 13.8958V20.71C23.3189 20.7529 22.6713 20.7799 22 20.7799C21.3287 20.7799 20.6842 20.8069 20.0477 20.845V13.8958C20.0219 12.2777 19.3626 10.7347 18.2123 9.59957C17.062 8.46448 15.5128 7.8283 13.8989 7.8283C12.285 7.8283 10.7358 8.46448 9.58543 9.59957C8.43511 10.7347 7.7759 12.2777 7.75 13.8958L7.75 30.182C7.7759 31.8001 8.43511 33.3431 9.58543 34.4782C10.7358 35.6133 12.285 36.2495 13.8989 36.2495C15.5128 36.2495 17.062 35.6133 18.2123 34.4782C19.3626 33.3431 20.0219 31.8001 20.0477 30.182V23.3678C20.6811 23.3249 21.3287 23.2979 22 23.2979C22.6713 23.2979 23.3158 23.2709 23.9523 23.2328V30.182C23.9781 31.8001 24.6374 33.3431 25.7877 34.4782C26.938 35.6133 28.4872 36.2495 30.1011 36.2495C31.715 36.2495 33.2642 35.6133 34.4146 34.4782C35.5649 33.3431 36.2241 31.8001 36.25 30.182V13.8958C36.2454 12.264 35.5956 10.7006 34.443 9.54844C33.2905 8.39633 31.7293 7.74957 30.1019 7.75V7.75ZM13.8981 10.268C14.8588 10.2676 15.7804 10.6493 16.4607 11.3294C17.1411 12.0096 17.5246 12.9325 17.5271 13.8958V21.1117C15.7281 21.3731 13.9713 21.8712 12.3021 22.593C11.5814 22.9113 10.9032 23.3188 10.2833 23.806V13.8958C10.2858 12.935 10.6674 12.0142 11.3446 11.3345C12.0219 10.6548 12.9399 10.2714 13.8981 10.268V10.268ZM17.5271 30.182C17.5271 31.1471 17.1447 32.0726 16.4642 32.7551C15.7836 33.4375 14.8606 33.8209 13.8981 33.8209C12.9356 33.8209 12.0126 33.4375 11.332 32.7551C10.6514 32.0726 10.2691 31.1471 10.2691 30.182V28.5483C10.2691 27.1051 11.4091 25.7381 13.3202 24.8872C14.6667 24.3044 16.0796 23.8901 17.5271 23.6535V30.182V30.182ZM30.1019 33.8098C29.1412 33.8102 28.2196 33.4285 27.5393 32.7484C26.8589 32.0682 26.4754 31.1453 26.4729 30.182V22.9661C28.2719 22.7047 30.0287 22.2066 31.6979 21.4848C32.4214 21.1671 33.1023 20.7596 33.7246 20.2718V30.182C33.7221 31.1442 33.3394 32.0662 32.6605 32.7461C31.9815 33.4261 31.0615 33.8085 30.1019 33.8098ZM30.6798 19.1811C29.3333 19.7639 27.9204 20.1782 26.4729 20.4147V13.8958C26.4729 12.9307 26.8553 12.0051 27.5358 11.3227C28.2164 10.6403 29.1394 10.2569 30.1019 10.2569C31.0644 10.2569 31.9874 10.6403 32.668 11.3227C33.3486 12.0051 33.7309 12.9307 33.7309 13.8958V15.5295C33.7309 16.9663 32.5909 18.3333 30.6798 19.1811Z" fill="white"/>
</svg>
