<svg width="44" height="44" viewBox="0 0 44 44" fill="none" xmlns="http://www.w3.org/2000/svg">
<path d="M12.88 0.25H31.12C33.4022 0.25 35.0985 0.250201 36.4415 0.361729C37.7814 0.473008 38.7472 0.693826 39.5726 1.12255C40.988 1.85783 42.1422 3.01196 42.8775 4.42745C43.3062 5.25277 43.527 6.21855 43.6383 7.55854C43.7498 8.90151 43.75 10.5978 43.75 12.88V31.12C43.75 33.4022 43.7498 35.0985 43.6383 36.4415C43.527 37.7814 43.3062 38.7472 42.8775 39.5726C42.1422 40.988 40.988 42.1422 39.5726 42.8775C38.7472 43.3062 37.7814 43.527 36.4415 43.6383C35.0985 43.7498 33.4022 43.75 31.12 43.75H12.88C10.5978 43.75 8.90151 43.7498 7.55854 43.6383C6.21855 43.527 5.25277 43.3062 4.42745 42.8775C3.01196 42.1422 1.85783 40.988 1.12255 39.5726C0.693826 38.7472 0.473008 37.7814 0.361729 36.4415C0.250201 35.0985 0.25 33.4022 0.25 31.12V12.88C0.25 10.5978 0.250201 8.90151 0.361729 7.55854C0.473008 6.21855 0.693826 5.25277 1.12255 4.42745C1.85783 3.01196 3.01196 1.85783 4.42745 1.12255C5.25277 0.693826 6.21855 0.473008 7.55854 0.361729C8.90151 0.250201 10.5978 0.25 12.88 0.25Z" stroke="#3F3F46" stroke-width="0.5"/>
<path fill-rule="evenodd" clip-rule="evenodd" d="M21.9596 37.8332C26.6633 37.8332 30.8891 35.7925 33.7959 32.5504C32.4437 31.3783 30.406 31.3071 28.9665 32.4656L28.6915 32.687C26.0559 34.8083 22.2154 34.4951 19.9603 31.9748C18.7303 30.6002 16.6239 30.4599 15.2216 31.659L12.051 34.3704C14.7666 36.5374 18.2114 37.8332 21.9596 37.8332ZM27.1063 30.1662C29.6167 28.1456 33.1453 28.2181 35.5598 30.1696C37.003 27.7844 37.8333 24.9888 37.8333 21.9999C37.8333 18.6785 36.8081 15.5961 35.0561 13.0502C33.9266 12.8103 32.7024 13.0905 31.7731 13.9119L31.5086 14.1457C28.9739 16.3861 25.1231 16.25 22.7537 13.8362C21.4615 12.5198 19.3508 12.4765 18.0055 13.739L14.3158 17.2014L12.286 15.0494L15.9757 11.5869C18.4958 9.22206 22.4497 9.30304 24.8704 11.7691C26.1352 13.0577 28.1909 13.1303 29.544 11.9343L29.8085 11.7006C30.6299 10.9745 31.5801 10.4851 32.5751 10.2277C29.7628 7.70299 26.0411 6.1665 21.9596 6.1665C13.9015 6.1665 7.2458 12.1555 6.22237 19.9145C8.66994 18.7429 11.689 19.1938 13.6846 21.2322C14.9445 22.5191 16.9731 22.6549 18.3941 21.5475L20.457 19.9399C23.0498 17.9195 26.7149 18.0173 29.1956 20.1731L33.2121 23.6635L31.2662 25.8913L27.2498 22.401C25.8392 21.175 23.7551 21.1194 22.2808 22.2683L20.2178 23.876C17.607 25.9104 13.88 25.6608 11.5653 23.2965C10.2193 21.9217 8.01794 21.8737 6.61306 23.1886L6.16663 23.6065C6.50072 26.9134 7.85505 29.9201 9.91089 32.3086L13.2936 29.4159C15.9204 27.1695 19.8663 27.4324 22.1703 30.0073C23.3742 31.3528 25.4243 31.5199 26.8313 30.3875L27.1063 30.1662Z" fill="white"/>
</svg>
