<svg width="44" height="44" viewBox="0 0 44 44" fill="none" xmlns="http://www.w3.org/2000/svg">
<path d="M12.88 0.25H31.12C33.4022 0.25 35.0985 0.250201 36.4415 0.361729C37.7814 0.473008 38.7472 0.693826 39.5726 1.12255C40.988 1.85783 42.1422 3.01196 42.8775 4.42745C43.3062 5.25277 43.527 6.21855 43.6383 7.55854C43.7498 8.90151 43.75 10.5978 43.75 12.88V31.12C43.75 33.4022 43.7498 35.0985 43.6383 36.4415C43.527 37.7814 43.3062 38.7472 42.8775 39.5726C42.1422 40.988 40.988 42.1422 39.5726 42.8775C38.7472 43.3062 37.7814 43.527 36.4415 43.6383C35.0985 43.7498 33.4022 43.75 31.12 43.75H12.88C10.5978 43.75 8.90151 43.7498 7.55854 43.6383C6.21855 43.527 5.25277 43.3062 4.42745 42.8775C3.01196 42.1422 1.85783 40.988 1.12255 39.5726C0.693826 38.7472 0.473008 37.7814 0.361729 36.4415C0.250201 35.0985 0.25 33.4022 0.25 31.12V12.88C0.25 10.5978 0.250201 8.90151 0.361729 7.55854C0.473008 6.21855 0.693826 5.25277 1.12255 4.42745C1.85783 3.01196 3.01196 1.85783 4.42745 1.12255C5.25277 0.693826 6.21855 0.473008 7.55854 0.361729C8.90151 0.250201 10.5978 0.25 12.88 0.25Z" stroke="#3F3F46" stroke-width="0.5"/>
<path fill-rule="evenodd" clip-rule="evenodd" d="M13.5282 33.3392C10.0713 30.7574 7.83329 26.6352 7.83329 21.9903C7.83329 14.171 14.1762 7.83217 21.9998 7.83217C28.4573 7.83217 35.5087 11.6889 37.214 17.5953C35.3088 10.9949 29.2195 6.1665 22.0001 6.1665C13.2557 6.1665 6.16663 13.2513 6.16663 21.9903C6.16663 30.7298 13.2557 37.8142 21.9998 37.8142C30.7445 37.8142 37.8333 30.7298 37.8333 21.9903V21.1575H36.9631L36.8472 21.1558C36.2092 21.1441 35.5718 21.1109 34.936 21.0562C33.7481 20.953 32.3932 20.7518 31.4704 20.3833C29.986 19.7907 29.1478 19.0051 28.1901 18.086L28.1348 18.0327C27.1754 17.1119 26.0973 16.0772 24.2295 15.1988C22.3896 14.3333 20.3548 14.4722 18.8593 14.7797C18.2238 14.9112 17.5985 15.088 16.9881 15.3087C16.7569 15.3923 16.5717 15.4669 16.4418 15.5216C15.6892 15.838 14.959 16.2128 14.2205 16.5603C14.2205 16.5603 15.6696 16.9574 16.3858 17.1792C16.5778 17.2407 16.7673 17.3092 16.9542 17.3848C17.4299 17.5757 17.8871 17.8099 18.32 18.0844C19.0929 18.5807 19.7338 19.2057 19.9967 19.9729C18.356 20.1884 16.8169 20.9083 15.6659 21.5849C15.0832 21.9281 14.5206 22.3044 13.9809 22.7119C13.7774 22.8661 13.6158 22.9951 13.5046 23.087C13.4106 23.1643 11.9288 24.4695 11.9288 24.4695C11.9288 24.4695 13.8404 24.6727 14.7838 24.8626C15.4111 24.9892 16.2569 25.1924 17.1394 25.4999C18.0258 25.8091 18.9216 26.2141 19.6645 26.7325C20.4094 27.2522 20.9548 27.8525 21.2236 28.5401C22.0078 30.5422 21.2386 32.4924 19.6942 33.5894C18.1684 34.6734 15.8482 34.9312 13.5282 33.3392ZM18.9306 35.8154C19.5477 35.6154 20.1307 35.3227 20.6596 34.9472C22.7613 33.4541 23.867 30.7198 22.776 27.9331C22.3473 26.8384 21.5281 26.0009 20.6186 25.3666C19.7075 24.731 18.6588 24.2656 17.6887 23.9275C17.0994 23.7234 16.5005 23.5483 15.8941 23.4028C16.0966 23.2706 16.3021 23.1431 16.5104 23.0204C17.7933 22.2665 19.4087 21.5739 20.9578 21.5739C23.293 21.5739 25.032 22.2902 26.6923 23.0584C26.8432 23.1283 26.9948 23.1993 27.147 23.2706C28.6308 23.9665 30.1889 24.6971 31.9995 24.6971C33.7551 24.6971 35.1229 24.2007 36.0654 23.6877C35.2265 30.7071 29.2494 36.1485 21.9998 36.1485C20.9461 36.1485 19.919 36.0336 18.9306 35.8154ZM34.2648 22.6649C33.6408 22.8778 32.8843 23.0314 31.9998 23.0314C30.5796 23.0314 29.3594 22.4627 27.81 21.7408L27.3929 21.5469C25.8418 20.829 24.0472 20.0682 21.711 19.9302C21.3978 18.3845 20.2252 17.3285 19.2215 16.6832C19.1116 16.6127 19.0002 16.5446 18.8873 16.479C18.9873 16.4557 19.0905 16.4323 19.1951 16.411C20.5443 16.1335 22.1557 16.0642 23.5199 16.7058C25.1392 17.4674 26.0527 18.3442 27.0031 19.2563L27.0358 19.2876C28.0135 20.2261 29.0479 21.2098 30.8521 21.93C31.8549 22.3301 33.1521 22.5453 34.2648 22.6649Z" fill="white"/>
</svg>
