<svg width="44" height="44" viewBox="0 0 44 44" fill="none" xmlns="http://www.w3.org/2000/svg">
<path d="M12.88 0.25H31.12C33.4022 0.25 35.0985 0.250201 36.4415 0.361729C37.7814 0.473008 38.7472 0.693826 39.5726 1.12255C40.988 1.85783 42.1422 3.01196 42.8775 4.42745C43.3062 5.25277 43.527 6.21855 43.6383 7.55854C43.7498 8.90151 43.75 10.5978 43.75 12.88V31.12C43.75 33.4022 43.7498 35.0985 43.6383 36.4415C43.527 37.7814 43.3062 38.7472 42.8775 39.5726C42.1422 40.988 40.988 42.1422 39.5726 42.8775C38.7472 43.3062 37.7814 43.527 36.4415 43.6383C35.0985 43.7498 33.4022 43.75 31.12 43.75H12.88C10.5978 43.75 8.90151 43.7498 7.55854 43.6383C6.21855 43.527 5.25277 43.3062 4.42745 42.8775C3.01196 42.1422 1.85783 40.988 1.12255 39.5726C0.693826 38.7472 0.473008 37.7814 0.361729 36.4415C0.250201 35.0985 0.25 33.4022 0.25 31.12V12.88C0.25 10.5978 0.250201 8.90151 0.361729 7.55854C0.473008 6.21855 0.693826 5.25277 1.12255 4.42745C1.85783 3.01196 3.01196 1.85783 4.42745 1.12255C5.25277 0.693826 6.21855 0.473008 7.55854 0.361729C8.90151 0.250201 10.5978 0.25 12.88 0.25Z" stroke="#3F3F46" stroke-width="0.5"/>
<path d="M37.8127 20.0425C37.3023 19.6566 36.7717 19.2985 36.2225 18.9699C35.9859 18.8202 35.7658 18.6458 35.5656 18.4497C35.1553 18.0448 34.4717 17.3343 34.249 16.8972C34.1044 16.629 34.1633 16.1169 34.276 15.6369C34.4683 14.7956 34.3218 13.9123 33.8683 13.178L33.1551 12.0143C32.826 11.4848 32.5624 10.9176 32.3693 10.325C32.1222 9.56392 31.6933 8.87458 31.1197 8.31654C29.9587 7.18229 26.7437 6.62723 24.0756 6.53605C23.9107 6.48794 23.7433 6.44856 23.5742 6.41806C22.3836 6.21426 21.118 5.88176 19.9783 6.10165C18.2917 6.41539 16.5836 6.94364 15.3099 8.24681C15.0418 8.51496 14.6503 8.63562 14.3741 8.88501C13.8244 9.38106 13.087 9.38106 12.599 9.93078C12.312 10.2525 12.1807 11.2983 11.4326 11.6979C10.1937 12.3629 9.28736 13.0922 8.97902 13.4649C8.75109 13.7465 8.57679 14.0736 8.35691 14.3605C8.13702 14.6474 7.06445 15.165 6.74804 15.4626C6.51144 15.7251 6.33968 16.0394 6.24656 16.3803C6.15342 16.7212 6.14149 17.0791 6.21174 17.4254C6.23053 17.5086 6.24392 17.5756 6.25466 17.6292C6.37799 18.0851 6.71049 18.9083 6.63273 19.2864C6.54424 19.7342 5.39123 23.0699 7.97347 23.96C8.20905 24.031 8.41578 24.1754 8.56343 24.3724C8.71105 24.5692 8.79186 24.8082 8.79398 25.0542C8.8467 25.4996 8.97454 25.933 9.17207 26.336C9.34367 26.6627 9.59675 26.94 9.9068 27.1404C10.2376 27.4556 10.55 27.7894 10.8426 28.1405C11.7543 29.8271 11.4996 30.6693 13.2559 31.2431C13.7042 31.3911 14.135 31.5881 14.5403 31.8303C15.0336 32.1276 15.5625 32.3619 16.1144 32.5275L16.1841 32.5516C16.5729 31.6157 16.9644 30.7253 17.3586 29.8887C16.3416 28.8964 15.6161 27.6445 15.2606 26.2689C14.9051 24.8933 14.9333 23.4465 15.3421 22.0858C15.3507 22.0567 15.3664 22.0302 15.388 22.0089C15.4095 21.9875 15.4361 21.9719 15.4653 21.9637C15.4945 21.9554 15.5253 21.9546 15.5549 21.9614C15.5844 21.9682 15.6118 21.9824 15.6344 22.0027C16.294 22.5819 18.2998 24.668 18.0638 28.4382C18.7583 27.0518 19.4313 25.8319 20.048 24.7914C19.3033 23.5735 18.9041 22.1758 18.8932 20.7483C18.8823 19.3207 19.2602 17.9171 19.9864 16.688C20.0029 16.6626 20.0256 16.6417 20.0523 16.6272C20.079 16.6127 20.1089 16.6051 20.1392 16.6051C20.1696 16.6051 20.1995 16.6127 20.2262 16.6272C20.2529 16.6417 20.2755 16.6626 20.2921 16.688C20.756 17.3745 22.0109 19.6376 21.2333 22.8688C21.7991 22.0053 22.2576 21.3672 22.5552 20.9676C23.3597 15.6047 27.414 13.8484 28.4786 13.4756C28.5071 13.4651 28.5378 13.4619 28.5677 13.4664C28.5978 13.471 28.6261 13.4831 28.6502 13.5015C28.6743 13.52 28.6934 13.5443 28.7055 13.5721C28.7178 13.6 28.7228 13.6304 28.7199 13.6607C28.5532 15.2928 27.959 16.8521 26.9971 18.1811C26.0353 19.5102 24.7398 20.562 23.2417 21.2304C22.6759 21.9732 22.1342 22.7562 21.614 23.5607C23.4079 22.1555 25.9257 21.4959 28.0174 22.0027C28.0468 22.0096 28.0743 22.0237 28.0968 22.0438C28.1196 22.0639 28.1369 22.0893 28.1474 22.1178C28.1576 22.1463 28.1607 22.1769 28.1563 22.2069C28.1518 22.2369 28.14 22.2653 28.122 22.2896C27.5212 23.094 25.1295 25.7755 20.6138 25.1533C19.855 26.4379 19.1551 27.7383 18.5384 28.9798C20.4824 27.5104 23.3248 26.9447 25.529 27.6872C25.5584 27.6964 25.5851 27.7129 25.6063 27.7349C25.6278 27.7572 25.6433 27.7842 25.6511 27.814C25.6593 27.8437 25.6595 27.8751 25.6522 27.905C25.6448 27.9348 25.6302 27.9623 25.6095 27.9849C24.9256 28.7225 22.2897 31.1411 17.9538 30.1811C17.5462 31.0418 16.9402 32.4523 16.6453 33.1495C16.5434 33.3908 16.4495 33.6322 16.3771 33.8787C16.1868 34.4473 15.9267 35.1579 15.6183 35.8685C15.5754 35.9696 15.5538 36.0786 15.5547 36.1884C15.5556 36.2984 15.579 36.4069 15.6235 36.5075C15.668 36.6079 15.7326 36.6983 15.8133 36.773C15.894 36.8474 15.9892 36.9048 16.0929 36.9412C19.5128 38.1632 23.2265 38.301 26.7275 37.3352C26.8433 37.3022 26.95 37.2435 27.0401 37.1636C27.13 37.084 27.201 36.9849 27.2479 36.8741C27.3202 36.7025 27.3925 36.5387 27.3925 36.5387C27.3925 36.5387 28.9049 33.0261 29.1273 31.4951C29.1915 31.0128 29.3414 30.5461 29.5699 30.1167C29.6883 29.9018 29.8597 29.7207 30.0674 29.5903C30.2752 29.4598 30.5129 29.3846 30.7579 29.3712C31.9081 29.3096 34.3617 29.1488 35.2546 28.8671C36.4423 28.489 35.9277 26.3279 35.8633 26.0973C35.7988 25.8667 36.4345 25.3223 36.5657 25.006C36.6973 24.6895 36.244 24.5823 36.059 24.2336C35.874 23.8851 36.5175 23.6383 36.6087 23.322C36.6999 23.0055 36.3996 22.6623 36.2788 22.429C36.1963 22.2596 36.1394 22.0789 36.1098 21.8927C36.1098 21.8927 36.9787 21.2572 37.4506 20.855C37.9227 20.4528 37.8261 20.123 37.8234 20.0506" fill="white"/>
</svg>
