<svg width="44" height="44" viewBox="0 0 44 44" fill="none" xmlns="http://www.w3.org/2000/svg">
<path d="M12.88 0.25H31.12C33.4022 0.25 35.0985 0.250201 36.4415 0.361729C37.7814 0.473008 38.7472 0.693826 39.5726 1.12255C40.988 1.85783 42.1422 3.01196 42.8775 4.42745C43.3062 5.25277 43.527 6.21855 43.6383 7.55854C43.7498 8.90151 43.75 10.5978 43.75 12.88V31.12C43.75 33.4022 43.7498 35.0985 43.6383 36.4415C43.527 37.7814 43.3062 38.7472 42.8775 39.5726C42.1422 40.988 40.988 42.1422 39.5726 42.8775C38.7472 43.3062 37.7814 43.527 36.4415 43.6383C35.0985 43.7498 33.4022 43.75 31.12 43.75H12.88C10.5978 43.75 8.90151 43.7498 7.55854 43.6383C6.21855 43.527 5.25277 43.3062 4.42745 42.8775C3.01196 42.1422 1.85783 40.988 1.12255 39.5726C0.693826 38.7472 0.473008 37.7814 0.361729 36.4415C0.250201 35.0985 0.25 33.4022 0.25 31.12V12.88C0.25 10.5978 0.250201 8.90151 0.361729 7.55854C0.473008 6.21855 0.693826 5.25277 1.12255 4.42745C1.85783 3.01196 3.01196 1.85783 4.42745 1.12255C5.25277 0.693826 6.21855 0.473008 7.55854 0.361729C8.90151 0.250201 10.5978 0.25 12.88 0.25Z" stroke="#3F3F46" stroke-width="0.5"/>
<path fill-rule="evenodd" clip-rule="evenodd" d="M16.6164 7.75H8.38318C8.21525 7.75 8.0542 7.81671 7.93545 7.93545C7.81671 8.0542 7.75 8.21525 7.75 8.38318L7.75 16.6164C7.75 16.7843 7.81669 16.9454 7.93542 17.0642C8.05416 17.1831 8.21521 17.2499 8.38318 17.25H16.6164C16.7844 17.25 16.9456 17.1832 17.0644 17.0644C17.1832 16.9456 17.25 16.7844 17.25 16.6164V8.38318C17.2499 8.21521 17.1831 8.05416 17.0642 7.93542C16.9454 7.81669 16.7843 7.75 16.6164 7.75V7.75ZM26.1206 17.25H17.8874C17.7195 17.25 17.5584 17.3167 17.4397 17.4355C17.3209 17.5542 17.2542 17.7152 17.2542 17.8832V26.1164C17.2542 26.2843 17.3209 26.4454 17.4396 26.5642C17.5584 26.6831 17.7194 26.7499 17.8874 26.75H26.1206C26.2038 26.75 26.2861 26.7336 26.363 26.7018C26.4398 26.6699 26.5097 26.6232 26.5685 26.5644C26.6273 26.5055 26.6739 26.4357 26.7057 26.3588C26.7375 26.2819 26.7538 26.1995 26.7537 26.1164V17.8832C26.7537 17.7152 26.687 17.5542 26.5683 17.4355C26.4495 17.3167 26.2885 17.25 26.1206 17.25ZM27.3841 7.75H35.6164C35.7843 7.75 35.9454 7.81669 36.0642 7.93542C36.1831 8.05416 36.2499 8.21521 36.25 8.38318V16.6164C36.25 16.7844 36.1832 16.9456 36.0644 17.0644C35.9456 17.1832 35.7844 17.25 35.6164 17.25H27.3832C27.2152 17.2499 27.0542 17.1831 26.9354 17.0642C26.8167 16.9454 26.75 16.7843 26.75 16.6164V8.38318C26.75 8.21525 26.8167 8.0542 26.9355 7.93545C27.0542 7.81671 27.2152 7.75 27.3832 7.75H27.3841ZM16.6164 26.75H8.38318C8.21525 26.75 8.0542 26.8167 7.93545 26.9355C7.81671 27.0542 7.75 27.2152 7.75 27.3832L7.75 35.6164C7.75 35.7843 7.81669 35.9454 7.93542 36.0642C8.05416 36.1831 8.21521 36.2499 8.38318 36.25H16.6164C16.7844 36.25 16.9456 36.1832 17.0644 36.0644C17.1832 35.9456 17.25 35.7844 17.25 35.6164V27.3832C17.2499 27.2152 17.1831 27.0542 17.0642 26.9354C16.9454 26.8167 16.7843 26.75 16.6164 26.75ZM27.3832 26.75H35.6164C35.7843 26.75 35.9454 26.8167 36.0642 26.9354C36.1831 27.0542 36.2499 27.2152 36.25 27.3832V35.6164C36.25 35.7844 36.1832 35.9456 36.0644 36.0644C35.9456 36.1832 35.7844 36.25 35.6164 36.25H27.3832C27.2152 36.2499 27.0542 36.1831 26.9354 36.0642C26.8167 35.9454 26.75 35.7843 26.75 35.6164V27.3832C26.75 27.2152 26.8167 27.0542 26.9355 26.9355C27.0542 26.8167 27.2152 26.75 27.3832 26.75V26.75Z" fill="white"/>
</svg>
