<svg width="44" height="44" viewBox="0 0 44 44" fill="none" xmlns="http://www.w3.org/2000/svg">
<path d="M0.25 12.88C0.25 10.5978 0.250201 8.90151 0.361729 7.55854C0.473008 6.21855 0.693826 5.25277 1.12255 4.42745C1.85783 3.01196 3.01196 1.85783 4.42745 1.12255C5.25277 0.693826 6.21855 0.473008 7.55854 0.361729C8.90151 0.250201 10.5978 0.25 12.88 0.25H31.12C33.4022 0.25 35.0985 0.250201 36.4415 0.361729C37.7814 0.473008 38.7472 0.693826 39.5726 1.12255C40.988 1.85783 42.1422 3.01196 42.8775 4.42745C43.3062 5.25277 43.527 6.21855 43.6383 7.55854C43.7498 8.90151 43.75 10.5978 43.75 12.88V31.12C43.75 33.4022 43.7498 35.0985 43.6383 36.4415C43.527 37.7814 43.3062 38.7472 42.8775 39.5726C42.1422 40.988 40.988 42.1422 39.5726 42.8775C38.7472 43.3062 37.7814 43.527 36.4415 43.6383C35.0985 43.7498 33.4022 43.75 31.12 43.75H12.88C10.5978 43.75 8.90151 43.7498 7.55854 43.6383C6.21855 43.527 5.25277 43.3062 4.42745 42.8775C3.01196 42.1422 1.85783 40.988 1.12255 39.5726C0.693826 38.7472 0.473008 37.7814 0.361729 36.4415C0.250201 35.0985 0.25 33.4022 0.25 31.12V12.88Z" stroke="#3F3F46" stroke-width="0.5"/>
<path d="M23.1787 22.0534L30.1973 18.3566V27.5183L23.1787 31.483V22.0534Z" fill="white"/>
<path d="M22.0536 14.0883L15.2483 18.0173V25.8754L21.996 29.7711V31.4664C21.9416 31.4591 21.8883 31.4412 21.8393 31.4129L13.9624 26.8652C13.8298 26.7886 13.7481 26.6471 13.7481 26.494V17.3986C13.7481 17.2455 13.8298 17.104 13.9624 17.0275L21.8393 12.4798C21.9719 12.4032 22.1353 12.4032 22.2679 12.4798L30.1447 17.0275C30.1811 17.0485 30.2136 17.0744 30.2417 17.104L28.6876 17.9185L22.0536 14.0883Z" fill="white"/>
<path fill-rule="evenodd" clip-rule="evenodd" d="M22.4286 6.28135C22.1634 6.12822 21.8366 6.12822 21.5714 6.28135L8.60171 13.7694C8.33648 13.9225 8.1731 14.2055 8.1731 14.5118V29.4879C8.1731 29.7941 8.33648 30.0771 8.60171 30.2303L21.5714 37.7183C21.8366 37.8715 22.1634 37.8715 22.4286 37.7183L35.3983 30.2303C35.6635 30.0771 35.8269 29.7941 35.8269 29.4879V14.5118C35.8269 14.2055 35.6635 13.9225 35.3983 13.7694L22.4286 6.28135ZM22 9.25089L10.9591 15.6254V28.3743L22 34.7488L33.0409 28.3743V15.6254L22 9.25089Z" fill="white"/>
</svg>
