<svg width="44" height="44" viewBox="0 0 44 44" fill="none" xmlns="http://www.w3.org/2000/svg">
<path d="M12.88 0.25H31.12C33.4022 0.25 35.0985 0.250201 36.4415 0.361729C37.7814 0.473008 38.7472 0.693826 39.5726 1.12255C40.988 1.85783 42.1422 3.01196 42.8775 4.42745C43.3062 5.25277 43.527 6.21855 43.6383 7.55854C43.7498 8.90151 43.75 10.5978 43.75 12.88V31.12C43.75 33.4022 43.7498 35.0985 43.6383 36.4415C43.527 37.7814 43.3062 38.7472 42.8775 39.5726C42.1422 40.988 40.988 42.1422 39.5726 42.8775C38.7472 43.3062 37.7814 43.527 36.4415 43.6383C35.0985 43.7498 33.4022 43.75 31.12 43.75H12.88C10.5978 43.75 8.90151 43.7498 7.55854 43.6383C6.21855 43.527 5.25277 43.3062 4.42745 42.8775C3.01196 42.1422 1.85783 40.988 1.12255 39.5726C0.693826 38.7472 0.473008 37.7814 0.361729 36.4415C0.250201 35.0985 0.25 33.4022 0.25 31.12V12.88C0.25 10.5978 0.250201 8.90151 0.361729 7.55854C0.473008 6.21855 0.693826 5.25277 1.12255 4.42745C1.85783 3.01196 3.01196 1.85783 4.42745 1.12255C5.25277 0.693826 6.21855 0.473008 7.55854 0.361729C8.90151 0.250201 10.5978 0.25 12.88 0.25Z" stroke="#3F3F46" stroke-width="0.5"/>
<path d="M35.1191 30.0462C35.1235 29.3381 37.8308 29.3679 37.8124 28.7048C37.7991 28.1943 36.6008 28.2063 36.9774 27.1252C37.5315 25.5133 37.8333 23.783 37.8333 21.9837C37.8333 13.2479 30.7443 6.1665 22 6.1665C13.2556 6.1665 6.16663 13.2479 6.16663 21.9831C6.16663 23.7887 6.47032 25.5228 7.02889 27.1398C7.03206 27.1474 7.06313 27.2392 7.06313 27.2392C7.2882 27.9561 6.1698 28.2373 6.1698 28.6655C6.1698 29.3362 8.52517 29.2456 8.52517 30.0265C8.52517 30.7061 6.19642 30.9158 6.19642 31.6017C6.19642 32.5492 11.3542 32.2192 11.4195 33.0343C11.4702 33.6632 9.64612 33.7006 9.63597 34.3726C9.61822 35.4448 16.6755 35.0939 16.6755 35.8077C16.6755 36.3473 13.4654 36.1529 13.4654 36.7907C13.4654 37.4285 17.6912 37.8332 22.3468 37.8332C27.0024 37.8332 30.2156 37.3157 30.2156 36.7565C30.2156 36.1972 27.2186 36.3131 27.2794 35.8077C27.3885 34.9274 34.0406 35.3777 34.0406 34.3593C34.0406 33.8222 32.2108 33.6974 32.2704 33.1185C32.3541 32.3003 37.8333 32.4225 37.8333 31.5732C37.8333 30.9056 35.1191 30.7416 35.1222 30.0487L35.1191 30.0462ZM30.8737 27.9922C30.7291 28.5318 32.3966 28.6123 32.3966 29.176C32.3966 29.8619 27.3105 29.5883 27.3612 30.4952C27.3923 31.0665 30.9751 31.1628 30.9066 31.7594C30.8084 32.6233 25.359 32.192 25.3051 33.0191C25.2664 33.6259 27.9642 33.6468 27.9705 34.2003C27.9749 34.6658 25.8504 34.9204 21.7825 34.9204C17.1472 34.9204 14.8945 34.6709 15.1507 34.1503C15.3903 33.6639 19.4937 33.7544 19.4525 32.99C19.4106 32.2255 12.1657 32.4516 11.947 31.7106C11.765 31.095 14.3277 30.9683 14.3112 30.3838C14.2947 29.7871 11.0295 29.9227 10.9579 29.2013C10.9116 28.7269 12.664 28.758 12.588 28.162C12.5328 27.7275 11.8094 27.7889 11.3802 26.8947C10.6878 25.4 10.2992 23.7368 10.2992 21.9837C10.2992 15.5299 15.5355 10.2991 21.9962 10.2991C28.4568 10.2991 33.6932 15.5299 33.6932 21.9837C33.6932 23.5753 33.3742 25.0921 32.7967 26.4754C32.247 27.7186 31.01 27.4691 30.8699 27.9922H30.8737Z" fill="white"/>
</svg>
