<svg width="44" height="44" viewBox="0 0 44 44" fill="none" xmlns="http://www.w3.org/2000/svg">
<path d="M12.88 0.25H31.12C33.4022 0.25 35.0985 0.250201 36.4415 0.361729C37.7814 0.473008 38.7472 0.693826 39.5726 1.12255C40.988 1.85783 42.1422 3.01196 42.8775 4.42745C43.3062 5.25277 43.527 6.21855 43.6383 7.55854C43.7498 8.90151 43.75 10.5978 43.75 12.88V31.12C43.75 33.4022 43.7498 35.0985 43.6383 36.4415C43.527 37.7814 43.3062 38.7472 42.8775 39.5726C42.1422 40.988 40.988 42.1422 39.5726 42.8775C38.7472 43.3062 37.7814 43.527 36.4415 43.6383C35.0985 43.7498 33.4022 43.75 31.12 43.75H12.88C10.5978 43.75 8.90151 43.7498 7.55854 43.6383C6.21855 43.527 5.25277 43.3062 4.42745 42.8775C3.01196 42.1422 1.85783 40.988 1.12255 39.5726C0.693826 38.7472 0.473008 37.7814 0.361729 36.4415C0.250201 35.0985 0.25 33.4022 0.25 31.12V12.88C0.25 10.5978 0.250201 8.90151 0.361729 7.55854C0.473008 6.21855 0.693826 5.25277 1.12255 4.42745C1.85783 3.01196 3.01196 1.85783 4.42745 1.12255C5.25277 0.693826 6.21855 0.473008 7.55854 0.361729C8.90151 0.250201 10.5978 0.25 12.88 0.25Z" stroke="#3F3F46" stroke-width="0.5"/>
<path d="M34.3672 15.8153L34.418 15.7939C34.569 15.7292 34.6799 15.6939 34.7672 15.6828L34.8631 15.6666C35.0597 15.6261 35.2625 15.6059 35.4654 15.6059C36.6859 15.6059 37.7051 15.2256 38.4128 14.5063C38.922 13.9884 39.2424 13.3162 39.3545 12.5382L39.4166 12.539V8.06592H31.9625V11.3021C31.9445 11.5353 31.946 11.7499 31.9476 11.9398C31.9491 12.1484 31.9504 12.3455 31.9252 12.495L31.9181 12.5426C31.8339 13.1747 31.5285 13.7616 31.0582 14.195C30.5766 14.6391 30.3513 14.7367 30.277 14.7577C30.2023 14.7791 30.0937 14.7692 29.7799 14.7268C29.5094 14.6903 29.1387 14.6403 28.6865 14.6403C26.7547 14.6403 25.1357 16.0988 24.9201 18.0344C24.8721 18.4745 24.8993 18.8037 24.9189 19.0436C24.941 19.3105 24.9477 19.391 24.8552 19.6566C24.6721 20.1789 24.2819 20.6635 23.7571 21.0207C23.2322 21.378 22.6278 21.5752 22.0561 21.5752L22.0003 21.5744L21.9444 21.5752C21.3727 21.5752 20.7685 21.3785 20.2436 21.0207C19.7183 20.6635 19.3282 20.1789 19.1458 19.6579C19.0529 19.391 19.0592 19.3101 19.0817 19.0428C19.1014 18.8029 19.1284 18.4741 19.0805 18.0328C18.8655 16.0984 17.2463 14.6399 15.3146 14.6399C14.8624 14.6399 14.4916 14.6899 14.2191 14.7268C13.9077 14.7688 13.7988 14.7787 13.7241 14.7573C13.6498 14.7359 13.4245 14.6387 12.9428 14.1942C12.4726 13.7612 12.1675 13.1743 12.0829 12.5422L12.0759 12.4946C12.0637 12.422 12.0578 12.3383 12.055 12.2475V8.06592H4.59937V11.8573C4.59072 12.9252 4.93241 13.8413 5.58667 14.5067C6.29401 15.226 7.31316 15.6059 8.53361 15.6059C8.7365 15.6059 8.939 15.6265 9.13638 15.667L9.23193 15.6828C9.31882 15.6943 9.4297 15.7296 9.58185 15.7943L9.6318 15.8153C10.137 16.0167 10.5798 16.3542 10.912 16.7916C11.7298 17.867 11.7322 19.3719 10.9183 20.4505C10.6517 20.8042 10.3049 21.0993 9.91607 21.3043L9.88107 21.3234C9.77452 21.382 9.67936 21.4256 9.59208 21.4562C9.55316 21.4697 9.51816 21.4807 9.48553 21.4903L9.44857 21.5014C9.15447 21.5966 8.84659 21.6445 8.53401 21.6445C6.17095 21.6445 4.58325 23.1102 4.58325 25.2916C4.58325 26.9944 5.35311 27.8779 5.99873 28.3192C6.78668 28.8578 7.73702 29.0104 8.64686 29.0945L8.70977 29.1017C8.95118 29.1334 9.15485 29.1833 9.3888 29.2682L9.50164 29.3115L9.52092 29.3186C10.1335 29.5296 10.6466 29.9606 10.9663 30.5327C11.1467 30.856 11.2718 31.2792 11.3182 31.7236C11.3363 31.8985 11.3485 32.0678 11.3602 32.2352C11.3693 32.3625 11.3795 32.5053 11.3933 32.6488V35.933H18.8473V31.5475L18.7947 31.5467C18.6719 30.7033 18.2748 29.9308 17.6466 29.3309C17.5911 29.2786 17.5401 29.2341 17.4991 29.1988L17.4739 29.177C16.6718 28.4759 15.6287 28.4573 14.8668 28.4433H14.8584C14.7311 28.441 14.6104 28.4386 14.5038 28.4335L14.3894 28.4156L14.1444 28.3605L13.9136 28.2887L13.6647 28.1888C13.404 28.0694 13.1607 27.914 12.9448 27.7288L12.8964 27.6868C12.2068 27.0649 11.8647 26.2985 11.8506 25.344C11.8525 24.6619 12.0688 24.0155 12.4761 23.4742C12.8732 22.9468 13.4359 22.5542 14.0603 22.3686C14.6925 22.181 15.8717 22.1763 16.4403 22.3596C17.4763 22.693 18.2116 23.6519 18.2693 24.7456C18.2741 24.836 18.2706 24.9308 18.2666 25.0418C18.2548 25.3626 18.2387 25.8019 18.4223 26.3575C18.9417 27.9033 20.3785 28.9458 22.0015 28.9521C23.6203 28.9458 25.0565 27.9029 25.5772 26.3548C25.76 25.8024 25.7439 25.363 25.732 25.0407C25.7281 24.9308 25.7246 24.836 25.7293 24.746C25.7872 23.6523 26.5224 22.693 27.5584 22.3599C28.127 22.1768 29.3058 22.1815 29.9381 22.369C30.5628 22.555 31.1259 22.9476 31.5226 23.475C31.9299 24.0163 32.1462 24.6627 32.1481 25.3448C32.134 26.2992 31.7919 27.0658 31.1018 27.6879L31.0578 27.7265C30.8384 27.9144 30.5946 28.0702 30.3339 28.1896L30.0855 28.2895L29.8546 28.3613L29.6541 28.408L29.4953 28.4343C29.3891 28.4394 29.2681 28.4418 29.1406 28.4442H29.1324C28.3704 28.4581 27.3272 28.4767 26.5271 29.1762L26.4995 29.2004C26.4587 29.2357 26.408 29.2797 26.3513 29.3332C25.7462 29.911 25.3555 30.6521 25.219 31.4623H25.1521V35.9342H32.6062V32.65C32.6199 32.5069 32.6302 32.3637 32.6392 32.2363C32.651 32.0718 32.6632 31.9017 32.6813 31.7256C32.7277 31.2803 32.8527 30.8571 33.0332 30.534C33.3529 29.9622 33.866 29.5312 34.4786 29.3197L34.6107 29.2694C34.8446 29.1849 35.0483 29.135 35.29 29.1028L35.3526 29.0957C36.2624 29.0116 37.2128 28.8589 38.0008 28.3205C39.1709 27.521 39.4162 26.2326 39.4162 25.2928C39.4162 23.1114 37.8285 21.6457 35.4654 21.6457C35.1529 21.6457 34.845 21.5974 34.5509 21.5026L34.514 21.4914C34.4813 21.482 34.4464 21.4708 34.4097 21.4582C34.3201 21.4272 34.225 21.3832 34.116 21.3234L34.0834 21.3055C33.6945 21.1004 33.3477 20.8054 33.0808 20.4517C32.2669 19.3732 32.2692 17.8682 33.0871 16.7928C33.4193 16.3558 33.862 16.0179 34.3672 15.8169V15.8153Z" fill="white"/>
</svg>
