<svg width="44" height="44" viewBox="0 0 44 44" fill="none" xmlns="http://www.w3.org/2000/svg">
<path d="M0.25 12.88C0.25 10.5978 0.250201 8.90151 0.361729 7.55854C0.473008 6.21855 0.693826 5.25277 1.12255 4.42745C1.85783 3.01196 3.01196 1.85783 4.42745 1.12255C5.25277 0.693826 6.21855 0.473008 7.55854 0.361729C8.90151 0.250201 10.5978 0.25 12.88 0.25H31.12C33.4022 0.25 35.0985 0.250201 36.4415 0.361729C37.7814 0.473008 38.7472 0.693826 39.5726 1.12255C40.988 1.85783 42.1422 3.01196 42.8775 4.42745C43.3062 5.25277 43.527 6.21855 43.6383 7.55854C43.7498 8.90151 43.75 10.5978 43.75 12.88V31.12C43.75 33.4022 43.7498 35.0985 43.6383 36.4415C43.527 37.7814 43.3062 38.7472 42.8775 39.5726C42.1422 40.988 40.988 42.1422 39.5726 42.8775C38.7472 43.3062 37.7814 43.527 36.4415 43.6383C35.0985 43.7498 33.4022 43.75 31.12 43.75H12.88C10.5978 43.75 8.90151 43.7498 7.55854 43.6383C6.21855 43.527 5.25277 43.3062 4.42745 42.8775C3.01196 42.1422 1.85783 40.988 1.12255 39.5726C0.693826 38.7472 0.473008 37.7814 0.361729 36.4415C0.250201 35.0985 0.25 33.4022 0.25 31.12V12.88Z" stroke="#3F3F46" stroke-width="0.5"/>
<path d="M31.7343 8.99316H12.2657C8.68726 8.99316 6.42941 12.8485 8.21865 15.9797L20.2321 36.8115C21.0202 38.1748 22.9799 38.1748 23.768 36.8115L35.7814 15.9797C37.5707 12.8485 35.3128 8.99316 31.7343 8.99316ZM20.2108 30.5492L17.5908 25.4797L11.2859 14.1905C10.9877 13.658 11.1794 12.9976 11.6906 12.6781C11.861 12.5716 12.0527 12.529 12.2444 12.529H20.1895L20.2108 30.5492ZM32.6929 14.1905L26.3879 25.4797L23.768 30.5492V12.5503H31.7343C32.6077 12.529 33.1189 13.4663 32.6929 14.1905Z" fill="white"/>
</svg>
