<svg width="44" height="44" viewBox="0 0 44 44" fill="none" xmlns="http://www.w3.org/2000/svg">
<path d="M12.88 0.25H31.12C33.4022 0.25 35.0985 0.250201 36.4415 0.361729C37.7814 0.473008 38.7472 0.693826 39.5726 1.12255C40.988 1.85783 42.1422 3.01196 42.8775 4.42745C43.3062 5.25277 43.527 6.21855 43.6383 7.55854C43.7498 8.90151 43.75 10.5978 43.75 12.88V31.12C43.75 33.4022 43.7498 35.0985 43.6383 36.4415C43.527 37.7814 43.3062 38.7472 42.8775 39.5726C42.1422 40.988 40.988 42.1422 39.5726 42.8775C38.7472 43.3062 37.7814 43.527 36.4415 43.6383C35.0985 43.7498 33.4022 43.75 31.12 43.75H12.88C10.5978 43.75 8.90151 43.7498 7.55854 43.6383C6.21855 43.527 5.25277 43.3062 4.42745 42.8775C3.01196 42.1422 1.85783 40.988 1.12255 39.5726C0.693826 38.7472 0.473008 37.7814 0.361729 36.4415C0.250201 35.0985 0.25 33.4022 0.25 31.12V12.88C0.25 10.5978 0.250201 8.90151 0.361729 7.55854C0.473008 6.21855 0.693826 5.25277 1.12255 4.42745C1.85783 3.01196 3.01196 1.85783 4.42745 1.12255C5.25277 0.693826 6.21855 0.473008 7.55854 0.361729C8.90151 0.250201 10.5978 0.25 12.88 0.25Z" stroke="#D9D9D9" stroke-width="0.5"/>
<path d="M30.7227 16.7604H27.9178C27.7558 16.7608 27.5957 16.7265 27.4481 16.66C27.3006 16.5935 27.1692 16.4962 27.0628 16.3748L25.9247 15.0955C25.7655 14.9201 25.5434 14.8141 25.3062 14.8004C25.0692 14.7866 24.8361 14.8663 24.6575 15.0221L24.5899 15.0955L23.6119 16.1912C23.4577 16.3657 23.2686 16.5064 23.0567 16.6044C22.8451 16.7024 22.6152 16.7555 22.3816 16.7604H7.00332C6.56212 18.0225 6.2811 19.3343 6.16675 20.6657H20.6592C20.7856 20.6657 20.9108 20.6402 21.0272 20.5908C21.1434 20.5414 21.2484 20.4689 21.3358 20.378L22.6829 18.9763C22.8443 18.8085 23.0648 18.7097 23.298 18.7008H23.3535C23.4798 18.7032 23.6043 18.7309 23.7195 18.7825C23.8348 18.834 23.9384 18.9082 24.024 19.0007L25.162 20.28C25.2685 20.4015 25.3999 20.4987 25.5473 20.5652C25.6949 20.6317 25.855 20.666 26.017 20.6657H37.8336C37.7253 19.3335 37.4441 18.0207 36.997 16.7604H30.7227Z" fill="black"/>
<path d="M14.9397 28.88C15.065 28.8786 15.1888 28.8525 15.3039 28.8031C15.419 28.7537 15.5231 28.6821 15.6102 28.5923L16.9573 27.1906C17.1197 27.0243 17.3397 26.9258 17.5724 26.9152H17.6278C17.7545 26.9152 17.8797 26.942 17.9953 26.9938C18.1109 27.0454 18.2141 27.1209 18.2984 27.2151L19.4302 28.4945C19.5391 28.6129 19.671 28.7081 19.8179 28.7744C19.9648 28.8407 20.1238 28.8767 20.2852 28.88H36.3094C36.9196 27.6296 37.3601 26.3041 37.6196 24.9381H22.2414C22.0807 24.9391 21.9219 24.9057 21.7754 24.8403C21.6289 24.7747 21.4983 24.6788 21.3924 24.5586L20.2544 23.2792C20.1707 23.1854 20.0679 23.1101 19.953 23.0587C19.8379 23.0071 19.7131 22.9805 19.5871 22.9805C19.4609 22.9805 19.3361 23.0071 19.2212 23.0587C19.106 23.1101 19.0033 23.1854 18.9195 23.2792L17.9477 24.3749C17.7885 24.5526 17.5933 24.6948 17.3748 24.7918C17.1564 24.8889 16.9197 24.9387 16.6805 24.9381H6.3894C6.64784 26.3063 7.08847 27.6339 7.69964 28.8862L14.9397 28.88Z" fill="black"/>
<path d="M26.3047 12.4879C26.4311 12.488 26.5563 12.4625 26.6727 12.4131C26.7889 12.3636 26.8939 12.2912 26.9813 12.2002L28.3284 10.8046C28.4111 10.7162 28.511 10.6456 28.622 10.5971C28.7331 10.5487 28.853 10.5235 28.9744 10.5231H29.0297C29.1562 10.5224 29.2814 10.5494 29.3962 10.6023C29.511 10.6552 29.6127 10.7327 29.694 10.8291L30.832 12.1084C30.9412 12.226 31.0735 12.3203 31.2204 12.3856C31.3673 12.4508 31.5261 12.4856 31.687 12.4879H34.7626C32.2306 9.13259 28.4627 6.91555 24.288 6.32439C20.1132 5.73322 15.8735 6.81635 12.5012 9.33556C11.3027 10.2343 10.2364 11.2953 9.33325 12.4879H26.3047Z" fill="black"/>
<path d="M20.1841 32.7912H16.0196C15.8586 32.7915 15.6994 32.7572 15.5529 32.6907C15.4064 32.6242 15.276 32.527 15.1707 32.4057L14.0389 31.1263C13.8786 30.9501 13.6548 30.844 13.4162 30.8314C13.1776 30.8187 12.9437 30.9005 12.7656 31.059L12.6917 31.1263L11.7137 32.2404C11.5599 32.4155 11.3711 32.5566 11.1592 32.6547C10.9473 32.7527 10.7171 32.8055 10.4834 32.8096H10.4158C13.2855 35.8677 17.2557 37.6701 21.4576 37.8226C25.6595 37.9752 29.7511 36.4655 32.8372 33.6237C33.1078 33.3728 33.3724 33.1096 33.6246 32.8403L20.1841 32.7912Z" fill="black"/>
</svg>
