<svg width="44" height="44" viewBox="0 0 44 44" fill="none" xmlns="http://www.w3.org/2000/svg">
<path d="M0.25 12.88C0.25 10.5978 0.250201 8.90151 0.361729 7.55854C0.473008 6.21855 0.693826 5.25277 1.12255 4.42745C1.85783 3.01196 3.01196 1.85783 4.42745 1.12255C5.25277 0.693826 6.21855 0.473008 7.55854 0.361729C8.90151 0.250201 10.5978 0.25 12.88 0.25H31.12C33.4022 0.25 35.0985 0.250201 36.4415 0.361729C37.7814 0.473008 38.7472 0.693826 39.5726 1.12255C40.988 1.85783 42.1422 3.01196 42.8775 4.42745C43.3062 5.25277 43.527 6.21855 43.6383 7.55854C43.7498 8.90151 43.75 10.5978 43.75 12.88V31.12C43.75 33.4022 43.7498 35.0985 43.6383 36.4415C43.527 37.7814 43.3062 38.7472 42.8775 39.5726C42.1422 40.988 40.988 42.1422 39.5726 42.8775C38.7472 43.3062 37.7814 43.527 36.4415 43.6383C35.0985 43.7498 33.4022 43.75 31.12 43.75H12.88C10.5978 43.75 8.90151 43.7498 7.55854 43.6383C6.21855 43.527 5.25277 43.3062 4.42745 42.8775C3.01196 42.1422 1.85783 40.988 1.12255 39.5726C0.693826 38.7472 0.473008 37.7814 0.361729 36.4415C0.250201 35.0985 0.25 33.4022 0.25 31.12V12.88Z" stroke="#D9D9D9" stroke-width="0.5"/>
<path d="M37.7962 20.9254C37.2028 12.2014 29.6495 5.61022 20.9255 6.20363C16.5796 6.49923 12.7637 8.5227 10.1008 11.557L10.1008 11.5569L10.0934 11.5516C10.0755 11.5764 10.0587 11.6009 10.0409 11.6257C7.39582 14.6748 5.90817 18.729 6.20373 23.0743C6.2319 23.4883 6.28064 23.8958 6.33953 24.2997C6.33955 24.2998 6.33955 24.2999 6.33957 24.3C6.34222 24.3183 6.34492 24.3365 6.34749 24.3547C6.3873 24.6212 6.43353 24.8853 6.48628 25.1469C6.48631 25.1471 6.48633 25.1472 6.48636 25.1474C6.48733 25.1521 6.48824 25.1569 6.48917 25.1617C6.53719 25.3987 6.59054 25.6334 6.6489 25.8662L6.64901 25.8667C6.64906 25.8669 6.64911 25.867 6.64915 25.8672C8.47772 33.1595 15.3101 38.3242 23.0744 37.7961C31.7984 37.2026 38.3896 29.6494 37.7962 20.9254H37.7962ZM34.3497 21.1598C34.4228 22.2339 34.3552 23.2855 34.1639 24.2972C34.1616 24.2914 34.1597 24.2854 34.1574 24.2796V24.2796C33.0095 21.4738 30.7389 19.4481 28.7421 18.3291C29.1463 13.5749 27.5334 11.572 25.708 11.2461C25.6584 11.2365 25.6084 11.2284 25.5576 11.2221C24.1088 11.0363 22.7839 12.0604 22.5983 13.5091C22.4125 14.9579 23.4366 16.2828 24.8853 16.4687C25.0117 16.4847 25.1367 16.4891 25.2605 16.4872C25.2685 16.6477 25.2736 16.8181 25.275 16.9964C23.587 16.5781 22.0093 16.4963 20.5707 16.6256C20.0328 16.6615 19.4945 16.7293 18.9591 16.8293C19.1386 15.2239 19.741 13.4216 20.9096 12.1026C22.0395 10.8276 23.7191 10.0968 25.5515 10.2843C25.8988 10.3199 26.2695 10.4052 26.6032 10.5172C26.6185 10.5224 26.6348 10.5267 26.6499 10.532C26.6502 10.5317 26.6505 10.5313 26.6507 10.531C30.8948 12.26 34.0183 16.2879 34.3497 21.1598V21.1598ZM23.3141 23.5782C23.3129 23.5799 23.3117 23.5816 23.3106 23.5834C22.9328 24.1282 22.4834 24.6655 21.956 25.1851C21.1653 24.3439 20.5302 23.4379 20.0482 22.5007C20.0235 22.4505 19.9972 22.4027 19.9731 22.3517C19.9721 22.3498 19.9713 22.3479 19.9704 22.3461C19.6873 21.7462 19.4466 21.0882 19.2602 20.3713C20.3853 20.1066 21.4887 20.0092 22.5424 20.0605C22.5982 20.0642 22.6528 20.0653 22.7091 20.07C22.7111 20.0701 22.7132 20.0703 22.7153 20.0704C23.3753 20.1251 24.0644 20.2454 24.7772 20.4419C24.4439 21.5482 23.9766 22.552 23.4056 23.4386C23.3744 23.4851 23.3462 23.5318 23.3141 23.5782V23.5782ZM17.9038 10.3211C17.9009 10.3249 17.8975 10.3285 17.8946 10.3323L17.8945 10.3323C16.0395 12.7281 15.4202 15.7055 15.4489 17.9938C11.1298 20.0209 10.2017 22.4191 10.8322 24.1628C10.8487 24.2106 10.8667 24.2579 10.8866 24.305C11.4501 25.6526 12.9994 26.288 14.3468 25.7244C15.6944 25.1609 16.3298 23.6115 15.7665 22.264C15.7171 22.1465 15.6585 22.0361 15.5949 21.9298C15.7314 21.8416 15.878 21.751 16.0336 21.6596C16.5153 23.3308 17.228 24.7444 18.0593 25.9257C18.3588 26.3728 18.686 26.8042 19.0395 27.2171C17.5593 27.8645 15.6968 28.2443 13.9698 27.8916C12.3007 27.5507 10.828 26.4614 10.0742 24.7808C9.93136 24.4623 9.81995 24.0987 9.75012 23.7537C9.70716 23.4523 9.67116 23.1484 9.65018 22.8399C9.26438 17.1682 12.7831 12.119 17.9038 10.3211V10.3211ZM22.84 34.3496C19.472 34.5787 16.3237 33.4299 13.9443 31.3879C16.9466 31.7965 19.8347 30.8441 21.8022 29.6751C25.7189 32.4042 28.2608 32.0091 29.456 30.5909C29.4891 30.5527 29.5211 30.5135 29.552 30.4727C30.4373 29.3109 30.2129 27.6514 29.051 26.7664C27.8893 25.8811 26.2298 26.1055 25.3445 27.2671C25.2674 27.3686 25.2011 27.4746 25.1408 27.5828C24.9972 27.5092 24.8464 27.428 24.6905 27.3396C25.898 26.0863 26.7585 24.7599 27.3661 23.4485C27.6041 22.9647 27.8145 22.4646 27.9956 21.9509C29.2971 22.9091 30.5584 24.3327 31.1167 26.0056C31.656 27.6216 31.4491 29.4416 30.3705 30.9347C30.166 31.2177 29.9068 31.4961 29.643 31.729C29.6391 31.7324 29.6354 31.7359 29.6316 31.7394C27.7446 33.2225 25.4098 34.1748 22.84 34.3496V34.3496Z" fill="black"/>
</svg>
