<svg width="44" height="44" viewBox="0 0 44 44" fill="none" xmlns="http://www.w3.org/2000/svg">
<path d="M12.88 0.25H31.12C33.4022 0.25 35.0985 0.250201 36.4415 0.361729C37.7814 0.473008 38.7472 0.693826 39.5726 1.12255C40.988 1.85783 42.1422 3.01196 42.8775 4.42745C43.3062 5.25277 43.527 6.21855 43.6383 7.55854C43.7498 8.90151 43.75 10.5978 43.75 12.88V31.12C43.75 33.4022 43.7498 35.0985 43.6383 36.4415C43.527 37.7814 43.3062 38.7472 42.8775 39.5726C42.1422 40.988 40.988 42.1422 39.5726 42.8775C38.7472 43.3062 37.7814 43.527 36.4415 43.6383C35.0985 43.7498 33.4022 43.75 31.12 43.75H12.88C10.5978 43.75 8.90151 43.7498 7.55854 43.6383C6.21855 43.527 5.25277 43.3062 4.42745 42.8775C3.01196 42.1422 1.85783 40.988 1.12255 39.5726C0.693826 38.7472 0.473008 37.7814 0.361729 36.4415C0.250201 35.0985 0.25 33.4022 0.25 31.12V12.88C0.25 10.5978 0.250201 8.90151 0.361729 7.55854C0.473008 6.21855 0.693826 5.25277 1.12255 4.42745C1.85783 3.01196 3.01196 1.85783 4.42745 1.12255C5.25277 0.693826 6.21855 0.473008 7.55854 0.361729C8.90151 0.250201 10.5978 0.25 12.88 0.25Z" stroke="#D9D9D9" stroke-width="0.5"/>
<path fill-rule="evenodd" clip-rule="evenodd" d="M12.6844 11.391H8.72051L6.16675 32.6205H9.35342L9.73092 28.0015H11.5075L11.885 32.6205H15.2382L12.6844 11.391ZM9.95299 25.1813L10.2972 20.8177L10.5526 17.1425H10.6414L10.8968 20.8177L11.2743 25.1813H9.95299ZM18.8468 32.6094H22.2555V24.6039H23.3214C25.7641 24.6039 27.252 23.1716 27.252 20.6178V15.3993C27.252 12.8233 25.7641 11.3799 23.3214 11.3799H18.8468V32.6094ZM23.0438 22.0613H22.2999V13.9448H23.0438C23.6212 13.9448 23.8432 14.4555 23.8432 15.4104V20.6289C23.8432 21.5505 23.6101 22.0613 23.0438 22.0613ZM31.1825 11.391V32.6205H37.8334V29.8114H34.5912V23.3048H37.4892V20.4957H34.5912V14.2112H37.8334V11.4021H31.1825V11.391Z" fill="black"/>
</svg>
