<svg width="44" height="44" viewBox="0 0 44 44" fill="none" xmlns="http://www.w3.org/2000/svg">
<path d="M0.25 12.88C0.25 10.5978 0.250201 8.90151 0.361729 7.55854C0.473008 6.21855 0.693826 5.25277 1.12255 4.42745C1.85783 3.01196 3.01196 1.85783 4.42745 1.12255C5.25277 0.693826 6.21855 0.473008 7.55854 0.361729C8.90151 0.250201 10.5978 0.25 12.88 0.25H31.12C33.4022 0.25 35.0985 0.250201 36.4415 0.361729C37.7814 0.473008 38.7472 0.693826 39.5726 1.12255C40.988 1.85783 42.1422 3.01196 42.8775 4.42745C43.3062 5.25277 43.527 6.21855 43.6383 7.55854C43.7498 8.90151 43.75 10.5978 43.75 12.88V31.12C43.75 33.4022 43.7498 35.0985 43.6383 36.4415C43.527 37.7814 43.3062 38.7472 42.8775 39.5726C42.1422 40.988 40.988 42.1422 39.5726 42.8775C38.7472 43.3062 37.7814 43.527 36.4415 43.6383C35.0985 43.7498 33.4022 43.75 31.12 43.75H12.88C10.5978 43.75 8.90151 43.7498 7.55854 43.6383C6.21855 43.527 5.25277 43.3062 4.42745 42.8775C3.01196 42.1422 1.85783 40.988 1.12255 39.5726C0.693826 38.7472 0.473008 37.7814 0.361729 36.4415C0.250201 35.0985 0.25 33.4022 0.25 31.12V12.88Z" stroke="#D9D9D9" stroke-width="0.5"/>
<path d="M14.6971 37.8338L6.49841 33.0869V23.6L14.6971 18.853L22.8957 23.6V33.0869L14.6971 37.8338ZM8.29777 32.0507L14.7041 35.7544L21.1103 32.0507V24.6292L14.7041 20.9254L8.29777 24.6292V32.0507Z" fill="black"/>
<path d="M29.3029 37.8338L21.1042 33.0869V23.6L29.3029 18.853L37.5015 23.6V33.0869L29.3029 37.8338ZM22.8966 32.0507L29.3029 35.7544L35.7092 32.0507V24.6292L29.3029 20.9254L22.8966 24.6292V32.0507Z" fill="black"/>
<path d="M22.9035 23.9985H21.1041V32.4492H22.9035V23.9985Z" fill="black"/>
<path d="M22.0064 25.1473L13.8077 20.4003V10.9135L22.0064 6.1665L30.205 10.9135V20.4003L22.0064 25.1473ZM15.6001 19.3641L22.0064 23.0679L28.4127 19.3571V11.9427L22.0064 8.23192L15.6001 11.9357V19.3571V19.3641Z" fill="black"/>
<path d="M22.0068 25.1545L14.2562 20.6666L15.1524 19.1123L22.0068 23.0751L28.8611 19.1123L29.7573 20.6666L22.0068 25.1545Z" fill="black"/>
<path d="M22.0064 33.6087L13.8077 28.8618V19.3749L22.0064 14.6279L30.205 19.3749V28.8618L22.0064 33.6087ZM15.6001 27.8326L22.0064 31.5363L28.4127 27.8256V20.4111L22.0064 16.7003L15.6001 20.4041V27.8256V27.8326Z" fill="black"/>
<path d="M22.0207 25.9186C23.1807 25.9186 24.1211 24.9782 24.1211 23.8182C24.1211 22.6582 23.1807 21.7178 22.0207 21.7178C20.8607 21.7178 19.9203 22.6582 19.9203 23.8182C19.9203 24.9782 20.8607 25.9186 22.0207 25.9186Z" fill="black"/>
</svg>
