<svg width="44" height="44" viewBox="0 0 44 44" fill="none" xmlns="http://www.w3.org/2000/svg">
<path d="M0.25 12.88C0.25 10.5978 0.250201 8.90151 0.361729 7.55854C0.473008 6.21855 0.693826 5.25277 1.12255 4.42745C1.85783 3.01196 3.01196 1.85783 4.42745 1.12255C5.25277 0.693826 6.21855 0.473008 7.55854 0.361729C8.90151 0.250201 10.5978 0.25 12.88 0.25H31.12C33.4022 0.25 35.0985 0.250201 36.4415 0.361729C37.7814 0.473008 38.7472 0.693826 39.5726 1.12255C40.988 1.85783 42.1422 3.01196 42.8775 4.42745C43.3062 5.25277 43.527 6.21855 43.6383 7.55854C43.7498 8.90151 43.75 10.5978 43.75 12.88V31.12C43.75 33.4022 43.7498 35.0985 43.6383 36.4415C43.527 37.7814 43.3062 38.7472 42.8775 39.5726C42.1422 40.988 40.988 42.1422 39.5726 42.8775C38.7472 43.3062 37.7814 43.527 36.4415 43.6383C35.0985 43.7498 33.4022 43.75 31.12 43.75H12.88C10.5978 43.75 8.90151 43.7498 7.55854 43.6383C6.21855 43.527 5.25277 43.3062 4.42745 42.8775C3.01196 42.1422 1.85783 40.988 1.12255 39.5726C0.693826 38.7472 0.473008 37.7814 0.361729 36.4415C0.250201 35.0985 0.25 33.4022 0.25 31.12V12.88Z" stroke="#D9D9D9" stroke-width="0.5"/>
<path d="M16.747 9.13745L21.7841 6.22857C21.9275 6.14581 22.1055 6.14581 22.2489 6.22857L35.5244 13.8932C35.6678 13.9759 35.7561 14.129 35.7575 14.2945L35.7754 19.5661C35.7754 19.733 35.6871 19.8876 35.5422 19.9703L30.5121 22.8749C30.2031 23.0544 29.8156 22.8308 29.8142 22.4737L29.7976 17.7427C29.7976 17.5772 29.708 17.4241 29.5646 17.3414L16.747 9.94294C16.4366 9.76364 16.4366 9.31676 16.747 9.13745Z" fill="black"/>
<path d="M13.4933 33.0154L8.45758 30.1079C8.31276 30.0251 8.22449 29.872 8.22449 29.705V14.3759C8.22449 14.2104 8.31276 14.0573 8.4562 13.9731L13.0133 11.3208C13.1581 11.2366 13.3361 11.2366 13.4795 11.3208L18.5097 14.2255C18.8187 14.4048 18.82 14.8503 18.5111 15.031L14.4229 17.4103C14.2795 17.493 14.1912 17.6461 14.1912 17.813V32.614C14.1912 32.9726 13.8036 33.1947 13.4933 33.0154Z" fill="black"/>
<path d="M35.7755 23.8887V29.7037C35.7755 29.8707 35.6873 30.0237 35.5424 30.1064L22.2669 37.7711C22.1235 37.8539 21.9469 37.8539 21.8035 37.7711L17.2284 35.1505C17.0836 35.0677 16.994 34.9132 16.994 34.7463V28.9382C16.994 28.5811 17.3802 28.3575 17.6905 28.5341L21.7952 30.8857C21.9387 30.9686 22.1152 30.9672 22.2586 30.8857L35.0762 23.4846C35.3865 23.3054 35.7741 23.5288 35.7741 23.8874L35.7755 23.8887Z" fill="black"/>
</svg>
