<svg width="44" height="44" viewBox="0 0 44 44" fill="none" xmlns="http://www.w3.org/2000/svg">
<path d="M0.25 12.88C0.25 10.5978 0.250201 8.90151 0.361729 7.55854C0.473008 6.21855 0.693826 5.25277 1.12255 4.42745C1.85783 3.01196 3.01196 1.85783 4.42745 1.12255C5.25277 0.693826 6.21855 0.473008 7.55854 0.361729C8.90151 0.250201 10.5978 0.25 12.88 0.25H31.12C33.4022 0.25 35.0985 0.250201 36.4415 0.361729C37.7814 0.473008 38.7472 0.693826 39.5726 1.12255C40.988 1.85783 42.1422 3.01196 42.8775 4.42745C43.3062 5.25277 43.527 6.21855 43.6383 7.55854C43.7498 8.90151 43.75 10.5978 43.75 12.88V31.12C43.75 33.4022 43.7498 35.0985 43.6383 36.4415C43.527 37.7814 43.3062 38.7472 42.8775 39.5726C42.1422 40.988 40.988 42.1422 39.5726 42.8775C38.7472 43.3062 37.7814 43.527 36.4415 43.6383C35.0985 43.7498 33.4022 43.75 31.12 43.75H12.88C10.5978 43.75 8.90151 43.7498 7.55854 43.6383C6.21855 43.527 5.25277 43.3062 4.42745 42.8775C3.01196 42.1422 1.85783 40.988 1.12255 39.5726C0.693826 38.7472 0.473008 37.7814 0.361729 36.4415C0.250201 35.0985 0.25 33.4022 0.25 31.12V12.88Z" stroke="#D9D9D9" stroke-width="0.5"/>
<g clip-path="url(#clip0_7150_57669)">
<mask id="mask0_7150_57669" style="mask-type:luminance" maskUnits="userSpaceOnUse" x="6" y="6" width="32" height="32">
<path d="M37.8333 6.1665H6.16663V37.8332H37.8333V6.1665Z" fill="white"/>
</mask>
<g mask="url(#mask0_7150_57669)">
<path d="M10.11 18.415C8.89799 17.2712 8.04443 15.786 8.04443 14.0107V13.8229C8.14687 10.8184 10.6222 8.39431 13.6267 8.29187H32.7804C33.2754 8.30894 33.6851 8.66744 33.6851 9.17956V25.3799C34.1289 25.4653 34.3338 25.5165 34.7606 25.6701C35.085 25.7896 35.5629 26.0629 35.5629 26.0629V9.17956C35.5288 7.64317 34.3167 6.41406 32.7804 6.41406H13.6267C9.49547 6.48235 6.16663 9.8624 6.16663 14.0107C6.16663 16.4177 7.25917 18.4833 9.0687 19.9344C9.18819 20.0368 9.30769 20.1563 9.63205 20.1563C10.1954 20.1563 10.588 19.7123 10.571 19.2173C10.5539 18.8076 10.3832 18.654 10.11 18.415Z" fill="black"/>
<path d="M32.3023 26.4726H17.2797C16.2725 26.4726 15.4531 27.309 15.4531 28.3162V30.4671C15.4873 31.4572 16.3408 32.3279 17.3309 32.3279H18.4406V30.4671H17.3309V28.3503C17.3309 28.3503 17.6041 28.3503 17.9455 28.3503C19.8403 28.3503 21.2402 30.1087 21.2402 32.0036C21.2402 33.6765 19.7208 35.8104 17.1773 35.6397C14.9068 35.4861 13.6948 33.4716 13.6948 32.0036V13.6863C13.6948 12.8669 13.029 12.1841 12.1926 12.1841H10.6903V14.0619H11.7999V32.0036C11.7487 35.6568 14.3947 37.5004 17.1602 37.5004L32.3023 37.5516C35.358 37.5516 37.8332 35.0764 37.8332 32.0207C37.8332 28.9648 35.358 26.4726 32.3023 26.4726ZM35.9384 32.1231C35.8701 34.0862 34.2654 35.6568 32.3023 35.6568L21.7694 35.6226C22.6058 34.6495 23.118 33.3863 23.118 32.0207C23.118 29.8526 21.8206 28.3674 21.8206 28.3674H32.3023C34.3166 28.3674 35.9384 30.0062 35.9384 32.0207V32.1231Z" fill="black"/>
<path d="M28.3761 14.3861H16.9385V12.5254H28.3761C28.837 12.5254 29.1955 12.901 29.1955 13.3448V13.5667C29.1955 14.0276 28.8199 14.3861 28.3761 14.3861Z" fill="black"/>
<path d="M28.3761 23.2119H16.9385V21.3511H28.3761C28.837 21.3511 29.1955 21.7266 29.1955 22.1704V22.3924C29.1955 22.8363 28.8199 23.2119 28.3761 23.2119Z" fill="black"/>
<path d="M30.356 18.8075H16.9211V16.9468H30.356C30.8169 16.9468 31.1754 17.3223 31.1754 17.7662V17.9881C31.1925 18.432 30.8169 18.8075 30.356 18.8075Z" fill="black"/>
</g>
</g>
<defs>
<clipPath id="clip0_7150_57669">
<rect width="31.6667" height="31.6667" fill="white" transform="translate(6.16663 6.1665)"/>
</clipPath>
</defs>
</svg>
