<svg width="44" height="44" viewBox="0 0 44 44" fill="none" xmlns="http://www.w3.org/2000/svg">
<path d="M0.25 12.88C0.25 10.5978 0.250201 8.90151 0.361729 7.55854C0.473008 6.21855 0.693826 5.25277 1.12255 4.42745C1.85783 3.01196 3.01196 1.85783 4.42745 1.12255C5.25277 0.693826 6.21855 0.473008 7.55854 0.361729C8.90151 0.250201 10.5978 0.25 12.88 0.25H31.12C33.4022 0.25 35.0985 0.250201 36.4415 0.361729C37.7814 0.473008 38.7472 0.693826 39.5726 1.12255C40.988 1.85783 42.1422 3.01196 42.8775 4.42745C43.3062 5.25277 43.527 6.21855 43.6383 7.55854C43.7498 8.90151 43.75 10.5978 43.75 12.88V31.12C43.75 33.4022 43.7498 35.0985 43.6383 36.4415C43.527 37.7814 43.3062 38.7472 42.8775 39.5726C42.1422 40.988 40.988 42.1422 39.5726 42.8775C38.7472 43.3062 37.7814 43.527 36.4415 43.6383C35.0985 43.7498 33.4022 43.75 31.12 43.75H12.88C10.5978 43.75 8.90151 43.7498 7.55854 43.6383C6.21855 43.527 5.25277 43.3062 4.42745 42.8775C3.01196 42.1422 1.85783 40.988 1.12255 39.5726C0.693826 38.7472 0.473008 37.7814 0.361729 36.4415C0.250201 35.0985 0.25 33.4022 0.25 31.12V12.88Z" stroke="#D9D9D9" stroke-width="0.5"/>
<path d="M21.9998 8.58567C23.3407 8.58567 24.5467 9.3308 25.1468 10.5303L35.0424 30.3223C35.5916 31.4213 35.5342 32.7005 34.8888 33.7457C34.2428 34.7909 33.1243 35.4147 31.8954 35.4147H12.1042C10.8759 35.4147 9.75678 34.7909 9.11143 33.7457C8.46536 32.7005 8.40794 31.4213 8.95781 30.3223L18.8527 10.5303C19.4528 9.3308 20.6588 8.58567 21.9998 8.58567ZM21.9998 6.1665C19.7507 6.1665 17.6948 7.4371 16.6891 9.44853L6.79348 29.2405C5.8732 31.081 5.97154 33.2669 7.05335 35.017C8.13515 36.7672 10.0461 37.8332 12.1042 37.8332H31.8961C33.9542 37.8332 35.8651 36.7679 36.9469 35.017C38.0287 33.2669 38.1271 31.081 37.2068 29.2405L27.3105 9.44853C26.3047 7.4371 24.2488 6.1665 21.9998 6.1665Z" fill="black"/>
</svg>
