<svg width="44" height="44" viewBox="0 0 44 44" fill="none" xmlns="http://www.w3.org/2000/svg">
<path d="M0.25 12.88C0.25 10.5978 0.250201 8.90151 0.361729 7.55854C0.473008 6.21855 0.693826 5.25277 1.12255 4.42745C1.85783 3.01196 3.01196 1.85783 4.42745 1.12255C5.25277 0.693826 6.21855 0.473008 7.55854 0.361729C8.90151 0.250201 10.5978 0.25 12.88 0.25H31.12C33.4022 0.25 35.0985 0.250201 36.4415 0.361729C37.7814 0.473008 38.7472 0.693826 39.5726 1.12255C40.988 1.85783 42.1422 3.01196 42.8775 4.42745C43.3062 5.25277 43.527 6.21855 43.6383 7.55854C43.7498 8.90151 43.75 10.5978 43.75 12.88V31.12C43.75 33.4022 43.7498 35.0985 43.6383 36.4415C43.527 37.7814 43.3062 38.7472 42.8775 39.5726C42.1422 40.988 40.988 42.1422 39.5726 42.8775C38.7472 43.3062 37.7814 43.527 36.4415 43.6383C35.0985 43.7498 33.4022 43.75 31.12 43.75H12.88C10.5978 43.75 8.90151 43.7498 7.55854 43.6383C6.21855 43.527 5.25277 43.3062 4.42745 42.8775C3.01196 42.1422 1.85783 40.988 1.12255 39.5726C0.693826 38.7472 0.473008 37.7814 0.361729 36.4415C0.250201 35.0985 0.25 33.4022 0.25 31.12V12.88Z" stroke="#D9D9D9" stroke-width="0.5"/>
<path d="M30.2774 25.2377C31.0905 23.8858 32.4021 23.8858 33.2153 25.2377L38.2779 33.7951C39.091 35.1469 38.4259 36.25 36.7997 36.25H26.6006C24.993 36.25 24.3279 35.1469 25.1224 33.7951L30.2774 25.2377ZM20.4846 8.76386C21.2977 7.41205 22.5908 7.41205 23.4039 8.76386L24.531 10.7209L27.1915 15.2217C27.838 16.5026 27.838 18.0148 27.1915 19.2956L18.2675 34.1862C17.4544 35.3961 16.1056 36.1611 14.6094 36.25H7.2002C5.57454 36.25 4.90885 35.1647 5.72196 33.7951L20.4846 8.76386Z" fill="black"/>
</svg>
