<svg width="44" height="44" viewBox="0 0 44 44" fill="none" xmlns="http://www.w3.org/2000/svg">
<path d="M0.25 12.88C0.25 10.5978 0.250201 8.90151 0.361729 7.55854C0.473008 6.21855 0.693826 5.25277 1.12255 4.42745C1.85783 3.01196 3.01196 1.85783 4.42745 1.12255C5.25277 0.693826 6.21855 0.473008 7.55854 0.361729C8.90151 0.250201 10.5978 0.25 12.88 0.25H31.12C33.4022 0.25 35.0985 0.250201 36.4415 0.361729C37.7814 0.473008 38.7472 0.693826 39.5726 1.12255C40.988 1.85783 42.1422 3.01196 42.8775 4.42745C43.3062 5.25277 43.527 6.21855 43.6383 7.55854C43.7498 8.90151 43.75 10.5978 43.75 12.88V31.12C43.75 33.4022 43.7498 35.0985 43.6383 36.4415C43.527 37.7814 43.3062 38.7472 42.8775 39.5726C42.1422 40.988 40.988 42.1422 39.5726 42.8775C38.7472 43.3062 37.7814 43.527 36.4415 43.6383C35.0985 43.7498 33.4022 43.75 31.12 43.75H12.88C10.5978 43.75 8.90151 43.7498 7.55854 43.6383C6.21855 43.527 5.25277 43.3062 4.42745 42.8775C3.01196 42.1422 1.85783 40.988 1.12255 39.5726C0.693826 38.7472 0.473008 37.7814 0.361729 36.4415C0.250201 35.0985 0.25 33.4022 0.25 31.12V12.88Z" stroke="#D9D9D9" stroke-width="0.5"/>
<path d="M36.2259 15.7007H19.6245C16.6104 15.7007 14.1671 18.144 14.1671 21.1581V28.3514H24.3487C24.512 28.3514 24.6737 28.3442 24.8333 28.3302C25.0259 28.2196 25.0114 27.9397 24.9316 27.8603L18.6571 21.5542C18.0863 20.9805 18.5252 19.9667 19.3344 19.9667H32.2317V22.8939C32.2317 27.2476 28.7023 30.7769 24.3487 30.7769H7.75V34.4346H25.3351C31.3632 34.4346 36.25 29.5478 36.25 23.5197L36.2259 15.7007Z" fill="black"/>
<path d="M18.6649 9.56543C12.6368 9.56543 7.75 14.4522 7.75 20.4803V28.344H11.7415V21.1507C11.7415 16.797 15.2709 13.2677 19.6245 13.2677H36.2259L36.25 9.56543H18.6649Z" fill="black"/>
</svg>
