<svg width="44" height="44" viewBox="0 0 44 44" fill="none" xmlns="http://www.w3.org/2000/svg">
<path d="M0.25 12.88C0.25 10.5978 0.250201 8.90151 0.361729 7.55854C0.473008 6.21855 0.693826 5.25277 1.12255 4.42745C1.85783 3.01196 3.01196 1.85783 4.42745 1.12255C5.25277 0.693826 6.21855 0.473008 7.55854 0.361729C8.90151 0.250201 10.5978 0.25 12.88 0.25H31.12C33.4022 0.25 35.0985 0.250201 36.4415 0.361729C37.7814 0.473008 38.7472 0.693826 39.5726 1.12255C40.988 1.85783 42.1422 3.01196 42.8775 4.42745C43.3062 5.25277 43.527 6.21855 43.6383 7.55854C43.7498 8.90151 43.75 10.5978 43.75 12.88V31.12C43.75 33.4022 43.7498 35.0985 43.6383 36.4415C43.527 37.7814 43.3062 38.7472 42.8775 39.5726C42.1422 40.988 40.988 42.1422 39.5726 42.8775C38.7472 43.3062 37.7814 43.527 36.4415 43.6383C35.0985 43.7498 33.4022 43.75 31.12 43.75H12.88C10.5978 43.75 8.90151 43.7498 7.55854 43.6383C6.21855 43.527 5.25277 43.3062 4.42745 42.8775C3.01196 42.1422 1.85783 40.988 1.12255 39.5726C0.693826 38.7472 0.473008 37.7814 0.361729 36.4415C0.250201 35.0985 0.25 33.4022 0.25 31.12V12.88Z" stroke="#D9D9D9" stroke-width="0.5"/>
<path fill-rule="evenodd" clip-rule="evenodd" d="M22.802 8.77959L33.0516 14.6972C33.5464 14.9829 33.8512 15.5108 33.8512 16.0822V17.3667C33.7806 19.2917 32.1977 20.8306 30.2554 20.8306H13.7445C12.3977 20.8306 11.1546 21.2746 10.1535 22.0242V16.0822C10.1535 15.5108 10.4583 14.9829 10.9531 14.6972L21.2028 8.77959C21.6976 8.49392 22.3072 8.49392 22.802 8.77959ZM7.75466 26.5307C7.74986 26.6291 7.74744 26.7281 7.74744 26.8277V26.9H7.75466V27.9175C7.75466 29.3458 8.51668 30.6657 9.75368 31.3799L20.0033 37.2975C21.2403 38.0117 22.7644 38.0117 24.0014 37.2975L34.251 31.3799C35.488 30.6657 36.2501 29.3458 36.2501 27.9175V17.4059C36.2517 17.3482 36.2525 17.2904 36.2525 17.2324V16.3439H36.2501V16.0822C36.2501 14.6538 35.488 13.334 34.251 12.6198L24.0014 6.70214C22.7644 5.98796 21.2403 5.98796 20.0033 6.70214L9.75369 12.6198C8.51668 13.334 7.75466 14.6538 7.75466 16.0822V26.5307ZM33.8512 22.0323V27.9175C33.8512 28.4888 33.5464 29.0168 33.0516 29.3024L22.802 35.2201C22.3072 35.5058 21.6976 35.5058 21.2028 35.2201L10.9531 29.3024C10.4583 29.0168 10.1535 28.4888 10.1535 27.9175V26.5978C10.272 24.7177 11.8345 23.2294 13.7445 23.2294H30.2554C31.6044 23.2294 32.8494 22.784 33.8512 22.0323ZM16.9882 19.0158V16.2172H18.5874V19.0158H20.9862V15.8174C20.9862 14.7134 20.0912 13.8184 18.9872 13.8184H16.5884C15.4843 13.8184 14.5893 14.7134 14.5893 15.8174V19.0158H16.9882ZM18.5874 25.0129L18.5874 27.8116H16.9882L16.9882 25.0129H14.5893L14.5893 28.2114C14.5893 29.3154 15.4843 30.2104 16.5884 30.2104H18.9872C20.0912 30.2104 20.9862 29.3154 20.9862 28.2114V25.0129H18.5874ZM27.3831 27.8116V25.0129H29.782V28.2114C29.782 29.3154 28.887 30.2104 27.7829 30.2104H25.3841C24.2801 30.2104 23.3851 29.3154 23.3851 28.2114V25.0129H25.7839V27.8116H27.3831ZM25.7839 19.0158V16.2172H27.3831V19.0158H29.782V15.8174C29.782 14.7134 28.887 13.8184 27.7829 13.8184H25.3841C24.2801 13.8184 23.3851 14.7134 23.3851 15.8174V19.0158H25.7839Z" fill="black"/>
</svg>
