<svg width="44" height="44" viewBox="0 0 44 44" fill="none" xmlns="http://www.w3.org/2000/svg">
<path d="M12.88 0.25H31.12C33.4022 0.25 35.0985 0.250201 36.4415 0.361729C37.7814 0.473008 38.7472 0.693826 39.5726 1.12255C40.988 1.85783 42.1422 3.01196 42.8775 4.42745C43.3062 5.25277 43.527 6.21855 43.6383 7.55854C43.7498 8.90151 43.75 10.5978 43.75 12.88V31.12C43.75 33.4022 43.7498 35.0985 43.6383 36.4415C43.527 37.7814 43.3062 38.7472 42.8775 39.5726C42.1422 40.988 40.988 42.1422 39.5726 42.8775C38.7472 43.3062 37.7814 43.527 36.4415 43.6383C35.0985 43.7498 33.4022 43.75 31.12 43.75H12.88C10.5978 43.75 8.90151 43.7498 7.55854 43.6383C6.21855 43.527 5.25277 43.3062 4.42745 42.8775C3.01196 42.1422 1.85783 40.988 1.12255 39.5726C0.693826 38.7472 0.473008 37.7814 0.361729 36.4415C0.250201 35.0985 0.25 33.4022 0.25 31.12V12.88C0.25 10.5978 0.250201 8.90151 0.361729 7.55854C0.473008 6.21855 0.693826 5.25277 1.12255 4.42745C1.85783 3.01196 3.01196 1.85783 4.42745 1.12255C5.25277 0.693826 6.21855 0.473008 7.55854 0.361729C8.90151 0.250201 10.5978 0.25 12.88 0.25Z" stroke="#D9D9D9" stroke-width="0.5"/>
<path d="M33.993 17.3447H26.6111V24.7969H33.993V17.3447Z" fill="black"/>
<path d="M19.2345 27.5888C19.2345 28.142 19.072 28.6828 18.7675 29.1429C18.4631 29.6029 18.0303 29.9613 17.524 30.1731C17.0177 30.3849 16.4606 30.4402 15.9231 30.3323C15.3856 30.2243 14.8919 29.958 14.5044 29.5667C14.1169 29.1756 13.853 28.6772 13.7461 28.1345C13.6392 27.5919 13.6941 27.0295 13.9038 26.5184C14.1135 26.0072 14.4686 25.5704 14.9243 25.2631C15.38 24.9556 15.9156 24.7916 16.4637 24.7916H19.2345V17.3447H16.4637C14.4567 17.3447 12.4947 17.9455 10.8261 19.0711C9.15729 20.1968 7.85667 21.7967 7.08861 23.6686C6.32056 25.5404 6.11961 27.6002 6.51115 29.5873C6.9027 31.5746 7.86912 33.3999 9.28834 34.8325C10.7075 36.2652 12.5155 37.2409 14.4839 37.6361C16.4523 38.0313 18.4927 37.8285 20.3469 37.0532C22.2011 36.2778 23.7859 34.9648 24.9009 33.2802C26.016 31.5955 26.6111 29.6149 26.6111 27.5888V24.7916H19.2345V27.5888Z" fill="black"/>
<path d="M29.3816 13.6187H37.6836V6.1665H29.3816C26.6911 6.16929 24.1117 7.24944 22.2093 9.17004C20.3068 11.0905 19.2368 13.6946 19.2341 16.4106V17.3448H26.6107V16.4106C26.6121 15.6696 26.9047 14.9595 27.4241 14.436C27.9436 13.9127 28.6476 13.6187 29.3816 13.6187Z" fill="black"/>
</svg>
