<svg width="44" height="44" viewBox="0 0 44 44" fill="none" xmlns="http://www.w3.org/2000/svg">
<path d="M12.88 0.25H31.12C33.4022 0.25 35.0985 0.250201 36.4415 0.361729C37.7814 0.473008 38.7472 0.693826 39.5726 1.12255C40.988 1.85783 42.1422 3.01196 42.8775 4.42745C43.3062 5.25277 43.527 6.21855 43.6383 7.55854C43.7498 8.90151 43.75 10.5978 43.75 12.88V31.12C43.75 33.4022 43.7498 35.0985 43.6383 36.4415C43.527 37.7814 43.3062 38.7472 42.8775 39.5726C42.1422 40.988 40.988 42.1422 39.5726 42.8775C38.7472 43.3062 37.7814 43.527 36.4415 43.6383C35.0985 43.7498 33.4022 43.75 31.12 43.75H12.88C10.5978 43.75 8.90151 43.7498 7.55854 43.6383C6.21855 43.527 5.25277 43.3062 4.42745 42.8775C3.01196 42.1422 1.85783 40.988 1.12255 39.5726C0.693826 38.7472 0.473008 37.7814 0.361729 36.4415C0.250201 35.0985 0.25 33.4022 0.25 31.12V12.88C0.25 10.5978 0.250201 8.90151 0.361729 7.55854C0.473008 6.21855 0.693826 5.25277 1.12255 4.42745C1.85783 3.01196 3.01196 1.85783 4.42745 1.12255C5.25277 0.693826 6.21855 0.473008 7.55854 0.361729C8.90151 0.250201 10.5978 0.25 12.88 0.25Z" stroke="#D9D9D9" stroke-width="0.5"/>
<path fill-rule="evenodd" clip-rule="evenodd" d="M10.0261 29.7287C11.9989 27.9724 14.3603 26.6432 16.9653 25.8865V25.2272V24.8472V23.8972C16.9863 21.4586 16.9652 19.0309 16.9019 16.6139C16.8521 16.5123 16.7677 16.47 16.6486 16.4872C17.554 16.3616 18.4829 16.3194 19.4353 16.3605C19.3794 16.4799 19.2844 16.5643 19.1503 16.6139C19.108 16.6983 19.108 16.7828 19.1503 16.8672L21.9369 22.1872C22.9242 20.4028 23.8953 18.6084 24.8503 16.8039C24.8925 16.7405 24.8925 16.6772 24.8503 16.6139C24.7325 16.5455 24.6375 16.4611 24.5653 16.3605C25.5177 16.3194 26.4466 16.3616 27.3519 16.4872C27.1408 16.4872 27.0353 16.5928 27.0353 16.8039L27.0132 17.818C26.9601 20.2515 26.8857 23.6632 26.8734 25.8404C29.5422 26.5887 31.9605 27.9363 33.9739 29.7289C35.414 27.5024 36.2501 24.8488 36.2501 21.9998C36.2501 14.1298 29.8701 7.74984 22.0001 7.74984C14.13 7.74984 7.75008 14.1298 7.75008 21.9998C7.75008 24.8487 8.58608 27.5023 10.0261 29.7287ZM21.9999 25.1735C20.7777 25.1735 19.5839 25.2952 18.4299 25.5272L18.5169 20.064V19.2739L18.6119 19.4005L19.772 21.3738L20.7868 23.2709L21.9369 25.1736L23.3647 22.6651C23.3647 22.6651 24.5917 20.5299 25.2303 19.2739C25.2532 20.404 25.2296 22.4733 25.2108 24.1229C25.2052 24.6172 25.2 25.0739 25.1966 25.4562C24.1591 25.2704 23.0908 25.1735 21.9999 25.1735ZM8.87118 30.8529C7.16375 28.3258 6.16675 25.2793 6.16675 21.9998C6.16675 13.2553 13.2556 6.1665 22.0001 6.1665C30.7446 6.1665 37.8334 13.2553 37.8334 21.9998C37.8334 30.1978 31.603 36.9406 23.6189 37.7514C23.0867 37.8055 22.5466 37.8332 22.0001 37.8332C16.535 37.8332 11.7166 35.0643 8.87118 30.8529ZM18.4853 29.1213C18.4431 27.7715 18.422 26.8634 18.4219 25.5136C17.9271 25.6279 17.4411 25.7654 16.9653 25.9249V26.2696V26.6496V27.918V28.678C16.9757 28.8691 16.9651 29.0591 16.9336 29.248C16.8508 29.3285 16.7558 29.3918 16.6486 29.4379C17.3664 29.5224 18.0842 29.5224 18.8019 29.4379C18.6306 29.3934 18.5251 29.2878 18.4853 29.1213Z" fill="black"/>
</svg>
