<svg width="44" height="44" viewBox="0 0 44 44" fill="none" xmlns="http://www.w3.org/2000/svg">
<path d="M0.25 12.88C0.25 10.5978 0.250201 8.90151 0.361729 7.55854C0.473008 6.21855 0.693826 5.25277 1.12255 4.42745C1.85783 3.01196 3.01196 1.85783 4.42745 1.12255C5.25277 0.693826 6.21855 0.473008 7.55854 0.361729C8.90151 0.250201 10.5978 0.25 12.88 0.25H31.12C33.4022 0.25 35.0985 0.250201 36.4415 0.361729C37.7814 0.473008 38.7472 0.693826 39.5726 1.12255C40.988 1.85783 42.1422 3.01196 42.8775 4.42745C43.3062 5.25277 43.527 6.21855 43.6383 7.55854C43.7498 8.90151 43.75 10.5978 43.75 12.88V31.12C43.75 33.4022 43.7498 35.0985 43.6383 36.4415C43.527 37.7814 43.3062 38.7472 42.8775 39.5726C42.1422 40.988 40.988 42.1422 39.5726 42.8775C38.7472 43.3062 37.7814 43.527 36.4415 43.6383C35.0985 43.7498 33.4022 43.75 31.12 43.75H12.88C10.5978 43.75 8.90151 43.7498 7.55854 43.6383C6.21855 43.527 5.25277 43.3062 4.42745 42.8775C3.01196 42.1422 1.85783 40.988 1.12255 39.5726C0.693826 38.7472 0.473008 37.7814 0.361729 36.4415C0.250201 35.0985 0.25 33.4022 0.25 31.12V12.88Z" stroke="#D9D9D9" stroke-width="0.5"/>
<path d="M12.8362 18.6011C11.0104 18.3901 10.799 19.9012 11.3068 20.2271C11.6871 20.4727 12.9064 20.5997 13.488 20.6474C13.7516 20.6774 14.0086 20.544 14.1419 20.3065C14.3967 19.745 14.2274 18.7618 12.8362 18.6011Z" fill="white"/>
<path d="M17.9285 20.6956C18.4884 20.6475 19.6627 20.5206 20.0284 20.276C20.5173 19.9507 20.3137 18.4423 18.5564 18.653C17.2171 18.8134 17.0541 19.7953 17.2994 20.3558C17.4278 20.5922 17.6748 20.7259 17.9285 20.6956Z" fill="white"/>
<path d="M38.3076 19.0426C37.9133 19.0426 37.5696 19.2459 37.3724 19.5505H31.4563L30.1519 20.834H24.629C24.7571 21.208 24.8739 21.5967 24.98 22.0001H30.6426L31.9456 20.7167H37.3714C37.5679 21.0224 37.9126 21.2265 38.307 21.2265C38.9202 21.2265 39.4167 20.7375 39.4167 20.1346C39.4167 19.5317 38.9202 19.0426 38.3076 19.0426Z" fill="black"/>
<path d="M33.4668 24.4951C33.6708 24.7746 33.9919 24.9577 34.357 24.9577C34.9738 24.9577 35.4733 24.4426 35.4733 23.8075C35.4733 23.1725 34.9735 22.6574 34.357 22.6574C33.9311 22.6574 33.5657 22.9058 33.3774 23.2668H25.2863C25.3629 23.6649 25.4319 24.0746 25.4949 24.4951H33.4668Z" fill="black"/>
<path d="M25.5298 25.6313V25.6328H25.5326C25.5068 26.0237 25.4227 26.4067 25.2863 26.7716H30.7057L32.0462 28.068H35.7096C35.9081 28.3705 36.2557 28.5725 36.6537 28.5725C37.2725 28.5725 37.7736 28.0874 37.7736 27.4894C37.7736 26.8915 37.2722 26.4064 36.6537 26.4064C36.2557 26.4064 35.9081 26.6088 35.7096 26.9113H32.5427L31.2019 25.6149H25.5278C25.5274 25.6204 25.5278 25.6258 25.5278 25.6313H25.5298Z" fill="black"/>
<path d="M24.6762 27.9299C23.7849 29.1719 22.6775 30.2296 21.4137 31.0555C21.3832 31.0757 21.3522 31.0932 21.3217 31.113C21.1968 31.193 21.0714 31.2715 20.9437 31.3468C20.8144 31.4241 20.6855 31.4966 20.5562 31.5675C20.5466 31.5727 20.5367 31.5783 20.5272 31.5834C19.7644 31.9987 19.0012 32.3086 18.267 32.5246C18.2254 32.5373 18.1845 32.5516 18.1425 32.5638C18.0905 32.5789 18.0374 32.5896 17.985 32.6039C17.9041 32.6253 17.8236 32.6459 17.7435 32.6653C17.6252 32.6938 17.507 32.7204 17.3876 32.7446C17.3063 32.7612 17.2266 32.7755 17.1465 32.7893C17.0509 32.806 16.9553 32.8231 16.8593 32.8365C16.7181 32.8571 16.5804 32.873 16.444 32.8864C16.4039 32.8904 16.3638 32.8956 16.3238 32.8991C16.1441 32.9146 15.9688 32.9245 15.799 32.9281C15.7804 32.9284 15.7617 32.9308 15.7431 32.9312V32.9332C15.7245 32.9336 15.7038 32.9324 15.6852 32.9324H15.6769C15.6733 32.9324 15.6701 32.9332 15.6666 32.9332L15.6634 32.9324L15.636 32.9336H15.6293V32.9316C13.5448 32.9027 10.6604 31.9995 8.21932 29.6693C7.65568 29.131 7.11543 28.5172 6.61445 27.8201C6.15748 27.1809 5.89054 26.4263 5.84332 25.642H5.84611L5.85009 25.6408C5.82626 25.3297 5.83698 25.017 5.88262 24.7083C6.1071 22.9107 6.59063 21.155 7.3173 19.4953C6.68744 18.0321 6.25705 16.4909 6.0377 14.9128C5.89688 13.7013 5.94805 12.4585 6.4161 11.4396C6.52359 11.2097 6.77508 11.0833 7.02417 11.1345C7.44424 11.2161 8.16457 11.4812 9.16692 12.275C10.2046 13.135 11.1395 14.1123 11.9526 15.1867C13.1406 14.805 14.3826 14.6164 15.6305 14.6283V14.6267C15.6479 14.6267 15.6673 14.6283 15.6868 14.6283C15.7062 14.6283 15.7237 14.6267 15.7431 14.6267V14.6283C16.9569 14.618 18.1647 14.7959 19.3237 15.1554C20.1286 14.0949 21.0524 13.1307 22.0777 12.281C23.0832 11.4808 23.8048 11.2157 24.226 11.1345C24.4751 11.0833 24.7266 11.2097 24.8345 11.44C25.3045 12.4637 25.3549 13.712 25.2109 14.9295C25.0019 16.4319 24.6001 17.9009 24.0162 19.3011C24.0079 19.3209 24.0003 19.3411 23.992 19.361C24.0725 19.5262 24.1487 19.697 24.2232 19.8698H27.0629L29.1434 17.7924H30.6837C30.8792 18.1003 31.2213 18.306 31.6137 18.306C32.2236 18.306 32.7172 17.8122 32.7172 17.2035C32.7172 16.5948 32.2229 16.1009 31.6137 16.1009C31.2213 16.1009 30.8792 16.307 30.6837 16.615H28.6555L26.5746 18.6924H25.5739C25.9828 17.5177 26.2807 16.307 26.4528 15.0749L26.456 15.0496C26.6496 13.4092 26.4869 12.0075 25.9697 10.882L25.9705 10.8804C25.6726 10.2475 25.0368 9.84289 24.3367 9.84131C24.2197 9.84131 24.1031 9.85242 23.9884 9.87539C23.1673 10.0343 22.2618 10.5039 21.2967 11.2724L21.2769 11.2882C20.3983 12.017 19.5887 12.8243 18.8576 13.7005C17.8692 13.4651 16.8569 13.3462 15.8407 13.3462H15.519C14.473 13.3462 13.431 13.4731 12.4159 13.7243C11.6766 12.8362 10.8571 12.0182 9.96737 11.2803L9.94755 11.2645C8.74925 10.3153 7.83297 9.98675 7.27803 9.87857C6.45737 9.71012 5.62913 10.1286 5.27849 10.8887C4.76562 12 4.6022 13.3926 4.7902 15.0254L4.79418 15.0555C5.00321 16.561 5.39193 18.0361 5.95163 19.4493C5.30626 21.071 4.86558 22.7672 4.63989 24.4978C4.58912 24.847 4.57246 25.2005 4.5903 25.5528C4.5879 25.5976 4.5879 25.6428 4.5903 25.688C4.59428 25.7522 4.59901 25.816 4.60496 25.8794C4.69582 26.8329 5.03732 27.7456 5.59462 28.5251C6.0956 29.2218 6.65688 29.8733 7.27208 30.4717L7.34191 30.5404C7.39584 30.5918 7.4498 30.6418 7.50415 30.6913L7.54023 30.7242C7.54023 30.7242 7.6287 30.8071 7.6517 30.828C7.68939 30.8621 7.72745 30.895 7.76553 30.9283L7.86865 31.0187C7.90079 31.0472 7.93333 31.0757 7.96625 31.1039C7.99918 31.132 8.02494 31.1526 8.05429 31.1768L8.15189 31.2576C8.1955 31.2941 8.23953 31.3302 8.28317 31.3658C8.30736 31.3849 8.43828 31.4859 8.43828 31.4859C8.4922 31.5291 8.54814 31.5719 8.60446 31.6143L8.70045 31.684C8.77583 31.7399 8.85119 31.7954 8.92654 31.8485L9.00429 31.9024C9.0868 31.9599 9.16972 32.0173 9.25341 32.0729L9.31687 32.1136C9.40455 32.1711 9.49219 32.2274 9.57904 32.2817L9.633 32.3149C9.72426 32.3708 9.81505 32.4263 9.90786 32.4802L9.95074 32.504C10.0459 32.5579 10.1411 32.6122 10.2379 32.6661L10.27 32.6831C10.3688 32.737 10.4676 32.7886 10.5647 32.8385L10.5984 32.8552C10.6972 32.9051 10.7964 32.9538 10.8956 33.0006L10.9265 33.0145C11.0265 33.0616 11.1264 33.1072 11.2236 33.1496L11.2569 33.1634C11.3557 33.2067 11.4548 33.2487 11.5525 33.2883L11.5865 33.3018C11.6845 33.3414 11.7829 33.3798 11.8777 33.4155L11.9189 33.4302C12.0141 33.4654 12.1097 33.4999 12.2057 33.5332L12.2537 33.5491C12.3453 33.58 12.4366 33.6105 12.5274 33.639L12.5837 33.6557C12.6718 33.6826 12.7595 33.7096 12.8467 33.7341L12.9133 33.7524C12.997 33.7758 13.0807 33.7988 13.1628 33.8198L13.247 33.84C13.3235 33.859 13.4004 33.8776 13.4774 33.8939L13.5694 33.9136C13.6416 33.9295 13.7138 33.945 13.7856 33.9588L13.9106 33.9818C13.9705 33.9929 14.0303 34.0044 14.0898 34.0144L14.2521 34.0397C14.2981 34.0468 14.3441 34.054 14.3893 34.0603C14.4222 34.065 14.5647 34.0829 14.5647 34.0829C14.6043 34.088 14.6443 34.0932 14.684 34.098C14.7237 34.1027 14.9728 34.1249 14.9728 34.1249C15.018 34.1289 15.0621 34.1312 15.1081 34.134L15.2572 34.1439C15.3096 34.1467 15.3612 34.1483 15.4127 34.1502L15.5142 34.1538C15.5519 34.1574 15.59 34.159 15.6281 34.159H15.7423C15.78 34.159 15.8169 34.157 15.8538 34.1542C16.4011 34.1392 16.9462 34.0797 17.484 33.9775L17.5182 33.9711C17.6193 33.9521 17.7213 33.9311 17.8239 33.9085L17.841 33.905C19.8977 33.4369 21.8088 32.4739 23.4077 31.0995C24.1689 30.4611 24.8527 29.7374 25.4552 28.9488H25.7595L27.8197 31.0072H32.454C32.6495 31.3151 32.9916 31.5208 33.3839 31.5208C33.9935 31.5208 34.4874 31.027 34.4874 30.4183C34.4874 29.8095 33.9932 29.3157 33.3839 29.3157C32.9916 29.3157 32.6495 29.5218 32.454 29.8297H28.3068L26.2466 27.7713H24.7901C24.7786 27.788 24.7687 27.805 24.7567 27.8217C24.7306 27.8589 24.7028 27.8946 24.6762 27.9314V27.9299Z" fill="black"/>
<path d="M24.2955 19.7653C24.2208 19.5922 24.1438 19.4219 24.0627 19.2568C24.0711 19.237 24.0787 19.2168 24.0871 19.197C24.6748 17.7978 25.0796 16.3297 25.2897 14.8283C25.4346 13.6116 25.3839 12.3641 24.9108 11.3411C24.8025 11.111 24.549 10.9851 24.2982 11.0358C23.8746 11.1166 23.1479 11.3819 22.1358 12.1815C21.104 13.0306 20.1737 13.9946 19.3635 15.054C18.1968 14.6948 16.9811 14.5174 15.7592 14.5273V14.5257C15.7401 14.5257 15.7221 14.5273 15.7026 14.5273C15.683 14.5273 15.6639 14.5257 15.6458 14.5257V14.5273C14.3897 14.5154 13.1395 14.7035 11.9437 15.0853C11.1252 14.0112 10.1841 13.035 9.13959 12.1756C8.13059 11.3823 7.4055 11.1178 6.98267 11.0358C6.73233 10.9847 6.47918 11.111 6.37056 11.3408C5.89942 12.359 5.8479 13.6005 5.98966 14.8116C6.21006 16.3882 6.64327 17.9285 7.27772 19.3911C6.54586 21.0497 6.05952 22.8041 5.83353 24.6006C5.78763 24.909 5.77682 25.2215 5.80078 25.5324C6.44203 25.3245 8.06473 24.9166 9.69136 25.456C10.4309 25.7007 11.1711 26.1407 11.8207 26.8841L11.822 26.8853C12.2644 25.1443 13.8695 23.9435 15.679 23.9997H15.6818C16.3266 23.9883 16.9651 24.1257 17.5468 24.4009C18.0399 24.6583 18.4672 25.0124 18.8061 25.4361C18.8145 25.4465 18.8213 25.4584 18.8297 25.4687C18.9051 25.5649 18.9774 25.6635 19.0437 25.7661C19.0561 25.7851 19.0657 25.8061 19.0777 25.8251C19.1372 25.9213 19.195 26.0183 19.2462 26.1193C19.2629 26.1522 19.2753 26.1875 19.2913 26.2211C19.3336 26.311 19.3763 26.4005 19.4115 26.4936C19.431 26.5451 19.4446 26.599 19.4622 26.6516C19.4881 26.7293 19.5165 26.8061 19.5372 26.8857C21.6502 24.4647 24.7255 25.2532 25.6031 25.5462C25.6035 25.5407 25.6031 25.5352 25.6031 25.5297C25.6263 25.2191 25.6155 24.907 25.5684 24.5989C25.5592 24.5368 25.5496 24.4769 25.54 24.4156C25.4773 24.0128 25.4083 23.6203 25.3324 23.2389C25.2457 22.8061 25.1495 22.3887 25.0437 21.9843C24.9371 21.5772 24.8205 21.1851 24.6924 20.8077C24.5698 20.4469 24.4396 20.098 24.2955 19.7653ZM8.35899 16.9676C8.14698 17.2089 7.94812 17.4615 7.76406 17.7245C7.21226 16.0445 6.6253 13.6298 7.1312 12.0968C7.47377 12.2279 8.07709 12.6128 8.8525 13.2972C9.3899 13.7716 10.0096 14.389 10.6852 15.1709C9.80077 15.6164 9.01141 16.2263 8.35899 16.9676ZM13.6247 23.1942C13.358 23.7304 11.1819 23.153 10.1026 22.4168C9.9533 22.3138 9.86468 22.1447 9.86547 21.9645L9.97445 21.1011C9.97445 20.9558 10.0931 20.8381 10.2396 20.8381C10.2715 20.8381 10.3035 20.8441 10.3334 20.8552C11.2733 21.2061 13.9254 22.4097 13.6247 23.1942ZM14.0288 20.2809C13.9074 20.4881 13.6742 20.6045 13.4342 20.5775C12.9047 20.5364 11.7936 20.4255 11.4478 20.2112C10.9855 19.9269 11.1779 18.6085 12.8401 18.7926C14.1066 18.9328 14.2608 19.7911 14.0288 20.2809ZM17.4271 20.2809C17.1951 19.7911 17.3492 18.9328 18.6157 18.7926C20.2775 18.6085 20.4699 19.9269 20.0076 20.2112C19.6614 20.4255 18.5514 20.5364 18.022 20.578C17.782 20.6037 17.5484 20.4881 17.4271 20.2809ZM21.348 22.416C20.2687 23.1518 18.0922 23.7296 17.8259 23.1934C17.5253 22.4089 20.1773 21.2053 21.1172 20.8544C21.1476 20.8429 21.1799 20.837 21.2126 20.837C21.3592 20.837 21.4778 20.955 21.4778 21.1003L21.5867 21.9637C21.6015 22.1471 21.5081 22.3237 21.348 22.416ZM23.5564 17.6093C23.3931 17.3831 23.2226 17.17 23.0438 16.9676C22.9675 16.8813 22.888 16.797 22.8078 16.7138C22.1821 16.0647 21.447 15.5277 20.6333 15.1293C22.2651 13.2517 23.576 12.319 24.1502 12.098C24.2735 12.4722 24.3318 12.8991 24.3414 13.355C24.3705 14.7241 23.9613 16.355 23.5564 17.6093Z" fill="black"/>
<path d="M16.2564 30.3477C16.2371 30.3413 16.2159 30.3373 16.1914 30.3373C15.9999 30.3373 15.953 30.9092 15.6778 30.9273L15.675 30.9277L15.6722 30.9269L15.6666 30.9281L15.6662 30.9269C15.6622 30.9269 15.6581 30.9253 15.6541 30.9241H15.6521C15.3889 30.8867 15.3364 30.3373 15.1538 30.3373C14.963 30.3373 14.9458 30.5702 14.7667 30.5702C14.7426 30.5694 14.7186 30.5666 14.695 30.5614C14.5547 30.5192 14.4594 30.3887 14.4626 30.2417V30.0722H16.885V30.2417C16.8878 30.3887 16.7928 30.5192 16.6526 30.5614C16.629 30.5666 16.6049 30.5698 16.5808 30.5702C16.5584 30.5702 16.5388 30.5666 16.5208 30.5602C16.4134 30.522 16.3725 30.3859 16.2579 30.3473L16.2564 30.3477ZM18.1562 29.9541H18.0112L17.6803 30.8297C17.6719 30.8538 17.649 30.8698 17.6238 30.8703C17.6085 30.8694 17.5937 30.8634 17.5833 30.8526C17.5184 30.7787 17.4607 30.6987 17.4106 30.6136C17.3998 30.5959 17.3942 30.5758 17.3938 30.555V29.5589C17.2279 29.5814 17.0596 29.5939 16.893 29.6099C16.4923 29.648 16.0905 29.6742 15.6874 29.673H15.6529C15.0844 29.673 14.5163 29.6328 13.9533 29.5529L13.9517 29.5541V30.5554C13.9517 30.5763 13.9461 30.5963 13.9349 30.614C13.8852 30.6987 13.8275 30.7783 13.763 30.8522C13.7394 30.8751 13.7017 30.8755 13.6781 30.8522C13.6717 30.8458 13.6669 30.8385 13.6641 30.8301L13.3331 29.9545H13.1905C13.1216 29.9573 13.0619 29.9063 13.0538 29.8372C13.0467 29.6123 12.991 29.3914 12.89 29.1906C12.8716 29.1476 12.8916 29.0982 12.9341 29.0794C12.9433 29.0757 12.9525 29.0729 12.9625 29.0725C13.2337 29.0669 13.8115 29.054 13.9297 29.0617H14.9538C15.0508 28.903 15.1994 28.7825 15.3745 28.7211V28.0323C15.1469 28.0025 14.955 27.9399 14.7963 27.8531C14.1068 27.4752 14.0098 26.6398 14.0287 26.104C14.0375 25.8313 14.2611 25.6148 14.5335 25.6148H16.8129C17.0853 25.6148 17.3084 25.8313 17.3173 26.104C17.3229 26.2675 17.3173 26.4587 17.2884 26.6559C17.1991 27.2559 16.8865 27.9142 15.9715 28.0315V28.7211C16.1466 28.7825 16.2952 28.903 16.3922 29.0617H17.4162C17.5344 29.0544 18.1126 29.0661 18.3834 29.0725C18.4303 29.0749 18.466 29.1147 18.4636 29.1613C18.4632 29.1713 18.4607 29.1814 18.4567 29.1906C18.355 29.3914 18.2993 29.6123 18.2929 29.8377C18.2865 29.889 18.252 29.93 18.2059 29.9469C18.1907 29.9525 18.1734 29.9545 18.1562 29.9541Z" fill="black"/>
</svg>
