<svg width="44" height="44" viewBox="0 0 44 44" fill="none" xmlns="http://www.w3.org/2000/svg">
<path d="M0.25 12.88C0.25 10.5978 0.250201 8.90151 0.361729 7.55854C0.473008 6.21855 0.693826 5.25277 1.12255 4.42745C1.85783 3.01196 3.01196 1.85783 4.42745 1.12255C5.25277 0.693826 6.21855 0.473008 7.55854 0.361729C8.90151 0.250201 10.5978 0.25 12.88 0.25H31.12C33.4022 0.25 35.0985 0.250201 36.4415 0.361729C37.7814 0.473008 38.7472 0.693826 39.5726 1.12255C40.988 1.85783 42.1422 3.01196 42.8775 4.42745C43.3062 5.25277 43.527 6.21855 43.6383 7.55854C43.7498 8.90151 43.75 10.5978 43.75 12.88V31.12C43.75 33.4022 43.7498 35.0985 43.6383 36.4415C43.527 37.7814 43.3062 38.7472 42.8775 39.5726C42.1422 40.988 40.988 42.1422 39.5726 42.8775C38.7472 43.3062 37.7814 43.527 36.4415 43.6383C35.0985 43.7498 33.4022 43.75 31.12 43.75H12.88C10.5978 43.75 8.90151 43.7498 7.55854 43.6383C6.21855 43.527 5.25277 43.3062 4.42745 42.8775C3.01196 42.1422 1.85783 40.988 1.12255 39.5726C0.693826 38.7472 0.473008 37.7814 0.361729 36.4415C0.250201 35.0985 0.25 33.4022 0.25 31.12V12.88Z" stroke="#D9D9D9" stroke-width="0.5"/>
<path fill-rule="evenodd" clip-rule="evenodd" d="M23.6314 11.5939L24.4451 6.3549C23.6394 6.23064 22.8176 6.1665 21.9959 6.1665H21.9839V16.8529H21.9959C22.4449 16.8529 22.8938 16.9091 23.3227 17.0253L24.7056 11.8184C24.3529 11.7222 23.9961 11.65 23.6314 11.5939ZM19.4185 17.5425L16.7609 12.9609C16.4482 13.1452 16.1436 13.3417 15.851 13.5541L12.6763 9.20497C13.3417 8.71594 14.0552 8.27903 14.7888 7.90223L17.2018 12.6201C17.6909 12.3716 18.1999 12.1592 18.725 11.9868L17.0816 6.94422C17.8672 6.68768 18.6809 6.49127 19.4986 6.363L20.3444 11.6862C19.9837 11.7423 19.6269 11.8225 19.2782 11.9147L20.6531 17.0294C20.2242 17.1456 19.8073 17.318 19.4185 17.5425ZM7.88244 14.8247L12.6845 17.2698C12.436 17.7548 12.2276 18.2639 12.0592 18.785L6.93245 17.1255C7.18899 16.3358 7.50565 15.5622 7.88244 14.8247ZM31.035 16.7569L26.4534 19.4185C26.6779 19.8073 26.8543 20.2242 26.9705 20.6531L32.0853 19.2742C32.1815 19.6229 32.2576 19.9797 32.3137 20.3364L37.6369 19.4907C37.5086 18.673 37.3122 17.8592 37.0517 17.0736L32.0131 18.7251C31.8407 18.2 31.6283 17.6909 31.3798 17.2019L36.0977 14.7808C35.7209 14.0472 35.284 13.3337 34.7949 12.6683L30.4458 15.847C30.6542 16.1396 30.8507 16.4443 31.035 16.7569ZM26.8661 6.92802C27.6558 7.18455 28.4294 7.50122 29.167 7.87801L26.7258 12.6801C26.2368 12.4316 25.7277 12.2231 25.2107 12.0548L26.8661 6.92802ZM27.2509 12.8684L24.5612 17.5382C24.9501 17.7626 25.3108 18.0392 25.6275 18.3559L33.1713 10.784C32.5861 10.1988 31.9488 9.65762 31.2834 9.17261L28.1728 13.4656C27.8762 13.2492 27.5716 13.0487 27.2509 12.8684ZM17.5346 19.4348L12.8688 16.7412C13.0532 16.4245 13.2536 16.1159 13.466 15.8193L9.17704 12.7047C9.66206 12.0393 10.2032 11.402 10.7884 10.8167L18.3523 18.3646C18.0356 18.6853 17.7591 19.046 17.5346 19.4348ZM11.8186 19.2861L17.0256 20.6731C16.9133 21.102 16.8532 21.5469 16.8532 21.9998H6.16675C6.16675 21.1781 6.23088 20.3484 6.35514 19.5427L11.5941 20.3604C11.6503 19.9996 11.7264 19.6389 11.8186 19.2861ZM31.3156 26.7298L36.1177 29.1749C36.4945 28.4374 36.8112 27.6637 37.0677 26.8741L31.9409 25.2146C31.7726 25.7357 31.5642 26.2448 31.3156 26.7298ZM24.5775 26.4529L27.2351 31.0345C27.5518 30.8541 27.8564 30.6577 28.149 30.4372L31.3237 34.7904C30.6583 35.2794 29.9448 35.7163 29.2113 36.0931L26.7942 31.3752C26.3052 31.6237 25.7961 31.8362 25.271 32.0085L26.9145 37.0511C26.1288 37.3077 25.3151 37.5041 24.4974 37.6323L23.6516 32.3092C24.0124 32.253 24.3691 32.1729 24.7178 32.0807L23.343 26.9659C23.7719 26.8497 24.1887 26.6773 24.5775 26.4529ZM12.9651 27.2426L17.5467 24.577C17.3223 24.1882 17.1459 23.7713 17.0297 23.3424L11.9149 24.7213C11.8187 24.3726 11.7425 24.0158 11.6864 23.6591L6.36325 24.5048C6.49152 25.3225 6.68793 26.1363 6.94848 26.9219L11.9871 25.2744C12.1594 25.7955 12.3719 26.3086 12.6204 26.7976L7.90248 29.2187C8.27927 29.9523 8.71619 30.6658 9.20522 31.3312L13.5544 28.1525C13.3459 27.8599 13.1495 27.5552 12.9651 27.2426ZM17.1338 37.0717C16.3441 36.8151 15.5705 36.4985 14.833 36.1217L17.2741 31.3196C17.7631 31.5681 18.2722 31.7765 18.7893 31.9449L17.1338 37.0717ZM16.7448 31.1312L19.4345 26.4614C19.0457 26.2369 18.6849 25.9603 18.3682 25.6437L10.8244 33.2156C11.4096 33.8008 12.047 34.3419 12.7124 34.827L15.8229 30.5339C16.1195 30.7464 16.4282 30.9468 16.7448 31.1312ZM26.4613 24.5652L31.1271 27.2588C30.9467 27.5755 30.7463 27.8802 30.5339 28.1808L34.8229 31.2953C34.3379 31.9607 33.7967 32.5981 33.2115 33.1833L25.6436 25.6354C25.9603 25.3148 26.2368 24.954 26.4613 24.5652ZM20.6732 26.9747L19.2903 32.1816C19.643 32.2738 20.0038 32.35 20.3645 32.4061L19.5508 37.6451C20.3565 37.7694 21.1782 37.8335 22 37.8335H22.012V27.1471H22C21.551 27.1471 21.1021 27.0869 20.6732 26.9747ZM26.9743 23.3265C27.0905 22.8976 27.1467 22.4527 27.1467 21.9998H37.8331C37.8331 22.8215 37.769 23.6512 37.6447 24.4569L32.4057 23.6392C32.3496 24 32.2734 24.3607 32.1812 24.7135L26.9743 23.3265Z" fill="black"/>
</svg>
