<svg width="44" height="44" viewBox="0 0 44 44" fill="none" xmlns="http://www.w3.org/2000/svg">
<path d="M0.25 12.88C0.25 10.5978 0.250201 8.90151 0.361729 7.55854C0.473008 6.21855 0.693826 5.25277 1.12255 4.42745C1.85783 3.01196 3.01196 1.85783 4.42745 1.12255C5.25277 0.693826 6.21855 0.473008 7.55854 0.361729C8.90151 0.250201 10.5978 0.25 12.88 0.25H31.12C33.4022 0.25 35.0985 0.250201 36.4415 0.361729C37.7814 0.473008 38.7472 0.693826 39.5726 1.12255C40.988 1.85783 42.1422 3.01196 42.8775 4.42745C43.3062 5.25277 43.527 6.21855 43.6383 7.55854C43.7498 8.90151 43.75 10.5978 43.75 12.88V31.12C43.75 33.4022 43.7498 35.0985 43.6383 36.4415C43.527 37.7814 43.3062 38.7472 42.8775 39.5726C42.1422 40.988 40.988 42.1422 39.5726 42.8775C38.7472 43.3062 37.7814 43.527 36.4415 43.6383C35.0985 43.7498 33.4022 43.75 31.12 43.75H12.88C10.5978 43.75 8.90151 43.7498 7.55854 43.6383C6.21855 43.527 5.25277 43.3062 4.42745 42.8775C3.01196 42.1422 1.85783 40.988 1.12255 39.5726C0.693826 38.7472 0.473008 37.7814 0.361729 36.4415C0.250201 35.0985 0.25 33.4022 0.25 31.12V12.88Z" stroke="#D9D9D9" stroke-width="0.5"/>
<path fill-rule="evenodd" clip-rule="evenodd" d="M37.8333 23.6957C37.8333 23.846 37.7988 23.9889 37.7322 24.1127L30.9415 35.875C30.6535 36.3741 30.1215 36.6812 29.5454 36.6812H14.4545C13.8785 36.6812 13.3464 36.3741 13.0584 35.875L6.26703 24.112C6.20107 23.9881 6.16663 23.846 6.16663 23.6957C6.16663 23.2091 6.56163 22.8141 7.04825 22.8141H14.4992L16.3878 26.0218L16.3995 26.0409C16.6516 26.4454 17.1814 26.5773 17.5948 26.334L17.616 26.3208C17.8066 26.2013 17.9443 26.013 18.0008 25.7946L20.4067 16.4932L22.4727 31.4676L22.4756 31.4882C22.5518 31.9594 22.9908 32.2855 23.4664 32.2203L23.4877 32.2174C23.8321 32.1609 24.1113 31.9074 24.1993 31.568L27.0992 20.3568L28.2901 22.3795L28.3018 22.3993C28.4623 22.6565 28.7452 22.8141 29.0493 22.8141H36.9509C37.4376 22.8141 37.8326 23.2091 37.8326 23.6957H37.8333ZM29.5454 7.31934C30.1215 7.31934 30.6535 7.6264 30.9415 8.12548L37.7329 19.8885C37.7988 20.0124 37.8333 20.1553 37.8333 20.3055C37.8333 20.7921 37.4383 21.1872 36.9517 21.1872H29.4765L27.588 17.9794L27.5748 17.9582C27.4553 17.7677 27.267 17.6299 27.0486 17.5734L27.0281 17.5683C26.5634 17.4599 26.0944 17.7413 25.9742 18.2059L23.5683 27.5073L21.5024 12.5329L21.4994 12.5116C21.443 12.1672 21.1894 11.888 20.8501 11.8C20.3789 11.6784 19.8981 11.9612 19.7757 12.4325L16.8758 23.6437L15.6849 21.621L15.6732 21.6012C15.5127 21.344 15.2298 21.1864 14.9257 21.1864H7.04825C6.56163 21.1864 6.16663 20.7914 6.16663 20.3048C6.16663 20.156 6.20034 20.0153 6.26483 19.8922L13.0584 8.12548C13.3464 7.6264 13.8785 7.31934 14.4545 7.31934H29.5447H29.5454Z" fill="black"/>
</svg>
