<svg width="44" height="44" viewBox="0 0 44 44" fill="none" xmlns="http://www.w3.org/2000/svg">
<path d="M0.25 12.88C0.25 10.5978 0.250201 8.90151 0.361729 7.55854C0.473008 6.21855 0.693826 5.25277 1.12255 4.42745C1.85783 3.01196 3.01196 1.85783 4.42745 1.12255C5.25277 0.693826 6.21855 0.473008 7.55854 0.361729C8.90151 0.250201 10.5978 0.25 12.88 0.25H31.12C33.4022 0.25 35.0985 0.250201 36.4415 0.361729C37.7814 0.473008 38.7472 0.693826 39.5726 1.12255C40.988 1.85783 42.1422 3.01196 42.8775 4.42745C43.3062 5.25277 43.527 6.21855 43.6383 7.55854C43.7498 8.90151 43.75 10.5978 43.75 12.88V31.12C43.75 33.4022 43.7498 35.0985 43.6383 36.4415C43.527 37.7814 43.3062 38.7472 42.8775 39.5726C42.1422 40.988 40.988 42.1422 39.5726 42.8775C38.7472 43.3062 37.7814 43.527 36.4415 43.6383C35.0985 43.7498 33.4022 43.75 31.12 43.75H12.88C10.5978 43.75 8.90151 43.7498 7.55854 43.6383C6.21855 43.527 5.25277 43.3062 4.42745 42.8775C3.01196 42.1422 1.85783 40.988 1.12255 39.5726C0.693826 38.7472 0.473008 37.7814 0.361729 36.4415C0.250201 35.0985 0.25 33.4022 0.25 31.12V12.88Z" stroke="#D9D9D9" stroke-width="0.5"/>
<path d="M10.7765 25.1376L10.9043 27.476C10.9127 27.6353 10.9721 27.7852 11.0724 27.9079C11.7733 28.7604 14.916 31.7348 21.998 31.7348C29.0801 31.7348 32.1847 28.7988 32.9117 27.9238C33.0212 27.7917 33.0843 27.6278 33.0945 27.4554L33.2212 25.1392C34.0644 24.6745 34.9348 24.1494 34.9348 24.1494C36.3032 23.4046 37.8305 24.4745 37.8333 26.0436C37.8379 28.5824 35.8632 31.1914 33.1995 32.8355C30.1961 34.6895 25.7127 35.4586 22 35.4586C18.2872 35.4586 13.8039 34.6895 10.8004 32.8355C8.13675 31.1914 6.16199 28.5833 6.16663 26.0436C6.16942 24.4745 7.69668 23.4046 9.06517 24.1494C9.06517 24.1494 9.93407 24.6732 10.7765 25.1376Z" fill="black"/>
<path d="M21.999 8.5415C27.7896 8.5415 29.3595 8.67734 31.714 8.94902C32.7993 9.07455 33.6684 9.88582 33.5876 10.9847L32.7203 22.8526C32.4489 22.9316 32.1529 23.0313 31.821 23.1432C30.0814 23.7297 27.3544 24.649 21.9989 24.649C16.6435 24.649 13.9165 23.7297 12.1769 23.1432C11.8446 23.0312 11.5484 22.9314 11.2768 22.8523L10.4095 10.9847C10.3297 9.88582 11.1968 9.05487 12.284 8.94902C14.6097 8.72231 17.031 8.5415 21.999 8.5415ZM11.6923 28.5391L11.6954 28.5808L11.7552 28.5946C11.7338 28.5759 11.7128 28.5574 11.6923 28.5391ZM32.2478 28.5933L32.3017 28.5808L32.3045 28.5428C32.2859 28.5595 32.267 28.5763 32.2478 28.5933Z" fill="black"/>
</svg>
