<svg width="44" height="44" viewBox="0 0 44 44" fill="none" xmlns="http://www.w3.org/2000/svg">
<path d="M0.25 12.88C0.25 10.5978 0.250201 8.90151 0.361729 7.55854C0.473008 6.21855 0.693826 5.25277 1.12255 4.42745C1.85783 3.01196 3.01196 1.85783 4.42745 1.12255C5.25277 0.693826 6.21855 0.473008 7.55854 0.361729C8.90151 0.250201 10.5978 0.25 12.88 0.25H31.12C33.4022 0.25 35.0985 0.250201 36.4415 0.361729C37.7814 0.473008 38.7472 0.693826 39.5726 1.12255C40.988 1.85783 42.1422 3.01196 42.8775 4.42745C43.3062 5.25277 43.527 6.21855 43.6383 7.55854C43.7498 8.90151 43.75 10.5978 43.75 12.88V31.12C43.75 33.4022 43.7498 35.0985 43.6383 36.4415C43.527 37.7814 43.3062 38.7472 42.8775 39.5726C42.1422 40.988 40.988 42.1422 39.5726 42.8775C38.7472 43.3062 37.7814 43.527 36.4415 43.6383C35.0985 43.7498 33.4022 43.75 31.12 43.75H12.88C10.5978 43.75 8.90151 43.7498 7.55854 43.6383C6.21855 43.527 5.25277 43.3062 4.42745 42.8775C3.01196 42.1422 1.85783 40.988 1.12255 39.5726C0.693826 38.7472 0.473008 37.7814 0.361729 36.4415C0.250201 35.0985 0.25 33.4022 0.25 31.12V12.88Z" stroke="#D9D9D9" stroke-width="0.5"/>
<path d="M30.588 9.20667L24.6412 18.0417C24.23 18.6433 25.0208 19.3717 25.5902 18.865L31.442 13.7667C31.6002 13.64 31.8216 13.735 31.8216 13.9567V29.885C31.8216 30.1067 31.5369 30.2017 31.4104 30.0433L13.6967 8.82667C13.1274 8.13 12.3049 7.75 11.3876 7.75H10.755C9.11016 7.75 7.75 9.11167 7.75 10.79V33.21C7.75 34.8883 9.11016 36.25 10.7866 36.25C11.8305 36.25 12.811 35.7117 13.3804 34.7933L19.3271 25.9583C19.7383 25.3567 18.9476 24.6283 18.3782 25.135L12.5264 30.2017C12.3682 30.3283 12.1468 30.2333 12.1468 30.0117V14.115C12.1468 13.8933 12.4315 13.7983 12.558 13.9567L30.2716 35.1733C30.841 35.87 31.6951 36.25 32.5807 36.25H33.2134C34.8898 36.25 36.25 34.8883 36.25 33.21V10.79C36.25 9.11167 34.8898 7.75 33.2134 7.75C32.1379 7.75 31.1573 8.28833 30.588 9.20667Z" fill="black"/>
</svg>
