<svg width="44" height="44" viewBox="0 0 44 44" fill="none" xmlns="http://www.w3.org/2000/svg">
<path d="M0.25 12.88C0.25 10.5978 0.250201 8.90151 0.361729 7.55854C0.473008 6.21855 0.693826 5.25277 1.12255 4.42745C1.85783 3.01196 3.01196 1.85783 4.42745 1.12255C5.25277 0.693826 6.21855 0.473008 7.55854 0.361729C8.90151 0.250201 10.5978 0.25 12.88 0.25H31.12C33.4022 0.25 35.0985 0.250201 36.4415 0.361729C37.7814 0.473008 38.7472 0.693826 39.5726 1.12255C40.988 1.85783 42.1422 3.01196 42.8775 4.42745C43.3062 5.25277 43.527 6.21855 43.6383 7.55854C43.7498 8.90151 43.75 10.5978 43.75 12.88V31.12C43.75 33.4022 43.7498 35.0985 43.6383 36.4415C43.527 37.7814 43.3062 38.7472 42.8775 39.5726C42.1422 40.988 40.988 42.1422 39.5726 42.8775C38.7472 43.3062 37.7814 43.527 36.4415 43.6383C35.0985 43.7498 33.4022 43.75 31.12 43.75H12.88C10.5978 43.75 8.90151 43.7498 7.55854 43.6383C6.21855 43.527 5.25277 43.3062 4.42745 42.8775C3.01196 42.1422 1.85783 40.988 1.12255 39.5726C0.693826 38.7472 0.473008 37.7814 0.361729 36.4415C0.250201 35.0985 0.25 33.4022 0.25 31.12V12.88Z" stroke="#D9D9D9" stroke-width="0.5"/>
<path fill-rule="evenodd" clip-rule="evenodd" d="M34.5804 13.0459C35.3984 13.5566 35.9127 14.4373 35.9554 15.4007L35.9549 28.5609C35.924 29.4202 35.514 30.2218 34.8352 30.7499L22.95 37.6327C22.6106 37.7656 22.2493 37.8335 21.8848 37.8331C21.4874 37.836 21.0939 37.755 20.7299 37.5955C20.6968 37.5794 20.6121 37.5324 20.488 37.4636C20.4655 37.4511 20.4418 37.438 20.4169 37.4242C20.3117 37.3651 20.1835 37.2924 20.0396 37.2107L15.6887 34.7058L16.6776 33.0286L21.5188 35.8131C21.7418 35.9018 21.9891 35.9068 22.2154 35.8269L26.3074 33.4554L30.3424 31.117L31.4707 30.4626L33.6597 29.1948C33.6697 29.1864 33.6795 29.1778 33.6891 29.169C33.6797 29.1773 33.6701 29.1853 33.6603 29.1932L31.4714 30.461L25.4203 20.6748L27.7472 16.7295L33.997 26.4638V15.4741C33.9821 15.1586 33.8147 14.8699 33.548 14.7005L22.2631 8.20918C21.99 8.07942 21.6727 8.081 21.4008 8.21324C21.3651 8.23107 10.1542 14.7203 10.1023 14.7576C9.86517 14.9282 9.71668 15.1963 9.69818 15.4878L9.7133 25.9935L7.75 29.0113V15.3951C7.79446 14.5064 8.24353 13.687 8.9686 13.1714C9.10671 13.0725 9.25316 12.9859 9.40639 12.9123C9.40639 12.9123 20.4291 6.51939 20.5245 6.47132C21.3516 6.0649 22.3206 6.0649 23.1477 6.47132L34.5804 13.0459ZM7.75232 30.133L7.75119 30.1323L7.75232 30.1332V30.133ZM7.75232 30.133L10.8408 31.9126L21.1221 15.4245L19.3773 15.3794C17.8906 15.3584 16.2891 15.7448 15.5541 16.9449L9.71561 25.9941L7.75232 29.0119V30.133ZM21.9403 26.5984L26.3083 33.4537L30.3432 31.1154L24.607 22.074L21.9403 26.5984ZM27.056 15.4242L22.4574 15.4409L12.0528 32.6103L15.6894 34.7043L16.6783 33.0269L27.056 15.4242Z" fill="black"/>
</svg>
