<svg width="44" height="44" viewBox="0 0 44 44" fill="none" xmlns="http://www.w3.org/2000/svg">
<path d="M0.25 12.88C0.25 10.5978 0.250201 8.90151 0.361729 7.55854C0.473008 6.21855 0.693826 5.25277 1.12255 4.42745C1.85783 3.01196 3.01196 1.85783 4.42745 1.12255C5.25277 0.693826 6.21855 0.473008 7.55854 0.361729C8.90151 0.250201 10.5978 0.25 12.88 0.25H31.12C33.4022 0.25 35.0985 0.250201 36.4415 0.361729C37.7814 0.473008 38.7472 0.693826 39.5726 1.12255C40.988 1.85783 42.1422 3.01196 42.8775 4.42745C43.3062 5.25277 43.527 6.21855 43.6383 7.55854C43.7498 8.90151 43.75 10.5978 43.75 12.88V31.12C43.75 33.4022 43.7498 35.0985 43.6383 36.4415C43.527 37.7814 43.3062 38.7472 42.8775 39.5726C42.1422 40.988 40.988 42.1422 39.5726 42.8775C38.7472 43.3062 37.7814 43.527 36.4415 43.6383C35.0985 43.7498 33.4022 43.75 31.12 43.75H12.88C10.5978 43.75 8.90151 43.7498 7.55854 43.6383C6.21855 43.527 5.25277 43.3062 4.42745 42.8775C3.01196 42.1422 1.85783 40.988 1.12255 39.5726C0.693826 38.7472 0.473008 37.7814 0.361729 36.4415C0.250201 35.0985 0.25 33.4022 0.25 31.12V12.88Z" stroke="#D9D9D9" stroke-width="0.5"/>
<path d="M37.168 30.7336L31.7417 23.353C31.1521 22.5511 30.2793 22.0706 29.3497 21.9647C29.138 21.9401 28.9492 21.8171 28.8433 21.6317C28.7357 21.4463 28.7243 21.2212 28.8094 21.0246C29.1815 20.1658 29.2041 19.169 28.8036 18.2573L25.1326 9.86287C24.5884 8.61638 23.3584 7.8125 21.9999 7.8125C20.6415 7.8125 19.4116 8.61828 18.8674 9.86287L15.1963 18.2573C14.7976 19.169 14.8184 20.1658 15.1906 21.0246C15.2757 21.2212 15.2624 21.4463 15.1566 21.6317C15.0489 21.8171 14.8619 21.9401 14.6503 21.9647C13.7207 22.0706 12.8478 22.5511 12.2583 23.353L6.83201 30.7336C6.02713 31.8288 5.94589 33.2966 6.62417 34.475C7.30435 35.6515 8.61558 36.3153 9.96461 36.1659L19.062 35.1521C20.0502 35.0424 20.9022 34.526 21.4578 33.7732C21.5843 33.6012 21.7864 33.499 21.9999 33.499C22.2134 33.499 22.4137 33.6012 22.5422 33.7732C23.0977 34.526 23.9498 35.0424 24.938 35.1521L34.0353 36.1659C35.3844 36.3173 36.6957 35.6533 37.3758 34.475C38.054 33.2966 37.9728 31.8288 37.168 30.7336ZM17.5694 19.3108L21.2461 10.907C21.3783 10.6062 21.675 10.4114 22.0018 10.4114C22.3287 10.4114 22.6253 10.6062 22.7576 10.907L26.4344 19.3108C26.5497 19.5757 26.5251 19.8821 26.3664 20.1242C26.2076 20.3663 25.9394 20.512 25.6483 20.512H18.3535C18.0644 20.512 17.7942 20.3663 17.6355 20.1242C17.4768 19.8821 17.4522 19.5757 17.5675 19.3108H17.5694ZM19.4568 32.1049C19.3265 32.364 19.0733 32.5382 18.7862 32.5703L9.6793 33.584C9.35433 33.62 9.03691 33.4611 8.87254 33.1774C8.70816 32.8937 8.72894 32.54 8.92355 32.2752L14.3555 24.887C14.5275 24.6544 14.8033 24.5219 15.0924 24.5389C15.3815 24.554 15.6422 24.7148 15.7877 24.9664L15.7934 24.9759L19.4304 31.2821L19.4361 31.2916C19.5816 31.5431 19.5891 31.8496 19.4588 32.1068L19.4568 32.1049ZM22.7481 29.2526C22.5932 29.5193 22.3099 29.6857 21.9999 29.6857C21.692 29.6857 21.4068 29.5212 21.2517 29.2544L18.4574 24.4104C18.3024 24.1436 18.3024 23.8126 18.4574 23.5459C18.6123 23.2793 18.8957 23.1127 19.2056 23.1127H24.7924C25.1005 23.1127 25.3857 23.2754 25.5408 23.544C25.6955 23.8126 25.6955 24.1418 25.5408 24.4085L22.7481 29.2526ZM35.1293 33.1774C34.9649 33.4611 34.6493 33.6219 34.3225 33.5859L25.2157 32.5721C24.9285 32.54 24.6754 32.366 24.545 32.1068C24.4147 31.8477 24.4222 31.5412 24.5677 31.2916L24.5733 31.2821L28.2103 24.9759L28.2161 24.9664C28.3615 24.7148 28.6222 24.554 28.9113 24.5389C29.2004 24.5238 29.4762 24.6544 29.6481 24.887L35.0802 32.2752C35.2747 32.54 35.2937 32.8937 35.1312 33.1774H35.1293Z" fill="black"/>
</svg>
