<svg width="44" height="44" viewBox="0 0 44 44" fill="none" xmlns="http://www.w3.org/2000/svg">
<path d="M0.25 12.88C0.25 10.5978 0.250201 8.90151 0.361729 7.55854C0.473008 6.21855 0.693826 5.25277 1.12255 4.42745C1.85783 3.01196 3.01196 1.85783 4.42745 1.12255C5.25277 0.693826 6.21855 0.473008 7.55854 0.361729C8.90151 0.250201 10.5978 0.25 12.88 0.25H31.12C33.4022 0.25 35.0985 0.250201 36.4415 0.361729C37.7814 0.473008 38.7472 0.693826 39.5726 1.12255C40.988 1.85783 42.1422 3.01196 42.8775 4.42745C43.3062 5.25277 43.527 6.21855 43.6383 7.55854C43.7498 8.90151 43.75 10.5978 43.75 12.88V31.12C43.75 33.4022 43.7498 35.0985 43.6383 36.4415C43.527 37.7814 43.3062 38.7472 42.8775 39.5726C42.1422 40.988 40.988 42.1422 39.5726 42.8775C38.7472 43.3062 37.7814 43.527 36.4415 43.6383C35.0985 43.7498 33.4022 43.75 31.12 43.75H12.88C10.5978 43.75 8.90151 43.7498 7.55854 43.6383C6.21855 43.527 5.25277 43.3062 4.42745 42.8775C3.01196 42.1422 1.85783 40.988 1.12255 39.5726C0.693826 38.7472 0.473008 37.7814 0.361729 36.4415C0.250201 35.0985 0.25 33.4022 0.25 31.12V12.88Z" stroke="#D9D9D9" stroke-width="0.5"/>
<path d="M28.0807 22.0013C28.0807 19.78 26.9093 17.7865 25.0686 16.6474L24.9572 16.5904C23.1165 15.5083 20.8294 15.5083 18.9887 16.5904L18.8772 16.6474C16.9807 17.7296 15.8651 19.78 15.8651 22.0013C15.8651 24.2226 17.0365 26.2161 18.8772 27.3552L18.9887 27.4123C20.8294 28.4944 23.1165 28.4944 24.9572 27.4123L25.0686 27.3552C26.9652 26.2731 28.0807 24.2226 28.0807 22.0013Z" fill="black"/>
<path fill-rule="evenodd" clip-rule="evenodd" d="M22.4365 34.388L25.2369 35.9277L22.0025 37.8332L8.39819 29.9125V19.1593L11.6167 17.2633V28.0433L22.4365 34.388ZM22.0025 6.1665L31.2508 11.6147V15.3401L21.9987 9.92357L14.9144 14.0496L8.39819 17.8415V14.0871L22.0025 6.1665ZM32.3831 12.1941L35.6017 14.0901V29.9109L26.3494 35.3276L23.1546 33.4456L32.3831 28.0428V12.1941Z" fill="black"/>
</svg>
