<svg width="44" height="44" viewBox="0 0 44 44" fill="none" xmlns="http://www.w3.org/2000/svg">
<path d="M0.25 12.88C0.25 10.5978 0.250201 8.90151 0.361729 7.55854C0.473008 6.21855 0.693826 5.25277 1.12255 4.42745C1.85783 3.01196 3.01196 1.85783 4.42745 1.12255C5.25277 0.693826 6.21855 0.473008 7.55854 0.361729C8.90151 0.250201 10.5978 0.25 12.88 0.25H31.12C33.4022 0.25 35.0985 0.250201 36.4415 0.361729C37.7814 0.473008 38.7472 0.693826 39.5726 1.12255C40.988 1.85783 42.1422 3.01196 42.8775 4.42745C43.3062 5.25277 43.527 6.21855 43.6383 7.55854C43.7498 8.90151 43.75 10.5978 43.75 12.88V31.12C43.75 33.4022 43.7498 35.0985 43.6383 36.4415C43.527 37.7814 43.3062 38.7472 42.8775 39.5726C42.1422 40.988 40.988 42.1422 39.5726 42.8775C38.7472 43.3062 37.7814 43.527 36.4415 43.6383C35.0985 43.7498 33.4022 43.75 31.12 43.75H12.88C10.5978 43.75 8.90151 43.7498 7.55854 43.6383C6.21855 43.527 5.25277 43.3062 4.42745 42.8775C3.01196 42.1422 1.85783 40.988 1.12255 39.5726C0.693826 38.7472 0.473008 37.7814 0.361729 36.4415C0.250201 35.0985 0.25 33.4022 0.25 31.12V12.88Z" stroke="#D9D9D9" stroke-width="0.5"/>
<path d="M33.3008 10.9248C31.9713 9.56849 30.3985 8.45419 28.6567 7.64294C28.5859 7.60652 28.5138 7.57334 28.4394 7.54219C28.0971 7.38925 27.7511 7.24358 27.3967 7.11492C26.405 6.75441 25.3672 6.49141 24.2949 6.33482C23.5452 6.22558 22.7792 6.1665 22 6.1665C13.2696 6.1665 6.16663 13.2691 6.16663 21.9998C6.16663 28.8014 10.4782 34.6141 16.5114 36.8508C17.2211 37.1138 17.9546 37.3266 18.7076 37.4864C19.7701 37.7122 20.8711 37.8332 21.9996 37.8332C28.0133 37.8332 33.2543 34.4623 35.934 29.5111C37.1442 27.2748 37.8329 24.7164 37.8329 21.9998C37.8329 17.6919 36.1019 13.7825 33.3008 10.9248ZM10.8893 30.4704C9.01834 28.0027 8.02947 25.0587 8.02947 21.9565C8.02947 16.6593 10.9661 12.0358 15.2967 9.62797C15.4112 9.56404 15.5245 9.71618 15.429 9.806C15.0333 10.1787 14.6538 10.5768 14.2909 11.0008C11.781 13.9363 10.335 17.9282 10.3224 21.9565C10.3224 27.1866 13.8207 32.8313 19.4727 32.8313C24.5167 32.8313 28.6198 27.9529 28.6198 21.9565C28.6198 19.1392 27.6755 16.434 26.0627 14.4263C26.0056 14.3555 26.0732 14.2551 26.1602 14.2806C28.8865 15.087 30.9253 18.2224 30.9253 21.9565C30.9253 25.2533 29.7293 28.5352 27.6435 30.9616C25.4817 33.4763 22.5798 34.8621 19.4727 34.8633C16.2006 34.8633 13.0697 33.2586 10.8893 30.4704ZM33.3615 13.4512C35.2308 15.9128 36.2173 18.8523 36.2144 21.9537C36.2144 27.2505 33.2777 31.8744 28.9468 34.2823C28.8323 34.3462 28.719 34.1941 28.8145 34.1043C29.2102 33.7316 29.5897 33.3331 29.9526 32.9094C32.4625 29.9744 33.9085 25.982 33.9211 21.9537C33.9211 16.7237 30.4228 11.0789 24.7707 11.0789C19.7268 11.0789 15.6237 15.9573 15.6237 21.9537C15.6237 24.771 16.5684 27.4767 18.1812 29.4844C18.2379 29.5552 18.1707 29.6555 18.0837 29.63C15.357 28.824 13.3182 25.6895 13.3182 21.9569C13.3182 18.661 14.5142 15.3796 16.6004 12.9539C18.7631 10.4388 21.6657 9.05342 24.774 9.05342C28.0437 9.05342 31.1734 10.6565 33.3615 13.4512ZM26.965 21.9569C26.965 25.6919 25.1507 28.9151 22.5502 30.3624C22.2282 30.5416 21.8312 30.5194 21.533 30.3021L20.9767 29.8963C18.6959 28.2321 17.2789 25.1886 17.2789 21.9541C17.2789 18.2195 19.0932 14.9964 21.6941 13.5491C22.0165 13.3698 22.4135 13.3921 22.7113 13.6094L23.2672 14.0152C25.548 15.6794 26.965 18.7221 26.965 21.9569Z" fill="black"/>
</svg>
