<svg width="44" height="44" viewBox="0 0 44 44" fill="none" xmlns="http://www.w3.org/2000/svg">
<path d="M0.25 12.88C0.25 10.5978 0.250201 8.90151 0.361729 7.55854C0.473008 6.21855 0.693826 5.25277 1.12255 4.42745C1.85783 3.01196 3.01196 1.85783 4.42745 1.12255C5.25277 0.693826 6.21855 0.473008 7.55854 0.361729C8.90151 0.250201 10.5978 0.25 12.88 0.25H31.12C33.4022 0.25 35.0985 0.250201 36.4415 0.361729C37.7814 0.473008 38.7472 0.693826 39.5726 1.12255C40.988 1.85783 42.1422 3.01196 42.8775 4.42745C43.3062 5.25277 43.527 6.21855 43.6383 7.55854C43.7498 8.90151 43.75 10.5978 43.75 12.88V31.12C43.75 33.4022 43.7498 35.0985 43.6383 36.4415C43.527 37.7814 43.3062 38.7472 42.8775 39.5726C42.1422 40.988 40.988 42.1422 39.5726 42.8775C38.7472 43.3062 37.7814 43.527 36.4415 43.6383C35.0985 43.7498 33.4022 43.75 31.12 43.75H12.88C10.5978 43.75 8.90151 43.7498 7.55854 43.6383C6.21855 43.527 5.25277 43.3062 4.42745 42.8775C3.01196 42.1422 1.85783 40.988 1.12255 39.5726C0.693826 38.7472 0.473008 37.7814 0.361729 36.4415C0.250201 35.0985 0.25 33.4022 0.25 31.12V12.88Z" stroke="#D9D9D9" stroke-width="0.5"/>
<path d="M10.657 9.55951L22.5377 21.4618C22.6785 21.6043 22.7577 21.7968 22.7577 21.9974C22.7577 22.198 22.6785 22.3905 22.5377 22.533C22.4649 22.6082 22.3773 22.667 22.2803 22.7059C22.1833 22.7448 22.0792 22.7627 21.9749 22.7586H10.1167C10.0167 22.7593 9.91756 22.7402 9.82504 22.7022C9.73252 22.6642 9.64849 22.6081 9.57779 22.5372C9.50708 22.4665 9.45113 22.3822 9.41321 22.2896C9.3753 22.1969 9.35616 22.0976 9.35691 21.9974V10.0895C9.35793 9.93903 9.40343 9.79224 9.48768 9.66767C9.57194 9.5431 9.69117 9.44635 9.8303 9.38963C9.96942 9.33291 10.1222 9.31879 10.2694 9.34902C10.4165 9.37926 10.5514 9.4525 10.657 9.55951Z" fill="black"/>
<path d="M33.3436 34.4353L21.4629 22.533C21.322 22.3905 21.243 22.198 21.243 21.9974C21.243 21.7967 21.322 21.6043 21.4629 21.4617C21.5371 21.389 21.6252 21.332 21.7219 21.2943C21.8186 21.2565 21.9219 21.2386 22.0257 21.2419H33.912C34.112 21.2419 34.3038 21.3215 34.4453 21.4632C34.5867 21.6049 34.6662 21.797 34.6662 21.9974V33.9052C34.667 34.005 34.648 34.1038 34.6104 34.1961C34.5728 34.2884 34.5173 34.3724 34.4473 34.4431C34.3772 34.5139 34.2938 34.57 34.2019 34.6084C34.1101 34.6467 34.0115 34.6665 33.912 34.6665C33.8075 34.6682 33.7037 34.6486 33.6069 34.6088C33.5102 34.569 33.4225 34.51 33.3492 34.4353" fill="black"/>
<path d="M22.5377 22.533L10.6563 34.4356C10.5833 34.5106 10.4956 34.5697 10.3988 34.6095C10.302 34.6493 10.1981 34.6687 10.0935 34.6667C9.99354 34.6674 9.89441 34.6483 9.80189 34.6103C9.70937 34.5723 9.6253 34.5163 9.5546 34.4454C9.4839 34.3746 9.42798 34.2904 9.39006 34.1977C9.35214 34.105 9.33301 34.0057 9.33376 33.9055V21.9977C9.33376 21.8979 9.35343 21.7992 9.39168 21.7072C9.42993 21.6152 9.486 21.5316 9.55663 21.4614C9.62725 21.3912 9.71105 21.3356 9.8032 21.298C9.89534 21.2604 9.99402 21.2414 10.0935 21.2422H22.0023C22.1543 21.2357 22.3047 21.2755 22.4336 21.3563C22.5626 21.4371 22.6642 21.555 22.725 21.6946C22.786 21.8343 22.8033 21.989 22.7747 22.1388C22.7462 22.2884 22.6731 22.4259 22.5651 22.5333" fill="black"/>
<path d="M9.58158 33.3699L21.4622 21.4676C21.535 21.3925 21.6226 21.3336 21.7197 21.2948C21.8166 21.2558 21.9213 21.2377 22.0257 21.2419C22.2257 21.2419 22.4169 21.3217 22.5583 21.4634C22.6998 21.6051 22.7793 21.7972 22.7793 21.9976V33.9055C22.7799 34.0052 22.761 34.104 22.7235 34.1963C22.6859 34.2886 22.6304 34.3727 22.5603 34.4434C22.4902 34.5142 22.4069 34.5703 22.315 34.6086C22.2231 34.6469 22.1246 34.6667 22.025 34.6667H10.1162C10.0165 34.6676 9.91758 34.648 9.82564 34.6093C9.73369 34.5705 9.65064 34.5133 9.58158 34.4411C9.51045 34.3713 9.45393 34.288 9.41536 34.196C9.37678 34.104 9.35689 34.0053 9.35689 33.9055C9.35689 33.8057 9.37678 33.707 9.41536 33.615C9.45393 33.523 9.51045 33.4397 9.58158 33.3699Z" fill="black"/>
<path d="M21.4629 21.4617L33.3433 9.55991C33.4169 9.48591 33.5047 9.42773 33.6016 9.38895C33.6983 9.35017 33.8019 9.33161 33.9062 9.33439C34.0052 9.33439 34.1032 9.35392 34.1948 9.39189C34.2862 9.42986 34.3693 9.48552 34.4394 9.55568C34.5094 9.62583 34.565 9.70912 34.6029 9.80078C34.6408 9.89245 34.6603 9.99069 34.6603 10.0899V21.9978C34.6611 22.0975 34.6421 22.1964 34.6045 22.2887C34.5669 22.381 34.5115 22.4649 34.4414 22.5357C34.3713 22.6064 34.2879 22.6626 34.1961 22.7009C34.1042 22.7393 34.0056 22.7589 33.9062 22.7589H22.003C21.8511 22.7637 21.7012 22.7225 21.5728 22.641C21.4445 22.5595 21.3435 22.4413 21.2829 22.3017C21.2223 22.162 21.2048 22.0074 21.2329 21.8577C21.261 21.7081 21.3331 21.5703 21.4402 21.4622" fill="black"/>
<path d="M34.4232 10.6308L22.5424 22.5331C22.4682 22.606 22.3802 22.6635 22.2836 22.7022C22.187 22.741 22.0837 22.7601 21.9796 22.7586C21.8797 22.7594 21.7805 22.7402 21.688 22.7022C21.5955 22.6642 21.5115 22.6081 21.4408 22.5373C21.3701 22.4665 21.3141 22.3822 21.2762 22.2896C21.2383 22.1969 21.2192 22.0976 21.2199 21.9974V10.0895C21.2199 9.98984 21.2396 9.89114 21.2779 9.79911C21.3161 9.70707 21.3722 9.62353 21.4428 9.5533C21.5134 9.48307 21.5972 9.42754 21.6893 9.3899C21.7815 9.35227 21.8802 9.33327 21.9796 9.33402H33.866C33.9699 9.33017 34.0734 9.34769 34.1701 9.38552C34.267 9.42334 34.355 9.48064 34.4288 9.5539C34.5701 9.69738 34.6492 9.89082 34.6492 10.0924C34.6492 10.2939 34.5701 10.4873 34.4288 10.6308" fill="black"/>
</svg>
