<svg width="44" height="44" viewBox="0 0 44 44" fill="none" xmlns="http://www.w3.org/2000/svg">
<path d="M0.25 12.88C0.25 10.5978 0.250201 8.90151 0.361729 7.55854C0.473008 6.21855 0.693826 5.25277 1.12255 4.42745C1.85783 3.01196 3.01196 1.85783 4.42745 1.12255C5.25277 0.693826 6.21855 0.473008 7.55854 0.361729C8.90151 0.250201 10.5978 0.25 12.88 0.25H31.12C33.4022 0.25 35.0985 0.250201 36.4415 0.361729C37.7814 0.473008 38.7472 0.693826 39.5726 1.12255C40.988 1.85783 42.1422 3.01196 42.8775 4.42745C43.3062 5.25277 43.527 6.21855 43.6383 7.55854C43.7498 8.90151 43.75 10.5978 43.75 12.88V31.12C43.75 33.4022 43.7498 35.0985 43.6383 36.4415C43.527 37.7814 43.3062 38.7472 42.8775 39.5726C42.1422 40.988 40.988 42.1422 39.5726 42.8775C38.7472 43.3062 37.7814 43.527 36.4415 43.6383C35.0985 43.7498 33.4022 43.75 31.12 43.75H12.88C10.5978 43.75 8.90151 43.7498 7.55854 43.6383C6.21855 43.527 5.25277 43.3062 4.42745 42.8775C3.01196 42.1422 1.85783 40.988 1.12255 39.5726C0.693826 38.7472 0.473008 37.7814 0.361729 36.4415C0.250201 35.0985 0.25 33.4022 0.25 31.12V12.88Z" stroke="#D9D9D9" stroke-width="0.5"/>
<path fill-rule="evenodd" clip-rule="evenodd" d="M21.3387 30.9046C21.4536 31.0288 21.6205 31.0957 21.7926 31.0861L25.4249 31.0866C25.6105 31.0838 25.789 31.0197 25.9319 30.9052C26.0865 30.7912 26.191 30.624 26.2236 30.438L27.4518 24.7555H31.0555C33.3875 24.7555 35.2206 24.2798 36.5554 23.3284C37.9942 22.2409 38.9574 20.6652 39.252 18.9171C39.3559 18.4743 39.4101 18.0218 39.4125 17.5676C39.4772 16.1864 38.787 14.8738 37.5969 14.1163C36.1739 13.2596 34.5164 12.8428 32.8443 12.9228H25.7423C25.5568 12.9256 25.3777 12.9897 25.2347 13.1042C25.0801 13.2182 24.9757 13.3854 24.943 13.5714L21.2587 30.4374C21.2214 30.5973 21.25 30.7652 21.3387 30.9046ZM33.1932 20.5773C32.6284 20.9793 31.9435 21.1885 31.244 21.1738H28.174L29.1886 16.5295H32.3922C32.9435 16.4767 33.4948 16.6247 33.9406 16.9445C34.2591 17.2405 34.4254 17.6589 34.3945 18.0864C34.391 18.3478 34.3641 18.6081 34.3145 18.8649C34.1739 19.5516 33.7743 20.1628 33.1932 20.5773ZM6.47623 29.6667C7.9153 30.6585 9.63692 31.1541 11.3816 31.0797C13.7964 31.0797 15.7247 30.5162 17.166 29.3893C18.6089 28.2453 19.623 26.5214 20.2096 24.2174C20.5614 22.8044 20.8631 21.3494 21.1149 19.8526C21.1902 19.411 21.232 18.9639 21.2408 18.5157C21.271 17.4389 20.9632 16.3798 20.3613 15.4878C19.7643 14.6222 18.9238 13.9546 17.9465 13.5703C16.8455 13.1177 15.6648 12.8949 14.4752 12.9142C9.72981 12.9142 6.7868 15.227 5.64621 19.8526C5.24384 21.5496 4.93382 23.0045 4.71559 24.2174C4.63919 24.6678 4.59741 25.1232 4.58971 25.5797C4.50836 27.1708 5.21415 28.6996 6.47623 29.6667ZM14.124 26.614C13.455 27.1747 12.6052 27.4708 11.734 27.4465C10.1239 27.4465 9.31865 26.673 9.31865 25.1254C9.31755 24.7698 9.35108 24.4148 9.41924 24.0658C9.72102 22.4344 10.0228 21.055 10.3246 19.9281C10.5148 18.9512 11.0078 18.0592 11.7334 17.3799C12.4134 16.8215 13.2698 16.5265 14.1482 16.5474C15.7412 16.5469 16.5377 17.3121 16.5377 18.8431C16.5382 19.207 16.5047 19.5703 16.4371 19.9281C16.2364 21.1063 15.9435 22.4852 15.5576 24.0658C15.3657 25.0477 14.8633 25.9419 14.124 26.614Z" fill="black"/>
</svg>
