<svg width="44" height="44" viewBox="0 0 44 44" fill="none" xmlns="http://www.w3.org/2000/svg">
<path d="M0.25 12.88C0.25 10.5978 0.250201 8.90151 0.361729 7.55854C0.473008 6.21855 0.693826 5.25277 1.12255 4.42745C1.85783 3.01196 3.01196 1.85783 4.42745 1.12255C5.25277 0.693826 6.21855 0.473008 7.55854 0.361729C8.90151 0.250201 10.5978 0.25 12.88 0.25H31.12C33.4022 0.25 35.0985 0.250201 36.4415 0.361729C37.7814 0.473008 38.7472 0.693826 39.5726 1.12255C40.988 1.85783 42.1422 3.01196 42.8775 4.42745C43.3062 5.25277 43.527 6.21855 43.6383 7.55854C43.7498 8.90151 43.75 10.5978 43.75 12.88V31.12C43.75 33.4022 43.7498 35.0985 43.6383 36.4415C43.527 37.7814 43.3062 38.7472 42.8775 39.5726C42.1422 40.988 40.988 42.1422 39.5726 42.8775C38.7472 43.3062 37.7814 43.527 36.4415 43.6383C35.0985 43.7498 33.4022 43.75 31.12 43.75H12.88C10.5978 43.75 8.90151 43.7498 7.55854 43.6383C6.21855 43.527 5.25277 43.3062 4.42745 42.8775C3.01196 42.1422 1.85783 40.988 1.12255 39.5726C0.693826 38.7472 0.473008 37.7814 0.361729 36.4415C0.250201 35.0985 0.25 33.4022 0.25 31.12V12.88Z" stroke="#D9D9D9" stroke-width="0.5"/>
<path fill-rule="evenodd" clip-rule="evenodd" d="M22 6.1665L13.5894 11.0169L16.6815 12.8069L21.9986 9.74926L27.3184 12.8069L30.4105 11.0169L22 6.1665Z" fill="black"/>
<path fill-rule="evenodd" clip-rule="evenodd" d="M27.3171 15.3423L30.4105 17.1337V20.7177L25.0921 23.7767V29.8947L22 31.6861L18.9078 29.8947V23.7767L13.5894 20.7177V17.1337L16.6815 15.3423L21.9986 18.4013L27.3184 15.3423H27.3171Z" fill="black"/>
<path fill-rule="evenodd" clip-rule="evenodd" d="M30.4108 23.2515V26.8355L27.3186 28.6269V25.0428L30.4108 23.2528V23.2515Z" fill="black"/>
<path fill-rule="evenodd" clip-rule="evenodd" d="M27.2878 31.1613L32.605 28.1022V21.9856L35.6984 20.1929V29.895L27.2878 34.7453V31.1613Z" fill="black"/>
<path fill-rule="evenodd" clip-rule="evenodd" d="M32.605 15.8673L29.5142 14.0759L32.6063 12.2832L35.6985 14.0759V17.66L32.6063 19.4514V15.8673H32.605Z" fill="black"/>
<path fill-rule="evenodd" clip-rule="evenodd" d="M18.9089 36.0429V32.4575L22.0011 34.2489L25.0932 32.4575V36.0416L22.0011 37.833L18.9089 36.0416V36.0429Z" fill="black"/>
<path fill-rule="evenodd" clip-rule="evenodd" d="M16.6789 28.6256L13.5894 26.8355V23.2515L16.6815 25.0428V28.6269L16.6789 28.6256Z" fill="black"/>
<path fill-rule="evenodd" clip-rule="evenodd" d="M21.9989 15.866L18.9067 14.0759L21.9989 12.2832L25.091 14.0759L21.9989 15.8673V15.866Z" fill="black"/>
<path fill-rule="evenodd" clip-rule="evenodd" d="M14.4858 14.0759L11.3937 15.8673V19.4514L8.30151 17.66V14.0759L11.3937 12.2832L14.4858 14.0759Z" fill="black"/>
<path fill-rule="evenodd" clip-rule="evenodd" d="M8.30151 20.1929L11.3937 21.9856V28.1022L16.7108 31.1613V34.7453L8.30284 29.895V20.1929H8.30151Z" fill="black"/>
</svg>
