<svg width="44" height="44" viewBox="0 0 44 44" fill="none" xmlns="http://www.w3.org/2000/svg">
<path d="M0.25 12.88C0.25 10.5978 0.250201 8.90151 0.361729 7.55854C0.473008 6.21855 0.693826 5.25277 1.12255 4.42745C1.85783 3.01196 3.01196 1.85783 4.42745 1.12255C5.25277 0.693826 6.21855 0.473008 7.55854 0.361729C8.90151 0.250201 10.5978 0.25 12.88 0.25H31.12C33.4022 0.25 35.0985 0.250201 36.4415 0.361729C37.7814 0.473008 38.7472 0.693826 39.5726 1.12255C40.988 1.85783 42.1422 3.01196 42.8775 4.42745C43.3062 5.25277 43.527 6.21855 43.6383 7.55854C43.7498 8.90151 43.75 10.5978 43.75 12.88V31.12C43.75 33.4022 43.7498 35.0985 43.6383 36.4415C43.527 37.7814 43.3062 38.7472 42.8775 39.5726C42.1422 40.988 40.988 42.1422 39.5726 42.8775C38.7472 43.3062 37.7814 43.527 36.4415 43.6383C35.0985 43.7498 33.4022 43.75 31.12 43.75H12.88C10.5978 43.75 8.90151 43.7498 7.55854 43.6383C6.21855 43.527 5.25277 43.3062 4.42745 42.8775C3.01196 42.1422 1.85783 40.988 1.12255 39.5726C0.693826 38.7472 0.473008 37.7814 0.361729 36.4415C0.250201 35.0985 0.25 33.4022 0.25 31.12V12.88Z" stroke="#D9D9D9" stroke-width="0.5"/>
<path fill-rule="evenodd" clip-rule="evenodd" d="M23.9094 17.1464L29.638 13.8047V20.4881L23.9094 17.1464ZM29.638 31.468L21.9999 35.9236L14.3617 31.468V23.6707L21.9999 28.1263L29.638 23.6707V31.468ZM14.3617 13.8047L20.0903 17.1464L14.3617 20.4881V13.8047ZM22.9546 18.7377L28.6833 22.0794L22.9546 25.4211V18.7377ZM21.0451 25.4211L15.3164 22.0794L21.0451 18.7377V25.4211ZM28.6833 12.2134L21.9999 16.0325L15.3164 12.2134L21.9999 8.23518L28.6833 12.2134ZM12.4521 11.5769V32.4228L21.9999 37.8332L31.5476 32.4228V11.5769L21.9999 6.1665L12.4521 11.5769ZM35.5417 12.834H33.6322C33.6322 11.2109 32.6615 9.74691 31.1657 9.1263L31.9136 7.35997C34.1255 8.28292 35.5417 10.4312 35.5417 12.834ZM8.45801 31.3248C8.45801 33.7117 9.87426 35.86 12.0861 36.7988L12.8341 35.0325C11.3382 34.4119 10.3676 32.9479 10.3676 31.3248H8.45801Z" fill="black"/>
</svg>
