<svg width="44" height="44" viewBox="0 0 44 44" fill="none" xmlns="http://www.w3.org/2000/svg">
<path d="M12.88 0.25H31.12C33.4022 0.25 35.0985 0.250201 36.4415 0.361729C37.7814 0.473008 38.7472 0.693826 39.5726 1.12255C40.988 1.85783 42.1422 3.01196 42.8775 4.42745C43.3062 5.25277 43.527 6.21855 43.6383 7.55854C43.7498 8.90151 43.75 10.5978 43.75 12.88V31.12C43.75 33.4022 43.7498 35.0985 43.6383 36.4415C43.527 37.7814 43.3062 38.7472 42.8775 39.5726C42.1422 40.988 40.988 42.1422 39.5726 42.8775C38.7472 43.3062 37.7814 43.527 36.4415 43.6383C35.0985 43.7498 33.4022 43.75 31.12 43.75H12.88C10.5978 43.75 8.90151 43.7498 7.55854 43.6383C6.21855 43.527 5.25277 43.3062 4.42745 42.8775C3.01196 42.1422 1.85783 40.988 1.12255 39.5726C0.693826 38.7472 0.473008 37.7814 0.361729 36.4415C0.250201 35.0985 0.25 33.4022 0.25 31.12V12.88C0.25 10.5978 0.250201 8.90151 0.361729 7.55854C0.473008 6.21855 0.693826 5.25277 1.12255 4.42745C1.85783 3.01196 3.01196 1.85783 4.42745 1.12255C5.25277 0.693826 6.21855 0.473008 7.55854 0.361729C8.90151 0.250201 10.5978 0.25 12.88 0.25Z" stroke="#D9D9D9" stroke-width="0.5"/>
<path fill-rule="evenodd" clip-rule="evenodd" d="M22 37.8332C30.7445 37.8332 37.8333 30.7444 37.8333 21.9998C37.8333 13.2553 30.7445 6.1665 22 6.1665C13.2554 6.1665 6.16663 13.2553 6.16663 21.9998C6.16663 25.985 7.63893 29.6263 10.0693 32.4095L18.5422 24.553C18.6355 24.3965 18.7072 24.2273 18.7548 24.0499L18.9049 23.4897L14.3068 22.8062C13.7677 22.7261 13.7677 21.9486 14.3068 21.8685L18.4137 21.2581L13.6598 14.8442C13.3352 14.4064 13.885 13.8567 14.3228 14.1812L20.7379 18.9361L21.3487 14.8265C21.4288 14.2875 22.2064 14.2875 22.2865 14.8265L22.897 18.934L29.3093 14.1812C29.7472 13.8567 30.2969 14.4064 29.9724 14.8442L25.2188 21.2577L29.3284 21.8685C29.8675 21.9486 29.8675 22.7261 29.3284 22.8062L25.2186 23.4171L29.9724 29.8308C30.2969 30.2686 29.7472 30.8184 29.3093 30.4938L22.8969 25.741L22.2865 29.8482C22.2064 30.3873 21.4288 30.3873 21.3487 29.8482L20.6651 25.2483L20.0133 25.4229C19.926 25.4463 19.8423 25.4802 19.764 25.5236L11.8158 34.1238C14.5688 36.4387 18.1215 37.8332 22 37.8332Z" fill="black"/>
</svg>
