<svg width="44" height="44" viewBox="0 0 44 44" fill="none" xmlns="http://www.w3.org/2000/svg">
<path d="M12.88 0.25H31.12C33.4022 0.25 35.0985 0.250201 36.4415 0.361729C37.7814 0.473008 38.7472 0.693826 39.5726 1.12255C40.988 1.85783 42.1422 3.01196 42.8775 4.42745C43.3062 5.25277 43.527 6.21855 43.6383 7.55854C43.7498 8.90151 43.75 10.5978 43.75 12.88V31.12C43.75 33.4022 43.7498 35.0985 43.6383 36.4415C43.527 37.7814 43.3062 38.7472 42.8775 39.5726C42.1422 40.988 40.988 42.1422 39.5726 42.8775C38.7472 43.3062 37.7814 43.527 36.4415 43.6383C35.0985 43.7498 33.4022 43.75 31.12 43.75H12.88C10.5978 43.75 8.90151 43.7498 7.55854 43.6383C6.21855 43.527 5.25277 43.3062 4.42745 42.8775C3.01196 42.1422 1.85783 40.988 1.12255 39.5726C0.693826 38.7472 0.473008 37.7814 0.361729 36.4415C0.250201 35.0985 0.25 33.4022 0.25 31.12V12.88C0.25 10.5978 0.250201 8.90151 0.361729 7.55854C0.473008 6.21855 0.693826 5.25277 1.12255 4.42745C1.85783 3.01196 3.01196 1.85783 4.42745 1.12255C5.25277 0.693826 6.21855 0.473008 7.55854 0.361729C8.90151 0.250201 10.5978 0.25 12.88 0.25Z" stroke="#D9D9D9" stroke-width="0.5"/>
<path d="M25.8968 18.0742H18.0573V25.9246H25.8968V18.0742Z" fill="black"/>
<path d="M14.3145 33.4671H30.1257C31.9755 33.4671 33.4289 31.9675 33.4289 30.1593V14.3262H29.8174V29.8506H14.3145V33.4671Z" fill="black"/>
<path d="M29.6412 14.1502V10.5337H13.8299C11.9801 10.5337 10.5267 12.0332 10.5267 13.8415V29.6746H14.1822V14.1502H29.6412Z" fill="black"/>
<path d="M37.8337 6.16699H33.4735V10.5332H37.8337V6.16699Z" fill="black"/>
<path d="M10.5265 33.4673H6.16626V37.8335H10.5265V33.4673Z" fill="black"/>
</svg>
