<svg width="44" height="44" viewBox="0 0 44 44" fill="none" xmlns="http://www.w3.org/2000/svg">
<path d="M0.25 12.88C0.25 10.5978 0.250201 8.90151 0.361729 7.55854C0.473008 6.21855 0.693826 5.25277 1.12255 4.42745C1.85783 3.01196 3.01196 1.85783 4.42745 1.12255C5.25277 0.693826 6.21855 0.473008 7.55854 0.361729C8.90151 0.250201 10.5978 0.25 12.88 0.25H31.12C33.4022 0.25 35.0985 0.250201 36.4415 0.361729C37.7814 0.473008 38.7472 0.693826 39.5726 1.12255C40.988 1.85783 42.1422 3.01196 42.8775 4.42745C43.3062 5.25277 43.527 6.21855 43.6383 7.55854C43.7498 8.90151 43.75 10.5978 43.75 12.88V31.12C43.75 33.4022 43.7498 35.0985 43.6383 36.4415C43.527 37.7814 43.3062 38.7472 42.8775 39.5726C42.1422 40.988 40.988 42.1422 39.5726 42.8775C38.7472 43.3062 37.7814 43.527 36.4415 43.6383C35.0985 43.7498 33.4022 43.75 31.12 43.75H12.88C10.5978 43.75 8.90151 43.7498 7.55854 43.6383C6.21855 43.527 5.25277 43.3062 4.42745 42.8775C3.01196 42.1422 1.85783 40.988 1.12255 39.5726C0.693826 38.7472 0.473008 37.7814 0.361729 36.4415C0.250201 35.0985 0.25 33.4022 0.25 31.12V12.88Z" stroke="#D9D9D9" stroke-width="0.5"/>
<path d="M32.1496 15.9287C31.9796 16.1017 31.7475 16.1992 31.505 16.1997H8.66348C7.85615 16.1997 7.44731 15.2151 8.01161 14.6306L11.7581 10.7494C11.9286 10.5722 12.1638 10.4722 12.4094 10.4717H35.3359C36.1479 10.4717 36.5552 11.4666 35.9805 12.0485L32.1496 15.9287ZM32.1496 33.2645C31.9776 33.4339 31.7459 33.5282 31.505 33.5282H8.66348C7.85615 33.5282 7.44731 32.5686 8.01161 31.998L11.7581 28.2137C11.9306 28.0402 12.1654 27.9427 12.4099 27.9433H35.3364C36.1484 27.9433 36.5557 28.9133 35.981 29.4802L32.1496 33.2645ZM32.1496 19.4704C31.9776 19.3015 31.7459 19.2067 31.505 19.2072H8.66348C7.85615 19.2072 7.44731 20.1669 8.01161 20.7374L11.7581 24.5217C11.9306 24.6953 12.1648 24.7927 12.4094 24.7927H35.3359C36.1479 24.7927 36.5552 23.8227 35.9805 23.2558L32.1496 19.4704Z" fill="black"/>
</svg>
