<svg width="44" height="44" viewBox="0 0 44 44" fill="none" xmlns="http://www.w3.org/2000/svg">
<path d="M12.88 0.25H31.12C33.4022 0.25 35.0985 0.250201 36.4415 0.361729C37.7814 0.473008 38.7472 0.693826 39.5726 1.12255C40.988 1.85783 42.1422 3.01196 42.8775 4.42745C43.3062 5.25277 43.527 6.21855 43.6383 7.55854C43.7498 8.90151 43.75 10.5978 43.75 12.88V31.12C43.75 33.4022 43.7498 35.0985 43.6383 36.4415C43.527 37.7814 43.3062 38.7472 42.8775 39.5726C42.1422 40.988 40.988 42.1422 39.5726 42.8775C38.7472 43.3062 37.7814 43.527 36.4415 43.6383C35.0985 43.7498 33.4022 43.75 31.12 43.75H12.88C10.5978 43.75 8.90151 43.7498 7.55854 43.6383C6.21855 43.527 5.25277 43.3062 4.42745 42.8775C3.01196 42.1422 1.85783 40.988 1.12255 39.5726C0.693826 38.7472 0.473008 37.7814 0.361729 36.4415C0.250201 35.0985 0.25 33.4022 0.25 31.12V12.88C0.25 10.5978 0.250201 8.90151 0.361729 7.55854C0.473008 6.21855 0.693826 5.25277 1.12255 4.42745C1.85783 3.01196 3.01196 1.85783 4.42745 1.12255C5.25277 0.693826 6.21855 0.473008 7.55854 0.361729C8.90151 0.250201 10.5978 0.25 12.88 0.25Z" stroke="#D9D9D9" stroke-width="0.5"/>
<path fill-rule="evenodd" clip-rule="evenodd" d="M29.3441 19.3734L29.3436 19.3748C30.6195 20.9948 31.382 23.0464 31.382 25.278C31.382 27.5427 30.5967 29.6223 29.2863 31.2532L29.1734 31.3936L29.1436 31.2151C29.1181 31.0634 29.0882 30.9101 29.0535 30.7557C28.3977 27.8383 26.2611 25.3366 22.7443 23.3111C20.3696 21.947 19.0104 20.3045 18.6535 18.4383C18.423 17.2315 18.5943 16.0194 18.9255 14.9812C19.2566 13.9433 19.749 13.0738 20.1674 12.5502L21.5356 10.8562C21.7756 10.5592 22.2245 10.5592 22.4644 10.8562L29.3441 19.3734ZM31.5078 17.6814L22.339 6.32906C22.1638 6.11232 21.8361 6.11232 21.6611 6.32906L12.4918 17.6809L12.4622 17.7189C10.7749 19.8389 9.76514 22.533 9.76514 25.4658C9.76514 32.296 15.2427 37.8332 22 37.8332C28.7572 37.8332 34.2348 32.296 34.2348 25.4658C34.2348 22.5331 33.2251 19.8389 31.5378 17.7189L31.5078 17.6814ZM14.6857 19.3369L15.5062 18.321L15.531 18.5085C15.5506 18.657 15.5744 18.8063 15.6027 18.9561C16.1333 21.7752 18.029 24.1258 21.1984 25.9463C23.9532 27.5338 25.5573 29.3593 26.0195 31.3615C26.2122 32.197 26.2466 33.0191 26.1631 33.7379L26.1579 33.7823L26.1182 33.802C24.8748 34.417 23.477 34.7622 21.9997 34.7622C16.8181 34.7622 12.6174 30.5161 12.6174 25.278C12.6174 23.0291 13.3918 20.9626 14.6857 19.3369Z" fill="black"/>
</svg>
