<svg width="20" height="20" viewBox="0 0 20 20" fill="none" xmlns="http://www.w3.org/2000/svg">
    <path d="M15.3414 17.4998H12.9914C12.5581 17.4998 12.2914 17.4998 12.0914 17.4831C11.8581 17.4665 11.6997 17.4248 11.5581 17.3581C11.3081 17.2248 11.1164 17.0331 10.9914 16.7998C10.9164 16.6498 10.8747 16.4831 10.8581 16.2498C10.8414 16.0498 10.8414 15.7831 10.8414 15.3498V12.9998C10.8414 12.5665 10.8414 12.2998 10.8581 12.0998C10.8747 11.8665 10.9164 11.7081 10.9831 11.5665C11.1164 11.3165 11.3081 11.1248 11.5414 10.9998C11.6914 10.9248 11.8581 10.8831 12.0914 10.8665C12.2914 10.8498 12.5581 10.8498 12.9914 10.8498H15.3414C15.7747 10.8498 16.0414 10.8498 16.2414 10.8665C16.4747 10.8831 16.6331 10.9248 16.7747 10.9915C17.0247 11.1248 17.2164 11.3165 17.3414 11.5498C17.4164 11.6998 17.4581 11.8665 17.4747 12.0998C17.4914 12.2998 17.4914 12.5665 17.4914 12.9998V15.3498C17.4914 15.7831 17.4914 16.0498 17.4747 16.2498C17.4581 16.4665 17.4247 16.6248 17.3581 16.7582C17.2164 17.0332 17.0247 17.2248 16.7831 17.3498C16.6331 17.4248 16.4664 17.4665 16.2331 17.4831C16.0331 17.4998 15.7664 17.4998 15.3331 17.4998H15.3414ZM12.9914 15.8331H15.3414C15.5414 15.8331 15.6997 15.8331 15.8331 15.8331C15.8331 15.6915 15.8331 15.5415 15.8331 15.3415V12.9915C15.8331 12.7915 15.8331 12.6331 15.8331 12.4998C15.6914 12.4998 15.5414 12.4998 15.3414 12.4998H12.9914C12.7914 12.4998 12.6331 12.4998 12.4997 12.4998C12.4997 12.6415 12.4997 12.7915 12.4997 12.9915V15.3415C12.4997 15.5415 12.4997 15.6998 12.4997 15.8331C12.6414 15.8331 12.7914 15.8331 12.9914 15.8331ZM7.00806 17.4998H4.65806C4.22472 17.4998 3.95806 17.4998 3.75806 17.4831C3.52472 17.4665 3.36639 17.4248 3.22472 17.3581C2.96639 17.2248 2.78306 17.0331 2.65806 16.7915C2.59139 16.6665 2.54139 16.4998 2.52472 16.2498C2.50806 16.0415 2.50806 15.7748 2.50806 15.3415V12.9915C2.50806 12.5581 2.50806 12.2915 2.52472 12.0915C2.54972 11.8415 2.59139 11.6665 2.67472 11.5248C2.79139 11.3081 2.98306 11.1165 3.21639 10.9915C3.36639 10.9165 3.53306 10.8748 3.76639 10.8581C3.96639 10.8415 4.24139 10.8415 4.66639 10.8415H7.01639C7.44972 10.8415 7.71639 10.8415 7.91639 10.8581C8.14972 10.8748 8.30806 10.9165 8.44972 10.9831C8.70806 11.1165 8.89139 11.3081 9.01639 11.5498C9.08306 11.6748 9.13306 11.8415 9.14972 12.0915C9.16639 12.2998 9.16639 12.5665 9.16639 12.9998V15.3498C9.16639 15.7831 9.16639 16.0498 9.14972 16.2498C9.12472 16.4998 9.08306 16.6748 8.99972 16.8165C8.88306 17.0331 8.69139 17.2248 8.45806 17.3498C8.30806 17.4248 8.14139 17.4665 7.90806 17.4831C7.70806 17.4998 7.43306 17.4998 7.00806 17.4998ZM4.65806 15.8331H7.00806C7.20806 15.8331 7.36639 15.8331 7.49972 15.8331C7.49972 15.6915 7.49972 15.5415 7.49972 15.3415V12.9915C7.49972 12.7915 7.49972 12.6331 7.49972 12.4998C7.35806 12.4998 7.20806 12.4998 7.00806 12.4998H4.65806C4.45806 12.4998 4.29972 12.4998 4.16639 12.4998C4.16639 12.6415 4.16639 12.7915 4.16639 12.9915V15.3415C4.16639 15.5415 4.16639 15.6998 4.16639 15.8331C4.30806 15.8331 4.45806 15.8331 4.65806 15.8331ZM15.3414 9.16648H12.9914C12.5581 9.16648 12.2914 9.16648 12.0914 9.14982C11.8414 9.12482 11.6664 9.08315 11.5247 8.99982C11.3081 8.88315 11.1164 8.69148 10.9914 8.45815C10.9164 8.30815 10.8747 8.14148 10.8581 7.90815C10.8414 7.70815 10.8414 7.43315 10.8414 7.00815V4.65815C10.8414 4.22482 10.8414 3.95815 10.8581 3.75815C10.8747 3.52481 10.9164 3.36648 10.9831 3.22481C11.1164 2.96648 11.3081 2.78315 11.5497 2.65815C11.6747 2.59148 11.8414 2.54148 12.0914 2.52481C12.2997 2.50815 12.5664 2.50815 12.9997 2.50815H15.3497C15.7831 2.50815 16.0497 2.50815 16.2497 2.52481C16.4997 2.54981 16.6747 2.59148 16.8164 2.67481C17.0331 2.79148 17.2247 2.98315 17.3497 3.21648C17.4247 3.36648 17.4664 3.53315 17.4831 3.76648C17.4997 3.96648 17.4997 4.24148 17.4997 4.66648V7.01648C17.4997 7.44982 17.4997 7.71648 17.4831 7.91648C17.4664 8.14982 17.4247 8.30815 17.3581 8.44982C17.2247 8.70815 17.0331 8.89148 16.7914 9.01648C16.6664 9.08315 16.4997 9.13315 16.2497 9.14982C16.0414 9.16648 15.7747 9.16648 15.3414 9.16648ZM12.9914 7.49982H15.3414C15.5414 7.49982 15.6997 7.49982 15.8331 7.49982C15.8331 7.35815 15.8331 7.20815 15.8331 7.00815V4.65815C15.8331 4.45815 15.8331 4.29982 15.8331 4.16648C15.6914 4.16648 15.5414 4.16648 15.3414 4.16648H12.9914C12.7914 4.16648 12.6331 4.16648 12.4997 4.16648C12.4997 4.30815 12.4997 4.45815 12.4997 4.65815V7.00815C12.4997 7.20815 12.4997 7.36648 12.4997 7.49982C12.6414 7.49982 12.7914 7.49982 12.9914 7.49982ZM7.00806 9.16648H4.65806C4.22472 9.16648 3.95806 9.16648 3.75806 9.14982C3.50806 9.12482 3.33306 9.08315 3.19139 8.99982C2.97472 8.88315 2.78306 8.69148 2.65806 8.45815C2.59139 8.33315 2.54139 8.16648 2.52472 7.91648C2.50806 7.70815 2.50806 7.44148 2.50806 7.00815V4.65815C2.50806 4.22482 2.50806 3.95815 2.52472 3.75815C2.54972 3.50815 2.59139 3.33315 2.67472 3.19148C2.79139 2.97481 2.98306 2.78315 3.21639 2.65815C3.34139 2.59148 3.50806 2.54148 3.75806 2.52481C3.96639 2.50815 4.23306 2.50815 4.66639 2.50815H7.01639C7.44972 2.50815 7.71639 2.50815 7.91639 2.52481C8.16639 2.54981 8.34139 2.59148 8.48306 2.67481C8.69972 2.79148 8.89139 2.98315 9.01639 3.21648C9.08306 3.34148 9.13306 3.50815 9.14972 3.75815C9.16639 3.96648 9.16639 4.23315 9.16639 4.66648V7.01648C9.16639 7.44982 9.16639 7.71648 9.14972 7.91648C9.12472 8.16648 9.08306 8.34148 8.99972 8.48315C8.88306 8.69982 8.69139 8.89148 8.45806 9.01648C8.33306 9.08315 8.16639 9.13315 7.91639 9.14982C7.70806 9.16648 7.44139 9.16648 7.00806 9.16648ZM4.65806 7.49982H7.00806C7.20806 7.49982 7.36639 7.49982 7.49972 7.49982C7.49972 7.35815 7.49972 7.20815 7.49972 7.00815V4.65815C7.49972 4.45815 7.49972 4.29982 7.49972 4.16648C7.35806 4.16648 7.20806 4.16648 7.00806 4.16648H4.65806C4.45806 4.16648 4.29972 4.16648 4.16639 4.16648C4.16639 4.30815 4.16639 4.45815 4.16639 4.65815V7.00815C4.16639 7.20815 4.16639 7.36648 4.16639 7.49982C4.30806 7.49982 4.45806 7.49982 4.65806 7.49982Z" fill="white"/>
</svg>