<svg width="24" height="24" viewBox="0 0 24 24" fill="none" xmlns="http://www.w3.org/2000/svg">
<path d="M22.4026 7.34921C22.3351 7.7373 22.2676 7.92291 22.1664 8.12539C22.0652 8.36161 21.9639 8.61471 21.8627 9.15466C21.8289 9.35713 21.7952 9.52587 21.7783 9.66085V9.67773C21.7446 9.89708 21.7277 10.0489 21.6433 10.302C21.5758 10.5214 21.4577 10.8757 21.1709 11.2469C20.9347 11.5507 20.5466 12.0737 20.0235 12.1412C19.9729 12.1412 19.8885 12.1412 19.8379 12.1244C18.353 11.3651 17.0875 10.8082 16.6488 10.6901C16.1426 10.5383 16.2101 9.42463 16.2608 8.44598C16.2945 8.00727 16.3114 7.58544 16.2945 7.2311C16.227 5.98248 16.0077 4.63262 14.9278 3.97456C14.2866 3.58647 13.4429 3.46836 12.6499 3.46836C12.8017 3.40087 12.9536 3.29963 13.1392 3.19839C13.6117 2.92842 14.1853 2.59095 14.7759 2.52346C14.9615 2.50658 15.1471 2.48971 15.3327 2.45596C16.497 2.32098 17.5094 2.20286 18.5724 2.57408C19.0617 2.74281 20.0404 3.28275 20.2935 3.80583C20.4791 4.16016 20.7828 4.44701 21.3734 5.00383C21.694 5.29067 21.8964 5.45941 22.0483 5.59439C22.2676 5.76313 22.3014 5.81375 22.3689 5.93186C22.5714 6.33682 22.5039 6.75865 22.4026 7.34921Z" fill="white"/>
<path d="M17.0203 12.4619C17.0878 12.4788 17.1215 12.5632 17.0709 12.6306C16.9191 12.8669 16.7335 13.2043 16.5141 13.5924C16.4129 13.778 16.3116 13.9636 16.2273 14.0986C15.9404 14.5879 15.9235 15.0098 15.9067 15.3304C15.8898 15.6847 15.8729 15.8366 15.6536 15.9716C15.4848 16.0897 15.2992 16.1234 14.0844 16.309C13.865 16.3428 13.7806 16.3765 13.6963 16.4271C13.6794 16.444 13.6456 16.444 13.6288 16.4609C13.5613 16.4946 13.4938 16.4271 13.4938 16.3596C13.5107 16.1909 13.5107 15.9716 13.5107 15.6847V15.6341C13.5107 15.3979 13.5107 15.1954 13.4938 15.0435C13.4769 14.7398 13.4769 14.6048 13.5613 14.4698C13.6625 14.3011 13.7469 14.2505 13.865 14.1661C14.0506 14.048 14.3037 13.8961 14.658 13.3899C14.8605 13.12 14.8943 12.9681 14.928 12.85C14.9449 12.7994 14.9449 12.7825 15.0968 12.6644C15.2486 12.5463 15.7379 12.1751 16.3622 12.2763C16.5647 12.3101 16.7841 12.3775 17.0203 12.4619Z" fill="white"/>
<path d="M12.1775 18.0637C12.1437 18.0975 12.1269 18.1144 12.0762 18.1144C11.9413 18.1144 11.8569 18.0806 11.8063 18.0131C11.6882 17.8613 11.705 17.5575 11.7219 17.3719L12.245 17.237C12.2787 17.5238 12.2956 17.9119 12.1775 18.0637Z" fill="white"/>
<path d="M12.2112 16.2079C12.1943 16.2754 12.1943 16.3597 12.1943 16.461C12.1943 16.4947 12.1943 16.5285 12.1943 16.5622C12.1943 16.6466 12.1943 16.7816 12.1943 16.8491C12.0256 16.8997 11.8906 16.8997 11.7218 16.8997C11.7218 16.8491 11.7218 16.7647 11.7218 16.7141C11.7218 16.6803 11.7218 16.6297 11.7218 16.596C11.7218 16.5453 11.7218 16.5116 11.7218 16.461C11.7218 16.3597 11.7218 16.2079 11.7387 16.1572C11.7893 16.1572 11.84 16.1404 11.8906 16.1235C11.9918 16.1066 12.1437 16.0729 12.228 16.0898C12.228 16.1235 12.228 16.1741 12.2112 16.2079Z" fill="white"/>
<path d="M11.2661 17.9118C11.2493 18.1818 11.1649 18.5024 10.9118 18.553C10.7937 18.5699 10.7431 18.5361 10.7093 18.5024C10.5406 18.3505 10.5237 17.8781 10.5406 17.5406C10.6587 17.5406 10.7937 17.5237 10.9624 17.49C11.0637 17.4731 11.1649 17.4394 11.2493 17.4225C11.2661 17.5575 11.283 17.7262 11.2661 17.9118Z" fill="white"/>
<path d="M11.1482 16.9671L10.5914 17.1696C10.6252 16.9502 10.6589 16.6465 10.6758 16.444C10.6927 16.309 10.7264 16.2584 10.7433 16.2415C10.7433 16.2415 10.7602 16.2247 10.777 16.2247C10.777 16.2247 10.777 16.2247 10.7939 16.2247H10.8108L11.1651 16.2078C11.1482 16.3765 11.1482 16.7477 11.1482 16.9671Z" fill="white"/>
<path d="M10.2369 16.7985C10.2032 16.8828 10.1694 17.1191 10.1526 17.2878L9.46076 17.2709C9.49451 17.0516 9.562 16.8322 9.61262 16.6635C9.68011 16.4948 9.73073 16.3598 9.79823 16.326C9.86572 16.2923 10.0176 16.2754 10.1188 16.3598C10.2707 16.461 10.3044 16.6129 10.2369 16.7985Z" fill="white"/>
<path d="M9.98376 18.9414C9.93314 19.0088 9.86564 19.0595 9.79815 19.0595C9.71378 19.0763 9.66316 19.0426 9.61254 19.0088C9.39319 18.8064 9.41006 18.1483 9.42694 17.8277C9.71378 17.7602 10.0344 17.7096 10.1862 17.6927C10.1862 17.9458 10.2031 18.6376 9.98376 18.9414Z" fill="white"/>
<path d="M9.07283 17.237C9.03909 17.3214 9.00534 17.4058 8.98847 17.4901C8.9041 17.5239 8.651 17.4901 8.3979 17.4395L8.56663 16.3427C8.85348 16.2584 9.19094 16.2415 9.25844 16.3259C9.37655 16.444 9.1572 17.0008 9.07283 17.237Z" fill="white"/>
<path d="M8.75213 19.0931C8.61714 19.2618 8.41467 19.3462 8.12782 19.3293C7.92534 19.3293 7.85785 19.245 7.8241 19.1944C7.67224 18.9413 7.8241 18.3507 7.97596 17.9795L8.92086 18.0301C8.93774 18.0976 8.93774 18.182 8.93774 18.2663C8.95461 18.5532 8.92086 18.8906 8.75213 19.0931Z" fill="white"/>
<path d="M16.5814 11.1122C15.7208 10.8759 15.8052 9.6273 15.8727 8.41243C15.8895 7.9906 15.9233 7.58564 15.9064 7.24817C15.8389 6.11766 15.6533 4.88591 14.7422 4.3291C13.7635 3.73853 12.1606 3.87352 11.1819 3.99163C10.8276 4.09287 10.4901 4.17724 10.2201 4.16036C9.64643 4.12662 9.19085 3.89039 8.78589 3.67104C8.48218 3.5023 8.2122 3.35044 7.94223 3.35044C7.92536 3.35044 7.90848 3.35044 7.90848 3.35044C7.14919 3.40106 6.79485 3.58667 6.47426 3.87352C6.38989 3.94101 6.28865 4.14349 5.96806 5.07152C5.79932 5.54397 5.78245 5.79707 5.7487 6.0333C5.71496 6.25265 5.69809 6.48887 5.57997 6.84321C5.49561 7.07944 5.42811 7.28192 5.37749 7.4844C5.22563 8.00747 5.09065 8.4293 4.71943 8.9355C4.66881 8.98612 4.61819 9.08736 4.5507 9.17173C4.46634 9.30671 4.3651 9.47545 4.21324 9.66105C4.112 9.79604 3.89264 10.3022 3.90952 10.4541C3.92639 10.7072 4.01076 10.8591 4.09512 11.0278C4.17949 11.1965 4.2976 11.399 4.31448 11.6858V11.7365C4.34822 12.1752 4.28073 12.3945 3.45394 13.1369C2.93087 13.6094 2.54278 14.065 2.28968 14.4024C2.27281 14.4362 2.28968 14.4699 2.3403 14.4699C2.35718 14.4699 2.35718 14.4699 2.35718 14.4699C2.37405 14.4699 2.39092 14.4699 2.4078 14.4699C2.42467 14.4699 2.44154 14.4699 2.45842 14.4699C2.47529 14.4699 2.49216 14.4699 2.50904 14.4699C2.71151 14.4868 2.91399 14.5712 3.04898 14.723C3.06585 14.7568 3.11647 14.7568 3.15022 14.7399C3.28521 14.6893 3.43707 14.6893 3.57205 14.7062C3.74078 14.723 3.92639 14.7737 4.0445 14.8918C4.07825 14.9255 4.12887 14.9424 4.17949 14.9255C4.31448 14.8918 4.46634 14.8918 4.60132 14.9424C4.70256 14.9761 4.8038 15.0436 4.87129 15.128C4.92191 15.1786 5.00628 15.1955 5.07377 15.1617C5.10752 15.1449 5.15814 15.1111 5.20876 15.0942C5.39437 15.0268 5.59685 15.0605 5.76558 15.128C5.84994 15.1617 5.93431 15.1786 6.01868 15.2461C6.15366 15.3473 6.2549 15.4823 6.30552 15.6342C6.33927 15.7186 6.45738 15.7523 6.52488 15.6848C6.65986 15.5836 6.7611 15.5667 6.86234 15.6004C6.91296 15.6173 6.94671 15.6511 6.98045 15.7017C7.03107 15.7692 7.11544 15.8367 7.18293 15.8029C7.46978 15.7186 7.80724 15.7692 8.06034 15.9042C8.14471 15.9548 8.24595 16.0223 8.29657 16.1235V16.0729C8.29657 16.056 8.31344 16.0392 8.33032 16.0223L8.38094 16.0054C8.51592 15.9548 9.2246 15.7523 9.49457 16.0392C9.51145 16.056 9.52832 16.056 9.54519 16.0392C9.57894 16.0054 9.61268 15.9717 9.62956 15.9717C9.81516 15.8704 10.1189 15.8535 10.3214 16.0392C10.3551 16.0729 10.4226 16.056 10.4563 16.0223C10.4732 15.9885 10.4901 15.9717 10.5238 15.9548C10.5913 15.8873 10.6926 15.8704 10.7938 15.8704L11.1819 15.8535C11.2831 15.8535 11.5869 15.8198 11.6712 15.8029H11.6881C11.7218 15.8029 11.7725 15.7861 11.8231 15.7692C12.0087 15.7354 12.228 15.6848 12.3968 15.7692C12.5655 15.8535 12.5486 16.0392 12.5318 16.2079C12.5318 16.2754 12.5149 16.3429 12.5149 16.4104C12.5149 16.4441 12.5149 16.4779 12.5149 16.5116C12.5149 16.6635 12.5149 16.7984 12.498 16.8997L12.5149 16.9841C12.5149 16.9841 12.5149 16.9841 12.5149 17.0009C12.5318 17.0684 12.6161 17.119 12.6667 17.0684C12.8017 16.9841 12.9367 16.8828 12.9873 16.8153V16.7984C12.9873 16.7816 13.0042 16.7478 13.0211 16.6803C13.038 16.5285 13.0717 16.2416 13.0717 15.6511C13.0717 15.6173 13.0717 15.6004 13.0717 15.5836C13.0717 15.3642 13.0717 15.1786 13.0548 15.0268C13.038 14.7062 13.0211 14.4531 13.1898 14.2C13.3417 13.9469 13.4935 13.8625 13.6454 13.7613C13.8141 13.66 13.9997 13.5419 14.3203 13.1032C14.4722 12.8838 14.4891 12.7995 14.5059 12.732C14.5397 12.5633 14.5903 12.462 14.8434 12.2933C15.0459 12.1414 15.6364 11.6858 16.4464 11.8208C16.7163 11.8715 17.1382 12.0064 17.5769 12.1752C17.5937 12.1752 17.6106 12.192 17.6275 12.192H17.6444C18.0325 12.3439 18.3868 12.5126 18.6399 12.6476C18.6905 12.6814 18.758 12.6645 18.8086 12.6139C18.893 12.5126 18.9774 12.462 19.0617 12.3945C19.0955 12.3776 19.1292 12.3608 19.1461 12.3439C19.163 12.3439 19.163 12.327 19.163 12.327C19.2305 12.2764 19.2305 12.1414 19.1461 12.1077C18.0156 11.5509 16.9357 11.2134 16.5814 11.1122ZM8.44843 11.3653C8.17846 12.5126 6.38989 13.795 5.57997 13.795H5.5631C5.54623 13.795 5.52935 13.795 5.52935 13.795C5.51248 13.795 5.49561 13.795 5.47873 13.7781C5.46186 13.7781 5.46186 13.7781 5.44499 13.7781C5.29313 13.7275 5.09065 13.6263 4.93879 13.4744C4.83755 13.3732 4.75318 13.2382 4.71943 13.1201C4.71943 13.1032 4.70256 13.0695 4.70256 13.0526C4.65194 12.8501 4.60132 12.6139 4.77005 12.2089C4.78693 12.1583 4.82067 12.1077 4.83755 12.0571C4.83755 12.0402 4.85442 12.0233 4.85442 12.0064C4.87129 11.9558 4.88817 11.9221 4.90504 11.8883C4.92191 11.8208 4.95566 11.7702 4.97253 11.7365C4.97253 11.7196 4.98941 11.7027 4.98941 11.6858C5.04003 11.5509 5.04003 11.5002 5.0569 11.4496C5.0569 11.4159 5.07377 11.3484 5.09065 11.2809C5.14127 11.0615 5.17501 10.8759 5.19189 10.7241C5.22563 10.4372 5.27625 10.1841 5.42811 9.9479C5.46186 9.91415 5.47873 9.8804 5.51248 9.84666C5.52935 9.82978 5.52935 9.82978 5.54623 9.81291C5.5631 9.79604 5.5631 9.79604 5.57997 9.77916C5.61372 9.74542 5.66434 9.72855 5.69809 9.71167C5.71496 9.71167 5.73183 9.6948 5.7487 9.6948C5.78245 9.67792 5.8162 9.67792 5.84994 9.66105C6.0018 9.6273 6.17054 9.62731 6.37302 9.64418C6.59237 9.66105 6.79485 9.6948 6.96358 9.74542C7.11544 9.77916 7.25043 9.82978 7.35167 9.8804C7.36854 9.8804 7.36854 9.89728 7.38541 9.89728C7.40229 9.91415 7.41916 9.91415 7.45291 9.93102C7.48665 9.9479 7.50353 9.9479 7.53727 9.96477C7.57102 9.98164 7.60477 9.99852 7.63851 10.0154L7.67226 10.0323C7.79037 10.0829 7.90848 10.1504 7.99285 10.2179C8.04347 10.2516 8.07722 10.2854 8.11096 10.3191C8.12784 10.336 8.14471 10.336 8.14471 10.3529C8.16158 10.3697 8.16158 10.3697 8.17846 10.3866C8.5328 10.6903 8.51592 11.1122 8.44843 11.3653ZM9.29209 6.99507L9.25835 7.19755C9.17398 7.67 8.98837 8.31119 8.31344 8.47992C7.65539 8.63178 7.50353 8.66553 7.04795 8.69928C7.03107 8.69928 7.03107 8.69928 7.0142 8.69928C6.67673 8.69928 6.01868 8.47992 5.90056 7.95685C5.83307 7.61938 5.98493 7.36629 6.22116 6.96133C6.2549 6.89383 6.30552 6.82634 6.35614 6.74197C6.69361 6.18516 6.81172 5.7802 6.91296 5.4596C7.0142 5.13901 7.09857 4.88591 7.31792 4.66656C7.36854 4.61594 7.41916 4.56532 7.48665 4.53157C7.5204 4.49783 7.57102 4.48095 7.62164 4.44721C7.68913 4.41346 7.75662 4.39659 7.82412 4.36284C7.97598 4.31222 8.14471 4.29535 8.29657 4.29535C8.61716 4.29535 8.93775 4.37971 9.15711 4.56532C9.25835 4.64969 9.41021 4.80155 9.49457 5.29087C9.52832 5.54397 9.46083 5.99955 9.29209 6.99507ZM14.1347 8.34494C13.8985 8.74989 13.7804 8.96925 13.5779 9.13798C13.1729 9.47545 12.7174 9.54294 12.3293 9.54294C12.0593 9.54294 11.8231 9.49232 11.6712 9.47545C11.2663 9.40795 10.5407 9.27297 10.2876 8.6824C10.237 8.56429 10.237 8.4968 10.237 8.39556C10.237 8.31119 10.237 8.14246 10.1864 7.78812V7.77124C10.1695 7.60251 10.1526 7.41691 10.1864 7.18068V7.14693C10.3214 6.43825 10.372 6.33702 10.3889 6.26952C10.4563 6.13454 10.6251 6.06704 10.7769 6.15141C10.9119 6.2189 10.9625 6.38764 10.9119 6.52262C10.8951 6.55637 10.8613 6.70823 10.7432 7.26505V7.29879C10.7094 7.45065 10.7263 7.56876 10.7432 7.72062V7.7375C10.7938 8.14246 10.7938 8.31119 10.7938 8.41243C10.7938 8.4293 10.7938 8.44618 10.7938 8.46305V8.47992C10.8444 8.59803 10.9457 8.66553 11.0638 8.73302C11.1482 8.76677 11.2325 8.69928 11.2156 8.61491C11.0975 7.9906 11.0975 7.26505 11.3338 6.80947C11.4181 6.65761 11.5531 6.42138 11.6881 6.18516C11.705 6.16828 11.7218 6.13454 11.7218 6.11766C11.7387 6.10079 11.7387 6.08392 11.7556 6.06704C11.8231 5.9658 11.8737 5.88144 11.9243 5.79707C11.9243 5.7802 11.9412 5.7802 11.9412 5.76332L11.9581 5.74645C11.9749 5.72958 11.9749 5.7127 11.9918 5.69583C11.9918 5.69583 11.9918 5.67896 12.0087 5.67896L12.0256 5.66208C12.0256 5.64521 12.0424 5.64521 12.0424 5.62834C12.0931 5.56084 12.1437 5.49335 12.1774 5.42586C12.2449 5.34149 12.1606 5.24025 12.0762 5.274C11.84 5.37524 11.6881 5.49335 11.6544 5.51023C11.5362 5.61146 11.3506 5.59459 11.2494 5.4596C11.1482 5.34149 11.165 5.15589 11.3 5.05465C11.4519 4.93653 12.228 4.37972 13.1561 4.63281C13.831 4.81842 14.1685 5.34149 14.3035 5.5271C14.4047 5.67896 14.7422 6.15141 14.7253 6.82634C14.7253 7.31567 14.5228 7.68688 14.1347 8.34494Z" fill="white"/>
<path d="M8.0942 4.88585C8.04358 5.00396 7.99296 5.13895 7.92547 5.29081C7.79048 5.64514 7.62175 6.0501 7.53738 6.20196C7.4024 6.45506 7.30116 6.6238 7.21679 6.74191C7.11555 6.89377 7.04806 7.01188 6.98056 7.18061C6.87932 7.46746 6.86245 7.78805 6.92994 8.14239C6.74434 8.12552 6.45749 8.0074 6.42375 7.83867C6.40687 7.72056 6.47437 7.60245 6.67685 7.24811C6.71059 7.18061 6.76121 7.09625 6.81183 7.02875C7.16617 6.42132 7.31803 5.96574 7.41927 5.62827C7.53738 5.27393 7.588 5.12207 7.77361 4.98709C7.89172 4.93647 7.99296 4.90272 8.0942 4.88585Z" fill="white"/>
<path d="M7.73969 17.642C7.53721 18.0469 7.30099 18.4182 7.14913 18.6038C7.01414 18.2663 6.79479 17.4732 6.86228 16.8489C6.86228 16.8321 6.86228 16.8152 6.86228 16.7983C6.87916 16.5958 6.92978 16.4271 7.03102 16.2752C7.09851 16.174 7.26724 16.1234 7.45285 16.1234C7.58784 16.1234 7.73969 16.1571 7.87468 16.2246C7.94217 16.2584 8.04341 16.3427 8.04341 16.5621C8.07716 16.8658 7.9253 17.2708 7.73969 17.642Z" fill="white"/>
<path d="M18.5386 13.1369C18.5555 13.1538 18.5555 13.1707 18.5555 13.1875C18.5048 13.3056 18.4205 13.39 18.3361 13.4912C18.2349 13.6094 18.1168 13.7443 18.0155 13.9637C17.8637 14.2674 17.813 14.5374 17.7962 15.2461C17.7624 16.0729 17.7962 16.5284 17.8299 16.8659C17.8468 17.1865 17.8637 17.389 17.813 17.7096C17.6949 18.3507 17.4249 18.7726 17.0706 19.3125C16.6319 19.9875 16.1932 20.6793 15.4508 20.8986C15.3833 20.9155 15.3833 20.9155 15.1808 20.9155C15.0121 20.9155 14.7252 20.9155 14.2022 20.9324C13.2235 20.9661 12.7342 20.983 12.3292 21.0673C11.8905 21.1517 11.6712 21.253 11.4349 21.3373C11.2325 21.4217 11.0468 21.4892 10.6925 21.5735C10.4732 21.6242 10.1526 21.6579 9.0558 21.6748C7.90842 21.6748 7.21661 21.6748 6.32233 21.5735C5.07371 21.4386 4.4494 21.3542 4.02756 21.1348C3.04891 20.6118 2.62708 19.6669 1.95215 18.1145C1.95215 18.0976 1.96902 18.0808 1.9859 18.0808C2.01964 18.0977 2.05339 18.1145 2.08714 18.1314C2.12088 18.1483 2.15463 18.1483 2.1715 18.1483C2.239 18.1651 2.30649 18.1651 2.37398 18.1483C2.39086 18.1483 2.39086 18.1483 2.40773 18.1314C2.4246 18.1314 2.44148 18.1314 2.44148 18.1483C2.4921 18.2664 2.55959 18.3676 2.6777 18.4351C2.79581 18.5026 2.9308 18.5026 3.04891 18.5026C3.1839 18.5026 3.31889 18.4857 3.45387 18.4689C3.52137 18.4689 3.58886 18.5026 3.62261 18.5532C3.74072 18.8569 3.89258 19.0594 4.1288 19.0932C4.14568 19.0932 4.16255 19.0932 4.17942 19.0932C4.23004 19.0932 4.31441 19.0763 4.41565 19.0088C4.50002 18.9413 4.635 18.9919 4.7025 19.0763C4.75312 19.1607 4.82061 19.2113 4.8881 19.2619C5.12433 19.4981 5.69802 19.6162 6.17047 19.6162C6.42357 19.6162 6.6598 19.5825 6.79478 19.515C6.99726 19.4138 6.99726 19.2788 6.98039 19.2113C6.96351 19.11 6.94664 18.9919 6.92977 18.8907C6.92977 18.8738 6.94664 18.8738 6.94664 18.8907C6.98039 18.9582 7.01413 19.0257 7.0985 19.0426C7.11537 19.0426 7.11537 19.0426 7.13225 19.0426C7.26723 19.0426 7.46971 19.0932 7.50346 19.2113C7.52033 19.2788 7.55408 19.3294 7.58783 19.3969C7.67219 19.515 7.82405 19.6669 8.14464 19.6837H8.16152C8.53273 19.6837 8.81958 19.5656 9.00518 19.3294C9.02206 19.3125 9.02205 19.2957 9.03893 19.2788C9.10642 19.1775 9.3089 19.1775 9.39327 19.2619C9.49451 19.3463 9.61262 19.3969 9.74761 19.3969C9.76448 19.3969 9.79823 19.3969 9.8151 19.3969C9.98383 19.38 10.1188 19.2957 10.2369 19.1438C10.3044 19.0426 10.355 18.9244 10.3888 18.7895C10.4057 18.7557 10.4563 18.7388 10.49 18.7726C10.5575 18.8401 10.6756 18.9076 10.8444 18.9076C10.8781 18.9076 10.9287 18.9076 10.9794 18.8907C11.2999 18.8232 11.4687 18.5532 11.5362 18.2664C11.5362 18.2495 11.553 18.2495 11.553 18.2664C11.6374 18.3676 11.7893 18.4857 12.0424 18.4857C12.0592 18.4857 12.0761 18.4857 12.0761 18.4857C12.2111 18.4857 12.3292 18.4182 12.4136 18.317C12.5148 18.182 12.5486 17.9795 12.5654 17.7939C12.5654 17.7433 12.5992 17.6927 12.6667 17.6589C12.9367 17.5408 13.2741 17.2877 13.3754 17.119C13.3754 17.119 13.3754 17.1021 13.3922 17.1021C13.4091 17.0515 13.4597 17.0178 13.4935 17.0178C13.7128 16.984 13.7972 16.9334 13.8816 16.8996C13.9491 16.8659 13.9997 16.849 14.1684 16.8153C15.4002 16.6297 15.6364 16.5791 15.9064 16.4103C16.3113 16.1403 16.3282 15.7691 16.3451 15.4148C16.3619 15.1111 16.3788 14.7736 16.615 14.3687C16.6994 14.2168 16.8006 14.0481 16.9019 13.8456C17.0875 13.5081 17.3406 13.0357 17.5262 12.7826C17.5599 12.7319 17.6274 12.7151 17.678 12.7488C18.0999 12.9007 18.4711 13.0694 18.5386 13.1369Z" fill="white"/>
<path d="M6.55869 16.8153C6.50807 17.2371 6.47432 17.8108 6.54182 18.5532C6.55869 18.7557 6.59244 18.975 6.62618 19.1944C6.57556 19.2281 6.38996 19.2788 6.08624 19.2619C5.64753 19.245 5.20883 19.1438 5.07384 18.9919L5.05697 18.975C4.95573 18.8907 4.87136 18.8232 4.87136 18.6713C4.87136 18.6207 4.88823 18.5701 4.93885 18.4857C4.9726 18.452 5.00635 18.4013 5.04009 18.3339C5.10759 18.2326 5.20883 18.1145 5.31007 17.9458C5.59691 17.4733 5.69815 17.3215 5.83314 17.1358C5.85001 17.119 5.85001 17.1021 5.86688 17.0852C5.95125 16.984 6.03562 16.849 6.18748 16.6297C6.28872 16.4778 6.37308 16.3428 6.45745 16.2416C6.57556 16.0728 6.65993 15.9885 6.71055 15.9378C6.71055 16.0053 6.69367 16.1066 6.6768 16.2078C6.60931 16.4103 6.57556 16.5959 6.55869 16.8153Z" fill="white"/>
<path d="M6.33917 10.1671C6.33917 10.184 6.33917 10.184 6.33917 10.1671C6.27168 10.2515 6.20418 10.3527 6.11982 10.5215C5.90046 10.9939 5.90046 11.2639 5.90046 11.4832C5.90046 11.6013 5.90046 11.6857 5.86672 11.787C5.84984 11.8544 5.8161 11.9388 5.76548 12.0232C5.64737 12.31 5.47863 12.6812 5.54613 13.1874C5.44489 13.1368 5.29303 13.0187 5.25928 12.9681C5.25928 12.9343 5.24241 12.9175 5.24241 12.8837C5.20866 12.7319 5.19179 12.6306 5.27615 12.3944C5.54613 11.787 5.57987 11.6351 5.59675 11.4664C5.59675 11.4326 5.61362 11.3989 5.61362 11.3482C5.66424 11.112 5.69799 10.9095 5.71486 10.7408C5.74861 10.4877 5.78235 10.319 5.86672 10.2009C5.90046 10.1502 5.98483 10.1334 6.10294 10.1334C6.15356 10.1334 6.20418 10.1334 6.27168 10.1502H6.28855C6.33917 10.1671 6.33917 10.1671 6.33917 10.1671Z" fill="white"/>
<path d="M6.0018 16.191C5.98493 16.0392 5.96806 15.9042 5.90056 15.7523C5.90056 15.7523 5.88369 15.7186 5.88369 15.7017C5.86682 15.6848 5.86682 15.6679 5.84994 15.6511L5.83307 15.6342C5.8162 15.6173 5.8162 15.6173 5.79932 15.6173L5.78245 15.6004C5.76558 15.6004 5.76558 15.5836 5.74871 15.5836H5.73183C5.64747 15.5498 5.5631 15.5161 5.46186 15.4992C5.44499 15.4992 5.42811 15.4992 5.42811 15.4992C5.41124 15.4992 5.41124 15.4992 5.39437 15.4992H5.37749C5.36062 15.4992 5.34375 15.5161 5.31 15.5161C5.29313 15.5161 5.29313 15.533 5.27625 15.533L5.25938 15.5498C5.24251 15.5667 5.24251 15.5667 5.22563 15.5836L5.20876 15.6004V15.6173C5.17501 15.6679 5.14127 15.7186 5.10752 15.7692C5.02315 15.8873 4.93879 16.0223 4.85442 16.1404C4.77006 16.2585 4.70256 16.3597 4.6182 16.4779C4.56758 16.5453 4.53383 16.596 4.48321 16.6635C4.48321 16.6803 4.46634 16.6803 4.46634 16.6972C4.51696 16.7141 4.56758 16.7141 4.6182 16.731C4.73631 16.7478 4.85442 16.7647 4.95566 16.7816C5.19189 16.8153 5.44499 16.8322 5.68121 16.8153C5.69809 16.8153 5.69809 16.8153 5.71496 16.8153C5.76558 16.731 5.84994 16.6297 5.93431 16.4947C5.98493 16.4272 6.03555 16.3597 6.0693 16.2923C6.01868 16.2754 6.0018 16.2248 6.0018 16.191Z" fill="white"/>
<path d="M5.14116 17.1864C5.12428 17.372 4.9218 17.8445 4.60121 18.3C4.33124 18.6712 4.16251 18.7725 4.12876 18.7725C3.99377 18.7556 3.87566 18.435 3.77442 18.1144C3.74067 17.9794 3.69006 17.8613 3.67318 17.7432C3.60569 17.507 3.58882 17.1695 3.60569 16.967C3.87566 17.1189 4.34811 17.1527 5.02304 17.1527C5.05679 17.1695 5.10741 17.1695 5.14116 17.1864Z" fill="white"/>
<path d="M4.66875 15.6677C4.55064 15.8533 4.43252 16.022 4.31441 16.1907C4.24692 16.2751 4.1963 16.3595 4.1288 16.4438C4.09506 16.4945 4.04444 16.5451 4.01069 16.5957C3.90945 16.5788 3.82509 16.5451 3.72385 16.5282C3.63948 16.5113 3.57199 16.4776 3.48762 16.4438C3.47075 16.4438 3.45387 16.427 3.437 16.427C3.42013 16.4101 3.40325 16.3764 3.38638 16.3595C3.42013 16.3089 3.437 16.2414 3.47075 16.1907C3.52137 16.0895 3.57199 15.9883 3.63948 15.887C3.74072 15.7183 3.85883 15.5327 4.04444 15.4146C4.06131 15.4146 4.06131 15.3977 4.07818 15.3977C4.14568 15.364 4.21317 15.3302 4.29754 15.3133C4.31441 15.3133 4.36503 15.3133 4.39878 15.3133H4.41565C4.41565 15.3133 4.41565 15.3133 4.43252 15.3133C4.4494 15.3133 4.46627 15.3302 4.50002 15.3302C4.50002 15.3302 4.51689 15.3302 4.51689 15.3471C4.53376 15.364 4.55064 15.364 4.56751 15.3808C4.53376 15.364 4.60126 15.4314 4.60126 15.4146C4.635 15.5158 4.65188 15.5664 4.66875 15.6677Z" fill="white"/>
<path d="M3.75779 15.1786C3.53844 15.3474 3.38658 15.5836 3.26846 15.8367C3.20097 15.9717 3.13348 16.1067 3.06598 16.2416C3.06598 16.2585 3.04911 16.2754 3.04911 16.2754C2.98162 16.2585 2.91413 16.2416 2.86351 16.2248C2.79601 16.2079 2.72852 16.1741 2.66103 16.1573C2.62728 16.1404 2.61041 16.1235 2.57666 16.1067C2.64415 15.9885 2.71165 15.8704 2.79601 15.7523C2.89725 15.6005 3.01537 15.4317 3.13348 15.2967C3.1841 15.2461 3.23472 15.1786 3.28534 15.1449C3.35283 15.1111 3.42032 15.1111 3.50469 15.128C3.58906 15.128 3.67342 15.128 3.74092 15.1618C3.72404 15.1618 3.74092 15.1786 3.75779 15.1786Z" fill="white"/>
<path d="M3.42002 18.0469C3.40314 18.0638 3.40314 18.0638 3.38627 18.0807H3.36939C3.31878 18.0807 3.26816 18.0976 3.21754 18.0976C3.1163 18.0976 3.01506 18.1144 2.91382 18.0976C2.8632 18.0976 2.81258 18.0807 2.77883 18.0469C2.74508 17.9963 2.72821 17.8951 2.71134 17.8276C2.64384 17.4564 2.64384 17.0852 2.67759 16.714C2.8632 16.7814 3.06568 16.8321 3.26816 16.8658C3.21754 17.2033 3.3019 17.6926 3.33565 17.8276C3.38627 17.8951 3.40314 17.9794 3.42002 18.0469Z" fill="white"/>
<path d="M2.81269 15.0605C2.64396 15.263 2.4921 15.4823 2.35711 15.7185C2.30649 15.8029 2.239 15.9041 2.18838 16.0054C2.12088 15.9885 2.05339 15.9548 2.00277 15.921C1.95215 15.8873 1.90153 15.8535 1.86778 15.8198C1.85091 15.8029 1.81716 15.786 1.80029 15.7692C1.80029 15.7692 1.78342 15.7692 1.78342 15.7523C1.80029 15.7017 1.83404 15.6679 1.83404 15.6342C1.86778 15.5498 1.90153 15.4823 1.95215 15.4148C2.03652 15.2798 2.12088 15.1449 2.22212 15.0099C2.25587 14.9592 2.28962 14.9086 2.35711 14.8918C2.40773 14.8749 2.47522 14.8918 2.52584 14.8918C2.62708 14.9086 2.72832 14.9761 2.81269 15.0605Z" fill="white"/>
<path d="M1.51357 15.9548C1.53044 15.9379 1.51357 15.9379 1.51357 15.9548C1.58106 16.0223 1.63168 16.0729 1.69918 16.1235C1.73292 16.1404 1.7498 16.1741 1.78354 16.191C1.78354 16.191 1.78354 16.191 1.78354 16.2079C1.71605 16.4947 1.66543 16.7984 1.66543 17.1022C1.66543 17.119 1.64856 17.119 1.64856 17.1022C1.56419 16.7478 1.46295 16.1741 1.51357 15.9548Z" fill="white"/>
<path d="M2.34034 16.579C2.30659 16.8321 2.28972 17.0852 2.30659 17.3383C2.30659 17.4733 2.32347 17.6083 2.34034 17.7602C2.30659 17.7602 2.27285 17.7602 2.2391 17.7602H2.20536C2.17161 17.7433 2.17161 17.7433 2.13786 17.7264C2.10412 17.7095 2.07037 17.6589 2.03662 17.6083C1.96913 17.4902 1.95226 17.3552 1.95226 17.2202C1.93538 16.9671 1.96913 16.6971 2.01975 16.444C2.0535 16.4609 2.10412 16.4778 2.15474 16.4947C2.22223 16.5284 2.27285 16.5622 2.34034 16.579Z" fill="white"/>
</svg>
