<svg width="24" height="24" viewBox="0 0 24 24" fill="none" xmlns="http://www.w3.org/2000/svg">
<path d="M17.509 8.69106H15.7375C15.6352 8.69127 15.5341 8.66964 15.4409 8.62762C15.3477 8.58561 15.2647 8.52418 15.1975 8.44751L14.4787 7.63952C14.3782 7.52875 14.2379 7.46179 14.0881 7.45311C13.9384 7.44443 13.7912 7.49473 13.6784 7.59313L13.6357 7.63952L13.018 8.33153C12.9206 8.44176 12.8012 8.53064 12.6674 8.59253C12.5337 8.65442 12.3885 8.68797 12.241 8.69106H2.52836C2.24971 9.48814 2.07222 10.3166 2 11.1576H11.1532C11.233 11.1576 11.3121 11.1415 11.3856 11.1103C11.459 11.0791 11.5253 11.0333 11.5805 10.9759L12.4313 10.0905C12.5332 9.98455 12.6725 9.92215 12.8198 9.91655H12.8548C12.9346 9.91805 13.0132 9.93555 13.086 9.96815C13.1588 10.0006 13.2242 10.0475 13.2783 10.1059L13.997 10.914C14.0643 10.9907 14.1473 11.0521 14.2404 11.0941C14.3336 11.1361 14.4347 11.1578 14.537 11.1576H22.0001C21.9317 10.3161 21.7541 9.48704 21.4717 8.69106H17.509Z" fill="white"/>
<path d="M7.54082 16.3452C7.61997 16.3443 7.69816 16.3278 7.77085 16.2966C7.84354 16.2654 7.90929 16.2202 7.96429 16.1635L8.81511 15.2782C8.91767 15.1732 9.05658 15.111 9.20358 15.1043H9.23858C9.31858 15.1043 9.39768 15.1212 9.47068 15.1539C9.54368 15.1865 9.60888 15.2342 9.66208 15.2937L10.3769 16.1017C10.4457 16.1765 10.529 16.2366 10.6218 16.2785C10.7146 16.3204 10.815 16.3431 10.9169 16.3452H21.0375C21.4229 15.5555 21.7011 14.7183 21.865 13.8555H12.1524C12.0509 13.8561 11.9506 13.835 11.8581 13.7937C11.7656 13.7523 11.6831 13.6917 11.6162 13.6158L10.8975 12.8078C10.8446 12.7485 10.7797 12.701 10.7071 12.6685C10.6344 12.6359 10.5556 12.6191 10.476 12.6191C10.3963 12.6191 10.3175 12.6359 10.2449 12.6685C10.1722 12.701 10.1073 12.7485 10.0544 12.8078L9.44058 13.4998C9.34008 13.612 9.21678 13.7018 9.07878 13.7631C8.94083 13.8244 8.79137 13.8559 8.64028 13.8555H2.14062C2.30385 14.7197 2.58214 15.5582 2.96814 16.3491L7.54082 16.3452Z" fill="white"/>
<path d="M14.7188 5.99246C14.7986 5.99251 14.8777 5.97643 14.9512 5.9452C15.0246 5.91397 15.0909 5.86824 15.1461 5.81076L15.9969 4.92934C16.0491 4.87348 16.1122 4.82888 16.1823 4.79829C16.2525 4.7677 16.3282 4.75176 16.4049 4.7515H16.4398C16.5197 4.75106 16.5988 4.76816 16.6714 4.80158C16.7439 4.83499 16.8081 4.88389 16.8595 4.9448L17.5782 5.75277C17.6472 5.82706 17.7307 5.88662 17.8235 5.92782C17.9163 5.96903 18.0166 5.99102 18.1182 5.99246H20.0607C18.4615 3.87332 16.0817 2.47308 13.4451 2.09972C10.8084 1.72635 8.13066 2.41043 6.00079 4.00151C5.24387 4.56911 4.57041 5.23926 4 5.99246H14.7188Z" fill="white"/>
<path d="M10.8531 18.8158H8.22286C8.12115 18.816 8.0206 18.7943 7.92807 18.7523C7.83554 18.7103 7.75322 18.6489 7.68672 18.5723L6.97188 17.7643C6.87067 17.653 6.72928 17.586 6.57859 17.578C6.4279 17.57 6.28017 17.6217 6.16767 17.7218L6.12105 17.7643L5.50334 18.4679C5.40623 18.5785 5.28693 18.6676 5.1531 18.7296C5.01928 18.7915 4.8739 18.8248 4.72633 18.8274H4.68359C6.49608 20.7588 9.00355 21.8972 11.6574 21.9935C14.3112 22.0899 16.8954 21.1364 18.8445 19.3416C19.0154 19.1831 19.1825 19.0169 19.3418 18.8468L10.8531 18.8158Z" fill="white"/>
</svg>
