<svg width="24" height="24" viewBox="0 0 24 24" fill="none" xmlns="http://www.w3.org/2000/svg">
<path fill-rule="evenodd" clip-rule="evenodd" d="M16.9151 12.568C18.002 12.2943 18.683 11.6082 18.9708 10.5147C19.3432 9.09973 18.9627 7.99244 17.7891 7.13051C17.1723 6.67745 16.4801 6.3725 15.7651 6.11739C15.6286 6.06872 15.5977 6.00934 15.6308 5.88142C15.7543 5.40344 15.8749 4.92473 15.9948 4.44589C16.0648 4.1663 16.1336 3.88639 16.2041 3.59954C16.2361 3.46941 16.2684 3.33785 16.3014 3.20423L14.5797 2.77557L13.8861 5.5474L12.4896 5.21542L13.1827 2.42669L11.4708 2C11.4621 2.02595 11.4538 2.04925 11.4461 2.07087C11.4312 2.1126 11.4186 2.14811 11.4095 2.18454C11.3656 2.36029 11.3215 2.53601 11.2774 2.71173C11.1146 3.36059 10.9519 4.00945 10.7971 4.66022C10.7602 4.81536 10.7088 4.84239 10.5589 4.8028C10.0889 4.6788 9.61685 4.56283 9.14481 4.44687C9.01724 4.41553 8.88968 4.3842 8.76216 4.3527C8.40992 4.26569 8.0575 4.17956 7.70037 4.09228C7.55139 4.05587 7.4016 4.01926 7.25067 3.98231L6.79228 5.81849C6.84131 5.83039 6.88915 5.84157 6.93612 5.85254C7.03552 5.87576 7.13098 5.89806 7.22534 5.92437C7.33296 5.95442 7.44151 5.98225 7.55009 6.01009C7.82214 6.07982 8.09433 6.1496 8.35211 6.25451C8.76255 6.42162 8.93104 6.84009 8.82477 7.26842C8.73471 7.63141 8.64477 7.99442 8.55482 8.35743C8.36365 9.12902 8.17247 9.90061 7.9802 10.6719C7.8677 11.1232 7.75448 11.5742 7.64127 12.0253C7.40285 12.9752 7.16443 13.925 6.93269 14.8765C6.8566 15.1889 6.51231 15.4845 6.14468 15.3776C5.85073 15.2921 5.55111 15.2261 5.2484 15.1594C5.11604 15.1302 4.98309 15.1009 4.84976 15.0698L4 17.0286L7.49163 17.9119L6.77577 20.7966L8.48805 21.222C8.49695 21.189 8.5051 21.1593 8.51268 21.1316C8.52738 21.078 8.5399 21.0323 8.55144 20.9864C8.59261 20.8225 8.63383 20.6585 8.67505 20.4946C8.83905 19.8424 9.00303 19.1902 9.16333 18.5371C9.18819 18.436 9.2166 18.3714 9.33445 18.4028C9.65554 18.4884 9.97671 18.5737 10.3102 18.6622C10.4047 18.6873 10.5001 18.7127 10.5968 18.7384L9.89431 21.5744L11.603 22C11.6114 21.9753 11.6194 21.9528 11.627 21.9318C11.642 21.8902 11.6549 21.8541 11.6641 21.817C11.7051 21.6528 11.7461 21.4885 11.7872 21.3243C11.9538 20.6576 12.1204 19.9909 12.2803 19.3226C12.3171 19.1687 12.3737 19.117 12.5325 19.1564C12.6465 19.1847 12.7634 19.2007 12.8804 19.2167C12.9366 19.2243 12.9928 19.232 13.0486 19.2411C13.9399 19.3852 14.8336 19.4378 15.7269 19.2722C16.5334 19.1226 17.2238 18.7616 17.7408 18.1053C18.2969 17.3994 18.5828 16.5861 18.7051 15.7061C18.8306 14.8033 18.6028 14.0067 17.9419 13.3718C17.7284 13.1667 17.4872 12.9905 17.2446 12.8133C17.1342 12.7327 17.0236 12.6518 16.9151 12.568ZM12.0276 10.9562C12.7955 11.1379 13.5674 11.2781 14.3617 11.1503C15.5128 10.965 15.8531 9.95126 15.6606 9.21271C15.5249 8.69185 15.1404 8.36729 14.6916 8.11179C13.9918 7.71337 13.2203 7.53404 12.4488 7.35473C12.3507 7.33193 12.2525 7.30909 12.1545 7.28584C12.0226 7.25454 11.9994 7.33832 11.9748 7.44019C11.9054 7.72792 11.8332 8.01499 11.761 8.30205C11.7218 8.45808 11.6825 8.6141 11.6437 8.77024C11.5331 9.21549 11.4229 9.66083 11.3109 10.1134L11.1576 10.7331C11.2571 10.7587 11.3534 10.784 11.4475 10.8088C11.6468 10.8611 11.8366 10.911 12.0276 10.9562ZM10.4109 13.718C10.2061 14.5354 10.0012 15.3528 9.79459 16.1698C9.76335 16.2934 9.81656 16.3152 9.92132 16.338C10.1628 16.3906 10.4035 16.4473 10.6441 16.5041C11.0961 16.6107 11.548 16.7173 12.0048 16.7958C12.6308 16.9032 13.2675 16.9189 13.8978 16.7723C15.1381 16.4836 15.4968 15.1011 14.8816 14.2656C14.5929 13.8735 14.2018 13.608 13.772 13.3952C12.9196 12.9731 12.003 12.7631 11.0889 12.5535C10.974 12.5272 10.8592 12.5009 10.7446 12.4742C10.7393 12.4807 10.7342 12.4862 10.7296 12.4911C10.7211 12.5001 10.7145 12.5072 10.7125 12.5153C10.6119 12.9157 10.5116 13.316 10.4113 13.7164L10.4109 13.718Z" fill="white"/>
</svg>
