<svg width="24" height="24" viewBox="0 0 24 24" fill="none" xmlns="http://www.w3.org/2000/svg">
<path d="M12.2385 13.0599H18.0511C18.1749 13.0599 18.2336 13.0599 18.2426 12.9009C18.2902 12.3216 18.2902 11.7388 18.2426 11.1588C18.2426 11.0461 18.1854 10.9998 18.0608 10.9998H6.4928C6.34974 10.9998 6.31093 11.0464 6.31093 11.1779V12.8451C6.31093 13.0602 6.31093 13.0602 6.5401 13.0602H12.2385V13.0599ZM17.5933 9.0512C17.6098 9.00874 17.6098 8.96211 17.5933 8.92048C17.4962 8.71344 17.3815 8.51584 17.2478 8.33044C17.0466 8.0135 16.8101 7.72154 16.5401 7.45899C16.4126 7.30052 16.2653 7.15815 16.1002 7.03742C15.2727 6.34747 14.2892 5.85929 13.2317 5.61367C12.6983 5.49628 12.153 5.44022 11.6065 5.44494H6.47268C6.32963 5.44494 6.31037 5.501 6.31037 5.62311V8.94796C6.31037 9.08811 6.31037 9.12613 6.49223 9.12613H17.5245C17.5245 9.12613 17.6203 9.10726 17.6395 9.0512H17.5928H17.5933V9.0512ZM17.5933 15.0082C17.431 14.9907 17.267 14.9907 17.1047 15.0082H6.50243C6.35937 15.0082 6.31093 15.0082 6.31093 15.1958V18.4465C6.31093 18.5961 6.31093 18.6341 6.50243 18.6341H11.3975C11.6315 18.6516 11.8655 18.6355 12.0949 18.5875C12.8054 18.5376 13.5039 18.3866 14.1705 18.1376C14.4127 18.0555 14.647 17.9481 14.8679 17.8193H14.9348C16.0823 17.2345 17.0143 16.3159 17.6021 15.1883C17.6021 15.1883 17.669 15.0467 17.5939 15.0096V15.0082H17.5933ZM4.38974 20.319V20.263V18.0805V17.3406V15.1392C4.38974 15.017 4.38974 14.999 4.23705 14.999H2.16232C2.04731 14.999 2 14.999 2 14.8494V13.0696H4.21807C4.34186 13.0696 4.3903 13.0696 4.3903 12.9106V11.1496C4.3903 11.0369 4.3903 11.0095 4.23762 11.0095H2.16289C2.04787 11.0095 2.00057 11.0095 2.00057 10.8599V9.21161C2.00057 9.10837 2.00057 9.08089 2.15325 9.08089H4.20872C4.35178 9.08089 4.39059 9.08089 4.39059 8.90272V3.85412C4.39059 3.70453 4.39059 3.6665 4.58208 3.6665H11.7513C12.2717 3.68676 12.7887 3.74283 13.3003 3.83524C14.3541 4.02619 15.3668 4.39503 16.2925 4.92179C16.9067 5.27592 17.4718 5.70332 17.9749 6.19566C18.3537 6.58088 18.695 6.99745 18.9978 7.44123C19.2987 7.89111 19.5485 8.3718 19.7449 8.87441C19.7689 9.00513 19.897 9.09366 20.0304 9.07146H21.7417C21.9612 9.07146 21.9612 9.07146 21.9709 9.27794V10.8144C21.9709 10.964 21.9136 11.002 21.7601 11.002H20.4406C20.3072 11.002 20.2683 11.002 20.2783 11.1707C20.3307 11.7413 20.3307 12.3139 20.2783 12.8845C20.2783 13.0435 20.2783 13.0627 20.4607 13.0627H21.9703C22.0371 13.147 21.9703 13.2314 21.9703 13.3163C21.9799 13.4248 21.9799 13.5347 21.9703 13.6435V14.7773C21.9703 14.9363 21.9227 14.9837 21.7788 14.9837H19.9718C19.8457 14.9602 19.7233 15.039 19.6944 15.1619C19.2641 16.2579 18.5758 17.2404 17.6865 18.0283C17.3616 18.315 17.0203 18.5847 16.6636 18.8334C16.2809 19.0493 15.9084 19.2738 15.5161 19.4517C14.794 19.7701 14.0368 20.0049 13.2595 20.1539C12.5215 20.2835 11.7734 20.3421 11.0221 20.3321H4.38691V20.3226L4.38974 20.319Z" fill="white"/>
</svg>
