<svg width="24" height="24" viewBox="0 0 24 24" fill="none" xmlns="http://www.w3.org/2000/svg">
<path d="M12.0151 2C12.4377 2.71302 12.8436 3.39704 13.2486 4.0816C14.8244 6.74476 16.3964 9.4102 17.9811 12.0678C18.131 12.3193 18.0911 12.4107 17.8496 12.554C15.9628 13.6735 14.0853 14.8092 12.2077 15.9447C12.0889 16.0165 12.0026 16.0628 11.8625 15.9778C9.91851 14.7999 7.97064 13.6287 6.02403 12.4553C5.98456 12.4315 5.94855 12.4017 5.88892 12.359C7.92598 8.91446 9.96011 5.47489 12.0151 2ZM18.1111 13.2502C18.0315 13.2366 17.9843 13.2573 17.9404 13.2837C16.0637 14.4142 14.1853 15.5417 12.3137 16.6809C12.091 16.8165 11.9323 16.8358 11.6942 16.6901C9.88304 15.5813 8.06028 14.492 6.24091 13.397C6.15907 13.3478 6.07522 13.3019 5.99231 13.2545C5.9815 13.2705 5.97064 13.2865 5.95982 13.3025C7.97256 16.193 9.98533 19.0836 12.0161 22C14.0577 19.0691 16.0844 16.1596 18.1111 13.2502Z" fill="white"/>
</svg>
