<svg width="24" height="24" viewBox="0 0 24 24" fill="none" xmlns="http://www.w3.org/2000/svg">
<path d="M16.3917 9.76109H7.48519C5.0396 9.75125 3.03687 11.6949 2.9729 14.1405C2.9729 14.2045 3.02211 14.2586 3.091 14.2586H11.9975C14.4431 14.2685 16.4458 12.3199 16.5098 9.87427C16.5098 9.8103 16.4557 9.75617 16.3917 9.75617V9.76109Z" fill="white"/>
<path d="M7.48519 3.00004C5.0396 2.9902 3.03687 4.9388 2.97782 7.38439C2.97782 7.44836 3.02703 7.50249 3.091 7.50249H16.5147C18.9603 7.51233 20.963 5.56373 21.027 3.11813C21.027 3.05416 20.9729 3.00004 20.9089 3.00004H7.48519Z" fill="white"/>
<path d="M5.23151 21C6.4789 21 7.49011 19.9888 7.49011 18.7414C7.49011 17.494 6.4789 16.4828 5.23151 16.4828C3.98411 16.4828 2.9729 17.494 2.9729 18.7414C2.9729 19.9888 3.98411 21 5.23151 21Z" fill="white"/>
</svg>
