<svg width="24" height="24" viewBox="0 0 24 24" fill="none" xmlns="http://www.w3.org/2000/svg">
<path fill-rule="evenodd" clip-rule="evenodd" d="M6.86952 4.17383H2.34775C2.25552 4.17383 2.16707 4.21047 2.10185 4.27568C2.03664 4.3409 2 4.42935 2 4.52158V9.04335C2 9.1356 2.03663 9.22408 2.10184 9.28934C2.16705 9.35459 2.2555 9.39129 2.34775 9.39136H6.86952C6.96182 9.39136 7.05034 9.35469 7.1156 9.28943C7.18086 9.22416 7.21753 9.13565 7.21753 9.04335V4.52158C7.21746 4.42933 7.18077 4.34087 7.11551 4.27567C7.05025 4.21046 6.96178 4.17383 6.86952 4.17383ZM12.0894 9.39136H7.56759C7.47536 9.39136 7.38691 9.42799 7.3217 9.49321C7.25648 9.55843 7.21984 9.64688 7.21984 9.73911V14.2609C7.21984 14.3531 7.25647 14.4416 7.32168 14.5069C7.38689 14.5721 7.47534 14.6088 7.56759 14.6089H12.0894C12.1351 14.6089 12.1803 14.5999 12.2225 14.5824C12.2647 14.5649 12.3031 14.5393 12.3354 14.5069C12.3676 14.4746 12.3933 14.4363 12.4107 14.394C12.4282 14.3518 12.4371 14.3066 12.4371 14.2609V9.73911C12.4371 9.64688 12.4005 9.55843 12.3353 9.49321C12.27 9.42799 12.1816 9.39136 12.0894 9.39136ZM12.7833 4.17383H17.3046C17.3968 4.17383 17.4853 4.21046 17.5506 4.27567C17.6158 4.34087 17.6525 4.42933 17.6526 4.52158V9.04335C17.6526 9.13565 17.6159 9.22416 17.5507 9.28943C17.4854 9.35469 17.3969 9.39136 17.3046 9.39136H12.7828C12.6906 9.39129 12.6021 9.35459 12.5369 9.28934C12.4717 9.22408 12.4351 9.1356 12.4351 9.04335V4.52158C12.4351 4.42935 12.4717 4.3409 12.5369 4.27568C12.6021 4.21047 12.6911 4.17383 12.7833 4.17383ZM6.86952 14.6089H2.34775C2.25552 14.6089 2.16707 14.6455 2.10185 14.7107C2.03664 14.776 2 14.8644 2 14.9566V19.4784C2 19.5707 2.03663 19.6591 2.10184 19.7244C2.16705 19.7897 2.2555 19.8263 2.34775 19.8264H6.86952C6.96182 19.8264 7.05034 19.7898 7.1156 19.7245C7.18086 19.6592 7.21753 19.5707 7.21753 19.4784V14.9566C7.21746 14.8644 7.18077 14.7759 7.11551 14.7107C7.05025 14.6455 6.96178 14.6089 6.86952 14.6089ZM12.7828 14.6089H17.3046C17.3968 14.6089 17.4853 14.6455 17.5506 14.7107C17.6158 14.7759 17.6525 14.8644 17.6526 14.9566V19.4784C17.6526 19.5707 17.6159 19.6592 17.5507 19.7245C17.4854 19.7898 17.3969 19.8264 17.3046 19.8264H12.7828C12.6906 19.8263 12.6021 19.7897 12.5369 19.7244C12.4717 19.6591 12.4351 19.5707 12.4351 19.4784V14.9566C12.4351 14.8644 12.4717 14.776 12.5369 14.7107C12.6021 14.6455 12.6906 14.6089 12.7828 14.6089Z" fill="white"/>
<path d="M18.4957 4.17383H19.9355C20.1149 4.17383 20.2603 4.31924 20.2603 4.49862V9.05388C20.2603 9.23326 20.1149 9.37867 19.9355 9.37867H18.4957V4.17383Z" fill="white"/>
<path d="M18.4957 14.6216H19.9355C20.1149 14.6216 20.2603 14.767 20.2603 14.9464V19.5016C20.2603 19.681 20.1149 19.8264 19.9355 19.8264H18.4957V14.6216Z" fill="white"/>
<path d="M21.1682 4.17383H21.6752C21.8546 4.17383 22 4.31924 22 4.49862V9.05388C22 9.23326 21.8546 9.37867 21.6752 9.37867H21.1682V4.17383Z" fill="white"/>
<path d="M21.1682 14.6216H21.6752C21.8546 14.6216 22 14.767 22 14.9464V19.5016C22 19.681 21.8546 19.8264 21.6752 19.8264H21.1682V14.6216Z" fill="white"/>
</svg>
