<svg width="24" height="24" viewBox="0 0 24 24" fill="none" xmlns="http://www.w3.org/2000/svg">
<path d="M4.83597 4.14275L12.3396 11.66C12.4285 11.75 12.4785 11.8715 12.4785 11.9983C12.4785 12.125 12.4285 12.2465 12.3396 12.3365C12.2936 12.384 12.2383 12.4212 12.177 12.4457C12.1158 12.4703 12.05 12.4816 11.9841 12.479H4.49475C4.4316 12.4795 4.36897 12.4674 4.31054 12.4434C4.25211 12.4194 4.19903 12.384 4.15438 12.3392C4.10972 12.2945 4.07438 12.2413 4.05044 12.1828C4.02649 12.1242 4.01441 12.0615 4.01488 11.9983V4.47748C4.01552 4.38244 4.04426 4.28973 4.09747 4.21106C4.15069 4.13238 4.22599 4.07127 4.31386 4.03545C4.40173 3.99963 4.49824 3.99071 4.59116 4.00981C4.6841 4.0289 4.76928 4.07516 4.83597 4.14275Z" fill="white"/>
<path d="M19.1644 19.8537L11.6608 12.3365C11.5718 12.2465 11.5219 12.1249 11.5219 11.9982C11.5219 11.8715 11.5718 11.75 11.6608 11.6599C11.7076 11.614 11.7633 11.578 11.8244 11.5542C11.8854 11.5303 11.9507 11.519 12.0162 11.5211H19.5233C19.6497 11.5211 19.7708 11.5714 19.8602 11.6609C19.9495 11.7503 19.9997 11.8717 19.9997 11.9982V19.519C20.0002 19.582 19.9882 19.6444 19.9644 19.7027C19.9407 19.761 19.9057 19.8141 19.8614 19.8587C19.8171 19.9034 19.7645 19.9389 19.7065 19.9631C19.6484 19.9873 19.5862 19.9998 19.5233 19.9998C19.4573 20.0008 19.3918 19.9885 19.3307 19.9633C19.2696 19.9382 19.2142 19.9009 19.1679 19.8537" fill="white"/>
<path d="M12.3396 12.3365L4.83556 19.8539C4.78942 19.9013 4.73407 19.9387 4.67293 19.9638C4.6118 19.9889 4.54617 20.0012 4.48011 19.9999C4.41696 20.0004 4.35435 19.9883 4.29592 19.9643C4.23749 19.9403 4.18439 19.9049 4.13974 19.8602C4.09508 19.8154 4.05976 19.7623 4.03582 19.7037C4.01187 19.6451 3.99978 19.5824 4.00026 19.5192V11.9984C4.00026 11.9354 4.01268 11.8731 4.03684 11.815C4.06099 11.7569 4.09641 11.7041 4.14102 11.6597C4.18562 11.6154 4.23854 11.5803 4.29674 11.5565C4.35494 11.5328 4.41726 11.5208 4.48011 11.5213H12.0015C12.0974 11.5172 12.1924 11.5423 12.2739 11.5934C12.3553 11.6444 12.4195 11.7189 12.4579 11.807C12.4964 11.8952 12.5073 11.993 12.4893 12.0875C12.4713 12.182 12.4251 12.2689 12.3569 12.3367" fill="white"/>
<path d="M4.15677 19.1809L11.6604 11.6637C11.7063 11.6162 11.7617 11.579 11.8229 11.5545C11.8841 11.5299 11.9503 11.5185 12.0162 11.5211C12.1425 11.5211 12.2633 11.5715 12.3526 11.661C12.4419 11.7505 12.4921 11.8718 12.4921 11.9984V19.5192C12.4926 19.5821 12.4806 19.6446 12.4569 19.7029C12.4332 19.7611 12.3981 19.8142 12.3538 19.8589C12.3096 19.9036 12.257 19.9391 12.1989 19.9632C12.1409 19.9874 12.0787 19.9999 12.0158 19.9999H4.49446C4.43145 20.0005 4.36899 19.9881 4.31092 19.9636C4.25285 19.9392 4.20039 19.903 4.15677 19.8575C4.11185 19.8134 4.07616 19.7607 4.05179 19.7026C4.02743 19.6446 4.01487 19.5822 4.01487 19.5192C4.01487 19.4561 4.02743 19.3938 4.05179 19.3357C4.07616 19.2776 4.11185 19.2249 4.15677 19.1809Z" fill="white"/>
<path d="M11.6608 11.6599L19.1642 4.143C19.2107 4.09626 19.2661 4.05952 19.3273 4.03502C19.3884 4.01053 19.4538 3.99881 19.5197 4.00056C19.5822 4.00056 19.6441 4.0129 19.702 4.03688C19.7597 4.06086 19.8122 4.09602 19.8564 4.14033C19.9007 4.18464 19.9358 4.23724 19.9597 4.29513C19.9837 4.35302 19.996 4.41507 19.996 4.47773V11.9985C19.9965 12.0615 19.9845 12.1239 19.9607 12.1822C19.937 12.2405 19.902 12.2935 19.8577 12.3382C19.8134 12.3829 19.7608 12.4184 19.7028 12.4426C19.6447 12.4668 19.5825 12.4792 19.5197 12.4792H12.0019C11.9059 12.4822 11.8113 12.4562 11.7302 12.4048C11.6491 12.3533 11.5853 12.2786 11.5471 12.1904C11.5088 12.1022 11.4978 12.0046 11.5155 11.91C11.5332 11.8155 11.5788 11.7285 11.6464 11.6602" fill="white"/>
<path d="M19.8462 4.81935L12.3426 12.3366C12.2957 12.3826 12.2401 12.419 12.1791 12.4434C12.1181 12.4679 12.0528 12.48 11.9871 12.479C11.924 12.4795 11.8614 12.4674 11.8029 12.4434C11.7445 12.4194 11.6915 12.384 11.6468 12.3392C11.6021 12.2945 11.5668 12.2413 11.5428 12.1828C11.5189 12.1243 11.5068 12.0615 11.5073 11.9983V4.4775C11.5073 4.41453 11.5197 4.3522 11.5439 4.29407C11.5681 4.23594 11.6035 4.18318 11.6481 4.13882C11.6926 4.09446 11.7456 4.05939 11.8038 4.03563C11.862 4.01186 11.9243 3.99986 11.9871 4.00033H19.4943C19.5599 3.9979 19.6253 4.00897 19.6864 4.03285C19.7475 4.05674 19.8031 4.09293 19.8498 4.1392C19.939 4.22982 19.989 4.352 19.989 4.47928C19.989 4.60657 19.939 4.72873 19.8498 4.81935" fill="white"/>
</svg>
