<svg width="24" height="24" viewBox="0 0 24 24" fill="none" xmlns="http://www.w3.org/2000/svg">
<path d="M15.8406 12.0008C15.8406 10.5979 15.1008 9.33884 13.9382 8.61938L13.8678 8.5834C12.7053 7.89993 11.2609 7.89993 10.0983 8.5834L10.0278 8.61938C8.83007 9.30286 8.12549 10.5979 8.12549 12.0008C8.12549 13.4038 8.8653 14.6628 10.0278 15.3822L10.0983 15.4183C11.2609 16.1017 12.7053 16.1017 13.8678 15.4183L13.9382 15.3822C15.1361 14.6988 15.8406 13.4038 15.8406 12.0008Z" fill="white"/>
<path fill-rule="evenodd" clip-rule="evenodd" d="M12.2757 19.8241L14.0444 20.7965L12.0016 22L3.40942 16.9975V10.206L5.44214 9.00849V15.8169L12.2757 19.8241ZM12.0016 2L17.8427 5.44094V7.79384L11.9992 4.37288L7.52493 6.97877L3.40942 9.37368V7.00251L12.0016 2ZM18.5578 5.80693L20.5906 7.0044V16.9965L14.747 20.4175L12.7293 19.2289L18.5578 15.8166V5.80693Z" fill="white"/>
</svg>
