<svg width="24" height="24" viewBox="0 0 24 24" fill="none" xmlns="http://www.w3.org/2000/svg">
<path d="M21.9765 11.3214C21.6018 5.81154 16.8313 1.64866 11.3214 2.02345C8.57659 2.21014 6.16655 3.48812 4.48475 5.4045L4.48477 5.40448L4.48007 5.4011C4.46874 5.41678 4.45816 5.43225 4.4469 5.44792C2.77634 7.37365 1.83676 9.93419 2.02344 12.6786C2.04122 12.9401 2.07201 13.1975 2.1092 13.4526C2.10921 13.4526 2.10921 13.4527 2.10923 13.4528C2.1109 13.4643 2.11261 13.4758 2.11423 13.4873C2.13938 13.6556 2.16857 13.8224 2.20188 13.9876C2.20191 13.9877 2.20192 13.9878 2.20194 13.9879C2.20255 13.9909 2.20313 13.9939 2.20372 13.9969C2.23404 14.1466 2.26773 14.2949 2.3046 14.4419L2.30466 14.4422C2.3047 14.4423 2.30473 14.4424 2.30475 14.4426C3.45964 19.0482 7.77481 22.3101 12.6786 21.9766C18.1885 21.6018 22.3513 16.8313 21.9766 11.3214H21.9765ZM19.7998 11.4695C19.846 12.1478 19.8033 12.812 19.6825 13.451C19.681 13.4473 19.6799 13.4435 19.6784 13.4398V13.4398C18.9534 11.6678 17.5194 10.3884 16.2582 9.68165C16.5135 6.67899 15.4948 5.41399 14.3419 5.20817C14.3106 5.20213 14.279 5.19698 14.247 5.19301C13.3319 5.07565 12.4951 5.72243 12.3779 6.63741C12.2606 7.55244 12.9074 8.38924 13.8223 8.50665C13.9021 8.51675 13.9811 8.51955 14.0593 8.51832C14.0644 8.61968 14.0675 8.72735 14.0684 8.83995C13.0024 8.57577 12.0059 8.52407 11.0973 8.60575C10.7576 8.6284 10.4176 8.67121 10.0795 8.73439C10.1929 7.72048 10.5733 6.58216 11.3114 5.74912C12.025 4.94384 13.0858 4.48228 14.2431 4.60073C14.4624 4.62318 14.6965 4.67704 14.9073 4.74782C14.917 4.75107 14.9273 4.75382 14.9368 4.75715C14.937 4.75696 14.9372 4.75671 14.9373 4.75652C17.6178 5.84849 19.5905 8.39245 19.7998 11.4695V11.4695ZM12.83 12.9969C12.8292 12.9979 12.8285 12.999 12.8277 13.0001C12.5891 13.3442 12.3054 13.6836 11.9722 14.0118C11.4729 13.4804 11.0717 12.9083 10.7673 12.3163C10.7517 12.2846 10.7351 12.2544 10.7199 12.2222C10.7193 12.221 10.7187 12.2198 10.7181 12.2187C10.5394 11.8398 10.3873 11.4242 10.2697 10.9715C10.9802 10.8043 11.6771 10.7428 12.3426 10.7752C12.3779 10.7775 12.4123 10.7782 12.4479 10.7811C12.4492 10.7812 12.4505 10.7813 12.4518 10.7814C12.8686 10.816 13.3038 10.8919 13.754 11.0161C13.5435 11.7148 13.2484 12.3487 12.8877 12.9087C12.8681 12.938 12.8503 12.9675 12.83 12.9969V12.9969ZM9.41296 4.62395C9.4111 4.62636 9.40898 4.62864 9.40711 4.63104L9.4071 4.63105C8.23553 6.14416 7.84439 8.02462 7.86247 9.46987C5.13464 10.7502 4.54848 12.2648 4.94669 13.3661C4.95713 13.3962 4.96846 13.4262 4.98103 13.4559C5.33692 14.307 6.31544 14.7083 7.16643 14.3523C8.01755 13.9965 8.41885 13.0179 8.06305 12.1668C8.03188 12.0927 7.99484 12.0229 7.95468 11.9558C8.04089 11.9001 8.13347 11.8429 8.23178 11.7851C8.53601 12.8406 8.9861 13.7334 9.51118 14.4795C9.70031 14.7618 9.90695 15.0343 10.1302 15.2951C9.19534 15.704 8.01907 15.9439 6.92834 15.7211C5.87416 15.5058 4.94402 14.8179 4.46796 13.7564C4.37772 13.5552 4.30736 13.3256 4.26326 13.1077C4.23613 12.9173 4.21339 12.7254 4.20014 12.5305C3.95648 8.94844 6.17885 5.75948 9.41296 4.62395V4.62395ZM12.5305 19.7999C10.4034 19.9445 8.415 19.219 6.91222 17.9293C8.80841 18.1874 10.6325 17.5859 11.8751 16.8476C14.3488 18.5712 15.9542 18.3217 16.7091 17.4259C16.73 17.4018 16.7502 17.377 16.7697 17.3513C17.3288 16.6175 17.1871 15.5694 16.4533 15.0105C15.7196 14.4513 14.6715 14.593 14.1123 15.3267C14.0637 15.3908 14.0217 15.4578 13.9837 15.5261C13.893 15.4796 13.7977 15.4283 13.6993 15.3725C14.4619 14.5809 15.0054 13.7432 15.3892 12.915C15.5394 12.6094 15.6724 12.2935 15.7867 11.9691C16.6087 12.5743 17.4053 13.4734 17.758 14.5299C18.0986 15.5506 17.9679 16.7001 17.2867 17.6431C17.1575 17.8218 16.9938 17.9976 16.8272 18.1447C16.8248 18.1469 16.8224 18.1491 16.82 18.1513C15.6282 19.088 14.1536 19.6895 12.5305 19.7999V19.7999Z" fill="white"/>
</svg>
