<svg width="24" height="24" viewBox="0 0 24 24" fill="none" xmlns="http://www.w3.org/2000/svg">
<path fill-rule="evenodd" clip-rule="evenodd" d="M11.0338 8.83318C7.33617 8.83318 4.33862 11.8307 4.33862 15.5284V21.5H15.3277C18.8256 21.5 21.6611 18.6644 21.6611 15.1666C21.6611 11.6688 18.8256 8.83318 15.3277 8.83318H11.0338ZM12.6934 15.2083C15.794 15.2083 18.3251 12.7697 18.4734 9.70585C17.5482 9.1769 16.4767 8.87462 15.3346 8.87462H11.0407C7.46436 8.87462 4.54294 11.6787 4.35511 15.2083H12.6934Z" fill="white"/>
<path d="M12.6865 2.5H4.33862V15.1668H4.35745C4.56584 11.6568 7.47837 8.87462 11.0407 8.87462H15.3346C16.4731 8.87462 17.5414 9.17499 18.4646 9.70085C18.4704 9.59462 18.4734 9.48763 18.4734 9.37994V8.28689C18.4734 5.09087 15.8825 2.5 12.6865 2.5Z" fill="white"/>
</svg>
