<svg width="24" height="24" viewBox="0 0 24 24" fill="none" xmlns="http://www.w3.org/2000/svg">
<path d="M8.69212 4.7817V6.885C6.99703 7.52031 5.58158 8.72993 4.68164 10.2761V4H7.91198C8.3424 4 8.69212 4.34972 8.69212 4.7817Z" fill="white"/>
<path d="M14.2656 7.44411V9.4592C14.2656 10.5703 13.3648 11.4712 12.2537 11.4712H11.5977C9.99772 11.4712 8.69926 12.7665 8.69613 14.368V20.0001H5.46172C5.02974 20.0001 4.68096 19.6504 4.68096 19.2193V14.4491C4.67783 14.3659 4.67627 14.2826 4.67627 14.1985C4.67627 10.4658 7.70266 7.43848 11.4363 7.43848C11.5205 7.43848 11.6037 7.44004 11.6875 7.44317H14.2659V7.44411H14.2656Z" fill="white"/>
<path d="M15.3076 19.2186V17.1152C17.0036 16.4793 18.4188 15.2697 19.3181 13.7231V19.9999H16.0878C15.658 20.0003 15.3076 19.6505 15.3076 19.2186Z" fill="white"/>
<path d="M9.7342 16.556V14.5409C9.7342 13.4298 10.6351 12.529 11.7462 12.529H12.4021C14.0021 12.529 15.3006 11.2336 15.3037 9.63206V4H18.5381C18.9701 4 19.3189 4.34972 19.3189 4.78076V9.55105C19.3229 9.63425 19.3236 9.71746 19.3236 9.80223C19.3236 13.5349 16.2972 16.5623 12.5635 16.5623C12.4794 16.5623 12.3962 16.5607 12.3123 16.5576H9.73389V16.556H9.7342Z" fill="white"/>
</svg>
