<svg width="24" height="24" viewBox="0 0 24 24" fill="none" xmlns="http://www.w3.org/2000/svg">
<path fill-rule="evenodd" clip-rule="evenodd" d="M19.9455 6.34487C20.4622 6.66741 20.787 7.22369 20.8139 7.83213L20.8136 16.1438C20.7941 16.6866 20.5351 17.1928 20.1064 17.5263L12.6 21.8734C12.3856 21.9573 12.1574 22.0002 11.9273 21.9999C11.6763 22.0018 11.4277 21.9506 11.1978 21.8499C11.1769 21.8397 11.1234 21.8101 11.045 21.7666C11.0308 21.7587 11.0159 21.7504 11.0001 21.7417C10.9337 21.7043 10.8528 21.6585 10.7618 21.6069L8.01393 20.0248L8.63848 18.9656L11.6961 20.7242C11.8369 20.7802 11.9931 20.7833 12.1361 20.7329L14.7205 19.2351L17.2689 17.7582L17.9815 17.3449L19.364 16.5442C19.3702 16.539 19.3763 16.5336 19.3823 16.5282C19.3764 16.5333 19.3705 16.5383 19.3644 16.5432L17.9819 17.3439L14.1602 11.1631L15.6298 8.67135L19.5771 14.8193V7.87845C19.5677 7.6792 19.4619 7.49691 19.2934 7.38987L12.1661 3.29011C11.9937 3.20816 11.7933 3.20916 11.6215 3.29268C11.599 3.30394 4.51847 7.40242 4.48569 7.42593C4.3359 7.53368 4.24212 7.703 4.23043 7.88715L4.23998 14.5223L3 16.4283V7.82857C3.02808 7.2673 3.3117 6.74979 3.76964 6.42412C3.85687 6.36169 3.94937 6.30696 4.04614 6.2605C4.04614 6.2605 11.0078 2.22288 11.0681 2.19252C11.5905 1.93583 12.2025 1.93583 12.7248 2.19252L19.9455 6.34487ZM3.00146 17.1367L3.00075 17.1363L3.00146 17.1369V17.1367ZM3.00146 17.1367L4.95208 18.2607L11.4456 7.84719L10.3436 7.81868C9.40459 7.80543 8.39308 8.04943 7.92888 8.80739L4.24144 14.5227L3.00146 16.4287V17.1367ZM11.9623 14.9044L14.721 19.234L17.2694 17.7572L13.6465 12.0469L11.9623 14.9044ZM15.1933 7.847L12.2889 7.85755L5.71756 18.7014L8.01437 20.0239L8.63892 18.9645L15.1933 7.847Z" fill="white"/>
</svg>
