<svg width="24" height="24" viewBox="0 0 24 24" fill="none" xmlns="http://www.w3.org/2000/svg">
<path fill-rule="evenodd" clip-rule="evenodd" d="M8.5998 3H3.3999C3.29384 3 3.19212 3.04213 3.11713 3.11713C3.04213 3.19212 3 3.29384 3 3.3999L3 8.5998C3 8.70589 3.04212 8.80764 3.11711 8.88268C3.1921 8.95772 3.29381 8.99992 3.3999 9H8.5998C8.70594 9 8.80773 8.95784 8.88279 8.88279C8.95784 8.80773 9 8.70594 9 8.5998V3.3999C8.99992 3.29381 8.95772 3.1921 8.88268 3.11711C8.80764 3.04212 8.70589 3 8.5998 3V3ZM14.6025 9H9.40256C9.2965 9 9.19478 9.04213 9.11979 9.11713C9.04479 9.19212 9.00266 9.29384 9.00266 9.3999V14.5998C9.00266 14.7059 9.04478 14.8076 9.11977 14.8827C9.19476 14.9577 9.29647 14.9999 9.40256 15H14.6025C14.655 15 14.707 14.9896 14.7556 14.9695C14.8041 14.9494 14.8482 14.9199 14.8853 14.8828C14.9225 14.8456 14.9519 14.8015 14.972 14.7529C14.9921 14.7044 15.0024 14.6523 15.0024 14.5998V9.3999C15.0024 9.29384 14.9602 9.19212 14.8852 9.11713C14.8102 9.04213 14.7085 9 14.6025 9ZM15.4005 3H20.5998C20.7059 3 20.8076 3.04212 20.8827 3.11711C20.9577 3.1921 20.9999 3.29381 21 3.3999V8.5998C21 8.70594 20.9578 8.80773 20.8828 8.88279C20.8077 8.95784 20.7059 9 20.5998 9H15.3999C15.2938 8.99992 15.1921 8.95772 15.1171 8.88268C15.0421 8.80764 15 8.70589 15 8.5998V3.3999C15 3.29384 15.0421 3.19212 15.1171 3.11713C15.1921 3.04213 15.2938 3 15.3999 3H15.4005ZM8.5998 15H3.3999C3.29384 15 3.19212 15.0421 3.11713 15.1171C3.04213 15.1921 3 15.2938 3 15.3999L3 20.5998C3 20.7059 3.04212 20.8076 3.11711 20.8827C3.1921 20.9577 3.29381 20.9999 3.3999 21H8.5998C8.70594 21 8.80773 20.9578 8.88279 20.8828C8.95784 20.8077 9 20.7059 9 20.5998V15.3999C8.99992 15.2938 8.95772 15.1921 8.88268 15.1171C8.80764 15.0421 8.70589 15 8.5998 15ZM15.3999 15H20.5998C20.7059 15 20.8076 15.0421 20.8827 15.1171C20.9577 15.1921 20.9999 15.2938 21 15.3999V20.5998C21 20.7059 20.9578 20.8077 20.8828 20.8828C20.8077 20.9578 20.7059 21 20.5998 21H15.3999C15.2938 20.9999 15.1921 20.9577 15.1171 20.8827C15.0421 20.8076 15 20.7059 15 20.5998V15.3999C15 15.2938 15.0421 15.1921 15.1171 15.1171C15.1921 15.0421 15.2938 15 15.3999 15V15Z" fill="white"/>
</svg>
