<svg width="24" height="24" viewBox="0 0 24 24" fill="none" xmlns="http://www.w3.org/2000/svg">
<path fill-rule="evenodd" clip-rule="evenodd" d="M22 13.071C22 13.1659 21.9782 13.2561 21.9361 13.3344L17.6473 20.7632C17.4654 21.0784 17.1294 21.2723 16.7656 21.2723H7.23444C6.87063 21.2723 6.5346 21.0784 6.3527 20.7632L2.06341 13.3339C2.02175 13.2557 2 13.1659 2 13.071C2 12.7637 2.24948 12.5142 2.55682 12.5142H7.26267L8.45545 14.5401L8.46286 14.5521C8.62208 14.8076 8.95672 14.891 9.21777 14.7373L9.2312 14.729C9.35154 14.6535 9.43856 14.5346 9.4742 14.3966L10.9938 8.52206L12.2985 17.9796L12.3004 17.9925C12.3485 18.2902 12.6258 18.4961 12.9262 18.4549L12.9396 18.4531C13.1571 18.4175 13.3335 18.2573 13.389 18.043L15.2206 10.9622L15.9727 12.2397L15.9801 12.2522C16.0815 12.4147 16.2601 12.5142 16.4522 12.5142H21.4427C21.7501 12.5142 21.9995 12.7637 21.9995 13.071H22ZM16.7656 2.72803C17.1294 2.72803 17.4654 2.92196 17.6473 3.23717L21.9366 10.6665C21.9782 10.7447 22 10.8349 22 10.9298C22 11.2372 21.7505 11.4866 21.4432 11.4866H16.7221L15.5293 9.46073L15.5209 9.44731C15.4455 9.32696 15.3265 9.23995 15.1886 9.20431L15.1757 9.20107C14.8822 9.13256 14.586 9.3103 14.5101 9.60375L12.9905 15.4783L11.6857 6.02078L11.6839 6.00736C11.6482 5.78982 11.4881 5.61347 11.2738 5.55793C10.9762 5.48109 10.6725 5.65976 10.5952 5.95737L8.76371 13.0381L8.01157 11.7607L8.00417 11.7482C7.9028 11.5857 7.72414 11.4862 7.53205 11.4862H2.55682C2.24948 11.4862 2 11.2367 2 10.9294C2 10.8354 2.02129 10.7465 2.06202 10.6688L6.3527 3.23717C6.5346 2.92196 6.87063 2.72803 7.23444 2.72803H16.7651H16.7656Z" fill="white"/>
</svg>
