<svg width="24" height="24" viewBox="0 0 24 24" fill="none" xmlns="http://www.w3.org/2000/svg">
<path d="M12.0001 10.8753L3.33984 15.9604V18.755L12.0001 13.6701L20.6604 18.755V15.9604L12.0001 10.8753Z" fill="white"/>
<path d="M5.86999 7.79102L12.0001 4.25186L18.1301 7.79102L20.4187 6.86049L12.0001 2L3.58154 6.86049L5.86999 7.79102Z" fill="white"/>
<path d="M18.1301 8.38281V16.2091L17.2197 16.7348L19.1533 17.8702L20.6604 17V7.35407L18.1301 8.38281ZM6.7806 16.7348L5.86263 16.2048V8.37981L3.33984 7.354V17L4.84688 17.8702L6.7806 16.7348Z" fill="white"/>
<path d="M16.6798 17.0464L12.0001 19.7483L7.32028 17.0464L5.38656 18.1818L12.0001 22.0001L18.6135 18.1818L16.6798 17.0464Z" fill="white"/>
</svg>
