<svg width="24" height="24" viewBox="0 0 24 24" fill="none" xmlns="http://www.w3.org/2000/svg">
<path fill-rule="evenodd" clip-rule="evenodd" d="M11.9745 22C14.9452 22 17.6142 20.7112 19.4501 18.6635C18.5961 17.9232 17.3091 17.8783 16.3999 18.61L16.2262 18.7498C14.5616 20.0896 12.1361 19.8917 10.7118 18.3C9.93497 17.4318 8.60459 17.3432 7.71894 18.1005L5.71642 19.813C7.43157 21.1816 9.60724 22 11.9745 22ZM15.2251 17.1577C16.8106 15.8816 19.0392 15.9273 20.5641 17.1598C21.4756 15.6534 22 13.8878 22 12C22 9.90234 21.3525 7.95553 20.246 6.34761C19.5326 6.19608 18.7594 6.37306 18.1725 6.89185L18.0055 7.0395C16.4046 8.45449 13.9725 8.36851 12.4761 6.84404C11.6599 6.01258 10.3268 5.98528 9.47717 6.78261L7.14682 8.96942L5.86485 7.61027L8.1952 5.42344C9.78685 3.92983 12.2841 3.98097 13.8129 5.5385C14.6117 6.35231 15.9101 6.39821 16.7646 5.64284L16.9317 5.49519C17.4505 5.03666 18.0506 4.72754 18.679 4.56497C16.9028 2.97041 14.5523 2 11.9745 2C6.88519 2 2.68159 5.78255 2.03521 10.6829C3.58104 9.94301 5.48783 10.2277 6.74821 11.5152C7.54392 12.3279 8.82514 12.4137 9.72259 11.7143L11.0255 10.699C12.6631 9.42297 14.9779 9.48473 16.5446 10.8463L19.0813 13.0508L17.8524 14.4578L15.3157 12.2533C14.4248 11.4791 13.1085 11.4439 12.1774 12.1695L10.8744 13.1849C9.2255 14.4698 6.87159 14.3122 5.40968 12.819C4.55959 11.9506 3.16925 11.9203 2.28196 12.7508L2 13.0147C2.21101 15.1033 3.06637 17.0023 4.3648 18.5108L6.50124 16.6838C8.1603 15.265 10.6524 15.4311 12.1076 17.0574C12.8679 17.9071 14.1628 18.0127 15.0514 17.2975L15.2251 17.1577Z" fill="white"/>
</svg>
