<svg width="24" height="24" viewBox="0 0 24 24" fill="none" xmlns="http://www.w3.org/2000/svg">
<path fill-rule="evenodd" clip-rule="evenodd" d="M12.5064 3.65037L18.9799 7.38783C19.2924 7.56825 19.4849 7.90169 19.4849 8.26254V9.07381C19.4403 10.2896 18.4406 11.2615 17.2139 11.2615H6.78592C5.93529 11.2615 5.15016 11.5419 4.51791 12.0154V8.26254C4.51791 7.90169 4.71042 7.56825 5.02292 7.38783L11.4964 3.65037C11.8089 3.46995 12.1939 3.46995 12.5064 3.65037ZM3.00285 14.8616C2.99982 14.9238 2.99829 14.9863 2.99829 15.0492V15.0949H3.00285V15.7375C3.00285 16.6396 3.48413 17.4732 4.26539 17.9242L10.7389 21.6617C11.5201 22.1128 12.4827 22.1128 13.2639 21.6617L19.7374 17.9242C20.5187 17.4732 21 16.6396 21 15.7375V9.09854C21.001 9.06214 21.0015 9.02561 21.0015 8.98896V8.42781H21V8.26254C21 7.36042 20.5187 6.52682 19.7374 6.07576L13.2639 2.3383C12.4827 1.88723 11.5201 1.88723 10.7389 2.3383L4.2654 6.07575C3.48413 6.52682 3.00285 7.36042 3.00285 8.26254V14.8616ZM19.4849 12.0205V15.7375C19.4849 16.0983 19.2924 16.4317 18.9799 16.6122L12.5064 20.3496C12.1939 20.5301 11.8089 20.5301 11.4964 20.3496L5.02292 16.6122C4.71042 16.4317 4.51791 16.0983 4.51791 15.7375V14.904C4.59276 13.7165 5.57958 12.7766 6.78592 12.7766H17.2139C18.0659 12.7766 18.8521 12.4953 19.4849 12.0205ZM8.83455 10.1154V8.3478H9.84458V10.1154H11.3596V8.09529C11.3596 7.39801 10.7944 6.83275 10.0971 6.83275H8.58204C7.88476 6.83275 7.3195 7.39801 7.3195 8.09529V10.1154H8.83455ZM9.84459 13.903L9.84458 15.6706H8.83455L8.83455 13.903H7.3195L7.3195 15.9231C7.3195 16.6203 7.88476 17.1856 8.58204 17.1856H10.0971C10.7944 17.1856 11.3596 16.6203 11.3596 15.9231V13.903H9.84459ZM15.3998 15.6706V13.903H16.9148V15.9231C16.9148 16.6203 16.3496 17.1856 15.6523 17.1856H14.1372C13.4399 17.1856 12.8747 16.6203 12.8747 15.9231V13.903H14.3897V15.6706H15.3998ZM14.3897 10.1154V8.3478H15.3998V10.1154H16.9148V8.09529C16.9148 7.39801 16.3496 6.83275 15.6523 6.83275H14.1372C13.4399 6.83275 12.8747 7.39801 12.8747 8.09529V10.1154H14.3897Z" fill="white"/>
</svg>
