<svg width="24" height="24" viewBox="0 0 24 24" fill="none" xmlns="http://www.w3.org/2000/svg">
<path d="M21.987 10.7636C21.6646 10.5198 21.3295 10.2936 20.9827 10.0861C20.8332 9.99154 20.6942 9.88141 20.5678 9.75757C20.3086 9.50185 19.8769 9.05307 19.7362 8.77701C19.6449 8.60765 19.6821 8.2842 19.7533 7.98104C19.8747 7.44967 19.7822 6.8918 19.4958 6.42807L19.0453 5.69306C18.8375 5.35869 18.671 5.00044 18.549 4.62613C18.393 4.14548 18.1221 3.71011 17.7598 3.35766C17.0266 2.64129 14.9961 2.29073 13.3109 2.23314C13.2068 2.20276 13.101 2.17788 12.9942 2.15862C12.2423 2.02991 11.4429 1.81991 10.7232 1.95878C9.65795 2.15693 8.57915 2.49057 7.77471 3.31362C7.60535 3.48298 7.3581 3.55919 7.18366 3.71669C6.83649 4.02999 6.37075 4.02999 6.06254 4.37718C5.88131 4.58039 5.79834 5.24088 5.32585 5.49323C4.54342 5.91323 3.97099 6.37387 3.77625 6.60927C3.63229 6.78709 3.52221 6.99371 3.38334 7.17492C3.24446 7.35612 2.56705 7.68299 2.36721 7.87096C2.21778 8.03675 2.1093 8.23524 2.05049 8.45054C1.99166 8.66584 1.98413 8.89192 2.02849 9.11064C2.04036 9.16315 2.04882 9.20548 2.0556 9.23936C2.13349 9.52725 2.34349 10.0472 2.29438 10.286C2.23849 10.5688 1.51028 12.6756 3.14116 13.2378C3.28995 13.2826 3.42052 13.3738 3.51377 13.4982C3.60701 13.6225 3.65804 13.7734 3.65938 13.9288C3.69268 14.2101 3.77342 14.4839 3.89818 14.7384C4.00655 14.9447 4.16639 15.1198 4.36221 15.2464C4.57112 15.4455 4.76846 15.6563 4.95326 15.8781C5.52906 16.9433 5.36818 17.4752 6.47746 17.8376C6.7606 17.9311 7.03263 18.0555 7.28867 18.2084C7.60022 18.3963 7.93424 18.5442 8.28278 18.6488L8.32682 18.664C8.57238 18.0729 8.81963 17.5106 9.06859 16.9822C8.42632 16.3555 7.96806 15.5648 7.74353 14.696C7.51902 13.8272 7.53683 12.9134 7.79503 12.054C7.80044 12.0357 7.81041 12.0189 7.82403 12.0054C7.83763 11.992 7.85443 11.9821 7.87286 11.9769C7.8913 11.9716 7.91074 11.9712 7.92942 11.9755C7.94809 11.9798 7.96537 11.9887 7.97963 12.0015C8.39624 12.3673 9.66303 13.6849 9.51399 16.0661C9.95261 15.1905 10.3777 14.42 10.7672 13.7628C10.2968 12.9937 10.0447 12.1109 10.0378 11.2093C10.031 10.3077 10.2696 9.42119 10.7283 8.64492C10.7387 8.62885 10.753 8.61563 10.7699 8.60649C10.7867 8.59734 10.8056 8.59256 10.8248 8.59256C10.844 8.59256 10.8628 8.59734 10.8797 8.60649C10.8966 8.61563 10.9109 8.62885 10.9213 8.64492C11.2143 9.07847 12.0069 10.5078 11.5158 12.5485C11.8731 12.0032 12.1627 11.6002 12.3507 11.3478C12.8588 7.96072 15.4194 6.85144 16.0918 6.61604C16.1098 6.60937 16.1292 6.60739 16.148 6.61023C16.167 6.6131 16.1849 6.62072 16.2001 6.63239C16.2154 6.64406 16.2275 6.65941 16.2351 6.67699C16.2428 6.69456 16.246 6.71379 16.2442 6.73291C16.1389 7.76371 15.7636 8.74851 15.1561 9.58792C14.5486 10.4273 13.7304 11.0916 12.7842 11.5138C12.4269 11.9829 12.0848 12.4774 11.7562 12.9856C12.8892 12.0981 14.4794 11.6815 15.8005 12.0015C15.819 12.0059 15.8364 12.0148 15.8506 12.0275C15.865 12.0402 15.876 12.0563 15.8826 12.0743C15.889 12.0923 15.891 12.1116 15.8882 12.1305C15.8854 12.1495 15.8779 12.1674 15.8665 12.1827C15.4871 12.6908 13.9765 14.3844 11.1246 13.9914C10.6453 14.8027 10.2033 15.624 9.81375 16.4081C11.0416 15.4801 12.8367 15.1228 14.2289 15.5918C14.2474 15.5976 14.2643 15.608 14.2777 15.6219C14.2913 15.636 14.301 15.653 14.306 15.6719C14.3111 15.6906 14.3113 15.7104 14.3067 15.7293C14.302 15.7482 14.2928 15.7655 14.2797 15.7798C13.8478 16.2456 12.183 17.7732 9.44455 17.1669C9.18712 17.7105 8.80439 18.6013 8.6181 19.0416C8.55375 19.1941 8.49447 19.3465 8.44875 19.5022C8.32851 19.8613 8.16423 20.3101 7.96947 20.7589C7.94241 20.8228 7.92876 20.8916 7.92932 20.9609C7.92989 21.0304 7.94468 21.099 7.97276 21.1625C8.00085 21.2259 8.04165 21.283 8.09264 21.3301C8.14363 21.3771 8.20373 21.4134 8.26923 21.4364C10.4292 22.2082 12.7747 22.2952 14.9858 21.6853C15.059 21.6644 15.1263 21.6273 15.1832 21.5769C15.24 21.5266 15.2848 21.464 15.3145 21.394C15.3601 21.2856 15.4058 21.1822 15.4058 21.1822C15.4058 21.1822 16.361 18.9637 16.5015 17.9968C16.542 17.6921 16.6367 17.3974 16.781 17.1262C16.8558 16.9905 16.964 16.8761 17.0953 16.7937C17.2265 16.7113 17.3766 16.6638 17.5313 16.6554C18.2578 16.6165 19.8074 16.5149 20.3714 16.337C21.1215 16.0982 20.7965 14.7332 20.7558 14.5876C20.7151 14.442 21.1165 14.0981 21.1994 13.8984C21.2825 13.6985 20.9962 13.6308 20.8794 13.4105C20.7626 13.1904 21.169 13.0345 21.2266 12.8348C21.2842 12.6349 21.0945 12.4181 21.0182 12.2708C20.9661 12.1638 20.9302 12.0497 20.9115 11.9321C20.9115 11.9321 21.4603 11.5307 21.7583 11.2767C22.0565 11.0227 21.9954 10.8144 21.9938 10.7686" fill="white"/>
</svg>
