<svg width="24" height="24" viewBox="0 0 24 24" fill="none" xmlns="http://www.w3.org/2000/svg">
<path d="M4.91151 13.9818L4.99221 15.4587C4.99749 15.5592 5.03503 15.6539 5.09836 15.7314C5.54108 16.2698 7.52593 18.1484 11.9988 18.1484C16.4716 18.1484 18.4325 16.2941 18.8916 15.7415C18.9608 15.658 19.0007 15.5545 19.0071 15.4456L19.0871 13.9828C19.6196 13.6893 20.1694 13.3576 20.1694 13.3576C21.0337 12.8872 21.9982 13.5629 22 14.554C22.0029 16.1574 20.7557 17.8052 19.0734 18.8436C17.1765 20.0145 14.3449 20.5003 12 20.5003C9.65509 20.5003 6.82352 20.0145 4.9266 18.8436C3.24429 17.8052 1.99707 16.158 2.00001 14.554C2.00176 13.5629 2.96635 12.8872 3.83066 13.3576C3.83066 13.3576 4.37944 13.6885 4.91151 13.9818Z" fill="white"/>
<path d="M11.9994 3.5C15.6566 3.5 16.6482 3.58579 18.1352 3.75738C18.8207 3.83666 19.3695 4.34904 19.3185 5.04307L18.7707 12.5386C18.5993 12.5885 18.4124 12.6515 18.2028 12.7221C17.1041 13.0925 15.3817 13.6732 11.9994 13.6732C8.61699 13.6732 6.89465 13.0925 5.79594 12.7221C5.58611 12.6514 5.399 12.5883 5.22745 12.5384L4.6797 5.04307C4.62928 4.34904 5.17695 3.82423 5.86358 3.75738C7.33244 3.61419 8.86172 3.5 11.9994 3.5ZM5.48991 16.13L5.49183 16.1564L5.52962 16.1651C5.51611 16.1533 5.50287 16.1416 5.48991 16.13ZM18.4723 16.1643L18.5064 16.1564L18.5081 16.1324C18.4964 16.1429 18.4845 16.1535 18.4723 16.1643Z" fill="white"/>
</svg>
