<svg width="24" height="24" viewBox="0 0 24 24" fill="none" xmlns="http://www.w3.org/2000/svg">
<path d="M21.5798 17.516L18.1527 12.8546C17.7803 12.3481 17.229 12.0447 16.6419 11.9778C16.5083 11.9622 16.389 11.8846 16.3221 11.7675C16.2541 11.6504 16.2469 11.5082 16.3007 11.384C16.5357 10.8417 16.55 10.2121 16.297 9.63628L13.9785 4.33452C13.6348 3.54727 12.858 3.03955 12 3.03955C11.142 3.03955 10.3652 3.54847 10.0215 4.33452L7.70295 9.63628C7.45117 10.2121 7.4643 10.8417 7.69938 11.384C7.75309 11.5082 7.74472 11.6504 7.67788 11.7675C7.60988 11.8846 7.49175 11.9622 7.3581 11.9778C6.77098 12.0447 6.21969 12.3481 5.84738 12.8546L2.42024 17.516C1.9119 18.2077 1.86059 19.1348 2.28898 19.879C2.71856 20.6221 3.54671 21.0413 4.39873 20.947L10.1445 20.3067C10.7686 20.2374 11.3067 19.9112 11.6576 19.4358C11.7375 19.3271 11.8651 19.2626 12 19.2626C12.1348 19.2626 12.2613 19.3271 12.3425 19.4358C12.6933 19.9112 13.2315 20.2374 13.8556 20.3067L19.6013 20.947C20.4533 21.0426 21.2815 20.6232 21.711 19.879C22.1394 19.1348 22.0881 18.2077 21.5798 17.516ZM9.20173 10.3017L11.5239 4.99396C11.6074 4.80401 11.7948 4.68096 12.0012 4.68096C12.2077 4.68096 12.395 4.80401 12.4785 4.99396L14.8007 10.3017C14.8735 10.4689 14.858 10.6625 14.7578 10.8154C14.6575 10.9683 14.4881 11.0603 14.3042 11.0603H9.69696C9.51437 11.0603 9.34374 10.9683 9.2435 10.8154C9.14326 10.6625 9.12775 10.4689 9.20054 10.3017H9.20173ZM10.3938 18.3821C10.3115 18.5458 10.1516 18.6558 9.97024 18.676L4.21853 19.3163C4.01328 19.339 3.81281 19.2387 3.709 19.0595C3.60518 18.8803 3.6183 18.6569 3.74122 18.4897L7.17193 13.8234C7.28054 13.6765 7.45474 13.5929 7.63733 13.6036C7.8199 13.6132 7.98457 13.7147 8.07645 13.8736L8.08005 13.8796L10.3771 17.8625L10.3807 17.8685C10.4726 18.0273 10.4773 18.2208 10.3951 18.3833L10.3938 18.3821ZM12.4725 16.5806C12.3747 16.7491 12.1957 16.8542 12 16.8542C11.8055 16.8542 11.6254 16.7503 11.5274 16.5818L9.76258 13.5224C9.66472 13.354 9.66472 13.1449 9.76258 12.9764C9.86044 12.808 10.0394 12.7029 10.2351 12.7029H13.7637C13.9582 12.7029 14.1384 12.8056 14.2363 12.9752C14.3341 13.1449 14.3341 13.3528 14.2363 13.5212L12.4725 16.5806ZM20.2922 19.0595C20.1884 19.2387 19.9891 19.3402 19.7827 19.3175L14.031 18.6772C13.8496 18.6569 13.6897 18.547 13.6074 18.3833C13.5251 18.2197 13.5298 18.0261 13.6217 17.8685L13.6253 17.8625L15.9223 13.8796L15.926 13.8736C16.0178 13.7147 16.1825 13.6132 16.3651 13.6036C16.5476 13.5941 16.7219 13.6765 16.8304 13.8234L20.2612 18.4897C20.3841 18.6569 20.3961 18.8803 20.2934 19.0595H20.2922Z" fill="white"/>
</svg>
