<svg width="24" height="24" viewBox="0 0 24 24" fill="none" xmlns="http://www.w3.org/2000/svg">
<g clip-path="url(#clip0_7204_42554)">
<mask id="mask0_7204_42554" style="mask-type:luminance" maskUnits="userSpaceOnUse" x="2" y="2" width="20" height="20">
<path d="M22 2H2V22H22V2Z" fill="white"/>
</mask>
<g mask="url(#mask0_7204_42554)">
<path d="M4.49057 9.73578C3.72507 9.01341 3.18598 8.0754 3.18598 6.9541V6.83551C3.25068 4.93793 4.81402 3.40693 6.7116 3.34223H18.8087C19.1213 3.35302 19.3801 3.57944 19.3801 3.90288V14.1347C19.6604 14.1886 19.7898 14.2209 20.0594 14.318C20.2642 14.3934 20.5661 14.566 20.5661 14.566V3.90288C20.5445 2.93253 19.779 2.15625 18.8087 2.15625H6.7116C4.10243 2.19938 2 4.33415 2 6.9541C2 8.47432 2.69003 9.77891 3.83289 10.6954C3.90836 10.7601 3.98383 10.8355 4.18869 10.8355C4.54448 10.8355 4.79246 10.5552 4.78168 10.2425C4.7709 9.98375 4.66308 9.88672 4.49057 9.73578Z" fill="white"/>
<path d="M18.5066 14.8246H9.01867C8.38255 14.8246 7.86503 15.3529 7.86503 15.989V17.3475C7.88659 17.9728 8.42568 18.5227 9.05101 18.5227H9.75182V17.3475H9.05101V16.0105C9.05101 16.0105 9.22352 16.0105 9.43915 16.0105C10.6359 16.0105 11.52 17.1211 11.52 18.3179C11.52 19.3744 10.5604 20.7222 8.95398 20.6144C7.52001 20.5173 6.75451 19.2451 6.75451 18.3179V6.74908C6.75451 6.23156 6.33403 5.80029 5.80572 5.80029H4.85693V6.98628H5.55775V18.3179C5.5254 20.6251 7.19656 21.7895 8.9432 21.7895L18.5066 21.8219C20.4365 21.8219 21.9998 20.2586 21.9998 18.3287C21.9998 16.3987 20.4365 14.8246 18.5066 14.8246ZM20.8031 18.3933C20.76 19.6332 19.7464 20.6251 18.5066 20.6251L11.8543 20.6036C12.3825 19.989 12.706 19.1912 12.706 18.3287C12.706 16.9594 11.8866 16.0213 11.8866 16.0213H18.5066C19.7788 16.0213 20.8031 17.0564 20.8031 18.3287V18.3933Z" fill="white"/>
<path d="M16.027 7.19132H8.80322V6.01611H16.027C16.3181 6.01611 16.5445 6.25331 16.5445 6.53364V6.6738C16.5445 6.9649 16.3073 7.19132 16.027 7.19132Z" fill="white"/>
<path d="M16.027 12.7656H8.80322V11.5903H16.027C16.3181 11.5903 16.5445 11.8275 16.5445 12.1078V12.248C16.5445 12.5284 16.3073 12.7656 16.027 12.7656Z" fill="white"/>
<path d="M17.2774 9.9838H8.79224V8.80859H17.2774C17.5685 8.80859 17.7949 9.04579 17.7949 9.32612V9.46628C17.8057 9.7466 17.5685 9.9838 17.2774 9.9838Z" fill="white"/>
</g>
</g>
<defs>
<clipPath id="clip0_7204_42554">
<rect width="20" height="20" fill="white" transform="translate(2 2)"/>
</clipPath>
</defs>
</svg>
