<svg width="24" height="24" viewBox="0 0 24 24" fill="none" xmlns="http://www.w3.org/2000/svg">
<path fill-rule="evenodd" clip-rule="evenodd" d="M11.9999 2L6.68799 5.0634L8.64093 6.19396L11.9991 4.26279L15.359 6.19396L17.3119 5.0634L11.9999 2Z" fill="white"/>
<path fill-rule="evenodd" clip-rule="evenodd" d="M15.3581 7.79492L17.3119 8.92632V11.1899L13.9529 13.1219V16.9859L11.9999 18.1173L10.047 16.9859V13.1219L6.68799 11.1899V8.92632L8.64093 7.79492L11.9991 9.72692L15.359 7.79492H15.3581Z" fill="white"/>
<path fill-rule="evenodd" clip-rule="evenodd" d="M17.3121 12.7905V15.0542L15.3591 16.1856V13.9219L17.3121 12.7914V12.7905Z" fill="white"/>
<path fill-rule="evenodd" clip-rule="evenodd" d="M15.3398 17.7858L18.698 15.8538V11.9906L20.6518 10.8584V16.986L15.3398 20.0494V17.7858Z" fill="white"/>
<path fill-rule="evenodd" clip-rule="evenodd" d="M18.698 8.12691L16.7458 6.99552L18.6988 5.86328L20.6517 6.99552V9.25915L18.6988 10.3905V8.12691H18.698Z" fill="white"/>
<path fill-rule="evenodd" clip-rule="evenodd" d="M10.0479 20.8694V18.605L12.0008 19.7364L13.9537 18.605V20.8686L12.0008 22L10.0479 20.8686V20.8694Z" fill="white"/>
<path fill-rule="evenodd" clip-rule="evenodd" d="M8.63925 16.1847L6.68799 15.0542V12.7905L8.64093 13.9219V16.1856L8.63925 16.1847Z" fill="white"/>
<path fill-rule="evenodd" clip-rule="evenodd" d="M11.9993 8.12607L10.0464 6.99551L11.9993 5.86328L13.9523 6.99551L11.9993 8.12691V8.12607Z" fill="white"/>
<path fill-rule="evenodd" clip-rule="evenodd" d="M7.25426 6.99552L5.30132 8.12691V10.3905L3.34839 9.25915V6.99552L5.30132 5.86328L7.25426 6.99552Z" fill="white"/>
<path fill-rule="evenodd" clip-rule="evenodd" d="M3.34839 10.8584L5.30133 11.9906V15.8538L8.6595 17.7858V20.0494L3.34923 16.986V10.8584H3.34839Z" fill="white"/>
</svg>
