<svg width="24" height="25" viewBox="0 0 24 25" fill="none" xmlns="http://www.w3.org/2000/svg">
<g clip-path="url(#clip0_6737_119625)">
<path opacity="0.984" fill-rule="evenodd" clip-rule="evenodd" d="M3.55029 3.8042C3.87099 3.8042 4.19165 3.8042 4.51235 3.8042C4.51235 4.94712 4.51235 6.09005 4.51235 7.23298C5.29405 7.16207 6.06788 7.20289 6.83385 7.35543C6.85476 6.22618 6.86175 5.09689 6.85476 3.96747C7.22202 4.01621 7.58455 4.09107 7.94231 4.19198C8.37407 4.32562 8.80629 4.45489 9.239 4.57976C9.22508 5.70942 9.23901 6.83871 9.28083 7.96771C9.99514 8.21822 10.7062 8.47672 11.4141 8.74327C11.4559 7.64149 11.4699 6.53938 11.4559 5.43695C11.9598 5.56451 12.4617 5.7006 12.9618 5.84514V4.19198C13.5191 4.32794 14.2023 4.53763 14.7604 4.67376V6.25333C15.2296 6.36137 15.7037 6.44301 16.1826 6.49824C16.1826 5.96759 16.1826 5.43695 16.1826 4.90631C16.7131 4.9608 17.243 5.01521 17.7721 5.06958C17.8069 5.59969 17.8278 6.13034 17.8348 6.66151C18.7393 6.7376 19.5967 6.9757 20.4073 7.37584C21.1532 7.91338 21.5157 8.64131 21.4948 9.55965C21.4755 10.781 21.0154 11.8083 20.1145 12.6415C21.4233 13.0234 22.0508 13.8873 21.9968 15.2335C21.975 16.8757 21.2639 18.1343 19.8635 19.0092C19.2253 19.352 18.5421 19.5357 17.8139 19.5602C17.8139 20.1045 17.8139 20.6488 17.8139 21.193C17.2692 21.2016 16.7254 21.188 16.1826 21.1522C16.1826 20.6079 16.1826 20.0637 16.1826 19.5194C15.6932 19.4936 15.2052 19.4528 14.7186 19.397C14.7186 19.9276 14.7186 20.4583 14.7186 20.9889C14.1423 20.9377 13.5706 20.8561 13.0036 20.744C13.0036 20.1861 13.0036 19.6283 13.0036 19.0704C12.4717 18.9816 11.9419 18.8796 11.4141 18.7643C10.6901 18.5356 9.96511 18.3111 9.239 18.0908C9.19718 16.9618 9.18325 15.8325 9.19718 14.7028C8.44058 14.4944 7.67373 14.3312 6.89659 14.213C6.89659 15.3423 6.89659 16.4716 6.89659 17.6009C6.08808 17.4921 5.27941 17.4921 4.47052 17.6009C4.47052 16.458 4.47052 15.3151 4.47052 14.1722C3.77248 14.2063 3.08929 14.3219 2.42091 14.5191C2.29542 14.5804 2.16994 14.6416 2.04445 14.7028C1.98869 13.5191 1.98869 12.3353 2.04445 11.1516C2.81627 10.8204 3.62499 10.6707 4.47052 10.7026C4.48445 9.55932 4.47052 8.41639 4.42869 7.2738C3.96929 7.3191 3.50917 7.36674 3.04834 7.41666C2.68953 7.49034 2.34097 7.59239 2.00262 7.7228C1.99563 6.55257 2.00262 5.38246 2.02353 4.21239C2.5103 3.98029 3.01923 3.8442 3.55029 3.8042ZM6.89659 7.39625C7.67402 7.53997 8.43388 7.74407 9.17626 8.00853C9.20416 9.11064 9.20416 10.2127 9.17626 11.3149C8.44564 11.0703 7.6997 10.8798 6.93842 10.7434C6.89659 9.62802 6.88266 8.51228 6.89659 7.39625ZM14.7186 8.98818C15.5509 9.13052 16.3875 9.2462 17.2283 9.33514C18.146 9.51005 18.5154 10.0475 18.3368 10.9475C18.1869 11.3648 17.8872 11.6165 17.4375 11.7026C16.5363 11.722 15.6439 11.6403 14.7604 11.4577C14.7189 10.6376 14.7049 9.81448 14.7186 8.98818ZM4.93064 10.6618C5.57572 10.653 6.21708 10.6938 6.85476 10.7842C6.85476 11.8999 6.85476 13.0156 6.85476 14.1313C6.07842 14.0294 5.30459 14.0294 4.53326 14.1313C4.51235 12.9885 4.50536 11.8456 4.51235 10.7026C4.66051 10.7153 4.79992 10.7017 4.93064 10.6618ZM9.239 11.3965C9.97804 11.621 10.71 11.8659 11.435 12.1312C11.4629 13.2197 11.4629 14.3082 11.435 15.3967C10.7125 15.1368 9.98046 14.9054 9.239 14.7028C9.239 13.6007 9.239 12.4986 9.239 11.3965ZM14.7186 14.0497C15.8433 14.2166 16.9727 14.3459 18.1067 14.4375C18.7744 14.7015 19.0323 15.1845 18.8805 15.8866C18.7732 16.3315 18.5013 16.6376 18.0649 16.805C17.8057 16.8809 17.5408 16.9149 17.2701 16.907C16.414 16.8765 15.5635 16.7949 14.7186 16.6621C14.7186 15.7913 14.7186 14.9205 14.7186 14.0497Z" fill="white"/>
</g>
<defs>
<clipPath id="clip0_6737_119625">
<rect width="24" height="24" fill="white" transform="translate(0 0.5)"/>
</clipPath>
</defs>
</svg>
