<svg width="24" height="24" viewBox="0 0 24 24" fill="none" xmlns="http://www.w3.org/2000/svg">
<path fill-rule="evenodd" clip-rule="evenodd" d="M13.206 8.93467L16.8241 6.82412V11.0452L13.206 8.93467ZM16.8241 17.9799L12 20.794L7.17589 17.9799V13.0553L12 15.8693L16.8241 13.0553V17.9799ZM7.17589 6.82412L10.794 8.93467L7.17589 11.0452V6.82412ZM12.603 9.9397L16.2211 12.0503L12.603 14.1608V9.9397ZM11.397 14.1608L7.77891 12.0503L11.397 9.9397V14.1608ZM16.2211 5.8191L12 8.23116L7.77891 5.8191L12 3.30653L16.2211 5.8191ZM5.96986 5.41709V18.5829L12 22L18.0302 18.5829V5.41709L12 2L5.96986 5.41709ZM20.5528 6.21106H19.3467C19.3467 5.18593 18.7337 4.26131 17.7889 3.86935L18.2613 2.75377C19.6583 3.33668 20.5528 4.69347 20.5528 6.21106ZM3.44727 17.8895C3.44727 19.397 4.34174 20.7538 5.73872 21.3467L6.21108 20.2312C5.26636 19.8392 4.6533 18.9146 4.6533 17.8895H3.44727Z" fill="white"/>
</svg>
