<svg width="24" height="24" viewBox="0 0 24 24" fill="none" xmlns="http://www.w3.org/2000/svg">
<path d="M16.526 15.268L20.9536 12.7939C21.1884 12.6625 21.3334 12.4187 21.3334 12.1572V7.20893C21.3334 6.94735 21.1884 6.70364 20.9536 6.57221L16.526 4.09809C16.2913 3.96667 15.9999 3.96794 15.7665 4.09809L11.3388 6.57221C11.1041 6.70364 10.9591 6.94735 10.9591 7.20893V16.0515L7.85391 17.7855L4.74873 16.0515V12.5821L7.85391 10.8481L9.90164 11.9926V9.66518L8.23362 8.73245C8.1189 8.66865 7.98711 8.6342 7.85391 8.6342C7.7207 8.6342 7.58891 8.66865 7.47419 8.73245L3.04649 11.2066C2.81179 11.338 2.66675 11.5817 2.66675 11.8433V16.7916C2.66675 17.0531 2.81179 17.2968 3.04649 17.4282L7.47419 19.9024C7.70885 20.0325 7.99896 20.0325 8.23362 19.9024L12.6613 17.4282C12.896 17.2968 13.041 17.0531 13.041 16.7916V7.94773L13.0964 7.9171L16.1449 6.21367L19.2501 7.94773V11.4171L16.1449 13.1512L14.0998 12.0091V14.3366L15.7652 15.2668C15.9999 15.3969 16.2913 15.3969 16.5247 15.2668L16.526 15.268Z" fill="white"/>
</svg>
