<svg width="24" height="24" viewBox="0 0 24 24" fill="none" xmlns="http://www.w3.org/2000/svg">
<path fill-rule="evenodd" clip-rule="evenodd" d="M14.337 16.3317L16.5028 18.4974L20.4353 14.5648L18.2695 12.399L16.5028 14.1658L16.104 13.767C14.0284 11.6916 14.2467 11.9099 12.1713 9.83434L10.4287 8.09195C8.27912 5.94239 4.76173 5.94239 2.61218 8.09195C0.462586 10.2415 0.462626 13.7588 2.61218 15.9085C4.76173 18.0581 8.27912 18.0581 10.4287 15.9085L11.7724 14.5648L9.60661 12.399L8.26293 13.7428C7.30463 14.7013 5.7363 14.7011 4.77793 13.7428C3.81955 12.7844 3.81955 11.2161 4.77788 10.2577C5.73626 9.29924 7.30463 9.29924 8.26293 10.2577L10.0055 12.0002L12.1713 14.166L13.9381 15.9328L14.337 16.3317ZM20.8343 14.166L23 12.0002L20.8342 9.83442L18.6686 12L20.8343 14.166ZM20.4354 9.43559L16.5028 5.50293L12.5703 9.43551L14.736 11.6012L16.5028 9.83426L18.2697 11.6012L20.4354 9.43559Z" fill="white"/>
</svg>
