<svg width="24" height="24" viewBox="0 0 24 24" fill="none" xmlns="http://www.w3.org/2000/svg">
<path fill-rule="evenodd" clip-rule="evenodd" d="M4.24331 9.10385C2.63647 13.3701 4.85272 18.1904 9.17433 19.7417C9.34055 19.8526 9.50676 20.0741 9.50676 20.2403V21.0161C9.50676 21.1268 9.50676 21.1823 9.45131 21.2376C9.396 21.4593 9.17433 21.57 8.95267 21.4593C5.85001 20.462 3.46754 18.0795 2.47025 14.9769C0.808091 9.7134 3.68921 4.11738 8.95267 2.45522C9.00812 2.3999 9.11888 2.3999 9.17433 2.3999C9.396 2.45522 9.50676 2.62143 9.50676 2.8431V3.61873C9.50676 3.89584 9.396 4.06206 9.17433 4.17283C6.90276 5.00391 5.07439 6.77683 4.24331 9.10385ZM14.5487 2.67688C14.604 2.45522 14.8257 2.34445 15.0473 2.45522C18.0945 3.45251 20.5325 5.83498 21.5298 8.99308C23.1919 14.2565 20.3108 19.8526 15.0473 21.5147C14.9919 21.57 14.8811 21.57 14.8257 21.57C14.604 21.5147 14.4932 21.3485 14.4932 21.1268V20.3512C14.4932 20.0741 14.604 19.9079 14.8257 19.7971C17.0972 18.966 18.9256 17.1931 19.7567 14.8661C21.3635 10.5998 19.1473 5.77953 14.8257 4.22828C14.6595 4.11738 14.4932 3.89584 14.4932 3.67418V2.89855C14.4932 2.78765 14.4932 2.73233 14.5487 2.67688ZM12.1661 11.043C14.4931 11.32 15.6567 11.9849 15.6567 13.924C15.6567 15.42 14.5486 16.5835 12.8864 16.8606V18.1903C12.831 18.4673 12.6648 18.6335 12.4431 18.6335H11.612C11.335 18.5781 11.1688 18.4119 11.1688 18.1903V16.8606C9.34046 16.5835 8.45393 15.5862 8.2324 14.2011V14.1457C8.2324 13.924 8.39862 13.7578 8.62015 13.7578H9.56213C9.72834 13.7578 9.89456 13.8687 9.94987 14.0902C10.1161 14.9213 10.6147 15.5309 12.0554 15.5309C13.108 15.5309 13.8837 14.9215 13.8837 14.0349C13.8837 13.1484 13.3851 12.816 11.8337 12.539C9.50668 12.2619 8.39861 11.5417 8.39861 9.71331C8.39861 8.32814 9.45123 7.22008 11.1134 6.99841V5.72414C11.1688 5.44702 11.335 5.2808 11.5567 5.2808H12.3878C12.6648 5.33625 12.831 5.50247 12.831 5.72414V7.05386C14.1053 7.16463 15.1026 8.10647 15.3242 9.32543V9.38088C15.3242 9.60241 15.158 9.76863 14.9363 9.76863H14.05C13.8837 9.76863 13.7175 9.65786 13.6621 9.49165C13.3851 8.66057 12.831 8.32814 11.8337 8.32814C10.7256 8.32814 10.1715 8.82665 10.1715 9.60241C10.1715 10.3782 10.504 10.8214 12.1661 11.043Z" fill="white"/>
</svg>
