<svg width="24" height="24" viewBox="0 0 24 24" fill="none" xmlns="http://www.w3.org/2000/svg">
<path d="M13.9865 9.04397V6.64909H19.4633V3H4.54976V6.64909H10.027V9.04209C5.57544 9.24618 2.22778 10.1283 2.22778 11.184C2.22778 12.2398 5.57695 13.1219 10.027 13.3282V21H13.9884V13.3271C18.4316 13.1219 21.7722 12.2409 21.7722 11.1859C21.7722 10.1309 18.4316 9.24994 13.9884 9.04473L13.9865 9.04397ZM13.9884 12.6776V12.6758C13.8768 12.6829 13.3025 12.7175 12.0242 12.7175C11.0023 12.7175 10.2833 12.6885 10.0303 12.6754V12.6788C6.09637 12.5044 3.16101 11.8196 3.16101 11.0003C3.16101 10.1809 6.09712 9.49687 10.0292 9.32248V11.9966C10.287 12.0143 11.0237 12.0579 12.0404 12.0579C13.2619 12.0579 13.876 12.0071 13.9884 11.9966V9.32248C17.9137 9.49724 20.8423 10.1828 20.8423 10.9995C20.8423 11.8162 17.9122 12.501 13.9884 12.6758" fill="white"/>
</svg>
