<svg width="20" height="20" viewBox="0 0 20 20" fill="none" xmlns="http://www.w3.org/2000/svg">
    <path d="M15.3414 17.4997H12.9914C12.5581 17.4997 12.2914 17.4997 12.0914 17.4831C11.8581 17.4664 11.6997 17.4247 11.5581 17.3581C11.3081 17.2247 11.1164 17.0331 10.9914 16.7997C10.9164 16.6497 10.8747 16.4831 10.8581 16.2497C10.8414 16.0497 10.8414 15.7831 10.8414 15.3497V12.9997C10.8414 12.5664 10.8414 12.2997 10.8581 12.0997C10.8747 11.8664 10.9164 11.7081 10.9831 11.5664C11.1164 11.3164 11.3081 11.1247 11.5414 10.9997C11.6914 10.9247 11.8581 10.8831 12.0914 10.8664C12.2914 10.8497 12.5581 10.8497 12.9914 10.8497H15.3414C15.7747 10.8497 16.0414 10.8497 16.2414 10.8664C16.4747 10.8831 16.6331 10.9247 16.7747 10.9914C17.0247 11.1247 17.2164 11.3164 17.3414 11.5497C17.4164 11.6997 17.4581 11.8664 17.4747 12.0997C17.4914 12.2997 17.4914 12.5664 17.4914 12.9997V15.3497C17.4914 15.7831 17.4914 16.0497 17.4747 16.2497C17.4581 16.4664 17.4247 16.6247 17.3581 16.7581C17.2164 17.0331 17.0247 17.2247 16.7831 17.3497C16.6331 17.4247 16.4664 17.4664 16.2331 17.4831C16.0331 17.4997 15.7664 17.4997 15.3331 17.4997H15.3414ZM12.9914 15.8331H15.3414C15.5414 15.8331 15.6997 15.8331 15.8331 15.8331C15.8331 15.6914 15.8331 15.5414 15.8331 15.3414V12.9914C15.8331 12.7914 15.8331 12.6331 15.8331 12.4997C15.6914 12.4997 15.5414 12.4997 15.3414 12.4997H12.9914C12.7914 12.4997 12.6331 12.4997 12.4997 12.4997C12.4997 12.6414 12.4997 12.7914 12.4997 12.9914V15.3414C12.4997 15.5414 12.4997 15.6997 12.4997 15.8331C12.6414 15.8331 12.7914 15.8331 12.9914 15.8331ZM7.00806 17.4997H4.65806C4.22472 17.4997 3.95806 17.4997 3.75806 17.4831C3.52472 17.4664 3.36639 17.4247 3.22472 17.3581C2.96639 17.2247 2.78306 17.0331 2.65806 16.7914C2.59139 16.6664 2.54139 16.4997 2.52472 16.2497C2.50806 16.0414 2.50806 15.7747 2.50806 15.3414V12.9914C2.50806 12.5581 2.50806 12.2914 2.52472 12.0914C2.54972 11.8414 2.59139 11.6664 2.67472 11.5247C2.79139 11.3081 2.98306 11.1164 3.21639 10.9914C3.36639 10.9164 3.53306 10.8747 3.76639 10.8581C3.96639 10.8414 4.24139 10.8414 4.66639 10.8414H7.01639C7.44972 10.8414 7.71639 10.8414 7.91639 10.8581C8.14972 10.8747 8.30806 10.9164 8.44972 10.9831C8.70806 11.1164 8.89139 11.3081 9.01639 11.5497C9.08306 11.6747 9.13306 11.8414 9.14972 12.0914C9.16639 12.2997 9.16639 12.5664 9.16639 12.9997V15.3497C9.16639 15.7831 9.16639 16.0497 9.14972 16.2497C9.12472 16.4997 9.08306 16.6747 8.99972 16.8164C8.88306 17.0331 8.69139 17.2247 8.45806 17.3497C8.30806 17.4247 8.14139 17.4664 7.90806 17.4831C7.70806 17.4997 7.43306 17.4997 7.00806 17.4997ZM4.65806 15.8331H7.00806C7.20806 15.8331 7.36639 15.8331 7.49972 15.8331C7.49972 15.6914 7.49972 15.5414 7.49972 15.3414V12.9914C7.49972 12.7914 7.49972 12.6331 7.49972 12.4997C7.35806 12.4997 7.20806 12.4997 7.00806 12.4997H4.65806C4.45806 12.4997 4.29972 12.4997 4.16639 12.4997C4.16639 12.6414 4.16639 12.7914 4.16639 12.9914V15.3414C4.16639 15.5414 4.16639 15.6997 4.16639 15.8331C4.30806 15.8331 4.45806 15.8331 4.65806 15.8331ZM15.3414 9.16639H12.9914C12.5581 9.16639 12.2914 9.16639 12.0914 9.14972C11.8414 9.12472 11.6664 9.08306 11.5247 8.99972C11.3081 8.88306 11.1164 8.69139 10.9914 8.45806C10.9164 8.30806 10.8747 8.14139 10.8581 7.90806C10.8414 7.70806 10.8414 7.43306 10.8414 7.00806V4.65806C10.8414 4.22472 10.8414 3.95806 10.8581 3.75806C10.8747 3.52472 10.9164 3.36639 10.9831 3.22472C11.1164 2.96639 11.3081 2.78306 11.5497 2.65806C11.6747 2.59139 11.8414 2.54139 12.0914 2.52472C12.2997 2.50806 12.5664 2.50806 12.9997 2.50806H15.3497C15.7831 2.50806 16.0497 2.50806 16.2497 2.52472C16.4997 2.54972 16.6747 2.59139 16.8164 2.67472C17.0331 2.79139 17.2247 2.98306 17.3497 3.21639C17.4247 3.36639 17.4664 3.53306 17.4831 3.76639C17.4997 3.96639 17.4997 4.24139 17.4997 4.66639V7.01639C17.4997 7.44972 17.4997 7.71639 17.4831 7.91639C17.4664 8.14972 17.4247 8.30806 17.3581 8.44972C17.2247 8.70806 17.0331 8.89139 16.7914 9.01639C16.6664 9.08306 16.4997 9.13306 16.2497 9.14972C16.0414 9.16639 15.7747 9.16639 15.3414 9.16639ZM12.9914 7.49972H15.3414C15.5414 7.49972 15.6997 7.49972 15.8331 7.49972C15.8331 7.35806 15.8331 7.20806 15.8331 7.00806V4.65806C15.8331 4.45806 15.8331 4.29972 15.8331 4.16639C15.6914 4.16639 15.5414 4.16639 15.3414 4.16639H12.9914C12.7914 4.16639 12.6331 4.16639 12.4997 4.16639C12.4997 4.30806 12.4997 4.45806 12.4997 4.65806V7.00806C12.4997 7.20806 12.4997 7.36639 12.4997 7.49972C12.6414 7.49972 12.7914 7.49972 12.9914 7.49972ZM7.00806 9.16639H4.65806C4.22472 9.16639 3.95806 9.16639 3.75806 9.14972C3.50806 9.12472 3.33306 9.08306 3.19139 8.99972C2.97472 8.88306 2.78306 8.69139 2.65806 8.45806C2.59139 8.33306 2.54139 8.16639 2.52472 7.91639C2.50806 7.70806 2.50806 7.44139 2.50806 7.00806V4.65806C2.50806 4.22472 2.50806 3.95806 2.52472 3.75806C2.54972 3.50806 2.59139 3.33306 2.67472 3.19139C2.79139 2.97472 2.98306 2.78306 3.21639 2.65806C3.34139 2.59139 3.50806 2.54139 3.75806 2.52472C3.96639 2.50806 4.23306 2.50806 4.66639 2.50806H7.01639C7.44972 2.50806 7.71639 2.50806 7.91639 2.52472C8.16639 2.54972 8.34139 2.59139 8.48306 2.67472C8.69972 2.79139 8.89139 2.98306 9.01639 3.21639C9.08306 3.34139 9.13306 3.50806 9.14972 3.75806C9.16639 3.96639 9.16639 4.23306 9.16639 4.66639V7.01639C9.16639 7.44972 9.16639 7.71639 9.14972 7.91639C9.12472 8.16639 9.08306 8.34139 8.99972 8.48306C8.88306 8.69972 8.69139 8.89139 8.45806 9.01639C8.33306 9.08306 8.16639 9.13306 7.91639 9.14972C7.70806 9.16639 7.44139 9.16639 7.00806 9.16639ZM4.65806 7.49972H7.00806C7.20806 7.49972 7.36639 7.49972 7.49972 7.49972C7.49972 7.35806 7.49972 7.20806 7.49972 7.00806V4.65806C7.49972 4.45806 7.49972 4.29972 7.49972 4.16639C7.35806 4.16639 7.20806 4.16639 7.00806 4.16639H4.65806C4.45806 4.16639 4.29972 4.16639 4.16639 4.16639C4.16639 4.30806 4.16639 4.45806 4.16639 4.65806V7.00806C4.16639 7.20806 4.16639 7.36639 4.16639 7.49972C4.30806 7.49972 4.45806 7.49972 4.65806 7.49972Z" fill="black"/>
</svg>