<svg width="24" height="24" viewBox="0 0 24 24" fill="none" xmlns="http://www.w3.org/2000/svg">
<path fill-rule="evenodd" clip-rule="evenodd" d="M11.5823 17.6238C11.6549 17.7023 11.7603 17.7445 11.869 17.7384L14.1631 17.7388C14.2803 17.737 14.393 17.6965 14.4833 17.6242C14.5809 17.5522 14.6469 17.4466 14.6675 17.3291L15.4432 13.7402H17.7193C19.1921 13.7402 20.3498 13.4397 21.1929 12.8388C22.1016 12.152 22.7099 11.1568 22.896 10.0528C22.9616 9.77307 22.9958 9.4873 22.9973 9.20046C23.0382 8.32812 22.6023 7.4991 21.8506 7.02067C20.9519 6.47957 19.9051 6.21636 18.849 6.26686H14.3635C14.2464 6.26865 14.1333 6.30911 14.043 6.38145C13.9453 6.45343 13.8794 6.55907 13.8587 6.67653L11.5318 17.3288C11.5082 17.4297 11.5263 17.5357 11.5823 17.6238ZM19.0694 11.1013C18.7127 11.3552 18.2801 11.4873 17.8383 11.478H15.8994L16.5401 8.54477H18.5634C18.9116 8.51146 19.2599 8.60493 19.5414 8.8069C19.7426 8.99384 19.8476 9.25811 19.8281 9.52813C19.8258 9.69321 19.8089 9.85758 19.7776 10.0198C19.6888 10.4535 19.4364 10.8395 19.0694 11.1013ZM2.19549 16.8419C3.10438 17.4684 4.19171 17.7814 5.29363 17.7344C6.81874 17.7344 8.03661 17.3785 8.94689 16.6668C9.85821 15.9443 10.4987 14.8554 10.8692 13.4003C11.0914 12.5079 11.282 11.589 11.441 10.6436C11.4885 10.3647 11.5149 10.0823 11.5205 9.79921C11.5395 9.11917 11.3451 8.45027 10.965 7.88688C10.588 7.3402 10.0571 6.91853 9.43987 6.67583C8.74449 6.38996 7.99877 6.24928 7.2475 6.26147C4.25038 6.26147 2.39164 7.72218 1.67126 10.6436C1.41713 11.7154 1.22133 12.6343 1.08351 13.4003C1.03525 13.6848 1.00886 13.9724 1.004 14.2607C0.952622 15.2656 1.39838 16.2312 2.19549 16.8419ZM7.02566 14.9139C6.60315 15.2681 6.06643 15.4551 5.51616 15.4397C4.4993 15.4397 3.9907 14.9512 3.9907 13.9738C3.99001 13.7492 4.01118 13.525 4.05423 13.3046C4.24483 12.2742 4.43543 11.403 4.62602 10.6913C4.74614 10.0743 5.05755 9.5109 5.51582 9.08191C5.94527 8.72918 6.48615 8.54289 7.04093 8.55612C8.04703 8.55577 8.55007 9.03908 8.55007 10.006C8.55042 10.2359 8.52924 10.4653 8.48654 10.6913C8.35983 11.4354 8.17479 12.3063 7.93107 13.3046C7.80991 13.9247 7.4926 14.4895 7.02566 14.9139Z" fill="black"/>
</svg>
