<svg width="24" height="25" viewBox="0 0 24 25" fill="none" xmlns="http://www.w3.org/2000/svg">
<g clip-path="url(#clip0_6890_118439)">
<path fill-rule="evenodd" clip-rule="evenodd" d="M9.49329 6.16186L7.16291 10.136L8.28442 11.9759L10.6359 7.95099L10.5848 8.03612L9.49329 6.16186ZM9.71931 5.77641L10.8039 7.6634L11.8537 5.86647L10.7721 3.98095L9.71931 5.77641Z" fill="black"/>
<path fill-rule="evenodd" clip-rule="evenodd" d="M12.4009 6.05365L14.6607 9.99323H16.8333L14.5751 6.05365L12.4009 6.05365ZM12.1737 5.6576L14.353 5.66607L13.2917 3.81455L11.1106 3.8042L12.1737 5.6576Z" fill="black"/>
<path fill-rule="evenodd" clip-rule="evenodd" d="M15.8562 12.2219L13.6758 12.2219L14.7436 10.467L16.9247 10.4566L15.8562 12.2219Z" fill="black"/>
<path fill-rule="evenodd" clip-rule="evenodd" d="M10.7647 12.2218L8.58439 12.2219L10.8081 8.37994L11.9298 10.2772L10.7647 12.2218Z" fill="black"/>
<path fill-rule="evenodd" clip-rule="evenodd" d="M13.3766 12.0163L11.0397 8.04187L12.1153 6.24382L14.4499 10.2556L13.3766 12.0163Z" fill="black"/>
<path fill-rule="evenodd" clip-rule="evenodd" d="M20.7421 16.7341L18.4499 12.738L16.2886 12.7849L18.6143 16.8245L18.5658 16.7379L20.7421 16.7341ZM20.9644 17.1217L18.7805 17.1132L19.8189 18.9167L22 18.927L20.9644 17.1217Z" fill="black"/>
<path fill-rule="evenodd" clip-rule="evenodd" d="M19.3825 19.2948L14.8252 19.2732L13.7389 21.1462L18.2953 21.1693L19.3825 19.2948ZM19.8406 19.297L18.7436 21.1715L20.885 21.1823L21.9846 19.3072L19.8406 19.297Z" fill="black"/>
<path fill-rule="evenodd" clip-rule="evenodd" d="M12.2886 19.1895L13.3788 17.3099L14.3716 19.1078L13.2901 20.9934L12.2886 19.1895Z" fill="black"/>
<path fill-rule="evenodd" clip-rule="evenodd" d="M14.8344 14.8002L15.9245 12.9205L18.1551 16.7585L15.9437 16.777L14.8344 14.8002Z" fill="black"/>
<path fill-rule="evenodd" clip-rule="evenodd" d="M13.7073 17.1547L18.3333 17.1273L19.3598 18.9535L14.7023 18.9603L13.7073 17.1547Z" fill="black"/>
<path fill-rule="evenodd" clip-rule="evenodd" d="M5.94127 21.1736L10.5638 21.1955L11.6037 19.3087L6.92648 19.294L7.02608 19.2955L5.94127 21.1736ZM5.49294 21.1714L6.59227 19.2929L4.5041 19.2863L3.40453 21.1615L5.49294 21.1714Z" fill="black"/>
<path fill-rule="evenodd" clip-rule="evenodd" d="M4.39334 18.721L6.69077 14.8031L5.60445 12.93L3.30622 16.8466L4.39334 18.721ZM4.16239 19.1149L3.08012 17.2319L2 19.0726L3.08155 20.9581L4.16239 19.1149Z" fill="black"/>
<path fill-rule="evenodd" clip-rule="evenodd" d="M8.03185 12.6581L9.12204 14.5378L7.06141 14.4947L5.96185 12.6195L8.03185 12.6581Z" fill="black"/>
<path fill-rule="evenodd" clip-rule="evenodd" d="M10.5775 17.0474L11.6678 18.9271L7.21355 18.931L8.30321 17.0154L10.5775 17.0474Z" fill="black"/>
<path fill-rule="evenodd" clip-rule="evenodd" d="M9.0928 14.8986L6.80361 18.9004L4.70158 18.8721L7.02442 14.8536L9.0928 14.8986Z" fill="black"/>
</g>
<defs>
<clipPath id="clip0_6890_118439">
<rect width="24" height="24" fill="white" transform="translate(0 0.5)"/>
</clipPath>
</defs>
</svg>
