<svg width="24" height="24" viewBox="0 0 24 24" fill="none" xmlns="http://www.w3.org/2000/svg">
<path d="M17.496 4.0647C17.7016 3.86298 17.9779 3.75001 18.2657 3.75001H23L6.50401 19.9353C6.29839 20.1371 6.02207 20.25 5.73428 20.25H1L17.496 4.0647Z" fill="black"/>
<path d="M4.34032 11.625L8.63086 7.41347H11.856L15.5131 3.75H6.58129C6.28955 3.75 6.00976 3.8661 5.80347 4.07275L4.66249 5.21572C4.45621 5.42237 4.34032 5.70265 4.34032 5.99489V11.625Z" fill="black"/>
<path d="M19.6597 12.375L15.3691 16.5865H12.144L8.48693 20.25H17.4187C17.7104 20.25 17.9902 20.1339 18.1965 19.9272L19.3375 18.7843C19.5438 18.5777 19.6597 18.2974 19.6597 18.0051V12.375Z" fill="black"/>
</svg>
