<svg width="24" height="24" viewBox="0 0 24 24" fill="none" xmlns="http://www.w3.org/2000/svg">
<path fill-rule="evenodd" clip-rule="evenodd" d="M13.4481 4.58475C13.5024 4.52534 13.5738 4.4482 13.6582 4.35856C13.8591 4.14563 14.1358 3.86081 14.4374 3.57521C14.7378 3.29083 15.0691 2.99985 15.3784 2.7781C15.5332 2.66729 15.6886 2.56925 15.8366 2.49786C15.9797 2.42887 16.1413 2.3721 16.3017 2.3721C16.5481 2.3721 16.768 2.42335 16.9434 2.5577C17.1198 2.69286 17.2104 2.88087 17.2604 3.07031C17.3094 3.25577 17.3263 3.46864 17.3359 3.68389C17.3401 3.77712 17.3429 3.86671 17.3457 3.95782L17.3463 3.97545C17.3503 4.10768 17.3544 4.24383 17.3627 4.3997C17.371 4.55241 17.376 4.70047 17.3808 4.84627C17.4065 5.62955 17.4301 6.34764 17.9634 7.37138C18.243 7.57426 18.5075 7.79159 18.755 8.02204L5.06248 9.64176L5.15796 10.449L7.71408 10.1466L7.80957 10.9538L8.61674 10.8583L8.71223 11.6655L9.51961 11.57L9.61499 12.3772L12.3057 12.059L12.2102 11.2518L13.0173 11.1563L12.9219 10.349L13.729 10.2536L13.6335 9.44638L15.248 9.2554L15.3435 10.0626L16.1506 9.96714L16.2461 10.7744L17.0538 10.6788L17.1489 11.4861L18.6371 11.3101C18.5886 11.6752 18.2023 11.9464 17.8418 11.8374C16.721 11.4987 15.6342 11.5435 14.7244 12.0492C14.4952 12.1767 14.2853 12.3289 14.0948 12.5033C13.2234 13.3011 11.249 13.8161 10.3318 13.0715C8.55912 11.6323 6.65797 11.1015 5.27734 11.8691C4.2738 12.4271 3.71569 13.5763 3.60462 15.0275C3.83811 15.8487 4.19747 16.617 4.66053 17.3101C5.95318 20.0872 8.76861 22.0123 12.0337 22.0123C15.845 22.0123 19.0437 19.3892 19.9227 15.8498C20.4249 14.9534 20.7048 13.9567 20.7048 12.9065C20.7048 11.9928 20.4929 11.1196 20.1071 10.3177L20.4162 10.2811C20.7926 11.0948 21 11.9795 21 12.9068C21 13.9971 20.7127 15.0311 20.1996 15.9596C19.275 19.6082 15.97 22.3082 12.0335 22.3082C8.65741 22.3082 5.74578 20.3221 4.40214 17.4557C3.51616 16.1221 3 14.5211 3 12.8005C3 11.6484 3.23143 10.5497 3.65059 9.54885C3.41486 7.76705 3.49366 6.15611 3.73894 4.86981C3.98515 3.57849 4.40749 2.57176 4.88507 2.06475C5.15559 1.77755 5.47771 1.66544 5.81407 1.69639C6.13124 1.72557 6.43514 1.87919 6.70376 2.06491C7.15906 2.37971 7.60237 2.85316 7.94252 3.21644C8.00139 3.27931 8.05718 3.33888 8.1094 3.39377C8.77275 4.09091 9.31788 4.28796 10.0099 4.49484C10.4698 4.41709 10.9422 4.37664 11.4238 4.37664C12.0613 4.37664 12.8199 4.44761 13.4481 4.58475ZM12.3851 8.19166C12.0177 8.477 10.6511 8.50109 10.5142 8.08344C10.3773 7.6658 11.2587 6.76689 11.9007 7.05112C12.4359 7.28812 12.86 7.82279 12.3851 8.19166ZM15.4482 7.63958C15.7206 7.97917 16.4055 8.02162 16.6603 7.63958C16.8315 7.38279 16.5204 6.75122 15.9283 6.70745C15.2179 6.65494 15.1759 7.29997 15.4482 7.63958ZM5.59152 7.51578C5.12648 5.99302 5.24549 4.12873 5.59154 3.05272C6.19746 5.08071 7.66509 6.27435 7.66509 6.27435C7.05301 6.40723 6.17855 6.92178 5.59152 7.51578Z" fill="black"/>
<path d="M15.1122 12.9018C15.5723 11.9203 18.276 11.745 18.7022 12.9018C18.9392 13.5453 17.984 15.009 17.3475 15.1032C16.433 15.2386 14.6042 13.9856 15.1122 12.9018Z" fill="black"/>
<path d="M14.6739 18.4059C14.5212 18.2701 14.7124 18.0957 14.8983 18.1805C15.2678 18.349 15.6894 18.4445 16.1371 18.4445C17.2876 18.4445 18.2666 17.8137 18.6304 16.9328C18.6634 16.8531 18.7821 16.861 18.7821 16.9473C18.7821 18.0988 17.7094 19.0321 16.3861 19.0321C15.7153 19.0321 15.1088 18.7924 14.6739 18.4059Z" fill="black"/>
<path fill-rule="evenodd" clip-rule="evenodd" d="M19.2496 13.3029C19.3465 13.2294 19.4847 13.2484 19.5583 13.3453C19.9565 13.8703 19.9237 14.5834 19.639 15.1416C19.352 15.7044 18.7839 16.1613 18.0483 16.1477C17.8257 16.1436 17.6065 16.2275 17.4654 16.3772C16.919 16.9578 16.0799 17.278 15.2892 17.2592C14.4928 17.2402 13.7122 16.8732 13.3431 16.0422C13.2917 15.9264 13.217 15.8408 13.1299 15.7973L12.6121 15.5383C12.5033 15.4839 12.4592 15.3516 12.5136 15.2427C12.568 15.1339 12.7004 15.0898 12.8092 15.1442L13.3269 15.403C13.5301 15.5046 13.6656 15.6827 13.7458 15.8633C14.0293 16.5016 14.629 16.8026 15.2997 16.8186C15.9761 16.8348 16.691 16.5571 17.1446 16.0752C17.382 15.8231 17.7269 15.701 18.0565 15.7071C18.5875 15.7169 19.0182 15.3891 19.2464 14.9414C19.4771 14.4892 19.4761 13.9661 19.2072 13.6116C19.1337 13.5147 19.1526 13.3765 19.2496 13.3029Z" fill="black"/>
<path d="M15.8942 17.1286C17.5243 17.7832 18.4844 16.5234 18.4004 16.0514L17.2686 16.1807L15.8942 17.1286Z" fill="black"/>
<path fill-rule="evenodd" clip-rule="evenodd" d="M22.1869 7.21254L22.3523 8.8139L21.5506 8.90146L21.648 9.73163L20.8578 9.81769L20.9473 10.6195L20.1254 10.7212L20.2075 11.5142L18.1536 11.7687L18.1044 11.3718L19.7693 11.1654L19.6872 10.3724L20.506 10.2711L20.4158 9.46346L21.2037 9.37765L21.1063 8.54761L21.9135 8.45944L21.8307 7.65748L18.2408 8.08233L18.1938 7.6851L22.1869 7.21254Z" fill="black"/>
<path d="M12.0234 9.63094L12.8431 9.53398L12.9401 10.3537L12.1204 10.4506L12.0234 9.63094Z" fill="black"/>
<path d="M19.5417 8.78435L20.3614 8.68738L20.4583 9.50707L19.6387 9.60403L19.5417 8.78435Z" fill="black"/>
<path d="M11.301 10.5474L12.1204 10.4506L12.2177 11.2702L11.398 11.3671L11.301 10.5474Z" fill="black"/>
<path d="M18.8193 9.70085L19.6387 9.60403L19.7359 10.4236L18.9162 10.5205L18.8193 9.70085Z" fill="black"/>
</svg>
