<svg width="24" height="24" viewBox="0 0 24 24" fill="none" xmlns="http://www.w3.org/2000/svg">
<path d="M8.68219 3.87639L11.8635 2.0392C11.9541 1.98693 12.0665 1.98693 12.1571 2.0392L20.5416 6.88001C20.6322 6.93227 20.6879 7.02896 20.6889 7.1335L20.7001 10.4629C20.7001 10.5683 20.6444 10.6659 20.5529 10.7182L17.376 12.5527C17.1808 12.666 16.9361 12.5248 16.9351 12.2993L16.9247 9.3113C16.9247 9.20677 16.8681 9.11007 16.7775 9.0578L8.68219 4.38512C8.48618 4.27188 8.48618 3.98963 8.68219 3.87639Z" fill="black"/>
<path d="M6.62723 18.9572L3.44678 17.1209C3.35531 17.0686 3.29956 16.9719 3.29956 16.8664V7.18487C3.29956 7.08033 3.35531 6.98364 3.44591 6.93049L6.32409 5.25534C6.41555 5.20219 6.52793 5.20219 6.61852 5.25534L9.79549 7.08991C9.99062 7.20316 9.99149 7.48453 9.79636 7.59864L7.21437 9.10132C7.12377 9.15359 7.06802 9.25029 7.06802 9.35569V18.7037C7.06802 18.9301 6.82324 19.0704 6.62723 18.9572Z" fill="black"/>
<path d="M20.7002 13.193V16.8656C20.7002 16.971 20.6445 17.0677 20.553 17.12L12.1685 21.9608C12.0779 22.0131 11.9664 22.0131 11.8758 21.9608L8.98626 20.3057C8.8948 20.2534 8.83817 20.1558 8.83817 20.0504V16.3821C8.83817 16.1566 9.08209 16.0154 9.27809 16.1269L11.8706 17.6121C11.9611 17.6645 12.0726 17.6636 12.1632 17.6121L20.2586 12.9378C20.4545 12.8245 20.6993 12.9656 20.6993 13.1921L20.7002 13.193Z" fill="black"/>
</svg>
