<svg width="24" height="24" viewBox="0 0 24 24" fill="none" xmlns="http://www.w3.org/2000/svg">
<path fill-rule="evenodd" clip-rule="evenodd" d="M6.64942 19.1617C4.4661 17.5311 3.05263 14.9276 3.05263 11.994C3.05263 7.05549 7.05865 3.052 11.9999 3.052C16.0783 3.052 20.5318 5.4878 21.6089 9.21819C20.4056 5.04954 16.5597 2 12.0001 2C6.47731 2 2 6.47458 2 11.994C2 17.5136 6.47731 21.988 11.9999 21.988C17.5229 21.988 22 17.5136 22 11.994V11.468H21.4504L21.3772 11.467C20.9743 11.4596 20.5717 11.4386 20.1702 11.404C19.4199 11.3388 18.5642 11.2117 17.9814 10.979C17.0438 10.6047 16.5144 10.1086 15.9095 9.52811L15.8746 9.49445C15.2687 8.9129 14.5878 8.2594 13.4081 7.70458C12.2461 7.15796 10.9609 7.24569 10.0165 7.43989C9.61506 7.52298 9.22012 7.63463 8.83464 7.77401C8.68862 7.82682 8.57164 7.87395 8.48958 7.90845C8.01429 8.10834 7.55309 8.34504 7.08663 8.56448C7.08663 8.56448 8.00187 8.81528 8.45423 8.95541C8.57545 8.99421 8.69518 9.03751 8.81318 9.08522C9.11362 9.20583 9.40238 9.35373 9.67582 9.52706C10.1639 9.84056 10.5688 10.2353 10.7348 10.7198C9.69854 10.8559 8.72649 11.3106 7.99956 11.7379C7.63153 11.9547 7.27621 12.1924 6.93535 12.4497C6.8068 12.5471 6.70476 12.6286 6.63448 12.6866C6.57515 12.7355 5.63929 13.5598 5.63929 13.5598C5.63929 13.5598 6.84657 13.6881 7.44242 13.8081C7.8386 13.888 8.37281 14.0164 8.93016 14.2106C9.49003 14.4058 10.0558 14.6617 10.525 14.989C10.9954 15.3173 11.3399 15.6964 11.5097 16.1307C12.0049 17.3952 11.5191 18.6269 10.5437 19.3197C9.58008 20.0044 8.11465 20.1672 6.64942 19.1617ZM10.0615 20.7256C10.4512 20.5993 10.8194 20.4144 11.1535 20.1773C12.4809 19.2343 13.1792 17.5073 12.4901 15.7473C12.2193 15.056 11.702 14.527 11.1276 14.1264C10.5521 13.725 9.88979 13.431 9.27711 13.2175C8.90493 13.0886 8.52667 12.978 8.14368 12.8861C8.27156 12.8026 8.40134 12.7221 8.53292 12.6446C9.34317 12.1684 10.3634 11.731 11.3418 11.731C12.8167 11.731 13.915 12.1834 14.9636 12.6685C15.0589 12.7127 15.1546 12.7575 15.2508 12.8026C16.1879 13.2421 17.1719 13.7035 18.3155 13.7035C19.4243 13.7035 20.2882 13.39 20.8834 13.066C20.3536 17.4993 16.5786 20.936 11.9999 20.936C11.3344 20.936 10.6857 20.8634 10.0615 20.7256ZM19.7462 12.4201C19.3521 12.5545 18.8743 12.6515 18.3157 12.6515C17.4187 12.6515 16.6481 12.2924 15.6695 11.8364L15.4061 11.714C14.4264 11.2605 13.293 10.78 11.8175 10.6929C11.6197 9.71663 10.8791 9.04966 10.2452 8.64212C10.1758 8.59757 10.1054 8.55457 10.0341 8.51314C10.0972 8.49842 10.1625 8.48369 10.2285 8.47022C11.0807 8.29496 12.0984 8.2512 12.96 8.65643C13.9827 9.1374 14.5596 9.69117 15.1599 10.2673L15.1805 10.287C15.798 10.8797 16.4513 11.501 17.5909 11.9559C18.2242 12.2086 19.0435 12.3445 19.7462 12.4201Z" fill="black"/>
</svg>
