<svg width="24" height="24" viewBox="0 0 24 24" fill="none" xmlns="http://www.w3.org/2000/svg">
<path fill-rule="evenodd" clip-rule="evenodd" d="M4.74788 9.50813L6.81586 6.18979L6.12181 5.13698L5.64023 4.39069L2.09915 10.2678L2 10.4277L2.56657 11.3605H11.4759L15.966 4.12416L15.3428 3.11133L9.11048 3.12465H9.01133L8.01983 3.11133L8.54391 4.0442L9.06799 4.97706L13.1473 4.96374L10.3428 9.50813H4.74788ZM21.9858 10.6942L21.4193 9.80132L18.3173 4.8971H18.3031L18.204 4.72386H17.0708L12.6657 12.0135L17.1416 19.2633H18.2748L18.3031 19.2233L22 13.2663H19.7195L17.7507 16.5579L14.9462 12.0002L17.6941 7.4425L19.6912 10.6809L21.9858 10.6942ZM8.65722 5.75001C8.8169 5.69872 8.98426 5.67173 9.15297 5.67005C9.46459 5.67005 9.73371 5.76334 9.83286 5.96324C9.83994 5.97656 9.84702 5.98656 9.85411 5.99655C9.86119 6.00655 9.86827 6.01654 9.87535 6.02987C9.87915 6.03701 9.88294 6.04319 9.88646 6.04893L9.88647 6.04894C9.89609 6.06462 9.90368 6.07699 9.90368 6.0965V6.36304C9.90368 6.36856 9.90125 6.37179 9.89841 6.37558C9.89438 6.38094 9.88952 6.3874 9.88952 6.40302C9.88952 6.42967 9.88952 6.45632 9.87535 6.46965C9.86119 6.48298 9.86119 6.48298 9.86119 6.4963C9.8535 6.50349 9.84852 6.51285 9.84703 6.52296L9.83286 6.53628C9.82578 6.54961 9.8187 6.56626 9.81162 6.58291L9.81161 6.58293L9.81161 6.58294C9.80453 6.59959 9.79745 6.61625 9.79037 6.62957C9.77695 6.66333 9.75782 6.69484 9.73371 6.72286L9.71955 6.74951V6.76284C9.71246 6.77616 9.70538 6.78616 9.6983 6.79615C9.69122 6.80615 9.68414 6.81614 9.67705 6.82947L9.64873 6.85612C9.64164 6.86945 9.63102 6.87944 9.6204 6.88944L9.6204 6.88944C9.60977 6.89943 9.59915 6.90943 9.59207 6.92276L9.56374 6.94941C9.55666 6.96274 9.54603 6.97273 9.53541 6.98273C9.52479 6.99272 9.51416 7.00272 9.50708 7.01604C9.49649 7.0361 9.48209 7.05416 9.46459 7.06935C9.4603 7.07338 9.45601 7.07864 9.45133 7.08438C9.44055 7.09759 9.42768 7.11336 9.40793 7.12266L9.3796 7.14931C9.36544 7.16264 9.35127 7.17263 9.33711 7.18263C9.32295 7.19262 9.30878 7.20262 9.29462 7.21594L9.26629 7.22927C9.24504 7.2426 9.22734 7.25592 9.20963 7.26925C9.19193 7.28258 9.17422 7.2959 9.15297 7.30923L9.0255 7.38919C8.99108 7.4161 8.95297 7.43851 8.91218 7.45582C8.89093 7.46249 8.86969 7.47248 8.84844 7.48248C8.8272 7.49247 8.80595 7.50247 8.7847 7.50913L8.77054 7.52246C8.31728 7.72236 7.84986 7.74901 7.55241 7.61574C7.53824 7.60908 7.52762 7.60242 7.517 7.59575C7.50637 7.58909 7.49575 7.58243 7.48159 7.57576L7.45326 7.54911C7.44759 7.54378 7.44193 7.54271 7.43626 7.54165C7.42776 7.54005 7.41926 7.53845 7.41077 7.52246C7.40368 7.50913 7.39306 7.49913 7.38244 7.48914C7.37181 7.47914 7.36119 7.46915 7.35411 7.45582C7.30256 7.39722 7.26562 7.3285 7.24601 7.2547C7.2264 7.1809 7.22462 7.1039 7.24079 7.02937C7.29745 6.65622 7.63739 6.25642 8.11898 5.97656C8.28872 5.88215 8.46929 5.80615 8.65722 5.75001ZM10.187 6.6429C10.187 6.66241 10.1794 6.67478 10.1698 6.69046C10.1662 6.6962 10.1624 6.70239 10.1586 6.70953C10.1586 6.71511 10.1586 6.71836 10.1576 6.72122C10.1562 6.7252 10.1527 6.72844 10.1445 6.73618C10.1314 6.77418 10.1123 6.81012 10.0878 6.8428C9.91103 7.14404 9.66407 7.40374 9.36544 7.60242L9.23796 7.68238C9.19865 7.7096 9.15582 7.73199 9.11048 7.74901H9.09632C9.08924 7.75567 9.08215 7.759 9.07507 7.76234C9.06799 7.76567 9.06091 7.769 9.05382 7.77566C9.03966 7.78899 9.01133 7.80232 8.983 7.81564H8.96884C8.96176 7.81564 8.95467 7.81897 8.94759 7.82231C8.94051 7.82564 8.93343 7.82897 8.92635 7.82897C8.90051 7.84375 8.87146 7.85286 8.84136 7.85562L8.81303 7.86895H8.79887C8.79179 7.86895 8.7847 7.87228 8.77762 7.87561C8.77054 7.87894 8.76346 7.88228 8.75637 7.88228C8.74221 7.88228 8.69972 7.8956 8.67139 7.90893L8.64306 7.92226H8.6289C8.61473 7.92892 8.60057 7.93225 8.5864 7.93558C8.57224 7.93891 8.55807 7.94225 8.54391 7.94891C8.51558 7.96224 8.51558 7.96224 8.48725 7.96224H8.47309C8.44922 7.96537 8.42558 7.96982 8.40227 7.97556C8.3823 7.97357 8.36223 7.97829 8.34561 7.98889H8.33145C8.32376 7.98802 8.31596 7.98876 8.30861 7.99107C8.30126 7.99337 8.29455 7.99718 8.28895 8.00222H8.24646C8.22521 8.00222 8.20043 8.00555 8.17564 8.00888C8.15085 8.01221 8.12606 8.01554 8.10482 8.01554H7.92068C7.89162 8.01764 7.86246 8.01307 7.83569 8.00222C7.828 8.00309 7.82021 8.00234 7.81286 8.00004C7.80551 7.99774 7.7988 7.99393 7.7932 7.98889C7.77904 7.98889 7.76487 7.98556 7.75071 7.98223C7.73654 7.97889 7.72238 7.97556 7.70822 7.97556C7.69162 7.97556 7.68475 7.97099 7.67905 7.9672C7.67503 7.96452 7.67159 7.96224 7.66572 7.96224L8.44476 9.14831L10.1161 9.13498L10.9802 7.6957L10.2011 6.4963C10.2021 6.50354 10.2013 6.51088 10.1988 6.51779C10.1964 6.5247 10.1923 6.53102 10.187 6.53628V6.56294C10.187 6.56846 10.1845 6.57398 10.1817 6.58044C10.1777 6.58959 10.1728 6.60063 10.1728 6.61624C10.1809 6.62316 10.1859 6.63266 10.187 6.6429ZM19.2521 11.4138C19.2194 11.258 19.157 11.109 19.068 10.9741C18.898 10.7209 18.6856 10.5609 18.3881 10.5743H18.3031C18.289 10.5743 18.2783 10.5776 18.2677 10.5809C18.2571 10.5843 18.2465 10.5876 18.2323 10.5876H18.2181C18.2181 10.5911 18.2166 10.5945 18.214 10.597C18.2113 10.5995 18.2077 10.6009 18.204 10.6009C18.1963 10.6082 18.1864 10.6128 18.1756 10.6142C18.1686 10.6209 18.165 10.6209 18.1615 10.6209C18.1579 10.6209 18.1544 10.6209 18.1473 10.6276C18.1402 10.6342 18.1296 10.6409 18.119 10.6476C18.1084 10.6542 18.0977 10.6609 18.0907 10.6676L18.0623 10.6809L18.0198 10.7209L17.9915 10.7475L17.9632 10.7742L17.9207 10.8141C17.9207 10.8275 17.9207 10.8275 17.9065 10.8408L17.8782 10.8675L17.864 10.8808C17.8569 10.8941 17.8463 10.9074 17.8357 10.9208C17.8251 10.9341 17.8144 10.9474 17.8074 10.9607C17.7855 10.9901 17.7665 11.0213 17.7507 11.054L17.7365 11.0807V11.094C17.7365 11.1135 17.729 11.1259 17.7193 11.1416L17.7193 11.1416C17.7158 11.1473 17.712 11.1535 17.7082 11.1606L17.6941 11.2006C17.6799 11.2273 17.6657 11.2673 17.6657 11.2806C17.6657 11.2939 17.6657 11.2939 17.6516 11.3206C17.6374 11.3472 17.6232 11.3739 17.6232 11.4005C17.6232 11.4138 17.6197 11.4238 17.6161 11.4338C17.6126 11.4438 17.6091 11.4538 17.6091 11.4672C17.6091 11.4805 17.6055 11.4938 17.602 11.5071C17.5984 11.5205 17.5949 11.5338 17.5949 11.5471V11.5871C17.5949 11.6004 17.5914 11.6171 17.5878 11.6337C17.5843 11.6504 17.5807 11.6671 17.5807 11.6804V11.707C17.5691 11.746 17.5643 11.7865 17.5666 11.827V12.0935C17.5666 12.1221 17.5706 12.1468 17.5744 12.1698L17.5744 12.1698C17.5777 12.1897 17.5807 12.2082 17.5807 12.2268V12.2401C17.6374 12.7065 17.8499 13.093 18.1331 13.2662C18.1548 13.2825 18.1786 13.2959 18.204 13.3062C18.211 13.3062 18.2181 13.3096 18.2252 13.3129C18.2323 13.3162 18.2394 13.3196 18.2465 13.3196C18.2523 13.3196 18.2558 13.3218 18.2598 13.3245C18.2655 13.3283 18.2724 13.3329 18.289 13.3329C18.3031 13.3329 18.3173 13.3362 18.3314 13.3395C18.3456 13.3429 18.3598 13.3462 18.3739 13.3462C18.4552 13.3562 18.5379 13.3494 18.6161 13.3264C18.6944 13.3034 18.7664 13.2647 18.8272 13.2129C19.1388 12.9731 19.3229 12.4933 19.3229 11.9602C19.3212 11.7762 19.2974 11.5929 19.2521 11.4138ZM17.6374 10.6542C17.6303 10.6609 17.6232 10.6709 17.6161 10.6809C17.6091 10.6909 17.602 10.7009 17.5949 10.7075C17.5949 10.7142 17.5914 10.7175 17.5878 10.7209C17.5843 10.7242 17.5807 10.7275 17.5807 10.7342C17.5666 10.7475 17.5559 10.7642 17.5453 10.7808C17.5347 10.7975 17.5241 10.8141 17.5099 10.8275C17.3224 11.1226 17.2153 11.4568 17.1983 11.8003V12.0935V12.1468C17.1961 12.1742 17.2009 12.2016 17.2125 12.2268V12.2801C17.2125 12.2934 17.216 12.3067 17.2195 12.3201C17.2231 12.3334 17.2266 12.3467 17.2266 12.36V12.4C17.2257 12.4073 17.2265 12.4146 17.2289 12.4215C17.2314 12.4284 17.2354 12.4347 17.2408 12.44C17.2408 12.4533 17.2443 12.4667 17.2479 12.48C17.2514 12.4933 17.255 12.5066 17.255 12.52L17.2691 12.5466V12.5599C17.2721 12.5883 17.2817 12.6156 17.2975 12.6399C17.2975 12.6466 17.301 12.6532 17.3045 12.6599C17.3081 12.6666 17.3116 12.6732 17.3116 12.6799V12.6932C17.3187 12.7065 17.3222 12.7165 17.3258 12.7265C17.3293 12.7365 17.3329 12.7465 17.3399 12.7598L17.3683 12.8131V12.8265C17.3683 12.8331 17.3718 12.8398 17.3754 12.8465C17.3789 12.8531 17.3824 12.8598 17.3824 12.8665C17.3905 12.8734 17.3956 12.8829 17.3966 12.8931C17.4147 12.9358 17.4385 12.9761 17.4674 13.013L17.4816 13.0264C17.5018 13.0597 17.5255 13.0909 17.5524 13.1197C17.5524 13.1263 17.556 13.1297 17.5595 13.133C17.563 13.1363 17.5666 13.1396 17.5666 13.1463L17.5807 13.1596C17.5878 13.173 17.5984 13.183 17.6091 13.193C17.6197 13.203 17.6303 13.2129 17.6374 13.2263C17.6516 13.2529 17.6516 13.2529 17.6657 13.2529C17.6888 13.2717 17.708 13.2943 17.7224 13.3196C17.7278 13.3246 17.7332 13.3278 17.7378 13.3305C17.7453 13.3348 17.7507 13.338 17.7507 13.3462H16.2635L15.3994 12.0002L16.2493 10.5609H17.7365L17.7082 10.5876L17.6941 10.6009L17.6374 10.6542ZM8.65722 18.2371C8.8169 18.2884 8.98426 18.3154 9.15297 18.3171C9.46459 18.3304 9.73371 18.2238 9.83286 18.0239C9.83994 18.0105 9.84702 18.0005 9.85411 17.9906C9.86119 17.9806 9.86827 17.9706 9.87535 17.9572C9.87914 17.9501 9.88294 17.9439 9.88646 17.9382L9.88647 17.9382C9.89609 17.9225 9.90368 17.9101 9.90368 17.8906V17.6241C9.90368 17.6186 9.90125 17.6153 9.89841 17.6115C9.89438 17.6062 9.88952 17.5997 9.88952 17.5841C9.88952 17.5574 9.88952 17.5308 9.87535 17.5175C9.86119 17.5041 9.86119 17.5041 9.86119 17.4908C9.8535 17.4836 9.84852 17.4743 9.84703 17.4642L9.83286 17.4508C9.82578 17.4375 9.8187 17.4208 9.81161 17.4042L9.81161 17.4042C9.80453 17.3875 9.79745 17.3709 9.79037 17.3575C9.77695 17.3238 9.75782 17.2923 9.73371 17.2643L9.71955 17.2376V17.2243C9.71246 17.2109 9.70538 17.201 9.6983 17.191C9.69122 17.181 9.68414 17.171 9.67705 17.1576L9.64873 17.131C9.64164 17.1177 9.63102 17.1077 9.6204 17.0977C9.60977 17.0877 9.59915 17.0777 9.59207 17.0644L9.56374 17.0377C9.55666 17.0244 9.54603 17.0144 9.53541 17.0044C9.52479 16.9944 9.51416 16.9844 9.50708 16.9711C9.49649 16.951 9.48209 16.9329 9.46459 16.9178C9.4603 16.9137 9.45601 16.9085 9.45133 16.9027C9.44055 16.8895 9.42768 16.8737 9.40793 16.8645L9.3796 16.8378C9.36544 16.8245 9.35128 16.8145 9.33712 16.8045L9.33711 16.8045L9.3371 16.8045C9.32294 16.7945 9.30878 16.7845 9.29462 16.7712L9.26629 16.7578C9.24504 16.7445 9.22734 16.7312 9.20963 16.7179C9.19193 16.7045 9.17422 16.6912 9.15297 16.6779L9.0255 16.5979C8.99108 16.571 8.95297 16.5486 8.91218 16.5313C8.89093 16.5246 8.86969 16.5146 8.84844 16.5046C8.8272 16.4946 8.80595 16.4846 8.7847 16.478L8.77054 16.4647C8.31728 16.2648 7.84986 16.2381 7.55241 16.3714C7.53824 16.378 7.52762 16.3847 7.517 16.3914C7.50637 16.398 7.49575 16.4047 7.48159 16.4113L7.45326 16.438C7.44759 16.4433 7.44193 16.4444 7.43626 16.4455C7.42776 16.4471 7.41926 16.4487 7.41077 16.4647C7.40368 16.478 7.39306 16.488 7.38244 16.498C7.37181 16.508 7.36119 16.518 7.35411 16.5313C7.30256 16.5899 7.26562 16.6586 7.24601 16.7324C7.2264 16.8062 7.22462 16.8832 7.24079 16.9577C7.29745 17.3309 7.63739 17.7307 8.11898 18.0105C8.28872 18.105 8.46929 18.181 8.65722 18.2371ZM10.187 17.3442C10.187 17.3247 10.1794 17.3123 10.1698 17.2966C10.1662 17.2909 10.1624 17.2847 10.1586 17.2776C10.1586 17.272 10.1586 17.2688 10.1576 17.2659C10.1562 17.2619 10.1527 17.2587 10.1445 17.2509C10.1314 17.2129 10.1123 17.177 10.0878 17.1443C9.91103 16.8431 9.66407 16.5834 9.36544 16.3847L9.23796 16.3047C9.19865 16.2775 9.15582 16.2551 9.11048 16.2381H9.09632C9.08924 16.2314 9.08215 16.2281 9.07507 16.2248C9.06799 16.2214 9.06091 16.2181 9.05382 16.2114C9.03966 16.1981 9.01134 16.1848 8.98302 16.1715L8.983 16.1715H8.96884C8.96176 16.1715 8.95467 16.1681 8.94759 16.1648C8.94051 16.1615 8.93343 16.1581 8.92635 16.1581C8.90051 16.1434 8.87146 16.1342 8.84136 16.1315L8.81303 16.1182H8.79887C8.79179 16.1182 8.7847 16.1148 8.77762 16.1115C8.77054 16.1082 8.76346 16.1048 8.75637 16.1048C8.74221 16.1048 8.69972 16.0915 8.67139 16.0782L8.64306 16.0649H8.6289C8.61473 16.0582 8.60057 16.0549 8.5864 16.0515C8.57224 16.0482 8.55807 16.0449 8.54391 16.0382C8.51558 16.0249 8.51558 16.0249 8.48725 16.0249H8.47309C8.44922 16.0217 8.42558 16.0173 8.40227 16.0115C8.3823 16.0135 8.36223 16.0088 8.34561 15.9982H8.33145C8.32376 15.9991 8.31596 15.9983 8.30861 15.996C8.30126 15.9937 8.29455 15.9899 8.28895 15.9849H8.24646C8.22521 15.9849 8.20043 15.9816 8.17564 15.9782C8.15085 15.9749 8.12606 15.9716 8.10482 15.9716H7.92068C7.89162 15.9695 7.86246 15.974 7.83569 15.9849C7.828 15.984 7.82021 15.9848 7.81286 15.9871C7.80551 15.9894 7.7988 15.9932 7.7932 15.9982C7.77904 15.9982 7.76487 16.0016 7.75071 16.0049C7.73654 16.0082 7.72238 16.0115 7.70822 16.0115C7.69162 16.0115 7.68475 16.0161 7.67905 16.0199C7.67503 16.0226 7.67159 16.0249 7.66572 16.0249L8.44476 14.8388L10.1161 14.8521L10.9802 16.2914L10.2011 17.4908C10.2021 17.4836 10.2013 17.4762 10.1988 17.4693C10.1964 17.4624 10.1923 17.4561 10.187 17.4508V17.4242C10.187 17.4187 10.1845 17.4131 10.1817 17.4067C10.1777 17.3975 10.1728 17.3865 10.1728 17.3709C10.1809 17.364 10.1859 17.3544 10.187 17.3442ZM9.06799 19.01L13.1473 19.0234L10.3428 14.4923H4.74788L6.81586 17.7973L5.64023 19.5964L2.09915 13.7327H2.11331L2 13.5594L2.56657 12.6266L11.4759 12.6399L15.966 19.8763L15.3428 20.8891L9.11048 20.8758V20.8625L8.01983 20.8758L8.44476 20.1162L9.06799 19.01Z" fill="black"/>
</svg>
