<svg width="24" height="24" viewBox="0 0 24 24" fill="none" xmlns="http://www.w3.org/2000/svg">
<path d="M12.7443 12.0339L17.1771 9.69903V15.4853L12.7443 17.9894V12.0339Z" fill="black"/>
<path d="M12.0337 7.00322L7.73564 9.48471V14.4477L11.9973 16.9082V17.9789C11.963 17.9742 11.9293 17.963 11.8984 17.9451L6.92352 15.0729C6.83977 15.0245 6.78817 14.9351 6.78817 14.8384V9.09399C6.78817 8.99727 6.83977 8.90791 6.92352 8.85955L11.8984 5.98733C11.9821 5.93897 12.0853 5.93897 12.1691 5.98733L17.1439 8.85955C17.1669 8.87282 17.1874 8.88917 17.2052 8.90792L16.2236 9.42229L12.0337 7.00322Z" fill="black"/>
<path fill-rule="evenodd" clip-rule="evenodd" d="M12.2706 2.07254C12.1031 1.97582 11.8967 1.97582 11.7292 2.07254L3.53779 6.80183C3.37028 6.89854 3.26709 7.07728 3.26709 7.27071V16.7293C3.26709 16.9227 3.37028 17.1015 3.53779 17.1982L11.7292 21.9275C11.8967 22.0242 12.1031 22.0242 12.2706 21.9275L20.462 17.1982C20.6295 17.1015 20.7327 16.9227 20.7327 16.7293V7.27071C20.7327 7.07728 20.6295 6.89854 20.462 6.80183L12.2706 2.07254ZM11.9999 3.94803L5.02667 7.97402V16.026L11.9999 20.052L18.9731 16.026V7.97402L11.9999 3.94803Z" fill="black"/>
</svg>
