<svg width="24" height="24" viewBox="0 0 24 24" fill="none" xmlns="http://www.w3.org/2000/svg">
<path d="M12 2.36454C12.0539 2.36454 12.1036 2.37814 12.1532 2.40481L20.2369 7.07061C20.3316 7.12448 20.3902 7.22385 20.3902 7.33159V16.6627C20.3902 16.7709 20.3316 16.8698 20.2369 16.9236L12.1532 21.5936C12.1083 21.6208 12.0544 21.6339 12 21.6339C11.9456 21.6339 11.8964 21.6203 11.8468 21.5936L3.76778 16.9289C3.67312 16.875 3.61454 16.7756 3.61454 16.6679V7.33211C3.61454 7.22385 3.67312 7.125 3.76778 7.07113L11.8468 2.40533C11.8964 2.37814 11.9456 2.36506 12 2.36506M12 1.00052C11.7118 1.00052 11.4236 1.07688 11.1668 1.22594L3.08316 5.89069C2.56956 6.18776 2.25 6.73745 2.25 7.33211V16.6632C2.25 17.2578 2.56956 17.807 3.08316 18.1088L11.1668 22.7746C11.4236 22.9231 11.7118 23 12 23C12.2882 23 12.5764 22.9236 12.8332 22.7746L20.9168 18.1088C21.4346 17.8117 21.75 17.262 21.75 16.6632V7.33211C21.75 6.73745 21.4304 6.18828 20.9168 5.88651L12.8332 1.22071C12.5764 1.07218 12.2882 1 12 1V1.00052Z" fill="black"/>
<path d="M9.93707 7.21924H8.8832C8.80213 7.21924 8.73467 7.26892 8.70747 7.34528L5.30736 16.6539C5.28487 16.7171 5.32985 16.7799 5.39732 16.7799H6.45119C6.53226 16.7799 6.59973 16.7302 6.62692 16.6539L10.0223 7.34058C10.0495 7.282 10.0045 7.21924 9.93655 7.21924H9.93707Z" fill="black"/>
<path d="M11.3064 10.8313C11.275 10.7502 11.1579 10.7502 11.1307 10.8313L10.581 12.3355C10.5674 12.3758 10.5674 12.4213 10.581 12.4662L12.1124 16.6592C12.1396 16.7356 12.2112 16.7853 12.2881 16.7853H13.342C13.4095 16.7853 13.4544 16.722 13.4319 16.6592L11.3064 10.8318V10.8313Z" fill="black"/>
<path d="M11.7842 7.21924H10.7303C10.6492 7.21924 10.5818 7.26892 10.5546 7.34528L7.15917 16.6539C7.13668 16.7171 7.18166 16.7799 7.24913 16.7799H8.303C8.38407 16.7799 8.45153 16.7302 8.47873 16.6539L11.8741 7.34058C11.8966 7.282 11.8516 7.21924 11.7842 7.21924Z" fill="black"/>
<path d="M12.2295 8.29566C12.1981 8.2146 12.0809 8.2146 12.0537 8.29566L11.5046 9.79985C11.491 9.84012 11.491 9.88562 11.5046 9.9306L13.9591 16.6545C13.9863 16.7308 14.0579 16.7805 14.1348 16.7805H15.1887C15.2562 16.7805 15.3011 16.7172 15.2786 16.6545L12.23 8.29619L12.2295 8.29566Z" fill="black"/>
<path d="M18.602 7.21924H17.5482C17.4671 7.21924 17.3996 7.26892 17.3724 7.34528L14.9138 14.0691C14.9002 14.1094 14.9002 14.1549 14.9138 14.1999L15.4634 15.7041C15.4948 15.7851 15.612 15.7851 15.6392 15.7041L18.6878 7.34581C18.7103 7.28252 18.6653 7.21976 18.602 7.21976V7.21924Z" fill="black"/>
<path d="M14.5396 13.1685C14.571 13.2496 14.6882 13.2496 14.7154 13.1685L16.8409 7.34528C16.8634 7.282 16.8184 7.21924 16.7509 7.21924H15.697C15.616 7.21924 15.5485 7.26892 15.5213 7.34528L13.9899 11.5383C13.9763 11.5785 13.9763 11.624 13.9899 11.669L14.5391 13.1685H14.5396Z" fill="black"/>
</svg>
