<svg width="24" height="24" viewBox="0 0 24 24" fill="none" xmlns="http://www.w3.org/2000/svg">
<path d="M6.21232 9.85331C5.05916 9.72003 4.92565 10.6744 5.2464 10.8802C5.48657 11.0353 6.25666 11.1156 6.62397 11.1457C6.79045 11.1646 6.95278 11.0804 7.03699 10.9304C7.19791 10.5758 7.09099 9.95481 6.21232 9.85331Z" fill="white"/>
<path d="M9.42852 11.1761C9.78213 11.1458 10.5238 11.0656 10.7547 10.9111C11.0635 10.7057 10.935 9.75303 9.8251 9.88607C8.97919 9.98737 8.87628 10.6075 9.0312 10.9615C9.11226 11.1109 9.26827 11.1953 9.42852 11.1761Z" fill="white"/>
<path d="M22.2995 10.1321C22.0505 10.1321 21.8334 10.2606 21.7088 10.4529H17.9724L17.1486 11.2636H13.6604C13.7413 11.4998 13.8151 11.7452 13.8821 12.0001H17.4585L18.2814 11.1894H21.7082C21.8323 11.3826 22.0501 11.5115 22.2991 11.5115C22.6864 11.5115 23 11.2026 23 10.8218C23 10.441 22.6864 10.1321 22.2995 10.1321Z" fill="black"/>
<path d="M19.2421 13.5758C19.371 13.7523 19.5738 13.868 19.8044 13.868C20.194 13.868 20.5094 13.5427 20.5094 13.1416C20.5094 12.7405 20.1937 12.4152 19.8044 12.4152C19.5354 12.4152 19.3046 12.5721 19.1857 12.8H14.0755C14.1239 13.0515 14.1675 13.3103 14.2073 13.5758H19.2421Z" fill="black"/>
<path d="M14.2293 14.2934V14.2944H14.2311C14.2148 14.5412 14.1617 14.7832 14.0755 15.0136H17.4983L18.3449 15.8324H20.6587C20.784 16.0234 21.0036 16.151 21.2549 16.151C21.6458 16.151 21.9623 15.8446 21.9623 15.467C21.9623 15.0893 21.6455 14.783 21.2549 14.783C21.0036 14.783 20.784 14.9108 20.6587 15.1018H18.6585L17.8117 14.2831H14.2281C14.2278 14.2865 14.2281 14.29 14.2281 14.2934H14.2293Z" fill="black"/>
<path d="M13.6902 15.7452C13.1273 16.5296 12.4278 17.1976 11.6297 17.7192C11.6104 17.732 11.5909 17.743 11.5716 17.7556C11.4927 17.8061 11.4135 17.8557 11.3328 17.9032C11.2512 17.952 11.1697 17.9978 11.0881 18.0426C11.0821 18.0459 11.0758 18.0494 11.0698 18.0527C10.588 18.315 10.106 18.5107 9.64231 18.6471C9.61601 18.6551 9.59021 18.6641 9.56364 18.6719C9.53083 18.6814 9.49727 18.6881 9.46419 18.6972C9.41307 18.7107 9.36224 18.7237 9.31164 18.736C9.23696 18.754 9.16231 18.7707 9.08691 18.786C9.03556 18.7965 8.98519 18.8055 8.93459 18.8143C8.87423 18.8248 8.81384 18.8356 8.75321 18.8441C8.66403 18.8571 8.57709 18.8671 8.49093 18.8756C8.46561 18.8781 8.44029 18.8814 8.41501 18.8836C8.30153 18.8934 8.19078 18.8997 8.08358 18.9019C8.07181 18.9022 8.06002 18.9036 8.04825 18.9039V18.9052C8.03651 18.9054 8.02343 18.9047 8.01169 18.9047H8.00641C8.00417 18.9047 8.00214 18.9052 7.99992 18.9052L7.99788 18.9047L7.98062 18.9054H7.97636V18.9042C6.65986 18.8859 4.83809 18.3155 3.29639 16.8437C2.9404 16.5038 2.59919 16.1161 2.28279 15.6758C1.99417 15.2721 1.82558 14.7955 1.79575 14.3002H1.79752L1.80003 14.2994C1.78498 14.1029 1.79175 13.9055 1.82058 13.7105C1.96235 12.5751 2.26774 11.4663 2.72669 10.4181C2.32888 9.49395 2.05706 8.52055 1.91852 7.52386C1.82959 6.75872 1.8619 5.97375 2.15751 5.33025C2.2254 5.18507 2.38424 5.10523 2.54156 5.13752C2.80687 5.18908 3.26181 5.35653 3.89487 5.85788C4.55022 6.40103 5.14072 7.01826 5.65428 7.69683C6.40458 7.45577 7.18899 7.33664 7.97711 7.34415V7.34313C7.98813 7.34313 8.0004 7.34415 8.01268 7.34415C8.02497 7.34415 8.03599 7.34313 8.04825 7.34313V7.34415C8.81483 7.33765 9.57767 7.45002 10.3097 7.67706C10.818 7.00726 11.4015 6.39829 12.0491 5.86164C12.6841 5.35628 13.1398 5.18883 13.4059 5.13752C13.5632 5.10523 13.722 5.18507 13.7902 5.3305C14.087 5.97703 14.1189 6.76544 14.0279 7.53437C13.8959 8.48325 13.6421 9.4111 13.2733 10.2954C13.2681 10.3079 13.2633 10.3207 13.2581 10.3332C13.3089 10.4376 13.357 10.5454 13.4041 10.6546H15.1976L16.5116 9.34252H17.4844C17.6079 9.53702 17.824 9.66692 18.0718 9.66692C18.457 9.66692 18.7687 9.35506 18.7687 8.9706C18.7687 8.58614 18.4566 8.27425 18.0718 8.27425C17.824 8.27425 17.6079 8.40441 17.4844 8.5989H16.2034L14.8892 9.91093H14.2572C14.5154 9.16907 14.7036 8.40441 14.8123 7.62623L14.8143 7.61023C14.9366 6.57423 14.8338 5.68893 14.5071 4.97808L14.5077 4.97709C14.3195 4.57735 13.9179 4.3218 13.4758 4.3208C13.4019 4.3208 13.3282 4.32782 13.2558 4.34232C12.7372 4.44269 12.1653 4.7393 11.5558 5.22463L11.5433 5.23463C10.9884 5.69493 10.477 6.20479 10.0153 6.7582C9.39103 6.60951 8.7517 6.53444 8.10988 6.53444H7.90669C7.2461 6.53444 6.58797 6.61454 5.94688 6.77323C5.47994 6.21231 4.96235 5.69568 4.40042 5.22963L4.3879 5.21963C3.63108 4.62017 3.05237 4.41266 2.70189 4.34434C2.18358 4.23795 1.66048 4.50226 1.43902 4.98234C1.1151 5.68418 1.01189 6.56373 1.13063 7.59495L1.13314 7.61398C1.26516 8.56484 1.51067 9.49646 1.86416 10.389C1.45656 11.4132 1.17824 12.4845 1.03569 13.5776C1.00363 13.7981 0.993106 14.0214 1.00438 14.2438C1.00286 14.2722 1.00286 14.3007 1.00438 14.3292C1.00689 14.3698 1.00988 14.4101 1.01363 14.4501C1.07102 15.0523 1.2867 15.6288 1.63868 16.1211C1.95509 16.5611 2.30958 16.9726 2.69813 17.3505L2.74224 17.3939C2.77629 17.4264 2.81037 17.458 2.8447 17.4892L2.86749 17.51C2.86749 17.51 2.92336 17.5623 2.93789 17.5756C2.9617 17.5971 2.98573 17.6179 3.00979 17.6389L3.07491 17.696C3.09521 17.714 3.11576 17.732 3.13656 17.7498C3.15735 17.7676 3.17362 17.7806 3.19216 17.7958L3.2538 17.8469C3.28134 17.8699 3.30915 17.8927 3.33671 17.9152C3.35199 17.9273 3.43468 17.9911 3.43468 17.9911C3.46873 18.0184 3.50406 18.0454 3.53963 18.0721L3.60026 18.1162C3.64787 18.1515 3.69546 18.1865 3.74305 18.2201L3.79216 18.2541C3.84427 18.2904 3.89664 18.3267 3.9495 18.3618L3.98958 18.3875C4.04495 18.4238 4.1003 18.4594 4.15516 18.4937L4.18924 18.5147C4.24687 18.55 4.30422 18.585 4.36283 18.6191L4.38991 18.6341C4.45004 18.6681 4.51017 18.7024 4.57127 18.7364L4.59157 18.7472C4.65396 18.7813 4.71633 18.8138 4.7777 18.8453L4.79899 18.8559C4.86138 18.8874 4.92402 18.9182 4.98666 18.9477L5.00619 18.9565C5.06932 18.9863 5.13244 19.015 5.19381 19.0418L5.21488 19.0506C5.27724 19.0779 5.33986 19.1044 5.40152 19.1294L5.42305 19.1379C5.48494 19.163 5.54706 19.1872 5.60691 19.2098L5.63298 19.219C5.69311 19.2413 5.75348 19.2631 5.81411 19.2841L5.84443 19.2941C5.9023 19.3137 5.95991 19.3329 6.0173 19.3509L6.05285 19.3615C6.10847 19.3785 6.16385 19.3955 6.21895 19.411L6.26102 19.4225C6.31388 19.4373 6.36675 19.4518 6.41861 19.4651L6.47174 19.4778C6.52008 19.4899 6.56867 19.5016 6.61728 19.5119L6.67541 19.5244C6.72099 19.5344 6.76659 19.5442 6.81194 19.5529L6.89087 19.5674C6.92868 19.5744 6.9665 19.5817 7.00408 19.588L7.10655 19.604C7.13561 19.6085 7.16468 19.613 7.19324 19.617C7.21402 19.62 7.30397 19.6313 7.30397 19.6313C7.32902 19.6345 7.3543 19.6378 7.37937 19.6408C7.40442 19.6438 7.56172 19.6578 7.56172 19.6578C7.59028 19.6603 7.61811 19.6618 7.64717 19.6636L7.74137 19.6698C7.77444 19.6716 7.80702 19.6726 7.83957 19.6738L7.90368 19.6761C7.9275 19.6783 7.95154 19.6793 7.97561 19.6793H8.04774C8.07154 19.6793 8.09485 19.6781 8.11816 19.6763C8.46385 19.6668 8.80809 19.6293 9.14778 19.5647L9.16934 19.5607C9.23323 19.5487 9.29761 19.5354 9.36247 19.5211L9.37326 19.5189C10.6722 19.2233 11.8792 18.6151 12.8891 17.747C13.3698 17.3438 13.8017 16.8868 14.1822 16.3887H14.3744L15.6756 17.6887H18.6025C18.726 17.8832 18.942 18.0131 19.1898 18.0131C19.5748 18.0131 19.8868 17.7012 19.8868 17.3168C19.8868 16.9323 19.5746 16.6204 19.1898 16.6204C18.942 16.6204 18.726 16.7506 18.6025 16.9451H15.9832L14.682 15.645H13.7621C13.7549 15.6555 13.7486 15.6663 13.7411 15.6768C13.7245 15.7004 13.707 15.7229 13.6902 15.7461V15.7452Z" fill="black"/>
<path d="M13.4497 10.5886C13.4026 10.4793 13.3539 10.3717 13.3027 10.2674C13.308 10.2549 13.3128 10.2422 13.3181 10.2296C13.6893 9.34593 13.945 8.4187 14.0777 7.47045C14.1692 6.70206 14.1372 5.91414 13.8384 5.26807C13.77 5.12273 13.6099 5.04319 13.4515 5.07521C13.1839 5.12624 12.725 5.29382 12.0857 5.79883C11.4341 6.33511 10.8465 6.94393 10.3348 7.61304C9.59798 7.38618 8.83011 7.27411 8.05845 7.28035V7.27937C8.04634 7.27937 8.03501 7.28035 8.02265 7.28035C8.01028 7.28035 7.9982 7.27937 7.98682 7.27937V7.28035C7.19349 7.27286 6.4039 7.39165 5.64863 7.63278C5.13168 6.95442 4.53729 6.33786 3.87761 5.79508C3.24035 5.29407 2.7824 5.12699 2.51534 5.07521C2.35723 5.04294 2.19735 5.12273 2.12875 5.26782C1.83118 5.9109 1.79865 6.69505 1.88818 7.45993C2.02738 8.4557 2.30099 9.42847 2.70169 10.3522C2.23946 11.3998 1.9323 12.5078 1.78957 13.6424C1.76058 13.8373 1.75376 14.0346 1.76889 14.231C2.17389 14.0996 3.19875 13.842 4.2261 14.1827C4.69314 14.3373 5.16067 14.6152 5.57096 15.0846L5.57175 15.0854C5.85116 13.9858 6.86489 13.2275 8.00775 13.263H8.00953C8.41678 13.2557 8.82003 13.3425 9.18745 13.5163C9.49887 13.6789 9.76872 13.9026 9.9828 14.1702C9.9881 14.1767 9.9924 14.1842 9.9977 14.1907C10.0453 14.2515 10.091 14.3138 10.1329 14.3786C10.1407 14.3906 10.1467 14.4038 10.1543 14.4158C10.1919 14.4766 10.2284 14.5379 10.2607 14.6017C10.2713 14.6224 10.2791 14.6447 10.2892 14.666C10.3159 14.7227 10.3429 14.7793 10.3651 14.838C10.3775 14.8706 10.3861 14.9046 10.3971 14.9378C10.4135 14.9869 10.4314 15.0354 10.4445 15.0857C11.7791 13.5566 13.7213 14.0546 14.2756 14.2397C14.2759 14.2362 14.2756 14.2327 14.2756 14.2292C14.2903 14.0331 14.2835 13.836 14.2537 13.6414C14.2479 13.6022 14.2418 13.5644 14.2358 13.5256C14.1962 13.2712 14.1526 13.0233 14.1047 12.7825C14.0499 12.5091 13.9891 12.2455 13.9223 11.9901C13.855 11.7329 13.7814 11.4853 13.7004 11.2469C13.623 11.0191 13.5408 10.7987 13.4497 10.5886ZM3.3846 8.82164C3.2507 8.97399 3.1251 9.13356 3.00886 9.29966C2.66035 8.23861 2.28964 6.71356 2.60915 5.7453C2.82551 5.82809 3.20656 6.07123 3.69629 6.50344C4.0357 6.80309 4.42712 7.19305 4.85378 7.68683C4.2952 7.9682 3.79665 8.35342 3.3846 8.82164ZM6.71031 12.7542C6.54187 13.0929 5.16748 12.7282 4.48584 12.2632C4.39153 12.1982 4.33556 12.0914 4.33606 11.9775L4.40489 11.4323C4.40489 11.3405 4.47981 11.2662 4.57235 11.2662C4.59253 11.2662 4.61271 11.2699 4.6316 11.2769C5.22524 11.4986 6.90021 12.2587 6.71031 12.7542ZM6.96551 10.9142C6.88885 11.0451 6.74159 11.1186 6.59001 11.1016C6.25559 11.0756 5.55382 11.0056 5.33544 10.8702C5.04343 10.6906 5.16495 9.85796 6.21479 9.97424C7.0147 10.0628 7.11204 10.6048 6.96551 10.9142ZM9.1118 10.9142C8.96529 10.6048 9.06262 10.0628 9.86253 9.97424C10.9121 9.85796 11.0336 10.6906 10.7416 10.8702C10.523 11.0056 9.82194 11.0756 9.48754 11.1018C9.33596 11.1181 9.18845 11.0451 9.1118 10.9142ZM11.5882 12.2627C10.9065 12.7274 9.53191 13.0924 9.3637 12.7537C9.17382 12.2582 10.8488 11.4981 11.4424 11.2764C11.4616 11.2692 11.482 11.2654 11.5027 11.2654C11.5952 11.2654 11.6701 11.34 11.6701 11.4318L11.739 11.9771C11.7483 12.0929 11.6893 12.2044 11.5882 12.2627ZM12.983 9.22687C12.8798 9.08404 12.7721 8.94947 12.6592 8.82164C12.611 8.76713 12.5608 8.71384 12.5101 8.66131C12.115 8.25134 11.6507 7.91219 11.1368 7.66056C12.1674 6.47471 12.9953 5.88563 13.358 5.74605C13.4359 5.98243 13.4727 6.25207 13.4788 6.53999C13.4972 7.40467 13.2387 8.43471 12.983 9.22687Z" fill="black"/>
<path d="M8.37241 17.2722C8.36025 17.2682 8.34683 17.2656 8.33141 17.2656C8.21044 17.2656 8.18084 17.6268 8.00698 17.6383L8.00523 17.6385L8.00345 17.638L7.99993 17.6388L7.99966 17.638C7.99713 17.638 7.99459 17.637 7.99206 17.6362H7.99081C7.82454 17.6126 7.79139 17.2656 7.67603 17.2656C7.55554 17.2656 7.54468 17.4128 7.43158 17.4128C7.41638 17.4123 7.40119 17.4105 7.38627 17.4072C7.29769 17.3805 7.23748 17.2981 7.23949 17.2052V17.0982H8.76943V17.2052C8.77121 17.2981 8.71123 17.3805 8.62266 17.4072C8.60773 17.4105 8.59254 17.4125 8.57734 17.4128C8.56318 17.4128 8.55079 17.4105 8.53942 17.4064C8.47159 17.3823 8.44579 17.2963 8.37339 17.272L8.37241 17.2722ZM9.57234 17.0236H9.48073L9.27171 17.5766C9.26642 17.5918 9.252 17.602 9.23605 17.6022C9.22642 17.6017 9.21707 17.5979 9.21049 17.5911C9.16949 17.5444 9.13308 17.4939 9.10143 17.4401C9.09459 17.429 9.09105 17.4163 9.0908 17.4031V16.774C8.98603 16.7882 8.87975 16.7961 8.77448 16.8062C8.52142 16.8303 8.26764 16.8468 8.01307 16.8461H7.99131C7.63223 16.8461 7.2734 16.8207 6.91787 16.7702L6.91687 16.771V17.4034C6.91687 17.4166 6.91331 17.4292 6.90624 17.4404C6.87486 17.4939 6.83842 17.5441 6.79768 17.5908C6.78275 17.6053 6.75896 17.6055 6.74403 17.5908C6.73997 17.5868 6.73694 17.5822 6.73518 17.5769L6.52614 17.0239H6.43608C6.39255 17.0257 6.35486 16.9934 6.34977 16.9498C6.34523 16.8078 6.31007 16.6682 6.2463 16.5414C6.23464 16.5143 6.2473 16.4831 6.27411 16.4712C6.27995 16.4688 6.28575 16.4671 6.29211 16.4668C6.46339 16.4633 6.82829 16.4552 6.90297 16.46H7.54974C7.61098 16.3598 7.70485 16.2837 7.81542 16.2449V15.8098C7.6717 15.7911 7.55048 15.7515 7.45029 15.6967C7.01482 15.458 6.95356 14.9304 6.96544 14.592C6.97101 14.4198 7.11222 14.283 7.28428 14.283H8.72389C8.89595 14.283 9.03689 14.4198 9.04245 14.592C9.04601 14.6952 9.04245 14.816 9.02423 14.9405C8.96782 15.3195 8.77042 15.7353 8.19248 15.8093V16.2449C8.30307 16.2837 8.39696 16.3598 8.45817 16.46H9.10497C9.1796 16.4554 9.54475 16.4628 9.71583 16.4668C9.74542 16.4683 9.76796 16.4935 9.76644 16.5229C9.76618 16.5292 9.76466 16.5356 9.76213 16.5414C9.69787 16.6682 9.66267 16.8078 9.65865 16.9501C9.65459 16.9825 9.63282 17.0084 9.60371 17.0191C9.59413 17.0226 9.5832 17.0238 9.57234 17.0236Z" fill="black"/>
</svg>
