<svg width="24" height="24" viewBox="0 0 24 24" fill="none" xmlns="http://www.w3.org/2000/svg">
<path fill-rule="evenodd" clip-rule="evenodd" d="M13.0303 5.42783L13.5442 2.11899C13.0353 2.04051 12.5164 2 11.9974 2H11.9898V8.74933H11.9974C12.2809 8.74933 12.5645 8.78477 12.8353 8.85819L13.7088 5.5696C13.486 5.50884 13.2607 5.46327 13.0303 5.42783ZM10.3695 9.18483L8.69104 6.29117C8.49357 6.40763 8.30117 6.53168 8.11636 6.66585L6.11131 3.91903C6.53156 3.61017 6.98219 3.33422 7.44548 3.09625L8.96952 6.07598C9.27838 5.91902 9.5999 5.78485 9.93154 5.67599L8.89357 2.49119C9.38977 2.32917 9.90369 2.20512 10.4201 2.1241L10.9543 5.48611C10.7265 5.52156 10.5012 5.57219 10.2809 5.63041L11.1493 8.86078C10.8784 8.9342 10.6151 9.04306 10.3695 9.18483ZM3.0836 7.46832L6.11649 9.01261C5.95953 9.31894 5.82789 9.64046 5.72156 9.96957L2.4836 8.92147C2.64562 8.42274 2.84562 7.93414 3.0836 7.46832ZM17.7063 8.68869L14.8126 10.3697C14.9544 10.6153 15.0658 10.8786 15.1392 11.1494L18.3696 10.2786C18.4303 10.4988 18.4784 10.7241 18.5139 10.9494L21.8759 10.4153C21.7949 9.89881 21.6708 9.38489 21.5063 8.88869L18.324 9.93172C18.2152 9.60008 18.081 9.27856 17.924 8.9697L20.9037 7.44059C20.6658 6.9773 20.3898 6.52668 20.081 6.10642L17.3341 8.11401C17.4658 8.29882 17.5898 8.49122 17.7063 8.68869ZM15.0733 2.48095C15.572 2.64298 16.0606 2.84298 16.5265 3.08095L14.9847 6.11385C14.6758 5.95689 14.3543 5.82524 14.0277 5.71891L15.0733 2.48095ZM15.3163 6.23276L13.6176 9.18211C13.8631 9.32388 14.091 9.49856 14.291 9.69856L19.0555 4.91631C18.6859 4.54669 18.2834 4.20492 17.8631 3.89859L15.8986 6.60997C15.7112 6.47326 15.5188 6.34668 15.3163 6.23276ZM9.17969 10.38L6.23287 8.67875C6.34933 8.47875 6.47591 8.28382 6.61008 8.09647L3.90124 6.1294C4.20756 5.70914 4.54933 5.30662 4.91895 4.937L9.69614 9.70406C9.49614 9.90659 9.32146 10.1344 9.17969 10.38ZM5.5696 10.2861L8.85819 11.162C8.78731 11.4329 8.74933 11.7139 8.74933 12H2C2 11.481 2.04051 10.957 2.11899 10.4481L5.42783 10.9646C5.46327 10.7367 5.51137 10.5089 5.5696 10.2861ZM17.8835 14.9873L20.9164 16.5316C21.1544 16.0658 21.3544 15.5772 21.5164 15.0785L18.2784 14.0304C18.1721 14.3595 18.0405 14.681 17.8835 14.9873ZM13.6279 14.8124L15.3063 17.7061C15.5063 17.5922 15.6987 17.4681 15.8836 17.3289L17.8886 20.0782C17.4684 20.3871 17.0177 20.663 16.5544 20.901L15.0279 17.9213C14.719 18.0782 14.3975 18.2124 14.0658 18.3213L15.1038 21.5061C14.6076 21.6681 14.0937 21.7921 13.5772 21.8732L13.0431 18.5112C13.2709 18.4757 13.4962 18.4251 13.7165 18.3668L12.8481 15.1365C13.119 15.0631 13.3823 14.9542 13.6279 14.8124ZM6.2937 15.3112L9.18736 13.6277C9.04559 13.3821 8.9342 13.1188 8.86078 12.8479L5.63041 13.7188C5.56966 13.4986 5.52156 13.2732 5.48611 13.0479L2.1241 13.5821C2.20512 14.0986 2.32917 14.6125 2.49372 15.1087L5.67599 14.0682C5.78485 14.3973 5.91902 14.7213 6.07598 15.0302L3.09625 16.5593C3.33422 17.0226 3.61017 17.4732 3.91903 17.8935L6.66585 15.8859C6.53421 15.7011 6.41016 15.5087 6.2937 15.3112ZM8.92656 21.519C8.42783 21.357 7.93922 21.157 7.4734 20.919L9.01517 17.8861C9.32402 18.0431 9.64554 18.1748 9.97212 18.2811L8.92656 21.519ZM8.6809 17.7672L10.3796 14.8178C10.1341 14.6761 9.90621 14.5014 9.70621 14.3014L4.94168 19.0836C5.31129 19.4532 5.71382 19.795 6.13408 20.1013L8.09862 17.39C8.28596 17.5241 8.4809 17.6507 8.6809 17.7672ZM14.8176 13.6202L17.7644 15.3215C17.6505 15.5215 17.5239 15.7139 17.3898 15.9038L20.0986 17.8708C19.7923 18.2911 19.4505 18.6936 19.0809 19.0632L14.3012 14.2962C14.5012 14.0936 14.6758 13.8658 14.8176 13.6202ZM11.1619 15.142L10.2885 18.4306C10.5113 18.4888 10.7392 18.5369 10.967 18.5724L10.4531 21.8812C10.9619 21.9597 11.4809 22.0002 11.9999 22.0002H12.0075V15.2509H11.9999C11.7164 15.2509 11.4328 15.2129 11.1619 15.142ZM15.1416 12.8379C15.215 12.567 15.2505 12.286 15.2505 11.9999H21.9998C21.9998 12.5189 21.9593 13.043 21.8808 13.5518L18.572 13.0354C18.5365 13.2632 18.4884 13.4911 18.4302 13.7139L15.1416 12.8379Z" fill="black"/>
</svg>
