<svg width="24" height="24" viewBox="0 0 24 24" fill="none" xmlns="http://www.w3.org/2000/svg">
<path d="M7.88816 13.3815C8.48537 13.3815 9.03665 13.1825 9.48077 12.8381L5.83613 9.19476C5.49156 9.63106 5.29248 10.1821 5.29248 10.7868C5.28483 12.2181 6.44867 13.3815 7.88816 13.3815Z" fill="black"/>
<path d="M18.7302 10.7791C18.7302 10.1821 18.5311 9.63106 18.1865 9.1871L14.5419 12.8304C14.9784 13.1748 15.5296 13.3738 16.1345 13.3738C17.5663 13.3815 18.7302 12.2181 18.7302 10.7791Z" fill="black"/>
<path d="M20.5678 6.82206L18.9522 8.43707C19.4882 9.07998 19.8099 9.89131 19.8099 10.7945C19.8099 12.8228 18.1636 14.4684 16.1345 14.4684C15.2387 14.4684 14.4194 14.1469 13.7762 13.6112L12.0075 15.3792L10.2388 13.6112C9.5956 14.1469 8.78397 14.4684 7.88046 14.4684C5.85138 14.4684 4.20516 12.8228 4.20516 10.7945C4.20516 9.89897 4.52677 9.07998 5.06275 8.43707L3.44715 6.82206C2.52834 8.33755 2 10.1057 2 12.0038C2 17.53 6.47923 22 11.9998 22C17.5204 22 21.9997 17.5224 21.9997 12.0038C22.015 10.098 21.4866 8.32991 20.5678 6.82206Z" fill="black"/>
<path d="M19.2433 5.09986C17.4286 3.19402 14.8558 2 12.0075 2C9.15915 2 6.59413 3.19402 4.77179 5.09986C4.52678 5.36012 4.28944 5.63568 4.06736 5.91886L11.9999 13.8484L19.9323 5.9112C19.7332 5.63564 19.4959 5.35247 19.2433 5.09986ZM12.0075 3.30118C14.3505 3.30118 16.5251 4.20436 18.1559 5.84999L12.0075 11.9961L5.85906 5.84999C7.49763 4.20436 9.66453 3.30118 12.0075 3.30118Z" fill="black"/>
</svg>
