<svg width="24" height="24" viewBox="0 0 24 24" fill="none" xmlns="http://www.w3.org/2000/svg">
<path d="M17.2278 14.0448C17.7414 13.1911 18.5698 13.1911 19.0833 14.0448L22.2808 19.4495C22.7943 20.3033 22.3743 21 21.3472 21H14.9057C13.8903 21 13.4702 20.3033 13.972 19.4495L17.2278 14.0448ZM11.0429 3.64033C11.5564 2.78656 12.3731 2.78656 12.8867 3.64033L13.5985 4.87635L15.2788 7.71898C15.6872 8.52793 15.6872 9.48301 15.2788 10.292L9.64264 19.6966C9.12909 20.4607 8.27721 20.9439 7.33223 21H2.65275C1.62603 21 1.20559 20.3146 1.71913 19.4495L11.0429 3.64033Z" fill="black"/>
</svg>
