<svg width="24" height="24" viewBox="0 0 24 24" fill="none" xmlns="http://www.w3.org/2000/svg">
<path d="M17.117 3C16.0889 2.9992 15.1025 3.40748 14.3743 4.13521C13.6461 4.86295 13.2356 5.85067 13.233 6.88157V11.1853C12.833 11.2124 12.424 11.2294 12 11.2294C11.576 11.2294 11.169 11.2464 10.767 11.2705V6.88157C10.7506 5.85961 10.3343 4.88506 9.60778 4.16815C8.88126 3.45125 7.90281 3.04946 6.8835 3.04946C5.86419 3.04946 4.88574 3.45125 4.15922 4.16815C3.4327 4.88506 3.01636 5.85961 3 6.88157L3 17.1676C3.01636 18.1895 3.4327 19.1641 4.15922 19.881C4.88574 20.5979 5.86419 20.9997 6.8835 20.9997C7.90281 20.9997 8.88126 20.5979 9.60778 19.881C10.3343 19.1641 10.7506 18.1895 10.767 17.1676V12.8639C11.167 12.8368 11.576 12.8197 12 12.8197C12.424 12.8197 12.831 12.8027 13.233 12.7786V17.1676C13.2494 18.1895 13.6657 19.1641 14.3922 19.881C15.1187 20.5979 16.0972 20.9997 17.1165 20.9997C18.1358 20.9997 19.1143 20.5979 19.8408 19.881C20.5673 19.1641 20.9836 18.1895 21 17.1676V6.88157C20.9971 5.85092 20.5867 4.86351 19.8588 4.13586C19.1308 3.40821 18.1448 2.99973 17.117 3ZM6.883 4.59033C7.48975 4.59006 8.07182 4.83115 8.50151 5.2607C8.9312 5.69024 9.17341 6.27317 9.175 6.88157V11.439C8.03878 11.6041 6.92922 11.9186 5.875 12.3745C5.4198 12.5756 4.99148 12.8329 4.6 13.1406V6.88157C4.60158 6.27473 4.84256 5.69317 5.2703 5.26388C5.69805 4.83459 6.27781 4.59245 6.883 4.59033ZM9.175 17.1676C9.175 17.7771 8.93352 18.3617 8.50369 18.7927C8.07386 19.2237 7.49088 19.4658 6.883 19.4658C6.27512 19.4658 5.69214 19.2237 5.26231 18.7927C4.83248 18.3617 4.591 17.7771 4.591 17.1676V16.1358C4.591 15.2243 5.311 14.3609 6.518 13.8235C7.36843 13.4554 8.2608 13.1937 9.175 13.0443V17.1676ZM17.117 19.4588C16.5103 19.4591 15.9282 19.218 15.4985 18.7884C15.0688 18.3589 14.8266 17.776 14.825 17.1676V12.6102C15.9612 12.4451 17.0708 12.1305 18.125 11.6746C18.5819 11.4739 19.012 11.2166 19.405 10.9085V17.1676C19.4034 17.7753 19.1618 18.3576 18.7329 18.787C18.3041 19.2165 17.7231 19.458 17.117 19.4588ZM17.482 10.2197C16.6316 10.5877 15.7392 10.8494 14.825 10.9988V6.88157C14.825 6.27203 15.0665 5.68746 15.4963 5.25645C15.9261 4.82545 16.5091 4.58331 17.117 4.58331C17.7249 4.58331 18.3079 4.82545 18.7377 5.25645C19.1675 5.68746 19.409 6.27203 19.409 6.88157V7.91338C19.409 8.82085 18.689 9.6842 17.482 10.2197Z" fill="black"/>
</svg>
