<svg width="24" height="24" viewBox="0 0 24 24" fill="none" xmlns="http://www.w3.org/2000/svg">
<path d="M20.2862 17.082C20.289 16.6348 21.9984 16.654 21.9868 16.2348C21.98 15.9856 21.5259 15.9336 21.4306 15.6064C21.4146 15.546 21.4094 15.4764 21.4198 15.3952C21.4266 15.3468 21.439 15.2948 21.459 15.2376C21.8094 14.2192 22 13.1272 22 11.99C22 6.4724 17.5229 2 12 2C6.47706 2 2 6.4724 2 11.9896C2 13.1196 2.1886 14.2056 2.53496 15.2188C2.53696 15.2284 2.54016 15.238 2.54377 15.248C2.55378 15.2744 2.56178 15.2992 2.56939 15.3236C2.69272 15.7664 2.002 15.9428 2.002 16.2104C2.002 16.6336 3.48955 16.5772 3.48955 17.0696C3.48955 17.4984 2.01842 17.6316 2.01842 18.0648C2.01842 18.6628 5.27621 18.4548 5.31705 18.9692C5.34868 19.3664 4.19708 19.3904 4.18988 19.8148C4.17867 20.4924 8.6357 20.2704 8.6357 20.7212C8.6357 21.0624 6.60839 20.9388 6.60839 21.342C6.60839 21.7452 9.27717 22 12.2182 22C15.1593 22 17.1882 21.6736 17.1882 21.3196C17.1882 20.9656 15.2946 21.0392 15.3339 20.7208C15.4019 20.1648 19.6039 20.4492 19.6039 19.8056C19.6039 19.4668 18.4479 19.3872 18.4855 19.0216C18.5384 18.5052 21.9984 18.5816 21.9984 18.0452C21.9984 17.6232 20.2834 17.52 20.2862 17.082ZM15.806 19.6076C15.806 19.9028 14.4654 20.0372 11.8927 20.0372C9.7889 20.0372 7.69913 19.9052 7.69913 19.562C7.69913 19.2188 10.1917 19.188 11.9051 19.1908C14.1871 19.1948 15.806 19.3004 15.806 19.6072V19.6076ZM12 4.6092C15.1545 4.6092 17.8465 6.584 18.906 9.3636C19.0285 9.724 18.584 9.702 18.2709 9.702H17.4192C16.811 9.702 16.0454 9.7748 16.0454 9.9412C16.0454 10.15 17.9045 10.1376 18.1096 10.1376C18.7094 10.1376 19.1795 10.1828 19.2475 10.5504C19.3396 11.016 19.3885 11.4972 19.3885 11.99C19.3885 12.98 19.1927 13.924 18.8387 14.7864C18.7238 15.04 18.5728 15.1712 18.3898 15.2816C17.5109 15.77 15.9165 15.6824 15.9169 15.9768C15.9169 16.4044 18.6013 16.2216 18.6053 16.5932C18.6113 17.1608 13.8155 16.824 13.8159 17.3352C13.8163 17.8424 17.6739 17.606 17.6739 18.1376C17.6739 18.4048 16.435 18.5032 15.084 18.5372C12.9858 18.5648 9.27597 18.5488 7.87811 18.5008C7.87811 18.5008 7.87891 18.5016 7.87971 18.5024C6.93393 18.4684 6.12869 18.3396 5.81277 18.2036C5.72588 18.166 5.72187 18.0604 5.80516 18.0176C6.76095 17.5264 12.5946 17.9176 12.5946 17.3468C12.5946 16.776 6.83062 17.1716 6.83503 16.676C6.83823 16.324 9.35365 16.3548 11.3485 16.3548C13.9324 16.3548 14.7256 16.2256 14.7244 16.0396C14.7224 15.6652 11.5467 15.8848 11.5351 15.4652C11.5239 15.058 16.5611 15.3552 16.5611 14.9564C16.5611 14.7028 14.3729 14.6792 12.185 14.6872C9.99672 14.6956 7.80884 14.6992 7.80884 14.9704C7.80884 15.2772 10.3987 15.158 10.3987 15.4652C10.3987 15.7076 8.97565 15.758 7.48931 15.758C6.50869 15.758 5.7479 15.6836 5.37511 15.2216C5.34428 15.1836 5.31345 15.128 5.28862 15.078C4.85577 14.138 4.61192 13.0928 4.61192 11.99C4.61192 7.914 7.91976 4.6096 12 4.6096V4.6092Z" fill="black"/>
<path d="M11.849 14.1156C15.0312 14.1156 18.1296 14.1616 18.1304 13.8064C18.1312 13.3764 13.687 13.4268 11.3782 13.4268C9.54705 13.4268 6.26444 13.3696 6.26444 13.778C6.26444 14.1864 9.93986 14.1156 11.849 14.1156Z" fill="black"/>
<path d="M13.9048 12.8952C15.997 12.8952 17.0444 12.8708 17.0444 12.6188C17.0444 12.2544 14.1963 12.4564 14.1963 12.0956C14.1963 11.7784 15.9958 11.9564 15.9958 11.6156C15.9958 11.3476 13.9805 11.3724 12.8817 11.3724C11.6632 11.3724 10.464 11.4184 10.464 11.6464C10.464 11.9424 13.5352 11.776 13.5352 12.0792C13.5352 12.5128 8.66253 12.1996 8.66253 12.6184C8.66253 13.0148 11.8298 12.8948 13.9048 12.8948V12.8952Z" fill="black"/>
<path d="M15.9573 10.958C16.4054 10.958 17.7199 10.93 17.7199 10.7504C17.7199 10.5708 16.7461 10.5128 15.7339 10.514C15.0384 10.5148 13.6205 10.526 13.6205 10.7292C13.6205 10.9324 14.6968 10.9584 15.9573 10.958Z" fill="black"/>
<path d="M16.7153 11.6212C16.7153 11.7912 17.4669 11.8612 18.0439 11.8612C18.377 11.8612 19.0125 11.792 19.0125 11.6572C19.0125 11.494 18.3602 11.444 17.9634 11.4388C17.4493 11.432 16.7157 11.4748 16.7157 11.6212H16.7153Z" fill="black"/>
</svg>
