<svg width="24" height="24" viewBox="0 0 24 24" fill="none" xmlns="http://www.w3.org/2000/svg">
<path fill-rule="evenodd" clip-rule="evenodd" d="M21.9389 10.7994C21.9855 11.1923 22.0114 11.5929 22.0114 12C22.0114 17.5221 17.5294 22 11.9994 22C7.97284 22 4.50268 19.626 2.9125 16.2026L4.51432 15.3975C5.80819 18.2368 8.67282 20.2101 11.9994 20.2101C16.5383 20.2101 20.2194 16.5348 20.2194 12C20.2194 11.916 20.2181 11.832 20.2155 11.748L21.9389 10.7994ZM11.9994 2C16.2161 2 19.8247 4.60402 21.2997 8.29104L19.5866 8.83638C18.3471 5.87308 15.4165 3.78986 11.9994 3.78986C7.46046 3.78986 3.77941 7.46523 3.77941 12C3.77941 12.0556 3.78069 12.1124 3.78199 12.168L2.10513 13.5379C2.0275 13.0364 1.98739 12.5234 1.98739 12C1.98868 6.4766 6.47066 2 11.9994 2Z" fill="black"/>
<path fill-rule="evenodd" clip-rule="evenodd" d="M0.846191 15.9983L10.6382 7.99886L10.2319 11.3253L15.947 8.0906L15.6571 11.249L23.1539 8.86471L12.9866 14.4579L13.7461 11.2749L7.87192 14.7138L8.26009 12.2726L0.846191 15.9983Z" fill="black"/>
</svg>
