<svg width="24" height="24" viewBox="0 0 24 24" fill="none" xmlns="http://www.w3.org/2000/svg">
<path fill-rule="evenodd" clip-rule="evenodd" d="M4.4375 16.8814C5.68344 15.7721 7.17488 14.9327 8.82012 14.4547V14.0383V13.7983V13.1983C8.8334 11.6582 8.82008 10.1249 8.78012 8.59834C8.74864 8.53418 8.69532 8.5075 8.62012 8.51834C9.19192 8.43902 9.7786 8.41234 10.3801 8.43834C10.3448 8.5137 10.2848 8.56702 10.2001 8.59834C10.1734 8.65166 10.1734 8.70502 10.2001 8.75834L11.9601 12.1183C12.5836 10.9914 13.197 9.85806 13.8001 8.71834C13.8268 8.67834 13.8268 8.63834 13.8001 8.59834C13.7258 8.55518 13.6658 8.50186 13.6201 8.43834C14.2216 8.41234 14.8083 8.43902 15.3801 8.51834C15.2468 8.51834 15.1801 8.58502 15.1801 8.71834L15.1662 9.35882C15.1327 10.8958 15.0856 13.0505 15.0779 14.4256C16.7635 14.8982 18.2908 15.7493 19.5624 16.8815C20.472 15.4753 21 13.7993 21 12C21 7.02944 16.9706 3 12 3C7.02944 3 3 7.02944 3 12C3 13.7993 3.528 15.4752 4.4375 16.8814ZM11.9999 14.0044C11.228 14.0044 10.474 14.0813 9.74517 14.2278L9.80012 10.7773V10.2783L9.86012 10.3583L10.5928 11.6046L11.2337 12.8028L11.9601 14.0045L12.8619 12.4201C12.8619 12.4201 13.6368 11.0716 14.0401 10.2783C14.0546 10.9921 14.0397 12.299 14.0278 13.3409C14.0243 13.6531 14.021 13.9415 14.0188 14.183C13.3636 14.0656 12.6889 14.0044 11.9999 14.0044ZM3.70806 17.5914C2.62969 15.9953 2 14.0712 2 12C2 6.47715 6.47715 2 12 2C17.5228 2 22 6.47715 22 12C22 17.1777 18.065 21.4363 13.0224 21.9484C12.6863 21.9825 12.3452 22 12 22C8.54839 22 5.50517 20.2512 3.70806 17.5914ZM9.78012 16.4978C9.75348 15.6453 9.74015 15.0717 9.74013 14.2192C9.4276 14.2914 9.12067 14.3783 8.82012 14.479V14.6967V14.9367V15.7378V16.2178C8.82672 16.3385 8.82004 16.4585 8.80012 16.5778C8.74784 16.6286 8.68784 16.6686 8.62012 16.6978C9.07344 16.7511 9.5268 16.7511 9.98012 16.6978C9.87192 16.6696 9.80528 16.6029 9.78012 16.4978Z" fill="black"/>
</svg>
