<svg width="24" height="24" viewBox="0 0 24 24" fill="none" xmlns="http://www.w3.org/2000/svg">
<g clip-path="url(#clip0_4514_68234)">
<path d="M7.38756 22.0001L2.20947 19.002V13.0103L7.38756 10.0122L12.5656 13.0103V19.002L7.38756 22.0001ZM3.34591 18.3476L7.39198 20.6868L11.4381 18.3476V13.6603L7.39198 11.3211L3.34591 13.6603V18.3476Z" fill="black"/>
<path d="M16.6122 22.0001L11.4341 19.002V13.0103L16.6122 10.0122L21.7903 13.0103V19.002L16.6122 22.0001ZM12.5661 18.3476L16.6122 20.6868L20.6582 18.3476V13.6603L16.6122 11.3211L12.5661 13.6603V18.3476Z" fill="black"/>
<path d="M12.5705 13.2627H11.4341V18.6H12.5705V13.2627Z" fill="black"/>
<path d="M12.004 13.9879L6.82593 10.9898V4.99807L12.004 2L17.1821 4.99807V10.9898L12.004 13.9879ZM7.95794 10.3353L12.004 12.6746L16.0501 10.3309V5.6481L12.004 3.30447L7.95794 5.64368V10.3309V10.3353Z" fill="black"/>
<path d="M12.0042 13.9924L7.10913 11.1579L7.67514 10.1763L12.0042 12.6791L16.3333 10.1763L16.8993 11.1579L12.0042 13.9924Z" fill="black"/>
<path d="M12.004 19.3321L6.82593 16.334V10.3423L12.004 7.34424L17.1821 10.3423V16.334L12.004 19.3321ZM7.95794 15.684L12.004 18.0232L16.0501 15.6796V10.9968L12.004 8.65313L7.95794 10.9923V15.6796V15.684Z" fill="black"/>
<path d="M12.0131 14.4749C12.7458 14.4749 13.3397 13.881 13.3397 13.1484C13.3397 12.4157 12.7458 11.8218 12.0131 11.8218C11.2805 11.8218 10.6865 12.4157 10.6865 13.1484C10.6865 13.881 11.2805 14.4749 12.0131 14.4749Z" fill="black"/>
</g>
<defs>
<clipPath id="clip0_4514_68234">
<rect width="24" height="24" fill="white"/>
</clipPath>
</defs>
</svg>
