<svg width="24" height="24" viewBox="0 0 24 24" fill="none" xmlns="http://www.w3.org/2000/svg">
<path d="M11.9999 3.52789C12.8468 3.52789 13.6085 3.9985 13.9875 4.7561L20.2374 17.2563C20.5842 17.9504 20.5479 18.7583 20.1403 19.4184C19.7323 20.0786 19.0259 20.4726 18.2497 20.4726H5.75002C4.97429 20.4726 4.26747 20.0786 3.85988 19.4184C3.45184 18.7583 3.41556 17.9504 3.76285 17.2563L10.0123 4.7561C10.3913 3.9985 11.153 3.52789 11.9999 3.52789ZM11.9999 2C10.5794 2 9.28096 2.80248 8.64577 4.07286L2.39591 16.573C1.81468 17.7355 1.87679 19.116 2.56003 20.2214C3.24328 21.3267 4.45018 22 5.75002 22H18.2502C19.55 22 20.7569 21.3272 21.4402 20.2214C22.1234 19.116 22.1855 17.7355 21.6043 16.573L15.354 4.07286C14.7188 2.80248 13.4203 2 11.9999 2Z" fill="black"/>
</svg>
