<svg width="24" height="24" viewBox="0 0 24 24" fill="none" xmlns="http://www.w3.org/2000/svg">
<path d="M19.5746 9.06006H14.9124V13.7667H19.5746V9.06006Z" fill="black"/>
<path d="M10.2534 15.53C10.2534 15.8794 10.1508 16.221 9.95848 16.5115C9.76621 16.802 9.49288 17.0285 9.17313 17.1622C8.85332 17.2959 8.5015 17.3309 8.16201 17.2627C7.82257 17.1946 7.51075 17.0263 7.26597 16.7792C7.02126 16.5322 6.85459 16.2174 6.78704 15.8747C6.71956 15.532 6.75421 15.1768 6.88667 14.8539C7.01912 14.5311 7.24339 14.2552 7.53119 14.0611C7.81899 13.867 8.15729 13.7634 8.50345 13.7634H10.2534V9.06006H8.50345C7.23585 9.06006 5.99673 9.43949 4.94284 10.1504C3.88888 10.8614 3.06744 11.8718 2.58234 13.0541C2.09726 14.2363 1.97034 15.5372 2.21763 16.7922C2.46492 18.0473 3.0753 19.2001 3.97165 20.105C4.86793 21.0098 6.00988 21.626 7.25308 21.8757C8.49628 22.1253 9.78496 21.9972 10.956 21.5075C12.1271 21.0178 13.128 20.1885 13.8322 19.1245C14.5365 18.0605 14.9124 16.8096 14.9124 15.53V13.7634H10.2534V15.53Z" fill="black"/>
<path d="M16.6621 6.70665H21.9055V2H16.6621C14.9628 2.00176 13.3337 2.68396 12.1322 3.89697C10.9307 5.10992 10.2549 6.75457 10.2532 8.46997V9.05997H14.9121V8.46997C14.913 8.00199 15.0977 7.5535 15.4258 7.22287C15.7539 6.89231 16.1985 6.70665 16.6621 6.70665Z" fill="black"/>
</svg>
