<svg width="24" height="24" viewBox="0 0 24 24" fill="none" xmlns="http://www.w3.org/2000/svg">
<path d="M20.9848 8.02136H10.4997C8.59607 8.02136 7.05288 9.56455 7.05288 11.4682V16.0113H13.4834C13.5865 16.0113 13.6886 16.0068 13.7895 15.9979C13.9111 15.9281 13.9019 15.7513 13.8516 15.7011L9.88871 11.7183C9.52821 11.356 9.80537 10.7157 10.3165 10.7157H18.4621V12.5645C18.4621 15.3142 16.2331 17.5432 13.4834 17.5432H3V19.8533H14.1064C17.9136 19.8533 21 16.7669 21 12.9597L20.9848 8.02136Z" fill="black"/>
<path d="M9.89362 4.14648C6.08638 4.14648 3 7.23286 3 11.0401V16.0066H5.52096V11.4635C5.52096 8.7138 7.75002 6.48475 10.4997 6.48475H20.9848L21 4.14648H9.89362Z" fill="black"/>
</svg>
