<svg width="24" height="24" viewBox="0 0 24 24" fill="none" xmlns="http://www.w3.org/2000/svg">
<path d="M19.1374 5.00521C18.2977 4.14863 17.3044 3.44485 16.2042 2.93249C16.1595 2.90949 16.114 2.88853 16.067 2.86885C15.8508 2.77226 15.6323 2.68026 15.4085 2.599C14.7821 2.37131 14.1266 2.2052 13.4495 2.10631C12.9759 2.03731 12.4922 2 12 2C6.4861 2 2 6.48584 2 12C2 16.2957 4.72309 19.9669 8.53353 21.3795C8.98175 21.5456 9.44506 21.6801 9.92063 21.781C10.5917 21.9236 11.287 22 11.9997 22C15.7979 22 19.108 19.8711 20.8005 16.7439C21.5648 15.3315 21.9997 13.7157 21.9997 12C21.9997 9.27921 20.9065 6.81013 19.1374 5.00521ZM4.98273 17.3498C3.80108 15.7913 3.17653 13.9319 3.17653 11.9727C3.17653 8.62706 5.03128 5.70694 7.76638 4.18619C7.8387 4.14581 7.91025 4.2419 7.84994 4.29863C7.60002 4.53399 7.36032 4.78544 7.13109 5.05326C5.54595 6.90724 4.63263 9.42845 4.62471 11.9727C4.62471 15.2758 6.83415 18.8409 10.4039 18.8409C13.5895 18.8409 16.181 15.7598 16.181 11.9727C16.181 10.1933 15.5845 8.48472 14.5659 7.2167C14.5299 7.17198 14.5726 7.10861 14.6275 7.12471C16.3494 7.63401 17.6371 9.61423 17.6371 11.9727C17.6371 14.0548 16.8817 16.1276 15.5643 17.6601C14.199 19.2483 12.3662 20.1235 10.4039 20.1243C8.33727 20.1243 6.35986 19.1108 4.98273 17.3498ZM19.1757 6.60084C20.3563 8.15558 20.9794 10.0121 20.9776 11.9709C20.9776 15.3162 19.1228 18.2366 16.3875 19.7573C16.3151 19.7977 16.2436 19.7016 16.3039 19.6449C16.5538 19.4095 16.7935 19.1578 17.0227 18.8903C18.6079 17.0365 19.5212 14.5151 19.5291 11.9709C19.5291 8.66769 17.3197 5.10258 13.75 5.10258C10.5643 5.10258 7.97286 8.18368 7.97286 11.9709C7.97286 13.7502 8.56956 15.4591 9.58816 16.7271C9.62394 16.7718 9.58152 16.8352 9.52658 16.8191C7.80446 16.31 6.51676 14.3303 6.51676 11.9729C6.51676 9.89124 7.27216 7.81877 8.58975 6.28677C9.95564 4.6983 11.7889 3.82332 13.752 3.82332C15.8171 3.82332 17.7937 4.83579 19.1757 6.60084ZM15.1358 11.9729C15.1358 14.3319 13.9899 16.3675 12.3475 17.2816C12.1441 17.3948 11.8934 17.3808 11.7051 17.2435L11.3537 16.9872C9.91322 15.9362 9.0183 14.014 9.0183 11.9711C9.0183 9.61244 10.1642 7.57677 11.8068 6.66268C12.0105 6.54947 12.2612 6.56353 12.4492 6.70076L12.8004 6.95707C14.2409 8.00813 15.1358 9.92983 15.1358 11.9729Z" fill="black"/>
</svg>
