<svg width="24" height="24" viewBox="0 0 24 24" fill="none" xmlns="http://www.w3.org/2000/svg">
<path fill-rule="evenodd" clip-rule="evenodd" d="M6.11642 5.2995H3.6129L2 18.7076H4.01264L4.25106 15.7904H5.37308L5.6115 18.7076H7.72932L6.11642 5.2995ZM4.39131 14.0092L4.60871 11.2532L4.76998 8.93203H4.82609L4.98738 11.2532L5.2258 14.0092H4.39131ZM10.0084 18.7006H12.1613V13.6445H12.8345C14.3773 13.6445 15.317 12.7399 15.317 11.127V7.83105C15.317 6.20412 14.3773 5.29248 12.8345 5.29248H10.0084V18.7006ZM12.6592 12.0386H12.1893V6.9124H12.6592C13.0238 6.9124 13.1641 7.23498 13.1641 7.83806V11.134C13.1641 11.716 13.0168 12.0386 12.6592 12.0386ZM17.7994 5.2995V18.7076H22V16.9334H19.9523V12.824H21.7826V11.0498H19.9523V7.0807H22V5.30651H17.7994V5.2995Z" fill="black"/>
</svg>
