<svg width="24" height="24" viewBox="0 0 24 24" fill="none" xmlns="http://www.w3.org/2000/svg">
<path fill-rule="evenodd" clip-rule="evenodd" d="M12 22C17.5229 22 22 17.5229 22 12C22 6.47714 17.5229 2 12 2C6.47714 2 2 6.47714 2 12C2 14.5169 2.92988 16.8167 4.46484 18.5745L9.81616 13.6125C9.8751 13.5137 9.92039 13.4068 9.95043 13.2948L10.0453 12.9409L7.14114 12.5093C6.80067 12.4587 6.80067 11.9676 7.14114 11.9171L9.73498 11.5315L6.73251 7.48067C6.52753 7.20412 6.87475 6.85694 7.15129 7.06188L11.2029 10.065L11.5887 7.46949C11.6393 7.12902 12.1304 7.12902 12.1809 7.46949L12.5665 10.0637L16.6164 7.06188C16.893 6.85694 17.2402 7.20412 17.0352 7.48067L14.0329 11.5313L16.6285 11.9171C16.969 11.9676 16.969 12.4587 16.6285 12.5093L14.0328 12.8951L17.0352 16.9458C17.2402 17.2224 16.893 17.5696 16.6164 17.3646L12.5665 14.3628L12.1809 16.9569C12.1304 17.2973 11.6393 17.2973 11.5887 16.9569L11.1569 14.0516L10.7453 14.1619C10.6901 14.1767 10.6373 14.1981 10.5878 14.2255L5.56793 19.6572C7.30667 21.1193 9.55047 22 12 22Z" fill="black"/>
</svg>
