<svg width="24" height="24" viewBox="0 0 24 24" fill="none" xmlns="http://www.w3.org/2000/svg">
<path d="M19.8109 8.09404L19.843 8.08052C19.9384 8.03969 20.0084 8.0174 20.0635 8.01039L20.1241 8.00012C20.2483 7.97457 20.3764 7.9618 20.5045 7.9618C21.2754 7.9618 21.9191 7.72162 22.3661 7.2673C22.6876 6.94021 22.89 6.51569 22.9608 6.0243L23 6.02481V3.19971H18.2922V5.24364C18.2808 5.39091 18.2817 5.52641 18.2827 5.64637C18.2837 5.77811 18.2845 5.90258 18.2686 5.997L18.2641 6.02706C18.211 6.42628 18.018 6.79695 17.721 7.07069C17.4168 7.3512 17.2745 7.41281 17.2276 7.42608C17.1804 7.43961 17.1119 7.43334 16.9137 7.40655C16.7428 7.3835 16.5087 7.35195 16.2231 7.35195C15.003 7.35195 13.9805 8.27311 13.8444 9.49557C13.814 9.77357 13.8312 9.98145 13.8436 10.133C13.8575 10.3015 13.8617 10.3524 13.8034 10.5202C13.6877 10.85 13.4413 11.1561 13.1098 11.3817C12.7783 11.6074 12.3966 11.7319 12.0355 11.7319L12.0003 11.7314L11.965 11.7319C11.6039 11.7319 11.2222 11.6077 10.8907 11.3817C10.559 11.1561 10.3126 10.85 10.1974 10.5209C10.1387 10.3524 10.1427 10.3013 10.1569 10.1325C10.1694 9.98094 10.1864 9.77332 10.1562 9.49456C10.0204 8.27286 8.99772 7.3517 7.77768 7.3517C7.49207 7.3517 7.25791 7.38326 7.08581 7.40655C6.88914 7.43309 6.82035 7.43936 6.77317 7.42583C6.72623 7.41231 6.58394 7.35095 6.27974 7.07019C5.98274 6.7967 5.79003 6.42603 5.73664 6.02681L5.73217 5.99675C5.72447 5.95092 5.72075 5.89808 5.71901 5.84072V3.19971H1.01018V5.59428C1.00472 6.26875 1.22052 6.84729 1.63374 7.26755C2.08048 7.72187 2.72415 7.9618 3.49497 7.9618C3.62311 7.9618 3.751 7.97482 3.87566 8.00037L3.936 8.01039C3.99088 8.01765 4.06091 8.03994 4.15701 8.08077L4.18855 8.09404C4.50765 8.22127 4.78728 8.43441 4.99711 8.71065C5.51364 9.38988 5.51513 10.3403 5.00109 11.0216C4.83272 11.2449 4.61369 11.4313 4.36809 11.5608L4.34599 11.5728C4.2787 11.6099 4.2186 11.6374 4.16347 11.6567C4.13889 11.6652 4.11678 11.6722 4.09617 11.6783L4.07283 11.6852C3.88708 11.7454 3.69264 11.7757 3.49521 11.7757C2.00275 11.7757 1 12.7013 1 14.0791C1 15.1545 1.48623 15.7126 1.89398 15.9913C2.39164 16.3314 2.99185 16.4278 3.56649 16.4809L3.60622 16.4855C3.75869 16.5055 3.88732 16.537 4.03509 16.5906L4.10635 16.6179L4.11853 16.6224C4.50542 16.7557 4.82949 17.0279 5.03139 17.3893C5.14537 17.5935 5.22434 17.8607 5.25364 18.1414C5.26506 18.2519 5.27276 18.3588 5.28021 18.4645C5.28592 18.5449 5.29238 18.6351 5.30107 18.7257V20.8H10.0089V18.0302L9.97565 18.0297C9.89812 17.497 9.64732 17.0091 9.25051 16.6302C9.21549 16.5972 9.18324 16.5691 9.1574 16.5468L9.14145 16.533C8.63487 16.0902 7.97608 16.0785 7.49485 16.0697H7.48958C7.40914 16.0682 7.3329 16.0667 7.2656 16.0635L7.19334 16.0521L7.03863 16.0173L6.89286 15.972L6.73567 15.9089C6.57102 15.8335 6.41731 15.7353 6.28098 15.6184L6.25043 15.5918C5.81487 15.1991 5.59881 14.715 5.58988 14.1122C5.59112 13.6814 5.7277 13.2731 5.98497 12.9313C6.23578 12.5982 6.59114 12.3502 6.98549 12.233C7.3848 12.1145 8.12957 12.1115 8.48865 12.2273C9.14295 12.4379 9.60739 13.0435 9.64384 13.7342C9.64683 13.7913 9.64462 13.8512 9.64213 13.9213C9.63465 14.1239 9.62447 14.4014 9.74044 14.7523C10.0685 15.7286 10.9759 16.387 12.001 16.391C13.0234 16.387 13.9305 15.7283 14.2593 14.7506C14.3748 14.4017 14.3646 14.1242 14.3571 13.9206C14.3546 13.8512 14.3524 13.7913 14.3554 13.7345C14.3919 13.0438 14.8563 12.4379 15.5106 12.2275C15.8698 12.1118 16.6143 12.1148 17.0136 12.2333C17.4082 12.3507 17.7637 12.5987 18.0143 12.9318C18.2715 13.2736 18.4082 13.6819 18.4094 14.1127C18.4005 14.7155 18.1844 15.1996 17.7486 15.5925L17.7208 15.6169C17.5822 15.7356 17.4282 15.834 17.2636 15.9094L17.1067 15.9725L16.9609 16.0178L16.8342 16.0474L16.7339 16.064C16.6669 16.0672 16.5904 16.0687 16.5099 16.0702H16.5047C16.0235 16.079 15.3646 16.0907 14.8593 16.5325L14.8419 16.5478C14.8161 16.5701 14.7841 16.5979 14.7482 16.6317C14.3661 16.9966 14.1193 17.4647 14.0331 17.9764H13.9909V20.8007H18.6987V18.7265C18.7074 18.6361 18.7138 18.5457 18.7195 18.4652C18.727 18.3613 18.7347 18.2539 18.7462 18.1427C18.7754 17.8614 18.8544 17.5942 18.9684 17.3901C19.1703 17.0289 19.4944 16.7567 19.8813 16.6231L19.9647 16.5914C20.1124 16.538 20.2411 16.5065 20.3938 16.4862L20.4333 16.4817C21.0079 16.4286 21.6081 16.3321 22.1058 15.9921C22.8448 15.4871 22.9998 14.6734 22.9998 14.0798C22.9998 12.7021 21.997 11.7764 20.5045 11.7764C20.3071 11.7764 20.1127 11.7459 19.9269 11.686L19.9036 11.679C19.883 11.673 19.8609 11.666 19.8378 11.658C19.7812 11.6384 19.7211 11.6106 19.6523 11.5728L19.6317 11.5615C19.3861 11.432 19.167 11.2457 18.9985 11.0223C18.4844 10.3411 18.4859 9.39063 19.0024 8.7114C19.2122 8.4354 19.4919 8.22202 19.8109 8.09504V8.09404Z" fill="black"/>
</svg>
