<svg width="24" height="24" viewBox="0 0 24 24" fill="none" xmlns="http://www.w3.org/2000/svg">
<path d="M18.4103 8.16527C18.3029 8.27458 18.1563 8.3361 18.0031 8.33643H3.57694C3.06704 8.33643 2.80883 7.71461 3.16523 7.34545L5.53141 4.89417C5.63909 4.78224 5.78767 4.71908 5.9428 4.71875H20.4227C20.9355 4.71875 21.1927 5.34712 20.8298 5.71464L18.4103 8.16527ZM18.4103 19.1142C18.3016 19.2212 18.1553 19.2808 18.0031 19.2808H3.57694C3.06704 19.2808 2.80883 18.6747 3.16523 18.3143L5.53141 15.9243C5.64039 15.8146 5.78865 15.7531 5.94312 15.7534H20.423C20.9358 15.7534 21.1931 16.3661 20.8301 16.7241L18.4103 19.1142ZM18.4103 10.4022C18.3016 10.2955 18.1553 10.2356 18.0031 10.2359H3.57694C3.06704 10.2359 2.80883 10.842 3.16523 11.2024L5.53141 13.5924C5.64039 13.7021 5.78832 13.7636 5.9428 13.7636H20.4227C20.9355 13.7636 21.1927 13.1509 20.8298 12.7929L18.4103 10.4022Z" fill="black"/>
</svg>
