<svg width="24" height="24" viewBox="0 0 24 24" fill="none" xmlns="http://www.w3.org/2000/svg">
<path fill-rule="evenodd" clip-rule="evenodd" d="M16.6383 10.3412L16.638 10.3421C17.4439 11.3652 17.9255 12.661 17.9255 14.0704C17.9255 15.5008 17.4295 16.8142 16.6019 17.8442L16.5306 17.9329L16.5117 17.8202C16.4956 17.7243 16.4768 17.6276 16.4548 17.53C16.0407 15.6874 14.6912 14.1074 12.4701 12.8282C10.9703 11.9666 10.1118 10.9293 9.88639 9.75061C9.74081 8.98844 9.84902 8.22289 10.0582 7.56717C10.2673 6.91168 10.5783 6.36248 10.8426 6.03183L11.7067 4.96194C11.8582 4.77436 12.1418 4.77436 12.2933 4.96194L16.6383 10.3412ZM18.0049 9.27256L12.2141 2.10267C12.1035 1.96578 11.8965 1.96578 11.7859 2.10267L5.9948 9.27222L5.97611 9.29628C4.91044 10.6352 4.27271 12.3367 4.27271 14.189C4.27271 18.5028 7.73224 22 12 22C16.2677 22 19.7272 18.5028 19.7272 14.189C19.7272 12.3368 19.0895 10.6352 18.0239 9.29628L18.0049 9.27256ZM7.38043 10.3182L7.89864 9.67656L7.9143 9.79494C7.9267 9.88872 7.94173 9.983 7.95957 10.0777C8.29472 11.8581 9.49197 13.3427 11.4937 14.4925C13.2336 15.4951 14.2467 16.6481 14.5386 17.9126C14.6603 18.4403 14.6821 18.9596 14.6293 19.4135L14.6261 19.4416L14.601 19.454C13.8156 19.8424 12.9328 20.0604 11.9998 20.0604C8.72722 20.0604 6.07413 17.3787 6.07413 14.0704C6.07413 12.6501 6.56321 11.3449 7.38043 10.3182Z" fill="black"/>
</svg>
