<svg width="24" height="24" viewBox="0 0 24 24" fill="none" xmlns="http://www.w3.org/2000/svg">
<g clip-path="url(#clip0_6496_36861)">
<path d="M18.1479 3.78516H5.85195C3.59186 3.78516 2.16585 6.22013 3.2959 8.19771L10.8833 21.3547C11.3811 22.2156 12.6188 22.2156 13.1165 21.3547L20.704 8.19771C21.834 6.22013 20.408 3.78516 18.1479 3.78516ZM10.8699 17.3995L9.21518 14.1977L5.23312 7.06767C5.04478 6.73135 5.16585 6.3143 5.48872 6.11251C5.59635 6.04525 5.71742 6.01834 5.8385 6.01834H10.8564L10.8699 17.3995ZM18.7533 7.06767L14.7712 14.1977L13.1165 17.3995V6.03179H18.1479C18.6995 6.01834 19.0224 6.61027 18.7533 7.06767Z" fill="black"/>
</g>
<defs>
<clipPath id="clip0_6496_36861">
<rect width="24" height="24" fill="white"/>
</clipPath>
</defs>
</svg>
