<svg width="36" height="36" viewBox="0 0 36 36" fill="none" xmlns="http://www.w3.org/2000/svg">
<g clip-path="url(#clip0_11066_229541)">
<path d="M36.001 18.001C36.001 8.05055 27.932 0.000976562 18.001 0.000976562C8.05055 0.000976562 0.000976562 8.05055 0.000976562 18.001C0.000976562 27.932 8.05055 36.001 18.001 36.001C27.932 36.001 36.001 27.932 36.001 18.001Z" fill="url(#paint0_radial_11066_229541)"/>
<path d="M30.2401 12.3754C30.1625 12.8215 30.085 13.0349 29.9686 13.2677C29.8522 13.5392 29.7358 13.8302 29.6194 14.4509C29.5806 14.6836 29.5419 14.8776 29.5225 15.0327V15.0521C29.4837 15.3043 29.4643 15.4789 29.3673 15.7698C29.2897 16.022 29.1539 16.4293 28.8242 16.856C28.5526 17.2052 28.1065 17.8065 27.5052 17.884C27.447 17.884 27.35 17.884 27.2919 17.8646C25.585 16.9918 24.1302 16.3517 23.6259 16.2159C23.044 16.0414 23.1216 14.7612 23.1798 13.6362C23.2186 13.1319 23.238 12.647 23.2186 12.2396C23.141 10.8043 22.8888 9.25258 21.6475 8.49611C20.9104 8.04999 19.9406 7.91421 19.0289 7.91421C19.2035 7.83663 19.3781 7.72025 19.5914 7.60387C20.1345 7.29352 20.794 6.90559 21.4729 6.82801C21.6863 6.80861 21.8996 6.78921 22.113 6.75042C23.4513 6.59525 24.6151 6.45947 25.8371 6.8862C26.3996 7.08016 27.5246 7.70085 27.8156 8.30214C28.0289 8.70947 28.3781 9.03921 29.0569 9.6793C29.4255 10.009 29.6582 10.203 29.8328 10.3582C30.085 10.5521 30.1238 10.6103 30.2013 10.7461C30.4341 11.2116 30.3565 11.6965 30.2401 12.3754Z" fill="white"/>
<path d="M24.0529 18.2527C24.1305 18.2721 24.1693 18.3691 24.1111 18.4466C23.9365 18.7182 23.7232 19.1061 23.471 19.5523C23.3546 19.7656 23.2383 19.979 23.1413 20.1341C22.8115 20.6966 22.7921 21.1816 22.7727 21.5501C22.7533 21.9574 22.734 22.132 22.4818 22.2872C22.2878 22.4229 22.0745 22.4617 20.6779 22.6751C20.4258 22.7139 20.3288 22.7527 20.2318 22.8109C20.2124 22.8303 20.1736 22.8303 20.1542 22.8497C20.0766 22.8885 19.999 22.8109 19.999 22.7333C20.0184 22.5393 20.0184 22.2872 20.0184 21.9574V21.8992C20.0184 21.6277 20.0184 21.3949 19.999 21.2204C19.9796 20.8712 19.9796 20.716 20.0766 20.5609C20.193 20.3669 20.29 20.3087 20.4258 20.2117C20.6391 20.076 20.9301 19.9014 21.3374 19.3195C21.5702 19.0091 21.609 18.8346 21.6477 18.6988C21.6671 18.6406 21.6671 18.6212 21.8417 18.4854C22.0163 18.3497 22.5788 17.9229 23.2965 18.0393C23.5292 18.0781 23.7814 18.1557 24.0529 18.2527Z" fill="white"/>
<path d="M18.4859 24.6922C18.4471 24.731 18.4277 24.7504 18.3695 24.7504C18.2143 24.7504 18.1174 24.7116 18.0592 24.634C17.9234 24.4595 17.9428 24.1103 17.9622 23.897L18.5635 23.7418C18.6023 24.0715 18.6217 24.5177 18.4859 24.6922Z" fill="white"/>
<path d="M18.5246 22.5588C18.5052 22.6364 18.5052 22.7334 18.5052 22.8498C18.5052 22.8886 18.5052 22.9274 18.5052 22.9661C18.5052 23.0631 18.5052 23.2183 18.5052 23.2959C18.3113 23.3541 18.1561 23.3541 17.9621 23.3541C17.9621 23.2959 17.9621 23.1989 17.9621 23.1407C17.9621 23.1019 17.9621 23.0437 17.9621 23.0049C17.9621 22.9467 17.9621 22.908 17.9621 22.8498C17.9621 22.7334 17.9621 22.5588 17.9815 22.5006C18.0397 22.5006 18.0979 22.4812 18.1561 22.4618C18.2725 22.4424 18.447 22.4036 18.544 22.423C18.544 22.4618 18.544 22.52 18.5246 22.5588Z" fill="white"/>
<path d="M17.4383 24.5176C17.4189 24.8279 17.3219 25.1965 17.0309 25.2547C16.8952 25.274 16.837 25.2353 16.7982 25.1965C16.6042 25.0219 16.5848 24.4788 16.6042 24.0909C16.74 24.0909 16.8952 24.0715 17.0891 24.0327C17.2055 24.0133 17.3219 23.9745 17.4189 23.9551C17.4383 24.1103 17.4577 24.3042 17.4383 24.5176Z" fill="white"/>
<path d="M17.3027 23.4316L16.6627 23.6643C16.7014 23.4122 16.7402 23.063 16.7596 22.8303C16.779 22.6751 16.8178 22.6169 16.8372 22.5975C16.8372 22.5975 16.8566 22.5781 16.876 22.5781C16.876 22.5781 16.876 22.5781 16.8954 22.5781H16.9148L17.3221 22.5587C17.3027 22.7527 17.3027 23.1794 17.3027 23.4316Z" fill="white"/>
<path d="M16.2551 23.2378C16.2164 23.3347 16.1776 23.6063 16.1582 23.8003L15.3629 23.7809C15.4017 23.5287 15.4793 23.2765 15.5375 23.0826C15.6151 22.8886 15.6732 22.7334 15.7508 22.6946C15.8284 22.6559 16.003 22.6365 16.1194 22.7334C16.2939 22.8498 16.3327 23.0244 16.2551 23.2378Z" fill="white"/>
<path d="M15.9641 25.7011C15.9059 25.7787 15.8283 25.8369 15.7507 25.8369C15.6538 25.8562 15.5956 25.8175 15.5374 25.7787C15.2852 25.5459 15.3046 24.7894 15.324 24.4209C15.6538 24.3433 16.0223 24.2851 16.1969 24.2657C16.1969 24.5567 16.2163 25.3519 15.9641 25.7011Z" fill="white"/>
<path d="M14.917 23.7419C14.8782 23.8389 14.8394 23.9358 14.82 24.0328C14.723 24.0716 14.432 24.0328 14.1411 23.9746L14.3351 22.7139C14.6648 22.6169 15.0527 22.5975 15.1303 22.6945C15.2661 22.8302 15.0139 23.4703 14.917 23.7419Z" fill="white"/>
<path d="M14.5483 25.8755C14.3931 26.0695 14.1604 26.1665 13.8306 26.1471C13.5979 26.1471 13.5203 26.0501 13.4815 25.9919C13.3069 25.701 13.4815 25.0221 13.6561 24.5954L14.7423 24.6535C14.7617 24.7311 14.7617 24.8281 14.7617 24.9251C14.7811 25.2548 14.7423 25.6428 14.5483 25.8755Z" fill="white"/>
<path d="M23.5483 16.7011C22.5591 16.4295 22.6561 14.9942 22.7337 13.5976C22.7531 13.1127 22.7919 12.6472 22.7725 12.2593C22.6949 10.9597 22.4815 9.54375 21.4341 8.90367C20.3091 8.22479 18.4664 8.37996 17.3414 8.51573C16.9341 8.63211 16.5462 8.7291 16.2358 8.7097C15.5763 8.67091 15.0526 8.39936 14.5871 8.1472C14.238 7.95323 13.9276 7.77867 13.6173 7.77867C13.5979 7.77867 13.5785 7.77867 13.5785 7.77867C12.7056 7.83685 12.2983 8.05022 11.9298 8.37996C11.8328 8.45755 11.7164 8.6903 11.3479 9.75711C11.1539 10.3002 11.1345 10.5912 11.0957 10.8627C11.0569 11.1149 11.0375 11.3864 10.9018 11.7938C10.8048 12.0653 10.7272 12.2981 10.669 12.5308C10.4944 13.1321 10.3393 13.617 9.91255 14.1989C9.85436 14.2571 9.79617 14.3735 9.71858 14.4705C9.6216 14.6256 9.50522 14.8196 9.33065 15.033C9.21427 15.1881 8.96212 15.77 8.98151 15.9446C9.00091 16.2356 9.09789 16.4101 9.19487 16.6041C9.29186 16.7981 9.42763 17.0308 9.44703 17.3606V17.4188C9.48582 17.9231 9.40824 18.1752 8.45781 19.0287C7.85651 19.5718 7.41039 20.0955 7.11944 20.4834C7.10005 20.5222 7.11944 20.561 7.17763 20.561C7.19703 20.561 7.19703 20.561 7.19703 20.561C7.21643 20.561 7.23582 20.561 7.25522 20.561C7.27462 20.561 7.29401 20.561 7.31341 20.561C7.33281 20.561 7.3522 20.561 7.3716 20.561C7.60436 20.5804 7.83712 20.6774 7.99229 20.8519C8.01168 20.8907 8.06987 20.8907 8.10867 20.8713C8.26384 20.8131 8.43841 20.8131 8.59358 20.8325C8.78755 20.8519 9.00091 20.9101 9.13668 21.0459C9.17548 21.0847 9.23367 21.1041 9.29186 21.0847C9.44703 21.0459 9.6216 21.0459 9.77677 21.1041C9.89315 21.1429 10.0095 21.2205 10.0871 21.3175C10.1453 21.3756 10.2423 21.395 10.3199 21.3562C10.3587 21.3369 10.4169 21.2981 10.475 21.2787C10.6884 21.2011 10.9212 21.2399 11.1151 21.3175C11.2121 21.3563 11.3091 21.3756 11.4061 21.4532C11.5613 21.5696 11.6776 21.7248 11.7358 21.8994C11.7746 21.9963 11.9104 22.0351 11.988 21.9575C12.1432 21.8412 12.2595 21.8218 12.3759 21.8606C12.4341 21.88 12.4729 21.9188 12.5117 21.9769C12.5699 22.0545 12.6669 22.1321 12.7444 22.0933C13.0742 21.9963 13.4621 22.0545 13.7531 22.2097C13.85 22.2679 13.9664 22.3455 14.0246 22.4619V22.4037C14.0246 22.3843 14.044 22.3649 14.0634 22.3455L14.1216 22.3261C14.2768 22.2679 15.0914 22.0351 15.4018 22.3649C15.4212 22.3843 15.4406 22.3843 15.46 22.3649C15.4988 22.3261 15.5375 22.2873 15.5569 22.2873C15.7703 22.1709 16.1194 22.1515 16.3522 22.3649C16.391 22.4037 16.4686 22.3843 16.5074 22.3455C16.5268 22.3067 16.5462 22.2873 16.585 22.2679C16.6625 22.1903 16.7789 22.1709 16.8953 22.1709L17.3414 22.1515C17.4578 22.1515 17.8069 22.1127 17.9039 22.0933H17.9233C17.9621 22.0933 18.0203 22.0739 18.0785 22.0545C18.2919 22.0157 18.544 21.9575 18.738 22.0545C18.9319 22.1515 18.9125 22.3649 18.8931 22.5588C18.8931 22.6364 18.8738 22.714 18.8738 22.7916C18.8738 22.8304 18.8738 22.8692 18.8738 22.908C18.8738 23.0825 18.8738 23.2377 18.8544 23.3541L18.8738 23.4511C18.8738 23.4511 18.8738 23.4511 18.8738 23.4705C18.8931 23.5481 18.9901 23.6063 19.0483 23.5481C19.2035 23.4511 19.3587 23.3347 19.4169 23.2571V23.2377C19.4169 23.2183 19.4363 23.1795 19.4556 23.1019C19.475 22.9274 19.5138 22.5976 19.5138 21.9188C19.5138 21.88 19.5138 21.8606 19.5138 21.8412C19.5138 21.589 19.5138 21.3756 19.4944 21.2011C19.475 20.8325 19.4557 20.5416 19.6496 20.2506C19.8242 19.9597 19.9988 19.8627 20.1733 19.7463C20.3673 19.63 20.5807 19.4942 20.9492 18.9899C21.1238 18.7377 21.1431 18.6407 21.1625 18.5631C21.2013 18.3692 21.2595 18.2528 21.5505 18.0588C21.7832 17.8843 22.4621 17.3606 23.3931 17.5157C23.7035 17.5739 24.1884 17.7291 24.6927 17.9231C24.7121 17.9231 24.7315 17.9425 24.7509 17.9425H24.7703C25.2164 18.117 25.6238 18.311 25.9147 18.4662C25.9729 18.505 26.0505 18.4856 26.1087 18.4274C26.2057 18.311 26.3026 18.2528 26.3996 18.1752C26.4384 18.1558 26.4772 18.1364 26.4966 18.117C26.516 18.117 26.516 18.0976 26.516 18.0976C26.5936 18.0394 26.5936 17.8843 26.4966 17.8455C25.197 17.2054 23.9557 16.8175 23.5483 16.7011ZM14.1992 16.992C13.8888 18.311 11.8328 19.7851 10.9018 19.7851H10.8824C10.863 19.7851 10.8436 19.7851 10.8436 19.7851C10.8242 19.7851 10.8048 19.7851 10.7854 19.7657C10.766 19.7657 10.766 19.7657 10.7466 19.7657C10.572 19.7075 10.3393 19.5912 10.1647 19.4166C10.0483 19.3002 9.95134 19.145 9.91255 19.0093C9.91255 18.9899 9.89315 18.9511 9.89315 18.9317C9.83496 18.6989 9.77677 18.4274 9.97074 17.9619C9.99013 17.9037 10.0289 17.8455 10.0483 17.7873C10.0483 17.7679 10.0677 17.7485 10.0677 17.7291C10.0871 17.6709 10.1065 17.6321 10.1259 17.5933C10.1453 17.5157 10.1841 17.4575 10.2035 17.4188C10.2035 17.3994 10.2229 17.38 10.2229 17.3606C10.2811 17.2054 10.2811 17.1472 10.3005 17.089C10.3005 17.0502 10.3199 16.9726 10.3393 16.895C10.3975 16.6429 10.4363 16.4295 10.4557 16.255C10.4944 15.9252 10.5526 15.6343 10.7272 15.3627C10.766 15.3239 10.7854 15.2851 10.8242 15.2463C10.8436 15.2269 10.8436 15.2269 10.863 15.2075C10.8824 15.1881 10.8824 15.1881 10.9018 15.1688C10.9406 15.13 10.9988 15.1106 11.0375 15.0912C11.0569 15.0912 11.0763 15.0718 11.0957 15.0718C11.1345 15.0524 11.1733 15.0524 11.2121 15.033C11.3867 14.9942 11.5807 14.9942 11.8134 15.0136C12.0656 15.033 12.2983 15.0718 12.4923 15.13C12.6669 15.1688 12.822 15.2269 12.9384 15.2851C12.9578 15.2851 12.9578 15.3045 12.9772 15.3045C12.9966 15.3239 13.016 15.3239 13.0548 15.3433C13.0936 15.3627 13.113 15.3627 13.1518 15.3821C13.1906 15.4015 13.2294 15.4209 13.2682 15.4403L13.3069 15.4597C13.4427 15.5179 13.5785 15.5955 13.6755 15.6731C13.7337 15.7119 13.7725 15.7506 13.8113 15.7894C13.8306 15.8088 13.85 15.8088 13.85 15.8282C13.8694 15.8476 13.8694 15.8476 13.8888 15.867C14.2962 16.2162 14.2768 16.7011 14.1992 16.992ZM15.169 11.9683L15.1302 12.2011C15.0332 12.7442 14.8199 13.4813 14.044 13.6752C13.2875 13.8498 13.113 13.8886 12.5893 13.9274C12.5699 13.9274 12.5699 13.9274 12.5505 13.9274C12.1625 13.9274 11.4061 13.6752 11.2703 13.0739C11.1927 12.686 11.3673 12.395 11.6388 11.9295C11.6776 11.8519 11.7358 11.7744 11.794 11.6774C12.1819 11.0373 12.3177 10.5718 12.4341 10.2032C12.5505 9.8347 12.6475 9.54375 12.8996 9.2916C12.9578 9.23341 13.016 9.17522 13.0936 9.13642C13.1324 9.09763 13.1906 9.07823 13.2488 9.03944C13.3263 9.00065 13.4039 8.98125 13.4815 8.94246C13.6561 8.88427 13.85 8.86487 14.0246 8.86487C14.3932 8.86487 14.7617 8.96186 15.0138 9.17522C15.1302 9.2722 15.3048 9.44677 15.4018 10.0093C15.4406 10.3002 15.363 10.8239 15.169 11.9683ZM20.7358 13.52C20.4643 13.9856 20.3285 14.2377 20.0957 14.4317C19.6302 14.8196 19.1065 14.8972 18.6604 14.8972C18.35 14.8972 18.0785 14.839 17.9039 14.8196C17.4384 14.742 16.6044 14.5869 16.3134 13.908C16.2552 13.7722 16.2552 13.6946 16.2552 13.5782C16.2552 13.4813 16.2552 13.2873 16.197 12.88V12.8606C16.1776 12.6666 16.1582 12.4532 16.197 12.1817V12.1429C16.3522 11.3282 16.4104 11.2119 16.4298 11.1343C16.5074 10.9791 16.7013 10.9015 16.8759 10.9985C17.0311 11.0761 17.0893 11.27 17.0311 11.4252C17.0117 11.464 16.9729 11.6386 16.8371 12.2787V12.3175C16.7983 12.492 16.8177 12.6278 16.8371 12.8024V12.8218C16.8953 13.2873 16.8953 13.4813 16.8953 13.5976C16.8953 13.617 16.8953 13.6364 16.8953 13.6558V13.6752C16.9535 13.811 17.0699 13.8886 17.2056 13.9662C17.3026 14.005 17.3996 13.9274 17.3802 13.8304C17.2444 13.1127 17.2444 12.2787 17.516 11.755C17.613 11.5804 17.7681 11.3088 17.9233 11.0373C17.9427 11.0179 17.9621 10.9791 17.9621 10.9597C17.9815 10.9403 17.9815 10.9209 18.0009 10.9015C18.0785 10.7851 18.1367 10.6881 18.1949 10.5912C18.1949 10.5718 18.2143 10.5718 18.2143 10.5524L18.2337 10.533C18.2531 10.5136 18.2531 10.4942 18.2725 10.4748C18.2725 10.4748 18.2725 10.4554 18.2919 10.4554L18.3113 10.436C18.3113 10.4166 18.3306 10.4166 18.3306 10.3972C18.3888 10.3196 18.447 10.242 18.4858 10.1644C18.5634 10.0675 18.4664 9.95108 18.3694 9.98987C18.0979 10.1063 17.9233 10.242 17.8845 10.2614C17.7488 10.3778 17.5354 10.3584 17.419 10.2032C17.3026 10.0675 17.322 9.8541 17.4772 9.73772C17.6518 9.60194 18.544 8.96186 19.6108 9.2528C20.3867 9.46617 20.7746 10.0675 20.9298 10.2808C21.0462 10.4554 21.4341 10.9985 21.4147 11.7744C21.4147 12.3369 21.1819 12.7636 20.7358 13.52Z" fill="white"/>
<path d="M13.792 9.54368C13.7338 9.67945 13.6756 9.83462 13.598 10.0092C13.4428 10.4165 13.2489 10.882 13.1519 11.0566C12.9967 11.3476 12.8803 11.5415 12.7834 11.6773C12.667 11.8519 12.5894 11.9876 12.5118 12.1816C12.3954 12.5113 12.376 12.8799 12.4536 13.2872C12.2403 13.2678 11.9105 13.132 11.8717 12.9381C11.8523 12.8023 11.9299 12.6665 12.1627 12.2592C12.2015 12.1816 12.2597 12.0846 12.3178 12.007C12.7252 11.3088 12.8997 10.7851 13.0161 10.3971C13.1519 9.9898 13.2101 9.81523 13.4234 9.66005C13.5592 9.60186 13.6756 9.56307 13.792 9.54368Z" fill="white"/>
<path d="M13.3845 24.2074C13.1517 24.6729 12.8802 25.0996 12.7056 25.313C12.5504 24.9251 12.2983 24.0134 12.3758 23.2958C12.3758 23.2764 12.3758 23.257 12.3758 23.2376C12.3952 23.0048 12.4534 22.8108 12.5698 22.6363C12.6474 22.5199 12.8414 22.4617 13.0547 22.4617C13.2099 22.4617 13.3845 22.5005 13.5396 22.5781C13.6172 22.6169 13.7336 22.7139 13.7336 22.966C13.7724 23.3151 13.5978 23.7807 13.3845 24.2074Z" fill="white"/>
<path d="M25.7982 19.0286C25.8176 19.048 25.8176 19.0674 25.8176 19.0868C25.7595 19.2226 25.6625 19.3196 25.5655 19.4359C25.4491 19.5717 25.3133 19.7269 25.197 19.979C25.0224 20.3282 24.9642 20.6385 24.9448 21.4532C24.906 22.4036 24.9448 22.9273 24.9836 23.3153C25.003 23.6838 25.0224 23.9165 24.9642 24.2851C24.8284 25.0222 24.5181 25.5071 24.1107 26.1278C23.6064 26.9036 23.1021 27.6989 22.2487 27.951C22.1711 27.9704 22.1711 27.9704 21.9383 27.9704C21.7444 27.9704 21.4146 27.9704 20.8133 27.9898C19.6883 28.0286 19.1258 28.048 18.6603 28.145C18.156 28.242 17.9039 28.3584 17.6323 28.4553C17.3995 28.5523 17.1862 28.6299 16.7789 28.7269C16.5267 28.7851 16.1582 28.8239 14.8974 28.8433C13.5784 28.8433 12.7832 28.8433 11.7551 28.7269C10.3198 28.5717 9.60213 28.4747 9.11721 28.2226C7.99221 27.6213 7.5073 26.5351 6.73144 24.7506C6.73144 24.7312 6.75083 24.7118 6.77023 24.7118C6.80902 24.7312 6.84782 24.7506 6.88661 24.77C6.9254 24.7894 6.9642 24.7894 6.98359 24.7894C7.06118 24.8088 7.13876 24.8088 7.21635 24.7894C7.23575 24.7894 7.23575 24.7894 7.25514 24.77C7.27454 24.77 7.29394 24.77 7.29394 24.7894C7.35213 24.9252 7.42971 25.0415 7.56549 25.1191C7.70126 25.1967 7.85644 25.1967 7.99221 25.1967C8.14739 25.1967 8.30256 25.1773 8.45773 25.1579C8.53532 25.1579 8.6129 25.1967 8.65169 25.2549C8.78747 25.604 8.96204 25.8368 9.23359 25.8756C9.25299 25.8756 9.27239 25.8756 9.29178 25.8756C9.34997 25.8756 9.44695 25.8562 9.56333 25.7786C9.66032 25.701 9.81549 25.7592 9.89307 25.8562C9.95126 25.9532 10.0289 26.0114 10.1064 26.0696C10.378 26.3411 11.0375 26.4769 11.5806 26.4769C11.8715 26.4769 12.1431 26.4381 12.2982 26.3605C12.531 26.2441 12.531 26.089 12.5116 26.0114C12.4922 25.895 12.4728 25.7592 12.4534 25.6428C12.4534 25.6234 12.4728 25.6234 12.4728 25.6428C12.5116 25.7204 12.5504 25.798 12.6474 25.8174C12.6668 25.8174 12.6668 25.8174 12.6862 25.8174C12.8414 25.8174 13.0741 25.8756 13.1129 26.0114C13.1323 26.089 13.1711 26.1472 13.2099 26.2247C13.3069 26.3605 13.4814 26.5351 13.85 26.5545H13.8694C14.2961 26.5545 14.6258 26.4187 14.8392 26.1472C14.8586 26.1278 14.8586 26.1084 14.878 26.089C14.9556 25.9726 15.1883 25.9726 15.2853 26.0696C15.4017 26.1665 15.5375 26.2247 15.6926 26.2247C15.712 26.2247 15.7508 26.2247 15.7702 26.2247C15.9642 26.2053 16.1194 26.1084 16.2551 25.9338C16.3327 25.8174 16.3909 25.6816 16.4297 25.5265C16.4491 25.4877 16.5073 25.4683 16.5461 25.5071C16.6237 25.5847 16.7595 25.6622 16.9534 25.6622C16.9922 25.6622 17.0504 25.6622 17.1086 25.6428C17.4771 25.5653 17.6711 25.2549 17.7487 24.9252C17.7487 24.9058 17.7681 24.9058 17.7681 24.9252C17.8651 25.0415 18.0396 25.1773 18.3306 25.1773C18.35 25.1773 18.3694 25.1773 18.3694 25.1773C18.5245 25.1773 18.6603 25.0997 18.7573 24.9834C18.8737 24.8282 18.9125 24.5954 18.9319 24.3821C18.9319 24.3239 18.9707 24.2657 19.0482 24.2269C19.3586 24.0911 19.7465 23.8002 19.8629 23.6062C19.8629 23.6062 19.8629 23.5868 19.8823 23.5868C19.9017 23.5286 19.9599 23.4898 19.9987 23.4898C20.2508 23.451 20.3478 23.3928 20.4448 23.354C20.5224 23.3153 20.5806 23.2959 20.7745 23.2571C22.1905 23.0437 22.462 22.9855 22.7724 22.7915C23.2379 22.4812 23.2573 22.0545 23.2767 21.6471C23.2961 21.298 23.3155 20.9101 23.587 20.4446C23.684 20.27 23.8004 20.076 23.9168 19.8433C24.1301 19.4553 24.4211 18.9122 24.6345 18.6213C24.6732 18.5631 24.7508 18.5437 24.809 18.5825C25.2939 18.7571 25.7207 18.951 25.7982 19.0286Z" fill="white"/>
<path d="M12.0268 23.257C11.9687 23.742 11.9299 24.4014 12.0075 25.2549C12.0268 25.4876 12.0656 25.7398 12.1044 25.992C12.0462 26.0307 11.8329 26.0889 11.4837 26.0695C10.9794 26.0501 10.4751 25.9338 10.32 25.7592L10.3006 25.7398C10.1842 25.6428 10.0872 25.5652 10.0872 25.3907C10.0872 25.3325 10.1066 25.2743 10.1648 25.1773C10.2036 25.1385 10.2424 25.0803 10.2812 25.0027C10.3587 24.8863 10.4751 24.7506 10.5915 24.5566C10.9212 24.0135 11.0376 23.8389 11.1928 23.6256C11.2122 23.6062 11.2122 23.5868 11.2316 23.5674C11.3286 23.451 11.4256 23.2958 11.6001 23.0437C11.7165 22.8691 11.8135 22.7139 11.9105 22.5976C12.0462 22.4036 12.1432 22.3066 12.2014 22.2484C12.2014 22.326 12.182 22.4424 12.1626 22.5588C12.085 22.7915 12.0462 23.0049 12.0268 23.257Z" fill="white"/>
<path d="M11.7745 15.6147C11.7745 15.6341 11.7745 15.6341 11.7745 15.6147C11.6969 15.7117 11.6193 15.8281 11.5223 16.022C11.2702 16.5651 11.2702 16.8755 11.2702 17.1277C11.2702 17.2634 11.2702 17.3604 11.2314 17.4768C11.212 17.5544 11.1732 17.6514 11.115 17.7483C10.9792 18.0781 10.7853 18.5048 10.8629 19.0867C10.7465 19.0285 10.5719 18.8927 10.5331 18.8345C10.5331 18.7958 10.5137 18.7764 10.5137 18.7376C10.4749 18.563 10.4555 18.4466 10.5525 18.1751C10.8629 17.4768 10.9017 17.3022 10.9211 17.1083C10.9211 17.0695 10.9404 17.0307 10.9404 16.9725C10.9986 16.7009 11.0374 16.4682 11.0568 16.2742C11.0956 15.9833 11.1344 15.7893 11.2314 15.6535C11.2702 15.5953 11.3672 15.5759 11.5029 15.5759C11.5611 15.5759 11.6193 15.5759 11.6969 15.5953H11.7163C11.7745 15.6147 11.7745 15.6147 11.7745 15.6147Z" fill="white"/>
<path d="M11.3867 22.5394C11.3673 22.3649 11.3479 22.2097 11.2703 22.0351C11.2703 22.0351 11.2509 21.9963 11.2509 21.9769C11.2315 21.9575 11.2315 21.9381 11.2121 21.9188L11.1927 21.8994C11.1733 21.88 11.1733 21.88 11.1539 21.88L11.1345 21.8606C11.1151 21.8606 11.1151 21.8412 11.0957 21.8412H11.0763C10.9794 21.8024 10.8824 21.7636 10.766 21.7442C10.7466 21.7442 10.7272 21.7442 10.7272 21.7442C10.7078 21.7442 10.7078 21.7442 10.6884 21.7442H10.669C10.6496 21.7442 10.6302 21.7636 10.5914 21.7636C10.572 21.7636 10.572 21.783 10.5526 21.783L10.5332 21.8024C10.5138 21.8218 10.5138 21.8218 10.4944 21.8412L10.475 21.8606V21.88C10.4363 21.9381 10.3975 21.9963 10.3587 22.0545C10.2617 22.1903 10.1647 22.3455 10.0677 22.4813C9.97074 22.617 9.89315 22.7334 9.79617 22.8692C9.73798 22.9468 9.69919 23.005 9.641 23.0825C9.641 23.1019 9.6216 23.1019 9.6216 23.1213C9.67979 23.1407 9.73798 23.1407 9.79617 23.1601C9.93194 23.1795 10.0677 23.1989 10.1841 23.2183C10.4557 23.2571 10.7466 23.2765 11.0182 23.2571C11.0375 23.2571 11.0375 23.2571 11.0569 23.2571C11.1151 23.1601 11.2121 23.0438 11.3091 22.8886C11.3673 22.811 11.4255 22.7334 11.4643 22.6558C11.4061 22.6364 11.3867 22.5782 11.3867 22.5394Z" fill="white"/>
<path d="M10.3973 23.6837C10.3779 23.897 10.1452 24.4401 9.77665 24.9639C9.4663 25.3906 9.27233 25.507 9.23354 25.507C9.07837 25.4876 8.94259 25.119 8.82621 24.7505C8.78742 24.5953 8.72923 24.4595 8.70983 24.3238C8.63225 24.0522 8.61285 23.6643 8.63225 23.4315C8.94259 23.6061 9.4857 23.6449 10.2616 23.6449C10.3004 23.6643 10.3585 23.6643 10.3973 23.6837Z" fill="white"/>
<path d="M9.85428 21.9378C9.71851 22.1512 9.58273 22.3452 9.44695 22.5391C9.36937 22.6361 9.31118 22.7331 9.23359 22.8301C9.1948 22.8883 9.13661 22.9465 9.09782 23.0047C8.98144 22.9853 8.88445 22.9465 8.76807 22.9271C8.67109 22.9077 8.59351 22.8689 8.49652 22.8301C8.47713 22.8301 8.45773 22.8107 8.43833 22.8107C8.41894 22.7913 8.39954 22.7525 8.38014 22.7331C8.41894 22.6749 8.43833 22.5973 8.47713 22.5391C8.53532 22.4228 8.59351 22.3064 8.67109 22.19C8.78747 21.996 8.92325 21.7827 9.13661 21.6469C9.15601 21.6469 9.15601 21.6275 9.1754 21.6275C9.25299 21.5887 9.33057 21.5499 9.42756 21.5305C9.44695 21.5305 9.50514 21.5305 9.54394 21.5305H9.56333C9.56333 21.5305 9.56333 21.5305 9.58273 21.5305C9.60213 21.5305 9.62152 21.5499 9.66032 21.5499C9.66032 21.5499 9.67971 21.5499 9.67971 21.5693C9.69911 21.5887 9.71851 21.5887 9.7379 21.6081C9.69911 21.5887 9.7767 21.6663 9.7767 21.6469C9.81549 21.7633 9.83488 21.8215 9.85428 21.9378Z" fill="white"/>
<path d="M8.8071 21.3757C8.55494 21.5696 8.38037 21.8412 8.24459 22.1321C8.16701 22.2873 8.08942 22.4425 8.01184 22.5976C8.01184 22.617 7.99244 22.6364 7.99244 22.6364C7.91485 22.617 7.83727 22.5976 7.77908 22.5782C7.70149 22.5588 7.62391 22.5201 7.54632 22.5007C7.50753 22.4813 7.48813 22.4619 7.44934 22.4425C7.52692 22.3067 7.60451 22.1709 7.70149 22.0351C7.81787 21.8606 7.95365 21.6666 8.08942 21.5114C8.14761 21.4532 8.2058 21.3757 8.26399 21.3369C8.34158 21.2981 8.41916 21.2981 8.51615 21.3175C8.61313 21.3175 8.71011 21.3175 8.7877 21.3563C8.7683 21.3563 8.7877 21.3757 8.8071 21.3757Z" fill="white"/>
<path d="M8.41881 24.6729C8.39941 24.6923 8.39941 24.6923 8.38002 24.7117H8.36062C8.30243 24.7117 8.24424 24.7311 8.18605 24.7311C8.06967 24.7311 7.95329 24.7505 7.83691 24.7311C7.77872 24.7311 7.72053 24.7117 7.68174 24.6729C7.64295 24.6147 7.62355 24.4983 7.60415 24.4208C7.52657 23.994 7.52657 23.5673 7.56536 23.1406C7.77872 23.2182 8.01148 23.2764 8.24424 23.3151C8.18605 23.7031 8.28303 24.2656 8.32183 24.4208C8.38002 24.4983 8.39941 24.5953 8.41881 24.6729Z" fill="white"/>
<path d="M7.72066 21.2399C7.5267 21.4726 7.35213 21.7248 7.19695 21.9963C7.13876 22.0933 7.06118 22.2097 7.00299 22.3261C6.9254 22.3067 6.84782 22.2679 6.78963 22.2291C6.73144 22.1903 6.67325 22.1515 6.63445 22.1127C6.61506 22.0933 6.57626 22.0739 6.55687 22.0545C6.55687 22.0545 6.53747 22.0545 6.53747 22.0351C6.55687 21.9769 6.59566 21.9381 6.59566 21.8993C6.63445 21.8024 6.67325 21.7248 6.73144 21.6472C6.82842 21.492 6.9254 21.3368 7.04178 21.1817C7.08057 21.1235 7.11937 21.0653 7.19695 21.0459C7.25514 21.0265 7.33273 21.0459 7.39092 21.0459C7.5073 21.0653 7.62368 21.1429 7.72066 21.2399Z" fill="white"/>
<path d="M6.22727 22.2679C6.24667 22.2485 6.22727 22.2485 6.22727 22.2679C6.30486 22.3455 6.36305 22.4037 6.44063 22.4619C6.47943 22.4812 6.49882 22.52 6.53761 22.5394C6.53761 22.5394 6.53761 22.5394 6.53761 22.5588C6.46003 22.8886 6.40184 23.2377 6.40184 23.5869C6.40184 23.6062 6.38244 23.6062 6.38244 23.5869C6.28546 23.1795 6.16908 22.52 6.22727 22.2679Z" fill="white"/>
<path d="M7.17768 22.9855C7.13888 23.2764 7.11949 23.5674 7.13888 23.8583C7.13888 24.0135 7.15828 24.1687 7.17768 24.3432C7.13888 24.3432 7.10009 24.3432 7.0613 24.3432H7.02251C6.98371 24.3238 6.98371 24.3238 6.94492 24.3045C6.90613 24.2851 6.86733 24.2269 6.82854 24.1687C6.75095 24.0329 6.73156 23.8777 6.73156 23.7226C6.71216 23.4316 6.75095 23.1213 6.80914 22.8303C6.84794 22.8497 6.90613 22.8691 6.96432 22.8885C7.0419 22.9273 7.10009 22.9661 7.17768 22.9855Z" fill="white"/>
<mask id="mask0_11066_229541" style="mask-type:luminance" maskUnits="userSpaceOnUse" x="0" y="0" width="37" height="37">
<path d="M36.001 18.001C36.001 8.05055 27.932 0.000976562 18.001 0.000976562C8.05055 0.000976562 0.000976562 8.05055 0.000976562 18.001C0.000976562 27.932 8.05055 36.001 18.001 36.001C27.932 36.001 36.001 27.932 36.001 18.001Z" fill="white"/>
</mask>
<g mask="url(#mask0_11066_229541)">
<g opacity="0.8">
<path opacity="0.8" d="M14.8201 38.1145C13.5012 38.1145 12.2598 38.0369 11.2124 37.9593L10.9214 37.9399L10.6305 37.9011C10.4947 37.8817 10.3395 37.8623 10.165 37.8429C9.15635 37.7265 7.27488 37.5326 5.19945 36.5627L4.86971 36.4076L4.57876 36.233C0.583072 33.983 -0.891067 30.6274 -1.70572 28.8235C-1.76391 28.7071 -1.8221 28.5714 -1.88029 28.4356C-2.28762 27.6015 -2.53977 26.8645 -2.75314 26.1662L-2.79193 26.011L-2.83072 25.8558C-3.41262 23.7998 -3.54839 22.0347 -3.29624 20.2696C-3.02469 18.5045 -2.3846 16.914 -1.2402 15.2265L-0.658308 14.2761C-0.541928 14.0821 -0.464342 13.8688 -0.406153 13.6554C0.039968 11.4442 1.04859 9.87308 1.5529 9.11661C1.68867 8.20498 1.92143 7.31273 2.23178 6.43989L2.27057 6.30411L2.32876 6.16834C2.32876 6.14894 2.34816 6.11015 2.36755 6.05196C2.60031 5.37308 3.12402 3.80196 4.46238 2.13386L4.96669 1.55196L5.4904 1.08644C6.80936 -0.116144 8.39988 -1.00839 10.1068 -1.5127C11.0572 -1.80364 12.0464 -1.97821 13.0551 -2.0364H13.152H13.2878C13.4624 -2.0364 13.6369 -2.0558 13.7921 -2.0558C14.4128 -2.0558 15.0335 -1.99761 15.6542 -1.90063C16.0421 -1.84244 16.4301 -1.88123 16.7986 -2.0364C17.8654 -2.48252 18.971 -2.77347 20.1154 -2.92864C20.2124 -2.94804 20.29 -2.94804 20.3676 -2.96744C20.5421 -2.98683 20.8331 -3.02563 21.1822 -3.06442C21.7835 -3.12261 22.7145 -3.2002 23.7038 -3.2002C25.6628 -3.2002 27.3503 -2.94804 28.8632 -2.42433L28.999 -2.38554L29.1154 -2.34675C32.4516 -1.08597 34.1391 0.679114 35.3611 2.21144L35.4193 2.28903L35.5938 2.4442C36.6994 3.29765 37.6305 4.36446 38.3676 5.54765L38.6003 5.91618L38.7943 6.30411C40.4236 9.62092 39.8999 12.705 39.7059 13.8494L39.6865 13.9076C39.5507 14.761 39.318 15.5951 39.027 16.4097C38.9107 17.1856 38.7361 17.9614 38.4839 18.6985C38.0572 20.0175 37.4171 21.2783 36.6025 22.4032C36.1369 23.0627 35.5938 23.7028 35.0119 24.2653C34.7986 24.4593 34.6628 24.7308 34.624 25.0218C34.6046 25.1964 34.5658 25.3709 34.5464 25.5455C34.0615 28.1058 32.9559 29.8903 32.4904 30.608L31.1132 32.5864C29.4451 34.6619 27.4667 36.0196 25.0809 36.7567L24.499 36.9313L23.8783 37.0476C23.1607 37.1834 22.443 37.2416 21.7059 37.2416C21.6089 37.2416 21.5119 37.2416 21.3956 37.2416H21.3568H21.2404H21.1046C20.8331 37.2416 20.5615 37.2998 20.29 37.3774C18.6994 37.8817 16.9538 38.1145 14.8201 38.1145Z" stroke="url(#paint1_linear_11066_229541)" stroke-width="0.21108" stroke-miterlimit="10"/>
<path opacity="0.8" d="M14.8207 36.7375C13.5599 36.7375 12.3379 36.66 11.3293 36.5824L11.0965 36.563L10.8638 36.5242C10.7086 36.5048 10.534 36.4854 10.3595 36.466C9.37025 36.369 7.74094 36.175 5.91767 35.3216L5.64612 35.1858L5.39396 35.05C1.84439 33.091 0.544824 30.1621 -0.231038 28.4164C-0.289228 28.3 -0.347417 28.1449 -0.425003 28.0091C-0.793538 27.272 -1.0263 26.5737 -1.22026 25.9531L-1.25905 25.8173L-1.29785 25.7009C-1.80216 23.8582 -1.93793 22.3065 -1.70518 20.7742C-1.47242 19.2612 -0.890521 17.8453 0.1181 16.3712L0.874566 15.1492C1.01034 14.9358 1.10732 14.6837 1.14612 14.4315C1.51465 12.3367 2.50388 10.8625 2.95 10.1837L3.00819 10.1061L3.02758 10.0673C3.02758 10.0479 3.04698 10.0285 3.04698 10.0091C3.06638 9.91211 3.10517 9.83452 3.12457 9.75694C3.24094 8.90349 3.45431 8.05004 3.74525 7.23539L3.78405 7.11901L3.82284 7.00263C3.84224 6.96383 3.84224 6.92504 3.88103 6.80866C4.09439 6.16857 4.54051 4.83021 5.70431 3.39487L6.13103 2.89056L6.55775 2.50263C7.70215 1.45521 9.07931 0.679351 10.5534 0.252627C11.4069 0.000471363 12.2603 -0.154701 13.1526 -0.193494H13.2302H13.3465C13.5017 -0.193494 13.6375 -0.212891 13.7733 -0.212891C14.4134 -0.212891 15.034 -0.38746 15.6547 -0.27108C16.1396 -0.174098 16.6246 -0.232287 17.0707 -0.426253C17.9047 -0.794787 19.0297 -0.930563 20.3099 -1.10513C20.4069 -1.12453 20.4845 -1.12453 20.5427 -1.14393C20.7172 -1.16332 20.9888 -1.20211 21.2991 -1.22151C21.8616 -1.2797 22.7345 -1.33789 23.6849 -1.33789C25.4694 -1.33789 26.9823 -1.10513 28.3207 -0.659011L28.4371 -0.620218L28.534 -0.581425C31.4823 0.543575 32.9371 2.01771 34.0815 3.47245C34.1396 3.55004 34.2172 3.62763 34.2366 3.66642L34.256 3.68582L34.4694 3.87978L34.4888 3.91857C35.478 4.67504 36.3121 5.60607 36.9521 6.65349L37.1461 6.96383L37.3013 7.29357C38.6978 10.1449 38.2711 12.7634 38.0771 13.869L38.0578 13.9272C37.922 14.7419 37.7086 15.5177 37.4177 16.2936C37.3207 17.0306 37.1461 17.7677 36.9134 18.466C36.5254 19.6298 35.9629 20.7354 35.2453 21.744C34.7603 22.4423 34.1784 23.0824 33.5578 23.6449C33.2668 23.9164 33.0728 24.2656 33.034 24.6729C32.9953 24.9638 32.9565 25.2354 32.9177 25.5263C32.4909 27.7957 31.5211 29.3475 31.0556 30.0457L29.9306 31.675C28.4371 33.5953 26.672 34.8367 24.5384 35.4962L24.0534 35.6513L23.5297 35.7483C22.909 35.8647 22.269 35.9229 21.6483 35.9035C21.5513 35.9035 21.4543 35.9035 21.3573 35.9035H21.3379H21.2797C21.2797 35.9035 21.2603 35.9035 21.2215 35.9035H21.1052H20.9888H20.7754C20.4845 35.9229 20.1935 35.9617 19.9026 36.0587C18.4866 36.5242 16.8379 36.7375 14.8207 36.7375Z" stroke="url(#paint2_linear_11066_229541)" stroke-width="0.21108" stroke-miterlimit="10"/>
<path opacity="0.8" d="M14.8198 35.1271C13.6172 35.1271 12.434 35.0495 11.4448 34.9719L11.2508 34.9525L11.0568 34.9331C10.8823 34.9137 10.6883 34.8943 10.4943 34.8749C9.5633 34.7779 8.14735 34.6228 6.55683 33.8663L6.34347 33.7693L6.1495 33.6529C3.10424 31.9461 1.97925 29.4245 1.24218 27.7564C1.18399 27.6206 1.1064 27.4461 1.04821 27.3103C0.71847 26.6508 0.505107 26.0301 0.330539 25.4482L0.291745 25.3512L0.272349 25.2542C-0.173772 23.6637 -0.290151 22.306 -0.0961855 21.0258C0.09778 19.7262 0.621487 18.5042 1.51373 17.2047L1.63011 17.0495L1.74649 16.8943C1.82407 16.7973 1.88226 16.7004 1.95985 16.6228L2.40597 15.7887C2.56114 15.5172 2.65812 15.2262 2.69692 14.9159C2.98787 13.0538 3.88011 11.7154 4.28743 11.0948C4.30683 11.056 4.34562 11.0172 4.36502 10.9978L4.462 10.862C4.5008 10.7844 4.53959 10.6874 4.57838 10.5711C4.61718 10.4547 4.67537 10.2801 4.71416 10.1249C4.81114 9.32967 5.00511 8.55381 5.27666 7.79735L5.31545 7.70036L5.35424 7.60338C5.37364 7.52579 5.41243 7.4676 5.45123 7.33183C5.64519 6.73053 6.01373 5.62493 7.00295 4.42235L7.33269 4.01502L7.68183 3.70467C8.65166 2.81243 9.81545 2.17235 11.0762 1.78442C11.8133 1.57105 12.5504 1.43528 13.3262 1.39648H13.3844H13.4814C13.5978 1.39648 13.7142 1.39648 13.8499 1.39648C14.5094 1.39648 15.1495 1.47407 15.7896 1.64864C16.3327 1.78442 16.9146 1.72623 17.4189 1.47407C18.2336 1.08614 19.3198 0.659415 20.5805 0.504243C20.6581 0.484846 20.7357 0.484846 20.7939 0.46545C20.9491 0.446053 21.2012 0.40726 21.5116 0.387864C22.0353 0.329674 22.8693 0.271484 23.7422 0.271484C25.3327 0.271484 26.6711 0.46545 27.8542 0.872777L27.9318 0.91157L28.0094 0.950364C30.7249 1.97838 31.9275 3.31674 32.8586 4.49993C33.0719 4.75209 33.0913 4.79088 33.2271 4.92666L33.4017 5.08183L33.4598 5.15941C33.906 5.50855 34.8176 6.22622 35.6129 7.52579L35.768 7.77795L35.9038 8.0301C37.087 10.4159 36.7185 12.5883 36.5439 13.6357L36.5245 13.6939C36.4081 14.4504 36.1948 15.2068 35.8844 15.9245V15.9827C35.8068 16.6616 35.6517 17.3404 35.4383 17.9805C35.1086 19.0086 34.6236 19.959 33.9836 20.8318C33.4598 21.5883 32.8198 22.2672 32.1021 22.8491C31.9275 22.9848 31.7917 23.1594 31.6948 23.3534C31.5978 23.5473 31.5396 23.7607 31.5202 23.9741C31.5008 24.4008 31.4426 24.8275 31.365 25.2542C30.9965 27.2133 30.143 28.5711 29.7163 29.2499L28.8435 30.5301C27.5439 32.2758 25.9922 33.4008 24.1107 33.9827L23.7228 34.0991L23.2961 34.1767C22.7723 34.2736 22.2292 34.3124 21.6861 34.3124C21.6086 34.3124 21.5116 34.3124 21.4146 34.3124H21.3952H21.2982C21.2788 34.3124 21.24 34.3124 21.143 34.3124H21.0461H20.9685L20.5223 34.3318C20.212 34.3512 19.9017 34.39 19.6107 34.5064C18.2723 34.9331 16.74 35.1271 14.8198 35.1271Z" stroke="url(#paint3_linear_11066_229541)" stroke-width="0.19788" stroke-miterlimit="10"/>
<path opacity="0.8" d="M14.8203 33.5175C13.6759 33.5175 12.5315 33.4399 11.581 33.3624L11.4453 33.343L11.3095 33.3236C11.1155 33.3042 10.9022 33.2654 10.7082 33.246C9.83536 33.149 8.63277 33.0132 7.27501 32.3925L7.11984 32.3149L6.96467 32.2374C4.38493 30.7826 3.43449 28.649 2.73622 27.0973C2.65863 26.9421 2.58105 26.7675 2.52286 26.6124C2.23191 26.0111 2.03794 25.4486 1.88277 24.9636L1.86337 24.8861L1.80518 24.8279C1.04872 22.1511 1.33967 20.2697 2.8138 18.1167L2.89139 18.0003L2.96898 17.8839C3.06596 17.7675 3.16294 17.6318 3.25993 17.5154C3.3957 17.3408 3.53148 17.1468 3.68665 16.9723C3.78363 16.8559 3.86122 16.7201 3.91941 16.5843L4.09398 16.1576C4.17156 15.9636 4.21036 15.7697 4.22975 15.5757C4.38493 13.8494 5.21898 12.608 5.6263 11.9874C5.6651 11.9486 5.70389 11.871 5.72329 11.8516L5.82027 11.6964L5.85906 11.6576C5.91725 11.5606 6.01424 11.3279 6.09182 11.0951C6.13061 10.9399 6.2082 10.6878 6.28579 10.4744V10.455C6.36337 9.73736 6.53794 9.01968 6.7901 8.3408L6.80949 8.28261L6.82889 8.22442C6.86768 8.10804 6.90648 8.01106 6.94527 7.87529C7.11984 7.35158 7.41079 6.45934 8.20605 5.47011L8.4582 5.15977L8.71036 4.92701C10.5918 3.22011 12.6866 3.08434 13.3849 3.02615H13.4237H13.5013C13.5983 3.02615 13.6953 3.02615 13.7923 3.02615C14.6263 3.02615 15.441 3.20072 16.2168 3.53046C16.3526 3.58865 16.5078 3.60804 16.6435 3.60804C16.7987 3.60804 16.9345 3.56925 17.0703 3.49167C17.7879 3.08434 19.0875 2.32787 20.7556 2.13391C20.8332 2.11451 20.9108 2.11451 20.969 2.11451C21.1241 2.09511 21.3569 2.07572 21.6285 2.03692C22.1328 1.99813 22.8892 1.93994 23.7039 1.93994C25.1198 1.93994 26.2836 2.11451 27.2729 2.44425L27.331 2.46365L27.3892 2.48304C29.7168 3.35589 30.706 4.46149 31.5401 5.50891C31.7535 5.79985 31.8698 5.91623 32.1026 6.14899L32.2384 6.26537L32.3354 6.38175L32.4129 6.43994C32.8009 6.75029 33.5379 7.31279 34.1974 8.3796L34.3138 8.57356L34.4108 8.76753C35.3612 10.7072 35.0509 12.4529 34.8957 13.3839V13.4421C34.7793 14.121 34.5854 14.7999 34.3138 15.4399L34.2944 15.4981C34.2944 15.5175 34.2944 15.5175 34.275 15.5563C34.2556 15.6145 34.2556 15.6727 34.2556 15.7309L34.2362 15.8085C34.178 16.3904 34.0422 16.9529 33.8483 17.496C33.5573 18.3688 33.15 19.1835 32.6069 19.9205C32.0832 20.677 31.4819 21.2977 30.8224 21.7826C30.5315 21.996 30.2987 22.2675 30.1241 22.5973C29.9496 22.927 29.872 23.2761 29.872 23.6447C29.872 24.0908 29.8138 24.5563 29.7362 25.0024C29.4259 26.6705 28.7276 27.7955 28.2815 28.4744L27.6414 29.4249C26.5164 30.996 25.178 32.0046 23.5681 32.5089L23.4905 32.5283C23.3547 32.5671 23.219 32.6059 23.0832 32.6253L22.9862 32.6447C22.5401 32.7223 22.094 32.7611 21.6479 32.7611C21.5703 32.7611 21.4927 32.7611 21.4151 32.7611H21.3957C21.3569 32.7611 21.3181 32.7611 21.2793 32.7611C21.2405 32.7611 21.1629 32.7611 21.0078 32.7611H20.9496H20.8914C20.678 32.7611 20.4065 32.7805 20.1737 32.7805C19.844 32.7999 19.5336 32.858 19.2233 32.9744C18.0595 33.3236 16.6435 33.5175 14.8203 33.5175Z" stroke="url(#paint4_linear_11066_229541)" stroke-width="0.1847" stroke-miterlimit="10"/>
<path opacity="0.8" d="M14.8207 31.9074C13.7151 31.9074 12.6289 31.8298 11.6979 31.7523H11.6009L11.5039 31.7329C11.2906 31.6941 11.0578 31.6747 10.8444 31.6553C10.0298 31.5583 9.02117 31.4613 7.93497 30.9376L7.81859 30.8794L7.7216 30.8212C5.60738 29.638 4.81212 27.8535 4.19143 26.4182C4.11385 26.2436 4.03626 26.0691 3.95867 25.8751C3.70652 25.3708 3.53195 24.8665 3.39617 24.4398L3.37678 24.3816L3.35738 24.3234C2.73669 22.1122 2.95005 20.7156 4.15264 18.9699L4.21083 18.8923L4.26902 18.8148C4.366 18.679 4.46298 18.5626 4.55997 18.4268C4.87031 18.0195 5.18066 17.6122 5.62678 17.1273C5.72376 17.0303 5.78195 16.8751 5.80135 16.7393L5.82074 16.2932L5.80135 16.1186V15.9441C5.84014 14.5087 6.55781 13.4419 6.94574 12.86C6.98454 12.8018 7.04273 12.7242 7.06212 12.6854L7.12031 12.5885L7.1785 12.5109C7.25609 12.3945 7.43066 11.9872 7.58583 11.6186C7.64402 11.4635 7.7216 11.1531 7.81859 10.901C7.83798 10.8234 7.83798 10.804 7.85738 10.6294C7.91557 10.0281 8.07074 9.42682 8.26471 8.86432L8.2841 8.82553L8.3035 8.78674C8.36169 8.63157 8.40048 8.51519 8.45867 8.36001C8.61385 7.8945 8.8466 7.21562 9.4479 6.45915L9.62247 6.24579L9.79704 6.09062C11.116 4.90743 12.5319 4.67467 13.5018 4.61648H13.5406H13.5794C13.6569 4.61648 13.7151 4.61648 13.7927 4.61648C14.6074 4.61648 15.5966 5.00441 16.1203 5.25657C16.2367 5.31476 16.3725 5.35355 16.5082 5.35355C16.644 5.35355 16.7798 5.33415 16.9156 5.29536C17.2453 5.17898 17.5557 5.0432 17.8466 4.88803C18.5061 4.5001 19.5923 3.87941 20.9501 3.72424C21.0276 3.70484 21.0858 3.70484 21.144 3.70484C21.2798 3.68545 21.4932 3.66605 21.7647 3.62726C22.2302 3.58846 22.9285 3.53027 23.685 3.53027C24.9069 3.53027 25.9156 3.66605 26.7302 3.957L26.769 3.97639L26.8078 3.99579C28.7475 4.73286 29.5233 5.56691 30.2604 6.51734C30.4932 6.82769 30.6677 7.04105 31.0169 7.35139L31.0944 7.42898L31.172 7.50657C31.2496 7.58415 31.3272 7.64234 31.4048 7.70053C31.7345 7.95269 32.297 8.39881 32.7819 9.21346L32.8595 9.32984L32.9177 9.46562C33.6354 10.9204 33.4026 12.2975 33.2669 13.1122V13.1704C33.1699 13.7329 33.0147 14.276 32.7819 14.7997C32.7238 14.9354 32.685 15.0712 32.6462 15.2264C32.6268 15.3234 32.6074 15.4204 32.6074 15.4979L32.588 15.5755C32.5298 16.041 32.4328 16.5066 32.2776 16.9527C32.0449 17.6704 31.6957 18.3492 31.269 18.9505C30.6095 19.8816 29.8531 20.541 28.9414 20.9678C28.7281 21.0648 28.5341 21.2199 28.3983 21.4333C28.2626 21.6273 28.185 21.8794 28.1656 22.1122C28.1656 22.2092 28.1656 22.2867 28.1656 22.3449C28.2044 23.0432 28.2626 23.8385 28.1074 24.6725C27.8552 26.0303 27.2733 26.9419 26.8466 27.6208C26.8466 27.6208 24.8682 30.3751 23.0643 30.9376L22.8703 30.9958L22.6569 31.0346C22.3078 31.0928 21.9587 31.1316 21.5901 31.1316C21.5319 31.1316 21.4544 31.1316 21.3768 31.1316C21.338 31.1316 21.2798 31.1316 21.2216 31.1316C21.144 31.1316 21.0276 31.1316 20.8531 31.151H20.8143H20.7755C20.0772 31.1704 19.4371 31.1898 19.2432 31.2285C19.1462 31.2479 19.0492 31.2673 18.9522 31.3061C18.0018 31.7135 16.6634 31.9074 14.8207 31.9074Z" stroke="url(#paint5_linear_11066_229541)" stroke-width="0.1715" stroke-miterlimit="10"/>
<path opacity="0.8" d="M14.8202 30.3175C13.7728 30.3175 12.7254 30.2399 11.8331 30.1817H11.7943H11.7555C11.5034 30.1429 11.2706 30.1235 11.0573 30.1041C10.3008 30.0265 9.50553 29.9296 8.65208 29.5416L8.59389 29.5222L8.5357 29.5028C6.88699 28.5718 6.2663 27.1946 5.68441 25.8563C5.60682 25.6623 5.50984 25.4683 5.41286 25.2744C5.21889 24.8864 5.06372 24.4597 4.94734 24.0524V24.033V24.0136C4.44303 22.2485 4.5788 21.3563 5.50984 19.9985L5.52924 19.9597L5.54863 19.9209C5.66501 19.7852 5.76199 19.6494 5.85898 19.533C6.3051 18.9511 6.69303 18.4468 7.56587 17.6321C7.62406 17.5739 7.68225 17.4964 7.70165 17.3994C7.72105 17.3218 7.72105 17.2248 7.68225 17.1472L7.52708 16.7011C7.48829 16.5653 7.46889 16.4102 7.46889 16.2744V16.158V16.061C7.50768 15.0912 8.01199 14.3347 8.34174 13.8304C8.39993 13.7528 8.43872 13.6752 8.47751 13.6171L8.5163 13.5589L8.5551 13.5007C8.72967 13.2679 9.02061 12.589 9.17579 12.1817C9.21458 12.0459 9.31156 11.7162 9.40855 11.464C9.46674 11.2701 9.50553 11.0761 9.52493 10.8821C9.58311 10.3972 9.6801 9.91231 9.85467 9.46619V9.44679V9.4274C9.93225 9.23343 9.99044 9.07826 10.0292 8.92309C10.165 8.51576 10.3202 8.05024 10.7469 7.52654L10.8245 7.42955L10.9021 7.35197C11.8331 6.49852 12.8611 6.34335 13.637 6.28516H13.6564H13.6758C13.7146 6.28516 13.7728 6.28516 13.8116 6.28516C14.5874 6.28516 15.1693 6.5955 15.5573 6.80886L15.6542 6.84766H15.6736C15.79 6.90585 15.8676 6.96403 15.9646 7.00283C16.1973 7.11921 16.4883 7.158 16.7404 7.08041C17.2835 6.94464 18.1176 6.6149 18.6607 6.30455H18.6801C19.262 5.95541 20.1542 5.4511 21.2016 5.33473C21.2598 5.31533 21.3374 5.31533 21.3956 5.31533C21.512 5.29593 21.7254 5.27654 21.9581 5.25714C22.3848 5.21835 23.0443 5.16016 23.7232 5.16016C24.7706 5.16016 25.6047 5.27654 26.2448 5.4899H26.2641H26.2835C27.8353 6.07179 28.4172 6.69248 29.0379 7.50714C29.29 7.83688 29.5422 8.14722 30.0077 8.55455L30.0465 8.59335L30.0853 8.63214C30.2017 8.74852 30.3374 8.8649 30.4926 8.98128C30.7641 9.19464 31.1521 9.48559 31.4818 10.0481L31.5206 10.1063L31.5594 10.1645C32.0443 11.1731 31.8891 12.1235 31.7728 12.8412V12.8994C31.6952 13.3455 31.5788 13.7722 31.3848 14.1989C31.2879 14.4317 31.2103 14.6839 31.1715 14.936C31.1521 15.0912 31.1327 15.2076 31.1133 15.3046L31.0939 15.3821C31.0551 15.7507 30.9775 16.0998 30.8611 16.4489C30.6866 17.0114 30.415 17.5352 30.0659 18.0201C29.484 18.8735 28.8245 19.3972 27.9516 19.6688C27.5249 19.8046 27.1758 20.0761 26.943 20.4446L26.8654 20.5416L26.7879 20.6386C26.5745 20.8908 26.6327 21.8606 26.6715 22.4425C26.7103 23.0826 26.7491 23.7421 26.6327 24.3627C26.4387 25.4296 25.9732 26.1472 25.5659 26.7679C25.5659 26.7679 24.0529 28.9597 22.6758 29.367L22.5788 29.4058L22.4818 29.4252C22.2297 29.464 21.9581 29.5028 21.6866 29.5028C21.6284 29.5028 21.5702 29.5028 21.4926 29.5028C21.4344 29.5028 21.3762 29.5028 21.2986 29.5028C21.2016 29.5028 21.0659 29.5028 20.8331 29.5222H20.8137H20.7943C19.8827 29.561 19.3202 29.5804 19.0098 29.6386C18.7965 29.6774 18.6025 29.7356 18.4085 29.8132C17.5745 30.1429 16.4495 30.3175 14.8202 30.3175Z" stroke="url(#paint6_linear_11066_229541)" stroke-width="0.1715" stroke-miterlimit="10"/>
</g>
</g>
</g>
<defs>
<radialGradient id="paint0_radial_11066_229541" cx="0" cy="0" r="1" gradientUnits="userSpaceOnUse" gradientTransform="translate(18.0017 19.8815) rotate(90) scale(20.22)">
<stop offset="0.1667" stop-color="#073183"/>
<stop offset="1" stop-color="#0054F9"/>
</radialGradient>
<linearGradient id="paint1_linear_11066_229541" x1="-2.51964" y1="-4.04684" x2="38.7228" y2="39.2395" gradientUnits="userSpaceOnUse">
<stop offset="0.2057" stop-color="#89D0FF"/>
<stop offset="0.3984" stop-color="#EBBF9A"/>
<stop offset="0.6015" stop-color="#EB8280"/>
<stop offset="0.8411" stop-color="#A281FF"/>
</linearGradient>
<linearGradient id="paint2_linear_11066_229541" x1="-0.919809" y1="-2.1841" x2="37.1012" y2="37.8844" gradientUnits="userSpaceOnUse">
<stop offset="0.2057" stop-color="#89D0FF"/>
<stop offset="0.3984" stop-color="#EBBF9A"/>
<stop offset="0.6015" stop-color="#EB80DA"/>
<stop offset="0.8411" stop-color="#A281FF"/>
</linearGradient>
<linearGradient id="paint3_linear_11066_229541" x1="0.694516" y1="-0.574284" x2="35.4934" y2="36.2756" gradientUnits="userSpaceOnUse">
<stop offset="0.2057" stop-color="#89D0FF"/>
<stop offset="0.3984" stop-color="#EBBF9A"/>
<stop offset="0.6015" stop-color="#EB8280"/>
<stop offset="0.8411" stop-color="#A281FF"/>
</linearGradient>
<linearGradient id="paint4_linear_11066_229541" x1="2.30806" y1="1.04202" x2="33.8777" y2="34.6633" gradientUnits="userSpaceOnUse">
<stop offset="0.2057" stop-color="#89D0FF"/>
<stop offset="0.3984" stop-color="#EBBF9A"/>
<stop offset="0.6015" stop-color="#EB80E7"/>
<stop offset="0.8411" stop-color="#A281FF"/>
</linearGradient>
<linearGradient id="paint5_linear_11066_229541" x1="3.91216" y1="2.66088" x2="32.2586" y2="33.0511" gradientUnits="userSpaceOnUse">
<stop offset="0.2057" stop-color="#89D0FF"/>
<stop offset="0.3984" stop-color="#EBBF9A"/>
<stop offset="0.6015" stop-color="#EB80D3"/>
<stop offset="0.8411" stop-color="#A281FF"/>
</linearGradient>
<linearGradient id="paint6_linear_11066_229541" x1="5.53606" y1="4.26103" x2="30.6565" y2="31.4324" gradientUnits="userSpaceOnUse">
<stop offset="0.2057" stop-color="#89D0FF"/>
<stop offset="0.3984" stop-color="#EBBF9A"/>
<stop offset="0.6015" stop-color="#A280EB"/>
<stop offset="0.8411" stop-color="#A281FF"/>
</linearGradient>
<clipPath id="clip0_11066_229541">
<rect width="36" height="36" fill="white"/>
</clipPath>
</defs>
</svg>
