<svg width="36" height="36" viewBox="0 0 36 36" fill="none" xmlns="http://www.w3.org/2000/svg">
<circle cx="18" cy="18" r="18" fill="black"/>
<path d="M24.6107 14.0292H22.4849C22.3621 14.0294 22.2408 14.0035 22.129 13.953C22.0171 13.9026 21.9175 13.8289 21.8369 13.7369L20.9743 12.7673C20.8537 12.6344 20.6854 12.5541 20.5056 12.5436C20.326 12.5332 20.1493 12.5936 20.014 12.7117L19.9627 12.7673L19.2215 13.5977C19.1046 13.73 18.9613 13.8367 18.8008 13.9109C18.6403 13.9852 18.4661 14.0255 18.2891 14.0292H6.63403C6.29965 14.9857 6.08666 15.9799 6 16.9889H16.9837C17.0795 16.9889 17.1744 16.9696 17.2626 16.9322C17.3507 16.8947 17.4302 16.8398 17.4965 16.7709L18.5174 15.7085C18.6397 15.5813 18.8069 15.5065 18.9836 15.4997H19.0256C19.1214 15.5015 19.2157 15.5225 19.3031 15.5617C19.3904 15.6007 19.4689 15.6569 19.5338 15.727L20.3963 16.6966C20.477 16.7887 20.5766 16.8623 20.6884 16.9127C20.8002 16.9631 20.9215 16.9892 21.0443 16.9889H30C29.9179 15.9793 29.7048 14.9843 29.3659 14.0292H24.6107Z" fill="white"/>
<path d="M12.6489 23.2144C12.7439 23.2133 12.8377 23.1935 12.9249 23.156C13.0122 23.1186 13.0911 23.0644 13.1571 22.9963L14.178 21.934C14.3011 21.808 14.4678 21.7333 14.6442 21.7253H14.6862C14.7822 21.7253 14.8771 21.7456 14.9647 21.7848C15.0523 21.8239 15.1306 21.8812 15.1944 21.9526L16.0522 22.9222C16.1347 23.0119 16.2347 23.084 16.346 23.1343C16.4574 23.1846 16.5779 23.2118 16.7002 23.2144H28.8448C29.3072 22.2667 29.6411 21.2621 29.8378 20.2268H18.1828C18.061 20.2276 17.9406 20.2022 17.8296 20.1527C17.7186 20.103 17.6196 20.0303 17.5393 19.9392L16.6769 18.9696C16.6134 18.8984 16.5355 18.8414 16.4484 18.8024C16.3612 18.7633 16.2666 18.7432 16.1711 18.7432C16.0754 18.7432 15.9809 18.7633 15.8938 18.8024C15.8065 18.8414 15.7286 18.8984 15.6652 18.9696L14.9286 19.8C14.808 19.9346 14.66 20.0424 14.4944 20.116C14.3289 20.1895 14.1495 20.2273 13.9682 20.2268H6.1687C6.36457 21.2638 6.69851 22.27 7.16171 23.219L12.6489 23.2144Z" fill="white"/>
<path d="M21.2624 10.7909C21.3582 10.791 21.4531 10.7717 21.5413 10.7342C21.6294 10.6967 21.7089 10.6419 21.7752 10.5729L22.7961 9.51518C22.8588 9.44815 22.9345 9.39463 23.0186 9.35792C23.1029 9.32121 23.1937 9.3021 23.2857 9.30179H23.3276C23.4235 9.30126 23.5184 9.32178 23.6054 9.36187C23.6924 9.40196 23.7695 9.46064 23.8311 9.53373L24.6936 10.5033C24.7764 10.5924 24.8766 10.6639 24.9879 10.7134C25.0993 10.7628 25.2197 10.7892 25.3416 10.7909H27.6726C25.7535 8.24797 22.8979 6.56769 19.734 6.11966C16.5699 5.67162 13.3567 6.49251 10.8008 8.4018C9.89253 9.08292 9.08439 9.88709 8.3999 10.7909H21.2624Z" fill="white"/>
<path d="M16.6235 26.1787H13.4673C13.3453 26.179 13.2246 26.1529 13.1136 26.1025C13.0025 26.0521 12.9037 25.9784 12.8239 25.8865L11.9661 24.9169C11.8447 24.7833 11.675 24.703 11.4942 24.6934C11.3134 24.6838 11.1361 24.7458 11.0011 24.8659L10.9452 24.9169L10.2039 25.7612C10.0874 25.8939 9.94421 26.0009 9.78361 26.0753C9.62303 26.1496 9.44858 26.1895 9.2715 26.1926H9.22021C11.3952 28.5103 14.4041 29.8764 17.5887 29.992C20.7733 30.1076 23.8743 28.9634 26.2132 26.8097C26.4183 26.6195 26.6188 26.42 26.81 26.2159L16.6235 26.1787Z" fill="white"/>
</svg>
