<svg width="36" height="36" viewBox="0 0 36 36" fill="none" xmlns="http://www.w3.org/2000/svg">
<path d="M18 36C27.9411 36 36 27.9411 36 18C36 8.05887 27.9411 0 18 0C8.05887 0 0 8.05887 0 18C0 27.9411 8.05887 36 18 36Z" fill="#2E3749"/>
<g clip-path="url(#clip0_4020_65290)">
<path d="M20.9287 16.9127L22.8381 13.673L27.9845 21.6888L27.9869 23.2266L27.9701 12.6411C27.9578 12.3821 27.8204 12.1451 27.6014 12.006L18.3358 6.67667C18.1117 6.57013 17.8511 6.57142 17.6279 6.68C17.5993 6.69427 17.5716 6.71039 17.5449 6.72799L17.5126 6.74837L8.51875 11.96L8.48374 11.9758C8.43704 11.9975 8.39258 12.0232 8.35089 12.0532C8.18228 12.1737 8.06722 12.3553 8.03053 12.5593C8.02497 12.5902 8.02108 12.6215 8.01904 12.6528L8.03312 21.2789L12.8268 13.849C13.4303 12.8639 14.7452 12.5465 15.9659 12.5637L17.3985 12.6008L8.95695 26.1384L9.95211 26.7113L18.4948 12.6143L22.2707 12.6006L13.7501 27.0527L17.3012 29.0964L17.7255 29.3404C17.9086 29.4133 18.1117 29.4171 18.2975 29.3517L27.6933 23.9068L25.896 24.9477L20.9287 16.9127ZM21.6573 27.4048L18.0709 21.776L20.26 18.0613L24.9699 25.4849L21.6573 27.4048Z" fill="#2D374B"/>
<path d="M18.071 21.7758L21.6574 27.4044L24.9703 25.4844L20.2606 18.061L18.071 21.7758Z" fill="#28A0F0"/>
<path d="M27.9875 23.2265L27.9851 21.6886L22.8387 13.6729L20.9282 16.9122L25.8964 24.9472L27.6937 23.9063C27.8697 23.7636 27.9766 23.5528 27.9877 23.3265L27.9875 23.2265Z" fill="#28A0F0"/>
<path d="M6.4209 24.6776L8.95762 26.1393L17.3992 12.6017L15.9666 12.5646C14.7459 12.5474 13.4309 12.8646 12.8275 13.8499L8.0338 21.2798L6.42182 23.7576V24.6783L6.4209 24.6776Z" fill="white"/>
<path d="M22.2711 12.6011L18.4953 12.6148L9.95264 26.7118L12.9385 28.431L13.7504 27.0538L22.2711 12.6011Z" fill="white"/>
<path d="M29.578 12.5823C29.543 11.7913 29.1208 11.0681 28.4491 10.6488L19.0622 5.25076C18.3832 4.91706 17.5876 4.91706 16.9085 5.25076C16.8301 5.29023 7.77991 10.5391 7.77991 10.5391C7.6541 10.5995 7.53385 10.6707 7.42046 10.7518C6.82514 11.1752 6.45642 11.848 6.41992 12.5776V23.7573L8.03189 21.2795L8.01948 12.6538C8.03467 12.4144 8.15659 12.1943 8.35132 12.0542C8.39394 12.0236 17.5987 6.69561 17.6279 6.68097C17.8512 6.57239 18.1117 6.5711 18.3359 6.67763L27.6014 12.0073C27.8204 12.1465 27.9579 12.3835 27.9701 12.6425V23.3282C27.9657 23.5524 27.8647 23.7636 27.6931 23.908L25.8959 24.9489L24.9695 25.4862L21.6566 27.4061L18.2968 29.3533C18.111 29.4189 17.9079 29.4148 17.7248 29.342L13.7499 27.0557L12.938 28.4328L16.5103 30.4894C16.6285 30.5565 16.7338 30.6162 16.8201 30.6647C16.9539 30.7388 17.045 30.7898 17.0771 30.8053C17.376 30.9363 17.6991 31.0029 18.0254 31.0004C18.3246 31.0008 18.6213 30.945 18.8999 30.8359L28.6583 25.1847C29.2156 24.7512 29.5523 24.0931 29.5777 23.3875L29.578 12.5823Z" fill="#96BEDC"/>
</g>
<defs>
<clipPath id="clip0_4020_65290">
<rect width="23.1581" height="26" fill="white" transform="translate(6.41992 5)"/>
</clipPath>
</defs>
</svg>
