<svg width="36" height="36" viewBox="0 0 36 36" fill="none" xmlns="http://www.w3.org/2000/svg">
<circle cx="18" cy="18" r="18" fill="#FF7400"/>
<g clip-path="url(#clip0_7150_57370)">
<path fill-rule="evenodd" clip-rule="evenodd" d="M23.6859 18.5964C24.8271 18.309 25.5421 17.5886 25.8443 16.4404C26.2354 14.9547 25.8358 13.7921 24.6035 12.887C23.9559 12.4113 23.2291 12.0911 22.4783 11.8233C22.3351 11.7722 22.3026 11.7098 22.3373 11.5755C22.467 11.0736 22.5937 10.571 22.7195 10.0682C22.793 9.77461 22.8653 9.48071 22.9393 9.17952C22.9729 9.04288 23.0069 8.90474 23.0415 8.76445L21.2337 8.31435L20.5054 11.2248L19.0391 10.8762L19.7669 7.94802L17.9694 7.5C17.9602 7.52725 17.9515 7.55171 17.9434 7.57442C17.9278 7.61823 17.9145 7.65552 17.905 7.69377C17.8588 7.87831 17.8126 8.06281 17.7663 8.24731C17.5954 8.92862 17.4245 9.60992 17.2619 10.2932C17.2232 10.4561 17.1693 10.4845 17.0118 10.4429C16.5184 10.3127 16.0227 10.191 15.527 10.0692C15.3931 10.0363 15.2592 10.0034 15.1253 9.97034C14.7554 9.87897 14.3854 9.78854 14.0104 9.69689C13.854 9.65867 13.6967 9.62023 13.5382 9.58142L13.0569 11.5094C13.1084 11.5219 13.1586 11.5336 13.2079 11.5452C13.3123 11.5696 13.4125 11.593 13.5116 11.6206C13.6246 11.6521 13.7386 11.6814 13.8526 11.7106C14.1383 11.7838 14.424 11.8571 14.6947 11.9672C15.1257 12.1427 15.3026 12.5821 15.191 13.0318C15.0964 13.413 15.002 13.7941 14.9076 14.1753C14.7068 14.9855 14.5061 15.7956 14.3042 16.6055C14.1861 17.0793 14.0672 17.5529 13.9483 18.0266C13.698 19.0239 13.4476 20.0213 13.2043 21.0204C13.1244 21.3484 12.7629 21.6587 12.3769 21.5465C12.0683 21.4567 11.7537 21.3874 11.4358 21.3174C11.2968 21.2867 11.1572 21.256 11.0172 21.2233L10.125 23.28L13.7912 24.2075L13.0396 27.2365L14.8374 27.6831C14.8468 27.6485 14.8554 27.6172 14.8633 27.5882C14.8788 27.5319 14.8919 27.484 14.904 27.4357C14.9472 27.2636 14.9905 27.0915 15.0338 26.9193C15.206 26.2345 15.3782 25.5497 15.5465 24.864C15.5726 24.7578 15.6024 24.69 15.7262 24.723C16.0633 24.8128 16.4005 24.9023 16.7507 24.9953C16.8499 25.0217 16.9501 25.0483 17.0517 25.0753L16.314 28.0532L18.1082 28.5C18.117 28.4741 18.1254 28.4505 18.1334 28.4284C18.1491 28.3847 18.1627 28.3468 18.1723 28.3079C18.2153 28.1354 18.2584 27.9629 18.3015 27.7905C18.4765 27.0905 18.6514 26.3904 18.8193 25.6887C18.858 25.5271 18.9174 25.4728 19.0841 25.5142C19.2038 25.5439 19.3266 25.5607 19.4495 25.5775C19.5084 25.5856 19.5674 25.5936 19.6261 25.6031C20.5619 25.7545 21.5003 25.8097 22.4382 25.6358C23.2851 25.4788 24.01 25.0996 24.5529 24.4106C25.1368 23.6694 25.437 22.8154 25.5654 21.8914C25.6972 20.9434 25.4579 20.107 24.764 19.4404C24.5398 19.225 24.2865 19.04 24.0318 18.854C23.9159 18.7693 23.7997 18.6844 23.6859 18.5964ZM18.554 16.904C19.3603 17.0948 20.1708 17.2421 21.0048 17.1078C22.2134 16.9133 22.5708 15.8488 22.3687 15.0733C22.2261 14.5264 21.8224 14.1857 21.3511 13.9174C20.6164 13.499 19.8063 13.3107 18.9963 13.1225C18.8933 13.0985 18.7901 13.0745 18.6873 13.0501C18.5487 13.0173 18.5244 13.1052 18.4985 13.2122C18.4257 13.5143 18.3499 13.8157 18.2741 14.1172C18.2329 14.281 18.1916 14.4448 18.1509 14.6088C18.0347 15.0763 17.919 15.5439 17.8015 16.0191L17.6405 16.6697C17.7449 16.6966 17.846 16.7232 17.9449 16.7492C18.1541 16.8042 18.3535 16.8566 18.554 16.904ZM16.8564 19.8039C16.6414 20.6622 16.4263 21.5205 16.2093 22.3783C16.1765 22.508 16.2324 22.531 16.3424 22.5549C16.5959 22.6101 16.8486 22.6697 17.1013 22.7293C17.5759 22.8412 18.0504 22.9532 18.53 23.0355C19.1873 23.1484 19.8559 23.1649 20.5177 23.0109C21.82 22.7078 22.1966 21.2562 21.5506 20.3788C21.2476 19.9672 20.8369 19.6884 20.3856 19.465C19.4906 19.0218 18.5282 18.8012 17.5683 18.5812C17.4477 18.5536 17.3272 18.5259 17.2068 18.4979C17.2013 18.5047 17.1959 18.5105 17.1911 18.5156C17.1822 18.5251 17.1753 18.5325 17.1731 18.5411C17.0675 18.9614 16.9622 19.3818 16.8569 19.8022L16.8564 19.8039Z" fill="white"/>
</g>
<defs>
<clipPath id="clip0_7150_57370">
<rect width="21" height="21" fill="white" transform="translate(7.5 7.5)"/>
</clipPath>
</defs>
</svg>
