<svg width="36" height="36" viewBox="0 0 36 36" fill="none" xmlns="http://www.w3.org/2000/svg">
<rect width="36" height="36" rx="18" fill="black"/>
<path d="M18.8934 18.0406L24.2128 15.2388V22.1824L18.8934 25.1872V18.0406Z" fill="#F09739"/>
<path d="M18.0407 12.0039L12.883 14.9817V20.9372L17.997 23.8898V25.1747C17.9558 25.1691 17.9155 25.1556 17.8783 25.1341L11.9085 21.6874C11.808 21.6294 11.746 21.5222 11.746 21.4061V14.5128C11.746 14.3967 11.808 14.2895 11.9085 14.2315L17.8783 10.7848C17.9788 10.7268 18.1026 10.7268 18.2031 10.7848L24.1729 14.2315C24.2005 14.2474 24.2252 14.267 24.2464 14.2895L23.0686 14.9067L18.0407 12.0039Z" fill="#F09739"/>
<path fill-rule="evenodd" clip-rule="evenodd" d="M18.3249 6.08704C18.1239 5.97099 17.8763 5.97099 17.6753 6.08704L7.8456 11.7622C7.64458 11.8783 7.52075 12.0927 7.52075 12.3248V23.6752C7.52075 23.9073 7.64458 24.1217 7.8456 24.2378L17.6753 29.913C17.8763 30.029 18.1239 30.029 18.3249 29.913L28.1546 24.2378C28.3556 24.1217 28.4794 23.9073 28.4794 23.6752V12.3248C28.4794 12.0927 28.3556 11.8783 28.1546 11.7622L18.3249 6.08704ZM18.0001 8.33764L9.63225 13.1688V22.8312L18.0001 27.6624L26.3679 22.8312V13.1688L18.0001 8.33764Z" fill="#F09739"/>
</svg>
