<svg width="36" height="36" viewBox="0 0 36 36" fill="none" xmlns="http://www.w3.org/2000/svg">
<path d="M18 36C27.9411 36 36 27.9411 36 18C36 8.05887 27.9411 0 18 0C8.05887 0 0 8.05887 0 18C0 27.9411 8.05887 36 18 36Z" fill="#12192D"/>
<path fill-rule="evenodd" clip-rule="evenodd" d="M10.0914 15.1964L12.4178 11.4633L11.637 10.2789L11.0953 9.43928L7.11154 16.051L7 16.2309L7.63739 17.2804H17.6604L22.7118 9.13943L22.0106 8L14.9993 8.01499H14.8877L13.7723 8L14.3619 9.04948L14.9515 10.099L19.5407 10.084L16.3856 15.1964H10.0914ZM29.4841 16.5307L28.8467 15.5262L25.3569 10.009H25.341L25.2295 9.81409H23.9547L18.9989 18.015L24.0343 26.1709H25.3091L25.341 26.1259L29.5 19.4243H26.9345L24.7195 23.1274L21.5644 18L24.6558 12.8726L26.9026 16.5157L29.4841 16.5307ZM14.4894 10.9685C14.669 10.9108 14.8573 10.8805 15.0471 10.8786C15.3977 10.8786 15.7004 10.9835 15.812 11.2084C15.8199 11.2234 15.8279 11.2346 15.8359 11.2459C15.8438 11.2571 15.8518 11.2684 15.8598 11.2834C15.864 11.2914 15.8683 11.2984 15.8723 11.3048C15.8831 11.3225 15.8916 11.3364 15.8916 11.3583V11.6582C15.8916 11.6644 15.8889 11.668 15.8857 11.6723C15.8812 11.6783 15.8757 11.6856 15.8757 11.7031C15.8757 11.7331 15.8757 11.7631 15.8598 11.7781C15.8438 11.7931 15.8438 11.7931 15.8438 11.8081C15.8352 11.8162 15.8296 11.8267 15.8279 11.8381L15.812 11.8531C15.804 11.8681 15.796 11.8868 15.7881 11.9055C15.7801 11.9243 15.7721 11.943 15.7642 11.958C15.7491 11.996 15.7275 12.0314 15.7004 12.063L15.6845 12.093V12.1079C15.6765 12.1229 15.6686 12.1342 15.6606 12.1454C15.6526 12.1567 15.6447 12.1679 15.6367 12.1829L15.6048 12.2129C15.5968 12.2279 15.5849 12.2391 15.5729 12.2504C15.561 12.2616 15.549 12.2729 15.5411 12.2879L15.5092 12.3178C15.5012 12.3328 15.4893 12.3441 15.4773 12.3553C15.4654 12.3666 15.4534 12.3778 15.4455 12.3928C15.4335 12.4154 15.4173 12.4357 15.3977 12.4528C15.3928 12.4573 15.388 12.4632 15.3827 12.4697C15.3706 12.4845 15.3561 12.5023 15.3339 12.5127L15.3021 12.5427C15.2861 12.5577 15.2702 12.569 15.2542 12.5802C15.2383 12.5915 15.2224 12.6027 15.2064 12.6177L15.1746 12.6327C15.1507 12.6477 15.1308 12.6627 15.1108 12.6777L15.1108 12.6777C15.0909 12.6927 15.071 12.7077 15.0471 12.7226L14.9037 12.8126C14.865 12.8429 14.8221 12.8681 14.7762 12.8876C14.7523 12.8951 14.7284 12.9063 14.7045 12.9175C14.6806 12.9288 14.6567 12.94 14.6328 12.9475L14.6169 12.9625C14.1069 13.1874 13.5811 13.2174 13.2465 13.0675C13.2305 13.06 13.2186 13.0525 13.2066 13.045L13.2066 13.045C13.1947 13.0375 13.1827 13.03 13.1668 13.0225L13.1349 12.9925C13.1285 12.9865 13.1222 12.9853 13.1158 12.9841C13.1062 12.9823 13.0967 12.9805 13.0871 12.9625C13.0791 12.9475 13.0672 12.9363 13.0552 12.925C13.0433 12.9138 13.0313 12.9025 13.0234 12.8876C12.9654 12.8216 12.9238 12.7443 12.9018 12.6613C12.8797 12.5783 12.8777 12.4916 12.8959 12.4078C12.9596 11.988 13.3421 11.5382 13.8839 11.2234C14.0748 11.1172 14.2779 11.0317 14.4894 10.9685ZM16.2103 11.973C16.2103 11.995 16.2018 12.0089 16.191 12.0265C16.187 12.033 16.1827 12.0399 16.1785 12.048C16.1785 12.0543 16.1785 12.0579 16.1773 12.0611C16.1757 12.0656 16.1718 12.0693 16.1625 12.078C16.1478 12.1207 16.1263 12.1611 16.0988 12.1979C15.8999 12.5368 15.6221 12.829 15.2861 13.0525L15.1427 13.1424C15.0985 13.1731 15.0503 13.1982 14.9993 13.2174H14.9834C14.9754 13.2249 14.9674 13.2286 14.9595 13.2324C14.9515 13.2361 14.9435 13.2399 14.9356 13.2474C14.9196 13.2624 14.8877 13.2774 14.8559 13.2924H14.8399C14.832 13.2924 14.824 13.2961 14.816 13.2999C14.8081 13.3036 14.8001 13.3073 14.7921 13.3073C14.7631 13.324 14.7304 13.3342 14.6965 13.3373L14.6647 13.3523H14.6487C14.6408 13.3523 14.6328 13.3561 14.6248 13.3598C14.6169 13.3636 14.6089 13.3673 14.6009 13.3673C14.585 13.3673 14.5372 13.3823 14.5053 13.3973L14.4734 13.4123H14.4575C14.4416 13.4198 14.4256 13.4235 14.4097 13.4273L14.4097 13.4273C14.3938 13.431 14.3778 13.4348 14.3619 13.4423C14.33 13.4573 14.33 13.4573 14.2982 13.4573H14.2822C14.2554 13.4608 14.2288 13.4658 14.2025 13.4723C14.1801 13.47 14.1575 13.4753 14.1388 13.4873H14.1229C14.1142 13.4863 14.1055 13.4871 14.0972 13.4897C14.0889 13.4923 14.0814 13.4966 14.0751 13.5022H14.0273C14.0034 13.5022 13.9755 13.506 13.9476 13.5097L13.9476 13.5097C13.9197 13.5135 13.8918 13.5172 13.8679 13.5172H13.6608C13.6281 13.5196 13.5953 13.5145 13.5652 13.5022C13.5565 13.5032 13.5477 13.5024 13.5395 13.4998C13.5312 13.4972 13.5236 13.4929 13.5174 13.4873C13.5014 13.4873 13.4855 13.4835 13.4695 13.4798L13.4695 13.4798C13.4536 13.476 13.4377 13.4723 13.4217 13.4723C13.4031 13.4723 13.3953 13.4671 13.3889 13.4629C13.3844 13.4598 13.3805 13.4573 13.3739 13.4573L14.2504 14.7916L16.1307 14.7766L17.1027 13.1574L16.2263 11.8081C16.2273 11.8162 16.2264 11.8245 16.2237 11.8323C16.2209 11.84 16.2164 11.8472 16.2103 11.8531V11.8831C16.2103 11.8893 16.2076 11.8955 16.2044 11.9028C16.1999 11.913 16.1944 11.9255 16.1944 11.943C16.2035 11.9508 16.2092 11.9615 16.2103 11.973ZM26.4086 17.3403C26.3718 17.165 26.3016 16.9974 26.2015 16.8456C26.0103 16.5607 25.7712 16.3808 25.4366 16.3958H25.341C25.3251 16.3958 25.3131 16.3996 25.3012 16.4033C25.2892 16.407 25.2773 16.4108 25.2613 16.4108H25.2454C25.2454 16.4148 25.2437 16.4186 25.2407 16.4214C25.2377 16.4242 25.2337 16.4258 25.2295 16.4258C25.2209 16.4339 25.2097 16.4392 25.1976 16.4408C25.1896 16.4483 25.1856 16.4483 25.1817 16.4483C25.1777 16.4483 25.1737 16.4483 25.1657 16.4558C25.1578 16.4633 25.1458 16.4708 25.1339 16.4783C25.1219 16.4858 25.1099 16.4933 25.102 16.5007L25.0701 16.5157L25.0223 16.5607L24.9904 16.5907L24.9586 16.6207L24.9108 16.6657C24.9108 16.6807 24.9108 16.6807 24.8948 16.6957L24.863 16.7256L24.847 16.7406C24.8391 16.7556 24.8271 16.7706 24.8152 16.7856C24.8032 16.8006 24.7913 16.8156 24.7833 16.8306C24.7586 16.8636 24.7373 16.8988 24.7195 16.9355L24.7036 16.9655V16.9805C24.7036 17.0025 24.6951 17.0164 24.6842 17.034L24.6784 17.0437C24.6762 17.0474 24.674 17.0513 24.6717 17.0555L24.6558 17.1004C24.6399 17.1304 24.6239 17.1754 24.6239 17.1904C24.6239 17.1951 24.6239 17.1984 24.6234 17.2015C24.6224 17.2084 24.6189 17.2149 24.608 17.2353L24.608 17.2354L24.608 17.2354C24.5921 17.2654 24.5761 17.2954 24.5761 17.3253C24.5761 17.3403 24.5721 17.3516 24.5682 17.3628C24.5642 17.3741 24.5602 17.3853 24.5602 17.4003C24.5602 17.4153 24.5562 17.4303 24.5522 17.4453C24.5482 17.4603 24.5443 17.4753 24.5443 17.4903V17.5352C24.5443 17.5502 24.5403 17.569 24.5363 17.5877C24.5323 17.6064 24.5283 17.6252 24.5283 17.6402V17.6702C24.5152 17.714 24.5098 17.7596 24.5124 17.8051V18.1049C24.5124 18.1371 24.517 18.1649 24.5212 18.1908C24.5249 18.2131 24.5283 18.234 24.5283 18.2549V18.2699C24.5921 18.7946 24.8311 19.2294 25.1498 19.4243C25.1741 19.4426 25.2009 19.4577 25.2295 19.4693C25.2374 19.4693 25.2454 19.473 25.2534 19.4768C25.2613 19.4805 25.2693 19.4843 25.2773 19.4843C25.2839 19.4843 25.2877 19.4868 25.2923 19.4898C25.2987 19.4941 25.3064 19.4992 25.3251 19.4992C25.341 19.4992 25.3569 19.503 25.3729 19.5067C25.3888 19.5105 25.4047 19.5142 25.4207 19.5142C25.5121 19.5255 25.6051 19.5179 25.6931 19.492C25.7812 19.4661 25.8622 19.4225 25.9306 19.3643C26.2812 19.0944 26.4883 18.5547 26.4883 17.955C26.4863 17.748 26.4596 17.5418 26.4086 17.3403ZM24.5921 16.4858C24.5841 16.4933 24.5761 16.5045 24.5682 16.5157C24.5602 16.527 24.5522 16.5382 24.5443 16.5457C24.5443 16.5532 24.5403 16.557 24.5363 16.5607C24.5323 16.5645 24.5283 16.5682 24.5283 16.5757C24.5124 16.5907 24.5004 16.6094 24.4885 16.6282C24.4765 16.6469 24.4646 16.6657 24.4487 16.6807C24.2377 17.0127 24.1173 17.3887 24.0981 17.7751V18.1049V18.1649C24.0956 18.1957 24.101 18.2265 24.114 18.2549V18.3148C24.114 18.3298 24.118 18.3448 24.122 18.3598L24.122 18.3598L24.122 18.3598C24.126 18.3748 24.13 18.3898 24.13 18.4048V18.4498C24.1289 18.4579 24.1298 18.4662 24.1326 18.4739C24.1353 18.4817 24.1399 18.4888 24.1459 18.4948C24.1459 18.5097 24.1499 18.5247 24.1539 18.5397L24.1539 18.5397C24.1578 18.5547 24.1618 18.5697 24.1618 18.5847L24.1778 18.6147V18.6297C24.1811 18.6615 24.192 18.6923 24.2096 18.7196C24.2096 18.7271 24.2136 18.7346 24.2176 18.7421C24.2216 18.7496 24.2256 18.7571 24.2256 18.7646V18.7796C24.2335 18.7946 24.2375 18.8058 24.2415 18.8171L24.2415 18.8171C24.2455 18.8283 24.2495 18.8396 24.2574 18.8546L24.2893 18.9145V18.9295C24.2893 18.937 24.2933 18.9445 24.2973 18.952C24.3013 18.9595 24.3052 18.967 24.3052 18.9745C24.3143 18.9823 24.32 18.993 24.3212 19.0045C24.3415 19.0525 24.3683 19.0978 24.4009 19.1394L24.4168 19.1544C24.4395 19.1919 24.4662 19.227 24.4965 19.2594C24.4965 19.2669 24.5004 19.2706 24.5044 19.2744C24.5084 19.2781 24.5124 19.2819 24.5124 19.2894L24.5283 19.3043C24.5363 19.3193 24.5482 19.3306 24.5602 19.3418C24.5722 19.3531 24.5841 19.3643 24.5921 19.3793C24.608 19.4093 24.608 19.4093 24.6239 19.4093C24.6499 19.4304 24.6715 19.4558 24.6877 19.4843C24.6938 19.49 24.6999 19.4935 24.705 19.4965C24.7135 19.5014 24.7195 19.505 24.7195 19.5142H23.0464L22.0744 18L23.0305 16.3808H24.7036L24.6717 16.4108L24.6558 16.4258L24.5921 16.4858ZM14.4894 25.0165C14.669 25.0742 14.8573 25.1046 15.0471 25.1064C15.3977 25.1214 15.7004 25.0015 15.812 24.7766C15.8199 24.7616 15.8279 24.7504 15.8359 24.7391C15.8438 24.7279 15.8518 24.7166 15.8598 24.7016C15.864 24.6936 15.8683 24.6867 15.8723 24.6802C15.8831 24.6626 15.8916 24.6486 15.8916 24.6267V24.3268C15.8916 24.3206 15.8889 24.317 15.8857 24.3127C15.8812 24.3067 15.8757 24.2994 15.8757 24.2819C15.8757 24.2519 15.8757 24.2219 15.8598 24.2069C15.8438 24.1919 15.8438 24.1919 15.8438 24.1769C15.8352 24.1688 15.8296 24.1583 15.8279 24.1469L15.812 24.1319C15.804 24.1169 15.796 24.0982 15.7881 24.0795C15.7801 24.0607 15.7721 24.042 15.7642 24.027C15.7491 23.989 15.7275 23.9536 15.7004 23.922L15.6845 23.8921V23.8771C15.6765 23.8621 15.6686 23.8508 15.6606 23.8396L15.6606 23.8396L15.6606 23.8396C15.6526 23.8283 15.6446 23.8171 15.6367 23.8021L15.6048 23.7721C15.5968 23.7571 15.5849 23.7459 15.5729 23.7346C15.561 23.7234 15.549 23.7121 15.5411 23.6972L15.5092 23.6672C15.5012 23.6522 15.4893 23.6409 15.4773 23.6297L15.4773 23.6297L15.4773 23.6297C15.4654 23.6184 15.4534 23.6072 15.4455 23.5922C15.4335 23.5696 15.4173 23.5493 15.3977 23.5322C15.3928 23.5277 15.388 23.5218 15.3827 23.5153C15.3706 23.5005 15.3561 23.4827 15.3339 23.4723L15.3021 23.4423C15.2861 23.4273 15.2702 23.416 15.2543 23.4048L15.2542 23.4048C15.2383 23.3936 15.2224 23.3823 15.2064 23.3673L15.1746 23.3523C15.1507 23.3373 15.1308 23.3223 15.1108 23.3073C15.0909 23.2924 15.071 23.2774 15.0471 23.2624L14.9037 23.1724C14.865 23.1421 14.8221 23.1169 14.7762 23.0975C14.7523 23.09 14.7284 23.0787 14.7045 23.0675C14.6806 23.0562 14.6567 23.045 14.6328 23.0375L14.6169 23.0225C14.1069 22.7976 13.5811 22.7676 13.2465 22.9175C13.2305 22.925 13.2186 22.9325 13.2066 22.94C13.1947 22.9475 13.1827 22.955 13.1668 22.9625L13.1349 22.9925C13.1285 22.9985 13.1222 22.9997 13.1158 23.0009C13.1062 23.0027 13.0967 23.0045 13.0871 23.0225C13.0791 23.0375 13.0672 23.0487 13.0552 23.06L13.0552 23.06C13.0433 23.0712 13.0313 23.0825 13.0234 23.0975C12.9654 23.1634 12.9238 23.2407 12.9018 23.3237C12.8797 23.4067 12.8777 23.4934 12.8959 23.5772C12.9596 23.997 13.3421 24.4468 13.8839 24.7616C14.0748 24.8678 14.2779 24.9533 14.4894 25.0165ZM16.2103 24.012C16.2103 23.99 16.2018 23.9761 16.191 23.9585L16.191 23.9585C16.187 23.952 16.1827 23.9451 16.1785 23.937C16.1785 23.9307 16.1785 23.9271 16.1773 23.9239C16.1757 23.9194 16.1718 23.9158 16.1625 23.907C16.1478 23.8643 16.1263 23.8239 16.0988 23.7871C15.8999 23.4482 15.6221 23.156 15.2861 22.9325L15.1427 22.8426C15.0985 22.812 15.0503 22.7868 14.9993 22.7676H14.9834C14.9754 22.7601 14.9674 22.7564 14.9595 22.7526C14.9515 22.7489 14.9435 22.7451 14.9356 22.7376C14.9196 22.7226 14.8878 22.7077 14.8559 22.6927L14.8559 22.6927H14.8399C14.832 22.6927 14.824 22.6889 14.816 22.6852C14.8081 22.6814 14.8001 22.6777 14.7921 22.6777C14.7631 22.661 14.7304 22.6508 14.6965 22.6477L14.6647 22.6327H14.6487C14.6408 22.6327 14.6328 22.6289 14.6248 22.6252C14.6169 22.6214 14.6089 22.6177 14.6009 22.6177C14.585 22.6177 14.5372 22.6027 14.5053 22.5877L14.4734 22.5727H14.4575C14.4416 22.5652 14.4256 22.5615 14.4097 22.5577C14.3938 22.554 14.3778 22.5502 14.3619 22.5427C14.33 22.5277 14.33 22.5277 14.2982 22.5277H14.2822C14.2554 22.5242 14.2288 22.5192 14.2025 22.5127C14.1801 22.515 14.1575 22.5097 14.1388 22.4978H14.1229C14.1142 22.4987 14.1055 22.4979 14.0972 22.4953C14.0889 22.4927 14.0814 22.4884 14.0751 22.4828H14.0273C14.0034 22.4828 13.9755 22.479 13.9476 22.4753L13.9476 22.4753C13.9197 22.4715 13.8918 22.4678 13.8679 22.4678H13.6608C13.6281 22.4654 13.5953 22.4705 13.5652 22.4828C13.5565 22.4818 13.5477 22.4826 13.5395 22.4852C13.5312 22.4878 13.5236 22.4921 13.5174 22.4978C13.5014 22.4978 13.4855 22.5015 13.4695 22.5052L13.4695 22.5052C13.4536 22.509 13.4377 22.5127 13.4217 22.5127C13.4031 22.5127 13.3953 22.5179 13.3889 22.5222C13.3844 22.5252 13.3805 22.5277 13.3739 22.5277L14.2504 21.1934L16.1307 21.2084L17.1027 22.8276L16.2263 24.1769C16.2273 24.1688 16.2264 24.1605 16.2237 24.1527C16.2209 24.145 16.2164 24.1379 16.2103 24.1319V24.1019C16.2103 24.0957 16.2076 24.0895 16.2044 24.0823C16.1999 24.072 16.1944 24.0595 16.1944 24.042C16.2035 24.0342 16.2092 24.0235 16.2103 24.012ZM14.9515 25.8861L19.5407 25.9011L16.3856 20.8036H10.0914L12.4178 24.5217L11.0953 26.5457L7.11154 19.949H7.12748L7 19.7541L7.63739 18.7046L17.6604 18.7196L22.7118 26.8606L22.0106 28L14.9993 27.985V27.97L13.7723 27.985L14.2504 27.1304L14.9515 25.8861Z" fill="#41E6AF"/>
</svg>
