<svg width="36" height="36" viewBox="0 0 36 36" fill="none" xmlns="http://www.w3.org/2000/svg">
<circle cx="18" cy="18" r="17.75" fill="white" stroke="#EFEFF4" stroke-width="0.5"/>
<path d="M18 16.6504L7.60767 22.7524V26.1061L18 20.0041L28.3923 26.1061V22.7524L18 16.6504Z" fill="#1269AB"/>
<path d="M10.6438 12.9492L18 8.70223L25.356 12.9492L28.1023 11.8326L18 6L7.89771 11.8326L10.6438 12.9492Z" fill="#3FBCED"/>
<path d="M25.356 13.6594V23.0509L24.2634 23.6818L26.5839 25.0442L28.3923 24V12.4249L25.356 13.6594ZM11.7366 23.6818L10.635 23.0457V13.6558L7.60767 12.4248V24L9.41611 25.0442L11.7366 23.6818Z" fill="#1269AB"/>
<path d="M23.6156 24.0557L17.9999 27.2979L12.3842 24.0557L10.0637 25.4181L17.9999 30.0001L25.9361 25.4181L23.6156 24.0557Z" fill="#3FBCED"/>
</svg>
