<svg width="36" height="36" viewBox="0 0 36 36" fill="none" xmlns="http://www.w3.org/2000/svg">
<circle cx="18" cy="18" r="18" fill="black"/>
<rect x="11.52" y="20.7119" width="4.50683" height="5.14245" fill="black"/>
<path d="M11.4928 15.2681C10.0251 15.0985 9.85519 16.3132 10.2634 16.5751C10.5691 16.7725 11.5492 16.8747 12.0167 16.913H12.0174C12.2293 16.9371 12.4352 16.8299 12.5424 16.639C12.7472 16.1876 12.6111 15.3973 11.4928 15.2681Z" fill="white"/>
<path d="M15.5861 16.9515C16.0361 16.9129 16.98 16.8109 17.274 16.6142C17.667 16.3527 17.5034 15.1403 16.0908 15.3096C15.0142 15.4385 14.8832 16.2278 15.0804 16.6783C15.1836 16.8684 15.3815 16.9755 15.5854 16.9511L15.5861 16.9515Z" fill="white"/>
<path d="M18.5922 17.1448C18.5827 17.0233 18.4598 16.9335 18.3174 16.9446C18.2856 16.9471 18.2546 16.9545 18.2259 16.9664C17.3354 17.3311 14.837 18.5386 15.1803 19.172C15.4741 19.6002 17.5513 18.9524 18.552 18.2549C18.7019 18.1652 18.7804 18.0115 18.7545 17.8592L18.7545 17.8585L18.5922 17.1448Z" fill="#202740"/>
<path d="M9.27956 16.9694C9.25179 16.9598 9.22217 16.9546 9.19255 16.9546C9.0567 16.9546 8.94674 17.0569 8.94674 17.1834L8.84571 17.9344C8.84497 18.0911 8.92717 18.2382 9.0656 18.3278C10.0662 18.9679 12.0836 19.4705 12.3308 19.0041C12.6096 18.3216 10.1509 17.2746 9.27956 16.9694Z" fill="#202740"/>
<path d="M31.9674 15.623C31.6504 15.623 31.3741 15.7865 31.2156 16.0313H26.4601L25.4116 17.063H20.9722C21.0751 17.3637 21.169 17.6761 21.2543 18.0004H25.8061L26.8534 16.9687H31.2148C31.3728 17.2145 31.6499 17.3785 31.9669 17.3785C32.4598 17.3785 32.8589 16.9854 32.8589 16.5008C32.8589 16.0162 32.4598 15.623 31.9674 15.623Z" fill="#6FBB3F"/>
<path d="M28.0762 20.0055C28.2402 20.2302 28.4983 20.3774 28.7918 20.3774C29.2876 20.3774 29.6891 19.9633 29.6891 19.4529C29.6891 18.9424 29.2873 18.5283 28.7918 18.5283C28.4495 18.5283 28.1557 18.728 28.0044 19.0182H21.5005C21.5621 19.3382 21.6176 19.6675 21.6682 20.0055H28.0762Z" fill="#6FBB3F"/>
<path d="M21.6963 20.9189V20.9202C21.6963 20.9202 21.6976 20.9202 21.6985 20.9202C21.6778 21.2343 21.6102 21.5422 21.5005 21.8355H25.8568L26.9343 22.8776H29.879C30.0386 23.1207 30.3181 23.2831 30.6379 23.2831C31.1353 23.2831 31.5382 22.8932 31.5382 22.4125C31.5382 21.9319 31.1351 21.5419 30.6379 21.5419C30.3181 21.5419 30.0386 21.7047 29.879 21.9478H27.3334L26.2557 20.9058H21.6946C21.6943 20.9101 21.6946 20.9145 21.6946 20.9189H21.6969H21.6963Z" fill="#6FBB3F"/>
<path d="M21.0101 22.7667C20.2936 23.765 19.4034 24.6153 18.3876 25.2791C18.363 25.2954 18.3382 25.3094 18.3136 25.3253C18.2132 25.3897 18.1124 25.4528 18.0098 25.5133C17.9058 25.5754 17.8022 25.6337 17.6983 25.6907C17.6906 25.6949 17.6826 25.6993 17.6749 25.7035C17.0618 26.0373 16.4484 26.2864 15.8582 26.46C15.8247 26.4702 15.7919 26.4817 15.7581 26.4916C15.7163 26.5037 15.6736 26.5123 15.6315 26.5237C15.5664 26.541 15.5017 26.5575 15.4373 26.5731C15.3423 26.5961 15.2473 26.6174 15.1513 26.6369C15.086 26.6502 15.0219 26.6617 14.9575 26.6728C14.8806 26.6862 14.8038 26.6999 14.7266 26.7107C14.6131 26.7273 14.5025 26.7401 14.3928 26.7509C14.3606 26.7541 14.3284 26.7582 14.2962 26.7611C14.1517 26.7735 14.0108 26.7815 13.8744 26.7844C13.8594 26.7847 13.8444 26.7866 13.8294 26.7869V26.7885H13.8287C13.8138 26.7888 13.7978 26.7878 13.7829 26.7878H13.7761C13.7733 26.7878 13.7707 26.7885 13.7679 26.7885V26.7878H13.7653V26.7888H13.7433C13.7417 26.7888 13.7395 26.7888 13.7379 26.7888V26.7872C12.0624 26.7639 9.74373 26.038 7.78156 24.1648C7.32849 23.7322 6.89422 23.2388 6.49152 22.6784C6.1242 22.1646 5.90962 21.558 5.87167 20.9276H5.87391C5.87391 20.9276 5.87616 20.927 5.87711 20.9266C5.85796 20.6766 5.86657 20.4252 5.90326 20.1771C6.0837 18.7321 6.47237 17.3208 7.05649 15.9867C6.55019 14.8106 6.20423 13.5717 6.02791 12.3032C5.91472 11.3294 5.95585 10.3303 6.33208 9.51132C6.41849 9.32654 6.62064 9.22492 6.82087 9.26603C7.15853 9.33164 7.73755 9.54476 8.54327 10.1828C9.37736 10.8741 10.1289 11.6597 10.7825 12.5233C11.7374 12.2165 12.7358 12.0649 13.7388 12.0745V12.0732C13.7529 12.0732 13.7685 12.0745 13.7841 12.0745C13.7998 12.0745 13.8138 12.0732 13.8294 12.0732V12.0745C14.805 12.0662 15.7759 12.2092 16.7076 12.4982C17.3546 11.6457 18.0971 10.8706 18.9213 10.1876C19.7296 9.54444 20.3096 9.33132 20.6482 9.26603C20.8484 9.22492 21.0506 9.32654 21.1373 9.51163C21.5151 10.3345 21.5556 11.3379 21.4399 12.3166C21.2718 13.5242 20.9489 14.7051 20.4795 15.8306C20.4728 15.8465 20.4668 15.8628 20.4601 15.8787C20.5248 16.0116 20.586 16.1488 20.6459 16.2878H22.9286L24.6009 14.6178H25.8391C25.9962 14.8654 26.2712 15.0307 26.5866 15.0307C27.0769 15.0307 27.4736 14.6338 27.4736 14.1445C27.4736 13.6552 27.0763 13.2582 26.5866 13.2582C26.2712 13.2582 25.9962 13.4239 25.8391 13.6714H24.2087L22.536 15.3413H21.7316C22.0603 14.3971 22.2998 13.4239 22.4382 12.4335L22.4407 12.4131C22.5963 11.0946 22.4656 9.96782 22.0498 9.0631L22.0505 9.06184C21.811 8.55308 21.2999 8.22783 20.7371 8.22656C20.6431 8.22656 20.5494 8.23549 20.4572 8.25395C19.7972 8.3817 19.0693 8.7592 18.2935 9.37689L18.2776 9.38962C17.5714 9.97546 16.9206 10.6244 16.3329 11.3287C15.5384 11.1395 14.7247 11.0439 13.9078 11.0439H13.6492C12.8085 11.0439 11.9709 11.1459 11.1549 11.3478C10.5606 10.6339 9.90188 9.97641 9.18669 9.38326L9.17076 9.37052C8.20753 8.60757 7.471 8.34348 7.02493 8.25652C6.36526 8.12111 5.69949 8.45751 5.41764 9.06852C5.00538 9.96178 4.87402 11.0812 5.02514 12.3937L5.02834 12.4179C5.19636 13.6281 5.50883 14.8138 5.95873 15.9498C5.43996 17.2533 5.08574 18.6168 4.90432 20.0079C4.8635 20.2886 4.85011 20.5727 4.86446 20.8559C4.86253 20.8919 4.86253 20.9282 4.86446 20.9645C4.86765 21.0162 4.87146 21.0675 4.87624 21.1184C4.94927 21.8849 5.22378 22.6185 5.67176 23.2451C6.07446 23.8051 6.52563 24.3289 7.02015 24.8099L7.07628 24.865C7.11962 24.9064 7.163 24.9466 7.20669 24.9864L7.23569 25.0128C7.23569 25.0128 7.3068 25.0794 7.32529 25.0963C7.35559 25.1237 7.38618 25.1501 7.4168 25.1769L7.49969 25.2495C7.52552 25.2724 7.55167 25.2954 7.57814 25.318C7.60461 25.3406 7.62532 25.3572 7.64891 25.3766L7.72736 25.4416C7.76241 25.4709 7.79781 25.4999 7.83289 25.5286C7.85233 25.5439 7.95757 25.6251 7.95757 25.6251C8.00091 25.6598 8.04587 25.6942 8.09115 25.7283L8.16831 25.7844C8.2289 25.8293 8.28947 25.8739 8.35004 25.9166L8.41254 25.9599C8.47887 26.0061 8.54552 26.0523 8.6128 26.0969L8.6638 26.1297C8.73428 26.1759 8.80473 26.2211 8.87454 26.2648L8.91792 26.2915C8.99127 26.3364 9.06426 26.381 9.13885 26.4244L9.17333 26.4435C9.24985 26.4868 9.32638 26.5305 9.40414 26.5738L9.42997 26.5875C9.50938 26.6308 9.58876 26.6722 9.66687 26.7123L9.69397 26.7257C9.77337 26.7659 9.85309 26.805 9.93281 26.8426L9.95767 26.8538C10.038 26.8917 10.1184 26.9283 10.1965 26.9624L10.2233 26.9735C10.3027 27.0083 10.3823 27.042 10.4608 27.0739L10.4882 27.0847C10.567 27.1166 10.6461 27.1475 10.7222 27.1762L10.7554 27.188C10.8319 27.2163 10.9088 27.244 10.9859 27.2708L11.0245 27.2835C11.0982 27.3084 11.1715 27.3329 11.2445 27.3558L11.2898 27.3692C11.3606 27.3909 11.4311 27.4125 11.5012 27.4323L11.5547 27.4469C11.622 27.4657 11.6893 27.4842 11.7553 27.5011L11.8229 27.5174C11.8844 27.5326 11.9463 27.5476 12.0081 27.5607L12.0821 27.5766C12.1401 27.5893 12.1982 27.6018 12.2559 27.6129L12.3564 27.6314C12.4045 27.6403 12.4526 27.6496 12.5004 27.6575L12.6309 27.6779C12.6678 27.6836 12.7048 27.6894 12.7412 27.6945C12.7676 27.6983 12.8821 27.7126 12.8821 27.7126C12.914 27.7168 12.9462 27.7209 12.9781 27.7247C13.01 27.7286 13.2102 27.7464 13.2102 27.7464C13.2465 27.7496 13.2819 27.7515 13.3189 27.7537L13.4388 27.7617C13.4809 27.7639 13.5224 27.7652 13.5638 27.7668L13.6454 27.7696C13.6757 27.7725 13.7063 27.7738 13.7369 27.7738H13.8287C13.859 27.7738 13.8887 27.7722 13.9184 27.77C14.3583 27.7579 14.7965 27.7101 15.2288 27.6279L15.2562 27.6228C15.3375 27.6075 15.4195 27.5906 15.502 27.5725L15.5158 27.5696C17.169 27.1934 18.7052 26.4193 19.9904 25.3145C20.6023 24.8013 21.152 24.2196 21.6363 23.5857H21.8808L23.5369 25.2403H27.262C27.4192 25.4878 27.6942 25.6531 28.0096 25.6531C28.4996 25.6531 28.8966 25.2562 28.8966 24.7669C28.8966 24.2776 28.4993 23.8806 28.0096 23.8806C27.6942 23.8806 27.4192 24.0463 27.262 24.2938H23.9285L22.2724 22.6392H21.1016C21.0924 22.6526 21.0844 22.6663 21.0748 22.6797C21.0538 22.7096 21.0314 22.7383 21.0101 22.7679V22.7667Z" fill="#6FBB3F"/>
<path d="M19.3872 13.7739C18.9317 13.2322 18.3956 12.7845 17.8022 12.4531C18.395 12.7852 18.9311 13.2328 19.3872 13.7739Z" fill="#6FBB3F"/>
<path d="M10.6701 21.9624V21.9615C10.106 21.4122 9.46314 21.0867 8.82104 20.9058C9.4628 21.087 10.106 21.4125 10.6701 21.9624Z" fill="#6FBB3F"/>
<path d="M8.33137 10.9235C7.69254 10.3437 7.19515 10.0174 6.91357 9.90625C6.4968 11.2066 6.98069 13.2538 7.43464 14.677C7.5863 14.454 7.7501 14.2398 7.92479 14.0354C8.46198 13.4069 9.11296 12.8899 9.84159 12.5122C9.28499 11.8494 8.77446 11.326 8.33171 10.9238L8.33137 10.9235Z" fill="#E65D02"/>
<path d="M20.6808 9.82227C20.1986 10.015 19.0978 10.8301 17.7268 12.4714C18.4103 12.8188 19.0281 13.2881 19.5533 13.8561C19.6204 13.9288 19.6868 14.0025 19.7509 14.0779H19.7515C19.9014 14.2548 20.045 14.441 20.1822 14.6383C20.5219 13.5418 20.866 12.1169 20.8418 10.9208C20.8338 10.5224 20.7845 10.1493 20.6808 9.82227Z" fill="#E65D02"/>
<path d="M20.7041 16.2038C20.6441 16.0647 20.5822 15.9278 20.517 15.7951C20.5237 15.7791 20.5299 15.7629 20.5366 15.747C21.0091 14.6223 21.3345 13.4421 21.5033 12.2353C21.6198 11.2573 21.579 10.2545 21.1987 9.43225C21.1117 9.24727 20.9079 9.14604 20.7064 9.18679C20.3658 9.25173 19.7817 9.46502 18.9681 10.1078C18.1387 10.7903 17.3909 11.5652 16.7397 12.4168C15.8019 12.128 14.8246 11.9854 13.8425 11.9933V11.9921C13.8271 11.9921 13.8126 11.9933 13.7969 11.9933C13.7812 11.9933 13.7658 11.9921 13.7513 11.9921V11.9933C12.7416 11.9838 11.7367 12.135 10.7754 12.4419C10.1175 11.5785 9.361 10.7938 8.52141 10.103C7.71034 9.46534 7.1275 9.25269 6.78761 9.18679C6.58638 9.14572 6.38289 9.24727 6.29558 9.43193C5.91687 10.2504 5.87546 11.2484 5.98941 12.2219C6.16657 13.4892 6.5148 14.7273 7.02478 15.903C6.43649 17.2362 6.04556 18.6465 5.8639 20.0905C5.82701 20.3385 5.81832 20.5897 5.83758 20.8396C6.35304 20.6724 7.65741 20.3445 8.96494 20.7781C9.55936 20.9748 10.1544 21.3285 10.6766 21.9261L10.6776 21.927C11.0332 20.5276 12.3234 19.5624 13.778 19.6076H13.7802C14.2985 19.5984 14.8118 19.7088 15.2794 19.93C15.6757 20.137 16.0192 20.4216 16.2917 20.7622C16.2984 20.7705 16.3039 20.7801 16.3106 20.7883C16.3712 20.8657 16.4294 20.9449 16.4826 21.0274C16.4926 21.0427 16.5003 21.0596 16.5099 21.0749C16.5578 21.1522 16.6043 21.2302 16.6454 21.3114C16.6588 21.3378 16.6688 21.3661 16.6816 21.3932C16.7156 21.4654 16.75 21.5374 16.7782 21.6122C16.794 21.6536 16.8049 21.6969 16.819 21.7392C16.8399 21.8016 16.8627 21.8634 16.8793 21.9274C18.5778 19.9813 21.0498 20.6151 21.7553 20.8507C21.7555 20.8463 21.7553 20.8418 21.7553 20.8374C21.7739 20.5878 21.7652 20.3369 21.7273 20.0892H21.7283C21.7209 20.0393 21.7122 19.9912 21.7045 19.9418C21.6541 19.6181 21.5986 19.3026 21.5377 18.996C21.468 18.6481 21.3906 18.3126 21.3056 17.9875C21.2199 17.6603 21.1262 17.3451 21.0232 17.0417C20.9246 16.7517 20.819 16.4712 20.7032 16.2038H20.7041ZM7.89394 13.955C7.72352 14.1489 7.56367 14.352 7.41572 14.5634C7.41572 14.5634 7.41572 14.5634 7.4154 14.564C6.97185 13.2136 6.50035 11.272 6.90701 10.0396C7.18238 10.145 7.66734 10.4544 8.29064 11.0045C8.72261 11.3859 9.22078 11.8822 9.76381 12.5107C9.05288 12.8688 8.41837 13.3591 7.89394 13.955ZM12.1267 18.96C11.9123 19.3911 10.1631 18.9269 9.29552 18.3351C9.17549 18.2524 9.10425 18.1164 9.10489 17.9716L9.19249 17.2776C9.19249 17.1608 9.28785 17.0662 9.40562 17.0662C9.43131 17.0662 9.45699 17.071 9.48103 17.0799C10.2366 17.362 12.3683 18.3294 12.1267 18.96ZM12.4515 16.6183C12.3539 16.7848 12.1665 16.8784 11.9736 16.8567H11.9729C11.5473 16.8236 10.6548 16.7345 10.3768 16.5623C10.0052 16.3337 10.1598 15.2739 11.496 15.4219C12.5141 15.5346 12.638 16.2245 12.4515 16.6183ZM15.1831 16.6183C14.9966 16.2245 15.1205 15.5346 16.1386 15.4219C17.4744 15.2739 17.6291 16.3337 17.2574 16.5623C16.9791 16.7345 16.0869 16.8236 15.6613 16.8571H15.6607C15.4678 16.8777 15.2807 16.7848 15.1831 16.6183ZM18.3349 18.3345C17.4673 18.926 15.7178 19.3905 15.5037 18.9594C15.262 18.3288 17.3938 17.3613 18.1494 17.0793C18.1737 17.07 18.1997 17.0652 18.226 17.0652C18.3438 17.0652 18.4392 17.1601 18.4392 17.2769L18.5268 17.971V17.9716C18.5386 18.119 18.4636 18.2603 18.3349 18.3345ZM20.11 14.4707C19.9788 14.2889 19.8417 14.1177 19.698 13.955H19.6973C19.636 13.8856 19.5728 13.8178 19.5083 13.7509C19.0053 13.2291 18.4144 12.7975 17.7604 12.4772C19.0721 10.968 20.1258 10.2182 20.5873 10.0406C20.6865 10.3414 20.7333 10.6846 20.741 11.0511C20.7645 12.1516 20.4355 13.4625 20.11 14.4707Z" fill="#F68D36"/>
<path d="M21.7622 20.8398V20.8384H21.76C21.0521 20.5995 18.5716 19.9564 16.8673 21.9303C16.8502 21.8654 16.8273 21.8028 16.8067 21.7395C16.7925 21.6969 16.7816 21.6527 16.7658 21.6107C16.7371 21.5348 16.7027 21.4619 16.6688 21.3886C16.656 21.3611 16.646 21.3324 16.6324 21.3056C16.5913 21.2233 16.5445 21.1439 16.4966 21.0657C16.4869 21.0499 16.4791 21.0331 16.4692 21.0176C16.4157 20.9337 16.3574 20.8536 16.2966 20.7752C16.2898 20.7664 16.2843 20.7571 16.2776 20.7487C16.0041 20.4036 15.6595 20.1146 15.2618 19.9048C14.7922 19.6804 14.2772 19.5684 13.7574 19.5777H13.7552C12.2956 19.5316 11.0009 20.5108 10.6441 21.93L10.6431 21.929V21.93C10.1191 21.3237 9.52235 20.9647 8.92586 20.7648C7.61348 20.3251 6.30493 20.6577 5.78769 20.8272C5.78769 20.8272 5.78545 20.8278 5.78449 20.8281H5.78223C5.82024 21.4667 6.0373 22.0817 6.40831 22.6025C6.81508 23.1704 7.25371 23.6708 7.71137 24.1089C9.69301 26.0072 12.0354 26.743 13.7278 26.7666V26.7682C13.7294 26.7682 13.7317 26.7682 13.7333 26.7682H13.7555V26.7672H13.758V26.7678C13.761 26.7678 13.7635 26.7675 13.7664 26.7672H13.7732C13.7883 26.7672 13.8045 26.7682 13.8196 26.7682L13.8202 26.7678V26.7662C13.8354 26.7659 13.8505 26.7643 13.8656 26.7637C14.0035 26.7607 14.1461 26.7527 14.2917 26.7401C14.3242 26.7372 14.3568 26.733 14.3893 26.7298C14.5001 26.7188 14.6118 26.7059 14.7265 26.6891C14.8044 26.6778 14.8821 26.6642 14.9597 26.6507C15.0248 26.639 15.0895 26.6274 15.1555 26.6142C15.2521 26.5948 15.3484 26.5728 15.4444 26.5496C15.5094 26.5341 15.5748 26.517 15.6405 26.4996C15.683 26.488 15.7262 26.4792 15.7684 26.467C15.8022 26.457 15.8357 26.4453 15.8695 26.435C16.4656 26.259 17.0849 26.0066 17.7046 25.6682C17.7123 25.664 17.7204 25.6595 17.7281 25.6553C17.8331 25.5975 17.9381 25.5384 18.0428 25.4755C18.1465 25.4141 18.2486 25.3499 18.3497 25.285C18.3745 25.2689 18.3996 25.2547 18.4244 25.2382C19.4505 24.5654 20.3497 23.7037 21.0734 22.6919C21.0949 22.6619 21.1175 22.6329 21.1387 22.6025C21.1484 22.5892 21.1565 22.5751 21.1658 22.5615C21.3329 22.3193 21.4679 22.0585 21.5674 21.7841C21.6769 21.4816 21.7439 21.1639 21.7645 20.8398C21.7645 20.8398 21.7632 20.8398 21.7622 20.8398ZM14.2402 24.7259C14.2247 24.7207 14.2077 24.7175 14.188 24.7175C14.0341 24.7175 13.9964 25.1772 13.7751 25.1917V25.1927C13.7751 25.1927 13.7738 25.1927 13.7729 25.192C13.7719 25.192 13.7706 25.1914 13.7706 25.1914C13.7693 25.1914 13.7674 25.1924 13.7661 25.1924L13.7658 25.1914C13.7626 25.1914 13.7594 25.1901 13.7561 25.1891H13.7545C13.5429 25.1591 13.5007 24.7175 13.3539 24.7175C13.2006 24.7175 13.1867 24.9047 13.0428 24.9047C13.0235 24.9041 13.0041 24.9018 12.9851 24.8976C12.8724 24.8637 12.7958 24.7588 12.7983 24.6406V24.5044H14.7455V24.6406C14.7478 24.7588 14.6714 24.8637 14.5587 24.8976C14.5397 24.9018 14.5204 24.9044 14.501 24.9047C14.483 24.9047 14.4672 24.9018 14.4528 24.8966C14.3664 24.866 14.3336 24.7565 14.2415 24.7255L14.2402 24.7259ZM15.7674 24.4094H15.6508L15.3848 25.1133C15.378 25.1326 15.3597 25.1455 15.3394 25.1459C15.3271 25.1452 15.3152 25.1404 15.3069 25.1317C15.2547 25.0723 15.2083 25.008 15.1681 24.9396C15.1593 24.9254 15.1548 24.9092 15.1545 24.8925V24.0918H15.1536C15.0202 24.1099 14.8859 24.1199 14.7519 24.1328C14.4299 24.1634 14.1069 24.1844 13.7829 24.1835H13.7552C13.2982 24.1835 12.8415 24.1512 12.389 24.0869V24.0879H12.3877V24.8927C12.3877 24.9096 12.3832 24.9257 12.3742 24.9399C12.3342 25.008 12.2879 25.0719 12.236 25.1313C12.217 25.1498 12.1867 25.1501 12.1677 25.1313C12.1626 25.1262 12.1587 25.1204 12.1565 25.1136L11.8904 24.4098H11.7758C11.7204 24.4121 11.6724 24.371 11.6659 24.3155C11.6602 24.1347 11.6154 23.9571 11.5342 23.7957C11.5194 23.7612 11.5355 23.7215 11.5696 23.7063C11.5771 23.7034 11.5845 23.7011 11.5926 23.7008C11.8106 23.6963 12.275 23.686 12.37 23.6921H13.1932C13.2711 23.5646 13.3906 23.4677 13.5313 23.4183V22.8647H13.5304C13.3474 22.8407 13.1941 22.7904 13.0666 22.7206C12.5124 22.4168 12.4344 21.7453 12.4495 21.3146C12.4566 21.0954 12.6363 20.9214 12.8553 20.9214H14.6876C14.9065 20.9214 15.0859 21.0954 15.093 21.3146C15.0975 21.446 15.093 21.5997 15.0698 21.7582C14.998 22.2406 14.7468 22.7697 14.0112 22.864V23.4183C14.152 23.4677 14.2715 23.5646 14.3494 23.6921H15.1726C15.2675 23.6863 15.7323 23.6956 15.95 23.7008C15.9877 23.7027 16.0164 23.7347 16.0144 23.7722C16.0141 23.7802 16.0122 23.7883 16.0089 23.7957C15.9272 23.9571 15.8824 24.1347 15.8772 24.3158C15.8721 24.3571 15.8444 24.3901 15.8073 24.4036C15.7951 24.4082 15.7816 24.4101 15.7677 24.4098L15.7674 24.4094Z" fill="white"/>
</svg>
