<svg width="36" height="36" viewBox="0 0 36 36" fill="none" xmlns="http://www.w3.org/2000/svg">
<circle cx="18" cy="18" r="18" fill="black"/>
<path d="M17.9999 8.52789C18.8468 8.52789 19.6085 8.9985 19.9875 9.7561L26.2374 22.2563C26.5842 22.9504 26.5479 23.7583 26.1403 24.4184C25.7323 25.0786 25.0259 25.4726 24.2497 25.4726H11.75C10.9743 25.4726 10.2675 25.0786 9.85988 24.4184C9.45184 23.7583 9.41556 22.9504 9.76285 22.2563L16.0123 9.7561C16.3913 8.9985 17.153 8.52789 17.9999 8.52789ZM17.9999 7C16.5794 7 15.281 7.80248 14.6458 9.07286L8.39591 21.573C7.81468 22.7355 7.87679 24.116 8.56003 25.2214C9.24328 26.3267 10.4502 27 11.75 27H24.2502C25.55 27 26.7569 26.3272 27.4402 25.2214C28.1234 24.116 28.1855 22.7355 27.6043 21.573L21.354 9.07286C20.7188 7.80248 19.4203 7 17.9999 7Z" fill="#5DEB5A"/>
</svg>
