<svg width="36" height="36" viewBox="0 0 36 36" fill="none" xmlns="http://www.w3.org/2000/svg">
<circle cx="18" cy="18" r="18" fill="black"/>
<path d="M27.9429 24.0983C27.9463 23.5616 29.9981 23.5842 29.9841 23.0816C29.9741 22.6947 29.0659 22.7039 29.3513 21.8845C29.7713 20.6629 30 19.3515 30 17.9878C30 11.367 24.6273 6 18 6C11.3727 6 6 11.367 6 17.9873C6 19.3558 6.23017 20.6701 6.65351 21.8955C6.65591 21.9013 6.67945 21.9709 6.67945 21.9709C6.85004 22.5143 6.0024 22.7274 6.0024 23.0519C6.0024 23.5602 7.78753 23.4916 7.78753 24.0834C7.78753 24.5985 6.02258 24.7573 6.02258 25.2772C6.02258 25.9953 9.93161 25.7452 9.9811 26.363C10.0195 26.8396 8.63709 26.8679 8.6294 27.3772C8.61595 28.1899 13.9646 27.924 13.9646 28.4649C13.9646 28.8739 11.5317 28.7265 11.5317 29.2099C11.5317 29.6933 14.7344 30 18.2628 30C21.7913 30 24.2266 29.6078 24.2266 29.184C24.2266 28.7601 21.9552 28.848 22.0013 28.4649C22.0839 27.7977 27.1255 28.139 27.1255 27.3671C27.1255 26.9601 25.7388 26.8655 25.7839 26.4268C25.8474 25.8066 30 25.8993 30 25.2556C30 24.7497 27.9429 24.6253 27.9453 24.1002L27.9429 24.0983ZM24.7253 22.5416C24.6158 22.9506 25.8795 23.0115 25.8795 23.4387C25.8795 23.9586 22.0248 23.7512 22.0633 24.4386C22.0868 24.8716 24.8022 24.9445 24.7503 25.3967C24.6758 26.0514 20.5458 25.7246 20.5049 26.3514C20.4756 26.8113 22.5202 26.8271 22.525 27.2467C22.5284 27.5995 20.9182 27.7924 17.8352 27.7924C14.3221 27.7924 12.6148 27.6033 12.809 27.2087C12.9906 26.8401 16.1005 26.9087 16.0693 26.3294C16.0376 25.75 10.5467 25.9214 10.3809 25.3597C10.243 24.8932 12.1852 24.7972 12.1727 24.3541C12.1603 23.902 9.68558 24.0047 9.63128 23.458C9.5962 23.0984 10.9244 23.1219 10.8667 22.6703C10.8249 22.341 10.2766 22.3875 9.95131 21.7098C9.42658 20.5769 9.13202 19.3164 9.13202 17.9878C9.13202 13.0965 13.1006 9.13206 17.9971 9.13206C22.8936 9.13206 26.8622 13.0965 26.8622 17.9878C26.8622 19.194 26.6205 20.3436 26.1828 21.392C25.7661 22.3342 24.8287 22.1451 24.7225 22.5416H24.7253Z" fill="white"/>
</svg>
