<svg width="36" height="36" viewBox="0 0 36 36" fill="none" xmlns="http://www.w3.org/2000/svg">
<rect width="36" height="36" rx="18" fill="white"/>
<circle cx="18" cy="18" r="18" fill="#04795B"/>
<path d="M13.0658 19.6578C13.7824 19.6578 14.444 19.419 14.9769 19.0057L10.6034 14.6337C10.1899 15.1573 9.95097 15.8186 9.95097 16.5442C9.94179 18.2617 11.3384 19.6578 13.0658 19.6578Z" fill="white"/>
<path d="M26.0763 16.535C26.0763 15.8186 25.8374 15.1573 25.4238 14.6245L21.0503 18.9965C21.574 19.4098 22.2356 19.6486 22.9614 19.6486C24.6796 19.6578 26.0763 18.2617 26.0763 16.535Z" fill="white"/>
<path d="M28.2814 11.7865L26.3427 13.7245C26.9858 14.496 27.3718 15.4696 27.3718 16.5534C27.3718 18.9873 25.3963 20.9621 22.9614 20.9621C21.8864 20.9621 20.9033 20.5763 20.1315 19.9334L18.009 22.0551L15.8865 19.9334C15.1147 20.5763 14.1408 20.9621 13.0566 20.9621C10.6217 20.9621 8.6462 18.9873 8.6462 16.5534C8.6462 15.4788 9.03212 14.496 9.67531 13.7245L7.73658 11.7865C6.634 13.6051 6 15.7268 6 18.0046C6 24.636 11.3751 30 17.9998 30C24.6244 30 29.9996 24.6268 29.9996 18.0046C30.018 15.7176 29.384 13.5959 28.2814 11.7865Z" fill="white"/>
<path d="M26.6919 9.71983C24.5143 7.43283 21.427 6 18.009 6C14.591 6 11.513 7.43283 9.32614 9.71983C9.03214 10.0321 8.74733 10.3628 8.48084 10.7026L17.9998 20.2181L27.5188 10.6934C27.2799 10.3628 26.9951 10.023 26.6919 9.71983ZM18.009 7.56142C20.8206 7.56142 23.4301 8.64523 25.387 10.62L18.009 17.9954L10.6309 10.62C12.5972 8.64523 15.1974 7.56142 18.009 7.56142Z" fill="white"/>
</svg>
