<svg width="36" height="36" viewBox="0 0 36 36" fill="none" xmlns="http://www.w3.org/2000/svg">
<circle cx="18" cy="18" r="18" fill="#7B3FE4"/>
<path fill-rule="evenodd" clip-rule="evenodd" d="M18.6078 7.98045L26.3759 12.4654C26.7509 12.6819 26.9819 13.082 26.9819 13.5151V14.4886C26.9284 15.9475 25.7287 17.1138 24.2567 17.1138H11.7432C10.7224 17.1138 9.78024 17.4503 9.02154 18.0184V13.515C9.02154 13.082 9.25255 12.6819 9.62756 12.4654L17.3957 7.98044C17.7707 7.76394 18.2327 7.76394 18.6078 7.98045ZM7.20347 21.434C7.19984 21.5085 7.198 21.5835 7.198 21.659V21.7138H7.20347V22.4849C7.20347 23.5675 7.781 24.5678 8.71852 25.1091L16.4867 29.594C17.4242 30.1353 18.5793 30.1353 19.5168 29.594L27.2849 25.1091C28.2225 24.5678 28.8 23.5675 28.8 22.4849V14.5182C28.8012 14.4746 28.8019 14.4307 28.8019 14.3867V13.7134H28.8V13.5151C28.8 12.4325 28.2225 11.4322 27.2849 10.8909L19.5168 6.40596C18.5793 5.86468 17.4242 5.86468 16.4867 6.40596L8.71852 10.8909C7.78101 11.4322 7.20347 12.4325 7.20347 13.515V21.434ZM26.9819 18.0246V22.4849C26.9819 22.918 26.7509 23.3181 26.3759 23.5346L18.6078 28.0196C18.2327 28.2361 17.7707 28.2361 17.3957 28.0196L9.62755 23.5346C9.25255 23.3181 9.02154 22.918 9.02154 22.4849V21.4848C9.11137 20.0598 10.2955 18.9319 11.7432 18.9319H24.2567C25.2791 18.9319 26.2226 18.5943 26.9819 18.0246ZM14.2015 15.7384V13.6174H15.4136V15.7384H17.2316V13.3144C17.2316 12.4776 16.5533 11.7993 15.7166 11.7993H13.8985C13.0618 11.7993 12.3834 12.4776 12.3834 13.3144V15.7384H14.2015ZM15.4136 20.2836L15.4136 22.4047H14.2015L14.2015 20.2836H12.3834L12.3834 22.7077C12.3834 23.5444 13.0618 24.2227 13.8985 24.2227H15.7166C16.5533 24.2227 17.2316 23.5444 17.2316 22.7077V20.2836H15.4136ZM22.0798 22.4047V20.2836H23.8978V22.7077C23.8978 23.5444 23.2195 24.2227 22.3828 24.2227H20.5647C19.728 24.2227 19.0497 23.5444 19.0497 22.7077V20.2836H20.8677V22.4047H22.0798ZM20.8677 15.7384V13.6174H22.0798V15.7384H23.8978V13.3144C23.8978 12.4776 23.2195 11.7993 22.3828 11.7993H20.5647C19.728 11.7993 19.0497 12.4776 19.0497 13.3144V15.7384H20.8677Z" fill="white"/>
</svg>
