<svg width="36" height="36" viewBox="0 0 36 36" fill="none" xmlns="http://www.w3.org/2000/svg">
<rect width="36" height="36" rx="18" fill="black"/>
<path fill-rule="evenodd" clip-rule="evenodd" d="M17.9694 30C21.5343 30 24.7371 28.4534 26.9401 25.9962C25.9153 25.1079 24.3709 25.0539 23.2799 25.932L23.0715 26.0997C21.074 27.7075 18.1633 27.4701 16.4541 25.56C15.522 24.5182 13.9255 24.4118 12.8627 25.3206L10.4597 27.3756C12.5179 29.0179 15.1287 30 17.9694 30ZM21.8701 24.1893C23.7727 22.6579 26.447 22.7128 28.2769 24.1918C29.3707 22.3841 30 20.2654 30 18C30 15.4828 29.223 13.1466 27.8952 11.2171C27.0391 11.0353 26.1113 11.2477 25.407 11.8702L25.2065 12.0474C23.2855 13.7454 20.367 13.6422 18.5713 11.8128C17.5919 10.8151 15.9922 10.7823 14.9726 11.7391L12.1762 14.3633L10.6378 12.7323L13.4342 10.1081C15.3442 8.31579 18.3409 8.37717 20.1755 10.2462C21.134 11.2228 22.6921 11.2779 23.7176 10.3714L23.918 10.1942C24.5406 9.64399 25.2607 9.27305 26.0149 9.07796C23.8834 7.16449 21.0628 6 17.9694 6C11.8622 6 6.8179 10.5391 6.04225 16.4195C7.89725 15.5316 10.1854 15.8733 11.6979 17.4182C12.6527 18.3935 14.1902 18.4964 15.2671 17.6572L16.8306 16.4388C18.7957 14.9076 21.5734 14.9817 23.4536 16.6155L26.4976 19.2609L25.0228 20.9493L21.9788 18.304C20.9097 17.3749 19.3302 17.3327 18.2128 18.2034L16.6493 19.4219C14.6706 20.9638 11.8459 20.7747 10.0916 18.9827C9.07151 17.9407 7.4031 17.9044 6.33835 18.901L6 19.2177C6.25321 21.724 7.27965 24.0028 8.83776 25.8129L11.4015 23.6206C13.3924 21.9181 16.3829 22.1173 18.1291 24.0688C19.0415 25.0885 20.5953 25.2152 21.6616 24.357L21.8701 24.1893Z" fill="url(#paint0_linear_7178_122067)"/>
<defs>
<linearGradient id="paint0_linear_7178_122067" x1="18" y1="6" x2="18" y2="30" gradientUnits="userSpaceOnUse">
<stop stop-color="#790102"/>
<stop offset="1" stop-color="#E13D3E"/>
</linearGradient>
</defs>
</svg>
