<svg width="36" height="36" viewBox="0 0 36 36" fill="none" xmlns="http://www.w3.org/2000/svg">
<g clip-path="url(#clip0_6737_119667)">
<path d="M18 36C27.9417 36 36 27.9417 36 18C36 8.05829 27.9417 0 18 0C8.0583 0 0 8.05829 0 18C0 27.9417 8.0583 36 18 36Z" fill="black"/>
<path opacity="0.984" fill-rule="evenodd" clip-rule="evenodd" d="M8.70532 8.97559C9.05809 8.97559 9.41081 8.97559 9.76358 8.97559C9.76358 10.2328 9.76358 11.49 9.76358 12.7472C10.6235 12.6692 11.4747 12.7141 12.3172 12.8819C12.3402 11.6398 12.3479 10.3975 12.3402 9.15519C12.7442 9.2088 13.143 9.29115 13.5365 9.40214C14.0115 9.54915 14.4869 9.69135 14.9629 9.8287C14.9476 11.0713 14.9629 12.3135 15.0089 13.5555C15.7947 13.831 16.5769 14.1154 17.3555 14.4086C17.4015 13.1966 17.4168 11.9843 17.4015 10.7716C17.9557 10.9119 18.5079 11.0616 19.0579 11.2206V9.40214C19.6711 9.55171 20.4226 9.78236 21.0365 9.93211V11.6696C21.5526 11.7885 22.0741 11.8783 22.6008 11.939C22.6008 11.3553 22.6008 10.7716 22.6008 10.1879C23.1845 10.2478 23.7673 10.3077 24.3493 10.3675C24.3876 10.9506 24.4106 11.5343 24.4183 12.1186C25.4132 12.2023 26.3564 12.4642 27.248 12.9044C28.0686 13.4957 28.4673 14.2964 28.4443 15.3066C28.4231 16.6501 27.9169 17.7801 26.9259 18.6966C28.3657 19.1167 29.0558 20.067 28.9965 21.5478C28.9725 23.3543 28.1903 24.7387 26.6499 25.7011C25.9478 26.0782 25.1963 26.2802 24.3953 26.3072C24.3953 26.9059 24.3953 27.5046 24.3953 28.1033C23.7961 28.1127 23.198 28.0978 22.6008 28.0584C22.6008 27.4597 22.6008 26.861 22.6008 26.2623C22.0626 26.2339 21.5257 26.189 20.9904 26.1276C20.9904 26.7113 20.9904 27.2951 20.9904 27.8788C20.3565 27.8225 19.7277 27.7327 19.104 27.6094C19.104 26.9957 19.104 26.3821 19.104 25.7684C18.5189 25.6707 17.9361 25.5585 17.3555 25.4317C16.5591 25.1801 15.7616 24.9331 14.9629 24.6908C14.9169 23.4489 14.9016 22.2067 14.9169 20.9641C14.0846 20.7348 13.2411 20.5552 12.3863 20.4253C12.3863 21.6675 12.3863 22.9097 12.3863 24.152C11.4969 24.0323 10.6073 24.0323 9.71757 24.152C9.71757 22.8948 9.71757 21.6376 9.71757 20.3804C8.94973 20.4179 8.19822 20.5451 7.463 20.762C7.32496 20.8294 7.18693 20.8967 7.04889 20.9641C6.98756 19.6619 6.98756 18.3598 7.04889 17.0577C7.8979 16.6934 8.78749 16.5287 9.71757 16.5638C9.73289 15.3062 9.71757 14.049 9.67156 12.7921C9.16621 12.842 8.66009 12.8944 8.15317 12.9493C7.75849 13.0303 7.37507 13.1426 7.00288 13.286C6.9952 11.9988 7.00288 10.7117 7.02589 9.42459C7.56133 9.16929 8.12115 9.01959 8.70532 8.97559ZM12.3863 12.9268C13.2414 13.0849 14.0773 13.3094 14.8939 13.6004C14.9246 14.8127 14.9246 16.025 14.8939 17.2373C14.0902 16.9683 13.2697 16.7587 12.4323 16.6087C12.3863 15.3818 12.3709 14.1545 12.3863 12.9268ZM20.9904 14.678C21.906 14.8345 22.8262 14.9618 23.7511 15.0596C24.7605 15.252 25.167 15.8432 24.9704 16.8332C24.8056 17.2923 24.4759 17.5692 23.9812 17.6639C22.9899 17.6851 22.0083 17.5953 21.0365 17.3945C20.9908 16.4924 20.9754 15.5869 20.9904 14.678ZM10.2237 16.5189C10.9333 16.5092 11.6388 16.5541 12.3402 16.6536C12.3402 17.8809 12.3402 19.1082 12.3402 20.3355C11.4863 20.2233 10.635 20.2233 9.78659 20.3355C9.76358 19.0783 9.7559 17.8211 9.76358 16.5638C9.92656 16.5778 10.0799 16.5629 10.2237 16.5189ZM14.9629 17.3271C15.7758 17.5741 16.581 17.8435 17.3785 18.1353C17.4092 19.3327 17.4092 20.53 17.3785 21.7274C16.5837 21.4414 15.7785 21.1869 14.9629 20.9641C14.9629 19.7517 14.9629 18.5394 14.9629 17.3271ZM20.9904 20.2456C22.2276 20.4292 23.47 20.5714 24.7174 20.6722C25.4519 20.9626 25.7356 21.4939 25.5686 22.2662C25.4505 22.7556 25.1515 23.0924 24.6714 23.2764C24.3863 23.36 24.0949 23.3974 23.7972 23.3887C22.8554 23.3552 21.9198 23.2654 20.9904 23.1193C20.9904 22.1614 20.9904 21.2035 20.9904 20.2456Z" fill="#E26E1A"/>
</g>
<defs>
<clipPath id="clip0_6737_119667">
<rect width="36" height="36" rx="18" fill="white"/>
</clipPath>
</defs>
</svg>
