<svg width="36" height="36" viewBox="0 0 36 36" fill="none" xmlns="http://www.w3.org/2000/svg">
<circle cx="18" cy="18" r="18" fill="#0500E2"/>
<path d="M26.5649 9.60626C25.5572 8.57835 24.3652 7.73382 23.0451 7.11898C22.9914 7.09138 22.9368 7.06624 22.8804 7.04262C22.621 6.92671 22.3588 6.81631 22.0902 6.7188C21.3385 6.44557 20.552 6.24624 19.7393 6.12757C19.1711 6.04477 18.5906 6 18 6C11.3833 6 6 11.383 6 18C6 23.1549 9.26771 27.5603 13.8402 29.2554C14.3781 29.4548 14.9341 29.6161 15.5048 29.7372C16.31 29.9083 17.1444 30 17.9997 30C22.5575 30 26.5296 27.4453 28.5606 23.6927C29.4778 21.9979 29.9997 20.0589 29.9997 18C29.9997 14.7351 28.6878 11.7722 26.5649 9.60626ZM9.57927 24.4198C8.1613 22.5495 7.41184 20.3183 7.41184 17.9672C7.41184 13.9525 9.63753 10.4483 12.9197 8.62343C13.0064 8.57498 13.0923 8.69028 13.0199 8.75836C12.72 9.04079 12.4324 9.34253 12.1573 9.66391C10.2551 11.8887 9.15915 14.9141 9.14965 17.9672C9.14965 21.931 11.801 26.2091 16.0846 26.2091C19.9074 26.2091 23.0172 22.5118 23.0172 17.9672C23.0172 15.832 22.3014 13.7817 21.0791 12.26C21.0359 12.2064 21.0871 12.1303 21.153 12.1496C23.2193 12.7608 24.7645 15.1371 24.7645 17.9672C24.7645 20.4658 23.858 22.9531 22.2772 24.7921C20.6388 26.6979 18.4394 27.7482 16.0846 27.7492C13.6047 27.7492 11.2318 26.533 9.57927 24.4198ZM26.6109 11.521C28.0276 13.3867 28.7752 15.6145 28.7731 17.965C28.7731 21.9795 26.5474 25.4839 23.2649 27.3088C23.1782 27.3573 23.0923 27.2419 23.1647 27.1739C23.4646 26.8914 23.7522 26.5894 24.0273 26.2683C25.9295 24.0439 27.0255 21.0181 27.035 17.965C27.035 14.0012 24.3836 9.72309 20.1 9.72309C16.2772 9.72309 13.1674 13.4204 13.1674 17.965C13.1674 20.1003 13.8835 22.1509 15.1058 23.6725C15.1487 23.7262 15.0978 23.8022 15.0319 23.7829C12.9653 23.172 11.4201 20.7964 11.4201 17.9675C11.4201 15.4695 12.3266 12.9825 13.9077 11.1441C15.5468 9.23796 17.7467 8.18798 20.1024 8.18798C22.5805 8.18798 24.9525 9.40294 26.6109 11.521ZM21.763 17.9675C21.763 20.7982 20.3879 23.241 18.417 24.3379C18.173 24.4738 17.8721 24.4569 17.6461 24.2922L17.2245 23.9847C15.4959 22.7234 14.422 20.4167 14.422 17.9653C14.422 15.1349 15.797 12.6921 17.7682 11.5952C18.0126 11.4594 18.3134 11.4762 18.5391 11.6409L18.9604 11.9485C20.6891 13.2098 21.763 15.5158 21.763 17.9675Z" fill="white"/>
</svg>
