<svg width="36" height="36" viewBox="0 0 36 36" fill="none" xmlns="http://www.w3.org/2000/svg">
<circle cx="18" cy="18" r="18" fill="#E81899"/>
<path d="M28.6912 23.0881L24.8665 17.8859C24.4509 17.3206 23.8357 16.982 23.1805 16.9073C23.0313 16.89 22.8982 16.8033 22.8236 16.6726C22.7477 16.542 22.7397 16.3833 22.7996 16.2447C23.0619 15.6394 23.0779 14.9368 22.7956 14.2942L20.2081 8.37734C19.8245 7.49875 18.9575 6.93213 18 6.93213C17.0425 6.93213 16.1756 7.50009 15.792 8.37734L13.2044 14.2942C12.9234 14.9368 12.9381 15.6394 13.2004 16.2447C13.2604 16.3833 13.251 16.542 13.1765 16.6726C13.1006 16.8033 12.9687 16.89 12.8196 16.9073C12.1643 16.982 11.5491 17.3206 11.1336 17.8859L7.30884 23.0881C6.74152 23.8601 6.68425 24.8946 7.16235 25.7253C7.64177 26.5545 8.56599 27.0224 9.51686 26.9171L15.9292 26.2025C16.6257 26.1252 17.2262 25.7612 17.6178 25.2306C17.707 25.1093 17.8495 25.0373 18 25.0373C18.1505 25.0373 18.2916 25.1093 18.3822 25.2306C18.7737 25.7612 19.3744 26.1252 20.0709 26.2025L26.4832 26.9171C27.4341 27.0238 28.3583 26.5558 28.8377 25.7253C29.3157 24.8946 29.2585 23.8601 28.6912 23.0881ZM14.8771 15.0367L17.4687 9.11328C17.5618 8.90129 17.771 8.76397 18.0013 8.76397C18.2317 8.76397 18.4408 8.90129 18.534 9.11328L21.1256 15.0367C21.2069 15.2234 21.1895 15.4394 21.0777 15.6101C20.9658 15.7807 20.7767 15.8834 20.5716 15.8834H15.4298C15.226 15.8834 15.0356 15.7807 14.9237 15.6101C14.8118 15.4394 14.7945 15.2234 14.8758 15.0367H14.8771ZM16.2074 24.0547C16.1156 24.2373 15.9371 24.3601 15.7348 24.3827L9.31576 25.0973C9.0867 25.1226 8.86297 25.0106 8.74711 24.8106C8.63125 24.6107 8.64589 24.3614 8.78307 24.1747L12.6118 18.9671C12.733 18.8031 12.9274 18.7098 13.1312 18.7218C13.3349 18.7324 13.5187 18.8458 13.6213 19.0231L13.6253 19.0298L16.1889 23.4747L16.1928 23.4814C16.2954 23.6587 16.3007 23.8747 16.2088 24.056L16.2074 24.0547ZM18.5273 22.0442C18.4182 22.2322 18.2184 22.3495 18 22.3495C17.7829 22.3495 17.5819 22.2335 17.4726 22.0455L15.503 18.6312C15.3938 18.4432 15.3938 18.2098 15.503 18.0218C15.6122 17.8339 15.812 17.7165 16.0304 17.7165H19.9683C20.1854 17.7165 20.3865 17.8312 20.4957 18.0205C20.6048 18.2098 20.6048 18.4418 20.4957 18.6298L18.5273 22.0442ZM27.2543 24.8106C27.1384 25.0106 26.9159 25.1239 26.6856 25.0986L20.2666 24.384C20.0642 24.3614 19.8858 24.2387 19.7938 24.056C19.702 23.8734 19.7073 23.6574 19.8099 23.4814L19.8138 23.4747L22.3774 19.0298L22.3814 19.0231C22.4839 18.8458 22.6677 18.7324 22.8715 18.7218C23.0752 18.7111 23.2697 18.8031 23.3908 18.9671L27.2196 24.1747C27.3567 24.3614 27.3701 24.6107 27.2556 24.8106H27.2543Z" fill="white"/>
</svg>
