<svg width="36" height="36" viewBox="0 0 36 36" fill="none" xmlns="http://www.w3.org/2000/svg">
<path d="M18 36C27.9411 36 36 27.9411 36 18C36 8.05887 27.9411 0 18 0C8.05887 0 0 8.05887 0 18C0 27.9411 8.05887 36 18 36Z" fill="white"/>
<path fill-rule="evenodd" clip-rule="evenodd" d="M14.5998 9H9.3999C9.29384 9 9.19212 9.04213 9.11713 9.11713C9.04213 9.19212 9 9.29384 9 9.3999V14.5998C9 14.7059 9.04212 14.8076 9.11711 14.8827C9.1921 14.9577 9.29381 14.9999 9.3999 15H14.5998C14.7059 15 14.8077 14.9578 14.8828 14.8828C14.9578 14.8077 15 14.7059 15 14.5998V9.3999C14.9999 9.29381 14.9577 9.1921 14.8827 9.11711C14.8076 9.04212 14.7059 9 14.5998 9V9ZM20.6025 15H15.4026C15.2965 15 15.1948 15.0421 15.1198 15.1171C15.0448 15.1921 15.0027 15.2938 15.0027 15.3999V20.5998C15.0027 20.7059 15.0448 20.8076 15.1198 20.8827C15.1948 20.9577 15.2965 20.9999 15.4026 21H20.6025C20.655 21 20.707 20.9896 20.7556 20.9695C20.8041 20.9494 20.8482 20.9199 20.8853 20.8828C20.9225 20.8456 20.9519 20.8015 20.972 20.7529C20.9921 20.7044 21.0024 20.6523 21.0024 20.5998V15.3999C21.0024 15.2938 20.9602 15.1921 20.8852 15.1171C20.8102 15.0421 20.7085 15 20.6025 15ZM21.4005 9H26.5998C26.7059 9 26.8076 9.04212 26.8827 9.11711C26.9577 9.1921 26.9999 9.29381 27 9.3999V14.5998C27 14.7059 26.9578 14.8077 26.8828 14.8828C26.8077 14.9578 26.7059 15 26.5998 15H21.3999C21.2938 14.9999 21.1921 14.9577 21.1171 14.8827C21.0421 14.8076 21 14.7059 21 14.5998V9.3999C21 9.29384 21.0421 9.19212 21.1171 9.11713C21.1921 9.04213 21.2938 9 21.3999 9H21.4005ZM14.5998 21H9.3999C9.29384 21 9.19212 21.0421 9.11713 21.1171C9.04213 21.1921 9 21.2938 9 21.3999V26.5998C9 26.7059 9.04212 26.8076 9.11711 26.8827C9.1921 26.9577 9.29381 26.9999 9.3999 27H14.5998C14.7059 27 14.8077 26.9578 14.8828 26.8828C14.9578 26.8077 15 26.7059 15 26.5998V21.3999C14.9999 21.2938 14.9577 21.1921 14.8827 21.1171C14.8076 21.0421 14.7059 21 14.5998 21ZM21.3999 21H26.5998C26.7059 21 26.8076 21.0421 26.8827 21.1171C26.9577 21.1921 26.9999 21.2938 27 21.3999V26.5998C27 26.7059 26.9578 26.8077 26.8828 26.8828C26.8077 26.9578 26.7059 27 26.5998 27H21.3999C21.2938 26.9999 21.1921 26.9577 21.1171 26.8827C21.0421 26.8076 21 26.7059 21 26.5998V21.3999C21 21.2938 21.0421 21.1921 21.1171 21.1171C21.1921 21.0421 21.2938 21 21.3999 21V21Z" fill="black"/>
</svg>
