<svg width="36" height="36" viewBox="0 0 36 36" fill="none" xmlns="http://www.w3.org/2000/svg">
<g clip-path="url(#clip0_8216_108091)">
<path fill-rule="evenodd" clip-rule="evenodd" d="M-0.0358887 -0.0361328C11.9641 -0.0361328 23.9641 -0.0361328 35.9641 -0.0361328C35.9641 7.85989 35.9641 15.7558 35.9641 23.6519C32.1552 21.4461 28.0752 19.9821 23.7241 19.2599C23.7241 16.9798 23.7241 14.6999 23.7241 12.4199C23.7241 12.1799 23.8441 12.0599 24.0841 12.0599C24.1492 12.0088 24.1732 11.9368 24.1561 11.8439C23.0634 11.8202 21.9834 11.8442 20.9161 11.9159C20.9983 12.0302 21.1063 12.1262 21.2401 12.2039C21.2881 12.2759 21.2881 12.3479 21.2401 12.4199C20.1544 14.4714 19.0504 16.5113 17.9281 18.5399C16.8721 16.5239 15.8161 14.5079 14.7601 12.4919C14.7121 12.3959 14.7121 12.2998 14.7601 12.2039C14.9126 12.1475 15.0206 12.0515 15.0841 11.9159C14.0168 11.8442 12.9368 11.8202 11.8441 11.8439C11.827 11.9368 11.851 12.0088 11.9161 12.0599C12.0515 12.0404 12.1474 12.0884 12.2041 12.2039C12.2041 14.5559 12.2041 16.9078 12.2041 19.2599C7.85272 19.9822 3.7727 21.4462 -0.0358887 23.6519C-0.0358887 15.7558 -0.0358887 7.85989 -0.0358887 -0.0361328Z" fill="black"/>
<path fill-rule="evenodd" clip-rule="evenodd" d="M15.0839 11.9158C14.0012 11.869 12.9452 11.917 11.9159 12.0598C11.8509 12.0087 11.8269 11.9367 11.8439 11.8438C12.9366 11.8201 14.0166 11.8441 15.0839 11.9158Z" fill="#9F9F9F"/>
<path fill-rule="evenodd" clip-rule="evenodd" d="M20.916 11.9158C21.9833 11.8441 23.0633 11.8201 24.156 11.8438C24.1731 11.9367 24.1491 12.0087 24.084 12.0598C23.0548 11.917 21.9988 11.869 20.916 11.9158Z" fill="#9F9F9F"/>
<path fill-rule="evenodd" clip-rule="evenodd" d="M15.084 11.9158C15.0205 12.0514 14.9125 12.1474 14.76 12.2038C14.712 12.2997 14.712 12.3958 14.76 12.4918C15.816 14.5078 16.872 16.5238 17.928 18.5398C19.0504 16.5112 20.1543 14.4713 21.24 12.4198C21.288 12.3478 21.288 12.2758 21.24 12.2038C21.1062 12.1261 20.9982 12.0301 20.916 11.9158C21.9988 11.869 23.0548 11.917 24.084 12.0598C23.844 12.0598 23.724 12.1798 23.724 12.4198C23.664 15.2156 23.628 18.0236 23.616 20.8438C22.9763 20.7027 22.3403 20.6067 21.708 20.5558C21.72 18.7796 21.708 17.0036 21.672 15.2278C21.6204 15.2669 21.5844 15.315 21.564 15.3718C20.8381 16.7997 20.0941 18.2157 19.332 19.6198C18.3145 19.6102 17.3065 19.6102 16.308 19.6198C15.6064 18.1925 14.8864 16.7766 14.148 15.3718C14.1276 15.315 14.0916 15.2669 14.04 15.2278C14.0041 15.5148 13.9921 15.8028 14.004 16.0918C13.908 19.1638 13.908 22.2357 14.004 25.3078C14.0493 25.497 14.1693 25.6171 14.364 25.6678C13.548 25.7637 12.732 25.7637 11.916 25.6678C12.0379 25.6153 12.1459 25.5433 12.24 25.4518C12.2759 25.2371 12.2879 25.0211 12.276 24.8038C12.276 24.5158 12.276 24.2278 12.276 23.9398C12.276 23.2918 12.276 22.6438 12.276 21.9958C12.276 21.8518 12.276 21.7078 12.276 21.5638C12.276 21.2038 12.276 20.8438 12.276 20.4838C12.2999 17.7115 12.2759 14.9515 12.204 12.2038C12.1474 12.0883 12.0514 12.0403 11.916 12.0598C12.9453 11.917 14.0013 11.869 15.084 11.9158Z" fill="#FDFDFD"/>
<path fill-rule="evenodd" clip-rule="evenodd" d="M21.708 20.556C21.7311 20.9539 21.7071 21.3379 21.636 21.708C21.636 21.5401 21.636 21.372 21.636 21.204C21.636 21.012 21.636 20.8201 21.636 20.628C21.636 20.3881 21.636 20.148 21.636 19.908C21.6598 18.3836 21.6357 16.8716 21.564 15.372C21.5843 15.3152 21.6203 15.2672 21.672 15.228C21.708 17.0038 21.72 18.7799 21.708 20.556Z" fill="#949494"/>
<path fill-rule="evenodd" clip-rule="evenodd" d="M14.148 15.3721C14.8865 16.7769 15.6065 18.1928 16.308 19.6201C16.3758 19.7317 16.4237 19.8516 16.452 19.9801C15.6587 20.0362 14.8667 20.1082 14.076 20.1961C14.0522 18.5756 14.0763 16.9676 14.148 15.3721Z" fill="#080808"/>
<path fill-rule="evenodd" clip-rule="evenodd" d="M21.564 15.3721C21.6358 16.8716 21.6599 18.3836 21.636 19.9081C20.8697 19.8362 20.1016 19.7882 19.332 19.7641C19.332 19.716 19.332 19.6681 19.332 19.6201C20.0942 18.216 20.8381 16.8 21.564 15.3721Z" fill="#080808"/>
<path fill-rule="evenodd" clip-rule="evenodd" d="M12.2041 19.2598C12.2448 19.6069 12.1968 19.9309 12.0601 20.2318C7.72665 20.9839 3.69463 22.5079 -0.0358887 24.8038C-0.0358887 24.4198 -0.0358887 24.0357 -0.0358887 23.6518C3.7727 21.4461 7.85272 19.9821 12.2041 19.2598Z" fill="#0D0D0D"/>
<path fill-rule="evenodd" clip-rule="evenodd" d="M23.7241 19.2598C28.0752 19.982 32.1552 21.446 35.9641 23.6518C35.9641 23.9398 35.9641 24.2278 35.9641 24.5158C32.175 22.2365 28.095 20.7245 23.7241 19.9798C23.7241 19.7398 23.7241 19.4997 23.7241 19.2598Z" fill="#0B0B0B"/>
<path fill-rule="evenodd" clip-rule="evenodd" d="M12.2041 12.2041C12.276 14.9518 12.3 17.7118 12.2761 20.4841C12.2158 20.5087 12.1917 20.5567 12.2041 20.6281C7.81117 21.396 3.73118 22.956 -0.0358887 25.3081C-0.0358887 25.1401 -0.0358887 24.9721 -0.0358887 24.8041C3.69463 22.5082 7.72665 20.9842 12.0601 20.2321C12.1968 19.9313 12.2448 19.6073 12.2041 19.2601C12.2041 16.9081 12.2041 14.5561 12.2041 12.2041Z" fill="#1E1E1E"/>
<path fill-rule="evenodd" clip-rule="evenodd" d="M23.7241 19.98C28.095 20.7247 32.175 22.2367 35.9641 24.516C35.9641 24.708 35.9641 24.9 35.9641 25.092C32.1952 22.7474 28.1153 21.2115 23.7241 20.484C23.7241 20.316 23.7241 20.148 23.7241 19.98Z" fill="#191919"/>
<path fill-rule="evenodd" clip-rule="evenodd" d="M23.7241 20.4839C28.1153 21.2114 32.1952 22.7474 35.9641 25.0919C35.9641 25.2119 35.9641 25.3319 35.9641 25.4519C32.1839 23.1307 28.104 21.5707 23.7241 20.7719C23.7241 20.6759 23.7241 20.5799 23.7241 20.4839Z" fill="#262626"/>
<path fill-rule="evenodd" clip-rule="evenodd" d="M12.2041 20.6279C12.2041 20.748 12.2041 20.8679 12.2041 20.9879C7.80232 21.7269 3.72232 23.2869 -0.0358887 25.6679C-0.0358887 25.5479 -0.0358887 25.428 -0.0358887 25.3079C3.73118 22.9558 7.81117 21.3958 12.2041 20.6279Z" fill="#2C2C2C"/>
<path fill-rule="evenodd" clip-rule="evenodd" d="M23.7241 20.772C28.104 21.5707 32.1839 23.1308 35.9641 25.452C35.9641 25.572 35.9641 25.6919 35.9641 25.812C32.1956 23.4594 28.1156 21.8994 23.7241 21.132C23.7241 21.0119 23.7241 20.892 23.7241 20.772Z" fill="#323232"/>
<path fill-rule="evenodd" clip-rule="evenodd" d="M12.2041 20.9878C12.2041 21.0838 12.2041 21.1798 12.2041 21.2758C7.78965 22.0268 3.70967 23.6108 -0.0358887 26.0278C-0.0358887 25.9078 -0.0358887 25.7878 -0.0358887 25.6678C3.72232 23.2868 7.80232 21.7267 12.2041 20.9878Z" fill="#393939"/>
<path fill-rule="evenodd" clip-rule="evenodd" d="M23.7241 21.1318C28.1156 21.8993 32.1956 23.4593 35.9641 25.8118C35.9641 25.9319 35.9641 26.0518 35.9641 26.1718C32.2046 23.7742 28.1245 22.1662 23.7241 21.3478C23.7241 21.2758 23.7241 21.2038 23.7241 21.1318Z" fill="#3F3F3F"/>
<path fill-rule="evenodd" clip-rule="evenodd" d="M12.2041 21.2759C12.2164 21.3711 12.1924 21.4551 12.1321 21.5279C7.75091 22.3275 3.69492 23.9235 -0.0358887 26.3159C-0.0358887 26.2199 -0.0358887 26.1239 -0.0358887 26.0279C3.70967 23.6108 7.78965 22.0268 12.2041 21.2759Z" fill="#454545"/>
<path fill-rule="evenodd" clip-rule="evenodd" d="M14.148 15.372C14.0762 16.9675 14.0521 18.5756 14.076 20.196C14.076 20.412 14.076 20.628 14.076 20.844C14.076 21.012 14.076 21.1801 14.076 21.348C14.8194 21.2961 15.5634 21.2481 16.308 21.204C16.5772 21.203 16.8172 21.1551 17.028 21.06C17.117 21.1655 17.189 21.2855 17.244 21.42C16.1779 21.5503 15.0979 21.6463 14.004 21.708C14.004 19.836 14.004 17.964 14.004 16.092C13.992 15.803 14.0041 15.515 14.04 15.228C14.0916 15.2672 14.1276 15.3152 14.148 15.372Z" fill="#606060"/>
<path fill-rule="evenodd" clip-rule="evenodd" d="M23.7241 21.3481C28.1245 22.1665 32.2046 23.7745 35.9641 26.1721C35.9641 26.3161 35.9641 26.4601 35.9641 26.6041C32.208 24.1989 28.1279 22.5909 23.7241 21.7801C23.7241 21.6361 23.7241 21.4921 23.7241 21.3481Z" fill="#4D4D4D"/>
<path fill-rule="evenodd" clip-rule="evenodd" d="M12.2761 20.4839C12.2761 20.8439 12.2761 21.2039 12.2761 21.5639C12.2076 21.6661 12.1837 21.786 12.2041 21.9239C7.78547 22.694 3.70546 24.302 -0.0358887 26.7479C-0.0358887 26.6039 -0.0358887 26.4599 -0.0358887 26.3159C3.69492 23.9235 7.75091 22.3275 12.1321 21.5279C12.1924 21.4551 12.2164 21.3711 12.2041 21.2759C12.2041 21.1799 12.2041 21.0839 12.2041 20.9879C12.2041 20.8679 12.2041 20.7479 12.2041 20.6279C12.1917 20.5565 12.2158 20.5085 12.2761 20.4839Z" fill="#545454"/>
<path fill-rule="evenodd" clip-rule="evenodd" d="M23.7241 12.4199C23.7241 14.6999 23.7241 16.9799 23.7241 19.2599C23.7241 19.4999 23.7241 19.7399 23.7241 19.9799C23.7241 20.1479 23.7241 20.3159 23.7241 20.4839C23.7241 20.5799 23.7241 20.6759 23.7241 20.7719C23.7241 20.8919 23.7241 21.0119 23.7241 21.1319C23.7241 21.2039 23.7241 21.2759 23.7241 21.3479C23.7241 21.4919 23.7241 21.6359 23.7241 21.7799C23.7119 21.8751 23.7358 21.9591 23.7961 22.0319C24.1707 22.0945 24.5307 22.1785 24.8761 22.2839C25.6762 22.5386 26.4801 22.8025 27.2881 23.0759C27.3001 23.0999 27.3121 23.1239 27.3241 23.1479C27.1794 23.1886 27.0594 23.2606 26.9641 23.3639C27.0959 23.5421 27.1919 23.7341 27.2521 23.9399C27.111 24.288 27.051 24.648 27.0721 25.0199C27.1261 25.065 27.1862 25.101 27.2521 25.1279C26.9334 25.0898 26.6214 25.0058 26.3161 24.8759C26.1944 25.0024 26.0504 25.0384 25.8841 24.9839C25.4041 24.5999 24.9241 24.2159 24.4441 23.8319C23.3593 23.3183 22.2192 22.9943 21.0241 22.8599C20.3665 22.9587 19.7066 22.9947 19.0441 22.9679C18.9709 22.8924 18.9589 22.8084 19.0081 22.7159C19.1572 22.5513 19.3372 22.4313 19.5481 22.3559C19.6261 22.2936 19.638 22.2216 19.5841 22.1399C19.0636 21.9371 18.5236 21.877 17.9641 21.9599C17.7685 22.2255 17.5045 22.3695 17.1721 22.3919C16.6385 22.3997 16.1105 22.4477 15.5881 22.5359C15.4877 22.6048 15.4397 22.7007 15.4441 22.8239C15.4774 22.9959 15.5255 23.164 15.5881 23.3279C15.559 23.396 15.5109 23.444 15.4441 23.4719C15.1751 23.5158 14.9111 23.4919 14.6521 23.3999C14.4496 23.2576 14.2577 23.1016 14.0761 22.9319C14.0043 23.5541 13.9803 24.1781 14.0041 24.8039C14.0041 24.9719 14.0041 25.1399 14.0041 25.3079C13.9081 22.2359 13.9081 19.1639 14.0041 16.0919C14.0041 17.9639 14.0041 19.8359 14.0041 21.7079C16.4152 21.6331 18.8393 21.6331 21.2761 21.7079C21.3961 21.7079 21.5161 21.7079 21.6361 21.7079C21.7072 21.3378 21.7312 20.9538 21.7081 20.5559C22.3404 20.6069 22.9764 20.7029 23.6161 20.8439C23.6281 18.0238 23.6641 15.2158 23.7241 12.4199Z" fill="#E4E5E5"/>
<path fill-rule="evenodd" clip-rule="evenodd" d="M17.2439 21.4199C17.6212 21.4882 18.0052 21.5122 18.3959 21.4919C19.3706 21.5107 20.3306 21.5827 21.2759 21.7079C18.8391 21.6331 16.415 21.6331 14.0039 21.7079C15.0979 21.6461 16.1779 21.5502 17.2439 21.4199Z" fill="#CACACA"/>
<path fill-rule="evenodd" clip-rule="evenodd" d="M18.684 20.9878C19.6576 21.0531 20.6416 21.1251 21.636 21.2038C21.636 21.3718 21.636 21.5398 21.636 21.7078C21.516 21.7078 21.396 21.7078 21.276 21.7078C20.3307 21.5826 19.3707 21.5106 18.396 21.4918C18.4749 21.3095 18.5709 21.1415 18.684 20.9878Z" fill="#5A5A5A"/>
<path fill-rule="evenodd" clip-rule="evenodd" d="M16.7399 20.4839C16.8725 20.653 16.9685 20.845 17.0279 21.0599C16.8171 21.1549 16.5771 21.2029 16.3079 21.2039C15.5634 21.248 14.8193 21.296 14.0759 21.3479C14.0759 21.1799 14.0759 21.0119 14.0759 20.8439C14.7932 20.7602 15.5132 20.7002 16.2359 20.6639C16.4419 20.666 16.61 20.6061 16.7399 20.4839Z" fill="#484848"/>
<path fill-rule="evenodd" clip-rule="evenodd" d="M18.9721 20.4121C19.847 20.5141 20.735 20.5861 21.6361 20.6281C21.6361 20.8201 21.6361 21.0121 21.6361 21.2041C20.6417 21.1254 19.6577 21.0534 18.6841 20.9881C18.7436 20.7732 18.8395 20.5812 18.9721 20.4121Z" fill="#424242"/>
<path fill-rule="evenodd" clip-rule="evenodd" d="M16.4519 19.98C16.6023 20.1122 16.6982 20.2801 16.7399 20.484C16.61 20.6062 16.4419 20.6661 16.2359 20.664C15.5132 20.7003 14.7932 20.7602 14.0759 20.844C14.0759 20.628 14.0759 20.412 14.0759 20.196C14.8666 20.1081 15.6586 20.0361 16.4519 19.98Z" fill="#2F2F2F"/>
<path fill-rule="evenodd" clip-rule="evenodd" d="M19.3319 19.7642C20.1015 19.7883 20.8696 19.8363 21.6359 19.9082C21.6359 20.1481 21.6359 20.3882 21.6359 20.6282C20.7348 20.5862 19.8468 20.5142 18.9719 20.4122C19.0739 20.184 19.1939 19.968 19.3319 19.7642Z" fill="#282828"/>
<path fill-rule="evenodd" clip-rule="evenodd" d="M19.3321 19.62C19.3321 19.668 19.3321 19.716 19.3321 19.764C19.1941 19.9678 19.0741 20.1838 18.9721 20.412C18.8396 20.5811 18.7436 20.7731 18.6841 20.988C18.571 21.1417 18.475 21.3097 18.3961 21.492C18.0054 21.5123 17.6214 21.4883 17.2441 21.42C17.1892 21.2855 17.1172 21.1655 17.0281 21.06C16.9686 20.8451 16.8727 20.6531 16.7401 20.484C16.6984 20.2801 16.6024 20.1122 16.4521 19.98C16.4238 19.8515 16.3759 19.7316 16.3081 19.62C17.3066 19.6104 18.3146 19.6104 19.3321 19.62Z" fill="#F1F1F1"/>
<path fill-rule="evenodd" clip-rule="evenodd" d="M23.724 21.7798C28.1279 22.5906 32.2079 24.1986 35.964 26.6038C35.964 26.6998 35.964 26.7958 35.964 26.8918C32.5713 24.6439 28.8753 23.1079 24.876 22.2838C24.5306 22.1784 24.1706 22.0944 23.796 22.0318C23.7358 21.959 23.7118 21.875 23.724 21.7798Z" fill="#5F5F5F"/>
<path fill-rule="evenodd" clip-rule="evenodd" d="M12.2761 21.564C12.2761 21.708 12.2761 21.852 12.2761 21.996C7.83825 22.8108 3.73423 24.4427 -0.0358887 26.892C-0.0358887 26.8439 -0.0358887 26.796 -0.0358887 26.748C3.70546 24.3021 7.78547 22.6941 12.2041 21.924C12.1837 21.7861 12.2076 21.6661 12.2761 21.564Z" fill="#636363"/>
<path fill-rule="evenodd" clip-rule="evenodd" d="M24.876 22.2839C28.8753 23.108 32.5712 24.644 35.964 26.8919C35.964 27.2519 35.964 27.6119 35.964 27.9719C35.6906 27.7346 35.4266 27.4826 35.172 27.2159C35.0922 27.1699 35.0082 27.1339 34.92 27.1079C34.7409 27.2712 34.5609 27.4393 34.38 27.6119C34.1405 27.4746 33.9005 27.3666 33.66 27.2879C33.5689 27.5405 33.5809 27.7925 33.696 28.0439C33.9884 28.4196 34.2644 28.8036 34.524 29.1959C34.3622 29.5091 34.1342 29.5572 33.84 29.3399C33.6052 28.9415 33.3532 28.5575 33.084 28.1879C32.3909 27.8184 31.6468 27.6144 30.852 27.5759C30.6655 27.3719 30.4495 27.2039 30.204 27.0719C28.1381 26.2933 26.074 25.5373 24.012 24.8039C23.9652 24.5191 23.8693 24.2431 23.724 23.9759C22.4264 23.4403 21.0824 23.2963 19.692 23.5439C18.7011 23.6748 17.7171 23.8429 16.74 24.0479C16.1165 24.0839 15.4925 24.0958 14.868 24.0839C14.8562 24.2773 14.8682 24.4694 14.904 24.6599C15.0405 24.7448 15.1485 24.8528 15.228 24.9839C15.1643 25.1392 15.0443 25.1992 14.868 25.1639C14.8803 25.0687 14.8563 24.9847 14.796 24.9119C14.5397 24.8228 14.2757 24.7868 14.004 24.8039C13.9802 24.178 14.0042 23.554 14.076 22.9319C14.2576 23.1015 14.4496 23.2575 14.652 23.3999C14.911 23.4918 15.175 23.5158 15.444 23.4719C15.5108 23.4439 15.5589 23.3959 15.588 23.3279C15.5254 23.1639 15.4774 22.9959 15.444 22.8239C15.4396 22.7007 15.4877 22.6047 15.588 22.5359C16.1104 22.4477 16.6384 22.3996 17.172 22.3919C17.5044 22.3694 17.7684 22.2254 17.964 21.9599C18.5235 21.877 19.0635 21.937 19.584 22.1399C19.638 22.2216 19.626 22.2936 19.548 22.3559C19.3371 22.4313 19.1571 22.5512 19.008 22.7159C18.9588 22.8083 18.9708 22.8923 19.044 22.9679C19.7065 22.9947 20.3665 22.9587 21.024 22.8599C22.2192 22.9943 23.3592 23.3183 24.444 23.8319C24.9241 24.2158 25.404 24.5999 25.884 24.9839C26.0503 25.0383 26.1943 25.0023 26.316 24.8759C26.6213 25.0058 26.9334 25.0897 27.252 25.1279C27.1861 25.1009 27.126 25.0649 27.072 25.0199C27.0509 24.6479 27.1109 24.2879 27.252 23.9399C27.1918 23.734 27.0958 23.5421 26.964 23.3639C27.0594 23.2606 27.1793 23.1886 27.324 23.1479C27.312 23.1239 27.3001 23.0998 27.288 23.0759C26.48 22.8025 25.6761 22.5385 24.876 22.2839Z" fill="#D6D6D6"/>
<path fill-rule="evenodd" clip-rule="evenodd" d="M12.2761 21.9961C12.2761 22.6441 12.2761 23.2921 12.2761 23.9401C10.7403 24.4722 9.15628 24.7962 7.52411 24.9121C7.09902 24.9939 6.71502 25.1619 6.37211 25.4161C5.93981 25.5299 5.53181 25.6979 5.14811 25.9201C3.75791 26.0395 2.50991 26.5196 1.40411 27.3601C1.17252 27.478 0.932526 27.5739 0.684111 27.6481C0.453529 27.8908 0.213529 28.1188 -0.0358887 28.3321C-0.0358887 27.8521 -0.0358887 27.3721 -0.0358887 26.8921C3.73423 24.4429 7.83825 22.8109 12.2761 21.9961Z" fill="#DDDDDD"/>
<path fill-rule="evenodd" clip-rule="evenodd" d="M27.8281 23.2202C28.4494 23.333 29.0134 23.5731 29.5201 23.9402C29.5693 24.0327 29.5573 24.1167 29.4841 24.1922C29.1721 24.2162 28.8601 24.2402 28.5481 24.2642C28.4162 24.3181 28.2962 24.3901 28.1881 24.4802C28.6043 24.7471 29.0363 24.9871 29.4841 25.2002C29.7637 25.4068 29.9557 25.6707 30.0601 25.9922C29.9861 26.295 29.794 26.391 29.4841 26.2802C29.3813 26.1229 29.2612 25.9789 29.1241 25.8482C28.5951 25.7818 28.1511 25.5537 27.7921 25.1642C27.7672 25.0405 27.7312 24.9205 27.6841 24.8042C27.7379 24.6723 27.8099 24.5523 27.9001 24.4442C27.8415 24.3496 27.7695 24.2656 27.6841 24.1922C27.8413 24.0471 27.9853 23.891 28.1161 23.7242C28.0161 23.5537 27.9201 23.3857 27.8281 23.2202Z" fill="#E4E4E4"/>
<path fill-rule="evenodd" clip-rule="evenodd" d="M24.012 24.8041C24.0694 25.3431 24.1774 25.8711 24.336 26.3881C24.36 26.9161 24.384 27.4442 24.408 27.9721C24.514 28.0806 24.6461 28.1287 24.804 28.1161C25.2715 27.9579 25.7514 27.8978 26.244 27.9361C26.348 28.0172 26.3959 28.1252 26.388 28.2601C26.3451 28.4502 26.3212 28.6422 26.316 28.8361C26.5422 28.8146 26.6982 28.6946 26.784 28.4761C26.8769 28.1716 26.9129 27.8595 26.892 27.5401C27.2868 27.5887 27.6468 27.5047 27.972 27.2881C28.3389 27.2469 28.4709 27.403 28.368 27.7561C28.4995 27.8695 28.6555 27.9294 28.836 27.9361C29.182 28.2692 29.494 28.6292 29.772 29.0161C30.1573 29.2373 30.5653 29.4054 30.996 29.5201C31.104 29.6281 31.212 29.7361 31.32 29.8441C31.3692 29.9366 31.3572 30.0206 31.284 30.0961C30.9158 30.104 30.5558 30.152 30.204 30.2401C30.1528 30.3305 30.0928 30.4144 30.024 30.4921C30.0267 30.768 29.9667 31.02 29.844 31.2481C29.6491 31.2717 29.4571 31.2478 29.268 31.1761C28.7973 30.7532 28.2573 30.5732 27.648 30.6361C27.5452 31.5178 27.9412 31.9858 28.836 32.0401C29.6435 32.5356 30.2795 33.1957 30.744 34.0201C31.2827 34.3186 31.6667 34.7506 31.896 35.3161C31.9318 35.5308 31.9439 35.7468 31.932 35.9641C31.668 35.9641 31.404 35.9641 31.14 35.9641C30.9081 35.4766 30.6561 34.9967 30.384 34.5241C30.236 34.176 30.1159 33.816 30.024 33.4441C29.796 33.2161 29.568 32.9882 29.34 32.7601C28.7461 32.4212 28.158 32.0732 27.576 31.7161C27.3182 30.9984 27.0061 30.3025 26.64 29.6281C26.4712 29.4794 26.3032 29.3354 26.136 29.1961C25.9088 29.3751 25.6808 29.5551 25.452 29.7361C25.0245 29.9472 24.8925 29.8392 25.056 29.4121C25.4627 29.2938 25.6307 29.0298 25.56 28.6201C25.5302 28.5872 25.4942 28.5632 25.452 28.5481C25.3834 28.6594 25.3595 28.7794 25.38 28.9081C24.831 28.826 24.327 28.622 23.868 28.2961C23.4958 28.2029 23.1718 28.2869 22.896 28.5481C22.6925 28.9348 22.8005 29.1747 23.22 29.2681C23.325 29.4181 23.421 29.5741 23.508 29.7361C23.9334 29.8833 24.3533 30.0393 24.768 30.2041C24.8192 30.3386 24.7832 30.4466 24.66 30.5281C24.488 30.6621 24.2961 30.7581 24.084 30.8161C23.0424 30.6271 21.9864 30.5191 20.916 30.4921C20.58 30.5042 20.244 30.5161 19.908 30.5281C19.6706 30.6854 19.4306 30.8174 19.188 30.9241C19.3719 30.6564 19.6118 30.4524 19.908 30.3121C20.673 30.2273 21.4409 30.1793 22.212 30.1681C22.4421 30.1396 22.6461 30.0557 22.824 29.9161C22.872 29.7961 22.872 29.6762 22.824 29.5561C22.6055 29.3135 22.3655 29.0975 22.104 28.9081C21.6558 28.2379 21.8358 27.9379 22.644 28.0081C22.836 27.9122 22.836 27.8161 22.644 27.7201C22.1463 27.6065 21.8343 27.2945 21.708 26.7841C21.7266 26.6933 21.7747 26.6213 21.852 26.5681C22.49 26.3505 22.8021 25.9065 22.788 25.2361C22.6891 25.2248 22.5931 25.2369 22.5 25.2721C22.4153 25.4655 22.2953 25.6335 22.14 25.7761C21.4954 25.9216 20.8714 26.1257 20.268 26.3881C20.1644 26.3724 20.0685 26.3364 19.98 26.2801C19.4372 25.4914 18.7412 25.3234 17.892 25.7761C17.5917 26.0536 17.5317 26.3776 17.712 26.7481C18.1515 26.8046 18.5955 26.8165 19.044 26.7841C19.154 26.9916 19.106 27.1595 18.9 27.2881C18.6977 27.4075 18.4817 27.4915 18.252 27.5401C18.0064 27.4031 17.7904 27.2231 17.604 27.0001C17.0762 26.9993 16.7642 27.2633 16.668 27.7921C16.3 27.8721 15.964 27.8001 15.66 27.5761C15.1274 27.0884 14.5634 26.6444 13.968 26.2441C13.8269 26.3012 13.7189 26.3971 13.644 26.5321C13.3947 26.6683 13.1308 26.7043 12.852 26.6401C12.6164 26.5244 12.4004 26.3804 12.204 26.2081C12.0305 26.1408 11.8505 26.1048 11.664 26.1001C10.4612 26.1798 9.29713 26.4199 8.17198 26.8201C7.48424 26.5123 6.78822 26.2243 6.08398 25.9561C7.13911 25.5315 8.24312 25.3035 9.39598 25.2721C9.63596 25.1762 9.87601 25.0801 10.116 24.9841C10.834 24.8966 11.554 24.8366 12.276 24.8041C12.2879 25.0214 12.2758 25.2374 12.24 25.4521C12.1459 25.5437 12.0379 25.6157 11.916 25.6681C12.732 25.7641 13.548 25.7641 14.364 25.6681C14.1692 25.6174 14.0493 25.4974 14.004 25.3081C14.004 25.1402 14.004 24.9721 14.004 24.8041C14.2756 24.7871 14.5397 24.8231 14.796 24.9121C14.8562 24.9849 14.8802 25.0689 14.868 25.1641C15.0442 25.1994 15.1643 25.1394 15.228 24.9841C15.1485 24.8531 15.0405 24.7451 14.904 24.6601C14.8682 24.4696 14.8562 24.2776 14.868 24.0841C15.4924 24.0961 16.1165 24.0841 16.74 24.0481C17.717 23.8431 18.701 23.6751 19.692 23.5441C21.0824 23.2966 22.4263 23.4406 23.724 23.9761C23.8692 24.2434 23.9652 24.5194 24.012 24.8041Z" fill="#BBBBBB"/>
<path fill-rule="evenodd" clip-rule="evenodd" d="M24.012 24.8042C26.074 25.5377 28.138 26.2937 30.204 27.0722C30.4494 27.2042 30.6654 27.3722 30.852 27.5762C31.6468 27.6147 32.3908 27.8187 33.084 28.1882C32.5506 28.5295 32.0106 28.8654 31.464 29.1962C31.4159 29.2922 31.4159 29.3882 31.464 29.4842C32.0192 29.859 32.1272 30.327 31.788 30.8882C31.6062 30.8912 31.4382 30.8311 31.284 30.7082C31.0321 30.7576 30.9481 30.9016 31.032 31.1402C31.2746 31.2967 31.4066 31.5127 31.428 31.7882C31.1968 31.7531 30.9928 31.8011 30.816 31.9322C30.7266 32.7202 30.9546 33.4042 31.5 33.9842C31.7553 34.0687 32.0193 34.1167 32.292 34.1282C32.3837 34.2161 32.4917 34.2761 32.616 34.3082C33.0898 33.9049 33.5338 33.9409 33.948 34.4162C34.0439 34.4642 34.14 34.4642 34.236 34.4162C34.4855 34.1666 34.6775 33.8786 34.812 33.5522C34.6819 33.28 34.5618 33.0041 34.452 32.7242C34.6608 32.261 34.9607 32.189 35.352 32.5082C35.3605 32.7609 35.4446 32.9769 35.604 33.1562C35.7408 33.0478 35.8609 32.9277 35.964 32.7962C35.964 33.8522 35.964 34.9082 35.964 35.9642C35.652 35.9642 35.3399 35.9642 35.028 35.9642C34.7992 35.4943 34.4632 35.1222 34.02 34.8482C33.804 34.8002 33.588 34.8002 33.372 34.8482C33.2855 34.9132 33.2254 34.9972 33.192 35.1002C33.1596 35.3657 33.1716 35.6297 33.228 35.8922C33.0437 35.8705 32.8757 35.8945 32.724 35.9642C32.4599 35.9642 32.196 35.9642 31.932 35.9642C31.9438 35.7469 31.9318 35.5309 31.896 35.3162C31.6666 34.7506 31.2827 34.3186 30.744 34.0202C30.2795 33.1957 29.6435 32.5357 28.836 32.0402C27.9411 31.9859 27.5451 31.5179 27.648 30.6362C28.2573 30.5733 28.7973 30.7533 29.268 31.1762C29.457 31.2478 29.6491 31.2718 29.844 31.2482C29.9667 31.0201 30.0267 30.7681 30.024 30.4922C30.0928 30.4145 30.1528 30.3306 30.204 30.2402C30.5558 30.1521 30.9158 30.104 31.284 30.0962C31.3572 30.0207 31.3692 29.9366 31.32 29.8442C31.212 29.7362 31.104 29.6282 30.996 29.5202C30.5653 29.4054 30.1572 29.2374 29.772 29.0162C29.494 28.6293 29.182 28.2693 28.836 27.9362C28.6555 27.9295 28.4994 27.8695 28.368 27.7562C28.4709 27.403 28.3389 27.247 27.972 27.2882C27.6468 27.5048 27.2868 27.5887 26.892 27.5402C26.9128 27.8596 26.8768 28.1716 26.784 28.4762C26.6982 28.6946 26.5422 28.8147 26.316 28.8362C26.3211 28.6423 26.3451 28.4503 26.388 28.2602C26.3959 28.1253 26.3479 28.0173 26.244 27.9362C25.7514 27.8979 25.2715 27.9579 24.804 28.1162C24.6461 28.1287 24.514 28.0807 24.408 27.9722C24.384 27.4442 24.3599 26.9162 24.336 26.3882C24.1773 25.8712 24.0693 25.3432 24.012 24.8042Z" fill="#D0D0D0"/>
<path fill-rule="evenodd" clip-rule="evenodd" d="M6.08409 25.9561C6.78832 26.2242 7.48434 26.5122 8.17209 26.8201C7.76608 27.0713 7.35813 27.3233 6.94809 27.5761C6.49453 27.7291 6.03853 27.8731 5.58009 28.0081C5.49867 28.4939 5.25867 28.8779 4.86009 29.1601C4.93209 29.2081 5.00409 29.2081 5.07609 29.1601C5.35432 28.913 5.66632 28.7209 6.01209 28.5841C6.70809 28.5601 7.40406 28.536 8.10009 28.5121C8.22501 27.6923 8.70496 27.3323 9.54009 27.4321C9.90923 27.6345 9.98123 27.9105 9.75609 28.2601C9.84415 28.3403 9.94012 28.3523 10.0441 28.2961C10.136 28.0857 10.232 27.8817 10.3321 27.6841C10.4339 27.765 10.5419 27.837 10.6561 27.9001C10.7133 28.0729 10.7974 28.229 10.9081 28.3681C11.4904 28.5421 12.0664 28.7341 12.6361 28.9441C13.0288 29.4092 13.4848 29.7932 14.0041 30.0961C14.1241 30.1441 14.2441 30.1441 14.3641 30.0961C14.5786 29.9287 14.8186 29.8207 15.0841 29.7721C15.0408 30.4368 15.3528 30.7608 16.0201 30.7441C16.2155 30.5691 16.3355 30.3531 16.3801 30.0961C16.6386 30.0637 16.8186 30.1717 16.9201 30.4201C16.9681 30.66 16.9681 30.9001 16.9201 31.1401C16.8164 31.2514 16.6844 31.3113 16.5241 31.3201C16.3439 31.4485 16.3439 31.5685 16.5241 31.6801C16.7489 31.6949 16.9649 31.7429 17.1721 31.8241C17.5033 32.2051 17.8873 32.5171 18.3241 32.7601C18.4402 32.8119 18.5482 32.7999 18.6481 32.7241C18.729 32.3206 18.777 31.9127 18.7921 31.5001C18.907 31.2935 19.039 31.1015 19.1881 30.9241C19.4307 30.8173 19.6707 30.6853 19.9081 30.5281C20.2441 30.516 20.5801 30.5041 20.9161 30.4921C21.9865 30.5191 23.0425 30.6271 24.0841 30.8161C24.2962 30.758 24.4882 30.662 24.6601 30.5281C24.7833 30.4465 24.8193 30.3385 24.7681 30.2041C24.3534 30.0392 23.9335 29.8832 23.5081 29.7361C23.4211 29.5741 23.3251 29.418 23.2201 29.2681C22.8006 29.1747 22.6926 28.9347 22.8961 28.5481C23.1719 28.2868 23.4959 28.2028 23.8681 28.2961C24.3271 28.6219 24.8311 28.8259 25.3801 28.9081C25.3596 28.7793 25.3835 28.6593 25.4521 28.5481C25.4943 28.5631 25.5303 28.5872 25.5601 28.6201C25.6308 29.0297 25.4628 29.2938 25.0561 29.4121C24.8926 29.8391 25.0246 29.9471 25.4521 29.7361C25.6809 29.555 25.9089 29.375 26.1361 29.1961C26.3033 29.3353 26.4713 29.4793 26.6401 29.6281C27.0062 30.3024 27.3183 30.9984 27.5761 31.7161C28.1581 32.0731 28.7462 32.4212 29.3401 32.7601C29.5681 32.9881 29.7961 33.216 30.0241 33.4441C30.116 33.8159 30.2361 34.1759 30.3841 34.5241C30.6563 34.9966 30.9083 35.4765 31.1401 35.9641C31.0681 35.9641 30.9961 35.9641 30.9241 35.9641C30.7905 35.8537 30.6586 35.7337 30.5281 35.6041C30.4604 35.2766 30.3164 34.9886 30.0961 34.7401C29.9531 34.3212 29.8811 33.8892 29.8801 33.4441C29.0815 32.8497 28.2535 32.2977 27.3961 31.7881C27.0147 31.4093 26.7868 30.9534 26.7121 30.4201C26.1743 29.7283 25.6703 29.7523 25.2001 30.4921C25.1777 30.6401 25.1417 30.7841 25.0921 30.9241C24.539 30.9675 23.999 31.1115 23.4721 31.3561C22.9083 31.072 22.3204 30.844 21.7081 30.6721C21.2075 30.5715 20.7035 30.5475 20.1961 30.6001C19.8737 30.8986 19.5736 31.2226 19.2961 31.5721C19.1694 31.7958 19.1095 32.0358 19.1161 32.2921C19.0571 32.494 19.0211 32.71 19.0081 32.9401C18.722 33.37 18.386 33.754 18.0001 34.0921C17.785 33.973 17.617 33.805 17.4961 33.5881C17.4875 33.2438 17.4396 32.9077 17.3521 32.5801C17.1917 32.4024 16.9876 32.3183 16.7401 32.3281C16.6681 32.2561 16.5961 32.1841 16.5241 32.1121C16.3081 32.0881 16.0921 32.064 15.8761 32.0401C15.7406 31.8256 15.6326 31.5976 15.5521 31.3561C15.4516 31.2101 15.3316 31.1861 15.1921 31.2841C15.1173 31.4458 15.0333 31.6018 14.9401 31.7521C14.2729 31.8785 13.6489 32.1185 13.0681 32.4721C12.9241 32.5201 12.7801 32.5201 12.6361 32.4721C12.5562 32.275 12.5441 32.0709 12.6001 31.8601C12.7114 31.4808 12.8074 31.0968 12.8881 30.7081C12.9918 30.6094 13.1119 30.5374 13.2481 30.4921C13.4844 30.6089 13.7004 30.7529 13.8961 30.9241C13.9993 30.8931 14.0834 30.833 14.1481 30.7441C13.6457 30.2178 13.1177 29.7138 12.5641 29.2321C12.3806 29.0562 12.1646 28.9363 11.9161 28.8721C11.1209 28.8274 10.3289 28.7674 9.54009 28.6921C9.1618 28.7942 8.77775 28.8662 8.38809 28.9081C7.6709 28.8003 6.9509 28.7643 6.22809 28.8001C5.75048 29.1112 5.27048 29.4231 4.78809 29.7361C4.51121 29.744 4.24721 29.684 3.99609 29.5561C4.112 29.1137 4.364 28.7537 4.75209 28.4761C4.78685 28.4078 4.79885 28.3358 4.78809 28.2601C4.6184 28.2483 4.45039 28.2603 4.28409 28.2961C4.10199 28.4421 3.90998 28.5741 3.70809 28.6921C3.19224 28.3801 2.98824 27.924 3.09609 27.3241C3.18009 27.24 3.26409 27.1561 3.34809 27.0721C3.81893 26.8833 4.27492 26.6673 4.71609 26.4241C5.16656 26.2459 5.62256 26.0899 6.08409 25.9561Z" fill="#B1B1B1"/>
<path fill-rule="evenodd" clip-rule="evenodd" d="M19.1881 30.924C19.0391 31.1015 18.907 31.2935 18.7921 31.5C18.777 31.9127 18.729 32.3206 18.6481 32.724C18.5482 32.7999 18.4402 32.8119 18.3241 32.76C17.8873 32.517 17.5033 32.2051 17.1721 31.824C16.965 31.7429 16.749 31.6949 16.5241 31.68C16.3439 31.5685 16.3439 31.4485 16.5241 31.32C16.6845 31.3113 16.8164 31.2514 16.9201 31.14C16.9681 30.9001 16.9681 30.66 16.9201 30.42C16.8187 30.1716 16.6387 30.0636 16.3801 30.096C16.3355 30.3531 16.2155 30.5691 16.0201 30.744C15.3528 30.7607 15.0408 30.4367 15.0841 29.772C14.8186 29.8207 14.5787 29.9287 14.3641 30.096C14.2441 30.1441 14.1241 30.1441 14.0041 30.096C13.4848 29.7932 13.0289 29.4092 12.6361 28.944C12.0664 28.7341 11.4904 28.5421 10.9081 28.368C10.7974 28.2289 10.7133 28.0729 10.6561 27.9C10.5419 27.837 10.4339 27.765 10.3321 27.684C10.232 27.8817 10.1361 28.0857 10.0441 28.296C9.94014 28.3523 9.84416 28.3403 9.75611 28.26C9.98125 27.9105 9.90925 27.6345 9.54011 27.432C8.70498 27.3323 8.22503 27.6923 8.10011 28.512C7.40408 28.536 6.70811 28.5601 6.01211 28.584C5.66634 28.7209 5.35434 28.9129 5.07611 29.16C5.00411 29.2081 4.93211 29.2081 4.86011 29.16C5.25869 28.8779 5.49869 28.4939 5.58011 28.008C6.03855 27.8731 6.49455 27.7291 6.94811 27.576C7.35815 27.3233 7.7661 27.0713 8.17211 26.82C9.29725 26.4198 10.4613 26.1797 11.6641 26.1C11.8507 26.1047 12.0307 26.1407 12.2041 26.208C12.4005 26.3803 12.6165 26.5243 12.8521 26.64C13.1309 26.7042 13.3948 26.6682 13.6441 26.532C13.719 26.397 13.827 26.3011 13.9681 26.244C14.5635 26.6443 15.1275 27.0883 15.6601 27.576C15.9641 27.8 16.3001 27.872 16.6681 27.792C16.7644 27.2632 17.0763 26.9992 17.6041 27C17.7905 27.223 18.0065 27.403 18.2521 27.54C18.4819 27.4914 18.6979 27.4074 18.9001 27.288C19.1062 27.1595 19.1541 26.9915 19.0441 26.784C18.5956 26.8164 18.1516 26.8045 17.7121 26.748C17.5318 26.3775 17.5918 26.0535 17.8921 25.776C18.7413 25.3233 19.4373 25.4913 19.9801 26.28C20.0686 26.3363 20.1646 26.3723 20.2681 26.388C20.8715 26.1256 21.4956 25.9216 22.1401 25.776C22.2954 25.6334 22.4154 25.4654 22.5001 25.272C22.5932 25.2368 22.6893 25.2247 22.7881 25.236C22.8022 25.9064 22.4902 26.3504 21.8521 26.568C21.7748 26.6213 21.7268 26.6933 21.7081 26.784C21.8345 27.2945 22.1464 27.6064 22.6441 27.72C22.8361 27.816 22.8361 27.9121 22.6441 28.008C21.8359 27.9378 21.6559 28.2378 22.1041 28.908C22.3656 29.0974 22.6056 29.3134 22.8241 29.556C22.8721 29.6761 22.8721 29.796 22.8241 29.916C22.6463 30.0556 22.4422 30.1395 22.2121 30.168C21.4411 30.1792 20.6731 30.2272 19.9081 30.312C19.612 30.4523 19.372 30.6563 19.1881 30.924Z" fill="#CDCDCD"/>
<path fill-rule="evenodd" clip-rule="evenodd" d="M11.6999 26.5322C12.2437 26.6661 12.7357 26.9061 13.1759 27.2522C13.1857 27.6266 12.9936 27.8187 12.5999 27.8282C12.1458 27.7586 11.8097 27.5186 11.5919 27.1082C11.5403 26.8989 11.5763 26.7069 11.6999 26.5322Z" fill="#DEDEDE"/>
<path fill-rule="evenodd" clip-rule="evenodd" d="M35.964 27.9719C35.964 29.5799 35.964 31.1879 35.964 32.7959C35.8609 32.9275 35.7409 33.0475 35.604 33.1559C35.4446 32.9766 35.3606 32.7606 35.352 32.5079C34.9607 32.1887 34.6608 32.2607 34.452 32.7239C34.5619 33.0038 34.6819 33.2797 34.812 33.5519C34.6776 33.8784 34.4855 34.1664 34.236 34.4159C34.14 34.4639 34.044 34.4639 33.948 34.4159C33.5338 33.9406 33.0898 33.9046 32.616 34.3079C32.4917 34.2758 32.3837 34.2158 32.292 34.1279C32.0193 34.1164 31.7553 34.0684 31.5 33.9839C30.9547 33.4039 30.7266 32.7199 30.816 31.9319C30.9928 31.8008 31.1968 31.7528 31.428 31.7879C31.4066 31.5124 31.2746 31.2964 31.032 31.1399C30.9481 30.9013 31.0321 30.7573 31.284 30.7079C31.4382 30.8308 31.6062 30.8909 31.788 30.8879C32.1272 30.3267 32.0192 29.8587 31.464 29.4839C31.416 29.3879 31.416 29.2919 31.464 29.1959C32.0106 28.8651 32.5506 28.5292 33.084 28.1879C33.3531 28.5576 33.6051 28.9415 33.84 29.3399C34.1342 29.5572 34.3621 29.5092 34.524 29.1959C34.2644 28.8037 33.9884 28.4197 33.696 28.0439C33.5809 27.7926 33.5688 27.5406 33.66 27.2879C33.9005 27.3666 34.1404 27.4746 34.38 27.6119C34.5608 27.4393 34.7408 27.2713 34.92 27.1079C35.0082 27.134 35.0921 27.17 35.172 27.2159C35.4266 27.4826 35.6905 27.7346 35.964 27.9719Z" fill="#E1E1E1"/>
<path fill-rule="evenodd" clip-rule="evenodd" d="M12.2761 23.9399C12.2761 24.2279 12.2761 24.5159 12.2761 24.8039C11.5541 24.8364 10.8341 24.8964 10.1161 24.9839C9.87614 25.0799 9.63609 25.176 9.39611 25.2719C8.24325 25.3033 7.13924 25.5313 6.08411 25.9559C5.62258 26.0898 5.16659 26.2458 4.71611 26.4239C4.27495 26.6672 3.81895 26.8832 3.34811 27.0719C3.26411 27.156 3.18011 27.2399 3.09611 27.3239C2.98826 27.9239 3.19227 28.38 3.70811 28.6919C3.91001 28.574 4.10201 28.442 4.28411 28.2959C4.45042 28.2602 4.61842 28.2482 4.78811 28.2599C4.79888 28.3357 4.78687 28.4077 4.75211 28.4759C4.36402 28.7536 4.11202 29.1136 3.99611 29.5559C4.00446 29.8873 3.88446 30.1633 3.63611 30.3839C3.0861 30.4586 2.53411 30.5306 1.98011 30.5999C1.37618 31.1929 0.704185 31.6849 -0.0358887 32.0759C-0.0358887 31.4999 -0.0358887 30.9239 -0.0358887 30.3479C0.745074 29.8915 1.47707 29.3635 2.16011 28.7639C2.19539 28.6708 2.20739 28.5748 2.19611 28.4759C1.8868 28.4066 1.57479 28.3947 1.26011 28.4399C0.818967 28.5749 0.386971 28.731 -0.0358887 28.9079C-0.0358887 28.7159 -0.0358887 28.524 -0.0358887 28.3319C0.213529 28.1187 0.453529 27.8907 0.684111 27.6479C0.932526 27.5738 1.17252 27.4778 1.40411 27.3599C2.50991 26.5194 3.75791 26.0394 5.14811 25.9199C5.53181 25.6977 5.93981 25.5298 6.37211 25.4159C6.71502 25.1617 7.09902 24.9937 7.52411 24.9119C9.15628 24.7961 10.7403 24.4721 12.2761 23.9399Z" fill="#C7C7C7"/>
<path fill-rule="evenodd" clip-rule="evenodd" d="M-0.0358887 30.348C-0.0358887 29.8679 -0.0358887 29.388 -0.0358887 28.908C0.386971 28.731 0.818967 28.575 1.26011 28.44C1.57479 28.3947 1.8868 28.4066 2.19611 28.476C2.20739 28.5748 2.19539 28.6709 2.16011 28.764C1.47707 29.3635 0.745074 29.8915 -0.0358887 30.348Z" fill="#ABABAB"/>
<path fill-rule="evenodd" clip-rule="evenodd" d="M19.1161 32.2919C19.1587 32.481 19.1827 32.6731 19.1881 32.8679C19.1938 33.0674 19.1578 33.2594 19.0801 33.4439C18.7468 33.4893 18.5547 33.6812 18.5041 34.0199C18.3509 34.2453 18.1709 34.4492 17.9641 34.6319C18.307 34.8334 18.631 35.0613 18.9361 35.3159C19.0476 35.5184 19.1076 35.7344 19.1161 35.9639C18.9961 35.9639 18.8761 35.9639 18.7561 35.9639C18.7745 35.7989 18.7506 35.6428 18.6841 35.4959C18.3374 35.2366 17.9534 35.0926 17.5321 35.0639C17.4449 35.2727 17.3009 35.3926 17.1001 35.4239C16.9808 35.0095 16.8728 34.5895 16.7761 34.1639C16.5194 34.0383 16.2434 33.9543 15.9481 33.9119C15.8881 33.8519 15.8281 33.7919 15.7681 33.7319C15.6674 33.1275 15.3314 32.7194 14.7601 32.5079C14.6719 32.534 14.588 32.57 14.5081 32.6159C14.2921 32.8799 14.0761 33.1439 13.8601 33.4079C14.1105 33.6647 14.3745 33.9047 14.6521 34.1279C14.3251 34.575 13.9291 34.947 13.4641 35.2439C13.4002 35.7196 13.6042 35.9596 14.0761 35.9639C13.3561 35.9639 12.6361 35.9639 11.9161 35.9639C12.0061 35.7888 12.1141 35.6207 12.2401 35.4599C12.574 35.1982 12.826 34.8742 12.9961 34.4879C12.9454 33.8107 12.6814 33.2347 12.2041 32.7599C12.05 32.6962 11.93 32.7322 11.8441 32.8679C12.1145 33.233 12.1985 33.641 12.0961 34.0919C11.7368 34.1059 11.5329 33.9139 11.4841 33.5159C11.3575 33.13 11.4056 32.77 11.6281 32.4359C11.473 32.4116 11.3049 32.4116 11.1241 32.4359C11.1126 32.3136 11.1245 32.1935 11.1601 32.0759C11.7044 31.4764 11.8724 30.7803 11.6641 29.9879C11.2256 29.7389 10.8537 29.4149 10.5481 29.0159C10.2449 28.9054 9.93294 28.8815 9.61211 28.9439C9.40374 29.0065 9.31972 29.1384 9.36011 29.3399C9.86757 29.4539 9.95159 29.7059 9.61211 30.0959C9.27148 30.1876 8.99543 30.1036 8.78411 29.8439C8.5936 30.0284 8.40165 30.2203 8.20811 30.4199C7.73896 30.1855 7.30696 29.8975 6.91211 29.5559C6.98652 29.0542 6.78252 28.8502 6.30011 28.9439C6.0009 29.0968 5.8209 29.3248 5.76011 29.6279C5.93258 29.7417 5.96858 29.8857 5.86811 30.0599C5.70903 30.1035 5.55304 30.1516 5.40011 30.2039C5.09333 30.1443 4.80533 30.0963 4.53611 30.0599C4.0729 30.355 3.6769 30.727 3.34811 31.1759C2.78166 31.3149 2.20566 31.4108 1.62011 31.4639C1.04102 31.7201 0.489022 32.0202 -0.0358887 32.3639C-0.0358887 32.2679 -0.0358887 32.1719 -0.0358887 32.0759C0.704185 31.6849 1.37618 31.1928 1.98011 30.5999C2.53411 30.5306 3.0861 30.4586 3.63611 30.3839C3.88446 30.1632 4.00446 29.8872 3.99611 29.5559C4.24723 29.6838 4.51123 29.7439 4.78811 29.7359C5.2705 29.423 5.75051 29.111 6.22811 28.7999C6.95093 28.7642 7.67092 28.8002 8.38811 28.9079C8.77778 28.866 9.16182 28.794 9.54011 28.6919C10.3289 28.7673 11.1209 28.8273 11.9161 28.8719C12.1647 28.9361 12.3807 29.0561 12.5641 29.2319C13.1177 29.7136 13.6457 30.2176 14.1481 30.7439C14.0834 30.8329 13.9994 30.8929 13.8961 30.9239C13.7004 30.7528 13.4844 30.6088 13.2481 30.4919C13.1119 30.5373 12.9919 30.6093 12.8881 30.7079C12.8074 31.0966 12.7114 31.4806 12.6001 31.8599C12.5442 32.0708 12.5562 32.2748 12.6361 32.4719C12.7801 32.5199 12.9241 32.5199 13.0681 32.4719C13.6489 32.1183 14.273 31.8783 14.9401 31.7519C15.0333 31.6016 15.1173 31.4456 15.1921 31.2839C15.3316 31.186 15.4516 31.21 15.5521 31.3559C15.6326 31.5975 15.7406 31.8255 15.8761 32.0399C16.0921 32.0639 16.3081 32.0879 16.5241 32.1119C16.5961 32.1839 16.6681 32.2559 16.7401 32.3279C16.9876 32.3182 17.1917 32.4022 17.3521 32.5799C17.4396 32.9076 17.4875 33.2436 17.4961 33.5879C17.617 33.8048 17.785 33.9728 18.0001 34.0919C18.386 33.7539 18.722 33.3699 19.0081 32.9399C19.0211 32.7099 19.0571 32.4939 19.1161 32.2919Z" fill="#A5A5A5"/>
<path fill-rule="evenodd" clip-rule="evenodd" d="M11.4841 33.516C11.4289 33.4676 11.3809 33.4076 11.3401 33.336C8.91537 32.4355 6.4914 31.5355 4.06811 30.636C3.77987 30.9602 3.46787 31.2602 3.13211 31.536C1.97507 31.5736 0.919076 31.9217 -0.0358887 32.58C-0.0358887 32.508 -0.0358887 32.436 -0.0358887 32.364C0.489022 32.0203 1.04102 31.7202 1.62011 31.464C2.20566 31.4109 2.78166 31.3149 3.34811 31.176C3.6769 30.7271 4.0729 30.355 4.53611 30.06C4.80533 30.0963 5.09333 30.1444 5.40011 30.204C5.55304 30.1516 5.70903 30.1036 5.86811 30.06C5.96858 29.8858 5.93258 29.7418 5.76011 29.628C5.8209 29.3249 6.0009 29.0969 6.30011 28.944C6.78252 28.8503 6.98652 29.0543 6.91211 29.556C7.30696 29.8975 7.73896 30.1855 8.20811 30.42C8.40165 30.2204 8.5936 30.0284 8.78411 29.844C8.99543 30.1037 9.27148 30.1877 9.61211 30.096C9.95159 29.706 9.86757 29.454 9.36011 29.34C9.31972 29.1385 9.40374 29.0065 9.61211 28.944C9.93294 28.8816 10.2449 28.9055 10.5481 29.016C10.8537 29.415 11.2256 29.739 11.6641 29.988C11.8724 30.7804 11.7044 31.4764 11.1601 32.076C11.1245 32.1936 11.1126 32.3137 11.1241 32.436C11.3049 32.4116 11.473 32.4116 11.6281 32.436C11.4056 32.7701 11.3575 33.1301 11.4841 33.516Z" fill="#999999"/>
<path fill-rule="evenodd" clip-rule="evenodd" d="M30.924 35.9639C30.708 35.9639 30.492 35.9639 30.276 35.9639C29.9658 35.2546 29.6658 34.5346 29.376 33.8039C29.268 33.6359 29.16 33.4679 29.052 33.2999C28.3147 32.7559 27.5227 32.3 26.676 31.9319C26.6178 31.9541 26.5698 31.9901 26.532 32.0399C26.7573 32.3813 26.8653 32.7533 26.856 33.1559C26.7019 33.2443 26.5819 33.3643 26.496 33.5159C26.4562 34.208 26.4202 34.8801 26.388 35.5319C25.284 35.1479 24.1799 34.7639 23.076 34.3799C23.0607 33.929 22.8688 33.5811 22.5 33.3359C22.3545 33.3258 22.2224 33.3138 22.104 33.2999C21.936 33.4679 21.7679 33.6359 21.6 33.8039C21.5231 33.7541 21.4391 33.7181 21.348 33.6959C21.509 33.4351 21.629 33.1831 21.708 32.9399C21.6806 32.8304 21.6687 32.7104 21.672 32.5799C21.618 32.5348 21.5579 32.4988 21.492 32.4719C21.1097 32.4471 20.7378 32.4351 20.376 32.4359C20.2149 32.4759 20.0709 32.5479 19.944 32.6519C19.92 32.6279 19.8959 32.6039 19.872 32.5799C19.7512 32.7257 19.6792 32.8937 19.656 33.0839C19.4961 33.0187 19.34 32.9467 19.188 32.8679C19.1826 32.6731 19.1586 32.481 19.116 32.2919C19.1093 32.0357 19.1693 31.7957 19.296 31.5719C19.5735 31.2225 19.8736 30.8985 20.196 30.5999C20.7034 30.5473 21.2074 30.5713 21.708 30.6719C22.3203 30.8438 22.9082 31.0719 23.472 31.3559C23.9989 31.1114 24.5389 30.9674 25.092 30.9239C25.1416 30.7839 25.1776 30.6399 25.2 30.4919C25.6701 29.7521 26.1741 29.7281 26.712 30.4199C26.7866 30.9532 27.0146 31.4092 27.396 31.7879C28.2533 32.2975 29.0813 32.8495 29.88 33.4439C29.881 33.8891 29.953 34.3211 30.096 34.7399C30.3163 34.9884 30.4603 35.2764 30.528 35.6039C30.6584 35.7335 30.7904 35.8535 30.924 35.9639Z" fill="#A0A0A0"/>
<path fill-rule="evenodd" clip-rule="evenodd" d="M11.4841 33.5162C11.5329 33.9142 11.7368 34.1063 12.0961 34.0922C12.1985 33.6413 12.1145 33.2333 11.8441 32.8682C11.93 32.7326 12.05 32.6966 12.2041 32.7602C12.6814 33.2351 12.9454 33.8111 12.9961 34.4882C12.826 34.8745 12.574 35.1985 12.2401 35.4602C12.1141 35.6211 12.0061 35.7891 11.9161 35.9642C11.6281 35.9642 11.3401 35.9642 11.0521 35.9642C11.0316 35.8355 11.0556 35.7155 11.1241 35.6042C11.3967 35.4075 11.6847 35.2275 11.9881 35.0642C12.1713 34.9042 12.1713 34.7482 11.9881 34.5962C11.6398 34.4161 11.3279 34.1881 11.0521 33.9122C10.7497 33.8138 10.4377 33.7778 10.1161 33.8042C10.1065 34.3908 10.3466 34.8348 10.8361 35.1362C10.7969 35.2764 10.701 35.3364 10.5481 35.3162C10.3695 35.2937 10.2135 35.2217 10.0801 35.1002C9.9922 35.1558 9.9202 35.2278 9.86411 35.3162C9.82825 35.5309 9.81623 35.7469 9.82811 35.9642C9.37213 35.9642 8.91609 35.9642 8.46011 35.9642C8.62362 35.8371 8.77957 35.6931 8.92811 35.5322C8.97613 35.3402 8.97613 35.1483 8.92811 34.9562C8.49013 34.9343 8.04618 34.9222 7.59611 34.9202C7.2557 33.3508 6.41571 32.1268 5.07611 31.2482C4.76741 31.117 4.45541 31.117 4.14011 31.2482C3.65227 31.5075 3.17227 31.7835 2.70011 32.0762C2.64081 32.3128 2.60481 32.5527 2.59211 32.7962C2.25028 33.0386 1.86629 33.1826 1.44011 33.2282C1.08287 33.0942 0.710868 33.0342 0.324111 33.0482C0.214064 33.1669 0.166064 33.3109 0.180111 33.4802C0.240079 33.8034 0.252079 34.1274 0.216111 34.4522C0.185597 34.634 0.101597 34.778 -0.0358887 34.8842C-0.0358887 34.1162 -0.0358887 33.3483 -0.0358887 32.5802C0.919076 31.9219 1.97507 31.5739 3.13211 31.5362C3.46787 31.2605 3.77987 30.9604 4.06811 30.6362C6.4914 31.5358 8.91537 32.4358 11.3401 33.3362C11.3809 33.4079 11.4289 33.4678 11.4841 33.5162Z" fill="#919191"/>
<path fill-rule="evenodd" clip-rule="evenodd" d="M8.46011 35.9638C5.62811 35.9638 2.79611 35.9638 -0.0358887 35.9638C-0.0358887 35.6038 -0.0358887 35.2438 -0.0358887 34.8838C0.101597 34.7776 0.185597 34.6336 0.216111 34.4518C0.252079 34.1269 0.240079 33.8029 0.180111 33.4798C0.166064 33.3105 0.214064 33.1665 0.324111 33.0478C0.710868 33.0338 1.08287 33.0937 1.44011 33.2278C1.86629 33.1822 2.25028 33.0382 2.59211 32.7958C2.60481 32.5523 2.64081 32.3123 2.70011 32.0758C3.17227 31.7831 3.65227 31.5071 4.14011 31.2478C4.45541 31.1166 4.76741 31.1166 5.07611 31.2478C6.41571 32.1264 7.2557 33.3504 7.59611 34.9198C8.04618 34.9218 8.49013 34.9338 8.92811 34.9558C8.97613 35.1478 8.97613 35.3398 8.92811 35.5318C8.77957 35.6927 8.62362 35.8367 8.46011 35.9638Z" fill="#797979"/>
<path fill-rule="evenodd" clip-rule="evenodd" d="M30.2761 35.9641C28.2841 35.9641 26.2921 35.9641 24.3001 35.9641C24.0233 35.6336 23.6633 35.4536 23.2201 35.4241C23.1601 35.3642 23.1001 35.3041 23.0401 35.2441C22.9906 34.7072 22.8946 34.1792 22.7521 33.6601C22.5157 33.391 22.2637 33.379 21.9961 33.6241C21.6438 33.9676 21.5478 34.3755 21.7081 34.8481C21.7086 34.9786 21.6606 35.0866 21.5641 35.1721C21.3296 35.263 21.1377 35.407 20.9881 35.6041C20.5519 35.3014 20.072 35.1455 19.5481 35.1361C19.4923 35.4091 19.4444 35.6851 19.4041 35.9641C19.3081 35.9641 19.2121 35.9641 19.1161 35.9641C19.1076 35.7346 19.0476 35.5186 18.9361 35.3161C18.631 35.0615 18.307 34.8336 17.9641 34.6321C18.1709 34.4495 18.3509 34.2455 18.5041 34.0201C18.5547 33.6814 18.7468 33.4895 19.0801 33.4441C19.1578 33.2596 19.1938 33.0676 19.1881 32.8681C19.3402 32.9469 19.4962 33.0189 19.6561 33.0841C19.6794 32.894 19.7514 32.7259 19.8721 32.5801C19.8961 32.6041 19.9201 32.6282 19.9441 32.6521C20.071 32.5482 20.215 32.4762 20.3761 32.4361C20.7379 32.4353 21.1099 32.4473 21.4921 32.4721C21.5581 32.4991 21.6181 32.5351 21.6721 32.5801C21.6688 32.7107 21.6808 32.8306 21.7081 32.9401C21.6291 33.1833 21.5092 33.4353 21.3481 33.6961C21.4393 33.7184 21.5233 33.7544 21.6001 33.8041C21.7681 33.6362 21.9361 33.4681 22.1041 33.3001C22.2226 33.314 22.3546 33.326 22.5001 33.3361C22.8689 33.5813 23.0608 33.9293 23.0761 34.3801C24.1801 34.7641 25.2841 35.1482 26.3881 35.5321C26.4203 34.8803 26.4563 34.2083 26.4961 33.5161C26.582 33.3646 26.702 33.2445 26.8561 33.1561C26.8655 32.7536 26.7575 32.3816 26.5321 32.0401C26.5699 31.9903 26.6179 31.9543 26.6761 31.9321C27.5228 32.3002 28.3148 32.7562 29.0521 33.3001C29.1601 33.4681 29.2681 33.6362 29.3761 33.8041C29.6659 34.5348 29.9659 35.2548 30.2761 35.9641Z" fill="#959595"/>
<path fill-rule="evenodd" clip-rule="evenodd" d="M18.7561 35.9638C17.1961 35.9638 15.6361 35.9638 14.0761 35.9638C13.6041 35.9595 13.4001 35.7195 13.4641 35.2438C13.9291 34.9469 14.3251 34.5749 14.6521 34.1278C14.3744 33.9046 14.1104 33.6646 13.8601 33.4078C14.0761 33.1438 14.2921 32.8798 14.5081 32.6158C14.5879 32.5699 14.6719 32.5339 14.7601 32.5078C15.3314 32.7193 15.6674 33.1274 15.7681 33.7318C15.8281 33.7918 15.8881 33.8518 15.9481 33.9118C16.2434 33.9542 16.5193 34.0382 16.7761 34.1638C16.8728 34.5894 16.9808 35.0094 17.1001 35.4238C17.3009 35.3926 17.4449 35.2726 17.5321 35.0638C17.9534 35.0925 18.3374 35.2365 18.6841 35.4958C18.7505 35.6428 18.7745 35.7988 18.7561 35.9638Z" fill="#AEAEAE"/>
<path fill-rule="evenodd" clip-rule="evenodd" d="M11.0519 35.9638C10.6439 35.9638 10.2359 35.9638 9.82792 35.9638C9.81604 35.7465 9.82806 35.5305 9.86392 35.3158C9.92 35.2274 9.992 35.1554 10.0799 35.0998C10.2133 35.2213 10.3693 35.2933 10.5479 35.3158C10.7008 35.336 10.7967 35.276 10.8359 35.1358C10.3464 34.8344 10.1063 34.3904 10.1159 33.8038C10.4375 33.7774 10.7495 33.8134 11.0519 33.9118C11.3277 34.1877 11.6397 34.4157 11.9879 34.5958C12.1711 34.7478 12.1711 34.9038 11.9879 35.0638C11.6845 35.227 11.3965 35.407 11.1239 35.6038C11.0554 35.715 11.0314 35.8351 11.0519 35.9638Z" fill="#808080"/>
<path fill-rule="evenodd" clip-rule="evenodd" d="M24.3001 35.964C22.668 35.964 21.0361 35.964 19.4041 35.964C19.4443 35.6849 19.4923 35.409 19.5481 35.136C20.0719 35.1454 20.5519 35.3013 20.9881 35.604C21.1376 35.4069 21.3295 35.2629 21.5641 35.172C21.6605 35.0865 21.7086 34.9785 21.7081 34.848C21.5478 34.3754 21.6438 33.9675 21.9961 33.624C22.2636 33.3789 22.5156 33.3909 22.7521 33.66C22.8945 34.1791 22.9906 34.707 23.0401 35.244C23.1 35.304 23.1601 35.364 23.2201 35.424C23.6632 35.4535 24.0232 35.6335 24.3001 35.964Z" fill="#888888"/>
<path fill-rule="evenodd" clip-rule="evenodd" d="M35.0281 35.964C34.2601 35.964 33.4921 35.964 32.7241 35.964C32.8758 35.8943 33.0439 35.8703 33.2281 35.892C33.1717 35.6295 33.1597 35.3656 33.1921 35.1C33.2256 34.997 33.2856 34.913 33.3721 34.848C33.5881 34.8 33.8041 34.8 34.0201 34.848C34.4634 35.1221 34.7994 35.4941 35.0281 35.964Z" fill="#B4B4B4"/>
</g>
<defs>
<clipPath id="clip0_8216_108091">
<rect width="36" height="36" rx="18" fill="white"/>
</clipPath>
</defs>
</svg>
