<svg width="36" height="36" viewBox="0 0 36 36" fill="none" xmlns="http://www.w3.org/2000/svg">
<circle cx="18" cy="18" r="17.75" fill="white" stroke="#EFEFF4" stroke-width="0.5"/>
<path d="M17.9999 5.73669C18.0685 5.73669 18.1317 5.75399 18.1949 5.78794L28.4833 11.7262C28.6038 11.7948 28.6783 11.9213 28.6783 12.0584V23.9343C28.6783 24.0721 28.6038 24.1979 28.4833 24.2664L18.1949 30.2101C18.1377 30.2447 18.0691 30.2613 17.9999 30.2613C17.9307 30.2613 17.8681 30.244 17.8049 30.2101L7.52254 24.2731C7.40206 24.2045 7.32751 24.0781 7.32751 23.9409V12.0591C7.32751 11.9213 7.40206 11.7955 7.52254 11.7269L17.8049 5.78861C17.8681 5.75399 17.9307 5.73735 17.9999 5.73735M17.9999 4.00067C17.6331 4.00067 17.2664 4.09785 16.9395 4.28756L6.6512 10.2245C5.99753 10.6026 5.59082 11.3022 5.59082 12.0591V23.935C5.59082 24.6918 5.99753 25.3907 6.6512 25.7748L16.9395 31.7131C17.2664 31.9021 17.6331 32 17.9999 32C18.3667 32 18.7335 31.9028 19.0603 31.7131L29.3486 25.7748C30.0076 25.3967 30.409 24.6971 30.409 23.935V12.0591C30.409 11.3022 30.0023 10.6033 29.3486 10.2192L19.0603 4.28091C18.7335 4.09186 18.3667 4 17.9999 4V4.00067Z" fill="#FF7700"/>
<path d="M15.3747 11.9155H14.0334C13.9302 11.9155 13.8443 11.9788 13.8097 12.0759L9.4823 23.9232C9.45368 24.0038 9.51092 24.0837 9.59679 24.0837H10.9381C11.0413 24.0837 11.1271 24.0204 11.1617 23.9232L15.4832 12.07C15.5178 11.9954 15.4605 11.9155 15.374 11.9155H15.3747Z" fill="#FF7700"/>
<path d="M17.1174 16.5124C17.0775 16.4093 16.9283 16.4093 16.8937 16.5124L16.1941 18.4269C16.1768 18.4781 16.1768 18.536 16.1941 18.5933L18.1432 23.9298C18.1778 24.027 18.269 24.0902 18.3668 24.0902H19.7081C19.794 24.0902 19.8512 24.0097 19.8226 23.9298L17.1174 16.5131V16.5124Z" fill="#FF7700"/>
<path d="M17.7249 11.9155H16.3836C16.2804 11.9155 16.1945 11.9788 16.1599 12.0759L11.8385 23.9232C11.8099 24.0038 11.8671 24.0837 11.953 24.0837H13.2943C13.3975 24.0837 13.4833 24.0204 13.5179 23.9232L17.8394 12.07C17.868 11.9954 17.8107 11.9155 17.7249 11.9155Z" fill="#FF7700"/>
<path d="M18.2923 13.2854C18.2523 13.1822 18.1032 13.1822 18.0686 13.2854L17.3697 15.1998C17.3524 15.2511 17.3524 15.309 17.3697 15.3662L20.4936 23.9238C20.5282 24.021 20.6194 24.0843 20.7172 24.0843H22.0585C22.1444 24.0843 22.2016 24.0037 22.173 23.9238L18.2929 13.2861L18.2923 13.2854Z" fill="#FF7700"/>
<path d="M26.4022 11.9155H25.0609C24.9578 11.9155 24.8719 11.9788 24.8373 12.0759L21.708 20.6336C21.6907 20.6848 21.6907 20.7427 21.708 20.8L22.4076 22.7144C22.4476 22.8176 22.5967 22.8176 22.6313 22.7144L26.5114 12.0766C26.54 11.9961 26.4828 11.9162 26.4022 11.9162V11.9155Z" fill="#FF7700"/>
<path d="M21.2321 19.4873C21.2721 19.5905 21.4212 19.5905 21.4558 19.4873L24.161 12.0759C24.1896 11.9954 24.1324 11.9155 24.0465 11.9155H22.7052C22.602 11.9155 22.5162 11.9788 22.4815 12.0759L20.5325 17.4125C20.5152 17.4637 20.5152 17.5217 20.5325 17.5789L21.2314 19.4873H21.2321Z" fill="#FF7700"/>
</svg>
