<svg width="36" height="36" viewBox="0 0 36 36" fill="none" xmlns="http://www.w3.org/2000/svg">
<circle cx="18" cy="18" r="18" fill="#FF00AA"/>
<path d="M10.836 10.1427L18.3396 17.66C18.4285 17.75 18.4785 17.8715 18.4785 17.9983C18.4785 18.125 18.4285 18.2465 18.3396 18.3365C18.2936 18.384 18.2383 18.4212 18.177 18.4457C18.1158 18.4703 18.05 18.4816 17.9841 18.479H10.4948C10.4316 18.4795 10.369 18.4674 10.3105 18.4434C10.2521 18.4194 10.199 18.384 10.1544 18.3392C10.1097 18.2945 10.0744 18.2413 10.0504 18.1828C10.0265 18.1242 10.0144 18.0615 10.0149 17.9983V10.4775C10.0155 10.3824 10.0443 10.2897 10.0975 10.2111C10.1507 10.1324 10.226 10.0713 10.3139 10.0355C10.4017 9.99963 10.4982 9.99071 10.5912 10.0098C10.6841 10.0289 10.7693 10.0752 10.836 10.1427Z" fill="black"/>
<path d="M25.1644 25.8537L17.6608 18.3365C17.5718 18.2465 17.5219 18.1249 17.5219 17.9982C17.5219 17.8715 17.5718 17.75 17.6608 17.6599C17.7076 17.614 17.7633 17.578 17.8244 17.5542C17.8854 17.5303 17.9507 17.519 18.0162 17.5211H25.5233C25.6497 17.5211 25.7708 17.5714 25.8602 17.6609C25.9495 17.7503 25.9997 17.8717 25.9997 17.9982V25.519C26.0002 25.582 25.9882 25.6444 25.9644 25.7027C25.9407 25.761 25.9057 25.8141 25.8614 25.8587C25.8171 25.9034 25.7645 25.9389 25.7065 25.9631C25.6484 25.9873 25.5862 25.9998 25.5233 25.9998C25.4573 26.0008 25.3918 25.9885 25.3307 25.9633C25.2696 25.9382 25.2142 25.9009 25.1679 25.8537" fill="black"/>
<path d="M18.3396 18.3365L10.8356 25.8539C10.7894 25.9013 10.7341 25.9387 10.6729 25.9638C10.6118 25.9889 10.5462 26.0012 10.4801 25.9999C10.417 26.0004 10.3544 25.9883 10.2959 25.9643C10.2375 25.9403 10.1844 25.9049 10.1397 25.8602C10.0951 25.8154 10.0598 25.7623 10.0358 25.7037C10.0119 25.6451 9.99978 25.5824 10.0003 25.5192V17.9984C10.0003 17.9354 10.0127 17.8731 10.0368 17.815C10.061 17.7569 10.0964 17.7041 10.141 17.6597C10.1856 17.6154 10.2385 17.5803 10.2967 17.5565C10.3549 17.5328 10.4173 17.5208 10.4801 17.5213H18.0015C18.0974 17.5172 18.1924 17.5423 18.2739 17.5934C18.3553 17.6444 18.4195 17.7189 18.4579 17.807C18.4964 17.8952 18.5073 17.993 18.4893 18.0875C18.4713 18.182 18.4251 18.2689 18.3569 18.3367" fill="black"/>
<path d="M10.1568 25.1809L17.6604 17.6637C17.7063 17.6162 17.7617 17.579 17.8229 17.5545C17.8841 17.5299 17.9503 17.5185 18.0162 17.5211C18.1425 17.5211 18.2633 17.5715 18.3526 17.661C18.4419 17.7505 18.4921 17.8718 18.4921 17.9984V25.5192C18.4926 25.5821 18.4806 25.6446 18.4569 25.7029C18.4332 25.7611 18.3981 25.8142 18.3538 25.8589C18.3096 25.9036 18.257 25.9391 18.1989 25.9632C18.1409 25.9874 18.0787 25.9999 18.0158 25.9999H10.4945C10.4315 26.0005 10.369 25.9881 10.3109 25.9636C10.2528 25.9392 10.2004 25.903 10.1568 25.8575C10.1118 25.8134 10.0762 25.7607 10.0518 25.7026C10.0274 25.6446 10.0149 25.5822 10.0149 25.5192C10.0149 25.4561 10.0274 25.3938 10.0518 25.3357C10.0762 25.2776 10.1118 25.2249 10.1568 25.1809Z" fill="black"/>
<path d="M17.6608 17.6599L25.1642 10.143C25.2107 10.0963 25.2661 10.0595 25.3273 10.035C25.3884 10.0105 25.4538 9.99881 25.5197 10.0006C25.5822 10.0006 25.6441 10.0129 25.702 10.0369C25.7597 10.0609 25.8122 10.096 25.8564 10.1403C25.9007 10.1846 25.9358 10.2372 25.9597 10.2951C25.9837 10.353 25.996 10.4151 25.996 10.4777V17.9985C25.9965 18.0615 25.9845 18.1239 25.9607 18.1822C25.937 18.2405 25.902 18.2935 25.8577 18.3382C25.8134 18.3829 25.7608 18.4184 25.7028 18.4426C25.6447 18.4668 25.5825 18.4792 25.5197 18.4792H18.0019C17.9059 18.4822 17.8113 18.4562 17.7302 18.4048C17.6491 18.3533 17.5853 18.2786 17.5471 18.1904C17.5088 18.1022 17.4978 18.0046 17.5155 17.91C17.5332 17.8155 17.5788 17.7285 17.6464 17.6602" fill="black"/>
<path d="M25.8462 10.8193L18.3426 18.3366C18.2957 18.3826 18.2401 18.419 18.1791 18.4434C18.1181 18.4679 18.0528 18.48 17.9871 18.479C17.924 18.4795 17.8614 18.4674 17.8029 18.4434C17.7445 18.4194 17.6915 18.384 17.6468 18.3392C17.6021 18.2945 17.5668 18.2413 17.5428 18.1828C17.5189 18.1243 17.5068 18.0615 17.5073 17.9983V10.4775C17.5073 10.4145 17.5197 10.3522 17.5439 10.2941C17.5681 10.2359 17.6035 10.1832 17.6481 10.1388C17.6926 10.0945 17.7456 10.0594 17.8038 10.0356C17.862 10.0119 17.9243 9.99986 17.9871 10.0003H25.4943C25.5599 9.9979 25.6253 10.009 25.6864 10.0329C25.7475 10.0567 25.8031 10.0929 25.8498 10.1392C25.939 10.2298 25.989 10.352 25.989 10.4793C25.989 10.6066 25.939 10.7287 25.8498 10.8193" fill="black"/>
</svg>
