<svg width="36" height="36" viewBox="0 0 36 36" fill="none" xmlns="http://www.w3.org/2000/svg">
<circle cx="18" cy="18" r="18" fill="#00CFFF"/>
<path d="M29.8255 17.0965C29.4442 16.8081 29.0478 16.5406 28.6375 16.2952C28.4607 16.1833 28.2962 16.053 28.1467 15.9065C27.8401 15.604 27.3294 15.0731 27.163 14.7466C27.0549 14.5462 27.099 14.1636 27.1832 13.805C27.3269 13.1764 27.2174 12.5165 26.8786 11.9679L26.3457 11.0984C26.0998 10.7029 25.9029 10.2791 25.7586 9.83632C25.574 9.26774 25.2536 8.75272 24.8251 8.33579C23.9576 7.48837 21.5557 7.07368 19.5623 7.00556C19.439 6.96961 19.314 6.94019 19.1876 6.91741C18.2981 6.76514 17.3526 6.51673 16.5011 6.68101C15.241 6.91541 13.9649 7.31008 13.0133 8.2837C12.8129 8.48404 12.5204 8.57419 12.3141 8.76051C11.9034 9.13112 11.3525 9.13112 10.9879 9.54182C10.7735 9.78221 10.6753 10.5635 10.1164 10.862C9.19084 11.3589 8.51369 11.9038 8.28332 12.1823C8.11303 12.3926 7.98281 12.637 7.81853 12.8514C7.65425 13.0657 6.85291 13.4524 6.61651 13.6748C6.43974 13.8709 6.31142 14.1057 6.24185 14.3604C6.17226 14.615 6.16335 14.8825 6.21584 15.1412C6.22987 15.2033 6.23987 15.2534 6.2479 15.2935C6.34004 15.634 6.58846 16.2491 6.53036 16.5316C6.46425 16.8661 5.60282 19.3583 7.53206 20.0233C7.70806 20.0764 7.86252 20.1843 7.97283 20.3315C8.08312 20.4785 8.14349 20.657 8.14508 20.8408C8.18446 21.1736 8.27997 21.4974 8.42755 21.7985C8.55576 22.0426 8.74484 22.2497 8.97648 22.3995C9.22361 22.635 9.45705 22.8844 9.67565 23.1467C10.3568 24.4068 10.1665 25.0359 11.4787 25.4646C11.8136 25.5753 12.1354 25.7225 12.4383 25.9033C12.8069 26.1255 13.202 26.3005 13.6143 26.4243L13.6664 26.4423C13.9569 25.743 14.2493 25.0778 14.5438 24.4528C13.7841 23.7114 13.242 22.7761 12.9764 21.7484C12.7108 20.7206 12.7319 19.6397 13.0373 18.6231C13.0437 18.6013 13.0555 18.5815 13.0716 18.5656C13.0877 18.5496 13.1076 18.538 13.1294 18.5318C13.1512 18.5256 13.1742 18.525 13.1963 18.5301C13.2184 18.5352 13.2388 18.5458 13.2557 18.561C13.7485 18.9937 15.247 20.5523 15.0707 23.3691C15.5896 22.3333 16.0924 21.4218 16.5532 20.6445C15.9968 19.7346 15.6985 18.6903 15.6904 17.6238C15.6823 16.5572 15.9646 15.5086 16.5071 14.5903C16.5195 14.5713 16.5364 14.5557 16.5564 14.5448C16.5763 14.534 16.5986 14.5284 16.6213 14.5284C16.644 14.5284 16.6663 14.534 16.6863 14.5448C16.7062 14.5557 16.7231 14.5713 16.7355 14.5903C17.0821 15.1032 18.0197 16.794 17.4387 19.208C17.8614 18.563 18.204 18.0862 18.4264 17.7877C19.0274 13.7809 22.0564 12.4687 22.8518 12.1903C22.8731 12.1824 22.8961 12.18 22.9184 12.1834C22.9409 12.1868 22.962 12.1958 22.98 12.2096C22.998 12.2234 23.0123 12.2416 23.0213 12.2624C23.0305 12.2831 23.0343 12.3059 23.0321 12.3285C22.9076 13.5479 22.4636 14.7128 21.745 15.7058C21.0264 16.6988 20.0585 17.4846 18.9392 17.984C18.5165 18.5389 18.1118 19.1239 17.7232 19.725C19.0634 18.6752 20.9445 18.1823 22.5073 18.561C22.5292 18.5661 22.5498 18.5767 22.5666 18.5917C22.5836 18.6067 22.5965 18.6257 22.6044 18.647C22.612 18.6683 22.6144 18.6911 22.611 18.7136C22.6077 18.736 22.5989 18.7572 22.5854 18.7753C22.1365 19.3763 20.3496 21.3798 16.9759 20.9148C16.409 21.8746 15.8861 22.8462 15.4253 23.7737C16.8777 22.6759 19.0013 22.2532 20.6482 22.808C20.6701 22.8149 20.69 22.8272 20.7059 22.8436C20.722 22.8603 20.7335 22.8804 20.7394 22.9028C20.7454 22.9249 20.7456 22.9484 20.7402 22.9707C20.7347 22.993 20.7237 23.0136 20.7083 23.0304C20.1973 23.5815 18.228 25.3885 14.9886 24.6712C14.6841 25.3143 14.2313 26.3681 14.0109 26.889C13.9348 27.0693 13.8647 27.2496 13.8106 27.4338C13.6684 27.8586 13.474 28.3895 13.2436 28.9204C13.2116 28.9959 13.1955 29.0774 13.1962 29.1594C13.1968 29.2416 13.2143 29.3227 13.2475 29.3978C13.2808 29.4728 13.329 29.5403 13.3893 29.5961C13.4497 29.6517 13.5208 29.6946 13.5982 29.7218C16.1533 30.6348 18.9279 30.7378 21.5436 30.0162C21.6301 29.9916 21.7098 29.9477 21.7771 29.888C21.8442 29.8285 21.8973 29.7545 21.9323 29.6717C21.9864 29.5435 22.0404 29.4211 22.0404 29.4211C22.0404 29.4211 23.1703 26.7968 23.3365 25.653C23.3845 25.2926 23.4964 24.9439 23.6671 24.6231C23.7556 24.4626 23.8837 24.3273 24.0389 24.2298C24.1941 24.1323 24.3717 24.0761 24.5547 24.0661C25.4141 24.0201 27.2472 23.9 27.9143 23.6895C28.8017 23.407 28.4172 21.7924 28.3691 21.6201C28.3209 21.4479 28.7958 21.0411 28.8939 20.8048C28.9922 20.5683 28.6535 20.4883 28.5153 20.2277C28.3771 19.9674 28.8579 19.783 28.926 19.5466C28.9941 19.3102 28.7698 19.0538 28.6795 18.8795C28.6179 18.7529 28.5754 18.6179 28.5533 18.4788C28.5533 18.4788 29.2024 18.004 29.555 17.7035C29.9077 17.403 29.8355 17.1566 29.8335 17.1025" fill="black"/>
</svg>
