<svg width="36" height="36" viewBox="0 0 36 36" fill="none" xmlns="http://www.w3.org/2000/svg">
<path d="M18 36C27.9411 36 36 27.9411 36 18C36 8.05887 27.9411 0 18 0C8.05887 0 0 8.05887 0 18C0 27.9411 8.05887 36 18 36Z" fill="url(#paint0_linear_7170_122042)"/>
<path fill-rule="evenodd" clip-rule="evenodd" d="M13.2025 10.771H9.0258C8.94061 10.771 8.85891 10.8048 8.79867 10.8651C8.73843 10.9253 8.70459 11.007 8.70459 11.0922V15.2689C8.70459 15.3541 8.73842 15.4358 8.79866 15.4961C8.85889 15.5564 8.94059 15.5903 9.0258 15.5903H13.2025C13.2877 15.5903 13.3695 15.5565 13.4298 15.4962C13.4901 15.4359 13.5239 15.3541 13.5239 15.2689V11.0922C13.5239 11.007 13.49 10.9253 13.4297 10.8651C13.3694 10.8048 13.2877 10.771 13.2025 10.771ZM18.024 15.5903H13.8473C13.7621 15.5903 13.6804 15.6242 13.6201 15.6844C13.5599 15.7447 13.5261 15.8264 13.5261 15.9115V20.0882C13.5261 20.1734 13.5599 20.2552 13.6201 20.3154C13.6804 20.3757 13.7621 20.4096 13.8473 20.4097H18.024C18.0662 20.4097 18.1079 20.4014 18.1469 20.3852C18.1859 20.369 18.2213 20.3454 18.2512 20.3155C18.281 20.2857 18.3047 20.2502 18.3208 20.2112C18.3369 20.1722 18.3452 20.1304 18.3452 20.0882V15.9115C18.3452 15.8264 18.3113 15.7447 18.2511 15.6844C18.1908 15.6242 18.1091 15.5903 18.024 15.5903ZM18.6649 10.771H22.8412C22.9264 10.771 23.0081 10.8048 23.0684 10.8651C23.1286 10.9253 23.1625 11.007 23.1626 11.0922V15.2689C23.1626 15.3541 23.1287 15.4359 23.0684 15.4962C23.0082 15.5565 22.9264 15.5903 22.8412 15.5903H18.6645C18.5793 15.5903 18.4976 15.5564 18.4373 15.4961C18.3771 15.4358 18.3433 15.3541 18.3433 15.2689V11.0922C18.3433 11.007 18.3771 10.9253 18.4373 10.8651C18.4976 10.8048 18.5798 10.771 18.6649 10.771ZM13.2025 20.4097H9.0258C8.94061 20.4097 8.85891 20.4435 8.79867 20.5037C8.73843 20.564 8.70459 20.6457 8.70459 20.7309V24.9076C8.70459 24.9928 8.73842 25.0745 8.79866 25.1348C8.85889 25.195 8.94059 25.2289 9.0258 25.229H13.2025C13.2877 25.229 13.3695 25.1951 13.4298 25.1349C13.4901 25.0746 13.5239 24.9928 13.5239 24.9076V20.7309C13.5239 20.6457 13.49 20.564 13.4297 20.5037C13.3694 20.4435 13.2877 20.4097 13.2025 20.4097ZM18.6645 20.4097H22.8412C22.9264 20.4097 23.0081 20.4435 23.0684 20.5037C23.1286 20.564 23.1625 20.6457 23.1626 20.7309V24.9076C23.1626 24.9928 23.1287 25.0746 23.0684 25.1349C23.0082 25.1951 22.9264 25.229 22.8412 25.229H18.6645C18.5793 25.2289 18.4976 25.195 18.4373 25.1348C18.3771 25.0745 18.3433 24.9928 18.3433 24.9076V20.7309C18.3433 20.6457 18.3771 20.564 18.4373 20.5037C18.4976 20.4435 18.5793 20.4097 18.6645 20.4097Z" fill="white"/>
<path d="M23.9414 10.771H25.2713C25.437 10.771 25.5713 10.9053 25.5713 11.071V15.2786C25.5713 15.4443 25.437 15.5786 25.2713 15.5786H23.9414V10.771Z" fill="#878787"/>
<path d="M23.9414 20.4214H25.2713C25.437 20.4214 25.5713 20.5557 25.5713 20.7214V24.929C25.5713 25.0947 25.437 25.229 25.2713 25.229H23.9414V20.4214Z" fill="#878787"/>
<path d="M26.4099 10.771H26.8782C27.0439 10.771 27.1782 10.9053 27.1782 11.071V15.2786C27.1782 15.4443 27.0439 15.5786 26.8782 15.5786H26.4099V10.771Z" fill="#606060"/>
<path d="M26.4099 20.4214H26.8782C27.0439 20.4214 27.1782 20.5557 27.1782 20.7214V24.929C27.1782 25.0947 27.0439 25.229 26.8782 25.229H26.4099V20.4214Z" fill="#606060"/>
<defs>
<linearGradient id="paint0_linear_7170_122042" x1="0" y1="18" x2="36" y2="18" gradientUnits="userSpaceOnUse">
<stop stop-color="#3C3C3C"/>
<stop offset="1"/>
</linearGradient>
</defs>
</svg>
