<svg width="36" height="36" viewBox="0 0 36 36" fill="none" xmlns="http://www.w3.org/2000/svg">
<path d="M18 36C27.9411 36 36 27.9411 36 18C36 8.05888 27.9411 0 18 0C8.05888 0 0 8.05888 0 18C0 27.9411 8.05888 36 18 36Z" fill="#ED384C"/>
<path fill-rule="evenodd" clip-rule="evenodd" d="M18.0633 23.8796C18.1392 23.9616 18.2494 24.0058 18.363 23.9994L20.7615 23.9998C20.884 23.9979 21.0018 23.9556 21.0962 23.88C21.1983 23.8047 21.2673 23.6943 21.2888 23.5715L22.0997 19.8194H24.4793C26.019 19.8194 27.2294 19.5053 28.1108 18.8771C29.0608 18.159 29.6968 17.1186 29.8913 15.9644C29.9599 15.672 29.9957 15.3732 29.9972 15.0733C30.04 14.1613 29.5843 13.2946 28.7984 12.7945C27.8588 12.2288 26.7644 11.9536 25.6604 12.0064H20.971C20.8485 12.0083 20.7303 12.0506 20.6359 12.1262C20.5338 12.2014 20.4648 12.3119 20.4433 12.4347L18.0106 23.5711C17.9859 23.6767 18.0048 23.7875 18.0633 23.8796ZM25.8907 17.0606C25.5178 17.326 25.0656 17.4642 24.6037 17.4544H22.5766L23.2465 14.3878H25.3618C25.7259 14.353 26.0899 14.4507 26.3842 14.6619C26.5945 14.8573 26.7043 15.1336 26.6839 15.4159C26.6816 15.5885 26.6639 15.7603 26.6311 15.9299C26.5383 16.3833 26.2744 16.7869 25.8907 17.0606ZM8.24983 23.0622C9.20003 23.7171 10.3368 24.0443 11.4888 23.9952C13.0832 23.9952 14.3565 23.6231 15.3081 22.8791C16.2609 22.1237 16.9305 20.9854 17.3178 19.4641C17.5501 18.5311 17.7493 17.5704 17.9155 16.5821C17.9653 16.2905 17.9929 15.9953 17.9987 15.6993C18.0186 14.9884 17.8154 14.2891 17.4179 13.7001C17.0238 13.1285 16.4688 12.6877 15.8235 12.434C15.0965 12.1351 14.3169 11.988 13.5315 12.0008C10.3981 12.0008 8.45489 13.5279 7.70177 16.5821C7.43609 17.7026 7.23139 18.6632 7.0873 19.4641C7.03685 19.7615 7.00927 20.0622 7.00419 20.3636C6.95047 21.4142 7.41649 22.4237 8.24983 23.0622ZM13.2996 21.0465C12.8578 21.4168 12.2967 21.6122 11.7214 21.5962C10.6584 21.5962 10.1266 21.0855 10.1266 20.0637C10.1259 19.8289 10.1481 19.5944 10.1931 19.364C10.3923 18.2868 10.5916 17.376 10.7908 16.6319C10.9164 15.9869 11.242 15.3979 11.7211 14.9494C12.1701 14.5806 12.7355 14.3859 13.3155 14.3997C14.3673 14.3994 14.8933 14.9046 14.8933 15.9155C14.8936 16.1558 14.8715 16.3957 14.8268 16.6319C14.6944 17.4099 14.5009 18.3203 14.2461 19.364C14.1195 20.0123 13.7877 20.6028 13.2996 21.0465Z" fill="white"/>
</svg>
