<svg width="36" height="36" viewBox="0 0 36 36" fill="none" xmlns="http://www.w3.org/2000/svg">
<circle cx="18" cy="18" r="18" fill="#06353D"/>
<path d="M27.9435 24.0984C27.9468 23.5618 29.9981 23.5848 29.9841 23.0818C29.976 22.7827 29.4311 22.7203 29.3167 22.3277C29.2975 22.2552 29.2913 22.1717 29.3038 22.0742C29.3119 22.0162 29.3268 21.9538 29.3508 21.8851C29.7713 20.663 30 19.3526 30 17.988C30 11.3669 24.6275 6 18 6C11.3725 6 6 11.3669 6 17.9875C6 19.3435 6.22632 20.6467 6.64195 21.8626C6.64435 21.8741 6.64819 21.8856 6.65252 21.8976C6.66453 21.9293 6.67414 21.959 6.68327 21.9883C6.83126 22.5197 6.0024 22.7314 6.0024 23.0525C6.0024 23.5603 7.78746 23.4926 7.78746 24.0835C7.78746 24.5981 6.0221 24.7579 6.0221 25.2778C6.0221 25.9954 9.93145 25.7458 9.98046 26.363C10.0184 26.8397 8.6365 26.8685 8.62785 27.3778C8.6144 28.1909 13.9628 27.9245 13.9628 28.4654C13.9628 28.8749 11.5301 28.7266 11.5301 29.2104C11.5301 29.6942 14.7326 30 18.2619 30C21.7911 30 24.2258 29.6083 24.2258 29.1835C24.2258 28.7587 21.9536 28.847 22.0006 28.465C22.0823 27.7978 27.1247 28.139 27.1247 27.3667C27.1247 26.9602 25.7375 26.8646 25.7827 26.4259C25.8461 25.8062 29.9981 25.8979 29.9981 25.2542C29.9981 24.7478 27.9401 24.624 27.9435 24.0984ZM22.5672 27.1291C22.5672 27.4834 20.9584 27.6446 17.8712 27.6446C15.3467 27.6446 12.839 27.4862 12.839 27.0744C12.839 26.6626 15.8301 26.6256 17.8861 26.629C20.6245 26.6338 22.5672 26.7605 22.5672 27.1286V27.1291ZM18 9.13104C21.7854 9.13104 25.0158 11.5008 26.2872 14.8363C26.4342 15.2688 25.9009 15.2424 25.5251 15.2424H24.5031C23.7732 15.2424 22.8545 15.3298 22.8545 15.5294C22.8545 15.78 25.0854 15.7651 25.3315 15.7651C26.0513 15.7651 26.6154 15.8194 26.697 16.2605C26.8076 16.8192 26.8662 17.3966 26.8662 17.988C26.8662 19.176 26.6312 20.3088 26.2065 21.3437C26.0686 21.648 25.8874 21.8054 25.6678 21.9379C24.6131 22.524 22.6998 22.4189 22.7002 22.7722C22.7002 23.2853 25.9215 23.0659 25.9263 23.5118C25.9335 24.193 20.1786 23.7888 20.1791 24.4022C20.1795 25.0109 24.8087 24.7272 24.8087 25.3651C24.8087 25.6858 23.322 25.8038 21.7008 25.8446C19.183 25.8778 14.7312 25.8586 13.0537 25.801C13.0537 25.801 13.0547 25.8019 13.0557 25.8029C11.9207 25.7621 10.9544 25.6075 10.5753 25.4443C10.471 25.3992 10.4662 25.2725 10.5662 25.2211C11.7131 24.6317 18.7135 25.1011 18.7135 24.4162C18.7135 23.7312 11.7967 24.2059 11.802 23.6112C11.8059 23.1888 14.8244 23.2258 17.2182 23.2258C20.3189 23.2258 21.2708 23.0707 21.2693 22.8475C21.2669 22.3982 17.4561 22.6618 17.4421 22.1582C17.4287 21.6696 23.4734 22.0262 23.4734 21.5477C23.4734 21.2434 20.8474 21.215 18.222 21.2246C15.5961 21.2347 12.9706 21.239 12.9706 21.5645C12.9706 21.9326 16.0785 21.7896 16.0785 22.1582C16.0785 22.4491 14.3708 22.5096 12.5872 22.5096C11.4104 22.5096 10.4975 22.4203 10.0501 21.8659C10.0131 21.8203 9.97614 21.7536 9.94634 21.6936C9.42692 20.5656 9.1343 19.3114 9.1343 17.988C9.1343 13.0968 13.1037 9.13152 18 9.13152V9.13104Z" fill="white"/>
<path d="M17.8189 20.5387C21.6374 20.5387 25.3555 20.5939 25.3565 20.1677C25.3574 19.6517 20.0243 19.7122 17.2538 19.7122C15.0565 19.7122 11.1173 19.6435 11.1173 20.1336C11.1173 20.6237 15.5278 20.5387 17.8189 20.5387Z" fill="white"/>
<path d="M20.2857 19.0742C22.7963 19.0742 24.0533 19.045 24.0533 18.7426C24.0533 18.3053 20.6355 18.5477 20.6355 18.1147C20.6355 17.7341 22.7949 17.9477 22.7949 17.5387C22.7949 17.2171 20.3766 17.2469 19.0581 17.2469C17.5959 17.2469 16.1568 17.3021 16.1568 17.5757C16.1568 17.9309 19.8422 17.7312 19.8422 18.095C19.8422 18.6154 13.995 18.2395 13.995 18.7421C13.995 19.2178 17.7958 19.0738 20.2857 19.0738V19.0742Z" fill="white"/>
<path d="M22.7488 16.7496C23.2865 16.7496 24.8639 16.716 24.8639 16.5005C24.8639 16.285 23.6954 16.2154 22.4807 16.2168C21.646 16.2178 19.9446 16.2312 19.9446 16.475C19.9446 16.7189 21.2362 16.7501 22.7488 16.7496Z" fill="white"/>
<path d="M23.6584 17.5454C23.6584 17.7494 24.5603 17.8334 25.2527 17.8334C25.6524 17.8334 26.415 17.7504 26.415 17.5886C26.415 17.3928 25.6323 17.3328 25.1561 17.3266C24.5391 17.3184 23.6588 17.3698 23.6588 17.5454H23.6584Z" fill="white"/>
</svg>
