<svg width="36" height="36" viewBox="0 0 36 36" fill="none" xmlns="http://www.w3.org/2000/svg">
<path d="M18 36C27.9411 36 36 27.9411 36 18C36 8.05887 27.9411 0 18 0C8.05887 0 0 8.05887 0 18C0 27.9411 8.05887 36 18 36Z" fill="#E84142"/>
<path d="M23.2278 19.0448C23.7414 18.1911 24.5698 18.1911 25.0833 19.0448L28.2808 24.4495C28.7943 25.3033 28.3743 26 27.3472 26H20.9057C19.8903 26 19.4702 25.3033 19.972 24.4495L23.2278 19.0448ZM17.0429 8.64033C17.5564 7.78656 18.3731 7.78656 18.8867 8.64033L19.5985 9.87635L21.2788 12.719C21.6872 13.5279 21.6872 14.483 21.2788 15.292L15.6426 24.6966C15.1291 25.4607 14.2772 25.9439 13.3322 26H8.65275C7.62603 26 7.20559 25.3146 7.71913 24.4495L17.0429 8.64033Z" fill="white"/>
</svg>
