<svg width="36" height="36" viewBox="0 0 36 36" fill="none" xmlns="http://www.w3.org/2000/svg">
<circle cx="18" cy="18" r="18" fill="url(#paint0_linear_4020_65284)"/>
<path d="M23.0917 21.6765L28.0727 18.8931C28.3368 18.7453 28.5 18.4711 28.5 18.1768V12.61C28.5 12.3158 28.3368 12.0416 28.0727 11.8937L23.0917 9.11035C22.8276 8.9625 22.4998 8.96394 22.2372 9.11035L17.2561 11.8937C16.9921 12.0416 16.8289 12.3158 16.8289 12.61V22.5579L13.3356 24.5087L9.84223 22.5579V18.6549L13.3356 16.7041L15.6393 17.9916V15.3733L13.7627 14.324C13.6337 14.2522 13.4854 14.2135 13.3356 14.2135C13.1857 14.2135 13.0374 14.2522 12.9084 14.324L7.92721 17.1074C7.66317 17.2552 7.5 17.5295 7.5 17.8237V23.3905C7.5 23.6848 7.66317 23.9589 7.92721 24.1068L12.9084 26.8902C13.1724 27.0366 13.4987 27.0366 13.7627 26.8902L18.7439 24.1068C19.008 23.9589 19.1711 23.6848 19.1711 23.3905V13.4412L19.2334 13.4067L22.663 11.4904L26.1563 13.4412V17.3443L22.663 19.2951L20.3622 18.0103V20.6287L22.2357 21.6751C22.4998 21.8215 22.8276 21.8215 23.0902 21.6751L23.0917 21.6765Z" fill="white"/>
<defs>
<linearGradient id="paint0_linear_4020_65284" x1="5.5" y1="7" x2="27.2751" y2="32.7998" gradientUnits="userSpaceOnUse">
<stop stop-color="#A726C1"/>
<stop offset="0.88" stop-color="#803BDF"/>
<stop offset="1" stop-color="#7B3FE4"/>
</linearGradient>
</defs>
</svg>
