<svg width="36" height="36" viewBox="0 0 36 36" fill="none" xmlns="http://www.w3.org/2000/svg">
<circle cx="18" cy="18" r="18" fill="black"/>
<path d="M27.9831 13.5791H16.333C14.2179 13.5791 12.5032 15.2938 12.5032 17.4089V22.4568H19.6482C19.7628 22.4568 19.8762 22.4518 19.9883 22.4419C20.1235 22.3643 20.1132 22.1679 20.0573 22.1122L15.6541 17.6869C15.2536 17.2843 15.5615 16.5728 16.1294 16.5728H25.1801V18.627C25.1801 21.6822 22.7034 24.1589 19.6482 24.1589H8V26.7257H20.3404C24.5707 26.7257 28 23.2964 28 19.0661L27.9831 13.5791Z" fill="white"/>
<path d="M15.6596 9.27393C11.4293 9.27393 8 12.7032 8 16.9335V22.4518H10.8011V17.4039C10.8011 14.3487 13.2778 11.872 16.333 11.872H27.9831L28 9.27393H15.6596Z" fill="#00CC9B"/>
</svg>
