<svg width="36" height="36" viewBox="0 0 36 36" fill="none" xmlns="http://www.w3.org/2000/svg">
<circle cx="18" cy="18" r="18" fill="#0054FA"/>
<path fill-rule="evenodd" clip-rule="evenodd" d="M12.142 11.3288H9.64935L8.04346 24.6786H10.0473L10.2847 21.7741H11.4019L11.6393 24.6786H13.7479L12.142 11.3288ZM10.4244 20.0006L10.6408 17.2566L10.8014 14.9455H10.8573L11.0179 17.2566L11.2552 20.0006H10.4244ZM16.0171 24.6717H18.1606V19.6375H18.8309C20.367 19.6375 21.3026 18.7368 21.3026 17.1309V13.8493C21.3026 12.2295 20.367 11.3218 18.8309 11.3218H16.0171V24.6717ZM18.6563 18.0386H18.1885V12.9347H18.6563C19.0194 12.9347 19.1591 13.2558 19.1591 13.8563V17.1379C19.1591 17.7174 19.0124 18.0386 18.6563 18.0386ZM23.7743 11.3288V24.6786H27.9566V22.9122H25.9178V18.8206H27.7401V17.0541H25.9178V13.1022H27.9566V11.3357H23.7743V11.3288Z" fill="white"/>
</svg>
