<svg width="36" height="36" viewBox="0 0 36 36" fill="none" xmlns="http://www.w3.org/2000/svg">
<circle cx="18" cy="18" r="18" fill="#FFEEDA"/>
<g clip-path="url(#clip0_7150_57717)">
<mask id="mask0_7150_57717" style="mask-type:luminance" maskUnits="userSpaceOnUse" x="7" y="8" width="21" height="20">
<path d="M27.5 8H7.5V28H27.5V8Z" fill="white"/>
</mask>
<g mask="url(#mask0_7150_57717)">
<path d="M26.076 21.4989V9.94182C26.0545 8.97425 25.2886 8.2002 24.3177 8.2002H12.2141C9.60356 8.2432 7.5 10.3718 7.5 12.9843C7.5 13.8658 7.73732 14.6184 8.1041 15.2849C8.40615 15.8332 8.89159 16.3492 9.36623 16.7471C9.49569 16.8546 9.43096 16.8115 9.84088 17.0696C10.4126 17.4136 11.0599 17.5856 11.0599 17.5856V24.4983C11.0707 24.8209 11.1138 25.1434 11.1893 25.4336C11.459 26.4012 12.1386 27.1538 13.0556 27.5193C13.4439 27.6698 13.8754 27.7773 14.3393 27.7773L24.0048 27.8096C25.9358 27.8096 27.5 26.2507 27.5 24.3264C27.5 23.1545 26.9391 22.1332 26.076 21.4989Z" fill="#FFEEDA"/>
<path d="M26.3281 24.4032C26.2848 25.6446 25.2673 26.6377 24.0225 26.6377L17.3438 26.6161C17.8741 26.0008 18.1989 25.202 18.1989 24.3384C18.1989 22.9675 17.3763 22.0283 17.3763 22.0283H24.0225C25.2998 22.0283 26.3281 23.0646 26.3281 24.3384V24.4032Z" fill="#EBC28E"/>
<path d="M9.99057 15.7358C9.22507 15.0134 8.68598 14.0754 8.68598 12.9541V12.8355C8.75068 10.9379 10.314 9.40693 12.2116 9.34223H24.3087C24.6213 9.35302 24.8801 9.57944 24.8801 9.90288V20.1347C25.1604 20.1886 25.2898 20.2209 25.5594 20.318C25.7642 20.3934 26.0661 20.566 26.0661 20.566V9.90288C26.0445 8.93253 25.279 8.15625 24.3087 8.15625H12.2116C9.60243 8.19938 7.5 10.3341 7.5 12.9541C7.5 14.4743 8.19003 15.7789 9.33289 16.6954C9.40836 16.7601 9.48383 16.8355 9.68869 16.8355C10.0445 16.8355 10.2925 16.5552 10.2817 16.2425C10.2709 15.9837 10.1631 15.8867 9.99057 15.7358Z" fill="#190602"/>
<path d="M24.0066 20.8246H14.5187C13.8826 20.8246 13.365 21.3529 13.365 21.989V23.3475C13.3866 23.9728 13.9257 24.5227 14.551 24.5227H15.2518V23.3475H14.551V22.0105C14.551 22.0105 14.7235 22.0105 14.9392 22.0105C16.1359 22.0105 17.02 23.1211 17.02 24.3179C17.02 25.3744 16.0604 26.7222 14.454 26.6144C13.02 26.5173 12.2545 25.2451 12.2545 24.3179V12.7491C12.2545 12.2316 11.834 11.8003 11.3057 11.8003H10.3569V12.9863H11.0577V24.3179C11.0254 26.6251 12.6966 27.7895 14.4432 27.7895L24.0066 27.8219C25.9365 27.8219 27.4998 26.2586 27.4998 24.3287C27.4998 22.3987 25.9365 20.8246 24.0066 20.8246ZM26.3031 24.3933C26.26 25.6332 25.2464 26.6251 24.0066 26.6251L17.3543 26.6036C17.8825 25.989 18.206 25.1912 18.206 24.3287C18.206 22.9594 17.3866 22.0213 17.3866 22.0213H24.0066C25.2788 22.0213 26.3031 23.0564 26.3031 24.3287V24.3933Z" fill="#190602"/>
<path d="M21.527 13.1913H14.3032V12.0161H21.527C21.8181 12.0161 22.0445 12.2533 22.0445 12.5336V12.6738C22.0445 12.9649 21.8073 13.1913 21.527 13.1913Z" fill="#190602"/>
<path d="M21.527 18.7656H14.3032V17.5903H21.527C21.8181 17.5903 22.0445 17.8275 22.0445 18.1078V18.248C22.0445 18.5284 21.8073 18.7656 21.527 18.7656Z" fill="#190602"/>
<path d="M22.7774 15.9838H14.2922V14.8086H22.7774C23.0685 14.8086 23.2949 15.0458 23.2949 15.3261V15.4663C23.3057 15.7466 23.0685 15.9838 22.7774 15.9838Z" fill="#190602"/>
</g>
</g>
<defs>
<clipPath id="clip0_7150_57717">
<rect width="20" height="20" fill="white" transform="translate(7.5 8)"/>
</clipPath>
</defs>
</svg>
