<svg width="36" height="36" viewBox="0 0 36 36" fill="none" xmlns="http://www.w3.org/2000/svg">
<circle cx="18" cy="18" r="18" fill="#F3BA2F"/>
<path fill-rule="evenodd" clip-rule="evenodd" d="M11.6256 9.67607L17.9999 6L24.3743 9.67607L22.0308 11.0327L17.9989 8.71535L13.9691 11.0327L11.6256 9.67607ZM22.0303 12.9545L22.0298 12.9542H22.0308L22.0303 12.9545ZM22.0303 12.9545L24.3743 14.3119V17.0283L20.3435 19.3467V23.9834L17.9999 25.3411L15.6564 23.9834V19.3467L11.6256 17.0283V14.3119L13.9691 12.9542L17.9989 15.2726L22.0303 12.9545ZM24.3743 18.9497V21.6651L22.0308 23.0228V20.3064L24.3743 18.9497ZM26.0375 22.6247L22.0077 24.9431V27.6595L28.382 23.9834V16.6302L26.0375 17.9889V22.6247ZM26.0375 13.3521L23.695 11.9944L26.0385 10.6357L28.382 11.9944V14.7108L26.0385 16.0685V13.3521H26.0375ZM15.6574 25.9259V28.6423L18.001 29.9999L20.3445 28.6423V25.9259L18.001 27.2836L15.6574 25.9259ZM13.9671 23.0218L11.6256 21.6651V18.9487L13.9691 20.3064V23.0228L13.9671 23.0218ZM15.6554 11.9944L17.999 13.3511V13.3521L20.3425 11.9944L17.999 10.6357L15.6554 11.9944ZM12.305 11.9944L9.96144 13.3521V16.0685L7.61792 14.7108V11.9944L9.96144 10.6357L12.305 11.9944ZM7.61892 16.6308L7.61792 16.6302H7.61892V16.6308ZM9.96144 17.9889L7.61892 16.6308V23.9834L13.9913 27.6595V24.9431L9.96144 22.6247V17.9889Z" fill="white"/>
</svg>
