<svg width="36" height="36" viewBox="0 0 36 36" fill="none" xmlns="http://www.w3.org/2000/svg">
<g clip-path="url(#clip0_7166_57102)">
<path d="M18 36C27.9411 36 36 27.9411 36 18C36 8.05887 27.9411 0 18 0C8.05887 0 0 8.05887 0 18C0 27.9411 8.05887 36 18 36Z" fill="#005741"/>
<path d="M23.0355 21.9788V24.4099H13.0068C13.1451 22.8099 13.6614 21.6842 15.4468 20.1012L23.0355 13.6272V19.3082H25.7672V8.85645H10.234V14.0663H12.9657V11.5882H21.2181L13.6664 18.0331L13.6484 18.0501C10.4835 20.8521 10.2319 23.1137 10.2319 25.7783V27.1436H25.7682V21.9809H23.0365L23.0355 21.9788Z" fill="white"/>
</g>
<defs>
<clipPath id="clip0_7166_57102">
<rect width="36" height="36" fill="white"/>
</clipPath>
</defs>
</svg>
