<svg width="36" height="36" viewBox="0 0 36 36" fill="none" xmlns="http://www.w3.org/2000/svg">
<circle cx="18" cy="18" r="18" fill="black"/>
<path d="M22.6087 18.0012C22.6087 16.3176 21.7209 14.8068 20.3258 13.9434L20.2414 13.9003C18.8464 13.0801 17.113 13.0801 15.718 13.9003L15.6334 13.9434C14.1961 14.7636 13.3506 16.3176 13.3506 18.0012C13.3506 19.6847 14.2384 21.1955 15.6334 22.0589L15.718 22.1021C17.113 22.9222 18.8464 22.9222 20.2414 22.1021L20.3258 22.0589C21.7633 21.2387 22.6087 19.6847 22.6087 18.0012Z" fill="#44D7B6"/>
<path fill-rule="evenodd" clip-rule="evenodd" d="M18.331 27.389L20.4534 28.5559L18.0021 30L7.69141 23.997V15.8472L10.1307 14.4102V22.5803L18.331 27.389ZM18.0021 6L25.0113 10.1291V12.9526L17.9992 8.84746L12.63 11.9745L7.69141 14.8484V12.003L18.0021 6ZM25.8695 10.5683L28.3088 12.0053V23.9958L21.2965 28.1011L18.8752 26.6747L25.8695 22.58V10.5683Z" fill="white"/>
</svg>
