<svg width="36" height="36" viewBox="0 0 36 36" fill="none" xmlns="http://www.w3.org/2000/svg">
<circle cx="18" cy="18" r="18" fill="white"/>
<path fill-rule="evenodd" clip-rule="evenodd" d="M32.7027 16.2241C32.7716 16.8053 32.8099 17.3979 32.8099 18.0001C32.8099 26.1691 26.1797 32.7933 17.9991 32.7933C12.0425 32.7933 6.90909 29.2814 4.55671 24.2171L6.92631 23.0261C8.84034 27.2263 13.078 30.1455 17.9991 30.1455C24.7135 30.1455 30.159 24.7085 30.159 18.0001C30.159 17.8759 30.157 17.7516 30.1532 17.6274L32.7027 16.2241ZM17.9991 3.20703C24.2369 3.20703 29.5752 7.05919 31.7572 12.5134L29.223 13.3202C27.3893 8.93653 23.054 5.85479 17.9991 5.85479C11.2846 5.85479 5.83915 11.2918 5.83915 18.0001C5.83915 18.0823 5.84104 18.1665 5.84296 18.2487L3.36237 20.2751C3.24753 19.5334 3.18819 18.7744 3.18819 18.0001C3.1901 9.82932 9.82035 3.20703 17.9991 3.20703Z" fill="#010E35"/>
<path fill-rule="evenodd" clip-rule="evenodd" d="M1.5 23.9149L15.9854 12.0812L15.3845 17.002L23.8388 12.2169L23.41 16.8892L34.5 13.3621L19.4594 21.6361L20.583 16.9275L11.8932 22.0146L12.4675 18.4034L1.5 23.9149Z" fill="#010E35"/>
</svg>
