<svg width="36" height="36" viewBox="0 0 36 36" fill="none" xmlns="http://www.w3.org/2000/svg">
<circle cx="18" cy="18" r="18" fill="black"/>
<path d="M14.3506 9.06403L17.85 7.04312C17.9497 6.98563 18.0733 6.98563 18.173 7.04312L27.3959 12.368C27.4956 12.4255 27.5569 12.5319 27.5579 12.6468L27.5703 16.3092C27.5703 16.4251 27.509 16.5325 27.4083 16.59L23.9137 18.608C23.699 18.7326 23.4298 18.5773 23.4288 18.3292L23.4173 15.0424C23.4173 14.9274 23.3551 14.8211 23.2555 14.7636L14.3506 9.62363C14.135 9.49906 14.135 9.1886 14.3506 9.06403Z" fill="#B4F9BA"/>
<path d="M12.0901 25.6529L8.59163 23.633C8.49101 23.5755 8.42969 23.4691 8.42969 23.3531V12.7034C8.42969 12.5884 8.49101 12.482 8.59067 12.4235L11.7567 10.5809C11.8573 10.5224 11.9809 10.5224 12.0805 10.5809L15.5752 12.5989C15.7899 12.7235 15.7908 13.033 15.5762 13.1585L12.736 14.8115C12.6363 14.869 12.575 14.9753 12.575 15.0913V25.374C12.575 25.6232 12.3057 25.7775 12.0901 25.6529Z" fill="#B4F9BA"/>
<path d="M27.5704 19.3122V23.3522C27.5704 23.4681 27.5091 23.5745 27.4084 23.6319L18.1855 28.9569C18.0858 29.0144 17.9632 29.0144 17.8635 28.9569L14.6851 27.1362C14.5844 27.0787 14.5222 26.9714 14.5222 26.8554V22.8204C14.5222 22.5722 14.7905 22.4169 15.0061 22.5396L17.8578 24.1733C17.9574 24.2309 18.0801 24.2299 18.1797 24.1733L27.0846 19.0316C27.3001 18.907 27.5694 19.0622 27.5694 19.3113L27.5704 19.3122Z" fill="#B4F9BA"/>
</svg>
