<svg width="36" height="36" viewBox="0 0 36 36" fill="none" xmlns="http://www.w3.org/2000/svg">
<circle cx="18" cy="18" r="18" fill="#E5E6E1"/>
<path d="M10.0283 8.15039H18.6836C21.9973 8.15039 24.6836 10.8367 24.6836 14.1504V15.2837C24.6836 18.5974 21.9973 21.2837 18.6836 21.2837H10.0283V8.15039Z" fill="#AEDB02"/>
<path d="M10.0283 21.6586C10.0283 17.8247 13.1363 14.7168 16.9701 14.7168H21.4221C25.0488 14.7168 27.9888 17.6568 27.9888 21.2834V21.2834C27.9888 24.9101 25.0488 27.8501 21.4221 27.8501H10.0283V21.6586Z" fill="#B0B1AC"/>
<path fill-rule="evenodd" clip-rule="evenodd" d="M24.6836 15.6216C24.5298 18.7983 21.9055 21.3267 18.6907 21.3267H10.0454C10.2402 17.6671 13.2692 14.7598 16.9772 14.7598H21.4293C22.6134 14.7598 23.7243 15.0732 24.6836 15.6216Z" fill="#5D6D3C"/>
</svg>
