<svg width="36" height="36" viewBox="0 0 36 36" fill="none" xmlns="http://www.w3.org/2000/svg">
<circle cx="18" cy="18" r="18" fill="#677DE3"/>
<g clip-path="url(#clip0_4020_65283)">
<path d="M18.1109 7.91895C18.5456 8.63883 18.9632 9.32943 19.38 10.0206C21.0012 12.7094 22.6187 15.4005 24.2492 18.0837C24.4035 18.3376 24.3624 18.4299 24.114 18.5746C22.1726 19.7049 20.2408 20.8515 18.309 21.9979C18.1867 22.0704 18.098 22.1171 17.9538 22.0314C15.9536 20.8421 13.9495 19.6596 11.9466 18.4749C11.906 18.4509 11.869 18.4208 11.8076 18.3777C13.9035 14.9 15.9964 11.4273 18.1109 7.91895ZM24.383 19.2775C24.3011 19.2637 24.2525 19.2846 24.2074 19.3113C22.2765 20.4527 20.3437 21.591 18.4181 22.7412C18.1889 22.878 18.0256 22.8976 17.7807 22.7505C15.9171 21.631 14.0417 20.5313 12.1698 19.4257C12.0856 19.376 11.9993 19.3296 11.914 19.2818C11.9029 19.2979 11.8917 19.3141 11.8806 19.3303C13.9515 22.2486 16.0224 25.167 18.1119 28.1115C20.2125 25.1523 22.2977 22.2149 24.383 19.2775Z" fill="white"/>
</g>
<defs>
<clipPath id="clip0_4020_65283">
<rect width="21" height="21" fill="white" transform="translate(7.5 7.5)"/>
</clipPath>
</defs>
</svg>
