<svg width="36" height="36" viewBox="0 0 36 36" fill="none" xmlns="http://www.w3.org/2000/svg">
<rect width="36" height="36" rx="18" fill="black"/>
<path fill-rule="evenodd" clip-rule="evenodd" d="M19.2365 10.1134L19.8532 6.14278C19.2425 6.04861 18.6198 6 17.997 6H17.9879V14.0992H17.997C18.3372 14.0992 18.6775 14.1418 19.0025 14.2299L20.0506 10.2835C19.7833 10.2106 19.5129 10.1559 19.2365 10.1134ZM16.0435 14.6218L14.0294 11.1494C13.7924 11.2892 13.5615 11.438 13.3397 11.5991L10.9337 8.30285C11.438 7.93222 11.9787 7.60108 12.5347 7.31551L14.3635 10.8912C14.7342 10.7029 15.12 10.5418 15.518 10.4112L14.2724 6.58943C14.8678 6.395 15.4845 6.24614 16.1043 6.14893L16.7453 10.1834C16.4719 10.2259 16.2015 10.2866 15.9372 10.3565L16.9792 14.233C16.6542 14.3211 16.3382 14.4517 16.0435 14.6218ZM7.30026 12.562L10.9398 14.4152C10.7514 14.7828 10.5934 15.1686 10.4658 15.5635L6.58026 14.3058C6.77469 13.7073 7.01469 13.121 7.30026 12.562ZM24.8476 14.0263L21.3752 16.0436C21.5453 16.3382 21.679 16.6542 21.7671 16.9793L25.6435 15.9342C25.7165 16.1985 25.7742 16.4689 25.8167 16.7393L29.8511 16.0982C29.7539 15.4785 29.6051 14.8618 29.4076 14.2663L25.5889 15.518C25.4582 15.12 25.2972 14.7342 25.1089 14.3636L28.6846 12.5286C28.399 11.9727 28.0678 11.4319 27.6972 10.9276L24.401 13.3367C24.559 13.5585 24.7078 13.7894 24.8476 14.0263ZM21.6881 6.57727C22.2866 6.7717 22.8729 7.0117 23.4319 7.29727L21.5818 10.9368C21.2111 10.7484 20.8253 10.5904 20.4334 10.4628L21.6881 6.57727ZM21.9797 11.0796L19.9413 14.6188C20.2359 14.7889 20.5094 14.9986 20.7494 15.2386L26.4668 9.49983C26.0233 9.05629 25.5402 8.64616 25.0359 8.27856L22.6785 11.5322C22.4537 11.3682 22.2228 11.2163 21.9797 11.0796ZM14.6157 16.0558L11.0795 14.0143C11.2192 13.7743 11.3711 13.5404 11.5322 13.3156L8.28152 10.9551C8.64912 10.4508 9.05925 9.96771 9.50279 9.52417L15.2354 15.2447C14.9955 15.4877 14.7858 15.7611 14.6157 16.0558ZM10.2835 15.9434L14.2299 16.9945C14.1448 17.3196 14.0992 17.6568 14.0992 18.0001H6C6 17.3773 6.04861 16.7484 6.14278 16.1378L10.1134 16.7575C10.1559 16.4841 10.2137 16.2107 10.2835 15.9434ZM25.0602 21.5849L28.6997 23.438C28.9853 22.8791 29.2253 22.2927 29.4197 21.6942L25.5342 20.4365C25.4066 20.8315 25.2486 21.2173 25.0602 21.5849ZM19.9534 21.3752L21.9676 24.8476C22.2076 24.7109 22.4385 24.5621 22.6603 24.395L25.0663 27.6942C24.562 28.0649 24.0213 28.396 23.4653 28.6816L21.6334 25.1059C21.2628 25.2942 20.877 25.4552 20.479 25.5859L21.7246 29.4076C21.1291 29.6021 20.5124 29.7509 19.8927 29.8482L19.2517 25.8137C19.5251 25.7712 19.7955 25.7104 20.0598 25.6406L19.0177 21.7641C19.3428 21.676 19.6587 21.5454 19.9534 21.3752ZM11.1524 21.9738L14.6248 19.9535C14.4547 19.6588 14.321 19.3429 14.2329 19.0178L10.3565 20.0629C10.2835 19.7986 10.2258 19.5282 10.1833 19.2578L6.14886 19.8988C6.24608 20.5186 6.39494 21.1353 6.59241 21.7307L10.4111 20.4821C10.5418 20.8771 10.7028 21.2659 10.8911 21.6366L7.31545 23.4715C7.60102 24.0274 7.93216 24.5682 8.30279 25.0725L11.599 22.6634C11.441 22.4416 11.2922 22.2107 11.1524 21.9738ZM14.3119 29.4228C13.7134 29.2284 13.1271 28.9884 12.5681 28.7028L14.4182 25.0634C14.7889 25.2517 15.1747 25.4097 15.5666 25.5373L14.3119 29.4228ZM14.0172 24.9206L16.0557 21.3813C15.761 21.2112 15.4876 21.0016 15.2476 20.7616L9.53012 26.5003C9.97367 26.9439 10.4567 27.354 10.961 27.7216L13.3185 24.4679C13.5433 24.6289 13.7772 24.7808 14.0172 24.9206ZM21.3813 19.9443L24.9175 21.9859C24.7807 22.2259 24.6288 22.4567 24.4678 22.6846L27.7185 25.0451C27.3509 25.5494 26.9407 26.0324 26.4972 26.476L20.7615 20.7555C21.0015 20.5124 21.2111 20.239 21.3813 19.9443ZM16.9944 21.7703L15.9463 25.7166C16.2137 25.7865 16.4871 25.8442 16.7605 25.8867L16.1438 29.8574C16.7544 29.9515 17.3772 30.0001 18 30.0001H18.0091V21.9009H18C17.6597 21.9009 17.3195 21.8553 16.9944 21.7703ZM21.7701 19.0056C21.8582 18.6805 21.9008 18.3433 21.9008 18H30C30 18.6228 29.9514 19.2516 29.8572 19.8623L25.8866 19.2425C25.8441 19.5159 25.7863 19.7894 25.7165 20.0567L21.7701 19.0056Z" fill="white"/>
</svg>
