<svg width="36" height="36" viewBox="0 0 36 36" fill="none" xmlns="http://www.w3.org/2000/svg">
<rect width="36" height="36" rx="18" fill="url(#paint0_linear_7166_56993)"/>
<path d="M23.117 9C22.0889 8.9992 21.1025 9.40748 20.3743 10.1352C19.6461 10.8629 19.2356 11.8507 19.233 12.8816V17.1853C18.833 17.2124 18.424 17.2294 18 17.2294C17.576 17.2294 17.169 17.2464 16.767 17.2705V12.8816C16.7506 11.8596 16.3343 10.8851 15.6078 10.1682C14.8813 9.45125 13.9028 9.04946 12.8835 9.04946C11.8642 9.04946 10.8857 9.45125 10.1592 10.1682C9.4327 10.8851 9.01636 11.8596 9 12.8816V23.1676C9.01636 24.1895 9.4327 25.1641 10.1592 25.881C10.8857 26.5979 11.8642 26.9997 12.8835 26.9997C13.9028 26.9997 14.8813 26.5979 15.6078 25.881C16.3343 25.1641 16.7506 24.1895 16.767 23.1676V18.8639C17.167 18.8368 17.576 18.8197 18 18.8197C18.424 18.8197 18.831 18.8027 19.233 18.7786V23.1676C19.2494 24.1895 19.6657 25.1641 20.3922 25.881C21.1187 26.5979 22.0972 26.9997 23.1165 26.9997C24.1358 26.9997 25.1143 26.5979 25.8408 25.881C26.5673 25.1641 26.9836 24.1895 27 23.1676V12.8816C26.9971 11.8509 26.5867 10.8635 25.8588 10.1359C25.1308 9.40821 24.1448 8.99973 23.117 9ZM12.883 10.5903C13.4897 10.5901 14.0718 10.8312 14.5015 11.2607C14.9312 11.6902 15.1734 12.2732 15.175 12.8816V17.439C14.0388 17.6041 12.9292 17.9186 11.875 18.3745C11.4198 18.5756 10.9915 18.8329 10.6 19.1406V12.8816C10.6016 12.2747 10.8426 11.6932 11.2703 11.2639C11.698 10.8346 12.2778 10.5924 12.883 10.5903ZM15.175 23.1676C15.175 23.7771 14.9335 24.3617 14.5037 24.7927C14.0739 25.2237 13.4909 25.4658 12.883 25.4658C12.2751 25.4658 11.6921 25.2237 11.2623 24.7927C10.8325 24.3617 10.591 23.7771 10.591 23.1676V22.1358C10.591 21.2243 11.311 20.3609 12.518 19.8235C13.3684 19.4554 14.2608 19.1937 15.175 19.0443V23.1676ZM23.117 25.4588C22.5103 25.4591 21.9282 25.218 21.4985 24.7884C21.0688 24.3589 20.8266 23.776 20.825 23.1676V18.6102C21.9612 18.4451 23.0708 18.1305 24.125 17.6746C24.5819 17.4739 25.012 17.2166 25.405 16.9085V23.1676C25.4034 23.7753 25.1618 24.3576 24.7329 24.787C24.3041 25.2165 23.7231 25.458 23.117 25.4588ZM23.482 16.2197C22.6316 16.5877 21.7392 16.8494 20.825 16.9988V12.8816C20.825 12.272 21.0665 11.6875 21.4963 11.2565C21.9261 10.8254 22.5091 10.5833 23.117 10.5833C23.7249 10.5833 24.3079 10.8254 24.7377 11.2565C25.1675 11.6875 25.409 12.272 25.409 12.8816V13.9134C25.409 14.8208 24.689 15.6842 23.482 16.2197Z" fill="white"/>
<defs>
<linearGradient id="paint0_linear_7166_56993" x1="2.36" y1="33.5416" x2="33.6806" y2="2.22164" gradientUnits="userSpaceOnUse">
<stop stop-color="#00AEE9"/>
<stop offset="1" stop-color="#69FABD"/>
</linearGradient>
</defs>
</svg>
