<svg width="36" height="36" viewBox="0 0 36 36" fill="none" xmlns="http://www.w3.org/2000/svg">
<circle cx="18" cy="18" r="17.75" fill="white" stroke="#EFEFF4" stroke-width="0.5"/>
<path fill-rule="evenodd" clip-rule="evenodd" d="M30 19.2851C30 19.399 29.9739 19.5073 29.9233 19.6011L24.7768 28.5157C24.5585 28.894 24.1552 29.1267 23.7187 29.1267H12.2813C11.8448 29.1267 11.4415 28.894 11.2232 28.5157L6.07609 19.6006C6.02611 19.5067 6 19.399 6 19.2851C6 18.9163 6.29938 18.6169 6.66818 18.6169H12.3152L13.7465 21.048L13.7554 21.0625C13.9465 21.3691 14.3481 21.469 14.6613 21.2846L14.6774 21.2746C14.8218 21.1841 14.9263 21.0414 14.969 20.8758L16.7925 13.8264L18.3582 25.1754L18.3605 25.191C18.4182 25.5481 18.7509 25.7953 19.1114 25.7458L19.1275 25.7436C19.3886 25.7008 19.6002 25.5087 19.6668 25.2515L21.8647 16.7546L22.7672 18.2876L22.7761 18.3026C22.8978 18.4975 23.1121 18.6169 23.3427 18.6169H29.3313C29.7001 18.6169 29.9994 18.9163 29.9994 19.2851H30ZM23.7187 6.87354C24.1552 6.87354 24.5585 7.10626 24.7768 7.4845L29.9239 16.3997C29.9739 16.4935 30 16.6018 30 16.7157C30 17.0845 29.7006 17.3839 29.3318 17.3839H23.6665L22.2351 14.9528L22.2251 14.9367C22.1346 14.7923 21.9919 14.6878 21.8263 14.6451L21.8108 14.6412C21.4586 14.559 21.1032 14.7723 21.0121 15.1244L19.1886 22.1739L17.6229 10.8248L17.6206 10.8087C17.5779 10.5477 17.3857 10.3361 17.1285 10.2694C16.7714 10.1772 16.407 10.3916 16.3143 10.7487L14.1165 19.2457L13.2139 17.7127L13.205 17.6977C13.0834 17.5027 12.869 17.3833 12.6385 17.3833H6.66818C6.29938 17.3833 6 17.0839 6 16.7151C6 16.6024 6.02555 16.4958 6.07443 16.4024L11.2232 7.4845C11.4415 7.10626 11.8448 6.87354 12.2813 6.87354H23.7181H23.7187Z" fill="url(#paint0_linear_7178_122184)"/>
<defs>
<linearGradient id="paint0_linear_7178_122184" x1="24.3225" y1="8.52626" x2="12.9398" y2="28.2146" gradientUnits="userSpaceOnUse">
<stop stop-color="#00EAFF"/>
<stop offset="0.25" stop-color="#0080FF"/>
<stop offset="0.5" stop-color="#8000FF"/>
<stop offset="0.75" stop-color="#E619E6"/>
<stop offset="1" stop-color="#FF0000"/>
</linearGradient>
</defs>
</svg>
