<svg width="36" height="36" viewBox="0 0 36 36" fill="none" xmlns="http://www.w3.org/2000/svg">
<path d="M18 0C8.05889 0 0 8.0589 0 18C0 27.9411 8.05889 36 18 36C27.9412 36 36.0001 27.9411 36.0001 18C36.0001 8.0589 27.9412 0 18 0Z" fill="url(#paint0_linear_7190_124658)"/>
<path fill-rule="evenodd" clip-rule="evenodd" d="M18 1C8.61117 1 1 8.61119 1 18C1 27.3888 8.61117 35 18 35C27.3889 35 35.0001 27.3888 35.0001 18C35.0001 8.61119 27.3889 1 18 1ZM0 18C0 8.0589 8.05889 0 18 0C27.9412 0 36.0001 8.0589 36.0001 18C36.0001 27.9411 27.9412 36 18 36C8.05889 36 0 27.9411 0 18Z" fill="black"/>
<path d="M20.58 8.35774C20.4734 8.47085 20.3833 8.56819 20.3148 8.64316C19.5221 8.47011 18.5648 8.38055 17.7605 8.38055C17.1528 8.38055 16.5567 8.4316 15.9763 8.5297C15.1031 8.26865 14.4152 8.02001 13.5782 7.14032C13.5123 7.07106 13.4419 6.99589 13.3676 6.91655C12.9384 6.45814 12.379 5.86073 11.8045 5.46349C11.4655 5.22914 11.082 5.03529 10.6818 4.99847C10.2574 4.95942 9.85089 5.10089 9.50953 5.46329C8.9069 6.10306 8.37397 7.3734 8.06329 9.00285C7.75379 10.626 7.65436 12.6587 7.9518 14.9071C7.42289 16.1701 7.13086 17.5565 7.13086 19.0102C7.13086 21.1813 7.78218 23.2015 8.90015 24.8844C10.5956 28.5014 14.2697 31.0075 18.5298 31.0075C23.497 31.0075 27.6675 27.6005 28.8341 22.9966C29.4816 21.8249 29.8442 20.5201 29.8442 19.1444C29.8442 16.3445 28.3463 13.8529 26.0124 12.1595C25.3395 10.8677 25.3097 9.96154 25.2773 8.97315C25.2712 8.78918 25.265 8.60235 25.2545 8.40965C25.244 8.21296 25.2388 8.04117 25.2337 7.87431C25.2299 7.75164 25.2263 7.63163 25.2206 7.50641C25.2085 7.23479 25.1872 6.96618 25.1253 6.73215C25.0622 6.49311 24.948 6.25588 24.7253 6.08533C24.504 5.91579 24.2265 5.85112 23.9156 5.85112C23.7132 5.85112 23.5093 5.92276 23.3287 6.00982C23.1419 6.0999 22.9458 6.22361 22.7506 6.36343C22.3602 6.64324 21.9423 7.01042 21.5632 7.36927C21.1825 7.72965 20.8335 8.08905 20.58 8.35774Z" fill="url(#paint1_linear_7190_124658)" stroke="black" stroke-width="0.556043"/>
<path d="M20.58 8.35774C20.4734 8.47085 20.3833 8.56819 20.3148 8.64316C19.5221 8.47011 18.5648 8.38055 17.7605 8.38055C17.1528 8.38055 16.5567 8.4316 15.9763 8.5297C15.1031 8.26865 14.4152 8.02001 13.5782 7.14032C13.5123 7.07106 13.4419 6.99589 13.3676 6.91655C12.9384 6.45814 12.379 5.86073 11.8045 5.46349C11.4655 5.22914 11.082 5.03529 10.6818 4.99847C10.2574 4.95942 9.85089 5.10089 9.50953 5.46329C8.9069 6.10306 8.37397 7.3734 8.06329 9.00285C7.75379 10.626 7.65436 12.6587 7.9518 14.9071C7.42289 16.1701 7.13086 17.5565 7.13086 19.0102C7.13086 21.1813 7.78218 23.2015 8.90015 24.8844C10.5956 28.5014 14.2697 31.0075 18.5298 31.0075C23.497 31.0075 27.6675 27.6005 28.8341 22.9966C29.4816 21.8249 29.8442 20.5201 29.8442 19.1444C29.8442 16.3445 28.3463 13.8529 26.0124 12.1595C25.3395 10.8677 25.3097 9.96154 25.2773 8.97315C25.2712 8.78918 25.265 8.60235 25.2545 8.40965C25.244 8.21296 25.2388 8.04117 25.2337 7.87431C25.2299 7.75164 25.2263 7.63163 25.2206 7.50641C25.2085 7.23479 25.1872 6.96618 25.1253 6.73215C25.0622 6.49311 24.948 6.25588 24.7253 6.08533C24.504 5.91579 24.2265 5.85112 23.9156 5.85112C23.7132 5.85112 23.5093 5.92276 23.3287 6.00982C23.1419 6.0999 22.9458 6.22361 22.7506 6.36343C22.3602 6.64324 21.9423 7.01042 21.5632 7.36927C21.1825 7.72965 20.8335 8.08905 20.58 8.35774Z" stroke="black" stroke-width="0.556043"/>
<path fill-rule="evenodd" clip-rule="evenodd" d="M7.81421 21.8647C8.11191 22.9117 8.57011 23.8914 9.16053 24.7751C10.8087 28.316 14.3984 30.7705 18.5615 30.7705C23.4211 30.7705 27.4995 27.4259 28.6203 22.9131C29.2605 21.7702 29.6174 20.4993 29.6174 19.1604C29.6174 17.8198 29.2597 16.5474 28.6178 15.4034C28.2201 15.2695 27.8768 15.2689 27.6062 15.4195C27.1884 15.6517 26.9894 16.218 26.9876 17.0281C26.9866 17.541 26.458 17.9457 25.967 17.7973C24.538 17.3653 23.1523 17.4225 21.9922 18.0673C21.7 18.2298 21.4324 18.4239 21.1895 18.6463C20.0784 19.6634 17.5609 20.3202 16.3916 19.3708C14.1313 17.5358 11.7073 16.859 9.94698 17.8377C8.66743 18.5491 7.95583 20.0144 7.81421 21.8647Z" fill="white"/>
<path fill-rule="evenodd" clip-rule="evenodd" d="M17.8327 28.4057C14.5375 28.7093 11.2342 26.3201 8.92505 24.3598C10.4971 28.1115 14.204 30.7471 18.5265 30.7471C23.3943 30.7471 27.4813 27.4047 28.6178 22.8896L28.4011 23.3781C28.1817 23.872 27.5668 24.0438 27.1233 23.7353C27.0558 24.0963 26.9111 24.4351 26.704 24.7389C26.1235 25.4735 25.3689 25.9521 24.434 26.1253C24.2222 26.1606 24.0038 26.1795 23.7799 26.1795C23.1637 26.1795 22.5859 26.038 22.0881 25.791C22.2067 26.1844 21.128 28.1023 17.8327 28.4057Z" fill="#F7ECDF"/>
<path d="M10.401 12.3417C9.81416 10.4202 9.96433 8.06772 10.401 6.70996C11.1656 9.26898 13.0175 10.7752 13.0175 10.7752C12.2452 10.9428 11.1417 11.5921 10.401 12.3417Z" fill="black"/>
<path d="M22.4147 19.1381C22.9953 17.8995 26.4069 17.6783 26.9447 19.1381C27.2438 19.95 26.0385 21.797 25.2352 21.9159C24.0813 22.0868 21.7737 20.5056 22.4147 19.1381Z" fill="black"/>
<path opacity="0.5" d="M18.9734 13.1945C18.5099 13.5546 16.7854 13.585 16.6127 13.058C16.4399 12.531 17.5521 11.3967 18.3622 11.7553C19.0376 12.0544 19.5727 12.7291 18.9734 13.1945Z" fill="white"/>
<path opacity="0.5" d="M24.3682 12.4979C24.0465 12.98 23.1824 12.9264 22.8386 12.4979C22.495 12.0694 22.548 11.2554 23.4444 11.3217C24.1916 11.3769 24.5842 12.1739 24.3682 12.4979Z" fill="white"/>
<path d="M21.8616 26.0833C21.6689 25.912 21.9101 25.692 22.1447 25.799C22.611 26.0116 23.143 26.1321 23.7079 26.1321C25.1597 26.1321 26.395 25.3361 26.8541 24.2245C26.8958 24.1239 27.0455 24.134 27.0455 24.2428C27.0455 25.6958 25.6919 26.8735 24.0221 26.8735C23.1757 26.8735 22.4103 26.571 21.8616 26.0833Z" fill="black"/>
<path fill-rule="evenodd" clip-rule="evenodd" d="M30.9536 12.5142L9.7334 15.0243L9.85389 16.0429L13.0793 15.6614L13.1998 16.6799L14.2183 16.5594L14.3388 17.578L15.3576 17.4575L15.478 18.4761L18.8732 18.0745L18.7528 17.0559L19.7713 16.9354L19.6508 15.9168L20.6693 15.7963L20.5488 14.7778L31.0741 13.5327L30.9536 12.5142ZM22.586 14.5368L30.0556 13.6532L30.1761 14.6718L22.7065 15.5554L22.586 14.5368ZM29.1574 14.7923L23.725 15.4349L23.8455 16.4535L24.8646 16.333L24.8642 16.3331L24.9847 17.3517L28.38 16.95L28.2595 15.9314L28.259 15.9314L29.2779 15.8109L29.1574 14.7923Z" fill="black"/>
<path d="M28.0186 13.8939L29.0373 13.7734L29.1578 14.792L28.1391 14.9125L28.0186 13.8939Z" fill="white"/>
<path d="M27.1204 15.0336L28.1391 14.9131L28.2596 15.9317L27.2409 16.0522L27.1204 15.0336Z" fill="white"/>
<path d="M18.5117 15.0184L19.5303 14.8979L19.6508 15.9165L18.6322 16.037L18.5117 15.0184Z" fill="white"/>
<path d="M17.614 16.1571L18.6326 16.0366L18.7531 17.0552L17.7345 17.1757L17.614 16.1571Z" fill="white"/>
<path fill-rule="evenodd" clip-rule="evenodd" d="M27.6354 19.6444C27.7578 19.5516 27.9322 19.5756 28.025 19.6979C28.5274 20.3603 28.486 21.2602 28.1268 21.9646C27.7646 22.6747 27.0478 23.2513 26.1196 23.2341C25.8387 23.2289 25.562 23.3348 25.3841 23.5237C24.6945 24.2563 23.6358 24.6604 22.638 24.6366C21.6331 24.6126 20.6481 24.1496 20.1823 23.101C20.1174 22.9549 20.0232 22.8468 19.9133 22.7919L19.2599 22.4652C19.1226 22.3965 19.0669 22.2295 19.1356 22.0921C19.2043 21.9548 19.3713 21.8992 19.5086 21.9678L20.1618 22.2944C20.4182 22.4225 20.5893 22.6473 20.6905 22.8752C21.0483 23.6807 21.805 24.0605 22.6513 24.0807C23.5047 24.1011 24.4068 23.7507 24.9792 23.1426C25.2788 22.8245 25.714 22.6704 26.1299 22.6781C26.8 22.6905 27.3434 22.2768 27.6314 21.7119C27.9224 21.1413 27.9213 20.4813 27.5819 20.0339C27.4891 19.9116 27.5131 19.7372 27.6354 19.6444Z" fill="black"/>
<path d="M23.4014 24.4716C25.4583 25.2976 26.6699 23.708 26.5639 23.1123L25.1357 23.2755L23.4014 24.4716Z" fill="black"/>
<defs>
<linearGradient id="paint0_linear_7190_124658" x1="18" y1="36.345" x2="18" y2="-0.344947" gradientUnits="userSpaceOnUse">
<stop stop-color="#7774F4"/>
<stop offset="0.714952" stop-color="#9157F9"/>
<stop offset="1" stop-color="#B133FF"/>
</linearGradient>
<linearGradient id="paint1_linear_7190_124658" x1="18.4875" y1="5.36504" x2="18.4875" y2="30.6345" gradientUnits="userSpaceOnUse">
<stop stop-color="#FBF476"/>
<stop offset="0.449777" stop-color="#FFA725"/>
<stop offset="1" stop-color="#FFA725"/>
</linearGradient>
</defs>
</svg>
