<svg width="36" height="36" viewBox="0 0 36 36" fill="none" xmlns="http://www.w3.org/2000/svg">
<g clip-path="url(#clip0_6737_119670)">
<path d="M18 36C27.9417 36 36 27.9417 36 18C36 8.05829 27.9417 0 18 0C8.0583 0 0 8.05829 0 18C0 27.9417 8.0583 36 18 36Z" fill="black"/>
<path d="M20.4611 15.5205H15.5098V20.4787H20.4611V15.5205Z" fill="#FABF00"/>
<path d="M13.146 25.2423H23.1321C24.3003 25.2423 25.2183 24.2952 25.2183 23.1532V13.1533H22.9373V22.9582H13.146V25.2423Z" fill="white"/>
<path d="M22.8259 13.0419V10.7578H12.8399C11.6716 10.7578 10.7537 11.7049 10.7537 12.8469V22.8468H13.0624V13.0419H22.8259Z" fill="white"/>
<path d="M28.0002 8H25.2463V10.7576H28.0002V8Z" fill="#05B9DF"/>
<path d="M10.7536 25.2422H7.99976V27.9998H10.7536V25.2422Z" fill="#E50065"/>
</g>
<defs>
<clipPath id="clip0_6737_119670">
<rect width="36" height="36" rx="18" fill="white"/>
</clipPath>
</defs>
</svg>
