<svg width="36" height="36" viewBox="0 0 36 36" fill="none" xmlns="http://www.w3.org/2000/svg">
<g clip-path="url(#clip0_7150_57247)">
<path d="M18 36C27.9417 36 36 27.9417 36 18C36 8.05829 27.9417 0 18 0C8.0583 0 0 8.05829 0 18C0 27.9417 8.0583 36 18 36Z" fill="#FCFD02"/>
<path d="M24.7232 17.8544L28.4053 15.9233L29.6746 11.8228L27.1361 9.87842H10.2335L6.3252 12.9339H26.1935L25.1379 16.373H17.1705L16.4039 18.8862H24.3713L22.1344 26.1215L25.8668 24.1771L27.1989 19.8385L24.6981 17.9074L24.7232 17.8544Z" fill="black"/>
<path d="M11.9423 23.0131L14.242 15.4735L11.6909 13.463L7.85803 26.1215L22.1344 26.1215L23.0891 23.0131H11.9423Z" fill="black"/>
</g>
<defs>
<clipPath id="clip0_7150_57247">
<rect width="36" height="36" rx="18" fill="white"/>
</clipPath>
</defs>
</svg>
