<svg width="36" height="37" viewBox="0 0 36 37" fill="none" xmlns="http://www.w3.org/2000/svg">
<rect y="0.345703" width="36" height="36" rx="18" fill="black"/>
<path d="M12.5287 28.9862L6.31519 25.3886V18.1987L12.5287 14.6011L18.7423 18.1987V25.3886L12.5287 28.9862ZM7.67888 24.6033L12.5341 27.4102L17.3892 24.6033V18.9787L12.5341 16.1717L7.67888 18.9787V24.6033Z" fill="#03D498"/>
<path d="M23.5981 28.9862L17.3845 25.3886V18.1987L23.5981 14.6011L29.8116 18.1987V25.3886L23.5981 28.9862ZM18.7429 24.6033L23.5981 27.4102L28.4533 24.6033V18.9787L23.5981 16.1717L18.7429 18.9787V24.6033Z" fill="#03D498"/>
<path d="M18.7482 18.501H17.3845V24.9056H18.7482V18.501Z" fill="#03D498"/>
<path d="M18.069 19.3719L11.8555 15.7743V8.58442L18.069 4.98682L24.2826 8.58442V15.7743L18.069 19.3719ZM13.2139 14.989L18.069 17.796L22.9242 14.9837V9.36443L18.069 6.55215L13.2139 9.35912V14.9837V14.989Z" fill="#03D498"/>
<path d="M18.0685 19.3771L12.1946 15.9758L12.8738 14.7979L18.0685 17.8012L23.2633 14.7979L23.9425 15.9758L18.0685 19.3771Z" fill="#03D498"/>
<path d="M18.0693 25.7855L11.8557 22.1879V14.998L18.0693 11.4004L24.2828 14.998V22.1879L18.0693 25.7855ZM13.2141 21.4079L18.0693 24.2149L22.9244 21.4026V15.7833L18.0693 12.971L13.2141 15.778V21.4026V21.4079Z" fill="white"/>
<path d="M18.0789 19.9567C18.9581 19.9567 19.6708 19.244 19.6708 18.3648C19.6708 17.4856 18.9581 16.7729 18.0789 16.7729C17.1998 16.7729 16.4871 17.4856 16.4871 18.3648C16.4871 19.244 17.1998 19.9567 18.0789 19.9567Z" fill="#03D498"/>
</svg>
