<svg width="36" height="36" viewBox="0 0 36 36" fill="none" xmlns="http://www.w3.org/2000/svg">
<circle cx="18" cy="18" r="17.75" fill="white" stroke="#EFEFF4" stroke-width="0.5"/>
<path d="M29.9719 17.1857C29.5221 10.5738 23.7976 5.57839 17.1857 6.02814C13.8919 6.25217 10.9999 7.78575 8.98171 10.0854L8.98172 10.0854L8.97609 10.0813C8.96249 10.1001 8.94979 10.1187 8.93628 10.1375C6.9316 12.4484 5.80412 15.521 6.02812 18.8143C6.04947 19.1281 6.08641 19.437 6.13104 19.7431C6.13106 19.7432 6.13106 19.7432 6.13107 19.7433C6.13308 19.7571 6.13513 19.7709 6.13708 19.7847C6.16725 19.9867 6.20229 20.1869 6.24226 20.3852C6.24229 20.3853 6.2423 20.3854 6.24233 20.3855C6.24306 20.3891 6.24375 20.3927 6.24446 20.3963C6.28085 20.576 6.32128 20.7539 6.36552 20.9303L6.3656 20.9307C6.36564 20.9308 6.36568 20.9309 6.3657 20.9311C7.75156 26.4578 12.9298 30.3721 18.8143 29.9719C25.4262 29.5221 30.4216 23.7975 29.9719 17.1857H29.9719ZM27.3598 17.3634C27.4152 18.1774 27.364 18.9744 27.219 19.7412C27.2172 19.7368 27.2158 19.7322 27.214 19.7278V19.7278C26.3441 17.6013 24.6232 16.0661 23.1099 15.218C23.4161 11.6148 22.1938 10.0968 20.8103 9.8498C20.7727 9.84256 20.7348 9.83638 20.6964 9.83161C19.5983 9.69078 18.5942 10.4669 18.4535 11.5649C18.3127 12.6629 19.0888 13.6671 20.1868 13.808C20.2826 13.8201 20.3773 13.8235 20.4711 13.822C20.4772 13.9436 20.481 14.0728 20.4821 14.2079C19.2028 13.8909 18.0071 13.8289 16.9168 13.9269C16.5091 13.9541 16.1011 14.0055 15.6953 14.0813C15.8314 12.8646 16.2879 11.4986 17.1737 10.4989C18.0299 9.53261 19.303 8.97874 20.6917 9.12087C20.9549 9.14781 21.2358 9.21245 21.4887 9.29738C21.5004 9.30128 21.5127 9.30458 21.5242 9.30858C21.5244 9.30835 21.5246 9.30805 21.5248 9.30782C24.7414 10.6182 27.1087 13.6709 27.3598 17.3634ZM18.996 19.1962C18.9951 19.1975 18.9942 19.1988 18.9933 19.2001C18.707 19.6131 18.3664 20.0203 17.9667 20.4141C17.3674 19.7765 16.886 19.0899 16.5208 18.3796C16.5021 18.3416 16.4821 18.3053 16.4638 18.2667C16.4631 18.2652 16.4625 18.2638 16.4618 18.2624C16.2472 17.8078 16.0648 17.3091 15.9236 16.7657C16.7763 16.5651 17.6125 16.4913 18.4111 16.5302C18.4534 16.533 18.4948 16.5339 18.5374 16.5374C18.539 16.5375 18.5406 16.5376 18.5421 16.5377C19.0423 16.5792 19.5646 16.6703 20.1048 16.8193C19.8522 17.6577 19.4981 18.4185 19.0653 19.0904C19.0417 19.1256 19.0203 19.1611 18.996 19.1962ZM14.8956 9.14874C14.8933 9.15163 14.8908 9.15436 14.8885 9.15725L14.8885 9.15727C13.4826 10.973 13.0133 13.2295 13.035 14.9638C9.76157 16.5002 9.05818 18.3177 9.53603 19.6393C9.54855 19.6755 9.56215 19.7114 9.57723 19.7471C10.0043 20.7684 11.1785 21.25 12.1997 20.8228C13.2211 20.3957 13.7026 19.2215 13.2757 18.2002C13.2383 18.1112 13.1938 18.0275 13.1456 17.9469C13.2491 17.8801 13.3602 17.8114 13.4781 17.7421C13.8432 19.0088 14.3833 20.0801 15.0134 20.9754C15.2404 21.3142 15.4883 21.6412 15.7563 21.9541C14.6344 22.4448 13.2229 22.7327 11.914 22.4653C10.649 22.2069 9.53282 21.3814 8.96156 20.1077C8.85327 19.8663 8.76883 19.5907 8.71591 19.3293C8.68335 19.1008 8.65607 18.8705 8.64017 18.6367C8.34777 14.3381 11.0146 10.5114 14.8956 9.14874ZM18.6366 27.3598C16.0841 27.5335 13.698 26.6628 11.8947 25.1152C14.1701 25.4249 16.359 24.703 17.8501 23.8171C20.8186 25.8854 22.7451 25.586 23.6509 24.5111C23.676 24.4822 23.7003 24.4524 23.7236 24.4215C24.3946 23.541 24.2245 22.2833 23.344 21.6125C22.4635 20.9416 21.2058 21.1116 20.5348 21.992C20.4764 22.0689 20.4261 22.1493 20.3805 22.2313C20.2716 22.1755 20.1573 22.114 20.0392 22.047C20.9543 21.0971 21.6064 20.0918 22.067 19.0979C22.2473 18.7312 22.4068 18.3522 22.544 17.9629C23.5305 18.6891 24.4864 19.7681 24.9095 21.0359C25.3183 22.2607 25.1614 23.6401 24.344 24.7717C24.189 24.9862 23.9926 25.1971 23.7926 25.3737C23.7897 25.3762 23.7868 25.3789 23.784 25.3816C22.3538 26.5056 20.5843 27.2273 18.6366 27.3598Z" fill="url(#paint0_linear_7190_124391)"/>
<path style="mix-blend-mode:overlay" opacity="0.9" d="M20.8104 9.85005C20.7728 9.84281 20.7349 9.83663 20.6965 9.83186C20.5022 9.80695 20.3112 9.81209 20.127 9.84129C21.275 10.4658 22.112 12.2058 21.6719 15.6382C21.5262 16.775 21.1882 17.8568 20.7 18.8494C20.3045 19.703 19.7663 20.5647 19.043 21.3927C19.3904 21.6533 19.7291 21.8714 20.0393 22.0472C20.9544 21.0973 21.6066 20.0921 22.0671 19.0982C22.5553 18.1055 22.8933 17.0237 23.039 15.8869C23.5629 11.8002 22.2767 10.1118 20.8104 9.85005Z" fill="url(#paint1_radial_7190_124391)"/>
<g style="mix-blend-mode:overlay" opacity="0.8">
<path d="M21.6718 15.6382C22.1118 12.2058 21.2749 10.4658 20.1269 9.84131C20.0821 9.84842 20.0381 9.85797 19.9942 9.86805C21.1181 10.5141 21.9267 12.2525 21.4927 15.6382C21.3469 16.775 21.0089 17.8568 20.5208 18.8494C20.1384 19.6747 19.6211 20.5074 18.9336 21.3102C18.9702 21.3385 19.0065 21.3655 19.0429 21.3928C19.7662 20.5647 20.3044 19.703 20.6999 18.8494C21.1881 17.8568 21.5261 16.775 21.6718 15.6382Z" fill="white"/>
</g>
<path style="mix-blend-mode:overlay" opacity="0.5" d="M17.3086 23.4227C17.2007 23.3405 17.0969 23.2545 16.9931 23.1685C15.299 23.8753 12.9505 24.3184 10.6187 23.7773C11.0005 24.264 11.4267 24.7135 11.8947 25.1152C14.1702 25.4249 16.3591 24.703 17.8502 23.8171C17.6732 23.6938 17.493 23.5633 17.3086 23.4227Z" fill="url(#paint2_radial_7190_124391)"/>
<path style="mix-blend-mode:overlay" opacity="0.6" d="M16.993 23.1686C16.9411 23.1256 16.8889 23.083 16.838 23.0391C15.1311 23.7212 12.772 24.129 10.4453 23.5491C10.502 23.6261 10.5596 23.7023 10.6186 23.7774C12.9505 24.3186 15.2989 23.8754 16.993 23.1686Z" fill="url(#paint3_linear_7190_124391)"/>
<path style="mix-blend-mode:overlay" opacity="0.9" d="M9.53663 19.6413C9.54915 19.6774 9.56274 19.7133 9.57784 19.749C9.65341 19.9297 9.75336 20.0926 9.87072 20.2375C9.83758 18.931 10.926 17.3362 14.1185 16.0011C15.1759 15.5589 16.2818 15.3108 17.3855 15.2372C18.3225 15.1529 19.3378 15.1882 20.4166 15.4006C20.4685 14.9695 20.4881 14.567 20.4853 14.2105C19.205 13.8929 18.0084 13.8308 16.9174 13.9288C15.8137 14.0024 14.7078 14.2506 13.6504 14.6928C9.84921 16.2825 9.03017 18.2405 9.53663 19.6413L9.53663 19.6413Z" fill="url(#paint4_radial_7190_124391)"/>
<g style="mix-blend-mode:overlay" opacity="0.8">
<path d="M14.1184 16.0011C10.9259 17.3362 9.83746 18.931 9.8706 20.2374C9.89917 20.2727 9.92943 20.306 9.96012 20.339C9.95769 19.0427 11.0589 17.4732 14.208 16.1562C15.2653 15.714 16.3712 15.4659 17.475 15.3923C18.3809 15.3108 19.3606 15.3424 20.3996 15.5364C20.4058 15.4906 20.4111 15.4457 20.4165 15.4005C19.3377 15.1881 18.3223 15.1529 17.3854 15.2371C16.2816 15.3107 15.1758 15.5589 14.1184 16.0011Z" fill="white"/>
</g>
<path style="mix-blend-mode:overlay" opacity="0.4" d="M23.0419 15.8874C23.0247 16.0219 23.0021 16.1549 22.9795 16.2878C24.4387 17.4015 25.9967 19.2137 26.6939 21.5038C26.9245 20.9297 27.1007 20.3359 27.2146 19.7297C26.345 17.6043 24.6255 16.0695 23.1127 15.2212C23.0944 15.4362 23.0714 15.6574 23.0419 15.8874Z" fill="url(#paint5_radial_7190_124391)"/>
<path style="mix-blend-mode:overlay" opacity="0.5" d="M22.9795 16.2876C22.9682 16.354 22.9574 16.4206 22.9448 16.4866C24.389 17.6237 25.9217 19.4629 26.5829 21.7678C26.6212 21.6802 26.6584 21.5922 26.6939 21.5036C25.9967 19.2135 24.4386 17.4013 22.9795 16.2876Z" fill="url(#paint6_linear_7190_124391)"/>
<path style="mix-blend-mode:overlay" opacity="0.9" d="M23.6524 24.5085C23.6774 24.4796 23.7017 24.4499 23.7251 24.419C23.8438 24.2632 23.9349 24.0952 24.0016 23.9211C22.8868 24.603 20.9614 24.4578 18.209 22.3606C17.2973 21.666 16.5295 20.8323 15.9139 19.9133C15.3724 19.1439 14.8953 18.247 14.5398 17.2065C14.1405 17.3771 13.7822 17.5614 13.4749 17.7421C13.8399 19.0096 14.3844 20.077 15.0149 20.9728C15.6305 21.8919 16.3983 22.7255 17.31 23.4201C20.5873 25.9172 22.6925 25.6475 23.6524 24.5085Z" fill="url(#paint7_radial_7190_124391)"/>
<g style="mix-blend-mode:overlay" opacity="0.8">
<path d="M18.2089 22.3607C20.9614 24.4579 22.8868 24.6031 24.0016 23.9212C24.0179 23.8789 24.0316 23.836 24.0448 23.7929C22.9234 24.4432 21.0136 24.2743 18.2985 22.2056C17.3869 21.5109 16.619 20.6773 16.0034 19.7582C15.4799 19.0144 15.0174 18.1501 14.666 17.1533C14.6232 17.1708 14.5816 17.1888 14.5398 17.2067C14.8952 18.2472 15.3724 19.1441 15.9138 19.9134C16.5294 20.8324 17.2973 21.6661 18.2089 22.3607V22.3607Z" fill="white"/>
</g>
<path style="mix-blend-mode:overlay" opacity="0.3" d="M13.6487 14.6892C13.7738 14.6369 13.9002 14.59 14.0267 14.5431C14.2616 12.7225 15.052 10.4671 16.6866 8.71826C16.0742 8.80559 15.4718 8.94992 14.8899 9.15444C13.484 10.9702 13.0146 13.2267 13.0364 14.961C13.2317 14.8694 13.4348 14.7786 13.6487 14.6892Z" fill="url(#paint8_radial_7190_124391)"/>
<path style="mix-blend-mode:overlay" opacity="0.4" d="M14.0266 14.5433C14.0898 14.5199 14.1528 14.496 14.2163 14.4739C14.479 12.6546 15.3054 10.4076 16.9709 8.68262C16.8759 8.69322 16.7811 8.70505 16.6866 8.71853C15.052 10.4674 14.2615 12.7228 14.0266 14.5433V14.5433Z" fill="url(#paint9_linear_7190_124391)"/>
<path style="mix-blend-mode:multiply" opacity="0.4" d="M17.1855 6.028C13.8918 6.25203 10.9997 7.78561 8.98158 10.0853C8.96633 10.1026 8.95118 10.1201 8.93604 10.1375L8.93616 10.1374C9.32906 10.5271 10.6132 11.2956 11.1336 11.6161C12.1555 10.5171 13.4401 9.6596 14.8954 9.14861C14.9971 9.01764 15.1024 8.88842 15.214 8.76248C16.5695 7.23292 18.4206 6.42447 20.5676 6.42447C20.8065 6.42447 21.2933 6.4625 21.3037 6.46328C20.0021 6.08933 18.6149 5.93078 17.1855 6.028Z" fill="url(#paint10_linear_7190_124391)"/>
<path style="mix-blend-mode:multiply" opacity="0.4" d="M18.6366 27.3598C16.0841 27.5334 13.698 26.6628 11.8946 25.1151H11.8946L11.8946 25.1151C11.7268 25.0923 11.5585 25.0649 11.39 25.0304C9.38766 24.6213 7.76198 23.4225 6.68848 21.5631C6.569 21.3562 6.46208 21.1453 6.36572 20.9312C7.75162 26.4578 12.9298 30.3721 18.8143 29.9718C18.8404 29.3658 18.6618 27.9597 18.6366 27.3598Z" fill="url(#paint11_linear_7190_124391)"/>
<path style="mix-blend-mode:multiply" opacity="0.4" d="M29.9718 17.1855C29.6031 17.1477 27.8024 17.2899 27.3597 17.3632C27.4151 18.1772 27.3639 18.9742 27.2189 19.741C27.2811 19.8935 27.34 20.0483 27.3929 20.2069C28.0398 22.1456 27.8144 24.1529 26.7409 26.0122C26.6236 26.2154 26.4971 26.4099 26.3626 26.5971C26.3601 26.6007 26.3571 26.6048 26.355 26.6078C26.3548 26.6079 26.3605 26.6031 26.3636 26.6002C28.8009 24.2289 30.2206 20.844 29.9718 17.1855Z" fill="url(#paint12_linear_7190_124391)"/>
<path style="mix-blend-mode:multiply" opacity="0.5" d="M20.6915 9.12078C20.9548 9.14771 21.2357 9.21235 21.4886 9.29728C21.5002 9.30118 21.5126 9.30449 21.5241 9.30848C21.5242 9.30825 21.5245 9.30795 21.5246 9.30772C22.5598 9.72942 23.5062 10.3324 24.3232 11.0783C24.325 11.0797 24.3267 11.0809 24.3285 11.0824C24.7223 10.6322 25.4805 10.1376 25.4805 10.1376C25.4805 10.1376 24.3195 8.95002 22.5439 8.58148C21.3009 8.32348 18.4972 8.07339 16.729 11.0824C16.729 11.0824 16.736 11.0758 16.7464 11.0662C16.8772 10.8685 17.0163 10.6763 17.1735 10.4988C18.0298 9.53251 19.3028 8.97864 20.6915 9.12078Z" fill="url(#paint13_linear_7190_124391)"/>
<path style="mix-blend-mode:multiply" opacity="0.5" d="M24.3437 24.7704C24.1888 24.9849 23.9923 25.1959 23.7923 25.3724C23.7831 25.3805 23.7741 25.3896 23.7649 25.3975C23.765 25.3978 23.7651 25.3981 23.7653 25.3984C22.8825 26.084 21.8871 26.6021 20.8326 26.9368C20.8305 26.9376 20.8286 26.9385 20.8264 26.9393C21.0194 27.5054 21.0687 28.4093 21.0687 28.4093C21.0687 28.4093 22.6776 27.9977 23.8846 26.6442C24.7295 25.6968 26.3479 23.3938 24.6262 20.3579C24.6262 20.3579 24.6284 20.3673 24.6315 20.381C24.7373 20.5932 24.8342 20.8097 24.9093 21.0347C25.318 22.2594 25.1612 23.6388 24.3437 24.7704Z" fill="url(#paint14_linear_7190_124391)"/>
<path style="mix-blend-mode:multiply" opacity="0.5" d="M8.96571 20.1113C8.85741 19.8698 8.77293 19.5942 8.72004 19.3327C8.7176 19.3207 8.71429 19.3084 8.712 19.2964C8.71173 19.2964 8.71134 19.2964 8.71107 19.2963C8.55869 18.189 8.60768 17.0679 8.8451 15.9874C8.84549 15.9851 8.84565 15.983 8.84603 15.9808C8.2593 15.8648 7.45182 15.4556 7.45182 15.4556C7.45182 15.4556 7.00386 17.0548 7.57248 18.7767C7.97055 19.9822 9.1558 22.5353 12.6458 22.5621C12.6458 22.5621 12.6365 22.5593 12.6231 22.5552C12.3865 22.5407 12.1505 22.5164 11.9182 22.4689C10.6531 22.2105 9.53697 21.385 8.96571 20.1113Z" fill="url(#paint15_linear_7190_124391)"/>
<path style="mix-blend-mode:multiply" opacity="0.6" d="M20.1868 13.808C20.2826 13.8201 20.3773 13.8235 20.4711 13.822C20.4711 13.822 20.4085 12.5752 20.2554 11.9355C20.1023 11.2958 19.8764 10.8721 19.6284 10.6324C19.4507 10.4606 18.8897 10.2467 18.4535 11.5649C18.3127 12.663 19.0888 13.6671 20.1868 13.808Z" fill="url(#paint16_linear_7190_124391)"/>
<path style="mix-blend-mode:multiply" opacity="0.5" d="M13.2763 18.2025C13.2389 18.1135 13.1945 18.0297 13.1463 17.9492C13.1463 17.9492 12.0978 18.6269 11.6204 19.0794C11.1429 19.5318 10.8889 19.9392 10.8053 20.2739C10.7454 20.5136 10.8406 21.1064 12.2004 20.8251C13.2217 20.398 13.7033 19.2238 13.2763 18.2025Z" fill="url(#paint17_linear_7190_124391)"/>
<path style="mix-blend-mode:multiply" opacity="0.6" d="M20.5366 21.9889C20.4782 22.0658 20.428 22.1462 20.3823 22.2282C20.3823 22.2282 21.4935 22.7973 22.124 22.9846C22.7546 23.1718 23.2344 23.1881 23.566 23.0932C23.8036 23.0252 24.2694 22.6463 23.3458 21.6094C22.4653 20.9384 21.2076 21.1085 20.5366 21.9889Z" fill="url(#paint18_linear_7190_124391)"/>
<path style="mix-blend-mode:multiply" opacity="0.3" d="M20.1047 16.8188C19.8521 17.6573 19.498 18.4181 19.0652 19.09C19.0416 19.1252 19.0202 19.1606 18.9958 19.1958C18.995 19.1971 18.994 19.1984 18.9932 19.1997C18.7068 19.6127 18.3663 20.0199 17.9666 20.4137C18.2413 20.706 18.5383 20.989 18.8646 21.2574C19.2743 21.5808 19.6759 21.8407 20.039 22.0466C20.9542 21.0967 21.6063 20.0914 22.0669 19.0975C22.2472 18.7308 22.4067 18.3518 22.5439 17.9625C22.1218 17.6517 21.6941 17.4044 21.3 17.2364C20.8925 17.0626 20.4941 16.9262 20.1047 16.8188Z" fill="url(#paint19_linear_7190_124391)"/>
<path style="mix-blend-mode:multiply" opacity="0.3" d="M11.8946 25.115C14.17 25.4247 16.3589 24.7029 17.85 23.8169C17.673 23.6936 17.4928 23.5631 17.3084 23.4226C16.7329 22.984 16.215 22.4898 15.7562 21.954C14.6343 22.4447 13.2228 22.7325 11.9139 22.4652C10.6489 22.2068 9.53273 21.3813 8.96146 20.1076C8.85318 19.8661 8.76874 19.5906 8.71582 19.3291C9.04641 21.6488 10.217 23.6753 11.8946 25.115Z" fill="url(#paint20_linear_7190_124391)"/>
<path style="mix-blend-mode:multiply" opacity="0.3" d="M17.9666 20.414C17.3673 19.7764 16.8859 19.0898 16.5207 18.3795C16.502 18.3414 16.482 18.3052 16.4637 18.2665C16.463 18.2651 16.4624 18.2637 16.4617 18.2623C16.2471 17.8077 16.0647 17.309 15.9235 16.7656C15.5339 16.8573 15.1411 16.9729 14.7464 17.1208C14.2626 17.3136 13.8374 17.5309 13.478 17.742C13.8431 19.0086 14.3832 20.08 15.0133 20.9753C15.2403 21.3141 15.4882 21.6411 15.7562 21.954C16.2372 21.7436 16.6658 21.4965 17.0088 21.239C17.3624 20.9733 17.6793 20.697 17.9666 20.414Z" fill="url(#paint21_linear_7190_124391)"/>
<path style="mix-blend-mode:multiply" opacity="0.3" d="M14.8884 9.15708C13.4826 10.9728 13.0132 13.2294 13.0349 14.9637C13.2309 14.8716 13.4349 14.7805 13.6497 14.6906C14.3165 14.4118 15.0026 14.2105 15.6953 14.0811C15.8313 12.8644 16.2878 11.4984 17.1736 10.4988C18.0299 9.53243 19.3029 8.97855 20.6916 9.12069C20.9549 9.14763 21.2358 9.21227 21.4887 9.2972C21.5003 9.3011 21.5126 9.3044 21.5241 9.3084C21.5243 9.30817 21.5245 9.30786 21.5247 9.30764C20.2453 8.78644 18.8319 8.5401 17.3633 8.64C16.5007 8.69867 15.6742 8.87514 14.8955 9.14856C14.8932 9.15145 14.8907 9.15418 14.8885 9.15707L14.8884 9.15708Z" fill="url(#paint22_linear_7190_124391)"/>
<path style="mix-blend-mode:multiply" opacity="0.3" d="M27.2139 19.7276C26.344 17.6011 24.6231 16.0659 23.1098 15.2178C23.0914 15.4335 23.0684 15.6556 23.0388 15.8865C22.9469 16.6033 22.7782 17.2982 22.5439 17.9627C23.5304 18.6889 24.4863 19.7679 24.9094 21.0357C25.3182 22.2605 25.1613 23.6399 24.3439 24.7715C24.1889 24.986 23.9925 25.1969 23.7925 25.3735C23.7896 25.376 23.7867 25.3787 23.7839 25.3814C25.5456 23.9967 26.7917 22.0011 27.2189 19.741C27.2171 19.7366 27.2157 19.732 27.2139 19.7276V19.7276Z" fill="url(#paint23_linear_7190_124391)"/>
<path style="mix-blend-mode:multiply" opacity="0.3" d="M15.6881 15.5244C15.7413 15.9632 15.8221 16.3756 15.9235 16.7657C16.7762 16.5651 17.6124 16.4913 18.411 16.5302C18.4534 16.533 18.4947 16.5338 18.5374 16.5373C18.5389 16.5374 18.5405 16.5376 18.5421 16.5377C19.0422 16.5791 19.5645 16.6703 20.1048 16.8193C20.2203 16.4357 20.3166 16.0375 20.3859 15.6214C20.4612 15.1041 20.4854 14.6258 20.482 14.2079C19.2028 13.8909 18.007 13.8289 16.9167 13.9269C16.509 13.9541 16.101 14.0054 15.6953 14.0813C15.6369 14.6033 15.6365 15.0983 15.6881 15.5244H15.6881Z" fill="url(#paint24_linear_7190_124391)"/>
<defs>
<linearGradient id="paint0_linear_7190_124391" x1="9.81071" y1="26.1898" x2="25.1127" y2="10.8878" gradientUnits="userSpaceOnUse">
<stop offset="0.001139" stop-color="#E6007A"/>
<stop offset="0.207149" stop-color="#703AC2"/>
<stop offset="0.456011" stop-color="#0070EB"/>
<stop offset="0.768132" stop-color="#0297FB"/>
<stop offset="1" stop-color="#0AE2FF"/>
</linearGradient>
<radialGradient id="paint1_radial_7190_124391" cx="0" cy="0" r="1" gradientUnits="userSpaceOnUse" gradientTransform="translate(21.4207 15.5712) scale(4.56263)">
<stop stop-color="white"/>
<stop offset="1" stop-color="white" stop-opacity="0"/>
</radialGradient>
<radialGradient id="paint2_radial_7190_124391" cx="0" cy="0" r="1" gradientUnits="userSpaceOnUse" gradientTransform="translate(14.6764 24.0352) scale(2.65458)">
<stop stop-color="white"/>
<stop offset="1" stop-color="white" stop-opacity="0"/>
</radialGradient>
<linearGradient id="paint3_linear_7190_124391" x1="10.6926" y1="23.5863" x2="13.2515" y2="23.5508" gradientUnits="userSpaceOnUse">
<stop stop-color="white" stop-opacity="0"/>
<stop offset="1" stop-color="white"/>
</linearGradient>
<radialGradient id="paint4_radial_7190_124391" cx="0" cy="0" r="1" gradientUnits="userSpaceOnUse" gradientTransform="translate(14.1862 16.2522) rotate(-120) scale(4.56263)">
<stop stop-color="white"/>
<stop offset="1" stop-color="white" stop-opacity="0"/>
</radialGradient>
<radialGradient id="paint5_radial_7190_124391" cx="0" cy="0" r="1" gradientUnits="userSpaceOnUse" gradientTransform="translate(24.8884 17.8607) rotate(-120) scale(2.65458)">
<stop stop-color="white"/>
<stop offset="1" stop-color="white" stop-opacity="0"/>
</radialGradient>
<linearGradient id="paint6_linear_7190_124391" x1="26.4915" y1="21.535" x2="25.1813" y2="19.3367" gradientUnits="userSpaceOnUse">
<stop stop-color="white" stop-opacity="0"/>
<stop offset="1" stop-color="white"/>
</linearGradient>
<radialGradient id="paint7_radial_7190_124391" cx="0" cy="0" r="1" gradientUnits="userSpaceOnUse" gradientTransform="translate(18.1771 21.9654) rotate(120) scale(4.56263)">
<stop stop-color="white"/>
<stop offset="1" stop-color="white" stop-opacity="0"/>
</radialGradient>
<radialGradient id="paint8_radial_7190_124391" cx="0" cy="0" r="1" gradientUnits="userSpaceOnUse" gradientTransform="translate(14.4343 12.1034) rotate(120) scale(2.65458)">
<stop stop-color="white"/>
<stop offset="1" stop-color="white" stop-opacity="0"/>
</radialGradient>
<linearGradient id="paint9_linear_7190_124391" x1="16.815" y1="8.87819" x2="15.5664" y2="11.112" gradientUnits="userSpaceOnUse">
<stop stop-color="white" stop-opacity="0"/>
<stop offset="1" stop-color="white"/>
</linearGradient>
<linearGradient id="paint10_linear_7190_124391" x1="17.3712" y1="7.74238" x2="13.4619" y2="8.87964" gradientUnits="userSpaceOnUse">
<stop stop-color="#231F20"/>
<stop offset="1" stop-color="white"/>
</linearGradient>
<linearGradient id="paint11_linear_7190_124391" x1="9.98341" y1="22.6524" x2="13.253" y2="26.0642" gradientUnits="userSpaceOnUse">
<stop stop-color="#231F20"/>
<stop offset="1" stop-color="white"/>
</linearGradient>
<linearGradient id="paint12_linear_7190_124391" x1="27.5316" y1="22.138" x2="28.6688" y2="18.6789" gradientUnits="userSpaceOnUse">
<stop stop-color="#231F20"/>
<stop offset="1" stop-color="white"/>
</linearGradient>
<linearGradient id="paint13_linear_7190_124391" x1="19.1525" y1="9.72055" x2="24.3938" y2="10.9207" gradientUnits="userSpaceOnUse">
<stop stop-color="#231F20"/>
<stop offset="1" stop-color="white"/>
</linearGradient>
<linearGradient id="paint14_linear_7190_124391" x1="24.5938" y1="23.1377" x2="20.9338" y2="27.0767" gradientUnits="userSpaceOnUse">
<stop stop-color="#231F20"/>
<stop offset="1" stop-color="white"/>
</linearGradient>
<linearGradient id="paint15_linear_7190_124391" x1="10.2546" y1="21.1442" x2="8.67332" y2="16.005" gradientUnits="userSpaceOnUse">
<stop stop-color="#231F20"/>
<stop offset="1" stop-color="white"/>
</linearGradient>
<linearGradient id="paint16_linear_7190_124391" x1="20.2985" y1="11.6538" x2="18.64" y2="13.3124" gradientUnits="userSpaceOnUse">
<stop stop-color="#231F20"/>
<stop offset="1" stop-color="white"/>
</linearGradient>
<linearGradient id="paint17_linear_7190_124391" x1="11.3549" y1="19.1828" x2="13.6204" y2="19.7899" gradientUnits="userSpaceOnUse">
<stop stop-color="#231F20"/>
<stop offset="1" stop-color="white"/>
</linearGradient>
<linearGradient id="paint18_linear_7190_124391" x1="22.3463" y1="23.1628" x2="21.7393" y2="20.8972" gradientUnits="userSpaceOnUse">
<stop stop-color="#231F20"/>
<stop offset="1" stop-color="white"/>
</linearGradient>
<linearGradient id="paint19_linear_7190_124391" x1="18.8975" y1="21.1477" x2="19.8926" y2="19.7735" gradientUnits="userSpaceOnUse">
<stop stop-color="#231F20"/>
<stop offset="1" stop-color="white"/>
</linearGradient>
<linearGradient id="paint20_linear_7190_124391" x1="15.471" y1="20.553" x2="13.4808" y2="21.5007" gradientUnits="userSpaceOnUse">
<stop stop-color="#231F20"/>
<stop offset="1" stop-color="white"/>
</linearGradient>
<linearGradient id="paint21_linear_7190_124391" x1="14.7488" y1="17.2402" x2="15.3648" y2="18.5196" gradientUnits="userSpaceOnUse">
<stop stop-color="#231F20"/>
<stop offset="1" stop-color="white"/>
</linearGradient>
<linearGradient id="paint22_linear_7190_124391" x1="17.6146" y1="13.2888" x2="17.1881" y2="11.8198" gradientUnits="userSpaceOnUse">
<stop stop-color="#231F20"/>
<stop offset="1" stop-color="white"/>
</linearGradient>
<linearGradient id="paint23_linear_7190_124391" x1="22.2109" y1="20.0144" x2="23.4429" y2="20.2987" gradientUnits="userSpaceOnUse">
<stop stop-color="#231F20"/>
<stop offset="1" stop-color="white"/>
</linearGradient>
<linearGradient id="paint24_linear_7190_124391" x1="20.2774" y1="15.8526" x2="18.7136" y2="15.5683" gradientUnits="userSpaceOnUse">
<stop stop-color="#231F20"/>
<stop offset="1" stop-color="white"/>
</linearGradient>
</defs>
</svg>
