<svg width="36" height="36" viewBox="0 0 36 36" fill="none" xmlns="http://www.w3.org/2000/svg">
<rect width="36" height="36" rx="18" fill="white"/>
<path fill-rule="evenodd" clip-rule="evenodd" d="M9.97832 28.758C6.70137 26.3106 4.57989 22.4031 4.57989 18C4.57989 10.5878 10.5925 4.57895 18.0088 4.57895C24.1301 4.57895 30.8144 8.23484 32.4309 13.8338C30.6249 7.57705 24.8526 3 18.0092 3C9.72 3 3 9.71589 3 18C3 26.2844 9.72 33 18.0088 33C26.2983 33 33.018 26.2844 33.018 18V17.2105H32.1932L32.0833 17.2089C31.4785 17.1978 30.8742 17.1664 30.2716 17.1145C29.1455 17.0166 27.8612 16.8259 26.9864 16.4766C25.5793 15.9148 24.7847 15.1702 23.8768 14.2989L23.8244 14.2484C22.9149 13.3756 21.8931 12.3947 20.1224 11.562C18.3783 10.7416 16.4495 10.8733 15.0319 11.1647C14.4294 11.2894 13.8367 11.457 13.2581 11.6662C13.0389 11.7455 12.8634 11.8162 12.7402 11.868C12.0268 12.168 11.3346 12.5233 10.6345 12.8526C10.6345 12.8526 12.0082 13.2291 12.6872 13.4394C12.8691 13.4976 13.0488 13.5626 13.2259 13.6342C13.6768 13.8152 14.1102 14.0372 14.5206 14.2974C15.2533 14.7679 15.8608 15.3603 16.11 16.0876C14.5547 16.2919 13.0958 16.9743 12.0047 17.6157C11.4524 17.941 10.9191 18.2977 10.4075 18.684C10.2145 18.8302 10.0614 18.9524 9.95589 19.0396C9.86684 19.1128 8.46221 20.3501 8.46221 20.3501C8.46221 20.3501 10.2742 20.5427 11.1685 20.7227C11.7632 20.8427 12.5649 21.0354 13.4015 21.3268C14.2418 21.6199 15.0909 22.0039 15.7952 22.4953C16.5013 22.9879 17.0182 23.5569 17.2731 24.2087C18.0164 26.1066 17.2873 27.9553 15.8233 28.9952C14.3769 30.0227 12.1775 30.2672 9.97832 28.758ZM15.0995 31.1053C15.6844 30.9157 16.237 30.6382 16.7384 30.2823C18.7307 28.8669 19.7788 26.2749 18.7446 23.6334C18.3382 22.5957 17.5617 21.8018 16.6996 21.2005C15.8359 20.598 14.8418 20.1568 13.9222 19.8363C13.3636 19.6429 12.7959 19.4769 12.2211 19.3389C12.413 19.2136 12.6078 19.0928 12.8053 18.9764C14.0214 18.2618 15.5526 17.6053 17.0211 17.6053C19.2347 17.6053 20.8832 18.2842 22.4571 19.0124C22.6001 19.0787 22.7438 19.146 22.8881 19.2136C24.2946 19.8733 25.7716 20.5658 27.4879 20.5658C29.1521 20.5658 30.4487 20.0953 31.3421 19.6089C30.5469 26.2629 24.8811 31.4211 18.0088 31.4211C17.01 31.4211 16.0364 31.3121 15.0995 31.1053ZM29.6353 18.6395C29.0438 18.8413 28.3266 18.9868 27.4882 18.9868C26.142 18.9868 24.9853 18.4478 23.5165 17.7635L23.1212 17.5797C21.6508 16.8992 19.9497 16.1779 17.7351 16.0472C17.4382 14.5819 16.3266 13.5808 15.3752 12.9692C15.271 12.9023 15.1654 12.8378 15.0584 12.7756C15.1532 12.7535 15.2511 12.7314 15.3502 12.7112C16.6292 12.4481 18.1566 12.3824 19.4498 12.9906C20.9848 13.7125 21.8507 14.5437 22.7517 15.4083L22.7826 15.438C23.7095 16.3276 24.69 17.2601 26.4003 17.9428C27.3508 18.3221 28.5805 18.5261 29.6353 18.6395Z" fill="url(#paint0_linear_7166_57056)"/>
<defs>
<linearGradient id="paint0_linear_7166_57056" x1="2.73095" y1="18.2773" x2="33.2871" y2="17.718" gradientUnits="userSpaceOnUse">
<stop stop-color="#29CCB9"/>
<stop offset="0.49" stop-color="#0091FF"/>
<stop offset="1" stop-color="#FF66B7"/>
</linearGradient>
</defs>
</svg>
