<svg width="36" height="36" viewBox="0 0 36 36" fill="none" xmlns="http://www.w3.org/2000/svg">
<circle cx="18" cy="18" r="18" fill="#E62058"/>
<path d="M22.8797 15.5123H12.9836C10.2663 15.5014 8.04105 17.661 7.96997 20.3784C7.96997 20.4494 8.02465 20.5096 8.10119 20.5096H17.9973C20.7146 20.5205 22.9399 18.3554 23.0109 15.6381C23.0109 15.567 22.9508 15.5069 22.8797 15.5069V15.5123Z" fill="white"/>
<path d="M12.9836 8.00004C10.2663 7.98911 8.04105 10.1542 7.97544 12.8715C7.97544 12.9426 8.03011 13.0028 8.10119 13.0028H23.0164C25.7337 13.0137 27.959 10.8486 28.0301 8.13126C28.0301 8.06018 27.9699 8.00004 27.8989 8.00004H12.9836Z" fill="white"/>
<path d="M10.4795 28C11.8655 28 12.9891 26.8764 12.9891 25.4904C12.9891 24.1044 11.8655 22.9809 10.4795 22.9809C9.09354 22.9809 7.96997 24.1044 7.96997 25.4904C7.96997 26.8764 9.09354 28 10.4795 28Z" fill="white"/>
</svg>
