<svg width="36" height="36" viewBox="0 0 36 36" fill="none" xmlns="http://www.w3.org/2000/svg">
<circle cx="18" cy="18" r="18" fill="#00EF8B"/>
<path d="M25.9532 15.7949H21.0579V20.7369H25.9532V15.7949Z" fill="white"/>
<path d="M16.166 22.5884C16.166 22.9552 16.0583 23.3139 15.8563 23.619C15.6544 23.924 15.3674 24.1617 15.0317 24.3021C14.6959 24.4426 14.3265 24.4793 13.97 24.4077C13.6136 24.3361 13.2862 24.1595 13.0292 23.9C12.7722 23.6406 12.5972 23.3101 12.5263 22.9503C12.4555 22.5904 12.4918 22.2175 12.6309 21.8785C12.77 21.5395 13.0055 21.2498 13.3077 21.046C13.6099 20.8422 13.9651 20.7334 14.3285 20.7334H16.166V15.7949H14.3285C12.9976 15.7949 11.6965 16.1933 10.5899 16.9398C9.48324 17.6863 8.62072 18.7473 8.11138 19.9886C7.60204 21.2299 7.46877 22.5959 7.72843 23.9137C7.98809 25.2315 8.62898 26.442 9.57014 27.3921C10.5112 28.3422 11.7103 28.9892 13.0156 29.2513C14.321 29.5134 15.6741 29.3789 16.9037 28.8647C18.1334 28.3506 19.1843 27.4798 19.9238 26.3626C20.6632 25.2454 21.0579 23.932 21.0579 22.5884V20.7334H16.166V22.5884Z" fill="white"/>
<path d="M22.8951 13.3238H28.4007V8.38184H22.8951C21.1109 8.38368 19.4004 9.09999 18.1388 10.3737C16.8771 11.6473 16.1676 13.3741 16.1658 15.1753V15.7948H21.0576V15.1753C21.0586 14.6839 21.2526 14.213 21.597 13.8658C21.9415 13.5188 22.4084 13.3238 22.8951 13.3238Z" fill="white"/>
</svg>
