<svg width="36" height="36" viewBox="0 0 36 36" fill="none" xmlns="http://www.w3.org/2000/svg">
<path d="M36 18C36 27.9414 27.9414 36 18 36C8.0586 36 0 27.9414 0 18C0 8.0586 8.0586 0 18 0C27.9414 0 36 8.0586 36 18Z" fill="#00EC97"/>
<path d="M23.424 9.92L19.6681 15.5C19.4084 15.88 19.9079 16.34 20.2675 16.02L23.9634 12.8C24.0633 12.72 24.2031 12.78 24.2031 12.92V22.98C24.2031 23.12 24.0233 23.18 23.9434 23.08L12.7558 9.68C12.3962 9.24 11.8768 9 11.2974 9H10.8979C9.85905 9 9 9.86 9 10.92V25.08C9 26.14 9.85905 27 10.9179 27C11.5771 27 12.1964 26.66 12.556 26.08L16.3119 20.5C16.5716 20.12 16.0721 19.66 15.7125 19.98L12.0166 23.18C11.9168 23.26 11.7769 23.2 11.7769 23.06V13.02C11.7769 12.88 11.9567 12.82 12.0366 12.92L23.2242 26.32C23.5838 26.76 24.1232 27 24.6826 27H25.0821C26.141 27 27 26.14 27 25.08V10.92C27 9.86 26.141 9 25.0821 9C24.4029 9 23.7836 9.34 23.424 9.92Z" fill="black"/>
</svg>
