<svg width="36" height="36" viewBox="0 0 36 36" fill="none" xmlns="http://www.w3.org/2000/svg">
<circle cx="18" cy="18" r="18" fill="#3E8445"/>
<path fill-rule="evenodd" clip-rule="evenodd" d="M14.443 12.4396V10.1779C14.443 9.71344 14.0669 9.3374 13.6041 9.3374H10.1306V16.0859C11.0983 14.4234 12.6203 13.1227 14.443 12.4396ZM20.4362 15.2074V13.0406H20.4365V13.0396H17.664C17.5738 13.0362 17.4844 13.0345 17.3939 13.0345C13.3792 13.0345 10.125 16.2897 10.125 20.3034C10.125 20.3939 10.1267 20.4834 10.13 20.5728V25.7022C10.13 26.1657 10.5051 26.5417 10.9696 26.5417H14.4474V20.4857C14.4508 18.7636 15.847 17.3708 17.5674 17.3708H18.2728C19.4675 17.3708 20.4362 16.4021 20.4362 15.2074ZM21.5568 25.7013V23.4397C23.3805 22.7558 24.9021 21.4552 25.8692 19.7922V26.5415H22.3957C21.9335 26.5418 21.5568 26.1658 21.5568 25.7013ZM15.5638 20.6718V22.8385H15.5635V22.8402H18.336C18.4261 22.8436 18.5156 22.8453 18.6061 22.8453C22.6208 22.8453 25.875 19.59 25.875 15.5764C25.875 15.4852 25.8743 15.3958 25.8699 15.3063V10.1769C25.8699 9.71344 25.4949 9.3374 25.0304 9.3374H21.5525V15.3934C21.5492 17.1155 20.153 18.5083 18.4325 18.5083H17.7272C16.5325 18.5083 15.5638 19.477 15.5638 20.6718Z" fill="white"/>
</svg>
