<svg width="36" height="36" viewBox="0 0 36 36" fill="none" xmlns="http://www.w3.org/2000/svg">
<circle cx="18" cy="18" r="17.75" fill="white" stroke="#EFEFF4" stroke-width="0.5"/>
<path fill-rule="evenodd" clip-rule="evenodd" d="M20.9744 23.513L23.7308 26.2694L28.7359 21.2643L25.9794 18.5078L23.7308 20.7565L23.2232 20.2489C20.5817 17.6074 20.8594 17.8853 18.218 15.2437L16.0002 13.0261C13.2643 10.2903 8.78766 10.2903 6.05187 13.0261C3.31602 15.7619 3.31607 20.2385 6.05187 22.9744C8.78766 25.7102 13.2643 25.7102 16.0002 22.9744L17.7103 21.2643L14.9539 18.5078L13.2437 20.2181C12.0241 21.438 10.028 21.4378 8.80827 20.2181C7.58851 18.9982 7.58851 17.0023 8.80821 15.7825C10.028 14.5626 12.0241 14.5626 13.2437 15.7825L15.4616 18.0003L18.2181 20.7566L20.4667 23.0053L20.9744 23.513ZM29.2437 20.7566L32 18.0002L29.2435 15.2438L26.4873 18L29.2437 20.7566ZM28.7359 14.7362L23.7308 9.73096L18.7258 14.7361L21.4822 17.4923L23.7309 15.2436L25.9797 17.4923L28.7359 14.7362Z" fill="url(#paint0_linear_7482_165489)"/>
<defs>
<linearGradient id="paint0_linear_7482_165489" x1="29.4145" y1="18.2997" x2="7.89341" y2="18.2999" gradientUnits="userSpaceOnUse">
<stop stop-color="#627EEA"/>
<stop offset="1" stop-color="#7CE9BB"/>
</linearGradient>
</defs>
</svg>
