<svg width="36" height="36" viewBox="0 0 36 36" fill="none" xmlns="http://www.w3.org/2000/svg">
<g clip-path="url(#clip0_13394_83260)">
<path d="M18 36C27.9417 36 36 27.9417 36 18C36 8.05829 27.9417 0 18 0C8.0583 0 0 8.05829 0 18C0 27.9417 8.0583 36 18 36Z" fill="black"/>
<path d="M23.9956 9.34331C24.22 9.12325 24.5214 9.00001 24.8353 9.00001H30L12.0044 26.6567C11.7801 26.8768 11.4786 27 11.1647 27H6L23.9956 9.34331Z" fill="white"/>
<path d="M9.64398 17.5909L14.3246 12.9965H17.8429L21.8324 9H12.0887C11.7704 9 11.4652 9.12665 11.2401 9.35209L9.99545 10.599C9.77041 10.8244 9.64398 11.1302 9.64398 11.449V17.5909Z" fill="white"/>
<path d="M26.356 18.4091L21.6754 23.0035H18.1571L14.1676 27H23.9113C24.2296 27 24.5348 26.8734 24.7598 26.6479L26.0045 25.401C26.2296 25.1756 26.356 24.8699 26.356 24.551V18.4091Z" fill="white"/>
</g>
<defs>
<clipPath id="clip0_13394_83260">
<rect width="36" height="36" rx="18" fill="white"/>
</clipPath>
</defs>
</svg>
