<svg width="36" height="36" viewBox="0 0 36 36" fill="none" xmlns="http://www.w3.org/2000/svg">
<circle cx="18" cy="18" r="18" fill="#A36EFE"/>
<path d="M10.5571 20.081L10.6418 21.6318C10.6474 21.7374 10.6868 21.8368 10.7533 21.9182C11.2181 22.4835 13.3022 24.456 17.9987 24.456C22.6952 24.456 24.7541 22.509 25.2362 21.9287C25.3088 21.8411 25.3507 21.7324 25.3575 21.6181L25.4415 20.0821C26.0006 19.7739 26.5778 19.4257 26.5778 19.4257C27.4853 18.9318 28.4982 19.6413 28.5 20.6819C28.5031 22.3655 27.1935 24.0957 25.4271 25.186C23.4353 26.4154 20.4622 26.9255 18 26.9255C15.5378 26.9255 12.5647 26.4154 10.5729 25.186C8.8065 24.0957 7.49693 22.3661 7.50001 20.6819C7.50185 19.6413 8.51467 18.9318 9.42219 19.4257C9.42219 19.4257 9.99841 19.7731 10.5571 20.081Z" fill="#4C2896"/>
<path d="M17.9994 9.0752C21.8394 9.0752 22.8806 9.16528 24.4419 9.34544H24.4413C25.1611 9.42869 25.738 9.96669 25.6844 10.6954L25.1093 18.5657C24.9293 18.6181 24.733 18.6842 24.5129 18.7585C23.3593 19.1474 21.5508 19.757 17.9993 19.757C14.4478 19.757 12.6394 19.1474 11.4857 18.7585C11.2654 18.6842 11.069 18.6179 10.8888 18.5655L10.3137 10.6954C10.2607 9.96669 10.8358 9.41564 11.5568 9.34544C13.0991 9.1951 14.7048 9.0752 17.9994 9.0752ZM11.1644 22.3367L11.1664 22.3644L11.2061 22.3736C11.1919 22.3612 11.178 22.3489 11.1644 22.3367ZM24.7959 22.3727L24.8317 22.3644L24.8335 22.3392C24.8212 22.3503 24.8087 22.3614 24.7959 22.3727Z" fill="#4C2896"/>
</svg>
