<svg width="36" height="36" viewBox="0 0 36 36" fill="none" xmlns="http://www.w3.org/2000/svg">
<g clip-path="url(#clip0_11555_204767)">
<path d="M18 36C27.9417 36 36 27.9417 36 18C36 8.05829 27.9417 0 18 0C8.0583 0 0 8.05829 0 18C0 27.9417 8.0583 36 18 36Z" fill="black"/>
<path d="M25.8109 14.094L25.843 14.0805C25.9384 14.0397 26.0084 14.0174 26.0635 14.0104L26.1241 14.0001C26.2483 13.9746 26.3764 13.9618 26.5045 13.9618C27.2754 13.9618 27.9191 13.7216 28.3661 13.2673C28.6876 12.9402 28.89 12.5157 28.9608 12.0243L29 12.0248V9.19971H24.2922V11.2436C24.2808 11.3909 24.2817 11.5264 24.2827 11.6464C24.2837 11.7781 24.2845 11.9026 24.2686 11.997L24.2641 12.0271C24.211 12.4263 24.018 12.7969 23.721 13.0707C23.4168 13.3512 23.2745 13.4128 23.2276 13.4261C23.1804 13.4396 23.1119 13.4333 22.9137 13.4065C22.7428 13.3835 22.5087 13.352 22.2231 13.352C21.003 13.352 19.9805 14.2731 19.8444 15.4956C19.814 15.7736 19.8312 15.9814 19.8436 16.133C19.8575 16.3015 19.8617 16.3524 19.8034 16.5202C19.6877 16.85 19.4413 17.1561 19.1098 17.3817C18.7783 17.6074 18.3966 17.7319 18.0355 17.7319L18.0003 17.7314L17.965 17.7319C17.6039 17.7319 17.2222 17.6077 16.8907 17.3817C16.559 17.1561 16.3126 16.85 16.1974 16.5209C16.1387 16.3524 16.1427 16.3013 16.1569 16.1325C16.1694 15.9809 16.1864 15.7733 16.1562 15.4946C16.0204 14.2729 14.9977 13.3517 13.7777 13.3517C13.4921 13.3517 13.2579 13.3833 13.0858 13.4065C12.8891 13.4331 12.8203 13.4394 12.7732 13.4258C12.7262 13.4123 12.5839 13.3509 12.2797 13.0702C11.9827 12.7967 11.79 12.426 11.7366 12.0268L11.7322 11.9968C11.7245 11.9509 11.7207 11.8981 11.719 11.8407V9.19971H7.01018V11.5943C7.00472 12.2687 7.22052 12.8473 7.63374 13.2676C8.08048 13.7219 8.72415 13.9618 9.49497 13.9618C9.62311 13.9618 9.751 13.9748 9.87566 14.0004L9.936 14.0104C9.99088 14.0177 10.0609 14.0399 10.157 14.0808L10.1886 14.094C10.5077 14.2213 10.7873 14.4344 10.9971 14.7106C11.5136 15.3899 11.5151 16.3403 11.0011 17.0216C10.8327 17.2449 10.6137 17.4313 10.3681 17.5608L10.346 17.5728C10.2787 17.6099 10.2186 17.6374 10.1635 17.6567C10.1389 17.6652 10.1168 17.6722 10.0962 17.6783L10.0728 17.6852C9.88708 17.7454 9.69264 17.7757 9.49521 17.7757C8.00275 17.7757 7 18.7013 7 20.0791C7 21.1545 7.48623 21.7126 7.89398 21.9913C8.39164 22.3314 8.99185 22.4278 9.56649 22.4809L9.60622 22.4855C9.75869 22.5055 9.88732 22.537 10.0351 22.5906L10.1064 22.6179L10.1185 22.6224C10.5054 22.7557 10.8295 23.0279 11.0314 23.3893C11.1454 23.5935 11.2243 23.8607 11.2536 24.1414C11.2651 24.2519 11.2728 24.3588 11.2802 24.4645C11.2859 24.5449 11.2924 24.6351 11.3011 24.7257V26.8H16.0089V24.0302L15.9756 24.0297C15.8981 23.497 15.6473 23.0091 15.2505 22.6302C15.2155 22.5972 15.1832 22.5691 15.1574 22.5468L15.1415 22.533C14.6349 22.0902 13.9761 22.0785 13.4948 22.0697H13.4896C13.4091 22.0682 13.3329 22.0667 13.2656 22.0635L13.1933 22.0521L13.0386 22.0173L12.8929 21.972L12.7357 21.9089C12.571 21.8335 12.4173 21.7353 12.281 21.6184L12.2504 21.5918C11.8149 21.1991 11.5988 20.715 11.5899 20.1122C11.5911 19.6814 11.7277 19.2731 11.985 18.9313C12.2358 18.5982 12.5911 18.3502 12.9855 18.233C13.3848 18.1145 14.1296 18.1115 14.4886 18.2273C15.1429 18.4379 15.6074 19.0435 15.6438 19.7342C15.6468 19.7913 15.6446 19.8512 15.6421 19.9213C15.6347 20.1239 15.6245 20.4014 15.7404 20.7523C16.0685 21.7286 16.9759 22.387 18.001 22.391C19.0234 22.387 19.9305 21.7283 20.2593 20.7506C20.3748 20.4017 20.3646 20.1242 20.3571 19.9206C20.3546 19.8512 20.3524 19.7913 20.3554 19.7345C20.3919 19.0438 20.8563 18.4379 21.5106 18.2275C21.8698 18.1118 22.6143 18.1148 23.0136 18.2333C23.4082 18.3507 23.7637 18.5987 24.0143 18.9318C24.2715 19.2736 24.4082 19.6819 24.4094 20.1127C24.4005 20.7155 24.1844 21.1996 23.7486 21.5925L23.7208 21.6169C23.5822 21.7356 23.4282 21.834 23.2636 21.9094L23.1067 21.9725L22.9609 22.0178L22.8342 22.0474L22.7339 22.064C22.6669 22.0672 22.5904 22.0687 22.5099 22.0702H22.5047C22.0235 22.079 21.3646 22.0907 20.8593 22.5325L20.8419 22.5478C20.8161 22.5701 20.7841 22.5979 20.7482 22.6317C20.3661 22.9966 20.1193 23.4647 20.0331 23.9764H19.9909V26.8007H24.6987V24.7265C24.7074 24.6361 24.7138 24.5457 24.7195 24.4652C24.727 24.3613 24.7347 24.2539 24.7462 24.1427C24.7754 23.8614 24.8544 23.5942 24.9684 23.3901C25.1703 23.0289 25.4944 22.7567 25.8813 22.6231L25.9647 22.5914C26.1124 22.538 26.2411 22.5065 26.3938 22.4862L26.4333 22.4817C27.0079 22.4286 27.6081 22.3321 28.1058 21.9921C28.8448 21.4871 28.9998 20.6734 28.9998 20.0798C28.9998 18.7021 27.997 17.7764 26.5045 17.7764C26.3071 17.7764 26.1127 17.7459 25.9269 17.686L25.9036 17.679C25.883 17.673 25.8609 17.666 25.8378 17.658C25.7812 17.6384 25.7211 17.6106 25.6523 17.5728L25.6317 17.5615C25.3861 17.432 25.167 17.2457 24.9985 17.0223C24.4844 16.3411 24.4859 15.3906 25.0024 14.7114C25.2122 14.4354 25.4919 14.222 25.8109 14.095V14.094Z" fill="#FFD000"/>
</g>
<defs>
<clipPath id="clip0_11555_204767">
<rect width="36" height="36" rx="18" fill="white"/>
</clipPath>
</defs>
</svg>
