<svg width="36" height="36" viewBox="0 0 36 36" fill="none" xmlns="http://www.w3.org/2000/svg">
<path d="M18 36C27.9411 36 36 27.9411 36 18C36 8.05887 27.9411 0 18 0C8.05887 0 0 8.05887 0 18C0 27.9411 8.05887 36 18 36Z" fill="#0E0E0F"/>
<path d="M25.8697 13.2825C25.7379 13.4167 25.5579 13.4922 25.3699 13.4926H7.65922C7.03324 13.4926 6.71623 12.7292 7.15377 12.276L10.0587 9.26663C10.1909 9.12922 10.3733 9.05167 10.5637 9.05127H28.3403C28.9699 9.05127 29.2857 9.8227 28.8401 10.2739L25.8697 13.2825ZM25.8697 26.7242C25.7363 26.8556 25.5567 26.9287 25.3699 26.9287H7.65922C7.03324 26.9287 6.71623 26.1846 7.15377 25.7422L10.0587 22.808C10.1925 22.6734 10.3745 22.5979 10.5641 22.5983H28.3407C28.9703 22.5983 29.2861 23.3504 28.8405 23.7899L25.8697 26.7242ZM25.8697 16.0287C25.7363 15.8977 25.5567 15.8242 25.3699 15.8246H7.65922C7.03324 15.8246 6.71623 16.5687 7.15377 17.011L10.0587 19.9453C10.1925 20.0799 10.3741 20.1554 10.5637 20.1554H28.3403C28.9699 20.1554 29.2857 19.4033 28.8401 18.9637L25.8697 16.0287Z" fill="url(#paint0_linear_7150_57378)"/>
<defs>
<linearGradient id="paint0_linear_7150_57378" x1="10.418" y1="24.3272" x2="22.2701" y2="9.19119" gradientUnits="userSpaceOnUse">
<stop stop-color="#CF41E8"/>
<stop offset="1" stop-color="#10F2B0"/>
</linearGradient>
</defs>
</svg>
