<svg width="36" height="36" viewBox="0 0 36 36" fill="none" xmlns="http://www.w3.org/2000/svg">
<rect width="36" height="36" rx="18" fill="#4DA2FF"/>
<path fill-rule="evenodd" clip-rule="evenodd" d="M23.1022 16.1753L23.1018 16.1763C23.9883 17.3017 24.5181 18.7271 24.5181 20.2775C24.5181 21.8509 23.9724 23.2956 23.0621 24.4286L22.9837 24.5262L22.9629 24.4022C22.9452 24.2968 22.9245 24.1903 22.9003 24.083C22.4447 22.0562 20.9603 20.3182 18.5171 18.911C16.8673 17.9633 15.923 16.8222 15.6751 15.5257C15.5149 14.6873 15.6339 13.8452 15.864 13.1239C16.094 12.4029 16.4362 11.7987 16.7268 11.435L17.6774 10.2581C17.8441 10.0518 18.156 10.0518 18.3227 10.2581L23.1022 16.1753ZM24.6055 14.9998L18.2355 7.11293C18.1138 6.96236 17.8862 6.96236 17.7645 7.11293L11.3943 14.9994L11.3737 15.0259C10.2015 16.4987 9.5 18.3704 9.5 20.4079C9.5 25.1531 13.3055 29 18 29C22.6945 29 26.5 25.1531 26.5 20.4079C26.5 18.3705 25.7985 16.4987 24.6263 15.0259L24.6055 14.9998ZM12.9185 16.15L13.4885 15.4442L13.5058 15.5744C13.5194 15.6776 13.5359 15.7813 13.5555 15.8854C13.9242 17.8439 15.2412 19.477 17.4431 20.7417C19.357 21.8446 20.4714 23.1129 20.7925 24.5039C20.9264 25.0844 20.9503 25.6555 20.8923 26.1549L20.8887 26.1857L20.8611 26.1994C19.9972 26.6267 19.0261 26.8665 17.9998 26.8665C14.4 26.8665 11.4816 23.9166 11.4816 20.2775C11.4816 18.7151 12.0196 17.2794 12.9185 16.15Z" fill="white"/>
</svg>
