<svg width="36" height="36" viewBox="0 0 36 36" fill="none" xmlns="http://www.w3.org/2000/svg">
<g clip-path="url(#clip0_6495_36851)">
<path d="M18 36C27.9417 36 36 27.9417 36 18C36 8.05829 27.9417 0 18 0C8.0583 0 0 8.05829 0 18C0 27.9417 8.0583 36 18 36Z" fill="#0098EA"/>
<path d="M24.1482 10.0498H11.8522C9.59211 10.0498 8.1661 12.4848 9.29614 14.4624L16.8836 27.6193C17.3813 28.4803 18.619 28.4803 19.1168 27.6193L26.7042 14.4624C27.8343 12.4848 26.4082 10.0498 24.1482 10.0498ZM16.8701 23.6642L15.2154 20.4624L11.2334 13.3323C11.045 12.996 11.1661 12.579 11.489 12.3772C11.5966 12.3099 11.7177 12.283 11.8387 12.283H16.8567L16.8701 23.6642ZM24.7535 13.3323L20.7715 20.4624L19.1168 23.6642V12.2964H24.1482C24.6997 12.283 25.0226 12.8749 24.7535 13.3323Z" fill="white"/>
</g>
<defs>
<clipPath id="clip0_6495_36851">
<rect width="36" height="36" rx="18" fill="white"/>
</clipPath>
</defs>
</svg>
