<svg width="36" height="36" viewBox="0 0 36 36" fill="none" xmlns="http://www.w3.org/2000/svg">
<path d="M18 36C27.9411 36 36 27.9411 36 18C36 8.05887 27.9411 0 18 0C8.05887 0 0 8.05887 0 18C0 27.9411 8.05887 36 18 36Z" fill="#EC0928"/>
<path fill-rule="evenodd" clip-rule="evenodd" d="M8.05493 8.03564L23.8544 10.8875L27.953 14.8009L16.3181 28.9285L8.05493 8.03564ZM26.0071 14.4996L19.6529 15.637L23.6149 12.2154L26.0071 14.4996ZM25.7982 15.6491L18.341 16.9842L17.2723 26.0019L25.7982 15.6491ZM16.2445 25.6833L10.3379 10.7493L17.2659 16.5515L17.3032 16.7456L16.2445 25.6833ZM10.8546 9.68739L17.838 15.5482L17.9654 15.5651L22.3653 11.7654L10.8546 9.68739Z" fill="white"/>
</svg>
