<svg width="36" height="36" viewBox="0 0 36 36" fill="none" xmlns="http://www.w3.org/2000/svg">
<g clip-path="url(#clip0_7453_160780)">
<path fill-rule="evenodd" clip-rule="evenodd" d="M18 36C27.9412 36 36 27.9412 36 18C36 8.05885 27.9412 0 18 0C8.05885 0 0 8.05885 0 18C0 22.5305 1.67378 26.6701 4.4367 29.8341L14.0691 20.9025C14.1752 20.7246 14.2567 20.5323 14.3108 20.3306L14.4815 19.6937L9.25405 18.9167C8.6412 18.8257 8.6412 17.9418 9.25405 17.8507L13.923 17.1568L8.51852 9.8652C8.14955 9.36741 8.77454 8.74249 9.27233 9.11139L16.5653 14.517L17.2597 9.84508C17.3507 9.23224 18.2346 9.23224 18.3257 9.84508L19.0198 14.5146L26.3096 9.11139C26.8074 8.74249 27.4324 9.36741 27.0634 9.8652L21.6593 17.1563L26.3313 17.8507C26.9442 17.9418 26.9442 18.8257 26.3313 18.9167L21.6591 19.6112L27.0634 26.9025C27.4324 27.4003 26.8074 28.0253 26.3096 27.6563L19.0197 22.2531L18.3257 26.9224C18.2346 27.5352 17.3507 27.5352 17.2597 26.9224L16.4824 21.693L15.7415 21.8915C15.6422 21.9181 15.5471 21.9566 15.4581 22.006L6.42227 31.783C9.552 34.4147 13.5908 36 18 36Z" fill="url(#paint0_linear_7453_160780)"/>
</g>
<defs>
<linearGradient id="paint0_linear_7453_160780" x1="-5.93814" y1="2.025" x2="42.8697" y2="28.3059" gradientUnits="userSpaceOnUse">
<stop stop-color="#2A2CBF"/>
<stop offset="0.515625" stop-color="#6335FF"/>
<stop offset="1" stop-color="#BD89FF"/>
</linearGradient>
<clipPath id="clip0_7453_160780">
<rect width="36" height="36" rx="18" fill="white"/>
</clipPath>
</defs>
</svg>
